<svg width="33" height="33" viewBox="0 0 33 33" fill="none" xmlns="http://www.w3.org/2000/svg">
<g clip-path="url(#clip0_860_2241)">
<path d="M25.743 14.6714C25.5452 14.6714 25.3519 14.6127 25.1875 14.5028C25.0231 14.3929 24.8949 14.2368 24.8193 14.0541C24.7436 13.8714 24.7238 13.6703 24.7624 13.4764C24.8009 13.2824 24.8961 13.1043 25.0359 12.9644C25.9733 12.0268 26.4999 10.7552 26.4999 9.42942C26.4999 8.1036 25.9733 6.83206 25.0359 5.89442C24.8538 5.70582 24.753 5.45321 24.7553 5.19102C24.7576 4.92882 24.8627 4.67801 25.0481 4.4926C25.2335 4.30719 25.4844 4.20202 25.7465 4.19974C26.0087 4.19747 26.2613 4.29826 26.45 4.48042C27.1 5.13044 27.6157 5.90214 27.9675 6.75147C28.3194 7.6008 28.5005 8.51111 28.5005 9.43042C28.5005 10.3497 28.3194 11.26 27.9675 12.1094C27.6157 12.9587 27.1 13.7304 26.45 14.3804C26.2621 14.5672 26.0079 14.6719 25.743 14.6714Z" fill="#737F86"/>
<path d="M17.257 14.6715C16.9918 14.6714 16.7375 14.566 16.55 14.3785C15.8999 13.7284 15.3843 12.9567 15.0324 12.1074C14.6806 11.2581 14.4995 10.3478 14.4995 9.42847C14.4995 8.50915 14.6806 7.59884 15.0324 6.74952C15.3843 5.90019 15.8999 5.12848 16.55 4.47847C16.7386 4.29631 16.9912 4.19551 17.2534 4.19779C17.5156 4.20007 17.7664 4.30524 17.9518 4.49065C18.1372 4.67606 18.2424 4.92687 18.2447 5.18906C18.247 5.45126 18.1462 5.70386 17.964 5.89247C17.0267 6.8301 16.5001 8.10165 16.5001 9.42747C16.5001 10.7533 17.0267 12.0248 17.964 12.9625C18.1038 13.1023 18.199 13.2805 18.2376 13.4744C18.2762 13.6684 18.2564 13.8694 18.1807 14.0521C18.105 14.2348 17.9769 14.391 17.8125 14.5009C17.6481 14.6108 17.4548 14.6694 17.257 14.6695V14.6715Z" fill="#737F86"/>
<path d="M28.5709 17.5005C28.3731 17.5004 28.1798 17.4418 28.0154 17.3319C27.851 17.222 27.7229 17.0658 27.6472 16.8831C27.5715 16.7004 27.5517 16.4994 27.5903 16.3054C27.6289 16.1115 27.7241 15.9333 27.8639 15.7935C29.5493 14.1044 30.4958 11.8156 30.4958 9.42948C30.4958 7.04332 29.5493 4.75461 27.8639 3.06548C27.7684 2.97323 27.6922 2.86289 27.6398 2.74088C27.5874 2.61888 27.5598 2.48766 27.5586 2.35488C27.5575 2.2221 27.5828 2.09042 27.6331 1.96753C27.6833 1.84463 27.7576 1.73298 27.8515 1.63908C27.9454 1.54519 28.057 1.47094 28.1799 1.42066C28.3028 1.37038 28.4345 1.34508 28.5673 1.34623C28.7001 1.34738 28.8313 1.37497 28.9533 1.42738C29.0753 1.47979 29.1856 1.55597 29.2779 1.65148C31.3377 3.71592 32.4946 6.51316 32.4946 9.42948C32.4946 12.3458 31.3377 15.143 29.2779 17.2075C29.1853 17.3007 29.0751 17.3745 28.9537 17.4248C28.8324 17.4751 28.7022 17.5008 28.5709 17.5005Z" fill="#737F86"/>
<path d="M14.4291 17.5003C14.2977 17.5007 14.1676 17.475 14.0462 17.4247C13.9248 17.3744 13.8147 17.3005 13.7221 17.2073C11.6622 15.1429 10.5054 12.3456 10.5054 9.42932C10.5054 6.51299 11.6622 3.71576 13.7221 1.65132C13.9107 1.46916 14.1633 1.36836 14.4255 1.37064C14.6877 1.37292 14.9385 1.47809 15.1239 1.6635C15.3093 1.84891 15.4145 2.09972 15.4167 2.36192C15.419 2.62411 15.3182 2.87672 15.1361 3.06532C13.4507 4.75445 12.5041 7.04316 12.5041 9.42932C12.5041 11.8155 13.4507 14.1042 15.1361 15.7933C15.2759 15.9332 15.3711 16.1113 15.4096 16.3053C15.4482 16.4992 15.4284 16.7003 15.3527 16.883C15.2771 17.0657 15.1489 17.2218 14.9845 17.3317C14.8201 17.4416 14.6268 17.5003 14.4291 17.5003Z" fill="#737F86"/>
<path d="M20.5 12.2454V20.4294H22.5V12.2454C23.1672 12.0095 23.7296 11.5454 24.0876 10.9349C24.4457 10.3245 24.5765 9.60718 24.4568 8.90969C24.3371 8.21219 23.9747 7.57946 23.4337 7.12331C22.8926 6.66717 22.2077 6.41699 21.5 6.41699C20.7923 6.41699 20.1074 6.66717 19.5663 7.12331C19.0253 7.57946 18.6629 8.21219 18.5432 8.90969C18.4235 9.60718 18.5543 10.3245 18.9124 10.9349C19.2705 11.5454 19.8328 12.0095 20.5 12.2454Z" fill="#737F86"/>
<path d="M27.5 22.4297H5.5C4.17392 22.4297 2.90215 22.9565 1.96447 23.8942C1.02678 24.8318 0.5 26.1036 0.5 27.4297C0.5 28.7558 1.02678 30.0275 1.96447 30.9652C2.90215 31.9029 4.17392 32.4297 5.5 32.4297H27.5C28.8261 32.4297 30.0979 31.9029 31.0355 30.9652C31.9732 30.0275 32.5 28.7558 32.5 27.4297C32.5 26.1036 31.9732 24.8318 31.0355 23.8942C30.0979 22.9565 28.8261 22.4297 27.5 22.4297ZM5.5 28.9297C5.20333 28.9297 4.91332 28.8417 4.66664 28.6769C4.41997 28.5121 4.22771 28.2778 4.11418 28.0037C4.00065 27.7296 3.97094 27.428 4.02882 27.1371C4.0867 26.8461 4.22956 26.5788 4.43934 26.369C4.64912 26.1592 4.91639 26.0164 5.20736 25.9585C5.49834 25.9006 5.79994 25.9303 6.07403 26.0439C6.34811 26.1574 6.58238 26.3497 6.7472 26.5963C6.91203 26.843 7 27.133 7 27.4297C7 27.8275 6.84196 28.209 6.56066 28.4903C6.27936 28.7717 5.89782 28.9297 5.5 28.9297ZM10.5 28.9297C10.2033 28.9297 9.91332 28.8417 9.66665 28.6769C9.41997 28.5121 9.22771 28.2778 9.11418 28.0037C9.00065 27.7296 8.97094 27.428 9.02882 27.1371C9.0867 26.8461 9.22956 26.5788 9.43934 26.369C9.64912 26.1592 9.91639 26.0164 10.2074 25.9585C10.4983 25.9006 10.7999 25.9303 11.074 26.0439C11.3481 26.1574 11.5824 26.3497 11.7472 26.5963C11.912 26.843 12 27.133 12 27.4297C12 27.8275 11.842 28.209 11.5607 28.4903C11.2794 28.7717 10.8978 28.9297 10.5 28.9297Z" fill="#737F86"/>
</g>
<defs>
<clipPath id="clip0_860_2241">
<rect width="32" height="32" fill="white" transform="translate(0.5 0.429688)"/>
</clipPath>
</defs>
</svg>
