<svg width="45" height="30" viewBox="0 0 45 30" fill="none" xmlns="http://www.w3.org/2000/svg">
<path d="M30.121 0.292787C29.9335 0.105316 29.6792 0 29.414 0C29.1488 0 28.8945 0.105316 28.707 0.292787L27.293 1.70679C27.1055 1.89431 27.0002 2.14862 27.0002 2.41379C27.0002 2.67895 27.1055 2.93326 27.293 3.12079L37.172 12.9998H1C0.734784 12.9998 0.48043 13.1051 0.292893 13.2927C0.105357 13.4802 0 13.7346 0 13.9998V15.9998C0 16.265 0.105357 16.5194 0.292893 16.7069C0.48043 16.8944 0.734784 16.9998 1 16.9998H37.172L27.293 26.8788C27.1055 27.0663 27.0002 27.3206 27.0002 27.5858C27.0002 27.8509 27.1055 28.1053 27.293 28.2928L28.707 29.7068C28.8945 29.8943 29.1488 29.9996 29.414 29.9996C29.6792 29.9996 29.9335 29.8943 30.121 29.7068L44.121 15.7068C44.3085 15.5193 44.4138 15.265 44.4138 14.9998C44.4138 14.7346 44.3085 14.4803 44.121 14.2928L30.121 0.292787Z" fill="#333333"/>
</svg>
