<svg width="45" height="31" viewBox="0 0 45 31" fill="none" xmlns="http://www.w3.org/2000/svg">
<path d="M30.6278 0.586732C30.4403 0.399261 30.186 0.293945 29.9208 0.293945C29.6557 0.293945 29.4014 0.399261 29.2138 0.586732L27.7998 2.00073C27.6124 2.18826 27.507 2.44257 27.507 2.70773C27.507 2.9729 27.6124 3.2272 27.7998 3.41473L37.6788 13.2937H1.50684C1.24162 13.2937 0.987265 13.3991 0.799729 13.5866C0.612193 13.7742 0.506836 14.0285 0.506836 14.2937V16.2937C0.506836 16.5589 0.612193 16.8133 0.799729 17.0008C0.987265 17.1884 1.24162 17.2937 1.50684 17.2937H37.6788L27.7998 27.1727C27.6124 27.3603 27.507 27.6146 27.507 27.8797C27.507 28.1449 27.6124 28.3992 27.7998 28.5867L29.2138 30.0007C29.4014 30.1882 29.6557 30.2935 29.9208 30.2935C30.186 30.2935 30.4403 30.1882 30.6278 30.0007L44.6278 16.0007C44.8153 15.8132 44.9206 15.5589 44.9206 15.2937C44.9206 15.0286 44.8153 14.7743 44.6278 14.5867L30.6278 0.586732Z" fill="white"/>
</svg>
