<svg width="1245" height="714" viewBox="0 0 1245 714" fill="none" xmlns="http://www.w3.org/2000/svg">
<mask id="mask0_796_2144" style="mask-type:luminance" maskUnits="userSpaceOnUse" x="0" y="439" width="315" height="275">
<path d="M0 439.082H314.797V713.43H0V439.082Z" fill="white"/>
</mask>
<g mask="url(#mask0_796_2144)">
<mask id="mask1_796_2144" style="mask-type:luminance" maskUnits="userSpaceOnUse" x="-111" y="439" width="426" height="426">
<path d="M102.242 439.082C-15.2266 439.082 -110.453 534.312 -110.453 651.777C-110.453 769.246 -15.2266 864.473 102.242 864.473C219.711 864.473 314.938 769.246 314.938 651.777C314.938 534.312 219.711 439.082 102.242 439.082Z" fill="white"/>
</mask>
<g mask="url(#mask1_796_2144)">
<path d="M102.242 439.082C-15.2266 439.082 -110.453 534.313 -110.453 651.777C-110.453 769.246 -15.2266 864.473 102.242 864.473C219.711 864.473 314.938 769.246 314.938 651.777C314.938 534.313 219.711 439.082 102.242 439.082Z" stroke="#F6F6F6" stroke-width="200"/>
</g>
</g>
<mask id="mask2_796_2144" style="mask-type:luminance" maskUnits="userSpaceOnUse" x="849" y="0" width="375" height="376">
<path d="M849.289 0.410156H1223.98V375.094H849.289V0.410156Z" fill="white"/>
</mask>
<g mask="url(#mask2_796_2144)">
<mask id="mask3_796_2144" style="mask-type:luminance" maskUnits="userSpaceOnUse" x="849" y="0" width="375" height="376">
<path d="M1036.63 0.410156C933.164 0.410156 849.289 84.2852 849.289 187.754C849.289 291.219 933.164 375.094 1036.63 375.094C1140.1 375.094 1223.98 291.219 1223.98 187.754C1223.98 84.2852 1140.1 0.410156 1036.63 0.410156Z" fill="white"/>
</mask>
<g mask="url(#mask3_796_2144)">
<path d="M849.289 0.410156H1223.98V375.094H849.289V0.410156Z" fill="#FFC700"/>
</g>
</g>
<path d="M1199.75 371.559L1160.31 394.434C1158.46 395.484 1156.1 396.012 1154 396.012C1151.89 396.012 1149.53 395.484 1147.69 394.434L1108.25 371.559C1106.67 370.773 1105.62 369.457 1105.62 367.879V371.559C1105.88 373.137 1106.67 374.715 1108.25 375.242L1147.69 398.117C1149.53 399.168 1151.89 399.691 1154 399.691C1156.1 399.691 1158.46 399.168 1160.31 398.117L1199.75 375.242C1201.32 374.715 1202.11 373.137 1202.38 371.559C1202.38 371.824 1201.59 370.773 1199.75 371.559Z" fill="#414042"/>
<path d="M1139.01 378.133L1132.7 374.453V348.422L1139.01 352.102V378.133Z" fill="#191919"/>
<path d="M1139.01 352.105L1132.7 348.422L1162.67 331.332L1168.98 335.016L1139.01 352.105Z" fill="#113A52"/>
<mask id="mask4_796_2144" style="mask-type:luminance" maskUnits="userSpaceOnUse" x="1105" y="339" width="98" height="58">
<path d="M1105 339.43H1203V396.43H1105V339.43Z" fill="white"/>
</mask>
<g mask="url(#mask4_796_2144)">
<mask id="mask5_796_2144" style="mask-type:luminance" maskUnits="userSpaceOnUse" x="1105" y="339" width="98" height="58">
<path d="M1199.75 364.199C1203.16 366.301 1203.43 369.457 1199.75 371.559L1160.31 394.434C1156.36 396.539 1151.63 396.539 1147.69 394.434L1108.25 371.559C1104.83 369.457 1104.83 366.301 1108.25 364.199L1147.69 341.324C1151.63 339.223 1156.36 339.223 1160.31 341.324L1199.75 364.199Z" fill="white"/>
</mask>
<g mask="url(#mask5_796_2144)">
<path d="M1104.83 339.223V396.539H1203.43V339.223H1104.83Z" fill="url(#paint0_linear_796_2144)"/>
</g>
</g>
<path d="M1237.35 122.836C1240.76 120.734 1243.66 122.308 1243.66 126.516L1243.92 284.269C1243.66 288.738 1241.29 292.945 1237.61 295.312L1059.61 398.117C1056.19 400.219 1053.3 398.379 1053.3 394.434L1053.03 236.68C1053.3 232.211 1055.66 228.004 1059.34 225.637L1237.35 122.836Z" fill="#E4E3E5"/>
<path d="M1237.34 122.836C1240.76 120.734 1053.82 383.656 1053.82 387.598L1244.18 284.269C1243.92 288.742 1241.55 292.949 1237.87 295.312L1059.87 398.117C1056.45 400.219 1053.56 398.379 1053.56 394.433L1053.3 236.683C1053.56 232.211 1055.93 228.004 1059.61 225.64L1237.34 122.836Z" fill="#EFEFEF"/>
<path d="M1053.3 394.434C1053.3 394.434 1052.51 399.168 1058.03 398.902L1243.92 280.852L1053.03 388.648" fill="#2C57F3"/>
<path d="M1053.3 394.434L1053.03 236.68L1046.72 233L1046.98 390.754C1046.72 392.332 1047.51 393.906 1048.82 394.961L1055.14 398.641C1053.82 397.59 1053.03 396.012 1053.3 394.434Z" fill="#414042"/>
<mask id="mask6_796_2144" style="mask-type:luminance" maskUnits="userSpaceOnUse" x="1046" y="117" width="196" height="121">
<path d="M1046 117.836H1242V237.43H1046V117.836Z" fill="white"/>
</mask>
<g mask="url(#mask6_796_2144)">
<path d="M1235.5 118.629C1233.93 117.84 1232.35 118.105 1231.04 119.156L1053.03 221.957C1049.35 224.324 1046.98 228.531 1046.72 233L1053.03 236.68C1053.3 232.211 1055.66 228.004 1059.34 225.637L1237.34 122.836C1238.66 121.785 1240.5 121.785 1241.82 122.309L1235.5 118.629Z" fill="#414042"/>
</g>
<path d="M1073.28 379.711C1070.91 381.289 1069.6 383.656 1069.33 386.547C1069.33 389.176 1071.18 389.965 1073.28 388.914C1075.64 387.336 1076.96 384.969 1077.22 382.078C1077.22 379.711 1075.64 378.66 1073.28 379.711Z" fill="#072DB7"/>
<path d="M1073.28 381.024C1071.7 382.078 1070.65 383.918 1070.39 386.02C1070.39 387.863 1071.7 388.649 1073.28 387.598C1074.86 386.547 1075.91 384.707 1076.17 382.602C1076.17 380.762 1074.86 380.238 1073.28 381.024Z" fill="#FFB100"/>
<path d="M1168.98 335.016V361.043L1139.01 378.133V352.105L1168.98 335.016Z" fill="#414042"/>
<path d="M1238.4 294.789L1058.03 398.902C1056.19 399.429 1054.08 398.379 1053.56 396.273C1053.56 396.012 1053.56 395.75 1053.56 395.75V388.648L1244.18 281.117C1243.92 280.851 1244.97 290.054 1238.4 294.789Z" fill="#59595B"/>
<path d="M1073.54 270.336L1230.25 184.098L1229.98 227.215L1072.75 315.559L1073.54 270.336Z" fill="#FFB100"/>
<path d="M1073.02 234.051L1124.02 205.656L1123.76 235.105L1072.75 263.5L1073.02 234.051Z" fill="#1040EF"/>
<path d="M1132.17 207.496L1230.25 152.809V170.164L1131.91 225.375L1132.17 207.496Z" fill="#1040EF"/>
<path d="M1074.07 341.324C1074.07 341.586 1074.33 341.848 1074.59 341.586L1114.56 317.922C1114.82 317.66 1115.09 317.398 1115.09 316.875V302.41C1115.09 302.148 1114.82 301.887 1114.56 302.148L1074.59 325.813C1074.33 326.074 1074.07 326.336 1074.07 326.863V341.324Z" fill="#7B9F00"/>
<path d="M1132.44 306.883C1132.44 307.145 1132.7 307.406 1132.96 307.145L1172.93 283.48C1173.19 283.219 1173.45 282.957 1173.45 282.43V267.969C1173.45 267.707 1173.19 267.445 1172.93 267.707L1132.96 291.371C1132.7 291.633 1132.44 291.895 1132.44 292.422V306.883Z" fill="#7B9F00"/>
<path d="M1189.75 272.437C1189.75 272.699 1190.02 272.965 1190.28 272.699L1230.25 249.039C1230.51 248.773 1230.77 248.511 1230.77 247.988V233.789C1230.77 233.527 1230.51 233.261 1230.25 233.527L1190.28 257.187C1190.02 257.453 1189.75 257.715 1189.75 258.242V272.437Z" fill="#7B9F00"/>
<path d="M1074.07 361.832C1074.07 362.097 1074.33 362.359 1074.59 362.097L1114.56 338.433C1114.82 338.168 1115.09 337.906 1115.09 337.379V323.183C1115.09 322.922 1114.82 322.656 1114.56 322.922L1074.59 346.582C1074.33 346.847 1074.07 347.109 1074.07 347.633V361.832Z" fill="#7B9F00"/>
<path d="M1132.44 327.39C1132.44 327.652 1132.7 327.914 1132.96 327.652L1172.93 303.988C1173.19 303.726 1173.45 303.465 1173.45 302.937V288.476C1173.45 288.215 1173.19 287.949 1172.93 288.215L1132.96 311.875C1132.7 312.14 1132.44 312.402 1132.44 312.929V327.39Z" fill="#7B9F00"/>
<path d="M1189.75 292.945C1189.75 293.211 1190.02 293.472 1190.28 293.211L1230.25 269.547C1230.51 269.285 1230.77 269.019 1230.77 268.496V254.035C1230.77 253.773 1230.51 253.508 1230.25 253.773L1190.28 277.433C1190.02 277.699 1189.75 277.961 1189.75 278.484V292.945Z" fill="#7B9F00"/>
<path d="M1147.56 178.445L1141.75 181.754L1127.62 173.898C1127.62 173.484 1127.62 173.484 1127.62 173.07C1127.62 173.07 1127.62 172.66 1128.04 172.66L1128.87 172.246H1128.45C1128.45 172.246 1128.04 172.246 1128.04 171.832C1127.62 172.246 1126.79 172.66 1126.37 172.66C1124.29 173.484 1122.63 173.898 1120.55 173.898C1120.55 174.312 1120.97 174.727 1120.97 175.141C1121.39 175.551 1121.8 176.379 1121.8 176.793C1123.05 176.793 1123.88 175.551 1125.54 175.141C1127.2 174.727 1128.87 176.379 1130.11 177.207C1134.27 180.098 1138.84 181.754 1142.99 184.645C1143.41 182.168 1147.56 180.926 1150.05 180.926C1148.81 179.687 1148.39 178.859 1147.56 178.445Z" fill="#302A26"/>
<path d="M1147.56 178.445C1147.98 178.859 1148.81 179.688 1149.64 180.512H1150.05C1151.3 178.445 1152.96 177.207 1155.04 176.379C1154.63 175.965 1154.21 175.551 1153.8 175.141L1147.56 178.445Z" fill="#12100E"/>
<path d="M1142.57 184.234C1143.41 185.059 1144.65 185.473 1145.9 185.473C1146.32 185.887 1147.15 185.887 1147.98 185.887C1147.56 186.715 1147.15 187.125 1146.32 187.539C1147.15 187.953 1147.98 188.367 1148.81 189.191H1147.98C1147.56 190.848 1149.23 194.152 1149.64 195.809C1150.47 198.289 1150.89 200.766 1151.72 203.246C1152.55 205.312 1153.38 208.207 1155.87 208.621C1157.12 208.621 1157.95 208.621 1159.2 208.621C1159.2 208.207 1158.78 207.383 1158.78 206.555C1157.54 198.699 1155.46 191.262 1152.96 183.82C1152.55 182.992 1151.3 181.34 1150.05 180.098C1147.15 180.512 1142.99 181.754 1142.57 184.234Z" fill="#413833"/>
<path d="M1159.2 208.621C1157.95 208.621 1157.12 208.621 1155.88 208.621C1153.38 208.207 1152.55 205.727 1151.72 203.246C1150.89 200.766 1150.47 198.289 1149.64 195.809C1149.23 194.152 1147.15 190.848 1147.98 189.195H1148.81C1147.98 188.367 1147.15 187.953 1146.32 187.539C1147.15 187.125 1147.56 186.715 1147.98 185.887C1147.15 185.887 1146.73 185.887 1145.9 185.473C1144.65 185.473 1143.41 184.645 1142.58 184.234C1138.42 181.34 1133.85 179.688 1129.7 176.793C1128.45 175.965 1126.79 174.313 1125.12 174.727C1123.46 175.141 1122.63 176.379 1121.39 176.379C1125.54 181.34 1136.76 183.82 1142.58 187.953C1144.24 194.981 1147.15 201.594 1150.05 208.207C1150.05 209.449 1151.3 210.688 1150.89 211.93H1151.3C1151.72 211.93 1152.55 212.34 1152.96 212.34C1154.21 212.34 1155.04 212.34 1156.29 212.34C1157.54 211.93 1158.37 210.688 1159.2 210.273C1159.2 210.273 1159.2 210.273 1159.61 210.273C1159.2 209.863 1159.2 209.035 1159.2 208.621Z" fill="#302A26"/>
<path d="M1150.05 180.512C1150.89 181.754 1152.13 183.406 1152.55 184.234C1155.04 191.672 1157.12 199.113 1158.37 206.969C1158.78 202.008 1158.78 186.715 1158.37 182.578C1158.78 181.34 1156.7 178.445 1155.04 176.379C1152.96 176.793 1151.3 178.445 1150.05 180.512Z" fill="#26211E"/>
<path d="M1132.61 175.141C1132.61 175.141 1131.77 174.312 1132.19 173.898C1131.36 173.484 1130.94 173.484 1130.11 173.07C1129.7 172.66 1128.87 172.66 1128.45 172.246L1127.62 172.66L1128.04 173.07L1129.28 173.484C1129.7 173.484 1130.11 173.898 1130.53 173.898L1132.61 175.141Z" fill="#303A3A"/>
<path d="M1132.61 175.141L1130.94 174.312C1131.36 174.312 1131.77 174.727 1132.61 175.141Z" fill="#303A3A"/>
<path d="M1132.19 175.141L1132.61 175.551L1140.5 180.098L1141.33 177.621C1139.25 176.793 1136.76 175.551 1134.68 174.727C1134.27 174.727 1133.44 174.727 1133.02 174.727V175.141C1132.61 175.141 1132.19 174.727 1131.77 174.727C1132.19 174.727 1132.19 175.141 1132.19 175.141Z" fill="#303A3A"/>
<path d="M1127.62 173.898L1141.75 181.754L1147.56 178.445L1153.8 174.727L1160.86 170.594C1160.86 170.18 1160.86 169.766 1160.86 169.352L1146.73 177.621L1141.75 180.512L1140.5 179.688L1132.61 175.141L1132.19 174.727L1131.36 174.313C1130.94 173.898 1130.53 173.898 1130.11 173.484L1129.7 173.074L1128.87 172.66L1127.62 172.246L1127.2 171.832C1127.2 171.832 1127.2 172.246 1126.79 172.246C1127.62 173.484 1127.62 173.898 1127.62 173.898Z" fill="#4D5858"/>
<path d="M1130.53 174.313C1130.11 174.313 1129.7 173.898 1129.28 173.898L1130.11 174.313H1130.53Z" fill="#303A3A"/>
<path d="M1113.08 154.883C1113.08 155.711 1113.49 156.953 1113.49 157.777C1114.32 157.777 1114.74 157.777 1115.57 157.363C1116.4 157.363 1117.65 156.953 1118.48 156.539C1119.31 156.125 1121.39 155.297 1122.22 154.473C1121.8 153.645 1121.39 152.406 1120.97 151.164C1120.55 149.926 1119.72 148.684 1118.89 147.445C1118.06 146.617 1116.82 146.203 1115.57 145.789C1114.74 146.203 1113.91 146.617 1113.49 147.445C1113.49 147.445 1113.49 147.445 1113.49 147.859C1113.49 148.27 1113.08 148.27 1113.08 148.684C1112.66 149.926 1112.25 151.164 1112.66 152.406V152.816C1112.66 153.23 1112.66 153.23 1113.08 153.645C1113.08 154.059 1113.08 154.473 1113.08 154.883Z" fill="#4EB2CF"/>
<path d="M1121.39 156.332L1121.8 155.918C1122.21 155.504 1122.63 155.504 1122.63 155.09C1122.63 154.68 1122.21 154.68 1122.21 154.266C1121.8 155.09 1119.72 155.918 1118.48 156.332C1117.64 156.746 1116.4 157.156 1115.57 157.156C1114.74 157.156 1114.32 157.57 1113.49 157.57C1113.49 157.984 1113.49 158.398 1113.49 159.227C1113.91 159.227 1114.32 159.227 1114.74 159.227H1115.15C1117.65 158.398 1119.31 157.57 1121.39 156.332Z" fill="#64CAFA"/>
<path d="M1112.66 149.098C1112.25 149.926 1112.25 151.164 1112.66 152.406C1112.66 151.164 1112.66 149.926 1113.08 148.684C1113.08 148.27 1113.49 148.27 1113.49 147.855C1113.08 148.27 1112.66 148.27 1112.66 149.098Z" fill="#4EB2CF"/>
<path d="M1121.8 155.297C1121.8 155.711 1122.21 155.711 1122.21 156.125C1121.8 156.539 1121.8 156.953 1121.39 156.953C1121.39 156.953 1121.39 156.953 1121.39 157.363V157.777C1121.39 158.191 1121.39 158.191 1121.8 158.605C1122.21 159.43 1122.21 160.258 1122.63 161.086C1123.05 161.91 1123.05 162.738 1123.46 163.566C1125.54 165.219 1128.45 166.457 1130.53 168.113H1130.94C1130.94 168.113 1130.94 168.113 1131.36 168.523C1133.85 167.699 1136.34 166.047 1138 163.977C1137.18 162.324 1136.34 160.672 1135.93 159.02C1135.93 157.363 1135.93 155.297 1135.93 153.645C1135.93 152.816 1135.93 151.578 1135.93 150.75C1135.93 150.336 1135.93 149.926 1135.93 149.512C1135.93 149.098 1135.93 148.684 1135.93 147.855C1135.93 146.617 1135.51 145.379 1135.1 144.137C1134.68 142.484 1133.44 140.418 1132.61 139.176C1132.19 137.937 1131.36 137.109 1130.11 136.285V136.695C1130.11 137.109 1130.11 137.109 1130.11 137.523C1130.11 138.352 1130.11 138.762 1130.11 139.176V139.59C1130.11 139.59 1130.11 140.004 1129.7 140.004C1130.11 140.832 1130.53 142.07 1130.11 142.898C1130.11 144.137 1129.28 145.379 1127.62 145.379C1125.96 145.379 1124.29 145.379 1122.63 144.551C1121.8 144.137 1120.14 143.309 1119.31 142.07L1118.89 142.484C1118.48 142.898 1118.06 143.309 1117.64 143.309C1117.23 143.723 1116.4 144.551 1115.98 144.965C1115.57 145.379 1115.57 145.789 1115.15 145.789C1115.15 145.789 1114.74 145.789 1114.74 146.203C1114.32 146.617 1113.91 147.445 1113.49 147.855C1113.91 147.031 1114.74 146.203 1115.57 146.203C1116.82 146.203 1118.06 146.617 1118.89 147.855C1119.72 148.684 1120.55 150.336 1120.97 151.578C1120.55 153.23 1120.97 154.059 1121.8 155.297Z" fill="#4297B0"/>
<path d="M1115.16 159.02C1115.16 160.258 1115.57 161.5 1115.57 162.324C1116.4 165.633 1117.65 168.938 1118.89 172.246C1120.14 172.246 1121.8 171.832 1123.05 171.832C1123.88 171.832 1124.29 171.418 1125.12 171.004C1124.29 170.594 1123.46 170.18 1123.05 169.766C1122.22 169.352 1121.39 168.938 1120.97 168.113C1120.55 167.699 1120.55 167.699 1120.14 167.285C1119.72 167.285 1119.72 166.871 1119.31 166.457C1117.65 164.391 1116.4 161.91 1115.16 159.02C1115.16 159.43 1115.16 159.43 1115.16 159.02Z" fill="#4297B0"/>
<path d="M1139.05 172.98C1138.63 172.566 1138.21 172.566 1137.38 172.566C1136.14 172.566 1134.89 171.742 1134.47 170.914C1133.23 173.395 1129.07 170.914 1127.41 170.086C1124.09 168.02 1120.35 166.367 1119.52 161.82C1119.1 160.578 1118.69 159.34 1119.93 158.512C1120.76 157.687 1121.59 157.273 1122.01 156.445V156.031C1122.01 156.031 1122.01 156.031 1122.01 155.621L1121.59 156.031C1121.59 156.031 1121.59 156.031 1121.18 156.445C1119.52 157.687 1117.44 158.512 1115.78 158.926H1115.36C1115.36 159.34 1115.78 159.34 1115.78 159.754C1117.02 162.234 1118.27 164.715 1119.93 166.781C1120.35 167.195 1120.35 167.195 1120.76 167.605C1121.18 168.02 1121.18 168.02 1121.59 168.434C1122.43 168.848 1123.26 169.672 1123.67 170.086C1124.5 170.5 1125.33 170.914 1125.75 171.328C1126.58 171.742 1127.41 172.152 1127.83 172.152C1127.83 172.152 1128.24 172.152 1128.24 172.566H1128.66C1129.07 172.98 1129.49 172.98 1130.32 173.395C1131.15 173.809 1131.57 174.219 1132.39 174.219C1132.81 174.219 1133.23 174.633 1133.64 174.633C1134.06 174.633 1134.89 174.633 1135.3 174.633C1136.14 174.633 1136.97 174.219 1137.8 174.219C1138.21 174.219 1138.21 174.633 1138.63 174.633C1139.05 174.633 1139.05 175.047 1139.46 175.047C1139.88 175.047 1139.88 175.461 1140.29 175.461C1140.71 175.461 1141.12 175.875 1141.12 175.461H1141.54C1141.54 175.047 1141.12 175.047 1141.12 174.633C1139.46 173.809 1139.46 173.395 1139.05 172.98Z" fill="#F79B6A"/>
<path d="M1120.14 125.535C1118.48 126.777 1116.82 128.844 1117.65 130.496C1118.06 132.148 1118.89 134.215 1119.72 135.871C1119.72 136.285 1119.72 136.695 1119.72 137.523C1119.72 137.937 1120.14 138.351 1120.55 138.351C1120.55 138.351 1120.55 138.351 1120.55 137.937V138.351C1120.97 138.351 1120.97 138.351 1121.39 138.351C1121.39 137.937 1121.39 137.937 1121.39 137.523C1121.39 137.523 1121.39 137.109 1120.97 137.109V136.695C1120.14 136.695 1120.14 135.043 1120.14 134.215C1119.72 133.391 1120.97 133.391 1121.39 133.391C1121.39 133.805 1121.39 134.629 1121.39 135.043C1121.8 135.457 1121.8 135.457 1122.21 135.871C1122.21 135.457 1122.21 135.043 1122.21 134.629C1122.21 134.215 1122.63 133.391 1122.63 132.976C1122.63 132.562 1123.05 132.148 1123.05 131.738C1123.46 131.738 1123.46 131.738 1123.88 131.738C1124.71 131.738 1125.12 131.324 1125.96 131.324C1125.96 131.738 1125.54 132.148 1125.54 132.562C1126.37 132.562 1126.79 132.148 1127.2 131.738C1127.62 131.324 1128.04 130.91 1128.45 130.496C1128.45 130.91 1128.04 130.91 1128.04 131.324C1128.45 130.91 1129.7 130.082 1129.7 129.258C1129.7 130.082 1130.11 130.91 1130.11 131.324C1129.7 132.148 1130.11 132.148 1130.11 133.391C1130.53 132.148 1130.53 130.496 1130.53 129.258C1130.53 125.535 1123.46 123.469 1120.14 125.535Z" fill="#30120B"/>
<path d="M1123.05 171.418C1121.8 171.832 1120.14 171.832 1118.89 171.832C1119.31 172.246 1119.31 173.07 1119.72 173.484C1121.8 173.484 1123.88 173.07 1125.54 172.246C1125.96 172.246 1126.79 171.832 1127.2 171.418C1126.37 171.004 1125.54 170.594 1125.12 170.594C1124.29 171.004 1123.88 171.418 1123.05 171.418Z" fill="#4EB2CF"/>
<path d="M1120.14 141.109L1119.72 141.523C1120.14 142.766 1121.8 143.59 1123.05 144.004C1124.29 144.832 1126.37 145.246 1128.04 144.832C1129.28 144.832 1130.53 143.59 1130.53 142.352C1130.53 141.523 1130.53 140.285 1130.11 139.457L1129.7 139.871C1129.7 139.871 1129.7 140.285 1130.11 140.285C1130.11 140.699 1130.11 140.699 1130.53 141.109C1130.53 141.523 1130.53 141.937 1130.11 142.352C1129.7 143.176 1128.45 143.59 1127.62 143.59C1127.2 143.59 1126.79 143.59 1126.79 143.59C1125.13 143.176 1123.88 142.352 1122.63 141.523C1122.63 141.109 1122.63 141.109 1122.63 140.699V140.285C1122.63 140.285 1122.63 140.699 1122.21 140.699C1120.55 140.699 1120.55 140.699 1120.14 141.109Z" fill="#64CAFA"/>
<path d="M1130.73 167.543C1130.32 167.543 1130.32 167.543 1130.73 167.543L1130.32 167.129C1128.24 165.477 1125.34 164.238 1123.26 162.582C1123.26 161.758 1122.84 160.93 1122.43 160.102C1122.01 159.277 1122.01 158.449 1121.59 157.625C1121.59 157.211 1121.59 157.211 1121.18 156.797C1120.76 157.621 1119.52 158.035 1119.1 158.863C1118.27 160.102 1118.69 160.93 1118.69 162.172C1119.52 166.305 1123.26 167.957 1126.58 170.438C1128.24 171.676 1132.4 174.156 1133.64 171.266C1134.47 172.09 1135.3 172.918 1136.55 172.918C1137.38 172.918 1138.21 172.918 1138.63 173.332H1139.05C1139.05 173.332 1139.05 173.332 1139.46 173.332C1139.46 173.332 1139.46 173.332 1139.87 173.332C1140.29 173.742 1140.71 173.742 1141.12 173.332H1141.54V172.918L1141.12 172.504L1140.71 172.09C1140.71 172.09 1140.71 172.09 1140.71 171.676C1140.71 171.266 1140.29 170.852 1140.29 170.438L1139.87 170.023C1139.46 169.609 1139.46 169.609 1139.05 169.195C1138.63 168.785 1138.21 168.371 1137.8 168.371C1136.55 168.371 1135.3 168.785 1134.06 169.195H1133.64C1133.64 169.195 1133.64 169.195 1133.23 169.195C1132.81 169.195 1132.4 168.785 1131.98 168.785C1131.98 168.785 1131.98 168.785 1131.57 168.785C1131.15 168.785 1131.15 168.371 1130.73 168.371C1131.57 168.371 1131.15 167.957 1130.73 167.543ZM1137.38 170.852C1137.38 170.437 1137.8 170.437 1137.8 170.023C1138.21 170.023 1138.63 170.023 1139.05 170.438H1138.21C1137.8 170.852 1137.38 170.852 1137.38 170.852Z" fill="#F8A773"/>
<path d="M1121.39 132.719C1120.97 132.305 1120.14 132.305 1120.14 133.543C1120.14 134.371 1120.55 135.613 1120.97 136.023H1121.39C1121.39 136.437 1121.8 137.266 1122.22 137.68C1122.63 138.09 1123.05 138.094 1123.46 138.504V138.09C1123.46 137.68 1123.46 136.852 1123.46 136.023C1123.46 135.613 1123.88 134.785 1123.88 134.371C1123.88 133.543 1123.46 133.543 1123.88 132.719C1123.88 132.305 1123.88 131.891 1123.88 131.477C1123.46 131.477 1123.46 131.477 1123.05 131.477C1123.05 131.891 1122.63 132.305 1122.63 132.719C1122.22 133.133 1122.22 133.957 1122.22 134.371C1122.22 134.785 1122.22 135.199 1122.22 135.613C1121.8 135.199 1121.39 135.199 1121.39 134.785C1121.39 133.957 1121.39 133.133 1121.39 132.719Z" fill="#F8A773"/>
<path d="M1120.97 139.332C1120.97 139.746 1120.97 139.746 1120.97 140.16C1122.21 140.984 1123.88 141.812 1125.12 142.227C1125.54 142.227 1125.54 142.227 1125.96 142.227C1126.79 142.227 1128.04 141.812 1128.45 140.984C1128.87 140.57 1128.87 140.16 1128.87 139.746C1128.87 139.332 1128.87 139.332 1128.45 138.918C1128.45 138.918 1128.45 138.504 1128.04 138.504C1127.62 138.504 1127.2 138.918 1126.79 138.918C1126.79 138.918 1126.79 138.918 1126.37 138.918C1125.12 138.504 1124.29 138.504 1123.46 138.094C1123.05 137.68 1122.63 137.68 1122.21 137.266C1121.8 136.852 1121.39 136.437 1121.39 135.613H1120.97V136.023C1120.97 136.023 1120.97 136.438 1121.39 136.438C1121.39 136.852 1121.39 136.852 1121.39 137.266C1121.39 137.68 1121.39 137.68 1121.39 138.094V138.504C1121.39 138.504 1120.97 138.918 1120.97 139.332C1120.97 138.918 1120.97 138.918 1120.97 139.332Z" fill="#F79B6A"/>
<path d="M1129.64 138.219L1130.06 137.805V137.391C1130.06 136.977 1130.06 136.152 1130.06 135.738C1130.06 135.324 1130.06 135.324 1130.06 134.91V134.496C1130.06 134.082 1130.06 134.082 1130.06 133.672V133.258C1130.06 132.016 1129.64 132.016 1130.06 131.191C1130.06 130.363 1130.06 129.535 1129.64 129.125C1129.64 129.949 1128.4 130.777 1127.98 131.191C1127.98 130.777 1127.98 130.777 1128.4 130.363C1127.98 130.777 1127.57 131.191 1127.15 131.605C1126.74 132.016 1125.91 132.43 1125.49 132.43C1125.49 132.016 1125.91 131.605 1125.91 131.191C1125.49 131.605 1124.66 131.605 1123.83 131.605C1123.83 132.016 1123.83 132.43 1123.83 132.844C1123.41 133.672 1123.83 133.672 1123.83 134.496C1123.83 134.91 1123.83 135.738 1123.41 136.152C1123.41 136.977 1123.41 137.391 1123.41 138.219V138.633C1124.24 139.043 1125.49 139.457 1126.32 139.457C1126.32 139.457 1126.32 139.457 1126.74 139.457C1127.15 139.457 1127.57 139.457 1127.98 139.043C1129.23 138.629 1129.64 138.633 1129.64 138.219Z" fill="#FAB685"/>
<path d="M1129.7 135.457C1130.53 136.285 1131.36 137.523 1132.19 138.352C1133.02 140.004 1134.27 141.656 1134.68 143.309C1135.1 144.551 1135.52 145.789 1135.52 147.031C1137.59 146.617 1138.84 144.551 1139.25 142.484C1138.84 142.07 1138.42 141.242 1138.01 140.832C1137.18 140.004 1136.34 138.762 1135.52 137.938C1135.1 137.523 1134.68 136.695 1134.27 136.285C1134.27 136.285 1134.27 136.285 1134.27 135.871C1134.27 135.457 1133.85 135.457 1133.85 135.043C1133.44 134.629 1133.02 134.215 1132.61 134.215C1130.94 135.043 1130.53 135.457 1129.7 135.457Z" fill="#388196"/>
<path d="M1131.77 173.898C1131.77 174.312 1132.19 175.141 1132.19 175.141C1132.19 175.141 1132.19 174.727 1131.77 173.898C1132.19 174.312 1132.61 174.727 1133.02 174.727V174.312C1132.61 174.312 1132.19 174.312 1131.77 173.898Z" fill="#303A3A"/>
<path d="M1131.36 167.699C1131.77 168.113 1132.19 168.523 1132.61 168.938L1133.44 168.523C1135.51 167.699 1137.18 166.457 1138.42 164.391C1138.42 163.977 1138.01 163.566 1138.01 163.152C1135.93 165.219 1133.85 166.871 1131.36 167.699Z" fill="#4EB2CF"/>
<path d="M1133.02 168.527L1132.19 168.938C1132.61 169.352 1132.61 169.352 1133.02 169.352L1133.85 168.938L1139.67 165.633C1138.84 165.219 1138.42 165.219 1137.59 164.805C1137.18 166.047 1135.1 167.699 1133.02 168.527Z" fill="#12100E"/>
<path d="M1142.16 165.633L1141.75 164.805L1140.09 165.633L1134.27 168.938L1133.44 169.352C1133.44 169.352 1133.44 169.352 1133.85 169.352C1134.27 169.766 1134.68 169.766 1135.1 169.766H1135.52C1137.59 168.523 1140.09 166.871 1142.16 165.633Z" fill="#303A3A"/>
<path d="M1134.68 170.18C1135.1 170.18 1135.1 170.18 1134.68 170.18H1135.52C1136.76 169.766 1138.01 169.352 1139.25 169.352C1139.67 169.766 1140.08 170.18 1140.5 170.18C1141.75 169.352 1142.99 168.523 1143.82 167.699C1144.24 167.699 1144.24 167.285 1144.65 167.285C1144.65 166.871 1144.24 166.457 1144.24 166.047C1144.24 165.633 1143.82 165.219 1143.41 164.805C1142.99 164.805 1142.99 165.219 1142.58 165.219L1142.16 165.633C1140.08 167.285 1137.59 168.523 1135.52 169.766C1135.52 169.766 1135.1 169.766 1134.68 170.18C1135.1 169.766 1135.1 169.766 1134.68 170.18Z" fill="#64706F"/>
<path d="M1139.67 173.484C1140.08 173.898 1140.08 174.312 1140.5 174.312L1140.91 174.727H1140.5C1140.08 174.727 1139.67 174.727 1139.67 174.727C1139.25 174.312 1139.25 174.312 1138.84 174.312C1138.42 174.312 1138.42 173.898 1138.01 173.898C1137.59 173.898 1137.59 173.484 1137.18 173.484C1136.34 173.484 1135.51 173.898 1134.68 173.898C1136.76 174.727 1139.25 175.965 1141.33 176.793L1142.58 173.074H1142.16C1141.75 173.898 1141.33 173.484 1140.91 173.074C1140.91 173.074 1140.91 173.074 1140.5 173.074L1139.67 173.484C1140.08 173.484 1140.08 173.484 1139.67 173.484Z" fill="#2A2926"/>
<path d="M1135.52 146.824C1135.52 147.238 1135.52 147.648 1135.52 148.477C1135.93 148.477 1136.34 148.477 1136.76 148.063C1137.18 147.648 1137.59 147.238 1138.01 146.824C1138.42 146.41 1138.84 145.582 1139.67 145.172C1140.08 144.758 1140.08 144.344 1140.08 143.93C1139.67 143.516 1139.25 143.102 1139.25 142.691C1138.84 144.344 1137.18 146.41 1135.52 146.824Z" fill="#64CAFA"/>
<path d="M1143.62 163.266C1144.03 163.68 1144.03 164.094 1144.45 164.508C1144.45 164.922 1144.86 165.332 1144.86 165.746C1144.86 166.16 1144.86 166.16 1145.28 166.574L1145.69 165.746L1146.11 164.094C1145.28 162.852 1144.45 161.199 1143.62 159.961C1142.37 158.305 1141.54 156.652 1141.12 155C1140.71 154.172 1141.12 152.934 1141.12 152.52C1141.12 152.105 1140.29 152.105 1139.88 151.691C1139.46 151.277 1137.8 149.211 1137.8 148.387C1137.8 147.559 1139.46 146.32 1140.29 145.906L1139.88 144.664C1139.46 145.492 1139.05 145.906 1138.21 146.32C1137.8 146.73 1137.38 147.145 1136.97 147.559C1136.55 147.559 1136.14 147.973 1135.72 147.973C1135.72 148.387 1135.72 148.801 1135.72 149.211C1135.72 149.625 1136.14 150.039 1136.14 150.039C1136.14 150.453 1136.55 150.867 1136.97 151.277C1137.38 152.105 1138.63 152.52 1139.05 153.348C1139.05 153.348 1139.05 153.758 1139.46 153.758C1139.87 155.414 1140.29 157.066 1141.12 158.305C1141.54 159.133 1141.95 159.961 1142.37 160.785C1142.79 161.199 1143.2 161.613 1143.62 162.027C1143.2 162.852 1143.2 163.266 1143.62 163.266Z" fill="#F79B6A"/>
<path d="M1137.38 148.387C1137.38 149.211 1139.05 151.277 1139.46 151.691C1139.87 152.105 1140.29 152.105 1140.71 152.52C1141.12 152.934 1140.71 154.586 1140.71 155C1141.54 156.652 1142.37 158.305 1143.2 159.961C1144.03 161.199 1144.86 162.852 1145.69 164.094L1147.77 162.852C1147.36 162.027 1147.36 161.199 1146.94 160.785C1146.52 159.547 1146.11 158.305 1145.69 157.066C1144.86 155 1144.03 153.348 1142.79 151.691C1142.37 151.277 1142.37 151.277 1141.95 150.867C1141.95 150.453 1141.54 150.453 1141.54 150.039C1140.71 148.801 1140.29 147.145 1139.46 145.906C1139.05 146.73 1137.38 147.559 1137.38 148.387Z" fill="#F8A773"/>
<path d="M1138.01 171.004H1139.25C1138.84 170.594 1138.42 170.594 1138.01 170.594V171.004Z" fill="#64706F"/>
<path d="M1139.67 173.484C1140.08 173.898 1140.5 174.313 1140.5 174.313C1140.91 174.727 1140.91 174.727 1140.91 175.141L1140.5 174.727C1140.08 174.312 1140.08 173.898 1139.67 173.484Z" fill="#F79B6A"/>
<path d="M1145.9 165.219L1145.48 166.871L1145.07 167.699V168.113L1142.99 173.484V173.898L1141.75 177.617L1140.91 180.098L1142.16 180.926L1147.56 165.633L1166.68 154.883C1167.09 154.059 1165.43 154.473 1165.43 154.473L1149.64 163.566L1148.81 163.977L1147.98 164.391L1145.9 165.219Z" fill="#6D7B79"/>
<path d="M1143.82 167.699C1142.57 168.523 1141.33 169.352 1140.5 170.18C1140.91 170.594 1140.91 170.594 1141.33 171.004L1141.75 171.418C1142.16 171.832 1142.16 172.246 1142.16 172.66L1142.57 173.074L1142.99 173.484L1145.07 168.113V167.699C1145.07 167.285 1144.65 167.285 1144.65 166.871H1144.24C1144.24 167.699 1144.24 167.699 1143.82 167.699Z" fill="#2A2926"/>
<path d="M1142.99 163.98L1141.75 164.805L1142.16 165.633L1142.58 165.219C1142.99 165.219 1142.99 164.805 1143.41 164.805C1143.41 164.391 1143.41 163.98 1142.99 163.98Z" fill="#303A3A"/>
<path d="M1147.15 165.633L1141.75 180.512L1146.73 177.621L1160.86 169.352L1166.68 154.473L1147.15 165.633Z" fill="#979797"/>
<path d="M1143.82 167.699H1144.65C1144.65 167.285 1144.24 167.285 1143.82 167.699Z" fill="#2A2926"/>
<path d="M1147.15 161.91C1147.15 162.738 1147.56 163.566 1147.98 163.977L1148.81 163.566L1149.64 163.152L1148.39 162.324C1147.98 162.324 1147.56 161.91 1147.15 161.91Z" fill="#303A3A"/>
<path d="M1150.89 212.754C1154.21 215.234 1157.95 217.301 1161.69 218.953C1162.93 218.543 1163.77 218.129 1165.01 217.715C1165.01 217.301 1165.01 216.887 1165.01 216.063C1165.01 215.648 1165.01 215.234 1164.6 214.82C1164.6 214.406 1164.18 214.406 1163.77 214.406C1162.93 213.996 1162.52 213.582 1161.69 213.168C1160.44 213.168 1159.2 213.996 1158.78 215.234C1157.95 214.82 1156.7 214.406 1155.87 213.996C1155.04 213.582 1154.21 213.168 1153.38 212.34C1152.96 212.34 1152.13 212.34 1151.72 211.93C1151.3 212.34 1150.89 212.34 1150.89 212.754Z" fill="#2F8AA1"/>
<path d="M1150.89 212.754C1150.89 213.168 1150.89 213.582 1150.89 213.582C1152.55 214.82 1154.63 216.062 1156.29 217.301C1157.54 218.543 1159.2 219.367 1160.86 219.781C1162.11 220.195 1163.35 219.781 1164.18 218.953C1164.6 218.543 1164.6 218.129 1164.6 217.715C1163.35 218.129 1162.52 218.543 1161.27 218.953C1157.95 217.301 1154.21 215.234 1150.89 212.754Z" fill="#0F2C33"/>
<path d="M1156.29 212.34C1155.04 212.34 1154.21 212.754 1152.96 212.34C1153.8 213.168 1154.63 213.582 1155.46 213.996C1156.29 214.406 1157.54 214.82 1158.37 215.234C1158.78 213.996 1160.03 213.168 1161.27 213.168C1160.44 212.754 1160.03 211.93 1159.61 211.102L1159.2 210.273C1158.37 210.687 1157.12 211.93 1156.29 212.34Z" fill="#F79B6A"/>
<path d="M1159.61 210.688V211.102C1160.03 211.93 1160.86 212.34 1161.27 213.168C1161.69 213.582 1162.52 214.41 1163.35 214.41C1163.77 214.41 1164.18 214.82 1164.18 214.82C1164.6 214.406 1165.01 214.41 1165.43 213.996C1165.43 213.582 1165.01 213.168 1164.6 212.754C1162.94 211.93 1161.27 212.34 1159.61 210.688Z" fill="#24697A"/>
<path d="M1164.18 214.82C1164.18 215.234 1164.6 215.648 1164.6 216.062C1165.01 215.648 1165.43 214.82 1165.43 213.996C1165.01 214.41 1164.6 214.82 1164.18 214.82Z" fill="#0F2C33"/>
<defs>
<linearGradient id="paint0_linear_796_2144" x1="1104.83" y1="367.879" x2="1203.43" y2="367.879" gradientUnits="userSpaceOnUse">
<stop stop-color="#6D6E71"/>
<stop offset="0.03125" stop-color="#6D6E71"/>
<stop offset="0.046875" stop-color="#6E6F72"/>
<stop offset="0.0625" stop-color="#6F7073"/>
<stop offset="0.078125" stop-color="#6F7073"/>
<stop offset="0.09375" stop-color="#707174"/>
<stop offset="0.109375" stop-color="#707174"/>
<stop offset="0.125" stop-color="#717275"/>
<stop offset="0.140625" stop-color="#717376"/>
<stop offset="0.15625" stop-color="#727376"/>
<stop offset="0.171875" stop-color="#737477"/>
<stop offset="0.1875" stop-color="#737477"/>
<stop offset="0.203125" stop-color="#747578"/>
<stop offset="0.21875" stop-color="#747678"/>
<stop offset="0.234375" stop-color="#757679"/>
<stop offset="0.25" stop-color="#76777A"/>
<stop offset="0.265625" stop-color="#76777A"/>
<stop offset="0.28125" stop-color="#77787B"/>
<stop offset="0.296875" stop-color="#77787B"/>
<stop offset="0.3125" stop-color="#78797C"/>
<stop offset="0.328125" stop-color="#787A7C"/>
<stop offset="0.34375" stop-color="#797A7D"/>
<stop offset="0.359375" stop-color="#7A7B7E"/>
<stop offset="0.375" stop-color="#7A7B7E"/>
<stop offset="0.390625" stop-color="#7B7C7F"/>
<stop offset="0.40625" stop-color="#7B7D7F"/>
<stop offset="0.421875" stop-color="#7C7D80"/>
<stop offset="0.4375" stop-color="#7C7E80"/>
<stop offset="0.453125" stop-color="#7D7E81"/>
<stop offset="0.46875" stop-color="#7E7F82"/>
<stop offset="0.484375" stop-color="#7E8082"/>
<stop offset="0.5" stop-color="#7F8083"/>
<stop offset="0.515625" stop-color="#7F8183"/>
<stop offset="0.53125" stop-color="#808184"/>
<stop offset="0.546875" stop-color="#808284"/>
<stop offset="0.5625" stop-color="#818285"/>
<stop offset="0.578125" stop-color="#828386"/>
<stop offset="0.59375" stop-color="#828486"/>
<stop offset="0.609375" stop-color="#838487"/>
<stop offset="0.625" stop-color="#838587"/>
<stop offset="0.640625" stop-color="#848588"/>
<stop offset="0.65625" stop-color="#848688"/>
<stop offset="0.671875" stop-color="#858789"/>
<stop offset="0.6875" stop-color="#86878A"/>
<stop offset="0.703125" stop-color="#86888A"/>
<stop offset="0.71875" stop-color="#87888B"/>
<stop offset="0.734375" stop-color="#87898B"/>
<stop offset="0.75" stop-color="#888A8C"/>
<stop offset="0.765625" stop-color="#898A8C"/>
<stop offset="0.78125" stop-color="#898B8D"/>
<stop offset="0.796875" stop-color="#8A8B8E"/>
<stop offset="0.8125" stop-color="#8A8C8E"/>
<stop offset="0.828125" stop-color="#8B8C8F"/>
<stop offset="0.84375" stop-color="#8B8D8F"/>
<stop offset="0.859375" stop-color="#8C8E90"/>
<stop offset="0.875" stop-color="#8D8E90"/>
<stop offset="0.890625" stop-color="#8D8F91"/>
<stop offset="0.90625" stop-color="#8E8F92"/>
<stop offset="0.921875" stop-color="#8E9092"/>
<stop offset="0.9375" stop-color="#8F9193"/>
<stop offset="0.953125" stop-color="#8F9193"/>
<stop offset="0.96875" stop-color="#909294"/>
<stop offset="1" stop-color="#919295"/>
</linearGradient>
</defs>
</svg>
