<svg width="33" height="26" viewBox="0 0 33 26" fill="none" xmlns="http://www.w3.org/2000/svg">
<path d="M16.1933 11.9179H13.7747V7.8672H16.644C18.204 7.8672 19.0893 8.5632 19.0893 9.82187C19.0893 11.1659 18.0587 11.9179 16.1907 11.9179H16.1933ZM16.6253 13.5259H13.776V17.9899H16.7507C18.696 17.9899 19.7267 17.2099 19.7267 15.7432C19.7267 14.2765 18.6667 13.5259 16.6253 13.5259ZM32.5 12.1179V13.7419C30.996 13.8859 30.0773 15.0005 29.532 16.7659C28.9893 18.5245 28.9147 20.6819 28.972 22.3472C29.032 24.0805 27.6813 25.6805 25.856 25.6805H7.14667C5.32 25.6805 3.96933 24.0805 4.03067 22.3472C4.088 20.6819 4.01333 18.5245 3.47067 16.7659C2.924 15.0005 2.004 13.8859 0.5 13.7419V12.1179C2.004 11.9739 2.92533 10.8592 3.46933 9.09387C4.01333 7.3352 4.088 5.17787 4.02933 3.51253C3.96933 1.7792 5.32 0.179199 7.14667 0.179199H25.856C27.6827 0.179199 29.032 1.7792 28.972 3.51253C28.9147 5.17787 28.9893 7.3352 29.532 9.09387C30.0773 10.8592 30.996 11.9739 32.5 12.1179ZM21.9307 15.8739C21.9307 14.0685 20.66 12.7632 18.7733 12.5565V12.4805C20.16 12.2552 21.248 10.9672 21.248 9.52987C21.248 7.48053 19.6307 6.14586 17.1653 6.14586H11.6187V19.7085H17.1933C20.1507 19.7085 21.9307 18.2605 21.9307 15.8739Z" fill="#001724" fill-opacity="0.55"/>
</svg>
