<svg width="113" height="305" viewBox="0 0 113 305" fill="none" xmlns="http://www.w3.org/2000/svg">
<path d="M0 4.25439C0 2.04526 1.79086 0.254395 4 0.254395H60C62.2091 0.254395 64 2.04526 64 4.25439V60.2544C64 62.4635 62.2091 64.2544 60 64.2544H4C1.79086 64.2544 0 62.4635 0 60.2544V4.25439Z" fill="#DBDBDB"/>
<path d="M88.032 33.4464V34.6144H86.64V37.2544H85.216V34.6144H80.64V33.5584L83.856 26.3904L85.088 26.9024L82.192 33.4464H85.232L85.36 30.5664H86.64V33.4464H88.032ZM93.9076 28.6304C94.985 28.6304 95.7743 29.0144 96.2756 29.7824C96.777 30.5504 97.0276 31.6331 97.0276 33.0304C97.0276 34.3531 96.7396 35.4197 96.1636 36.2304C95.5876 37.0411 94.7716 37.4464 93.7156 37.4464C92.777 37.4464 92.041 37.1264 91.5076 36.4864V40.4864L90.0356 40.6624V28.8224H91.2996L91.4116 29.9584C91.721 29.5317 92.0943 29.2064 92.5316 28.9824C92.969 28.7477 93.4276 28.6304 93.9076 28.6304ZM93.3636 36.2464C94.7503 36.2464 95.4436 35.1744 95.4436 33.0304C95.4436 30.8757 94.809 29.7984 93.5396 29.7984C93.1236 29.7984 92.745 29.9211 92.4036 30.1664C92.0623 30.4117 91.7636 30.7264 91.5076 31.1104V35.2224C91.721 35.5531 91.9876 35.8091 92.3076 35.9904C92.6276 36.1611 92.9796 36.2464 93.3636 36.2464ZM102.627 32.7424L105.555 37.2544H103.779L101.715 33.6864L99.619 37.2544H97.955L100.899 32.8064L98.291 28.8224H100.019L101.779 31.9104L103.555 28.8224H105.219L102.627 32.7424Z" fill="#002033" fill-opacity="0.65"/>
<path d="M0 88.2544C0 83.8361 3.58172 80.2544 8 80.2544H56C60.4183 80.2544 64 83.8361 64 88.2544V136.254C64 140.673 60.4183 144.254 56 144.254H8C3.58172 144.254 0 140.673 0 136.254V88.2544Z" fill="#DBDBDB"/>
<path d="M85.84 111.51C87.344 112.118 88.096 113.078 88.096 114.39C88.096 114.977 87.936 115.505 87.616 115.974C87.3067 116.433 86.8693 116.796 86.304 117.062C85.7387 117.318 85.0987 117.446 84.384 117.446C83.6587 117.446 83.0187 117.318 82.464 117.062C81.9093 116.806 81.4773 116.449 81.168 115.99C80.8693 115.532 80.72 115.009 80.72 114.422C80.72 113.761 80.896 113.206 81.248 112.758C81.6107 112.31 82.1387 111.937 82.832 111.638C82.2667 111.35 81.8453 111.004 81.568 110.598C81.3013 110.182 81.168 109.697 81.168 109.142C81.168 108.566 81.3173 108.07 81.616 107.654C81.9253 107.238 82.3253 106.924 82.816 106.71C83.3173 106.497 83.8507 106.39 84.416 106.39C84.9707 106.39 85.4933 106.492 85.984 106.694C86.4853 106.897 86.8907 107.206 87.2 107.622C87.5093 108.028 87.664 108.518 87.664 109.094C87.664 109.628 87.5147 110.086 87.216 110.47C86.9173 110.854 86.4587 111.201 85.84 111.51ZM84.416 107.494C83.8613 107.494 83.4187 107.638 83.088 107.926C82.768 108.214 82.608 108.625 82.608 109.158C82.608 109.67 82.7627 110.06 83.072 110.326C83.392 110.593 83.8987 110.838 84.592 111.062L84.864 111.158C85.344 110.881 85.6907 110.588 85.904 110.278C86.1173 109.969 86.224 109.59 86.224 109.142C86.224 108.641 86.064 108.241 85.744 107.942C85.4347 107.644 84.992 107.494 84.416 107.494ZM84.4 116.278C85.0613 116.278 85.584 116.108 85.968 115.766C86.3627 115.425 86.56 114.972 86.56 114.406C86.56 114.022 86.4853 113.702 86.336 113.446C86.1867 113.18 85.9467 112.95 85.616 112.758C85.2853 112.556 84.8213 112.353 84.224 112.15L83.824 112.006C83.2907 112.262 82.896 112.588 82.64 112.982C82.384 113.366 82.256 113.846 82.256 114.422C82.256 115.009 82.448 115.468 82.832 115.798C83.216 116.118 83.7387 116.278 84.4 116.278ZM94.2045 108.63C95.2818 108.63 96.0712 109.014 96.5725 109.782C97.0738 110.55 97.3245 111.633 97.3245 113.03C97.3245 114.353 97.0365 115.42 96.4605 116.23C95.8845 117.041 95.0685 117.446 94.0125 117.446C93.0738 117.446 92.3378 117.126 91.8045 116.486V120.486L90.3325 120.662V108.822H91.5965L91.7085 109.958C92.0178 109.532 92.3912 109.206 92.8285 108.982C93.2658 108.748 93.7245 108.63 94.2045 108.63ZM93.6605 116.246C95.0472 116.246 95.7405 115.174 95.7405 113.03C95.7405 110.876 95.1058 109.798 93.8365 109.798C93.4205 109.798 93.0418 109.921 92.7005 110.166C92.3592 110.412 92.0605 110.726 91.8045 111.11V115.222C92.0178 115.553 92.2845 115.809 92.6045 115.99C92.9245 116.161 93.2765 116.246 93.6605 116.246ZM102.924 112.742L105.852 117.254H104.076L102.012 113.686L99.9159 117.254H98.2519L101.196 112.806L98.5879 108.822H100.316L102.076 111.91L103.852 108.822H105.516L102.924 112.742Z" fill="#002033" fill-opacity="0.65"/>
<path d="M0 172.254C0 165.627 5.37258 160.254 12 160.254H52C58.6274 160.254 64 165.627 64 172.254V212.254C64 218.882 58.6274 224.254 52 224.254H12C5.37258 224.254 0 218.882 0 212.254V172.254Z" fill="#DBDBDB"/>
<path d="M85.168 186.55V197.254H83.696V188.118L81.2 189.638L80.56 188.598L83.872 186.55H85.168ZM90.5699 186.39C91.2099 186.39 91.7699 186.518 92.2499 186.774C92.7405 187.03 93.1192 187.382 93.3859 187.83C93.6525 188.268 93.7859 188.764 93.7859 189.318C93.7859 189.969 93.6365 190.593 93.3379 191.19C93.0499 191.788 92.6019 192.433 91.9939 193.126C91.3859 193.82 90.4632 194.785 89.2259 196.022H94.0419L93.8659 197.254H87.5459V196.086C88.9752 194.604 89.9885 193.521 90.5859 192.838C91.1832 192.145 91.6099 191.542 91.8659 191.03C92.1219 190.518 92.2499 189.969 92.2499 189.382C92.2499 188.828 92.0899 188.396 91.7699 188.086C91.4499 187.766 91.0232 187.606 90.4899 187.606C90.0525 187.606 89.6685 187.697 89.3379 187.878C89.0072 188.06 88.6552 188.358 88.2819 188.774L87.3219 188.006C87.7592 187.462 88.2445 187.057 88.7779 186.79C89.3112 186.524 89.9085 186.39 90.5699 186.39ZM100.236 188.63C101.313 188.63 102.102 189.014 102.604 189.782C103.105 190.55 103.356 191.633 103.356 193.03C103.356 194.353 103.068 195.42 102.492 196.23C101.916 197.041 101.1 197.446 100.044 197.446C99.1051 197.446 98.3691 197.126 97.8358 196.486V200.486L96.3638 200.662V188.822H97.6278L97.7398 189.958C98.0491 189.532 98.4224 189.206 98.8598 188.982C99.2971 188.748 99.7558 188.63 100.236 188.63ZM99.6918 196.246C101.078 196.246 101.772 195.174 101.772 193.03C101.772 190.876 101.137 189.798 99.8678 189.798C99.4518 189.798 99.0731 189.921 98.7318 190.166C98.3904 190.412 98.0918 190.726 97.8358 191.11V195.222C98.0491 195.553 98.3158 195.809 98.6358 195.99C98.9558 196.161 99.3078 196.246 99.6918 196.246ZM108.955 192.742L111.883 197.254H110.107L108.043 193.686L105.947 197.254H104.283L107.227 192.806L104.619 188.822H106.347L108.107 191.91L109.883 188.822H111.547L108.955 192.742Z" fill="#002033" fill-opacity="0.65"/>
<path d="M0 256.254C0 247.418 7.16344 240.254 16 240.254H48C56.8366 240.254 64 247.418 64 256.254V288.254C64 297.091 56.8366 304.254 48 304.254H16C7.16344 304.254 0 297.091 0 288.254V256.254Z" fill="#DBDBDB"/>
<path d="M85.168 266.55V277.254H83.696V268.118L81.2 269.638L80.56 268.598L83.872 266.55H85.168ZM91.8499 270.214C92.3939 270.214 92.8899 270.342 93.3379 270.598C93.7859 270.854 94.1432 271.238 94.4099 271.75C94.6765 272.262 94.8099 272.886 94.8099 273.622C94.8099 274.38 94.6552 275.052 94.3459 275.638C94.0472 276.214 93.6365 276.662 93.1139 276.982C92.6019 277.292 92.0312 277.446 91.4019 277.446C90.1539 277.446 89.2419 276.988 88.6659 276.07C88.0899 275.142 87.8019 273.862 87.8019 272.23C87.8019 271.068 87.9619 270.049 88.2819 269.174C88.6125 268.289 89.0819 267.606 89.6899 267.126C90.2979 266.636 91.0179 266.39 91.8499 266.39C92.6605 266.39 93.3965 266.609 94.0579 267.046L93.4819 268.022C92.9805 267.713 92.4312 267.558 91.8339 267.558C91.0659 267.558 90.4579 267.926 90.0099 268.662C89.5619 269.398 89.3165 270.385 89.2739 271.622C89.9352 270.684 90.7939 270.214 91.8499 270.214ZM91.4019 276.278C92.0205 276.278 92.4952 276.044 92.8259 275.574C93.1565 275.105 93.3219 274.47 93.3219 273.67C93.3219 272.145 92.7459 271.382 91.5939 271.382C91.1245 271.382 90.6925 271.516 90.2979 271.782C89.9032 272.038 89.5672 272.396 89.2899 272.854C89.3219 274.028 89.5032 274.892 89.8339 275.446C90.1752 276.001 90.6979 276.278 91.4019 276.278ZM100.845 268.63C101.922 268.63 102.712 269.014 103.213 269.782C103.714 270.55 103.965 271.633 103.965 273.03C103.965 274.353 103.677 275.42 103.101 276.23C102.525 277.041 101.709 277.446 100.653 277.446C99.7145 277.446 98.9785 277.126 98.4451 276.486V280.486L96.9731 280.662V268.822H98.2371L98.3491 269.958C98.6585 269.532 99.0318 269.206 99.4691 268.982C99.9065 268.748 100.365 268.63 100.845 268.63ZM100.301 276.246C101.688 276.246 102.381 275.174 102.381 273.03C102.381 270.876 101.746 269.798 100.477 269.798C100.061 269.798 99.6825 269.921 99.3411 270.166C98.9998 270.412 98.7011 270.726 98.4451 271.11V275.222C98.6585 275.553 98.9251 275.809 99.2451 275.99C99.5651 276.161 99.9171 276.246 100.301 276.246ZM109.565 272.742L112.493 277.254H110.717L108.653 273.686L106.557 277.254H104.893L107.837 272.806L105.229 268.822H106.957L108.717 271.91L110.493 268.822H112.157L109.565 272.742Z" fill="#002033" fill-opacity="0.65"/>
</svg>
