<svg width="802" height="384" viewBox="0 0 802 384" fill="none" xmlns="http://www.w3.org/2000/svg">
<g filter="url(#filter0_dd_637_2175)">
<path d="M6 21.9961C6 13.1595 13.1634 5.99609 22 5.99609H780C788.837 5.99609 796 13.1595 796 21.9961V357.996C796 366.833 788.837 373.996 780 373.996H22C13.1635 373.996 6 366.833 6 357.996V21.9961Z" fill="white" shape-rendering="crispEdges"/>
<path d="M6.5 21.9961C6.5 13.4357 13.4396 6.49609 22 6.49609H780C788.56 6.49609 795.5 13.4357 795.5 21.9961V357.996C795.5 366.556 788.56 373.496 780 373.496H22C13.4396 373.496 6.5 366.556 6.5 357.996V21.9961Z" stroke="#004166" stroke-opacity="0.1" shape-rendering="crispEdges"/>
<path d="M61.5 41.9961C61.5 39.787 63.2909 37.9961 65.5 37.9961H121.5C123.709 37.9961 125.5 39.787 125.5 41.9961V97.9961C125.5 100.205 123.709 101.996 121.5 101.996H65.5C63.2909 101.996 61.5 100.205 61.5 97.9961V41.9961Z" fill="#DBDBDB"/>
<path d="M149.532 71.1881V72.3561H148.14V74.9961H146.716V72.3561H142.14V71.3001L145.356 64.1321L146.588 64.6441L143.692 71.1881H146.732L146.86 68.3081H148.14V71.1881H149.532ZM155.408 66.3721C156.485 66.3721 157.274 66.7561 157.776 67.5241C158.277 68.2921 158.528 69.3748 158.528 70.7721C158.528 72.0948 158.24 73.1614 157.664 73.9721C157.088 74.7828 156.272 75.1881 155.216 75.1881C154.277 75.1881 153.541 74.8681 153.008 74.2281V78.2281L151.536 78.4041V66.5641H152.8L152.912 67.7001C153.221 67.2734 153.594 66.9481 154.032 66.7241C154.469 66.4894 154.928 66.3721 155.408 66.3721ZM154.864 73.9881C156.25 73.9881 156.944 72.9161 156.944 70.7721C156.944 68.6174 156.309 67.5401 155.04 67.5401C154.624 67.5401 154.245 67.6628 153.904 67.9081C153.562 68.1534 153.264 68.4681 153.008 68.8521V72.9641C153.221 73.2948 153.488 73.5508 153.808 73.7321C154.128 73.9028 154.48 73.9881 154.864 73.9881ZM164.127 70.4841L167.055 74.9961H165.279L163.215 71.4281L161.119 74.9961H159.455L162.399 70.5481L159.791 66.5641H161.519L163.279 69.6521L165.055 66.5641H166.719L164.127 70.4841Z" fill="#002033" fill-opacity="0.65"/>
<path d="M61.5 125.996C61.5 121.578 65.0817 117.996 69.5 117.996H117.5C121.918 117.996 125.5 121.578 125.5 125.996V173.996C125.5 178.414 121.918 181.996 117.5 181.996H69.5C65.0817 181.996 61.5 178.414 61.5 173.996V125.996Z" fill="#DBDBDB"/>
<path d="M147.34 149.252C148.844 149.86 149.596 150.82 149.596 152.132C149.596 152.719 149.436 153.247 149.116 153.716C148.807 154.175 148.369 154.537 147.804 154.804C147.239 155.06 146.599 155.188 145.884 155.188C145.159 155.188 144.519 155.06 143.964 154.804C143.409 154.548 142.977 154.191 142.668 153.732C142.369 153.273 142.22 152.751 142.22 152.164C142.22 151.503 142.396 150.948 142.748 150.5C143.111 150.052 143.639 149.679 144.332 149.38C143.767 149.092 143.345 148.745 143.068 148.34C142.801 147.924 142.668 147.439 142.668 146.884C142.668 146.308 142.817 145.812 143.116 145.396C143.425 144.98 143.825 144.665 144.316 144.452C144.817 144.239 145.351 144.132 145.916 144.132C146.471 144.132 146.993 144.233 147.484 144.436C147.985 144.639 148.391 144.948 148.7 145.364C149.009 145.769 149.164 146.26 149.164 146.836C149.164 147.369 149.015 147.828 148.716 148.212C148.417 148.596 147.959 148.943 147.34 149.252ZM145.916 145.236C145.361 145.236 144.919 145.38 144.588 145.668C144.268 145.956 144.108 146.367 144.108 146.9C144.108 147.412 144.263 147.801 144.572 148.068C144.892 148.335 145.399 148.58 146.092 148.804L146.364 148.9C146.844 148.623 147.191 148.329 147.404 148.02C147.617 147.711 147.724 147.332 147.724 146.884C147.724 146.383 147.564 145.983 147.244 145.684C146.935 145.385 146.492 145.236 145.916 145.236ZM145.9 154.02C146.561 154.02 147.084 153.849 147.468 153.508C147.863 153.167 148.06 152.713 148.06 152.148C148.06 151.764 147.985 151.444 147.836 151.188C147.687 150.921 147.447 150.692 147.116 150.5C146.785 150.297 146.321 150.095 145.724 149.892L145.324 149.748C144.791 150.004 144.396 150.329 144.14 150.724C143.884 151.108 143.756 151.588 143.756 152.164C143.756 152.751 143.948 153.209 144.332 153.54C144.716 153.86 145.239 154.02 145.9 154.02ZM155.705 146.372C156.782 146.372 157.571 146.756 158.073 147.524C158.574 148.292 158.825 149.375 158.825 150.772C158.825 152.095 158.537 153.161 157.961 153.972C157.385 154.783 156.569 155.188 155.513 155.188C154.574 155.188 153.838 154.868 153.305 154.228V158.228L151.833 158.404V146.564H153.097L153.209 147.7C153.518 147.273 153.891 146.948 154.329 146.724C154.766 146.489 155.225 146.372 155.705 146.372ZM155.161 153.988C156.547 153.988 157.241 152.916 157.241 150.772C157.241 148.617 156.606 147.54 155.337 147.54C154.921 147.54 154.542 147.663 154.201 147.908C153.859 148.153 153.561 148.468 153.305 148.852V152.964C153.518 153.295 153.785 153.551 154.105 153.732C154.425 153.903 154.777 153.988 155.161 153.988ZM164.424 150.484L167.352 154.996H165.576L163.512 151.428L161.416 154.996H159.752L162.696 150.548L160.088 146.564H161.816L163.576 149.652L165.352 146.564H167.016L164.424 150.484Z" fill="#002033" fill-opacity="0.65"/>
<path d="M61.5 209.996C61.5 203.369 66.8726 197.996 73.5 197.996H113.5C120.127 197.996 125.5 203.369 125.5 209.996V249.996C125.5 256.624 120.127 261.996 113.5 261.996H73.5C66.8726 261.996 61.5 256.624 61.5 249.996V209.996Z" fill="#DBDBDB"/>
<path d="M146.668 224.292V234.996H145.196V225.86L142.7 227.38L142.06 226.34L145.372 224.292H146.668ZM152.07 224.132C152.71 224.132 153.27 224.26 153.75 224.516C154.241 224.772 154.619 225.124 154.886 225.572C155.153 226.009 155.286 226.505 155.286 227.06C155.286 227.711 155.137 228.335 154.838 228.932C154.55 229.529 154.102 230.175 153.494 230.868C152.886 231.561 151.963 232.527 150.726 233.764H155.542L155.366 234.996H149.046V233.828C150.475 232.345 151.489 231.263 152.086 230.58C152.683 229.887 153.11 229.284 153.366 228.772C153.622 228.26 153.75 227.711 153.75 227.124C153.75 226.569 153.59 226.137 153.27 225.828C152.95 225.508 152.523 225.348 151.99 225.348C151.553 225.348 151.169 225.439 150.838 225.62C150.507 225.801 150.155 226.1 149.782 226.516L148.822 225.748C149.259 225.204 149.745 224.799 150.278 224.532C150.811 224.265 151.409 224.132 152.07 224.132ZM161.736 226.372C162.813 226.372 163.602 226.756 164.104 227.524C164.605 228.292 164.856 229.375 164.856 230.772C164.856 232.095 164.568 233.161 163.992 233.972C163.416 234.783 162.6 235.188 161.544 235.188C160.605 235.188 159.869 234.868 159.336 234.228V238.228L157.864 238.404V226.564H159.128L159.24 227.7C159.549 227.273 159.922 226.948 160.36 226.724C160.797 226.489 161.256 226.372 161.736 226.372ZM161.192 233.988C162.578 233.988 163.272 232.916 163.272 230.772C163.272 228.617 162.637 227.54 161.368 227.54C160.952 227.54 160.573 227.663 160.232 227.908C159.89 228.153 159.592 228.468 159.336 228.852V232.964C159.549 233.295 159.816 233.551 160.136 233.732C160.456 233.903 160.808 233.988 161.192 233.988ZM170.455 230.484L173.383 234.996H171.607L169.543 231.428L167.447 234.996H165.783L168.727 230.548L166.119 226.564H167.847L169.607 229.652L171.383 226.564H173.047L170.455 230.484Z" fill="#002033" fill-opacity="0.65"/>
<path d="M61.5 293.996C61.5 285.16 68.6634 277.996 77.5 277.996H109.5C118.337 277.996 125.5 285.16 125.5 293.996V325.996C125.5 334.833 118.337 341.996 109.5 341.996H77.5C68.6634 341.996 61.5 334.833 61.5 325.996V293.996Z" fill="#DBDBDB"/>
<path d="M146.668 304.292V314.996H145.196V305.86L142.7 307.38L142.06 306.34L145.372 304.292H146.668ZM153.35 307.956C153.894 307.956 154.39 308.084 154.838 308.34C155.286 308.596 155.643 308.98 155.91 309.492C156.177 310.004 156.31 310.628 156.31 311.364C156.31 312.121 156.155 312.793 155.846 313.38C155.547 313.956 155.137 314.404 154.614 314.724C154.102 315.033 153.531 315.188 152.902 315.188C151.654 315.188 150.742 314.729 150.166 313.812C149.59 312.884 149.302 311.604 149.302 309.972C149.302 308.809 149.462 307.791 149.782 306.916C150.113 306.031 150.582 305.348 151.19 304.868C151.798 304.377 152.518 304.132 153.35 304.132C154.161 304.132 154.897 304.351 155.558 304.788L154.982 305.764C154.481 305.455 153.931 305.3 153.334 305.3C152.566 305.3 151.958 305.668 151.51 306.404C151.062 307.14 150.817 308.127 150.774 309.364C151.435 308.425 152.294 307.956 153.35 307.956ZM152.902 314.02C153.521 314.02 153.995 313.785 154.326 313.316C154.657 312.847 154.822 312.212 154.822 311.412C154.822 309.887 154.246 309.124 153.094 309.124C152.625 309.124 152.193 309.257 151.798 309.524C151.403 309.78 151.067 310.137 150.79 310.596C150.822 311.769 151.003 312.633 151.334 313.188C151.675 313.743 152.198 314.02 152.902 314.02ZM162.345 306.372C163.422 306.372 164.212 306.756 164.713 307.524C165.214 308.292 165.465 309.375 165.465 310.772C165.465 312.095 165.177 313.161 164.601 313.972C164.025 314.783 163.209 315.188 162.153 315.188C161.214 315.188 160.478 314.868 159.945 314.228V318.228L158.473 318.404V306.564H159.737L159.849 307.7C160.158 307.273 160.532 306.948 160.969 306.724C161.406 306.489 161.865 306.372 162.345 306.372ZM161.801 313.988C163.188 313.988 163.881 312.916 163.881 310.772C163.881 308.617 163.246 307.54 161.977 307.54C161.561 307.54 161.182 307.663 160.841 307.908C160.5 308.153 160.201 308.468 159.945 308.852V312.964C160.158 313.295 160.425 313.551 160.745 313.732C161.065 313.903 161.417 313.988 161.801 313.988ZM171.065 310.484L173.993 314.996H172.217L170.153 311.428L168.057 314.996H166.393L169.337 310.548L166.729 306.564H168.457L170.217 309.652L171.993 306.564H173.657L171.065 310.484Z" fill="#002033" fill-opacity="0.65"/>
<path d="M255.522 44.6301V53.9961H254.234V46.0021L252.05 47.3321L251.49 46.4221L254.388 44.6301H255.522ZM261.369 47.8361C261.845 47.8361 262.279 47.9481 262.671 48.1721C263.063 48.3961 263.375 48.7321 263.609 49.1801C263.842 49.6281 263.959 50.1741 263.959 50.8181C263.959 51.4808 263.823 52.0688 263.553 52.5821C263.291 53.0861 262.932 53.4781 262.475 53.7581C262.027 54.0288 261.527 54.1641 260.977 54.1641C259.885 54.1641 259.087 53.7628 258.583 52.9601C258.079 52.1481 257.827 51.0281 257.827 49.6001C257.827 48.5828 257.967 47.6914 258.247 46.9261C258.536 46.1514 258.947 45.5541 259.479 45.1341C260.011 44.7048 260.641 44.4901 261.369 44.4901C262.078 44.4901 262.722 44.6814 263.301 45.0641L262.797 45.9181C262.358 45.6474 261.877 45.5121 261.355 45.5121C260.683 45.5121 260.151 45.8341 259.759 46.4781C259.367 47.1221 259.152 47.9854 259.115 49.0681C259.693 48.2468 260.445 47.8361 261.369 47.8361ZM260.977 53.1421C261.518 53.1421 261.933 52.9368 262.223 52.5261C262.512 52.1154 262.657 51.5601 262.657 50.8601C262.657 49.5254 262.153 48.8581 261.145 48.8581C260.734 48.8581 260.356 48.9748 260.011 49.2081C259.665 49.4321 259.371 49.7448 259.129 50.1461C259.157 51.1728 259.315 51.9288 259.605 52.4141C259.903 52.8994 260.361 53.1421 260.977 53.1421ZM269.239 46.4501C270.182 46.4501 270.873 46.7861 271.311 47.4581C271.75 48.1301 271.969 49.0774 271.969 50.3001C271.969 51.4574 271.717 52.3908 271.213 53.1001C270.709 53.8094 269.995 54.1641 269.071 54.1641C268.25 54.1641 267.606 53.8841 267.139 53.3241V56.8241L265.851 56.9781V46.6181H266.957L267.055 47.6121C267.326 47.2388 267.653 46.9541 268.035 46.7581C268.418 46.5528 268.819 46.4501 269.239 46.4501ZM268.763 53.1141C269.977 53.1141 270.583 52.1761 270.583 50.3001C270.583 48.4148 270.028 47.4721 268.917 47.4721C268.553 47.4721 268.222 47.5794 267.923 47.7941C267.625 48.0088 267.363 48.2841 267.139 48.6201V52.2181C267.326 52.5074 267.559 52.7314 267.839 52.8901C268.119 53.0394 268.427 53.1141 268.763 53.1141ZM276.869 50.0481L279.431 53.9961H277.877L276.071 50.8741L274.237 53.9961H272.781L275.357 50.1041L273.075 46.6181H274.587L276.127 49.3201L277.681 46.6181H279.137L276.869 50.0481Z" fill="#002033" fill-opacity="0.65"/>
<path d="M232.529 73.8846C232.529 74.4369 232.977 74.8846 233.529 74.8846L242.529 74.8846C243.082 74.8846 243.529 74.4369 243.529 73.8846C243.529 73.3323 243.082 72.8846 242.529 72.8846L234.529 72.8846L234.529 64.8846C234.529 64.3323 234.082 63.8846 233.529 63.8846C232.977 63.8846 232.529 64.3323 232.529 64.8846L232.529 73.8846ZM249.793 56.207L232.822 73.1775L234.237 74.5917L251.207 57.6212L249.793 56.207Z" fill="#001724" fill-opacity="0.55"/>
<path d="M222.5 93.9922C222.5 85.1556 229.663 77.9922 238.5 77.9922H612.5C621.337 77.9922 628.5 85.1556 628.5 93.9922V157.992C628.5 166.829 621.337 173.992 612.5 173.992H238.5C229.663 173.992 222.5 166.829 222.5 157.992V93.9922Z" fill="white"/>
<path d="M223 93.9922C223 85.4318 229.94 78.4922 238.5 78.4922H612.5C621.06 78.4922 628 85.4318 628 93.9922V157.992C628 166.553 621.06 173.492 612.5 173.492H238.5C229.94 173.492 223 166.553 223 157.992V93.9922Z" stroke="#004166" stroke-opacity="0.1"/>
<path d="M246.5 101.992C246.5 97.5739 250.082 93.9922 254.5 93.9922H302.5C306.918 93.9922 310.5 97.5739 310.5 101.992V149.992C310.5 154.41 306.918 157.992 302.5 157.992H254.5C250.082 157.992 246.5 154.41 246.5 149.992V101.992Z" fill="#DBDBDB"/>
<path d="M333.444 114.12C334.18 114.259 334.777 114.531 335.236 114.936C335.705 115.342 335.94 115.95 335.94 116.76C335.94 117.944 335.513 118.782 334.66 119.272C333.817 119.752 332.633 119.992 331.108 119.992H327.54V108.904H330.676C332.233 108.904 333.423 109.128 334.244 109.576C335.065 110.014 335.476 110.734 335.476 111.736C335.476 112.387 335.279 112.915 334.884 113.32C334.5 113.715 334.02 113.982 333.444 114.12ZM330.164 110.76V113.336H331.14C332.249 113.336 332.804 112.888 332.804 111.992C332.804 111.544 332.655 111.23 332.356 111.048C332.057 110.856 331.583 110.76 330.932 110.76H330.164ZM331.124 118.088C331.817 118.088 332.34 117.987 332.692 117.784C333.055 117.571 333.236 117.182 333.236 116.616C333.236 115.592 332.596 115.08 331.316 115.08H330.164V118.088H331.124ZM341.047 111.224C342.348 111.224 343.367 111.624 344.103 112.424C344.839 113.214 345.207 114.323 345.207 115.752C345.207 116.659 345.036 117.454 344.695 118.136C344.364 118.808 343.884 119.331 343.255 119.704C342.636 120.078 341.9 120.264 341.047 120.264C339.756 120.264 338.738 119.87 337.991 119.08C337.255 118.28 336.887 117.166 336.887 115.736C336.887 114.83 337.052 114.04 337.383 113.368C337.724 112.686 338.204 112.158 338.823 111.784C339.452 111.411 340.194 111.224 341.047 111.224ZM341.047 113.08C340.535 113.08 340.151 113.299 339.895 113.736C339.639 114.163 339.511 114.83 339.511 115.736C339.511 116.664 339.634 117.342 339.879 117.768C340.135 118.195 340.524 118.408 341.047 118.408C341.559 118.408 341.943 118.195 342.199 117.768C342.455 117.331 342.583 116.659 342.583 115.752C342.583 114.824 342.455 114.147 342.199 113.72C341.954 113.294 341.57 113.08 341.047 113.08ZM351.319 111.256C351.628 111.256 351.911 111.294 352.167 111.368L351.767 113.816C351.447 113.742 351.191 113.704 350.999 113.704C350.497 113.704 350.113 113.88 349.847 114.232C349.591 114.574 349.388 115.091 349.239 115.784V119.992H346.711V111.496H348.919L349.127 113.144C349.319 112.558 349.607 112.099 349.991 111.768C350.385 111.427 350.828 111.256 351.319 111.256ZM360.264 108.12V119.992H358.024L357.896 119C357.299 119.843 356.494 120.264 355.48 120.264C354.424 120.264 353.619 119.859 353.064 119.048C352.52 118.238 352.248 117.128 352.248 115.72C352.248 114.856 352.392 114.083 352.68 113.4C352.968 112.718 353.374 112.184 353.896 111.8C354.43 111.416 355.038 111.224 355.72 111.224C356.531 111.224 357.203 111.491 357.736 112.024V107.848L360.264 108.12ZM356.264 118.408C356.851 118.408 357.342 118.088 357.736 117.448V113.784C357.534 113.539 357.326 113.358 357.112 113.24C356.91 113.123 356.675 113.064 356.408 113.064C355.939 113.064 355.566 113.283 355.288 113.72C355.011 114.158 354.872 114.83 354.872 115.736C354.872 116.728 354.99 117.422 355.224 117.816C355.47 118.211 355.816 118.408 356.264 118.408ZM369.65 115.576C369.65 115.928 369.634 116.232 369.602 116.488H364.338C364.423 117.203 364.626 117.704 364.946 117.992C365.266 118.28 365.709 118.424 366.274 118.424C366.615 118.424 366.946 118.366 367.266 118.248C367.586 118.12 367.933 117.928 368.306 117.672L369.346 119.08C368.354 119.87 367.25 120.264 366.034 120.264C364.658 120.264 363.602 119.859 362.866 119.048C362.13 118.238 361.762 117.15 361.762 115.784C361.762 114.92 361.917 114.147 362.226 113.464C362.535 112.771 362.989 112.227 363.586 111.832C364.183 111.427 364.898 111.224 365.73 111.224C366.957 111.224 367.917 111.608 368.61 112.376C369.303 113.144 369.65 114.211 369.65 115.576ZM367.17 114.856C367.149 113.555 366.69 112.904 365.794 112.904C365.357 112.904 365.015 113.064 364.77 113.384C364.535 113.704 364.391 114.232 364.338 114.968H367.17V114.856ZM375.678 111.256C375.987 111.256 376.27 111.294 376.526 111.368L376.126 113.816C375.806 113.742 375.55 113.704 375.358 113.704C374.857 113.704 374.473 113.88 374.206 114.232C373.95 114.574 373.747 115.091 373.598 115.784V119.992H371.07V111.496H373.278L373.486 113.144C373.678 112.558 373.966 112.099 374.35 111.768C374.745 111.427 375.187 111.256 375.678 111.256Z" fill="#001826" fill-opacity="0.9"/>
<path d="M333.542 137.734H332.478L332.086 140.744H333.024V141.71H331.946L331.652 143.992H330.56L330.854 141.71H328.698L328.404 143.992H327.312L327.606 141.71H326.71V140.744H327.746L328.138 137.734H327.228V136.754H328.264L328.544 134.626H329.636L329.356 136.754H331.512L331.792 134.626H332.884L332.604 136.754H333.542V137.734ZM330.994 140.744L331.386 137.734H329.23L328.838 140.744H330.994ZM337.162 134.346C338.618 134.346 339.785 134.687 340.662 135.368C341.549 136.04 341.992 137.291 341.992 139.12C341.992 140.903 341.549 142.163 340.662 142.9C339.785 143.628 338.716 143.992 337.456 143.992H335.146V134.346H337.162ZM336.476 135.41V142.942H337.554C338.45 142.942 339.178 142.667 339.738 142.116C340.298 141.566 340.578 140.567 340.578 139.12C340.578 138.103 340.433 137.324 340.144 136.782C339.855 136.232 339.486 135.868 339.038 135.69C338.59 135.504 338.063 135.41 337.456 135.41H336.476ZM348.412 138.896C349.075 139.008 349.611 139.242 350.022 139.596C350.433 139.951 350.638 140.502 350.638 141.248C350.638 143.078 349.364 143.992 346.816 143.992H344.156V134.346H346.438C347.661 134.346 348.594 134.547 349.238 134.948C349.891 135.35 350.218 135.961 350.218 136.782C350.218 137.342 350.041 137.809 349.686 138.182C349.341 138.556 348.916 138.794 348.412 138.896ZM345.486 135.396V138.434H346.942C347.502 138.434 347.959 138.299 348.314 138.028C348.678 137.758 348.86 137.375 348.86 136.88C348.86 136.32 348.669 135.933 348.286 135.718C347.913 135.504 347.343 135.396 346.578 135.396H345.486ZM346.816 142.928C347.6 142.928 348.197 142.812 348.608 142.578C349.028 142.345 349.238 141.902 349.238 141.248C349.238 140.614 349.037 140.156 348.636 139.876C348.235 139.596 347.712 139.456 347.068 139.456H345.486V142.928H346.816ZM354.689 134.346C356.145 134.346 357.312 134.687 358.189 135.368C359.076 136.04 359.519 137.291 359.519 139.12C359.519 140.903 359.076 142.163 358.189 142.9C357.312 143.628 356.243 143.992 354.983 143.992H352.673V134.346H354.689ZM354.003 135.41V142.942H355.081C355.977 142.942 356.705 142.667 357.265 142.116C357.825 141.566 358.105 140.567 358.105 139.12C358.105 138.103 357.961 137.324 357.671 136.782C357.382 136.232 357.013 135.868 356.565 135.69C356.117 135.504 355.59 135.41 354.983 135.41H354.003ZM365.939 138.896C366.602 139.008 367.139 139.242 367.549 139.596C367.96 139.951 368.165 140.502 368.165 141.248C368.165 143.078 366.891 143.992 364.343 143.992H361.683V134.346H363.965C365.188 134.346 366.121 134.547 366.765 134.948C367.419 135.35 367.745 135.961 367.745 136.782C367.745 137.342 367.568 137.809 367.213 138.182C366.868 138.556 366.443 138.794 365.939 138.896ZM363.013 135.396V138.434H364.469C365.029 138.434 365.487 138.299 365.841 138.028C366.205 137.758 366.387 137.375 366.387 136.88C366.387 136.32 366.196 135.933 365.813 135.718C365.44 135.504 364.871 135.396 364.105 135.396H363.013ZM364.343 142.928C365.127 142.928 365.725 142.812 366.135 142.578C366.555 142.345 366.765 141.902 366.765 141.248C366.765 140.614 366.565 140.156 366.163 139.876C365.762 139.596 365.239 139.456 364.595 139.456H363.013V142.928H364.343ZM372.217 134.346C373.673 134.346 374.839 134.687 375.717 135.368C376.603 136.04 377.047 137.291 377.047 139.12C377.047 140.903 376.603 142.163 375.717 142.9C374.839 143.628 373.771 143.992 372.511 143.992H370.201V134.346H372.217ZM371.531 135.41V142.942H372.609C373.505 142.942 374.233 142.667 374.793 142.116C375.353 141.566 375.633 140.567 375.633 139.12C375.633 138.103 375.488 137.324 375.199 136.782C374.909 136.232 374.541 135.868 374.093 135.69C373.645 135.504 373.117 135.41 372.511 135.41H371.531ZM383.467 138.896C384.129 139.008 384.666 139.242 385.077 139.596C385.487 139.951 385.693 140.502 385.693 141.248C385.693 143.078 384.419 143.992 381.871 143.992H379.211V134.346H381.493C382.715 134.346 383.649 134.547 384.293 134.948C384.946 135.35 385.273 135.961 385.273 136.782C385.273 137.342 385.095 137.809 384.741 138.182C384.395 138.556 383.971 138.794 383.467 138.896ZM380.541 135.396V138.434H381.997C382.557 138.434 383.014 138.299 383.369 138.028C383.733 137.758 383.915 137.375 383.915 136.88C383.915 136.32 383.723 135.933 383.341 135.718C382.967 135.504 382.398 135.396 381.633 135.396H380.541ZM381.871 142.928C382.655 142.928 383.252 142.812 383.663 142.578C384.083 142.345 384.293 141.902 384.293 141.248C384.293 140.614 384.092 140.156 383.691 139.876C383.289 139.596 382.767 139.456 382.123 139.456H380.541V142.928H381.871Z" fill="#002033" fill-opacity="0.65"/>
<path d="M248.707 158.293C248.317 157.902 247.683 157.902 247.293 158.293L240.929 164.657C240.538 165.047 240.538 165.681 240.929 166.071C241.319 166.462 241.953 166.462 242.343 166.071L248 160.414L253.657 166.071C254.047 166.462 254.681 166.462 255.071 166.071C255.462 165.681 255.462 165.047 255.071 164.657L248.707 158.293ZM249 183L249 159L247 159L247 183L249 183Z" fill="#001724" fill-opacity="0.55"/>
<path d="M242.11 193.974C243.426 194.506 244.084 195.346 244.084 196.494C244.084 197.007 243.944 197.469 243.664 197.88C243.393 198.281 243.011 198.599 242.516 198.832C242.021 199.056 241.461 199.168 240.836 199.168C240.201 199.168 239.641 199.056 239.156 198.832C238.671 198.608 238.293 198.295 238.022 197.894C237.761 197.493 237.63 197.035 237.63 196.522C237.63 195.943 237.784 195.458 238.092 195.066C238.409 194.674 238.871 194.347 239.478 194.086C238.983 193.834 238.615 193.531 238.372 193.176C238.139 192.812 238.022 192.387 238.022 191.902C238.022 191.398 238.153 190.964 238.414 190.6C238.685 190.236 239.035 189.961 239.464 189.774C239.903 189.587 240.369 189.494 240.864 189.494C241.349 189.494 241.807 189.583 242.236 189.76C242.675 189.937 243.029 190.208 243.3 190.572C243.571 190.927 243.706 191.356 243.706 191.86C243.706 192.327 243.575 192.728 243.314 193.064C243.053 193.4 242.651 193.703 242.11 193.974ZM240.864 190.46C240.379 190.46 239.991 190.586 239.702 190.838C239.422 191.09 239.282 191.449 239.282 191.916C239.282 192.364 239.417 192.705 239.688 192.938C239.968 193.171 240.411 193.386 241.018 193.582L241.256 193.666C241.676 193.423 241.979 193.167 242.166 192.896C242.353 192.625 242.446 192.294 242.446 191.902C242.446 191.463 242.306 191.113 242.026 190.852C241.755 190.591 241.368 190.46 240.864 190.46ZM240.85 198.146C241.429 198.146 241.886 197.997 242.222 197.698C242.567 197.399 242.74 197.003 242.74 196.508C242.74 196.172 242.675 195.892 242.544 195.668C242.413 195.435 242.203 195.234 241.914 195.066C241.625 194.889 241.219 194.711 240.696 194.534L240.346 194.408C239.879 194.632 239.534 194.917 239.31 195.262C239.086 195.598 238.974 196.018 238.974 196.522C238.974 197.035 239.142 197.437 239.478 197.726C239.814 198.006 240.271 198.146 240.85 198.146ZM249.429 191.454C250.372 191.454 251.062 191.79 251.501 192.462C251.94 193.134 252.159 194.081 252.159 195.304C252.159 196.461 251.907 197.395 251.403 198.104C250.899 198.813 250.185 199.168 249.261 199.168C248.44 199.168 247.796 198.888 247.329 198.328V201.828L246.041 201.982V191.622H247.147L247.245 192.616C247.516 192.243 247.842 191.958 248.225 191.762C248.608 191.557 249.009 191.454 249.429 191.454ZM248.953 198.118C250.166 198.118 250.773 197.18 250.773 195.304C250.773 193.419 250.218 192.476 249.107 192.476C248.743 192.476 248.412 192.583 248.113 192.798C247.814 193.013 247.553 193.288 247.329 193.624V197.222C247.516 197.511 247.749 197.735 248.029 197.894C248.309 198.043 248.617 198.118 248.953 198.118ZM257.058 195.052L259.62 199H258.066L256.26 195.878L254.426 199H252.97L255.546 195.108L253.264 191.622H254.776L256.316 194.324L257.87 191.622H259.326L257.058 195.052Z" fill="#002033" fill-opacity="0.65"/>
</g>
<defs>
<filter id="filter0_dd_637_2175" x="0" y="-0.00390625" width="802" height="384" filterUnits="userSpaceOnUse" color-interpolation-filters="sRGB">
<feFlood flood-opacity="0" result="BackgroundImageFix"/>
<feColorMatrix in="SourceAlpha" type="matrix" values="0 0 0 0 0 0 0 0 0 0 0 0 0 0 0 0 0 0 127 0" result="hardAlpha"/>
<feMorphology radius="2" operator="erode" in="SourceAlpha" result="effect1_dropShadow_637_2175"/>
<feOffset dy="4"/>
<feGaussianBlur stdDeviation="4"/>
<feComposite in2="hardAlpha" operator="out"/>
<feColorMatrix type="matrix" values="0 0 0 0 0.0784314 0 0 0 0 0.317647 0 0 0 0 0.454902 0 0 0 0.04 0"/>
<feBlend mode="normal" in2="BackgroundImageFix" result="effect1_dropShadow_637_2175"/>
<feColorMatrix in="SourceAlpha" type="matrix" values="0 0 0 0 0 0 0 0 0 0 0 0 0 0 0 0 0 0 127 0" result="hardAlpha"/>
<feMorphology radius="2" operator="erode" in="SourceAlpha" result="effect2_dropShadow_637_2175"/>
<feOffset dy="-4"/>
<feGaussianBlur stdDeviation="2"/>
<feComposite in2="hardAlpha" operator="out"/>
<feColorMatrix type="matrix" values="0 0 0 0 0.0784314 0 0 0 0 0.317647 0 0 0 0 0.454902 0 0 0 0.04 0"/>
<feBlend mode="normal" in2="effect1_dropShadow_637_2175" result="effect2_dropShadow_637_2175"/>
<feBlend mode="normal" in="SourceGraphic" in2="effect2_dropShadow_637_2175" result="shape"/>
</filter>
</defs>
</svg>
