<svg width="33" height="33" viewBox="0 0 33 33" fill="none" xmlns="http://www.w3.org/2000/svg">
<path d="M26 30.9297C26 30.9297 31 26.4557 31 23.0193C31 20.4838 29.3868 18.8163 27.5029 18.2355L29.3117 6.65718C29.6155 4.69465 28.0472 2.92969 25.9997 2.92969C23.9522 2.92969 22.384 4.69465 22.6877 6.65719L24.5005 18.2345C22.6152 18.8143 21 20.4823 21 23.0194C21 26.4653 26 30.9297 26 30.9297Z" fill="#737F86"/>
<path fill-rule="evenodd" clip-rule="evenodd" d="M21.1606 3.92969H5.5C3.294 3.92969 1.5 5.72369 1.5 7.92969V25.9297C1.5 28.1357 3.294 29.9297 5.5 29.9297H22.2797C22.1686 29.798 22.0566 29.6626 21.9444 29.5238C21.5539 29.0406 21.1506 28.5031 20.7731 27.9297H5.5C4.397 27.9297 3.5 27.0327 3.5 25.9297V12.9297H21.6455L20.7112 6.96307C20.5421 5.87033 20.7235 4.8296 21.1606 3.92969ZM5.5 8.42969C5.5 7.60126 6.17157 6.92969 7 6.92969C7.82843 6.92969 8.5 7.60126 8.5 8.42969C8.5 9.25812 7.82843 9.92969 7 9.92969C6.17157 9.92969 5.5 9.25812 5.5 8.42969ZM12 6.92969C11.1716 6.92969 10.5 7.60126 10.5 8.42969C10.5 9.25812 11.1716 9.92969 12 9.92969C12.8284 9.92969 13.5 9.25812 13.5 8.42969C13.5 7.60126 12.8284 6.92969 12 6.92969Z" fill="#737F86"/>
</svg>
