<svg width="32" height="33" viewBox="0 0 32 33" fill="none" xmlns="http://www.w3.org/2000/svg">
<path d="M25.5 30.9297C25.5 30.9297 30.5 26.4557 30.5 23.0193C30.5 20.4838 28.8868 18.8163 27.0029 18.2355L28.8117 6.65718C29.1155 4.69465 27.5472 2.92969 25.4997 2.92969C23.4522 2.92969 21.884 4.69465 22.1877 6.65719L24.0005 18.2345C22.1152 18.8143 20.5 20.4823 20.5 23.0194C20.5 26.4653 25.5 30.9297 25.5 30.9297Z" fill="#001724" fill-opacity="0.55"/>
<path fill-rule="evenodd" clip-rule="evenodd" d="M20.6606 3.92969H5C2.794 3.92969 1 5.72369 1 7.92969V25.9297C1 28.1357 2.794 29.9297 5 29.9297H21.7797C21.6686 29.798 21.5566 29.6626 21.4444 29.5238C21.0539 29.0406 20.6506 28.5031 20.2731 27.9297H5C3.897 27.9297 3 27.0327 3 25.9297V12.9297H21.1455L20.2112 6.96307C20.0421 5.87033 20.2235 4.8296 20.6606 3.92969ZM5 8.42969C5 7.60126 5.67157 6.92969 6.5 6.92969C7.32843 6.92969 8 7.60126 8 8.42969C8 9.25812 7.32843 9.92969 6.5 9.92969C5.67157 9.92969 5 9.25812 5 8.42969ZM11.5 6.92969C10.6716 6.92969 10 7.60126 10 8.42969C10 9.25812 10.6716 9.92969 11.5 9.92969C12.3284 9.92969 13 9.25812 13 8.42969C13 7.60126 12.3284 6.92969 11.5 6.92969Z" fill="#001724" fill-opacity="0.55"/>
</svg>
