<svg width="406" height="768" viewBox="0 0 406 768" fill="none" xmlns="http://www.w3.org/2000/svg">
<rect x="0.5" y="672.5" width="405" height="95" stroke="#003C66" stroke-opacity="0.1"/>
<rect x="24" y="688" width="64" height="64" rx="16" fill="#FFEBDE"/>
<path d="M109.199 700.72C110.135 700.72 110.945 700.852 111.629 701.116C112.325 701.38 112.955 701.782 113.519 702.322L112.151 703.924C111.299 703.228 110.387 702.88 109.415 702.88C108.899 702.88 108.491 702.988 108.191 703.204C107.891 703.408 107.741 703.708 107.741 704.104C107.741 704.38 107.807 704.608 107.939 704.788C108.071 704.956 108.305 705.118 108.641 705.274C108.977 705.43 109.481 705.616 110.153 705.832C111.425 706.24 112.361 706.744 112.961 707.344C113.561 707.932 113.861 708.772 113.861 709.864C113.861 710.644 113.663 711.334 113.267 711.934C112.871 712.522 112.301 712.984 111.557 713.32C110.813 713.644 109.931 713.806 108.911 713.806C107.891 713.806 106.985 713.644 106.193 713.32C105.413 712.996 104.741 712.564 104.177 712.024L105.671 710.386C106.151 710.794 106.643 711.1 107.147 711.304C107.663 711.508 108.221 711.61 108.821 711.61C109.433 711.61 109.913 711.478 110.261 711.214C110.621 710.938 110.801 710.56 110.801 710.08C110.801 709.768 110.735 709.51 110.603 709.306C110.471 709.09 110.243 708.898 109.919 708.73C109.595 708.562 109.127 708.382 108.515 708.19C107.135 707.77 106.151 707.254 105.563 706.642C104.987 706.03 104.699 705.256 104.699 704.32C104.699 703.6 104.891 702.97 105.275 702.43C105.659 701.878 106.193 701.458 106.877 701.17C107.561 700.87 108.335 700.72 109.199 700.72ZM118.275 703.942V713.5H115.431V703.942H118.275ZM116.835 698.902C117.327 698.902 117.729 699.058 118.041 699.37C118.365 699.67 118.527 700.054 118.527 700.522C118.527 700.99 118.365 701.38 118.041 701.692C117.729 701.992 117.327 702.142 116.835 702.142C116.343 702.142 115.941 701.992 115.629 701.692C115.317 701.38 115.161 700.99 115.161 700.522C115.161 700.054 115.317 699.67 115.629 699.37C115.941 699.058 116.343 698.902 116.835 698.902ZM129.314 704.5C128.69 704.752 127.772 704.878 126.56 704.878C127.184 705.142 127.64 705.466 127.928 705.85C128.216 706.234 128.36 706.732 128.36 707.344C128.36 707.956 128.198 708.508 127.874 709C127.55 709.48 127.082 709.858 126.47 710.134C125.87 710.41 125.162 710.548 124.346 710.548C123.962 710.548 123.596 710.512 123.248 710.44C123.152 710.488 123.074 710.566 123.014 710.674C122.966 710.77 122.942 710.872 122.942 710.98C122.942 711.16 123.008 711.304 123.14 711.412C123.284 711.508 123.566 711.556 123.986 711.556H125.426C126.158 711.556 126.8 711.676 127.352 711.916C127.904 712.156 128.33 712.486 128.63 712.906C128.93 713.326 129.08 713.8 129.08 714.328C129.08 715.324 128.648 716.098 127.784 716.65C126.932 717.214 125.696 717.496 124.076 717.496C122.912 717.496 121.994 717.37 121.322 717.118C120.65 716.878 120.176 716.536 119.9 716.092C119.636 715.648 119.504 715.09 119.504 714.418H122.06C122.06 714.706 122.114 714.934 122.222 715.102C122.342 715.27 122.552 715.396 122.852 715.48C123.152 715.564 123.584 715.606 124.148 715.606C124.928 715.606 125.468 715.51 125.768 715.318C126.068 715.138 126.218 714.874 126.218 714.526C126.218 714.238 126.104 714.01 125.876 713.842C125.648 713.674 125.306 713.59 124.85 713.59H123.464C122.48 713.59 121.742 713.416 121.25 713.068C120.77 712.708 120.53 712.252 120.53 711.7C120.53 711.352 120.632 711.016 120.836 710.692C121.04 710.356 121.316 710.08 121.664 709.864C121.064 709.54 120.626 709.162 120.35 708.73C120.086 708.286 119.954 707.752 119.954 707.128C119.954 706.06 120.338 705.214 121.106 704.59C121.874 703.954 122.888 703.636 124.148 703.636C125.108 703.66 125.918 703.564 126.578 703.348C127.25 703.132 127.94 702.814 128.648 702.394L129.314 704.5ZM124.22 705.508C123.776 705.508 123.422 705.652 123.158 705.94C122.906 706.216 122.78 706.6 122.78 707.092C122.78 707.608 122.906 708.01 123.158 708.298C123.422 708.574 123.776 708.712 124.22 708.712C124.688 708.712 125.042 708.574 125.282 708.298C125.534 708.022 125.66 707.608 125.66 707.056C125.66 706.024 125.18 705.508 124.22 705.508ZM136.024 703.636C136.852 703.636 137.5 703.888 137.968 704.392C138.436 704.896 138.67 705.604 138.67 706.516V713.5H135.826V707.002C135.826 706.522 135.748 706.192 135.592 706.012C135.448 705.82 135.226 705.724 134.926 705.724C134.35 705.724 133.798 706.138 133.27 706.966V713.5H130.426V703.942H132.91L133.108 705.076C133.516 704.596 133.954 704.236 134.422 703.996C134.902 703.756 135.436 703.636 136.024 703.636ZM148.41 710.728C148.41 711.088 148.458 711.352 148.554 711.52C148.662 711.688 148.83 711.814 149.058 711.898L148.464 713.752C147.876 713.704 147.396 713.578 147.024 713.374C146.652 713.158 146.364 712.822 146.16 712.366C145.536 713.326 144.576 713.806 143.28 713.806C142.332 713.806 141.576 713.53 141.012 712.978C140.448 712.426 140.166 711.706 140.166 710.818C140.166 709.774 140.55 708.976 141.318 708.424C142.086 707.872 143.196 707.596 144.648 707.596H145.62V707.182C145.62 706.618 145.5 706.234 145.26 706.03C145.02 705.814 144.6 705.706 144 705.706C143.688 705.706 143.31 705.754 142.866 705.85C142.422 705.934 141.966 706.054 141.498 706.21L140.85 704.338C141.45 704.11 142.062 703.936 142.686 703.816C143.322 703.696 143.91 703.636 144.45 703.636C145.818 703.636 146.82 703.918 147.456 704.482C148.092 705.046 148.41 705.892 148.41 707.02V710.728ZM144.108 711.772C144.756 711.772 145.26 711.466 145.62 710.854V709.162H144.918C144.27 709.162 143.784 709.276 143.46 709.504C143.148 709.732 142.992 710.086 142.992 710.566C142.992 710.95 143.088 711.25 143.28 711.466C143.484 711.67 143.76 711.772 144.108 711.772ZM156.67 713.05C156.322 713.29 155.914 713.476 155.446 713.608C154.99 713.74 154.534 713.806 154.078 713.806C151.99 713.794 150.946 712.642 150.946 710.35V705.922H149.596V703.942H150.946V701.872L153.79 701.548V703.942H155.986L155.68 705.922H153.79V710.314C153.79 710.758 153.862 711.076 154.006 711.268C154.15 711.46 154.378 711.556 154.69 711.556C155.014 711.556 155.356 711.454 155.716 711.25L156.67 713.05ZM165.683 713.5H163.217L163.091 712.294C162.395 713.302 161.429 713.806 160.193 713.806C159.317 713.806 158.651 713.542 158.195 713.014C157.751 712.486 157.529 711.748 157.529 710.8V703.942H160.373V710.44C160.373 710.908 160.445 711.238 160.589 711.43C160.745 711.61 160.979 711.7 161.291 711.7C161.891 711.7 162.407 711.328 162.839 710.584V703.942H165.683V713.5ZM173.104 703.672C173.452 703.672 173.77 703.714 174.058 703.798L173.608 706.552C173.248 706.468 172.96 706.426 172.744 706.426C172.18 706.426 171.748 706.624 171.448 707.02C171.16 707.404 170.932 707.986 170.764 708.766V713.5H167.92V703.942H170.404L170.638 705.796C170.854 705.136 171.178 704.62 171.61 704.248C172.054 703.864 172.552 703.672 173.104 703.672ZM182.933 708.532C182.933 708.928 182.915 709.27 182.879 709.558H176.957C177.053 710.362 177.281 710.926 177.641 711.25C178.001 711.574 178.499 711.736 179.135 711.736C179.519 711.736 179.891 711.67 180.251 711.538C180.611 711.394 181.001 711.178 181.421 710.89L182.591 712.474C181.475 713.362 180.233 713.806 178.865 713.806C177.317 713.806 176.129 713.35 175.301 712.438C174.473 711.526 174.059 710.302 174.059 708.766C174.059 707.794 174.233 706.924 174.581 706.156C174.929 705.376 175.439 704.764 176.111 704.32C176.783 703.864 177.587 703.636 178.523 703.636C179.903 703.636 180.983 704.068 181.763 704.932C182.543 705.796 182.933 706.996 182.933 708.532ZM180.143 707.722C180.119 706.258 179.603 705.526 178.595 705.526C178.103 705.526 177.719 705.706 177.443 706.066C177.179 706.426 177.017 707.02 176.957 707.848H180.143V707.722ZM191.971 701.08C192.847 701.08 193.597 701.236 194.221 701.548C194.857 701.86 195.337 702.28 195.661 702.808C195.997 703.336 196.165 703.918 196.165 704.554C196.165 705.202 196.033 705.82 195.769 706.408C195.505 706.996 195.037 707.674 194.365 708.442C193.693 709.198 192.715 710.158 191.431 711.322H196.417L196.129 713.5H188.209V711.484C189.685 710.032 190.759 708.94 191.431 708.208C192.103 707.464 192.571 706.846 192.835 706.354C193.111 705.862 193.249 705.358 193.249 704.842C193.249 704.35 193.105 703.966 192.817 703.69C192.541 703.402 192.163 703.258 191.683 703.258C191.251 703.258 190.867 703.36 190.531 703.564C190.195 703.756 189.841 704.074 189.469 704.518L187.795 703.186C188.299 702.526 188.899 702.01 189.595 701.638C190.303 701.266 191.095 701.08 191.971 701.08Z" fill="#001626" fill-opacity="0.9"/>
<path d="M112.048 732.348H110.832L110.384 735.788H111.456V736.892H110.224L109.888 739.5H108.64L108.976 736.892H106.512L106.176 739.5H104.928L105.264 736.892H104.24V735.788H105.424L105.872 732.348H104.832V731.228H106.016L106.336 728.796H107.584L107.264 731.228H109.728L110.048 728.796H111.296L110.976 731.228H112.048V732.348ZM109.136 735.788L109.584 732.348H107.12L106.672 735.788H109.136ZM113.881 739.5V728.476H119.737L119.561 729.692H115.401V733.452H119.001V734.652H115.401V739.5H113.881ZM121.741 739.5V728.476H127.597L127.421 729.692H123.261V733.452H126.861V734.652H123.261V739.5H121.741ZM135.568 728.476L135.392 729.692H131.12V733.292H134.832V734.508H131.12V738.284H135.696V739.5H129.6V728.476H135.568ZM143.027 733.676C143.784 733.804 144.397 734.071 144.867 734.476C145.336 734.881 145.571 735.511 145.571 736.364C145.571 738.455 144.115 739.5 141.203 739.5H138.163V728.476H140.771C142.168 728.476 143.235 728.705 143.971 729.164C144.717 729.623 145.091 730.321 145.091 731.26C145.091 731.9 144.888 732.433 144.483 732.86C144.088 733.287 143.603 733.559 143.027 733.676ZM139.683 729.676V733.148H141.347C141.987 733.148 142.509 732.993 142.915 732.684C143.331 732.375 143.539 731.937 143.539 731.372C143.539 730.732 143.32 730.289 142.883 730.044C142.456 729.799 141.805 729.676 140.931 729.676H139.683ZM141.203 738.284C142.099 738.284 142.781 738.151 143.251 737.884C143.731 737.617 143.971 737.111 143.971 736.364C143.971 735.639 143.741 735.116 143.283 734.796C142.824 734.476 142.227 734.316 141.491 734.316H139.683V738.284H141.203ZM150.201 728.476C151.865 728.476 153.198 728.865 154.201 729.644C155.214 730.412 155.721 731.841 155.721 733.932C155.721 735.969 155.214 737.409 154.201 738.252C153.198 739.084 151.977 739.5 150.537 739.5H147.897V728.476H150.201ZM149.417 729.692V738.3H150.649C151.673 738.3 152.505 737.985 153.145 737.356C153.785 736.727 154.105 735.585 154.105 733.932C154.105 732.769 153.94 731.879 153.609 731.26C153.278 730.631 152.857 730.215 152.345 730.012C151.833 729.799 151.23 729.692 150.537 729.692H149.417ZM164.162 728.476L163.986 729.692H159.714V733.292H163.426V734.508H159.714V738.284H164.29V739.5H158.194V728.476H164.162Z" fill="#001E33" fill-opacity="0.75"/>
<rect x="0.5" y="576.5" width="405" height="95" stroke="#003C66" stroke-opacity="0.1"/>
<rect x="24" y="592" width="64" height="64" rx="16" fill="#CDFDF6"/>
<path d="M109.673 604.72C110.609 604.72 111.419 604.852 112.103 605.116C112.799 605.38 113.429 605.782 113.993 606.322L112.625 607.924C111.773 607.228 110.861 606.88 109.889 606.88C109.373 606.88 108.965 606.988 108.665 607.204C108.365 607.408 108.215 607.708 108.215 608.104C108.215 608.38 108.281 608.608 108.413 608.788C108.545 608.956 108.779 609.118 109.115 609.274C109.451 609.43 109.955 609.616 110.627 609.832C111.899 610.24 112.835 610.744 113.435 611.344C114.035 611.932 114.335 612.772 114.335 613.864C114.335 614.644 114.137 615.334 113.741 615.934C113.345 616.522 112.775 616.984 112.031 617.32C111.287 617.644 110.405 617.806 109.385 617.806C108.365 617.806 107.459 617.644 106.667 617.32C105.887 616.996 105.215 616.564 104.651 616.024L106.145 614.386C106.625 614.794 107.117 615.1 107.621 615.304C108.137 615.508 108.695 615.61 109.295 615.61C109.907 615.61 110.387 615.478 110.735 615.214C111.095 614.938 111.275 614.56 111.275 614.08C111.275 613.768 111.209 613.51 111.077 613.306C110.945 613.09 110.717 612.898 110.393 612.73C110.069 612.562 109.601 612.382 108.989 612.19C107.609 611.77 106.625 611.254 106.037 610.642C105.461 610.03 105.173 609.256 105.173 608.32C105.173 607.6 105.365 606.97 105.749 606.43C106.133 605.878 106.667 605.458 107.351 605.17C108.035 604.87 108.809 604.72 109.673 604.72ZM118.75 607.942V617.5H115.906V607.942H118.75ZM117.31 602.902C117.802 602.902 118.204 603.058 118.516 603.37C118.84 603.67 119.002 604.054 119.002 604.522C119.002 604.99 118.84 605.38 118.516 605.692C118.204 605.992 117.802 606.142 117.31 606.142C116.818 606.142 116.416 605.992 116.104 605.692C115.792 605.38 115.636 604.99 115.636 604.522C115.636 604.054 115.792 603.67 116.104 603.37C116.416 603.058 116.818 602.902 117.31 602.902ZM129.788 608.5C129.164 608.752 128.246 608.878 127.034 608.878C127.658 609.142 128.114 609.466 128.402 609.85C128.69 610.234 128.834 610.732 128.834 611.344C128.834 611.956 128.672 612.508 128.348 613C128.024 613.48 127.556 613.858 126.944 614.134C126.344 614.41 125.636 614.548 124.82 614.548C124.436 614.548 124.07 614.512 123.722 614.44C123.626 614.488 123.548 614.566 123.488 614.674C123.44 614.77 123.416 614.872 123.416 614.98C123.416 615.16 123.482 615.304 123.614 615.412C123.758 615.508 124.04 615.556 124.46 615.556H125.9C126.632 615.556 127.274 615.676 127.826 615.916C128.378 616.156 128.804 616.486 129.104 616.906C129.404 617.326 129.554 617.8 129.554 618.328C129.554 619.324 129.122 620.098 128.258 620.65C127.406 621.214 126.17 621.496 124.55 621.496C123.386 621.496 122.468 621.37 121.796 621.118C121.124 620.878 120.65 620.536 120.374 620.092C120.11 619.648 119.978 619.09 119.978 618.418H122.534C122.534 618.706 122.588 618.934 122.696 619.102C122.816 619.27 123.026 619.396 123.326 619.48C123.626 619.564 124.058 619.606 124.622 619.606C125.402 619.606 125.942 619.51 126.242 619.318C126.542 619.138 126.692 618.874 126.692 618.526C126.692 618.238 126.578 618.01 126.35 617.842C126.122 617.674 125.78 617.59 125.324 617.59H123.938C122.954 617.59 122.216 617.416 121.724 617.068C121.244 616.708 121.004 616.252 121.004 615.7C121.004 615.352 121.106 615.016 121.31 614.692C121.514 614.356 121.79 614.08 122.138 613.864C121.538 613.54 121.1 613.162 120.824 612.73C120.56 612.286 120.428 611.752 120.428 611.128C120.428 610.06 120.812 609.214 121.58 608.59C122.348 607.954 123.362 607.636 124.622 607.636C125.582 607.66 126.392 607.564 127.052 607.348C127.724 607.132 128.414 606.814 129.122 606.394L129.788 608.5ZM124.694 609.508C124.25 609.508 123.896 609.652 123.632 609.94C123.38 610.216 123.254 610.6 123.254 611.092C123.254 611.608 123.38 612.01 123.632 612.298C123.896 612.574 124.25 612.712 124.694 612.712C125.162 612.712 125.516 612.574 125.756 612.298C126.008 612.022 126.134 611.608 126.134 611.056C126.134 610.024 125.654 609.508 124.694 609.508ZM136.498 607.636C137.326 607.636 137.974 607.888 138.442 608.392C138.91 608.896 139.144 609.604 139.144 610.516V617.5H136.3V611.002C136.3 610.522 136.222 610.192 136.066 610.012C135.922 609.82 135.7 609.724 135.4 609.724C134.824 609.724 134.272 610.138 133.744 610.966V617.5H130.9V607.942H133.384L133.582 609.076C133.99 608.596 134.428 608.236 134.896 607.996C135.376 607.756 135.91 607.636 136.498 607.636ZM148.885 614.728C148.885 615.088 148.933 615.352 149.029 615.52C149.137 615.688 149.305 615.814 149.533 615.898L148.939 617.752C148.351 617.704 147.871 617.578 147.499 617.374C147.127 617.158 146.839 616.822 146.635 616.366C146.011 617.326 145.051 617.806 143.755 617.806C142.807 617.806 142.051 617.53 141.487 616.978C140.923 616.426 140.641 615.706 140.641 614.818C140.641 613.774 141.025 612.976 141.793 612.424C142.561 611.872 143.671 611.596 145.123 611.596H146.095V611.182C146.095 610.618 145.975 610.234 145.735 610.03C145.495 609.814 145.075 609.706 144.475 609.706C144.163 609.706 143.785 609.754 143.341 609.85C142.897 609.934 142.441 610.054 141.973 610.21L141.325 608.338C141.925 608.11 142.537 607.936 143.161 607.816C143.797 607.696 144.385 607.636 144.925 607.636C146.293 607.636 147.295 607.918 147.931 608.482C148.567 609.046 148.885 609.892 148.885 611.02V614.728ZM144.583 615.772C145.231 615.772 145.735 615.466 146.095 614.854V613.162H145.393C144.745 613.162 144.259 613.276 143.935 613.504C143.623 613.732 143.467 614.086 143.467 614.566C143.467 614.95 143.563 615.25 143.755 615.466C143.959 615.67 144.235 615.772 144.583 615.772ZM157.144 617.05C156.796 617.29 156.388 617.476 155.92 617.608C155.464 617.74 155.008 617.806 154.552 617.806C152.464 617.794 151.42 616.642 151.42 614.35V609.922H150.07V607.942H151.42V605.872L154.264 605.548V607.942H156.46L156.154 609.922H154.264V614.314C154.264 614.758 154.336 615.076 154.48 615.268C154.624 615.46 154.852 615.556 155.164 615.556C155.488 615.556 155.83 615.454 156.19 615.25L157.144 617.05ZM166.158 617.5H163.692L163.566 616.294C162.87 617.302 161.904 617.806 160.668 617.806C159.792 617.806 159.126 617.542 158.67 617.014C158.226 616.486 158.004 615.748 158.004 614.8V607.942H160.848V614.44C160.848 614.908 160.92 615.238 161.064 615.43C161.22 615.61 161.454 615.7 161.766 615.7C162.366 615.7 162.882 615.328 163.314 614.584V607.942H166.158V617.5ZM173.578 607.672C173.926 607.672 174.244 607.714 174.532 607.798L174.082 610.552C173.722 610.468 173.434 610.426 173.218 610.426C172.654 610.426 172.222 610.624 171.922 611.02C171.634 611.404 171.406 611.986 171.238 612.766V617.5H168.394V607.942H170.878L171.112 609.796C171.328 609.136 171.652 608.62 172.084 608.248C172.528 607.864 173.026 607.672 173.578 607.672ZM183.408 612.532C183.408 612.928 183.39 613.27 183.354 613.558H177.432C177.528 614.362 177.756 614.926 178.116 615.25C178.476 615.574 178.974 615.736 179.61 615.736C179.994 615.736 180.366 615.67 180.726 615.538C181.086 615.394 181.476 615.178 181.896 614.89L183.066 616.474C181.95 617.362 180.708 617.806 179.34 617.806C177.792 617.806 176.604 617.35 175.776 616.438C174.948 615.526 174.534 614.302 174.534 612.766C174.534 611.794 174.708 610.924 175.056 610.156C175.404 609.376 175.914 608.764 176.586 608.32C177.258 607.864 178.062 607.636 178.998 607.636C180.378 607.636 181.458 608.068 182.238 608.932C183.018 609.796 183.408 610.996 183.408 612.532ZM180.618 611.722C180.594 610.258 180.078 609.526 179.07 609.526C178.578 609.526 178.194 609.706 177.918 610.066C177.654 610.426 177.492 611.02 177.432 611.848H180.618V611.722ZM195.037 605.332V617.5H192.247V608.104L189.637 609.706L188.395 607.816L192.499 605.332H195.037Z" fill="#001626" fill-opacity="0.9"/>
<path d="M112.048 636.348H110.832L110.384 639.788H111.456V640.892H110.224L109.888 643.5H108.64L108.976 640.892H106.512L106.176 643.5H104.928L105.264 640.892H104.24V639.788H105.424L105.872 636.348H104.832V635.228H106.016L106.336 632.796H107.584L107.264 635.228H109.728L110.048 632.796H111.296L110.976 635.228H112.048V636.348ZM109.136 639.788L109.584 636.348H107.12L106.672 639.788H109.136ZM117.503 632.284C118.164 632.284 118.719 632.369 119.167 632.54C119.626 632.711 120.09 632.988 120.559 633.372L119.727 634.348C119.055 633.804 118.346 633.532 117.599 633.532C116.682 633.532 115.94 633.884 115.375 634.588C114.82 635.292 114.543 636.423 114.543 637.98C114.543 639.495 114.82 640.615 115.375 641.34C115.93 642.055 116.666 642.412 117.583 642.412C118.052 642.412 118.463 642.332 118.815 642.172C119.167 642.012 119.54 641.788 119.935 641.5L120.687 642.46C120.346 642.812 119.908 643.105 119.375 643.34C118.842 643.575 118.228 643.692 117.535 643.692C116.639 643.692 115.839 643.473 115.135 643.036C114.442 642.588 113.898 641.937 113.503 641.084C113.119 640.22 112.927 639.185 112.927 637.98C112.927 636.775 113.13 635.745 113.535 634.892C113.94 634.028 114.49 633.377 115.183 632.94C115.876 632.503 116.65 632.284 117.503 632.284ZM124.904 632.476C126.568 632.476 127.901 632.865 128.904 633.644C129.917 634.412 130.424 635.841 130.424 637.932C130.424 639.969 129.917 641.409 128.904 642.252C127.901 643.084 126.68 643.5 125.24 643.5H122.6V632.476H124.904ZM124.12 633.692V642.3H125.352C126.376 642.3 127.208 641.985 127.848 641.356C128.488 640.727 128.808 639.585 128.808 637.932C128.808 636.769 128.643 635.879 128.312 635.26C127.981 634.631 127.56 634.215 127.048 634.012C126.536 633.799 125.933 633.692 125.24 633.692H124.12ZM132.897 643.5V632.476H138.753L138.577 633.692H134.417V637.452H138.017V638.652H134.417V643.5H132.897ZM143.06 632.476C144.724 632.476 146.058 632.865 147.06 633.644C148.074 634.412 148.58 635.841 148.58 637.932C148.58 639.969 148.074 641.409 147.06 642.252C146.058 643.084 144.836 643.5 143.396 643.5H140.756V632.476H143.06ZM142.276 633.692V642.3H143.508C144.532 642.3 145.364 641.985 146.004 641.356C146.644 640.727 146.964 639.585 146.964 637.932C146.964 636.769 146.799 635.879 146.468 635.26C146.138 634.631 145.716 634.215 145.204 634.012C144.692 633.799 144.09 633.692 143.396 633.692H142.276ZM151.053 643.5V632.476H156.909L156.733 633.692H152.573V637.452H156.173V638.652H152.573V643.5H151.053ZM162.006 636.46C162.55 636.46 163.046 636.588 163.494 636.844C163.942 637.1 164.299 637.484 164.566 637.996C164.833 638.508 164.966 639.132 164.966 639.868C164.966 640.625 164.811 641.297 164.502 641.884C164.203 642.46 163.793 642.908 163.27 643.228C162.758 643.537 162.187 643.692 161.558 643.692C160.31 643.692 159.398 643.233 158.822 642.316C158.246 641.388 157.958 640.108 157.958 638.476C157.958 637.313 158.118 636.295 158.438 635.42C158.769 634.535 159.238 633.852 159.846 633.372C160.454 632.881 161.174 632.636 162.006 632.636C162.817 632.636 163.553 632.855 164.214 633.292L163.638 634.268C163.137 633.959 162.587 633.804 161.99 633.804C161.222 633.804 160.614 634.172 160.166 634.908C159.718 635.644 159.473 636.631 159.43 637.868C160.091 636.929 160.95 636.46 162.006 636.46ZM161.558 642.524C162.177 642.524 162.651 642.289 162.982 641.82C163.313 641.351 163.478 640.716 163.478 639.916C163.478 638.391 162.902 637.628 161.75 637.628C161.281 637.628 160.849 637.761 160.454 638.028C160.059 638.284 159.723 638.641 159.446 639.1C159.478 640.273 159.659 641.137 159.99 641.692C160.331 642.247 160.854 642.524 161.558 642.524Z" fill="#001E33" fill-opacity="0.75"/>
<rect x="0.5" y="480.5" width="405" height="95" stroke="#003C66" stroke-opacity="0.1"/>
<rect x="24" y="496" width="64" height="64" rx="16" fill="#FF6200"/>
<path d="M109.389 508.72C110.325 508.72 111.135 508.852 111.819 509.116C112.515 509.38 113.145 509.782 113.709 510.322L112.341 511.924C111.489 511.228 110.577 510.88 109.605 510.88C109.089 510.88 108.681 510.988 108.381 511.204C108.081 511.408 107.931 511.708 107.931 512.104C107.931 512.38 107.997 512.608 108.129 512.788C108.261 512.956 108.495 513.118 108.831 513.274C109.167 513.43 109.671 513.616 110.343 513.832C111.615 514.24 112.551 514.744 113.151 515.344C113.751 515.932 114.051 516.772 114.051 517.864C114.051 518.644 113.853 519.334 113.457 519.934C113.061 520.522 112.491 520.984 111.747 521.32C111.003 521.644 110.121 521.806 109.101 521.806C108.081 521.806 107.175 521.644 106.383 521.32C105.603 520.996 104.931 520.564 104.367 520.024L105.861 518.386C106.341 518.794 106.833 519.1 107.337 519.304C107.853 519.508 108.411 519.61 109.011 519.61C109.623 519.61 110.103 519.478 110.451 519.214C110.811 518.938 110.991 518.56 110.991 518.08C110.991 517.768 110.925 517.51 110.793 517.306C110.661 517.09 110.433 516.898 110.109 516.73C109.785 516.562 109.317 516.382 108.705 516.19C107.325 515.77 106.341 515.254 105.753 514.642C105.177 514.03 104.889 513.256 104.889 512.32C104.889 511.6 105.081 510.97 105.465 510.43C105.849 509.878 106.383 509.458 107.067 509.17C107.751 508.87 108.525 508.72 109.389 508.72ZM123.956 516.532C123.956 516.928 123.938 517.27 123.902 517.558H117.98C118.076 518.362 118.304 518.926 118.664 519.25C119.024 519.574 119.522 519.736 120.158 519.736C120.542 519.736 120.914 519.67 121.274 519.538C121.634 519.394 122.024 519.178 122.444 518.89L123.614 520.474C122.498 521.362 121.256 521.806 119.888 521.806C118.34 521.806 117.152 521.35 116.324 520.438C115.496 519.526 115.082 518.302 115.082 516.766C115.082 515.794 115.256 514.924 115.604 514.156C115.952 513.376 116.462 512.764 117.134 512.32C117.806 511.864 118.61 511.636 119.546 511.636C120.926 511.636 122.006 512.068 122.786 512.932C123.566 513.796 123.956 514.996 123.956 516.532ZM121.166 515.722C121.142 514.258 120.626 513.526 119.618 513.526C119.126 513.526 118.742 513.706 118.466 514.066C118.202 514.426 118.04 515.02 117.98 515.848H121.166V515.722ZM129.694 511.636C130.354 511.636 130.948 511.732 131.476 511.924C132.004 512.116 132.502 512.41 132.97 512.806L131.746 514.498C131.146 514.042 130.54 513.814 129.928 513.814C129.292 513.814 128.812 514.048 128.488 514.516C128.164 514.984 128.002 515.74 128.002 516.784C128.002 517.792 128.164 518.506 128.488 518.926C128.812 519.346 129.28 519.556 129.892 519.556C130.216 519.556 130.51 519.508 130.774 519.412C131.038 519.304 131.356 519.136 131.728 518.908L132.97 520.672C132.022 521.428 130.948 521.806 129.748 521.806C128.776 521.806 127.936 521.602 127.228 521.194C126.52 520.774 125.974 520.192 125.59 519.448C125.206 518.692 125.014 517.81 125.014 516.802C125.014 515.794 125.206 514.9 125.59 514.12C125.974 513.34 126.52 512.734 127.228 512.302C127.936 511.858 128.758 511.636 129.694 511.636ZM137.955 511.636C139.419 511.636 140.565 512.086 141.393 512.986C142.221 513.874 142.635 515.122 142.635 516.73C142.635 517.75 142.443 518.644 142.059 519.412C141.687 520.168 141.147 520.756 140.439 521.176C139.743 521.596 138.915 521.806 137.955 521.806C136.503 521.806 135.357 521.362 134.517 520.474C133.689 519.574 133.275 518.32 133.275 516.712C133.275 515.692 133.461 514.804 133.833 514.048C134.217 513.28 134.757 512.686 135.453 512.266C136.161 511.846 136.995 511.636 137.955 511.636ZM137.955 513.724C137.379 513.724 136.947 513.97 136.659 514.462C136.371 514.942 136.227 515.692 136.227 516.712C136.227 517.756 136.365 518.518 136.641 518.998C136.929 519.478 137.367 519.718 137.955 519.718C138.531 519.718 138.963 519.478 139.251 518.998C139.539 518.506 139.683 517.75 139.683 516.73C139.683 515.686 139.539 514.924 139.251 514.444C138.975 513.964 138.543 513.724 137.955 513.724ZM149.925 511.636C150.753 511.636 151.401 511.888 151.869 512.392C152.337 512.896 152.571 513.604 152.571 514.516V521.5H149.727V515.002C149.727 514.522 149.649 514.192 149.493 514.012C149.349 513.82 149.127 513.724 148.827 513.724C148.251 513.724 147.699 514.138 147.171 514.966V521.5H144.327V511.942H146.811L147.009 513.076C147.417 512.596 147.855 512.236 148.323 511.996C148.803 511.756 149.337 511.636 149.925 511.636ZM163.284 508.144V521.5H160.764L160.62 520.384C159.948 521.332 159.042 521.806 157.902 521.806C156.714 521.806 155.808 521.35 155.184 520.438C154.572 519.526 154.266 518.278 154.266 516.694C154.266 515.722 154.428 514.852 154.752 514.084C155.076 513.316 155.532 512.716 156.12 512.284C156.72 511.852 157.404 511.636 158.172 511.636C159.084 511.636 159.84 511.936 160.44 512.536V507.838L163.284 508.144ZM158.784 519.718C159.444 519.718 159.996 519.358 160.44 518.638V514.516C160.212 514.24 159.978 514.036 159.738 513.904C159.51 513.772 159.246 513.706 158.946 513.706C158.418 513.706 157.998 513.952 157.686 514.444C157.374 514.936 157.218 515.692 157.218 516.712C157.218 517.828 157.35 518.608 157.614 519.052C157.89 519.496 158.28 519.718 158.784 519.718ZM173.105 518.728C173.105 519.088 173.153 519.352 173.249 519.52C173.357 519.688 173.525 519.814 173.753 519.898L173.159 521.752C172.571 521.704 172.091 521.578 171.719 521.374C171.347 521.158 171.059 520.822 170.855 520.366C170.231 521.326 169.271 521.806 167.975 521.806C167.027 521.806 166.271 521.53 165.707 520.978C165.143 520.426 164.861 519.706 164.861 518.818C164.861 517.774 165.245 516.976 166.013 516.424C166.781 515.872 167.891 515.596 169.343 515.596H170.315V515.182C170.315 514.618 170.195 514.234 169.955 514.03C169.715 513.814 169.295 513.706 168.695 513.706C168.383 513.706 168.005 513.754 167.561 513.85C167.117 513.934 166.661 514.054 166.193 514.21L165.545 512.338C166.145 512.11 166.757 511.936 167.381 511.816C168.017 511.696 168.605 511.636 169.145 511.636C170.513 511.636 171.515 511.918 172.151 512.482C172.787 513.046 173.105 513.892 173.105 515.02V518.728ZM168.803 519.772C169.451 519.772 169.955 519.466 170.315 518.854V517.162H169.613C168.965 517.162 168.479 517.276 168.155 517.504C167.843 517.732 167.687 518.086 167.687 518.566C167.687 518.95 167.783 519.25 167.975 519.466C168.179 519.67 168.455 519.772 168.803 519.772ZM180.554 511.672C180.902 511.672 181.22 511.714 181.508 511.798L181.058 514.552C180.698 514.468 180.41 514.426 180.194 514.426C179.63 514.426 179.198 514.624 178.898 515.02C178.61 515.404 178.382 515.986 178.214 516.766V521.5H175.37V511.942H177.854L178.088 513.796C178.304 513.136 178.628 512.62 179.06 512.248C179.504 511.864 180.002 511.672 180.554 511.672ZM187.869 521.518C187.485 522.754 186.855 523.702 185.979 524.362C185.115 525.034 183.951 525.412 182.487 525.496L182.181 523.498C183.093 523.378 183.765 523.174 184.197 522.886C184.641 522.598 184.995 522.136 185.259 521.5H184.287L181.371 511.942H184.395L186.105 519.682L187.977 511.942H190.911L187.869 521.518Z" fill="#001626" fill-opacity="0.9"/>
<path d="M112.048 540.348H110.832L110.384 543.788H111.456V544.892H110.224L109.888 547.5H108.64L108.976 544.892H106.512L106.176 547.5H104.928L105.264 544.892H104.24V543.788H105.424L105.872 540.348H104.832V539.228H106.016L106.336 536.796H107.584L107.264 539.228H109.728L110.048 536.796H111.296L110.976 539.228H112.048V540.348ZM109.136 543.788L109.584 540.348H107.12L106.672 543.788H109.136ZM113.881 547.5V536.476H119.737L119.561 537.692H115.401V541.452H119.001V542.652H115.401V547.5H113.881ZM121.741 547.5V536.476H127.597L127.421 537.692H123.261V541.452H126.861V542.652H123.261V547.5H121.741ZM132.694 540.46C133.238 540.46 133.734 540.588 134.182 540.844C134.63 541.1 134.987 541.484 135.254 541.996C135.52 542.508 135.654 543.132 135.654 543.868C135.654 544.625 135.499 545.297 135.19 545.884C134.891 546.46 134.48 546.908 133.958 547.228C133.446 547.537 132.875 547.692 132.246 547.692C130.998 547.692 130.086 547.233 129.51 546.316C128.934 545.388 128.646 544.108 128.646 542.476C128.646 541.313 128.806 540.295 129.126 539.42C129.456 538.535 129.926 537.852 130.534 537.372C131.142 536.881 131.862 536.636 132.694 536.636C133.504 536.636 134.24 536.855 134.902 537.292L134.326 538.268C133.824 537.959 133.275 537.804 132.678 537.804C131.91 537.804 131.302 538.172 130.854 538.908C130.406 539.644 130.16 540.631 130.118 541.868C130.779 540.929 131.638 540.46 132.694 540.46ZM132.246 546.524C132.864 546.524 133.339 546.289 133.67 545.82C134 545.351 134.166 544.716 134.166 543.916C134.166 542.391 133.59 541.628 132.438 541.628C131.968 541.628 131.536 541.761 131.142 542.028C130.747 542.284 130.411 542.641 130.134 543.1C130.166 544.273 130.347 545.137 130.678 545.692C131.019 546.247 131.542 546.524 132.246 546.524ZM139.757 536.636C140.397 536.636 140.957 536.764 141.437 537.02C141.928 537.276 142.307 537.628 142.573 538.076C142.84 538.513 142.973 539.009 142.973 539.564C142.973 540.215 142.824 540.839 142.525 541.436C142.237 542.033 141.789 542.679 141.181 543.372C140.573 544.065 139.651 545.031 138.413 546.268H143.229L143.053 547.5H136.733V546.332C138.163 544.849 139.176 543.767 139.773 543.084C140.371 542.391 140.797 541.788 141.053 541.276C141.309 540.764 141.437 540.215 141.437 539.628C141.437 539.073 141.277 538.641 140.957 538.332C140.637 538.012 140.211 537.852 139.677 537.852C139.24 537.852 138.856 537.943 138.525 538.124C138.195 538.305 137.843 538.604 137.469 539.02L136.509 538.252C136.947 537.708 137.432 537.303 137.965 537.036C138.499 536.769 139.096 536.636 139.757 536.636ZM148.495 536.636C149.679 536.636 150.57 537.111 151.167 538.06C151.775 538.999 152.079 540.364 152.079 542.156C152.079 543.948 151.775 545.319 151.167 546.268C150.57 547.217 149.679 547.692 148.495 547.692C147.311 547.692 146.415 547.217 145.807 546.268C145.21 545.319 144.911 543.948 144.911 542.156C144.911 540.364 145.21 538.999 145.807 538.06C146.415 537.111 147.311 536.636 148.495 536.636ZM148.495 537.804C147.802 537.804 147.285 538.145 146.943 538.828C146.613 539.511 146.447 540.62 146.447 542.156C146.447 543.692 146.613 544.807 146.943 545.5C147.285 546.183 147.802 546.524 148.495 546.524C149.178 546.524 149.69 546.183 150.031 545.5C150.373 544.807 150.543 543.692 150.543 542.156C150.543 540.631 150.373 539.527 150.031 538.844C149.69 538.151 149.178 537.804 148.495 537.804ZM157.417 536.636C158.601 536.636 159.492 537.111 160.089 538.06C160.697 538.999 161.001 540.364 161.001 542.156C161.001 543.948 160.697 545.319 160.089 546.268C159.492 547.217 158.601 547.692 157.417 547.692C156.233 547.692 155.337 547.217 154.729 546.268C154.132 545.319 153.833 543.948 153.833 542.156C153.833 540.364 154.132 538.999 154.729 538.06C155.337 537.111 156.233 536.636 157.417 536.636ZM157.417 537.804C156.724 537.804 156.206 538.145 155.865 538.828C155.534 539.511 155.369 540.62 155.369 542.156C155.369 543.692 155.534 544.807 155.865 545.5C156.206 546.183 156.724 546.524 157.417 546.524C158.1 546.524 158.612 546.183 158.953 545.5C159.294 544.807 159.465 543.692 159.465 542.156C159.465 540.631 159.294 539.527 158.953 538.844C158.612 538.151 158.1 537.804 157.417 537.804Z" fill="#001E33" fill-opacity="0.75"/>
<rect x="0.5" y="384.5" width="405" height="95" stroke="#003C66" stroke-opacity="0.1"/>
<rect x="24" y="400" width="64" height="64" rx="16" fill="#0D439F"/>
<path d="M109.525 411.526C111.169 411.526 112.447 411.868 113.359 412.552C114.271 413.236 114.727 414.25 114.727 415.594C114.727 416.998 114.277 418.06 113.377 418.78C112.489 419.488 111.295 419.842 109.795 419.842H108.445V424H105.493V411.526H109.525ZM109.543 417.718C110.239 417.718 110.767 417.556 111.127 417.232C111.499 416.896 111.685 416.35 111.685 415.594C111.685 414.286 110.953 413.632 109.489 413.632H108.445V417.718H109.543ZM121.065 414.172C121.413 414.172 121.731 414.214 122.019 414.298L121.569 417.052C121.209 416.968 120.921 416.926 120.705 416.926C120.141 416.926 119.709 417.124 119.409 417.52C119.121 417.904 118.893 418.486 118.725 419.266V424H115.881V414.442H118.365L118.599 416.296C118.815 415.636 119.139 415.12 119.571 414.748C120.015 414.364 120.513 414.172 121.065 414.172ZM125.949 414.442V424H123.105V414.442H125.949ZM124.509 409.402C125.001 409.402 125.403 409.558 125.715 409.87C126.039 410.17 126.201 410.554 126.201 411.022C126.201 411.49 126.039 411.88 125.715 412.192C125.403 412.492 125.001 412.642 124.509 412.642C124.017 412.642 123.615 412.492 123.303 412.192C122.991 411.88 122.835 411.49 122.835 411.022C122.835 410.554 122.991 410.17 123.303 409.87C123.615 409.558 124.017 409.402 124.509 409.402ZM138.751 414.136C139.507 414.136 140.113 414.394 140.569 414.91C141.025 415.414 141.253 416.116 141.253 417.016V424H138.409V417.502C138.409 416.65 138.139 416.224 137.599 416.224C137.299 416.224 137.035 416.326 136.807 416.53C136.579 416.734 136.357 417.046 136.141 417.466V424H133.297V417.502C133.297 416.65 133.027 416.224 132.487 416.224C132.199 416.224 131.935 416.332 131.695 416.548C131.467 416.752 131.245 417.058 131.029 417.466V424H128.185V414.442H130.669L130.867 415.558C131.239 415.078 131.647 414.724 132.091 414.496C132.547 414.256 133.063 414.136 133.639 414.136C134.179 414.136 134.641 414.268 135.025 414.532C135.421 414.796 135.709 415.168 135.889 415.648C136.273 415.132 136.693 414.754 137.149 414.514C137.617 414.262 138.151 414.136 138.751 414.136ZM150.986 421.228C150.986 421.588 151.034 421.852 151.13 422.02C151.238 422.188 151.406 422.314 151.634 422.398L151.04 424.252C150.452 424.204 149.972 424.078 149.6 423.874C149.228 423.658 148.94 423.322 148.736 422.866C148.112 423.826 147.152 424.306 145.856 424.306C144.908 424.306 144.152 424.03 143.588 423.478C143.024 422.926 142.742 422.206 142.742 421.318C142.742 420.274 143.126 419.476 143.894 418.924C144.662 418.372 145.772 418.096 147.224 418.096H148.196V417.682C148.196 417.118 148.076 416.734 147.836 416.53C147.596 416.314 147.176 416.206 146.576 416.206C146.264 416.206 145.886 416.254 145.442 416.35C144.998 416.434 144.542 416.554 144.074 416.71L143.426 414.838C144.026 414.61 144.638 414.436 145.262 414.316C145.898 414.196 146.486 414.136 147.026 414.136C148.394 414.136 149.396 414.418 150.032 414.982C150.668 415.546 150.986 416.392 150.986 417.52V421.228ZM146.684 422.272C147.332 422.272 147.836 421.966 148.196 421.354V419.662H147.494C146.846 419.662 146.36 419.776 146.036 420.004C145.724 420.232 145.568 420.586 145.568 421.066C145.568 421.45 145.664 421.75 145.856 421.966C146.06 422.17 146.336 422.272 146.684 422.272ZM158.436 414.172C158.784 414.172 159.102 414.214 159.39 414.298L158.94 417.052C158.58 416.968 158.292 416.926 158.076 416.926C157.512 416.926 157.08 417.124 156.78 417.52C156.492 417.904 156.264 418.486 156.096 419.266V424H153.252V414.442H155.736L155.97 416.296C156.186 415.636 156.51 415.12 156.942 414.748C157.386 414.364 157.884 414.172 158.436 414.172ZM165.75 424.018C165.366 425.254 164.736 426.202 163.86 426.862C162.996 427.534 161.832 427.912 160.368 427.996L160.062 425.998C160.974 425.878 161.646 425.674 162.078 425.386C162.522 425.098 162.876 424.636 163.14 424H162.168L159.252 414.442H162.276L163.986 422.182L165.858 414.442H168.792L165.75 424.018Z" fill="#001626" fill-opacity="0.9"/>
<path d="M113.054 444.954H111.686L111.182 448.824H112.388V450.066H111.002L110.624 453H109.22L109.598 450.066H106.826L106.448 453H105.044L105.422 450.066H104.27V448.824H105.602L106.106 444.954H104.936V443.694H106.268L106.628 440.958H108.032L107.672 443.694H110.444L110.804 440.958H112.208L111.848 443.694H113.054V444.954ZM109.778 448.824L110.282 444.954H107.51L107.006 448.824H109.778ZM118.338 440.778C119.67 440.778 120.672 441.312 121.344 442.38C122.028 443.436 122.37 444.972 122.37 446.988C122.37 449.004 122.028 450.546 121.344 451.614C120.672 452.682 119.67 453.216 118.338 453.216C117.006 453.216 115.998 452.682 115.314 451.614C114.642 450.546 114.306 449.004 114.306 446.988C114.306 444.972 114.642 443.436 115.314 442.38C115.998 441.312 117.006 440.778 118.338 440.778ZM118.338 442.092C117.558 442.092 116.976 442.476 116.592 443.244C116.22 444.012 116.034 445.26 116.034 446.988C116.034 448.716 116.22 449.97 116.592 450.75C116.976 451.518 117.558 451.902 118.338 451.902C119.106 451.902 119.682 451.518 120.066 450.75C120.45 449.97 120.642 448.716 120.642 446.988C120.642 445.272 120.45 444.03 120.066 443.262C119.682 442.482 119.106 442.092 118.338 442.092ZM127.746 440.598C129.618 440.598 131.118 441.036 132.246 441.912C133.386 442.776 133.956 444.384 133.956 446.736C133.956 449.028 133.386 450.648 132.246 451.596C131.118 452.532 129.744 453 128.124 453H125.154V440.598H127.746ZM126.864 441.966V451.65H128.25C129.402 451.65 130.338 451.296 131.058 450.588C131.778 449.88 132.138 448.596 132.138 446.736C132.138 445.428 131.952 444.426 131.58 443.73C131.208 443.022 130.734 442.554 130.158 442.326C129.582 442.086 128.904 441.966 128.124 441.966H126.864ZM143.974 448.716V450.03H142.408V453H140.806V450.03H135.658V448.842L139.276 440.778L140.662 441.354L137.404 448.716H140.824L140.968 445.476H142.408V448.716H143.974ZM148.269 440.778C149.013 440.778 149.649 440.916 150.177 441.192C150.717 441.468 151.125 441.84 151.401 442.308C151.689 442.776 151.833 443.286 151.833 443.838C151.833 444.57 151.617 445.176 151.185 445.656C150.765 446.124 150.201 446.442 149.493 446.61C150.297 446.682 150.951 446.97 151.455 447.474C151.959 447.978 152.211 448.662 152.211 449.526C152.211 450.222 152.043 450.852 151.707 451.416C151.371 451.98 150.891 452.424 150.267 452.748C149.643 453.06 148.923 453.216 148.107 453.216C147.375 453.216 146.703 453.084 146.091 452.82C145.479 452.544 144.945 452.136 144.489 451.596L145.479 450.678C145.875 451.086 146.277 451.386 146.685 451.578C147.105 451.77 147.561 451.866 148.053 451.866C148.809 451.866 149.403 451.656 149.835 451.236C150.267 450.804 150.483 450.228 150.483 449.508C150.483 448.716 150.279 448.158 149.871 447.834C149.463 447.51 148.869 447.348 148.089 447.348H147.189L147.387 446.07H147.999C148.623 446.07 149.139 445.884 149.547 445.512C149.967 445.14 150.177 444.618 150.177 443.946C150.177 443.382 149.997 442.938 149.637 442.614C149.277 442.278 148.791 442.11 148.179 442.11C147.711 442.11 147.279 442.194 146.883 442.362C146.499 442.53 146.103 442.806 145.695 443.19L144.831 442.2C145.851 441.252 146.997 440.778 148.269 440.778ZM157.652 440.778C158.924 440.778 159.89 441.198 160.55 442.038C161.21 442.866 161.54 444.006 161.54 445.458C161.54 447.102 161.318 448.428 160.874 449.436C160.43 450.432 159.752 451.23 158.84 451.83C157.928 452.418 156.692 452.94 155.132 453.396L154.754 452.154C156.362 451.698 157.592 451.08 158.444 450.3C159.308 449.52 159.77 448.482 159.83 447.186C159.554 447.618 159.182 447.966 158.714 448.23C158.246 448.494 157.718 448.626 157.13 448.626C156.506 448.626 155.942 448.47 155.438 448.158C154.934 447.834 154.532 447.384 154.232 446.808C153.944 446.22 153.8 445.536 153.8 444.756C153.8 443.94 153.974 443.232 154.322 442.632C154.67 442.032 155.132 441.576 155.708 441.264C156.296 440.94 156.944 440.778 157.652 440.778ZM157.472 447.33C158.42 447.33 159.218 446.832 159.866 445.836C159.89 444.504 159.722 443.55 159.362 442.974C159.014 442.386 158.456 442.092 157.688 442.092C156.98 442.092 156.434 442.326 156.05 442.794C155.666 443.262 155.474 443.928 155.474 444.792C155.474 445.632 155.654 446.268 156.014 446.7C156.374 447.12 156.86 447.33 157.472 447.33ZM164.247 453V440.598H170.835L170.637 441.966H165.957V446.196H170.007V447.546H165.957V453H164.247Z" fill="#001E33" fill-opacity="0.75"/>
<rect x="0.5" y="288.5" width="405" height="95" stroke="#003C66" stroke-opacity="0.1"/>
<rect x="24" y="304" width="64" height="64" rx="16" fill="#81B2FD"/>
<path d="M108.619 317.026V329.5H105.667V317.026H108.619ZM115.027 319.636C115.687 319.636 116.281 319.732 116.809 319.924C117.337 320.116 117.835 320.41 118.303 320.806L117.079 322.498C116.479 322.042 115.873 321.814 115.261 321.814C114.625 321.814 114.145 322.048 113.821 322.516C113.497 322.984 113.335 323.74 113.335 324.784C113.335 325.792 113.497 326.506 113.821 326.926C114.145 327.346 114.613 327.556 115.225 327.556C115.549 327.556 115.843 327.508 116.107 327.412C116.371 327.304 116.689 327.136 117.061 326.908L118.303 328.672C117.355 329.428 116.281 329.806 115.081 329.806C114.109 329.806 113.269 329.602 112.561 329.194C111.853 328.774 111.307 328.192 110.923 327.448C110.539 326.692 110.347 325.81 110.347 324.802C110.347 323.794 110.539 322.9 110.923 322.12C111.307 321.34 111.853 320.734 112.561 320.302C113.269 319.858 114.091 319.636 115.027 319.636ZM123.288 319.636C124.752 319.636 125.898 320.086 126.726 320.986C127.554 321.874 127.968 323.122 127.968 324.73C127.968 325.75 127.776 326.644 127.392 327.412C127.02 328.168 126.48 328.756 125.772 329.176C125.076 329.596 124.248 329.806 123.288 329.806C121.836 329.806 120.69 329.362 119.85 328.474C119.022 327.574 118.608 326.32 118.608 324.712C118.608 323.692 118.794 322.804 119.166 322.048C119.55 321.28 120.09 320.686 120.786 320.266C121.494 319.846 122.328 319.636 123.288 319.636ZM123.288 321.724C122.712 321.724 122.28 321.97 121.992 322.462C121.704 322.942 121.56 323.692 121.56 324.712C121.56 325.756 121.698 326.518 121.974 326.998C122.262 327.478 122.7 327.718 123.288 327.718C123.864 327.718 124.296 327.478 124.584 326.998C124.872 326.506 125.016 325.75 125.016 324.73C125.016 323.686 124.872 322.924 124.584 322.444C124.308 321.964 123.876 321.724 123.288 321.724ZM135.258 319.636C136.086 319.636 136.734 319.888 137.202 320.392C137.67 320.896 137.904 321.604 137.904 322.516V329.5H135.06V323.002C135.06 322.522 134.982 322.192 134.826 322.012C134.682 321.82 134.46 321.724 134.16 321.724C133.584 321.724 133.032 322.138 132.504 322.966V329.5H129.66V319.942H132.144L132.342 321.076C132.75 320.596 133.188 320.236 133.656 319.996C134.136 319.756 134.67 319.636 135.258 319.636ZM147.488 317.08C148.364 317.08 149.114 317.236 149.738 317.548C150.374 317.86 150.854 318.28 151.178 318.808C151.514 319.336 151.682 319.918 151.682 320.554C151.682 321.202 151.55 321.82 151.286 322.408C151.022 322.996 150.554 323.674 149.882 324.442C149.21 325.198 148.232 326.158 146.948 327.322H151.934L151.646 329.5H143.726V327.484C145.202 326.032 146.276 324.94 146.948 324.208C147.62 323.464 148.088 322.846 148.352 322.354C148.628 321.862 148.766 321.358 148.766 320.842C148.766 320.35 148.622 319.966 148.334 319.69C148.058 319.402 147.68 319.258 147.2 319.258C146.768 319.258 146.384 319.36 146.048 319.564C145.712 319.756 145.358 320.074 144.986 320.518L143.312 319.186C143.816 318.526 144.416 318.01 145.112 317.638C145.82 317.266 146.612 317.08 147.488 317.08Z" fill="#001626" fill-opacity="0.9"/>
<path d="M112.048 348.348H110.832L110.384 351.788H111.456V352.892H110.224L109.888 355.5H108.64L108.976 352.892H106.512L106.176 355.5H104.928L105.264 352.892H104.24V351.788H105.424L105.872 348.348H104.832V347.228H106.016L106.336 344.796H107.584L107.264 347.228H109.728L110.048 344.796H111.296L110.976 347.228H112.048V348.348ZM109.136 351.788L109.584 348.348H107.12L106.672 351.788H109.136ZM118.121 349.756C119.625 350.364 120.377 351.324 120.377 352.636C120.377 353.223 120.217 353.751 119.897 354.22C119.588 354.679 119.151 355.041 118.585 355.308C118.02 355.564 117.38 355.692 116.665 355.692C115.94 355.692 115.3 355.564 114.745 355.308C114.191 355.052 113.759 354.695 113.449 354.236C113.151 353.777 113.001 353.255 113.001 352.668C113.001 352.007 113.177 351.452 113.529 351.004C113.892 350.556 114.42 350.183 115.113 349.884C114.548 349.596 114.127 349.249 113.849 348.844C113.583 348.428 113.449 347.943 113.449 347.388C113.449 346.812 113.599 346.316 113.897 345.9C114.207 345.484 114.607 345.169 115.097 344.956C115.599 344.743 116.132 344.636 116.697 344.636C117.252 344.636 117.775 344.737 118.265 344.94C118.767 345.143 119.172 345.452 119.481 345.868C119.791 346.273 119.945 346.764 119.945 347.34C119.945 347.873 119.796 348.332 119.497 348.716C119.199 349.1 118.74 349.447 118.121 349.756ZM116.697 345.74C116.143 345.74 115.7 345.884 115.369 346.172C115.049 346.46 114.889 346.871 114.889 347.404C114.889 347.916 115.044 348.305 115.353 348.572C115.673 348.839 116.18 349.084 116.873 349.308L117.145 349.404C117.625 349.127 117.972 348.833 118.185 348.524C118.399 348.215 118.505 347.836 118.505 347.388C118.505 346.887 118.345 346.487 118.025 346.188C117.716 345.889 117.273 345.74 116.697 345.74ZM116.681 354.524C117.343 354.524 117.865 354.353 118.249 354.012C118.644 353.671 118.841 353.217 118.841 352.652C118.841 352.268 118.767 351.948 118.617 351.692C118.468 351.425 118.228 351.196 117.897 351.004C117.567 350.801 117.103 350.599 116.505 350.396L116.105 350.252C115.572 350.508 115.177 350.833 114.921 351.228C114.665 351.612 114.537 352.092 114.537 352.668C114.537 353.255 114.729 353.713 115.113 354.044C115.497 354.364 116.02 354.524 116.681 354.524ZM125.777 344.796V355.5H124.305V346.364L121.809 347.884L121.169 346.844L124.481 344.796H125.777ZM133.995 349.676C134.753 349.804 135.366 350.071 135.835 350.476C136.305 350.881 136.539 351.511 136.539 352.364C136.539 354.455 135.083 355.5 132.171 355.5H129.131V344.476H131.739C133.137 344.476 134.203 344.705 134.939 345.164C135.686 345.623 136.059 346.321 136.059 347.26C136.059 347.9 135.857 348.433 135.451 348.86C135.057 349.287 134.571 349.559 133.995 349.676ZM130.651 345.676V349.148H132.315C132.955 349.148 133.478 348.993 133.883 348.684C134.299 348.375 134.507 347.937 134.507 347.372C134.507 346.732 134.289 346.289 133.851 346.044C133.425 345.799 132.774 345.676 131.899 345.676H130.651ZM132.171 354.284C133.067 354.284 133.75 354.151 134.219 353.884C134.699 353.617 134.939 353.111 134.939 352.364C134.939 351.639 134.71 351.116 134.251 350.796C133.793 350.476 133.195 350.316 132.459 350.316H130.651V354.284H132.171ZM140.679 344.636C141.319 344.636 141.879 344.764 142.359 345.02C142.85 345.276 143.229 345.628 143.495 346.076C143.762 346.513 143.895 347.009 143.895 347.564C143.895 348.215 143.746 348.839 143.447 349.436C143.159 350.033 142.711 350.679 142.103 351.372C141.495 352.065 140.573 353.031 139.335 354.268H144.151L143.975 355.5H137.655V354.332C139.085 352.849 140.098 351.767 140.695 351.084C141.293 350.391 141.719 349.788 141.975 349.276C142.231 348.764 142.359 348.215 142.359 347.628C142.359 347.073 142.199 346.641 141.879 346.332C141.559 346.012 141.133 345.852 140.599 345.852C140.162 345.852 139.778 345.943 139.447 346.124C139.117 346.305 138.765 346.604 138.391 347.02L137.431 346.252C137.869 345.708 138.354 345.303 138.887 345.036C139.421 344.769 140.018 344.636 140.679 344.636ZM146.553 355.5V344.476H152.409L152.233 345.692H148.073V349.452H151.673V350.652H148.073V355.5H146.553ZM156.717 344.476C158.381 344.476 159.714 344.865 160.717 345.644C161.73 346.412 162.237 347.841 162.237 349.932C162.237 351.969 161.73 353.409 160.717 354.252C159.714 355.084 158.493 355.5 157.053 355.5H154.413V344.476H156.717ZM155.933 345.692V354.3H157.165C158.189 354.3 159.021 353.985 159.661 353.356C160.301 352.727 160.621 351.585 160.621 349.932C160.621 348.769 160.455 347.879 160.125 347.26C159.794 346.631 159.373 346.215 158.861 346.012C158.349 345.799 157.746 345.692 157.053 345.692H155.933Z" fill="#001E33" fill-opacity="0.75"/>
<rect x="0.5" y="192.5" width="405" height="95" stroke="#003C66" stroke-opacity="0.1"/>
<rect x="24" y="208" width="64" height="64" rx="16" fill="#033468"/>
<path d="M108.594 221.026V233.5H105.642V221.026H108.594ZM115.001 223.636C115.661 223.636 116.255 223.732 116.783 223.924C117.311 224.116 117.809 224.41 118.277 224.806L117.053 226.498C116.453 226.042 115.847 225.814 115.235 225.814C114.599 225.814 114.119 226.048 113.795 226.516C113.471 226.984 113.309 227.74 113.309 228.784C113.309 229.792 113.471 230.506 113.795 230.926C114.119 231.346 114.587 231.556 115.199 231.556C115.523 231.556 115.817 231.508 116.081 231.412C116.345 231.304 116.663 231.136 117.035 230.908L118.277 232.672C117.329 233.428 116.255 233.806 115.055 233.806C114.083 233.806 113.243 233.602 112.535 233.194C111.827 232.774 111.281 232.192 110.897 231.448C110.513 230.692 110.321 229.81 110.321 228.802C110.321 227.794 110.513 226.9 110.897 226.12C111.281 225.34 111.827 224.734 112.535 224.302C113.243 223.858 114.065 223.636 115.001 223.636ZM123.263 223.636C124.727 223.636 125.873 224.086 126.701 224.986C127.529 225.874 127.943 227.122 127.943 228.73C127.943 229.75 127.751 230.644 127.367 231.412C126.995 232.168 126.455 232.756 125.747 233.176C125.051 233.596 124.223 233.806 123.263 233.806C121.811 233.806 120.665 233.362 119.825 232.474C118.997 231.574 118.583 230.32 118.583 228.712C118.583 227.692 118.769 226.804 119.141 226.048C119.525 225.28 120.065 224.686 120.761 224.266C121.469 223.846 122.303 223.636 123.263 223.636ZM123.263 225.724C122.687 225.724 122.255 225.97 121.967 226.462C121.679 226.942 121.535 227.692 121.535 228.712C121.535 229.756 121.673 230.518 121.949 230.998C122.237 231.478 122.675 231.718 123.263 231.718C123.839 231.718 124.271 231.478 124.559 230.998C124.847 230.506 124.991 229.75 124.991 228.73C124.991 227.686 124.847 226.924 124.559 226.444C124.283 225.964 123.851 225.724 123.263 225.724ZM135.233 223.636C136.061 223.636 136.709 223.888 137.177 224.392C137.645 224.896 137.879 225.604 137.879 226.516V233.5H135.035V227.002C135.035 226.522 134.957 226.192 134.801 226.012C134.657 225.82 134.435 225.724 134.135 225.724C133.559 225.724 133.007 226.138 132.479 226.966V233.5H129.635V223.942H132.119L132.317 225.076C132.725 224.596 133.163 224.236 133.631 223.996C134.111 223.756 134.645 223.636 135.233 223.636ZM150.055 221.332V233.5H147.265V224.104L144.655 225.706L143.413 223.816L147.517 221.332H150.055Z" fill="#001626" fill-opacity="0.9"/>
<path d="M112.048 252.348H110.832L110.384 255.788H111.456V256.892H110.224L109.888 259.5H108.64L108.976 256.892H106.512L106.176 259.5H104.928L105.264 256.892H104.24V255.788H105.424L105.872 252.348H104.832V251.228H106.016L106.336 248.796H107.584L107.264 251.228H109.728L110.048 248.796H111.296L110.976 251.228H112.048V252.348ZM109.136 255.788L109.584 252.348H107.12L106.672 255.788H109.136ZM116.745 248.636C117.929 248.636 118.82 249.111 119.417 250.06C120.025 250.999 120.329 252.364 120.329 254.156C120.329 255.948 120.025 257.319 119.417 258.268C118.82 259.217 117.929 259.692 116.745 259.692C115.561 259.692 114.665 259.217 114.057 258.268C113.46 257.319 113.161 255.948 113.161 254.156C113.161 252.364 113.46 250.999 114.057 250.06C114.665 249.111 115.561 248.636 116.745 248.636ZM116.745 249.804C116.052 249.804 115.535 250.145 115.193 250.828C114.863 251.511 114.697 252.62 114.697 254.156C114.697 255.692 114.863 256.807 115.193 257.5C115.535 258.183 116.052 258.524 116.745 258.524C117.428 258.524 117.94 258.183 118.281 257.5C118.623 256.807 118.793 255.692 118.793 254.156C118.793 252.631 118.623 251.527 118.281 250.844C117.94 250.151 117.428 249.804 116.745 249.804ZM124.647 248.636C125.308 248.636 125.874 248.759 126.343 249.004C126.823 249.249 127.186 249.58 127.431 249.996C127.687 250.412 127.815 250.865 127.815 251.356C127.815 252.007 127.623 252.545 127.239 252.972C126.866 253.388 126.364 253.671 125.735 253.82C126.45 253.884 127.031 254.14 127.479 254.588C127.927 255.036 128.151 255.644 128.151 256.412C128.151 257.031 128.002 257.591 127.703 258.092C127.404 258.593 126.978 258.988 126.423 259.276C125.868 259.553 125.228 259.692 124.503 259.692C123.852 259.692 123.255 259.575 122.711 259.34C122.167 259.095 121.692 258.732 121.287 258.252L122.167 257.436C122.519 257.799 122.876 258.065 123.239 258.236C123.612 258.407 124.018 258.492 124.455 258.492C125.127 258.492 125.655 258.305 126.039 257.932C126.423 257.548 126.615 257.036 126.615 256.396C126.615 255.692 126.434 255.196 126.071 254.908C125.708 254.62 125.18 254.476 124.487 254.476H123.687L123.863 253.34H124.407C124.962 253.34 125.42 253.175 125.783 252.844C126.156 252.513 126.343 252.049 126.343 251.452C126.343 250.951 126.183 250.556 125.863 250.268C125.543 249.969 125.111 249.82 124.567 249.82C124.151 249.82 123.767 249.895 123.415 250.044C123.074 250.193 122.722 250.439 122.359 250.78L121.591 249.9C122.498 249.057 123.516 248.636 124.647 248.636ZM132.631 248.636C133.293 248.636 133.858 248.759 134.327 249.004C134.807 249.249 135.17 249.58 135.415 249.996C135.671 250.412 135.799 250.865 135.799 251.356C135.799 252.007 135.607 252.545 135.223 252.972C134.85 253.388 134.349 253.671 133.719 253.82C134.434 253.884 135.015 254.14 135.463 254.588C135.911 255.036 136.135 255.644 136.135 256.412C136.135 257.031 135.986 257.591 135.687 258.092C135.389 258.593 134.962 258.988 134.407 259.276C133.853 259.553 133.213 259.692 132.487 259.692C131.837 259.692 131.239 259.575 130.695 259.34C130.151 259.095 129.677 258.732 129.271 258.252L130.151 257.436C130.503 257.799 130.861 258.065 131.223 258.236C131.597 258.407 132.002 258.492 132.439 258.492C133.111 258.492 133.639 258.305 134.023 257.932C134.407 257.548 134.599 257.036 134.599 256.396C134.599 255.692 134.418 255.196 134.055 254.908C133.693 254.62 133.165 254.476 132.471 254.476H131.671L131.847 253.34H132.391C132.946 253.34 133.405 253.175 133.767 252.844C134.141 252.513 134.327 252.049 134.327 251.452C134.327 250.951 134.167 250.556 133.847 250.268C133.527 249.969 133.095 249.82 132.551 249.82C132.135 249.82 131.751 249.895 131.399 250.044C131.058 250.193 130.706 250.439 130.343 250.78L129.575 249.9C130.482 249.057 131.501 248.636 132.631 248.636ZM144.97 255.692V256.86H143.578V259.5H142.154V256.86H137.578V255.804L140.794 248.636L142.026 249.148L139.13 255.692H142.17L142.298 252.812H143.578V255.692H144.97ZM150.381 252.46C150.925 252.46 151.421 252.588 151.869 252.844C152.317 253.1 152.674 253.484 152.941 253.996C153.208 254.508 153.341 255.132 153.341 255.868C153.341 256.625 153.186 257.297 152.877 257.884C152.578 258.46 152.168 258.908 151.645 259.228C151.133 259.537 150.562 259.692 149.933 259.692C148.685 259.692 147.773 259.233 147.197 258.316C146.621 257.388 146.333 256.108 146.333 254.476C146.333 253.313 146.493 252.295 146.813 251.42C147.144 250.535 147.613 249.852 148.221 249.372C148.829 248.881 149.549 248.636 150.381 248.636C151.192 248.636 151.928 248.855 152.589 249.292L152.013 250.268C151.512 249.959 150.962 249.804 150.365 249.804C149.597 249.804 148.989 250.172 148.541 250.908C148.093 251.644 147.848 252.631 147.805 253.868C148.466 252.929 149.325 252.46 150.381 252.46ZM149.933 258.524C150.552 258.524 151.026 258.289 151.357 257.82C151.688 257.351 151.853 256.716 151.853 255.916C151.853 254.391 151.277 253.628 150.125 253.628C149.656 253.628 149.224 253.761 148.829 254.028C148.434 254.284 148.098 254.641 147.821 255.1C147.853 256.273 148.034 257.137 148.365 257.692C148.706 258.247 149.229 258.524 149.933 258.524ZM159.824 253.756C161.328 254.364 162.08 255.324 162.08 256.636C162.08 257.223 161.92 257.751 161.6 258.22C161.291 258.679 160.854 259.041 160.288 259.308C159.723 259.564 159.083 259.692 158.368 259.692C157.643 259.692 157.003 259.564 156.448 259.308C155.894 259.052 155.462 258.695 155.152 258.236C154.854 257.777 154.704 257.255 154.704 256.668C154.704 256.007 154.88 255.452 155.232 255.004C155.595 254.556 156.123 254.183 156.816 253.884C156.251 253.596 155.83 253.249 155.552 252.844C155.286 252.428 155.152 251.943 155.152 251.388C155.152 250.812 155.302 250.316 155.6 249.9C155.91 249.484 156.31 249.169 156.8 248.956C157.302 248.743 157.835 248.636 158.4 248.636C158.955 248.636 159.478 248.737 159.968 248.94C160.47 249.143 160.875 249.452 161.184 249.868C161.494 250.273 161.648 250.764 161.648 251.34C161.648 251.873 161.499 252.332 161.2 252.716C160.902 253.1 160.443 253.447 159.824 253.756ZM158.4 249.74C157.846 249.74 157.403 249.884 157.072 250.172C156.752 250.46 156.592 250.871 156.592 251.404C156.592 251.916 156.747 252.305 157.056 252.572C157.376 252.839 157.883 253.084 158.576 253.308L158.848 253.404C159.328 253.127 159.675 252.833 159.888 252.524C160.102 252.215 160.208 251.836 160.208 251.388C160.208 250.887 160.048 250.487 159.728 250.188C159.419 249.889 158.976 249.74 158.4 249.74ZM158.384 258.524C159.046 258.524 159.568 258.353 159.952 258.012C160.347 257.671 160.544 257.217 160.544 256.652C160.544 256.268 160.47 255.948 160.32 255.692C160.171 255.425 159.931 255.196 159.6 255.004C159.27 254.801 158.806 254.599 158.208 254.396L157.808 254.252C157.275 254.508 156.88 254.833 156.624 255.228C156.368 255.612 156.24 256.092 156.24 256.668C156.24 257.255 156.432 257.713 156.816 258.044C157.2 258.364 157.723 258.524 158.384 258.524Z" fill="#001E33" fill-opacity="0.75"/>
<rect x="0.5" y="96.5" width="405" height="95" stroke="#003C66" stroke-opacity="0.1"/>
<rect x="24" y="112" width="64" height="64" rx="16" fill="#F7F7F7"/>
<rect x="24.5" y="112.5" width="63" height="63" rx="15.5" stroke="#003C66" stroke-opacity="0.1"/>
<path d="M111.839 130.894C112.667 131.05 113.339 131.356 113.855 131.812C114.383 132.268 114.647 132.952 114.647 133.864C114.647 135.196 114.167 136.138 113.207 136.69C112.259 137.23 110.927 137.5 109.211 137.5H105.197V125.026H108.725C110.477 125.026 111.815 125.278 112.739 125.782C113.663 126.274 114.125 127.084 114.125 128.212C114.125 128.944 113.903 129.538 113.459 129.994C113.027 130.438 112.487 130.738 111.839 130.894ZM108.149 127.114V130.012H109.247C110.495 130.012 111.119 129.508 111.119 128.5C111.119 127.996 110.951 127.642 110.615 127.438C110.279 127.222 109.745 127.114 109.013 127.114H108.149ZM109.229 135.358C110.009 135.358 110.597 135.244 110.993 135.016C111.401 134.776 111.605 134.338 111.605 133.702C111.605 132.55 110.885 131.974 109.445 131.974H108.149V135.358H109.229ZM123.849 134.728C123.849 135.088 123.897 135.352 123.993 135.52C124.101 135.688 124.269 135.814 124.497 135.898L123.903 137.752C123.315 137.704 122.835 137.578 122.463 137.374C122.091 137.158 121.803 136.822 121.599 136.366C120.975 137.326 120.015 137.806 118.719 137.806C117.771 137.806 117.015 137.53 116.451 136.978C115.887 136.426 115.605 135.706 115.605 134.818C115.605 133.774 115.989 132.976 116.757 132.424C117.525 131.872 118.635 131.596 120.087 131.596H121.059V131.182C121.059 130.618 120.939 130.234 120.699 130.03C120.459 129.814 120.039 129.706 119.439 129.706C119.127 129.706 118.749 129.754 118.305 129.85C117.861 129.934 117.405 130.054 116.937 130.21L116.289 128.338C116.889 128.11 117.501 127.936 118.125 127.816C118.761 127.696 119.349 127.636 119.889 127.636C121.257 127.636 122.259 127.918 122.895 128.482C123.531 129.046 123.849 129.892 123.849 131.02V134.728ZM119.547 135.772C120.195 135.772 120.699 135.466 121.059 134.854V133.162H120.357C119.709 133.162 119.223 133.276 118.899 133.504C118.587 133.732 118.431 134.086 118.431 134.566C118.431 134.95 118.527 135.25 118.719 135.466C118.923 135.67 119.199 135.772 119.547 135.772ZM130.254 127.636C130.914 127.636 131.508 127.732 132.036 127.924C132.564 128.116 133.062 128.41 133.53 128.806L132.306 130.498C131.706 130.042 131.1 129.814 130.488 129.814C129.852 129.814 129.372 130.048 129.048 130.516C128.724 130.984 128.562 131.74 128.562 132.784C128.562 133.792 128.724 134.506 129.048 134.926C129.372 135.346 129.84 135.556 130.452 135.556C130.776 135.556 131.07 135.508 131.334 135.412C131.598 135.304 131.916 135.136 132.288 134.908L133.53 136.672C132.582 137.428 131.508 137.806 130.308 137.806C129.336 137.806 128.496 137.602 127.788 137.194C127.08 136.774 126.534 136.192 126.15 135.448C125.766 134.692 125.574 133.81 125.574 132.802C125.574 131.794 125.766 130.9 126.15 130.12C126.534 129.34 127.08 128.734 127.788 128.302C128.496 127.858 129.318 127.636 130.254 127.636ZM137.571 123.838V137.5H134.727V124.144L137.571 123.838ZM143.475 127.942L140.577 132.136L143.709 137.5H140.505L137.661 132.28L140.577 127.942H143.475ZM153.303 128.5C152.679 128.752 151.761 128.878 150.549 128.878C151.173 129.142 151.629 129.466 151.917 129.85C152.205 130.234 152.349 130.732 152.349 131.344C152.349 131.956 152.187 132.508 151.863 133C151.539 133.48 151.071 133.858 150.459 134.134C149.859 134.41 149.151 134.548 148.335 134.548C147.951 134.548 147.585 134.512 147.237 134.44C147.141 134.488 147.063 134.566 147.003 134.674C146.955 134.77 146.931 134.872 146.931 134.98C146.931 135.16 146.997 135.304 147.129 135.412C147.273 135.508 147.555 135.556 147.975 135.556H149.415C150.147 135.556 150.789 135.676 151.341 135.916C151.893 136.156 152.319 136.486 152.619 136.906C152.919 137.326 153.069 137.8 153.069 138.328C153.069 139.324 152.637 140.098 151.773 140.65C150.921 141.214 149.685 141.496 148.065 141.496C146.901 141.496 145.983 141.37 145.311 141.118C144.639 140.878 144.165 140.536 143.889 140.092C143.625 139.648 143.493 139.09 143.493 138.418H146.049C146.049 138.706 146.103 138.934 146.211 139.102C146.331 139.27 146.541 139.396 146.841 139.48C147.141 139.564 147.573 139.606 148.137 139.606C148.917 139.606 149.457 139.51 149.757 139.318C150.057 139.138 150.207 138.874 150.207 138.526C150.207 138.238 150.093 138.01 149.865 137.842C149.637 137.674 149.295 137.59 148.839 137.59H147.453C146.469 137.59 145.731 137.416 145.239 137.068C144.759 136.708 144.519 136.252 144.519 135.7C144.519 135.352 144.621 135.016 144.825 134.692C145.029 134.356 145.305 134.08 145.653 133.864C145.053 133.54 144.615 133.162 144.339 132.73C144.075 132.286 143.943 131.752 143.943 131.128C143.943 130.06 144.327 129.214 145.095 128.59C145.863 127.954 146.877 127.636 148.137 127.636C149.097 127.66 149.907 127.564 150.567 127.348C151.239 127.132 151.929 126.814 152.637 126.394L153.303 128.5ZM148.209 129.508C147.765 129.508 147.411 129.652 147.147 129.94C146.895 130.216 146.769 130.6 146.769 131.092C146.769 131.608 146.895 132.01 147.147 132.298C147.411 132.574 147.765 132.712 148.209 132.712C148.677 132.712 149.031 132.574 149.271 132.298C149.523 132.022 149.649 131.608 149.649 131.056C149.649 130.024 149.169 129.508 148.209 129.508ZM159.599 127.672C159.947 127.672 160.265 127.714 160.553 127.798L160.103 130.552C159.743 130.468 159.455 130.426 159.239 130.426C158.675 130.426 158.243 130.624 157.943 131.02C157.655 131.404 157.427 131.986 157.259 132.766V137.5H154.415V127.942H156.899L157.133 129.796C157.349 129.136 157.673 128.62 158.105 128.248C158.549 127.864 159.047 127.672 159.599 127.672ZM165.235 127.636C166.699 127.636 167.845 128.086 168.673 128.986C169.501 129.874 169.915 131.122 169.915 132.73C169.915 133.75 169.723 134.644 169.339 135.412C168.967 136.168 168.427 136.756 167.719 137.176C167.023 137.596 166.195 137.806 165.235 137.806C163.783 137.806 162.637 137.362 161.797 136.474C160.969 135.574 160.555 134.32 160.555 132.712C160.555 131.692 160.741 130.804 161.113 130.048C161.497 129.28 162.037 128.686 162.733 128.266C163.441 127.846 164.275 127.636 165.235 127.636ZM165.235 129.724C164.659 129.724 164.227 129.97 163.939 130.462C163.651 130.942 163.507 131.692 163.507 132.712C163.507 133.756 163.645 134.518 163.921 134.998C164.209 135.478 164.647 135.718 165.235 135.718C165.811 135.718 166.243 135.478 166.531 134.998C166.819 134.506 166.963 133.75 166.963 132.73C166.963 131.686 166.819 130.924 166.531 130.444C166.255 129.964 165.823 129.724 165.235 129.724ZM179.67 137.5H177.204L177.078 136.294C176.382 137.302 175.416 137.806 174.18 137.806C173.304 137.806 172.638 137.542 172.182 137.014C171.738 136.486 171.516 135.748 171.516 134.8V127.942H174.36V134.44C174.36 134.908 174.432 135.238 174.576 135.43C174.732 135.61 174.966 135.7 175.278 135.7C175.878 135.7 176.394 135.328 176.826 134.584V127.942H179.67V137.5ZM187.505 127.636C188.333 127.636 188.981 127.888 189.449 128.392C189.917 128.896 190.151 129.604 190.151 130.516V137.5H187.307V131.002C187.307 130.522 187.229 130.192 187.073 130.012C186.929 129.82 186.707 129.724 186.407 129.724C185.831 129.724 185.279 130.138 184.751 130.966V137.5H181.907V127.942H184.391L184.589 129.076C184.997 128.596 185.435 128.236 185.903 127.996C186.383 127.756 186.917 127.636 187.505 127.636ZM200.864 124.144V137.5H198.344L198.2 136.384C197.528 137.332 196.622 137.806 195.482 137.806C194.294 137.806 193.388 137.35 192.764 136.438C192.152 135.526 191.846 134.278 191.846 132.694C191.846 131.722 192.008 130.852 192.332 130.084C192.656 129.316 193.112 128.716 193.7 128.284C194.3 127.852 194.984 127.636 195.752 127.636C196.664 127.636 197.42 127.936 198.02 128.536V123.838L200.864 124.144ZM196.364 135.718C197.024 135.718 197.576 135.358 198.02 134.638V130.516C197.792 130.24 197.558 130.036 197.318 129.904C197.09 129.772 196.826 129.706 196.526 129.706C195.998 129.706 195.578 129.952 195.266 130.444C194.954 130.936 194.798 131.692 194.798 132.712C194.798 133.828 194.93 134.608 195.194 135.052C195.47 135.496 195.86 135.718 196.364 135.718Z" fill="#001626" fill-opacity="0.9"/>
<path d="M112.048 156.348H110.832L110.384 159.788H111.456V160.892H110.224L109.888 163.5H108.64L108.976 160.892H106.512L106.176 163.5H104.928L105.264 160.892H104.24V159.788H105.424L105.872 156.348H104.832V155.228H106.016L106.336 152.796H107.584L107.264 155.228H109.728L110.048 152.796H111.296L110.976 155.228H112.048V156.348ZM109.136 159.788L109.584 156.348H107.12L106.672 159.788H109.136ZM113.881 163.5V152.476H119.737L119.561 153.692H115.401V157.452H119.001V158.652H115.401V163.5H113.881ZM126.765 152.796V153.9L122.765 163.66L121.421 163.212L125.277 153.996H120.541V152.796H126.765ZM128.85 163.5V152.476H134.706L134.53 153.692H130.37V157.452H133.97V158.652H130.37V163.5H128.85ZM141.733 152.796V153.9L137.733 163.66L136.389 163.212L140.245 153.996H135.509V152.796H141.733ZM143.819 163.5V152.476H149.675L149.499 153.692H145.339V157.452H148.939V158.652H145.339V163.5H143.819ZM156.702 152.796V153.9L152.702 163.66L151.358 163.212L155.214 153.996H150.478V152.796H156.702Z" fill="#001E33" fill-opacity="0.75"/>
<rect x="0.5" y="0.5" width="405" height="95" stroke="#003C66" stroke-opacity="0.1"/>
<rect x="24" y="16" width="64" height="64" rx="16" fill="#DBDBDB"/>
<path d="M112.187 34.894C113.015 35.05 113.687 35.356 114.203 35.812C114.731 36.268 114.995 36.952 114.995 37.864C114.995 39.196 114.515 40.138 113.555 40.69C112.607 41.23 111.275 41.5 109.559 41.5H105.545V29.026H109.073C110.825 29.026 112.163 29.278 113.087 29.782C114.011 30.274 114.473 31.084 114.473 32.212C114.473 32.944 114.251 33.538 113.807 33.994C113.375 34.438 112.835 34.738 112.187 34.894ZM108.497 31.114V34.012H109.595C110.843 34.012 111.467 33.508 111.467 32.5C111.467 31.996 111.299 31.642 110.963 31.438C110.627 31.222 110.093 31.114 109.361 31.114H108.497ZM109.577 39.358C110.357 39.358 110.945 39.244 111.341 39.016C111.749 38.776 111.953 38.338 111.953 37.702C111.953 36.55 111.233 35.974 109.793 35.974H108.497V39.358H109.577ZM120.74 31.636C122.204 31.636 123.35 32.086 124.178 32.986C125.006 33.874 125.42 35.122 125.42 36.73C125.42 37.75 125.228 38.644 124.844 39.412C124.472 40.168 123.932 40.756 123.224 41.176C122.528 41.596 121.7 41.806 120.74 41.806C119.288 41.806 118.142 41.362 117.302 40.474C116.474 39.574 116.06 38.32 116.06 36.712C116.06 35.692 116.246 34.804 116.618 34.048C117.002 33.28 117.542 32.686 118.238 32.266C118.946 31.846 119.78 31.636 120.74 31.636ZM120.74 33.724C120.164 33.724 119.732 33.97 119.444 34.462C119.156 34.942 119.012 35.692 119.012 36.712C119.012 37.756 119.15 38.518 119.426 38.998C119.714 39.478 120.152 39.718 120.74 39.718C121.316 39.718 121.748 39.478 122.036 38.998C122.324 38.506 122.468 37.75 122.468 36.73C122.468 35.686 122.324 34.924 122.036 34.444C121.76 33.964 121.328 33.724 120.74 33.724ZM132.296 31.672C132.644 31.672 132.962 31.714 133.25 31.798L132.8 34.552C132.44 34.468 132.152 34.426 131.936 34.426C131.372 34.426 130.94 34.624 130.64 35.02C130.352 35.404 130.124 35.986 129.956 36.766V41.5H127.112V31.942H129.596L129.83 33.796C130.046 33.136 130.37 32.62 130.802 32.248C131.246 31.864 131.744 31.672 132.296 31.672ZM142.36 28.144V41.5H139.84L139.696 40.384C139.024 41.332 138.118 41.806 136.978 41.806C135.79 41.806 134.884 41.35 134.26 40.438C133.648 39.526 133.342 38.278 133.342 36.694C133.342 35.722 133.504 34.852 133.828 34.084C134.152 33.316 134.608 32.716 135.196 32.284C135.796 31.852 136.48 31.636 137.248 31.636C138.16 31.636 138.916 31.936 139.516 32.536V27.838L142.36 28.144ZM137.86 39.718C138.52 39.718 139.072 39.358 139.516 38.638V34.516C139.288 34.24 139.054 34.036 138.814 33.904C138.586 33.772 138.322 33.706 138.022 33.706C137.494 33.706 137.074 33.952 136.762 34.444C136.45 34.936 136.294 35.692 136.294 36.712C136.294 37.828 136.426 38.608 136.69 39.052C136.966 39.496 137.356 39.718 137.86 39.718ZM152.919 36.532C152.919 36.928 152.901 37.27 152.865 37.558H146.943C147.039 38.362 147.267 38.926 147.627 39.25C147.987 39.574 148.485 39.736 149.121 39.736C149.505 39.736 149.877 39.67 150.237 39.538C150.597 39.394 150.987 39.178 151.407 38.89L152.577 40.474C151.461 41.362 150.219 41.806 148.851 41.806C147.303 41.806 146.115 41.35 145.287 40.438C144.459 39.526 144.045 38.302 144.045 36.766C144.045 35.794 144.219 34.924 144.567 34.156C144.915 33.376 145.425 32.764 146.097 32.32C146.769 31.864 147.573 31.636 148.509 31.636C149.889 31.636 150.969 32.068 151.749 32.932C152.529 33.796 152.919 34.996 152.919 36.532ZM150.129 35.722C150.105 34.258 149.589 33.526 148.581 33.526C148.089 33.526 147.705 33.706 147.429 34.066C147.165 34.426 147.003 35.02 146.943 35.848H150.129V35.722ZM159.7 31.672C160.048 31.672 160.366 31.714 160.654 31.798L160.204 34.552C159.844 34.468 159.556 34.426 159.34 34.426C158.776 34.426 158.344 34.624 158.044 35.02C157.756 35.404 157.528 35.986 157.36 36.766V41.5H154.516V31.942H157L157.234 33.796C157.45 33.136 157.774 32.62 158.206 32.248C158.65 31.864 159.148 31.672 159.7 31.672Z" fill="#001626" fill-opacity="0.9"/>
<path d="M112.048 60.348H110.832L110.384 63.788H111.456V64.892H110.224L109.888 67.5H108.64L108.976 64.892H106.512L106.176 67.5H104.928L105.264 64.892H104.24V63.788H105.424L105.872 60.348H104.832V59.228H106.016L106.336 56.796H107.584L107.264 59.228H109.728L110.048 56.796H111.296L110.976 59.228H112.048V60.348ZM109.136 63.788L109.584 60.348H107.12L106.672 63.788H109.136ZM116.185 56.476C117.849 56.476 119.183 56.8653 120.185 57.644C121.199 58.412 121.705 59.8413 121.705 61.932C121.705 63.9693 121.199 65.4093 120.185 66.252C119.183 67.084 117.961 67.5 116.521 67.5H113.881V56.476H116.185ZM115.401 57.692V66.3H116.633C117.657 66.3 118.489 65.9853 119.129 65.356C119.769 64.7267 120.089 63.5853 120.089 61.932C120.089 60.7693 119.924 59.8787 119.593 59.26C119.263 58.6307 118.841 58.2147 118.329 58.012C117.817 57.7987 117.215 57.692 116.521 57.692H115.401ZM129.042 61.676C129.799 61.804 130.413 62.0707 130.882 62.476C131.351 62.8813 131.586 63.5107 131.586 64.364C131.586 66.4547 130.13 67.5 127.218 67.5H124.178V56.476H126.786C128.183 56.476 129.25 56.7053 129.986 57.164C130.733 57.6227 131.106 58.3213 131.106 59.26C131.106 59.9 130.903 60.4333 130.498 60.86C130.103 61.2867 129.618 61.5587 129.042 61.676ZM125.698 57.676V61.148H127.362C128.002 61.148 128.525 60.9933 128.93 60.684C129.346 60.3747 129.554 59.9373 129.554 59.372C129.554 58.732 129.335 58.2893 128.898 58.044C128.471 57.7987 127.821 57.676 126.946 57.676H125.698ZM127.218 66.284C128.114 66.284 128.797 66.1507 129.266 65.884C129.746 65.6173 129.986 65.1107 129.986 64.364C129.986 63.6387 129.757 63.116 129.298 62.796C128.839 62.476 128.242 62.316 127.506 62.316H125.698V66.284H127.218ZM136.217 56.476C137.881 56.476 139.214 56.8653 140.217 57.644C141.23 58.412 141.737 59.8413 141.737 61.932C141.737 63.9693 141.23 65.4093 140.217 66.252C139.214 67.084 137.993 67.5 136.553 67.5H133.913V56.476H136.217ZM135.433 57.692V66.3H136.665C137.689 66.3 138.521 65.9853 139.161 65.356C139.801 64.7267 140.121 63.5853 140.121 61.932C140.121 60.7693 139.955 59.8787 139.625 59.26C139.294 58.6307 138.873 58.2147 138.361 58.012C137.849 57.7987 137.246 57.692 136.553 57.692H135.433ZM149.073 61.676C149.831 61.804 150.444 62.0707 150.913 62.476C151.383 62.8813 151.617 63.5107 151.617 64.364C151.617 66.4547 150.161 67.5 147.249 67.5H144.209V56.476H146.817C148.215 56.476 149.281 56.7053 150.017 57.164C150.764 57.6227 151.137 58.3213 151.137 59.26C151.137 59.9 150.935 60.4333 150.529 60.86C150.135 61.2867 149.649 61.5587 149.073 61.676ZM145.729 57.676V61.148H147.393C148.033 61.148 148.556 60.9933 148.961 60.684C149.377 60.3747 149.585 59.9373 149.585 59.372C149.585 58.732 149.367 58.2893 148.929 58.044C148.503 57.7987 147.852 57.676 146.977 57.676H145.729ZM147.249 66.284C148.145 66.284 148.828 66.1507 149.297 65.884C149.777 65.6173 150.017 65.1107 150.017 64.364C150.017 63.6387 149.788 63.116 149.329 62.796C148.871 62.476 148.273 62.316 147.537 62.316H145.729V66.284H147.249ZM156.248 56.476C157.912 56.476 159.245 56.8653 160.248 57.644C161.261 58.412 161.768 59.8413 161.768 61.932C161.768 63.9693 161.261 65.4093 160.248 66.252C159.245 67.084 158.024 67.5 156.584 67.5H153.944V56.476H156.248ZM155.464 57.692V66.3H156.696C157.72 66.3 158.552 65.9853 159.192 65.356C159.832 64.7267 160.152 63.5853 160.152 61.932C160.152 60.7693 159.986 59.8787 159.656 59.26C159.325 58.6307 158.904 58.2147 158.392 58.012C157.88 57.7987 157.277 57.692 156.584 57.692H155.464ZM169.105 61.676C169.862 61.804 170.475 62.0707 170.945 62.476C171.414 62.8813 171.649 63.5107 171.649 64.364C171.649 66.4547 170.193 67.5 167.281 67.5H164.241V56.476H166.849C168.246 56.476 169.313 56.7053 170.049 57.164C170.795 57.6227 171.169 58.3213 171.169 59.26C171.169 59.9 170.966 60.4333 170.561 60.86C170.166 61.2867 169.681 61.5587 169.105 61.676ZM165.761 57.676V61.148H167.425C168.065 61.148 168.587 60.9933 168.993 60.684C169.409 60.3747 169.617 59.9373 169.617 59.372C169.617 58.732 169.398 58.2893 168.961 58.044C168.534 57.7987 167.883 57.676 167.009 57.676H165.761ZM167.281 66.284C168.177 66.284 168.859 66.1507 169.329 65.884C169.809 65.6173 170.049 65.1107 170.049 64.364C170.049 63.6387 169.819 63.116 169.361 62.796C168.902 62.476 168.305 62.316 167.569 62.316H165.761V66.284H167.281Z" fill="#001E33" fill-opacity="0.75"/>
</svg>
