<svg width="403" height="710" viewBox="0 0 403 710" fill="none" xmlns="http://www.w3.org/2000/svg">
<g filter="url(#filter0_dd_239_1528)">
<path d="M6.47363 22.4297C6.47363 13.5931 13.6371 6.42969 22.4736 6.42969H380.527C389.363 6.42969 396.527 13.5931 396.527 22.4297V683.085C396.527 691.921 389.363 699.085 380.527 699.085H22.4736C13.6371 699.085 6.47363 691.921 6.47363 683.085V22.4297Z" fill="white" shape-rendering="crispEdges"/>
<path d="M22.4736 6.92969H380.527C389.087 6.92969 396.027 13.8693 396.027 22.4297V683.085C396.027 691.645 389.087 698.585 380.527 698.585H22.4736C13.9132 698.585 6.97363 691.645 6.97363 683.085V22.4297C6.97363 13.8693 13.9132 6.92969 22.4736 6.92969Z" stroke="#004166" stroke-opacity="0.1" shape-rendering="crispEdges"/>
<path d="M46.5856 45.4057L46.4256 46.7017H43.3696V56.4297H41.8496V46.7017H38.7136V45.4057H46.5856ZM53.7523 51.9657C53.7523 52.211 53.7416 52.4617 53.7203 52.7177H48.3443C48.4083 53.6457 48.6429 54.3284 49.0483 54.7657C49.4536 55.203 49.9763 55.4217 50.6163 55.4217C51.0216 55.4217 51.3949 55.363 51.7363 55.2457C52.0776 55.1284 52.4349 54.9417 52.8083 54.6857L53.4483 55.5657C52.5523 56.2697 51.5709 56.6217 50.5043 56.6217C49.3309 56.6217 48.4136 56.2377 47.7523 55.4697C47.1016 54.7017 46.7763 53.6457 46.7763 52.3017C46.7763 51.427 46.9149 50.6537 47.1923 49.9817C47.4803 49.299 47.8856 48.7657 48.4083 48.3817C48.9416 47.9977 49.5656 47.8057 50.2803 47.8057C51.4003 47.8057 52.2589 48.1737 52.8563 48.9097C53.4536 49.6457 53.7523 50.6644 53.7523 51.9657ZM52.2963 51.5337C52.2963 50.7017 52.1309 50.067 51.8003 49.6297C51.4696 49.1924 50.9736 48.9737 50.3123 48.9737C49.1069 48.9737 48.4509 49.859 48.3443 51.6297H52.2963V51.5337ZM61.6268 54.4617C61.6268 54.803 61.6854 55.059 61.8028 55.2297C61.9201 55.3897 62.0961 55.5124 62.3308 55.5977L61.9948 56.6217C61.5574 56.5684 61.2054 56.4457 60.9388 56.2537C60.6721 56.0617 60.4748 55.763 60.3468 55.3577C59.7814 56.2004 58.9441 56.6217 57.8348 56.6217C57.0028 56.6217 56.3468 56.387 55.8668 55.9177C55.3868 55.4484 55.1468 54.835 55.1468 54.0777C55.1468 53.1817 55.4668 52.4937 56.1068 52.0137C56.7574 51.5337 57.6748 51.2937 58.8588 51.2937H60.1548V50.6697C60.1548 50.0724 60.0108 49.6457 59.7228 49.3897C59.4348 49.1337 58.9921 49.0057 58.3948 49.0057C57.7761 49.0057 57.0188 49.155 56.1228 49.4537L55.7548 48.3817C56.8001 47.9977 57.7708 47.8057 58.6668 47.8057C59.6588 47.8057 60.4001 48.051 60.8908 48.5417C61.3814 49.0217 61.6268 49.7097 61.6268 50.6057V54.4617ZM58.1708 55.5177C59.0134 55.5177 59.6748 55.0804 60.1548 54.2057V52.2697H59.0508C57.4934 52.2697 56.7148 52.8457 56.7148 53.9977C56.7148 54.499 56.8374 54.8777 57.0828 55.1337C57.3281 55.3897 57.6908 55.5177 58.1708 55.5177ZM66.1736 56.6217C65.6296 56.6217 65.1976 56.4617 64.8776 56.1417C64.5683 55.811 64.4136 55.3524 64.4136 54.7657V44.6057L65.8856 44.4297V54.7337C65.8856 54.9684 65.923 55.139 65.9976 55.2457C66.083 55.3524 66.2216 55.4057 66.4136 55.4057C66.6163 55.4057 66.7976 55.3737 66.9576 55.3097L67.3416 56.3337C66.9896 56.5257 66.6003 56.6217 66.1736 56.6217Z" fill="#001826" fill-opacity="0.9"/>
<path d="M38.4736 92.4297C38.4736 90.2205 40.2645 88.4297 42.4736 88.4297H74.4736C76.6828 88.4297 78.4736 90.2205 78.4736 92.4297V124.43C78.4736 126.639 76.6828 128.43 74.4736 128.43H42.4736C40.2645 128.43 38.4736 126.639 38.4736 124.43V92.4297Z" fill="#145174"/>
<path d="M46.3775 139.064V148.43H45.0895V140.436L42.9055 141.766L42.3455 140.856L45.2435 139.064H46.3775ZM51.8181 138.924C52.8541 138.924 53.6334 139.339 54.1561 140.17C54.6881 140.991 54.9541 142.186 54.9541 143.754C54.9541 145.322 54.6881 146.521 54.1561 147.352C53.6334 148.182 52.8541 148.598 51.8181 148.598C50.7821 148.598 49.9981 148.182 49.4661 147.352C48.9434 146.521 48.6821 145.322 48.6821 143.754C48.6821 142.186 48.9434 140.991 49.4661 140.17C49.9981 139.339 50.7821 138.924 51.8181 138.924ZM51.8181 139.946C51.2114 139.946 50.7588 140.244 50.4601 140.842C50.1708 141.439 50.0261 142.41 50.0261 143.754C50.0261 145.098 50.1708 146.073 50.4601 146.68C50.7588 147.277 51.2114 147.576 51.8181 147.576C52.4154 147.576 52.8634 147.277 53.1621 146.68C53.4608 146.073 53.6101 145.098 53.6101 143.754C53.6101 142.419 53.4608 141.453 53.1621 140.856C52.8634 140.249 52.4154 139.946 51.8181 139.946ZM59.6248 138.924C60.6608 138.924 61.4401 139.339 61.9628 140.17C62.4948 140.991 62.7608 142.186 62.7608 143.754C62.7608 145.322 62.4948 146.521 61.9628 147.352C61.4401 148.182 60.6608 148.598 59.6248 148.598C58.5888 148.598 57.8048 148.182 57.2728 147.352C56.7501 146.521 56.4888 145.322 56.4888 143.754C56.4888 142.186 56.7501 140.991 57.2728 140.17C57.8048 139.339 58.5888 138.924 59.6248 138.924ZM59.6248 139.946C59.0181 139.946 58.5654 140.244 58.2668 140.842C57.9774 141.439 57.8328 142.41 57.8328 143.754C57.8328 145.098 57.9774 146.073 58.2668 146.68C58.5654 147.277 59.0181 147.576 59.6248 147.576C60.2221 147.576 60.6701 147.277 60.9688 146.68C61.2674 146.073 61.4168 145.098 61.4168 143.754C61.4168 142.419 61.2674 141.453 60.9688 140.856C60.6701 140.249 60.2221 139.946 59.6248 139.946ZM72.1074 138.476L73.0034 139.064L66.5214 148.864L65.6254 148.276L72.1074 138.476ZM66.4234 138.924C67.0954 138.924 67.6414 139.138 68.0614 139.568C68.4907 139.997 68.7054 140.571 68.7054 141.29C68.7054 142.008 68.4907 142.582 68.0614 143.012C67.6414 143.441 67.0954 143.656 66.4234 143.656C65.7607 143.656 65.2147 143.441 64.7854 143.012C64.3654 142.582 64.1554 142.008 64.1554 141.29C64.1554 140.571 64.3654 139.997 64.7854 139.568C65.2147 139.138 65.7607 138.924 66.4234 138.924ZM66.4234 139.792C66.0127 139.792 65.7187 139.932 65.5414 140.212C65.3734 140.492 65.2894 140.851 65.2894 141.29C65.2894 141.719 65.3734 142.078 65.5414 142.368C65.7187 142.648 66.0127 142.788 66.4234 142.788C67.1794 142.788 67.5574 142.288 67.5574 141.29C67.5574 140.86 67.4734 140.506 67.3054 140.226C67.1374 139.936 66.8434 139.792 66.4234 139.792ZM72.1914 143.866C72.8634 143.866 73.4094 144.08 73.8294 144.51C74.2494 144.939 74.4594 145.513 74.4594 146.232C74.4594 146.95 74.2494 147.524 73.8294 147.954C73.4094 148.383 72.8634 148.598 72.1914 148.598C71.5194 148.598 70.9687 148.383 70.5394 147.954C70.1194 147.524 69.9094 146.95 69.9094 146.232C69.9094 145.513 70.1194 144.939 70.5394 144.51C70.9687 144.08 71.5194 143.866 72.1914 143.866ZM72.1914 144.748C71.7807 144.748 71.4867 144.888 71.3094 145.168C71.1414 145.438 71.0574 145.793 71.0574 146.232C71.0574 146.661 71.1414 147.02 71.3094 147.31C71.4867 147.59 71.7807 147.73 72.1914 147.73C72.9474 147.73 73.3254 147.23 73.3254 146.232C73.3254 145.802 73.2414 145.448 73.0734 145.168C72.9054 144.888 72.6114 144.748 72.1914 144.748Z" fill="#002033" fill-opacity="0.65"/>
<path d="M38.4736 178.43C38.4736 176.221 40.2645 174.43 42.4736 174.43H74.4736C76.6828 174.43 78.4736 176.221 78.4736 178.43V210.43C78.4736 212.639 76.6828 214.43 74.4736 214.43H42.4736C40.2645 214.43 38.4736 212.639 38.4736 210.43V178.43Z" fill="#145174" fill-opacity="0.8"/>
<path d="M50.0416 229.404C51.3576 229.936 52.0156 230.776 52.0156 231.924C52.0156 232.437 51.8756 232.899 51.5956 233.31C51.325 233.711 50.9423 234.028 50.4476 234.262C49.953 234.486 49.393 234.598 48.7676 234.598C48.133 234.598 47.573 234.486 47.0876 234.262C46.6023 234.038 46.2243 233.725 45.9536 233.324C45.6923 232.922 45.5616 232.465 45.5616 231.952C45.5616 231.373 45.7156 230.888 46.0236 230.496C46.341 230.104 46.803 229.777 47.4096 229.516C46.915 229.264 46.5463 228.96 46.3036 228.606C46.0703 228.242 45.9536 227.817 45.9536 227.332C45.9536 226.828 46.0843 226.394 46.3456 226.03C46.6163 225.666 46.9663 225.39 47.3956 225.204C47.8343 225.017 48.301 224.924 48.7956 224.924C49.281 224.924 49.7383 225.012 50.1676 225.19C50.6063 225.367 50.961 225.638 51.2316 226.002C51.5023 226.356 51.6376 226.786 51.6376 227.29C51.6376 227.756 51.507 228.158 51.2456 228.494C50.9843 228.83 50.583 229.133 50.0416 229.404ZM48.7956 225.89C48.3103 225.89 47.923 226.016 47.6336 226.268C47.3536 226.52 47.2136 226.879 47.2136 227.346C47.2136 227.794 47.349 228.134 47.6196 228.368C47.8996 228.601 48.343 228.816 48.9496 229.012L49.1876 229.096C49.6076 228.853 49.911 228.596 50.0976 228.326C50.2843 228.055 50.3776 227.724 50.3776 227.332C50.3776 226.893 50.2376 226.543 49.9576 226.282C49.687 226.02 49.2996 225.89 48.7956 225.89ZM48.7816 233.576C49.3603 233.576 49.8176 233.426 50.1536 233.128C50.499 232.829 50.6716 232.432 50.6716 231.938C50.6716 231.602 50.6063 231.322 50.4756 231.098C50.345 230.864 50.135 230.664 49.8456 230.496C49.5563 230.318 49.1503 230.141 48.6276 229.964L48.2776 229.838C47.811 230.062 47.4656 230.346 47.2416 230.692C47.0176 231.028 46.9056 231.448 46.9056 231.952C46.9056 232.465 47.0736 232.866 47.4096 233.156C47.7456 233.436 48.203 233.576 48.7816 233.576ZM56.5486 224.924C57.5846 224.924 58.3639 225.339 58.8866 226.17C59.4186 226.991 59.6846 228.186 59.6846 229.754C59.6846 231.322 59.4186 232.521 58.8866 233.352C58.3639 234.182 57.5846 234.598 56.5486 234.598C55.5126 234.598 54.7286 234.182 54.1966 233.352C53.6739 232.521 53.4126 231.322 53.4126 229.754C53.4126 228.186 53.6739 226.991 54.1966 226.17C54.7286 225.339 55.5126 224.924 56.5486 224.924ZM56.5486 225.946C55.9419 225.946 55.4892 226.244 55.1906 226.842C54.9012 227.439 54.7566 228.41 54.7566 229.754C54.7566 231.098 54.9012 232.073 55.1906 232.68C55.4892 233.277 55.9419 233.576 56.5486 233.576C57.1459 233.576 57.5939 233.277 57.8926 232.68C58.1912 232.073 58.3406 231.098 58.3406 229.754C58.3406 228.419 58.1912 227.453 57.8926 226.856C57.5939 226.249 57.1459 225.946 56.5486 225.946ZM69.0312 224.476L69.9272 225.064L63.4452 234.864L62.5492 234.276L69.0312 224.476ZM63.3472 224.924C64.0192 224.924 64.5652 225.138 64.9852 225.568C65.4146 225.997 65.6292 226.571 65.6292 227.29C65.6292 228.008 65.4146 228.582 64.9852 229.012C64.5652 229.441 64.0192 229.656 63.3472 229.656C62.6846 229.656 62.1386 229.441 61.7092 229.012C61.2892 228.582 61.0792 228.008 61.0792 227.29C61.0792 226.571 61.2892 225.997 61.7092 225.568C62.1386 225.138 62.6846 224.924 63.3472 224.924ZM63.3472 225.792C62.9366 225.792 62.6426 225.932 62.4652 226.212C62.2972 226.492 62.2132 226.851 62.2132 227.29C62.2132 227.719 62.2972 228.078 62.4652 228.368C62.6426 228.648 62.9366 228.788 63.3472 228.788C64.1032 228.788 64.4812 228.288 64.4812 227.29C64.4812 226.86 64.3972 226.506 64.2292 226.226C64.0612 225.936 63.7672 225.792 63.3472 225.792ZM69.1152 229.866C69.7872 229.866 70.3332 230.08 70.7532 230.51C71.1732 230.939 71.3832 231.513 71.3832 232.232C71.3832 232.95 71.1732 233.524 70.7532 233.954C70.3332 234.383 69.7872 234.598 69.1152 234.598C68.4432 234.598 67.8926 234.383 67.4632 233.954C67.0432 233.524 66.8332 232.95 66.8332 232.232C66.8332 231.513 67.0432 230.939 67.4632 230.51C67.8926 230.08 68.4432 229.866 69.1152 229.866ZM69.1152 230.748C68.7046 230.748 68.4106 230.888 68.2332 231.168C68.0652 231.438 67.9812 231.793 67.9812 232.232C67.9812 232.661 68.0652 233.02 68.2332 233.31C68.4106 233.59 68.7046 233.73 69.1152 233.73C69.8712 233.73 70.2492 233.23 70.2492 232.232C70.2492 231.802 70.1652 231.448 69.9972 231.168C69.8292 230.888 69.5352 230.748 69.1152 230.748Z" fill="#002033" fill-opacity="0.65"/>
<path d="M38.4736 264.43C38.4736 262.221 40.2645 260.43 42.4736 260.43H74.4736C76.6828 260.43 78.4736 262.221 78.4736 264.43V296.43C78.4736 298.639 76.6828 300.43 74.4736 300.43H42.4736C40.2645 300.43 38.4736 298.639 38.4736 296.43V264.43Z" fill="#145174" fill-opacity="0.5"/>
<path d="M51.1603 312.072H47.5063V314.83C47.9823 314.587 48.4816 314.466 49.0043 314.466C49.8069 314.466 50.4509 314.732 50.9363 315.264C51.4216 315.786 51.6643 316.51 51.6643 317.434C51.6643 318.05 51.5289 318.6 51.2583 319.086C50.9876 319.562 50.6049 319.935 50.1103 320.206C49.6249 320.467 49.0603 320.598 48.4163 320.598C47.8469 320.598 47.3383 320.5 46.8903 320.304C46.4423 320.098 46.0269 319.8 45.6443 319.408L46.4003 318.666C46.6989 318.964 47.0069 319.188 47.3243 319.338C47.6416 319.478 48.0009 319.548 48.4023 319.548C48.9996 319.548 49.4663 319.361 49.8023 318.988C50.1476 318.614 50.3203 318.087 50.3203 317.406C50.3203 316.724 50.1663 316.23 49.8583 315.922C49.5503 315.614 49.1349 315.46 48.6123 315.46C48.3696 315.46 48.1456 315.488 47.9403 315.544C47.7349 315.59 47.5156 315.67 47.2823 315.782H46.2743V311.064H51.3423L51.1603 312.072ZM56.1999 310.924C57.2359 310.924 58.0153 311.339 58.5379 312.17C59.0699 312.991 59.3359 314.186 59.3359 315.754C59.3359 317.322 59.0699 318.521 58.5379 319.352C58.0153 320.182 57.2359 320.598 56.1999 320.598C55.1639 320.598 54.3799 320.182 53.8479 319.352C53.3253 318.521 53.0639 317.322 53.0639 315.754C53.0639 314.186 53.3253 312.991 53.8479 312.17C54.3799 311.339 55.1639 310.924 56.1999 310.924ZM56.1999 311.946C55.5933 311.946 55.1406 312.244 54.8419 312.842C54.5526 313.439 54.4079 314.41 54.4079 315.754C54.4079 317.098 54.5526 318.073 54.8419 318.68C55.1406 319.277 55.5933 319.576 56.1999 319.576C56.7973 319.576 57.2453 319.277 57.5439 318.68C57.8426 318.073 57.9919 317.098 57.9919 315.754C57.9919 314.419 57.8426 313.453 57.5439 312.856C57.2453 312.249 56.7973 311.946 56.1999 311.946ZM68.6826 310.476L69.5786 311.064L63.0966 320.864L62.2006 320.276L68.6826 310.476ZM62.9986 310.924C63.6706 310.924 64.2166 311.138 64.6366 311.568C65.0659 311.997 65.2806 312.571 65.2806 313.29C65.2806 314.008 65.0659 314.582 64.6366 315.012C64.2166 315.441 63.6706 315.656 62.9986 315.656C62.3359 315.656 61.7899 315.441 61.3606 315.012C60.9406 314.582 60.7306 314.008 60.7306 313.29C60.7306 312.571 60.9406 311.997 61.3606 311.568C61.7899 311.138 62.3359 310.924 62.9986 310.924ZM62.9986 311.792C62.5879 311.792 62.2939 311.932 62.1166 312.212C61.9486 312.492 61.8646 312.851 61.8646 313.29C61.8646 313.719 61.9486 314.078 62.1166 314.368C62.2939 314.648 62.5879 314.788 62.9986 314.788C63.7546 314.788 64.1326 314.288 64.1326 313.29C64.1326 312.86 64.0486 312.506 63.8806 312.226C63.7126 311.936 63.4186 311.792 62.9986 311.792ZM68.7666 315.866C69.4386 315.866 69.9846 316.08 70.4046 316.51C70.8246 316.939 71.0346 317.513 71.0346 318.232C71.0346 318.95 70.8246 319.524 70.4046 319.954C69.9846 320.383 69.4386 320.598 68.7666 320.598C68.0946 320.598 67.5439 320.383 67.1146 319.954C66.6946 319.524 66.4846 318.95 66.4846 318.232C66.4846 317.513 66.6946 316.939 67.1146 316.51C67.5439 316.08 68.0946 315.866 68.7666 315.866ZM68.7666 316.748C68.3559 316.748 68.0619 316.888 67.8846 317.168C67.7166 317.438 67.6326 317.793 67.6326 318.232C67.6326 318.661 67.7166 319.02 67.8846 319.31C68.0619 319.59 68.3559 319.73 68.7666 319.73C69.5226 319.73 69.9006 319.23 69.9006 318.232C69.9006 317.802 69.8166 317.448 69.6486 317.168C69.4806 316.888 69.1866 316.748 68.7666 316.748Z" fill="#002033" fill-opacity="0.65"/>
<path d="M38.4736 350.43C38.4736 348.221 40.2645 346.43 42.4736 346.43H74.4736C76.6828 346.43 78.4736 348.221 78.4736 350.43V382.43C78.4736 384.639 76.6828 386.43 74.4736 386.43H42.4736C40.2645 386.43 38.4736 384.639 38.4736 382.43V350.43Z" fill="#145174" fill-opacity="0.2"/>
<path d="M48.5133 396.924C49.0733 396.924 49.5633 397.036 49.9833 397.26C50.4126 397.484 50.744 397.792 50.9773 398.184C51.2106 398.566 51.3273 399 51.3273 399.486C51.3273 400.055 51.1966 400.601 50.9353 401.124C50.6833 401.646 50.2913 402.211 49.7593 402.818C49.2273 403.424 48.42 404.269 47.3373 405.352H51.5513L51.3973 406.43H45.8673V405.408C47.118 404.11 48.0046 403.163 48.5273 402.566C49.05 401.959 49.4233 401.432 49.6473 400.984C49.8713 400.536 49.9833 400.055 49.9833 399.542C49.9833 399.056 49.8433 398.678 49.5633 398.408C49.2833 398.128 48.91 397.988 48.4433 397.988C48.0606 397.988 47.7246 398.067 47.4353 398.226C47.146 398.384 46.838 398.646 46.5113 399.01L45.6713 398.338C46.054 397.862 46.4786 397.507 46.9453 397.274C47.412 397.04 47.9346 396.924 48.5133 396.924ZM56.1589 396.924C57.1949 396.924 57.9743 397.339 58.4969 398.17C59.0289 398.991 59.2949 400.186 59.2949 401.754C59.2949 403.322 59.0289 404.521 58.4969 405.352C57.9743 406.182 57.1949 406.598 56.1589 406.598C55.1229 406.598 54.3389 406.182 53.8069 405.352C53.2843 404.521 53.0229 403.322 53.0229 401.754C53.0229 400.186 53.2843 398.991 53.8069 398.17C54.3389 397.339 55.1229 396.924 56.1589 396.924ZM56.1589 397.946C55.5523 397.946 55.0996 398.244 54.8009 398.842C54.5116 399.439 54.3669 400.41 54.3669 401.754C54.3669 403.098 54.5116 404.073 54.8009 404.68C55.0996 405.277 55.5523 405.576 56.1589 405.576C56.7563 405.576 57.2043 405.277 57.5029 404.68C57.8016 404.073 57.9509 403.098 57.9509 401.754C57.9509 400.419 57.8016 399.453 57.5029 398.856C57.2043 398.249 56.7563 397.946 56.1589 397.946ZM68.6416 396.476L69.5376 397.064L63.0556 406.864L62.1596 406.276L68.6416 396.476ZM62.9576 396.924C63.6296 396.924 64.1756 397.138 64.5956 397.568C65.0249 397.997 65.2396 398.571 65.2396 399.29C65.2396 400.008 65.0249 400.582 64.5956 401.012C64.1756 401.441 63.6296 401.656 62.9576 401.656C62.2949 401.656 61.7489 401.441 61.3196 401.012C60.8996 400.582 60.6896 400.008 60.6896 399.29C60.6896 398.571 60.8996 397.997 61.3196 397.568C61.7489 397.138 62.2949 396.924 62.9576 396.924ZM62.9576 397.792C62.5469 397.792 62.2529 397.932 62.0756 398.212C61.9076 398.492 61.8236 398.851 61.8236 399.29C61.8236 399.719 61.9076 400.078 62.0756 400.368C62.2529 400.648 62.5469 400.788 62.9576 400.788C63.7136 400.788 64.0916 400.288 64.0916 399.29C64.0916 398.86 64.0076 398.506 63.8396 398.226C63.6716 397.936 63.3776 397.792 62.9576 397.792ZM68.7256 401.866C69.3976 401.866 69.9436 402.08 70.3636 402.51C70.7836 402.939 70.9936 403.513 70.9936 404.232C70.9936 404.95 70.7836 405.524 70.3636 405.954C69.9436 406.383 69.3976 406.598 68.7256 406.598C68.0536 406.598 67.5029 406.383 67.0736 405.954C66.6536 405.524 66.4436 404.95 66.4436 404.232C66.4436 403.513 66.6536 402.939 67.0736 402.51C67.5029 402.08 68.0536 401.866 68.7256 401.866ZM68.7256 402.748C68.3149 402.748 68.0209 402.888 67.8436 403.168C67.6756 403.438 67.5916 403.793 67.5916 404.232C67.5916 404.661 67.6756 405.02 67.8436 405.31C68.0209 405.59 68.3149 405.73 68.7256 405.73C69.4816 405.73 69.8596 405.23 69.8596 404.232C69.8596 403.802 69.7756 403.448 69.6076 403.168C69.4396 402.888 69.1456 402.748 68.7256 402.748Z" fill="#002033" fill-opacity="0.65"/>
<path d="M38.4736 436.43C38.4736 434.221 40.2645 432.43 42.4736 432.43H74.4736C76.6828 432.43 78.4736 434.221 78.4736 436.43V468.43C78.4736 470.639 76.6828 472.43 74.4736 472.43H42.4736C40.2645 472.43 38.4736 470.639 38.4736 468.43V436.43Z" fill="#145174" fill-opacity="0.05"/>
<path d="M38.9736 436.43C38.9736 434.497 40.5406 432.93 42.4736 432.93H74.4736C76.4066 432.93 77.9736 434.497 77.9736 436.43V468.43C77.9736 470.363 76.4066 471.93 74.4736 471.93H42.4736C40.5406 471.93 38.9736 470.363 38.9736 468.43V436.43Z" stroke="#004166" stroke-opacity="0.1"/>
<path d="M55.2003 484.072H51.5463V486.83C52.0223 486.587 52.5216 486.466 53.0443 486.466C53.847 486.466 54.491 486.732 54.9763 487.264C55.4616 487.786 55.7043 488.51 55.7043 489.434C55.7043 490.05 55.569 490.6 55.2983 491.086C55.0276 491.562 54.645 491.935 54.1503 492.206C53.665 492.467 53.1003 492.598 52.4563 492.598C51.887 492.598 51.3783 492.5 50.9303 492.304C50.4823 492.098 50.067 491.8 49.6843 491.408L50.4403 490.666C50.739 490.964 51.047 491.188 51.3643 491.338C51.6816 491.478 52.041 491.548 52.4423 491.548C53.0396 491.548 53.5063 491.361 53.8423 490.988C54.1876 490.614 54.3603 490.087 54.3603 489.406C54.3603 488.724 54.2063 488.23 53.8983 487.922C53.5903 487.614 53.175 487.46 52.6523 487.46C52.4096 487.46 52.1856 487.488 51.9803 487.544C51.775 487.59 51.5556 487.67 51.3223 487.782H50.3143V483.064H55.3823L55.2003 484.072ZM64.6425 482.476L65.5385 483.064L59.0565 492.864L58.1605 492.276L64.6425 482.476ZM58.9585 482.924C59.6305 482.924 60.1765 483.138 60.5965 483.568C61.0259 483.997 61.2405 484.571 61.2405 485.29C61.2405 486.008 61.0259 486.582 60.5965 487.012C60.1765 487.441 59.6305 487.656 58.9585 487.656C58.2959 487.656 57.7499 487.441 57.3205 487.012C56.9005 486.582 56.6905 486.008 56.6905 485.29C56.6905 484.571 56.9005 483.997 57.3205 483.568C57.7499 483.138 58.2959 482.924 58.9585 482.924ZM58.9585 483.792C58.5479 483.792 58.2539 483.932 58.0765 484.212C57.9085 484.492 57.8245 484.851 57.8245 485.29C57.8245 485.719 57.9085 486.078 58.0765 486.368C58.2539 486.648 58.5479 486.788 58.9585 486.788C59.7145 486.788 60.0925 486.288 60.0925 485.29C60.0925 484.86 60.0085 484.506 59.8405 484.226C59.6725 483.936 59.3785 483.792 58.9585 483.792ZM64.7265 487.866C65.3985 487.866 65.9445 488.08 66.3645 488.51C66.7845 488.939 66.9945 489.513 66.9945 490.232C66.9945 490.95 66.7845 491.524 66.3645 491.954C65.9445 492.383 65.3985 492.598 64.7265 492.598C64.0545 492.598 63.5039 492.383 63.0745 491.954C62.6545 491.524 62.4445 490.95 62.4445 490.232C62.4445 489.513 62.6545 488.939 63.0745 488.51C63.5039 488.08 64.0545 487.866 64.7265 487.866ZM64.7265 488.748C64.3159 488.748 64.0219 488.888 63.8445 489.168C63.6765 489.438 63.5925 489.793 63.5925 490.232C63.5925 490.661 63.6765 491.02 63.8445 491.31C64.0219 491.59 64.3159 491.73 64.7265 491.73C65.4825 491.73 65.8605 491.23 65.8605 490.232C65.8605 489.802 65.7765 489.448 65.6085 489.168C65.4405 488.888 65.1465 488.748 64.7265 488.748Z" fill="#002033" fill-opacity="0.65"/>
<path d="M98.3776 45.4057C100.042 45.4057 101.375 45.795 102.378 46.5737C103.391 47.3417 103.898 48.771 103.898 50.8617C103.898 52.899 103.391 54.339 102.378 55.1817C101.375 56.0137 100.154 56.4297 98.7136 56.4297H96.0736V45.4057H98.3776ZM97.5936 46.6217V55.2297H98.8256C99.8496 55.2297 100.682 54.915 101.322 54.2857C101.962 53.6564 102.282 52.515 102.282 50.8617C102.282 49.699 102.116 48.8084 101.786 48.1897C101.455 47.5604 101.034 47.1444 100.522 46.9417C100.01 46.7284 99.407 46.6217 98.7136 46.6217H97.5936ZM111.814 54.4617C111.814 54.803 111.873 55.059 111.99 55.2297C112.108 55.3897 112.284 55.5124 112.518 55.5977L112.182 56.6217C111.745 56.5684 111.393 56.4457 111.126 56.2537C110.86 56.0617 110.662 55.763 110.534 55.3577C109.969 56.2004 109.132 56.6217 108.022 56.6217C107.19 56.6217 106.534 56.387 106.054 55.9177C105.574 55.4484 105.334 54.835 105.334 54.0777C105.334 53.1817 105.654 52.4937 106.294 52.0137C106.945 51.5337 107.862 51.2937 109.046 51.2937H110.342V50.6697C110.342 50.0724 110.198 49.6457 109.91 49.3897C109.622 49.1337 109.18 49.0057 108.582 49.0057C107.964 49.0057 107.206 49.155 106.31 49.4537L105.942 48.3817C106.988 47.9977 107.958 47.8057 108.854 47.8057C109.846 47.8057 110.588 48.051 111.078 48.5417C111.569 49.0217 111.814 49.7097 111.814 50.6057V54.4617ZM108.358 55.5177C109.201 55.5177 109.862 55.0804 110.342 54.2057V52.2697H109.238C107.681 52.2697 106.902 52.8457 106.902 53.9977C106.902 54.499 107.025 54.8777 107.27 55.1337C107.516 55.3897 107.878 55.5177 108.358 55.5177ZM118.501 47.8057C118.8 47.8057 119.077 47.8377 119.333 47.9017L119.061 49.3417C118.805 49.2777 118.56 49.2457 118.325 49.2457C117.803 49.2457 117.381 49.4377 117.061 49.8217C116.741 50.2057 116.491 50.803 116.309 51.6137V56.4297H114.837V47.9977H116.101L116.245 49.7097C116.469 49.0804 116.773 48.6057 117.157 48.2857C117.541 47.9657 117.989 47.8057 118.501 47.8057ZM122.481 44.4297V56.4297H121.009V44.6057L122.481 44.4297ZM127.329 47.9977L124.225 51.7257L127.681 56.4297H125.921L122.577 51.8217L125.681 47.9977H127.329ZM137.287 47.8057C138.247 47.8057 139.01 48.195 139.575 48.9737C140.14 49.7417 140.423 50.819 140.423 52.2057C140.423 53.0804 140.29 53.8537 140.023 54.5257C139.756 55.187 139.372 55.7044 138.871 56.0777C138.37 56.4404 137.783 56.6217 137.111 56.6217C136.226 56.6217 135.479 56.2484 134.871 55.5017L134.727 56.4297H133.431V44.6057L134.903 44.4297V49.0537C135.511 48.2217 136.306 47.8057 137.287 47.8057ZM136.759 55.4537C137.41 55.4537 137.916 55.1924 138.279 54.6697C138.652 54.1364 138.839 53.315 138.839 52.2057C138.839 51.0644 138.668 50.243 138.327 49.7417C137.986 49.2297 137.5 48.9737 136.871 48.9737C136.124 48.9737 135.468 49.411 134.903 50.2857V54.3177C135.127 54.6697 135.399 54.947 135.719 55.1497C136.05 55.3524 136.396 55.4537 136.759 55.4537ZM144.611 56.6217C144.067 56.6217 143.635 56.4617 143.315 56.1417C143.006 55.811 142.851 55.3524 142.851 54.7657V44.6057L144.323 44.4297V54.7337C144.323 54.9684 144.36 55.139 144.435 55.2457C144.52 55.3524 144.659 55.4057 144.851 55.4057C145.054 55.4057 145.235 55.3737 145.395 55.3097L145.779 56.3337C145.427 56.5257 145.038 56.6217 144.611 56.6217ZM153.891 56.4297H152.627L152.515 55.1177C152.195 55.6404 151.827 56.0244 151.411 56.2697C150.995 56.5044 150.488 56.6217 149.891 56.6217C149.155 56.6217 148.579 56.3977 148.163 55.9497C147.747 55.5017 147.539 54.867 147.539 54.0457V47.9977H149.011V53.8857C149.011 54.4617 149.112 54.8724 149.315 55.1177C149.517 55.3524 149.848 55.4697 150.307 55.4697C151.128 55.4697 151.832 54.9844 152.419 54.0137V47.9977H153.891V56.4297ZM163.299 51.9657C163.299 52.211 163.288 52.4617 163.267 52.7177H157.891C157.955 53.6457 158.19 54.3284 158.595 54.7657C159 55.203 159.523 55.4217 160.163 55.4217C160.568 55.4217 160.942 55.363 161.283 55.2457C161.624 55.1284 161.982 54.9417 162.355 54.6857L162.995 55.5657C162.099 56.2697 161.118 56.6217 160.051 56.6217C158.878 56.6217 157.96 56.2377 157.299 55.4697C156.648 54.7017 156.323 53.6457 156.323 52.3017C156.323 51.427 156.462 50.6537 156.739 49.9817C157.027 49.299 157.432 48.7657 157.955 48.3817C158.488 47.9977 159.112 47.8057 159.827 47.8057C160.947 47.8057 161.806 48.1737 162.403 48.9097C163 49.6457 163.299 50.6644 163.299 51.9657ZM161.843 51.5337C161.843 50.7017 161.678 50.067 161.347 49.6297C161.016 49.1924 160.52 48.9737 159.859 48.9737C158.654 48.9737 157.998 49.859 157.891 51.6297H161.843V51.5337Z" fill="#001826" fill-opacity="0.9"/>
<path d="M114.974 92.4297C114.974 90.2205 116.764 88.4297 118.974 88.4297H150.974C153.183 88.4297 154.974 90.2205 154.974 92.4297V124.43C154.974 126.639 153.183 128.43 150.974 128.43H118.974C116.764 128.43 114.974 126.639 114.974 124.43V92.4297Z" fill="#001826" fill-opacity="0.9"/>
<path d="M125.235 138.924C126.225 138.924 126.976 139.25 127.489 139.904C128.003 140.548 128.259 141.434 128.259 142.564C128.259 143.842 128.087 144.874 127.741 145.658C127.396 146.432 126.869 147.053 126.159 147.52C125.45 147.977 124.489 148.383 123.275 148.738L122.981 147.772C124.232 147.417 125.189 146.936 125.851 146.33C126.523 145.723 126.883 144.916 126.929 143.908C126.715 144.244 126.425 144.514 126.061 144.72C125.697 144.925 125.287 145.028 124.829 145.028C124.344 145.028 123.905 144.906 123.513 144.664C123.121 144.412 122.809 144.062 122.575 143.614C122.351 143.156 122.239 142.624 122.239 142.018C122.239 141.383 122.375 140.832 122.645 140.366C122.916 139.899 123.275 139.544 123.723 139.302C124.181 139.05 124.685 138.924 125.235 138.924ZM125.095 144.02C125.833 144.02 126.453 143.632 126.957 142.858C126.976 141.822 126.845 141.08 126.565 140.632C126.295 140.174 125.861 139.946 125.263 139.946C124.713 139.946 124.288 140.128 123.989 140.492C123.691 140.856 123.541 141.374 123.541 142.046C123.541 142.699 123.681 143.194 123.961 143.53C124.241 143.856 124.619 144.02 125.095 144.02ZM132.871 138.924C133.907 138.924 134.686 139.339 135.209 140.17C135.741 140.991 136.007 142.186 136.007 143.754C136.007 145.322 135.741 146.521 135.209 147.352C134.686 148.182 133.907 148.598 132.871 148.598C131.835 148.598 131.051 148.182 130.519 147.352C129.996 146.521 129.735 145.322 129.735 143.754C129.735 142.186 129.996 140.991 130.519 140.17C131.051 139.339 131.835 138.924 132.871 138.924ZM132.871 139.946C132.264 139.946 131.812 140.244 131.513 140.842C131.224 141.439 131.079 142.41 131.079 143.754C131.079 145.098 131.224 146.073 131.513 146.68C131.812 147.277 132.264 147.576 132.871 147.576C133.468 147.576 133.916 147.277 134.215 146.68C134.514 146.073 134.663 145.098 134.663 143.754C134.663 142.419 134.514 141.453 134.215 140.856C133.916 140.249 133.468 139.946 132.871 139.946ZM145.353 138.476L146.249 139.064L139.767 148.864L138.871 148.276L145.353 138.476ZM139.669 138.924C140.341 138.924 140.887 139.138 141.307 139.568C141.737 139.997 141.951 140.571 141.951 141.29C141.951 142.008 141.737 142.582 141.307 143.012C140.887 143.441 140.341 143.656 139.669 143.656C139.007 143.656 138.461 143.441 138.031 143.012C137.611 142.582 137.401 142.008 137.401 141.29C137.401 140.571 137.611 139.997 138.031 139.568C138.461 139.138 139.007 138.924 139.669 138.924ZM139.669 139.792C139.259 139.792 138.965 139.932 138.787 140.212C138.619 140.492 138.535 140.851 138.535 141.29C138.535 141.719 138.619 142.078 138.787 142.368C138.965 142.648 139.259 142.788 139.669 142.788C140.425 142.788 140.803 142.288 140.803 141.29C140.803 140.86 140.719 140.506 140.551 140.226C140.383 139.936 140.089 139.792 139.669 139.792ZM145.437 143.866C146.109 143.866 146.655 144.08 147.075 144.51C147.495 144.939 147.705 145.513 147.705 146.232C147.705 146.95 147.495 147.524 147.075 147.954C146.655 148.383 146.109 148.598 145.437 148.598C144.765 148.598 144.215 148.383 143.785 147.954C143.365 147.524 143.155 146.95 143.155 146.232C143.155 145.513 143.365 144.939 143.785 144.51C144.215 144.08 144.765 143.866 145.437 143.866ZM145.437 144.748C145.027 144.748 144.733 144.888 144.555 145.168C144.387 145.438 144.303 145.793 144.303 146.232C144.303 146.661 144.387 147.02 144.555 147.31C144.733 147.59 145.027 147.73 145.437 147.73C146.193 147.73 146.571 147.23 146.571 146.232C146.571 145.802 146.487 145.448 146.319 145.168C146.151 144.888 145.857 144.748 145.437 144.748Z" fill="#002033" fill-opacity="0.65"/>
<path d="M114.974 178.43C114.974 176.221 116.764 174.43 118.974 174.43H150.974C153.183 174.43 154.974 176.221 154.974 178.43V210.43C154.974 212.639 153.183 214.43 150.974 214.43H118.974C116.764 214.43 114.974 212.639 114.974 210.43V178.43Z" fill="#002033" fill-opacity="0.65"/>
<path d="M128.609 225.064V226.03L125.109 234.57L123.933 234.178L127.307 226.114H123.163V225.064H128.609ZM134.708 226.072H131.054V228.83C131.53 228.587 132.029 228.466 132.552 228.466C133.355 228.466 133.999 228.732 134.484 229.264C134.969 229.786 135.212 230.51 135.212 231.434C135.212 232.05 135.077 232.6 134.806 233.086C134.535 233.562 134.153 233.935 133.658 234.206C133.173 234.467 132.608 234.598 131.964 234.598C131.395 234.598 130.886 234.5 130.438 234.304C129.99 234.098 129.575 233.8 129.192 233.408L129.948 232.666C130.247 232.964 130.555 233.188 130.872 233.338C131.189 233.478 131.549 233.548 131.95 233.548C132.547 233.548 133.014 233.361 133.35 232.988C133.695 232.614 133.868 232.087 133.868 231.406C133.868 230.724 133.714 230.23 133.406 229.922C133.098 229.614 132.683 229.46 132.16 229.46C131.917 229.46 131.693 229.488 131.488 229.544C131.283 229.59 131.063 229.67 130.83 229.782H129.822V225.064H134.89L134.708 226.072ZM144.15 224.476L145.046 225.064L138.564 234.864L137.668 234.276L144.15 224.476ZM138.466 224.924C139.138 224.924 139.684 225.138 140.104 225.568C140.534 225.997 140.748 226.571 140.748 227.29C140.748 228.008 140.534 228.582 140.104 229.012C139.684 229.441 139.138 229.656 138.466 229.656C137.804 229.656 137.258 229.441 136.828 229.012C136.408 228.582 136.198 228.008 136.198 227.29C136.198 226.571 136.408 225.997 136.828 225.568C137.258 225.138 137.804 224.924 138.466 224.924ZM138.466 225.792C138.056 225.792 137.762 225.932 137.584 226.212C137.416 226.492 137.332 226.851 137.332 227.29C137.332 227.719 137.416 228.078 137.584 228.368C137.762 228.648 138.056 228.788 138.466 228.788C139.222 228.788 139.6 228.288 139.6 227.29C139.6 226.86 139.516 226.506 139.348 226.226C139.18 225.936 138.886 225.792 138.466 225.792ZM144.234 229.866C144.906 229.866 145.452 230.08 145.872 230.51C146.292 230.939 146.502 231.513 146.502 232.232C146.502 232.95 146.292 233.524 145.872 233.954C145.452 234.383 144.906 234.598 144.234 234.598C143.562 234.598 143.012 234.383 142.582 233.954C142.162 233.524 141.952 232.95 141.952 232.232C141.952 231.513 142.162 230.939 142.582 230.51C143.012 230.08 143.562 229.866 144.234 229.866ZM144.234 230.748C143.824 230.748 143.53 230.888 143.352 231.168C143.184 231.438 143.1 231.793 143.1 232.232C143.1 232.661 143.184 233.02 143.352 233.31C143.53 233.59 143.824 233.73 144.234 233.73C144.99 233.73 145.368 233.23 145.368 232.232C145.368 231.802 145.284 231.448 145.116 231.168C144.948 230.888 144.654 230.748 144.234 230.748Z" fill="#002033" fill-opacity="0.65"/>
<path d="M114.974 264.43C114.974 262.221 116.764 260.43 118.974 260.43H150.974C153.183 260.43 154.974 262.221 154.974 264.43V296.43C154.974 298.639 153.183 300.43 150.974 300.43H118.974C116.764 300.43 114.974 298.639 114.974 296.43V264.43Z" fill="#001724" fill-opacity="0.55"/>
<path d="M127.66 312.072H124.006V314.83C124.482 314.587 124.982 314.466 125.504 314.466C126.307 314.466 126.951 314.732 127.436 315.264C127.922 315.786 128.164 316.51 128.164 317.434C128.164 318.05 128.029 318.6 127.758 319.086C127.488 319.562 127.105 319.935 126.61 320.206C126.125 320.467 125.56 320.598 124.916 320.598C124.347 320.598 123.838 320.5 123.39 320.304C122.942 320.098 122.527 319.8 122.144 319.408L122.9 318.666C123.199 318.964 123.507 319.188 123.824 319.338C124.142 319.478 124.501 319.548 124.902 319.548C125.5 319.548 125.966 319.361 126.302 318.988C126.648 318.614 126.82 318.087 126.82 317.406C126.82 316.724 126.666 316.23 126.358 315.922C126.05 315.614 125.635 315.46 125.112 315.46C124.87 315.46 124.646 315.488 124.44 315.544C124.235 315.59 124.016 315.67 123.782 315.782H122.774V311.064H127.842L127.66 312.072ZM132.7 310.924C133.736 310.924 134.515 311.339 135.038 312.17C135.57 312.991 135.836 314.186 135.836 315.754C135.836 317.322 135.57 318.521 135.038 319.352C134.515 320.182 133.736 320.598 132.7 320.598C131.664 320.598 130.88 320.182 130.348 319.352C129.825 318.521 129.564 317.322 129.564 315.754C129.564 314.186 129.825 312.991 130.348 312.17C130.88 311.339 131.664 310.924 132.7 310.924ZM132.7 311.946C132.093 311.946 131.641 312.244 131.342 312.842C131.053 313.439 130.908 314.41 130.908 315.754C130.908 317.098 131.053 318.073 131.342 318.68C131.641 319.277 132.093 319.576 132.7 319.576C133.297 319.576 133.745 319.277 134.044 318.68C134.343 318.073 134.492 317.098 134.492 315.754C134.492 314.419 134.343 313.453 134.044 312.856C133.745 312.249 133.297 311.946 132.7 311.946ZM145.183 310.476L146.079 311.064L139.597 320.864L138.701 320.276L145.183 310.476ZM139.499 310.924C140.171 310.924 140.717 311.138 141.137 311.568C141.566 311.997 141.781 312.571 141.781 313.29C141.781 314.008 141.566 314.582 141.137 315.012C140.717 315.441 140.171 315.656 139.499 315.656C138.836 315.656 138.29 315.441 137.861 315.012C137.441 314.582 137.231 314.008 137.231 313.29C137.231 312.571 137.441 311.997 137.861 311.568C138.29 311.138 138.836 310.924 139.499 310.924ZM139.499 311.792C139.088 311.792 138.794 311.932 138.617 312.212C138.449 312.492 138.365 312.851 138.365 313.29C138.365 313.719 138.449 314.078 138.617 314.368C138.794 314.648 139.088 314.788 139.499 314.788C140.255 314.788 140.633 314.288 140.633 313.29C140.633 312.86 140.549 312.506 140.381 312.226C140.213 311.936 139.919 311.792 139.499 311.792ZM145.267 315.866C145.939 315.866 146.485 316.08 146.905 316.51C147.325 316.939 147.535 317.513 147.535 318.232C147.535 318.95 147.325 319.524 146.905 319.954C146.485 320.383 145.939 320.598 145.267 320.598C144.595 320.598 144.044 320.383 143.615 319.954C143.195 319.524 142.985 318.95 142.985 318.232C142.985 317.513 143.195 316.939 143.615 316.51C144.044 316.08 144.595 315.866 145.267 315.866ZM145.267 316.748C144.856 316.748 144.562 316.888 144.385 317.168C144.217 317.438 144.133 317.793 144.133 318.232C144.133 318.661 144.217 319.02 144.385 319.31C144.562 319.59 144.856 319.73 145.267 319.73C146.023 319.73 146.401 319.23 146.401 318.232C146.401 317.802 146.317 317.448 146.149 317.168C145.981 316.888 145.687 316.748 145.267 316.748Z" fill="#002033" fill-opacity="0.65"/>
<path d="M114.974 350.43C114.974 348.221 116.764 346.43 118.974 346.43H150.974C153.183 346.43 154.974 348.221 154.974 350.43V382.43C154.974 384.639 153.183 386.43 150.974 386.43H118.974C116.764 386.43 114.974 384.639 114.974 382.43V350.43Z" fill="#004166" fill-opacity="0.1"/>
<path d="M126.781 397.064V406.43H125.493V398.436L123.309 399.766L122.749 398.856L125.647 397.064H126.781ZM132.221 396.924C133.257 396.924 134.037 397.339 134.559 398.17C135.091 398.991 135.357 400.186 135.357 401.754C135.357 403.322 135.091 404.521 134.559 405.352C134.037 406.182 133.257 406.598 132.221 406.598C131.185 406.598 130.401 406.182 129.869 405.352C129.347 404.521 129.085 403.322 129.085 401.754C129.085 400.186 129.347 398.991 129.869 398.17C130.401 397.339 131.185 396.924 132.221 396.924ZM132.221 397.946C131.615 397.946 131.162 398.244 130.863 398.842C130.574 399.439 130.429 400.41 130.429 401.754C130.429 403.098 130.574 404.073 130.863 404.68C131.162 405.277 131.615 405.576 132.221 405.576C132.819 405.576 133.267 405.277 133.565 404.68C133.864 404.073 134.013 403.098 134.013 401.754C134.013 400.419 133.864 399.453 133.565 398.856C133.267 398.249 132.819 397.946 132.221 397.946ZM144.704 396.476L145.6 397.064L139.118 406.864L138.222 406.276L144.704 396.476ZM139.02 396.924C139.692 396.924 140.238 397.138 140.658 397.568C141.087 397.997 141.302 398.571 141.302 399.29C141.302 400.008 141.087 400.582 140.658 401.012C140.238 401.441 139.692 401.656 139.02 401.656C138.357 401.656 137.811 401.441 137.382 401.012C136.962 400.582 136.752 400.008 136.752 399.29C136.752 398.571 136.962 397.997 137.382 397.568C137.811 397.138 138.357 396.924 139.02 396.924ZM139.02 397.792C138.609 397.792 138.315 397.932 138.138 398.212C137.97 398.492 137.886 398.851 137.886 399.29C137.886 399.719 137.97 400.078 138.138 400.368C138.315 400.648 138.609 400.788 139.02 400.788C139.776 400.788 140.154 400.288 140.154 399.29C140.154 398.86 140.07 398.506 139.902 398.226C139.734 397.936 139.44 397.792 139.02 397.792ZM144.788 401.866C145.46 401.866 146.006 402.08 146.426 402.51C146.846 402.939 147.056 403.513 147.056 404.232C147.056 404.95 146.846 405.524 146.426 405.954C146.006 406.383 145.46 406.598 144.788 406.598C144.116 406.598 143.565 406.383 143.136 405.954C142.716 405.524 142.506 404.95 142.506 404.232C142.506 403.513 142.716 402.939 143.136 402.51C143.565 402.08 144.116 401.866 144.788 401.866ZM144.788 402.748C144.377 402.748 144.083 402.888 143.906 403.168C143.738 403.438 143.654 403.793 143.654 404.232C143.654 404.661 143.738 405.02 143.906 405.31C144.083 405.59 144.377 405.73 144.788 405.73C145.544 405.73 145.922 405.23 145.922 404.232C145.922 403.802 145.838 403.448 145.67 403.168C145.502 402.888 145.208 402.748 144.788 402.748Z" fill="#002033" fill-opacity="0.65"/>
<path d="M114.974 436.43C114.974 434.221 116.764 432.43 118.974 432.43H150.974C153.183 432.43 154.974 434.221 154.974 436.43V468.43C154.974 470.639 153.183 472.43 150.974 472.43H118.974C116.764 472.43 114.974 470.639 114.974 468.43V436.43Z" fill="#005180" fill-opacity="0.04"/>
<path d="M115.474 436.43C115.474 434.497 117.041 432.93 118.974 432.93H150.974C152.907 432.93 154.474 434.497 154.474 436.43V468.43C154.474 470.363 152.907 471.93 150.974 471.93H118.974C117.041 471.93 115.474 470.363 115.474 468.43V436.43Z" stroke="#004166" stroke-opacity="0.1"/>
<path d="M132.773 489.098V490.12H131.555V492.43H130.309V490.12H126.305V489.196L129.119 482.924L130.197 483.372L127.663 489.098H130.323L130.435 486.578H131.555V489.098H132.773ZM141.218 482.476L142.114 483.064L135.632 492.864L134.736 492.276L141.218 482.476ZM135.534 482.924C136.206 482.924 136.752 483.138 137.172 483.568C137.601 483.997 137.816 484.571 137.816 485.29C137.816 486.008 137.601 486.582 137.172 487.012C136.752 487.441 136.206 487.656 135.534 487.656C134.871 487.656 134.325 487.441 133.896 487.012C133.476 486.582 133.266 486.008 133.266 485.29C133.266 484.571 133.476 483.997 133.896 483.568C134.325 483.138 134.871 482.924 135.534 482.924ZM135.534 483.792C135.123 483.792 134.829 483.932 134.652 484.212C134.484 484.492 134.4 484.851 134.4 485.29C134.4 485.719 134.484 486.078 134.652 486.368C134.829 486.648 135.123 486.788 135.534 486.788C136.29 486.788 136.668 486.288 136.668 485.29C136.668 484.86 136.584 484.506 136.416 484.226C136.248 483.936 135.954 483.792 135.534 483.792ZM141.302 487.866C141.974 487.866 142.52 488.08 142.94 488.51C143.36 488.939 143.57 489.513 143.57 490.232C143.57 490.95 143.36 491.524 142.94 491.954C142.52 492.383 141.974 492.598 141.302 492.598C140.63 492.598 140.079 492.383 139.65 491.954C139.23 491.524 139.02 490.95 139.02 490.232C139.02 489.513 139.23 488.939 139.65 488.51C140.079 488.08 140.63 487.866 141.302 487.866ZM141.302 488.748C140.891 488.748 140.597 488.888 140.42 489.168C140.252 489.438 140.168 489.793 140.168 490.232C140.168 490.661 140.252 491.02 140.42 491.31C140.597 491.59 140.891 491.73 141.302 491.73C142.058 491.73 142.436 491.23 142.436 490.232C142.436 489.802 142.352 489.448 142.184 489.168C142.016 488.888 141.722 488.748 141.302 488.748Z" fill="#002033" fill-opacity="0.65"/>
<path d="M114.974 522.43C114.974 520.221 116.764 518.43 118.974 518.43H150.974C153.183 518.43 154.974 520.221 154.974 522.43V554.43C154.974 556.639 153.183 558.43 150.974 558.43H118.974C116.764 558.43 114.974 556.639 114.974 554.43V522.43Z" fill="#005180" fill-opacity="0.02"/>
<path d="M115.474 522.43C115.474 520.497 117.041 518.93 118.974 518.93H150.974C152.907 518.93 154.474 520.497 154.474 522.43V554.43C154.474 556.363 152.907 557.93 150.974 557.93H118.974C117.041 557.93 115.474 556.363 115.474 554.43V522.43Z" stroke="#004166" stroke-opacity="0.1"/>
<path d="M128.917 568.924C129.477 568.924 129.967 569.036 130.387 569.26C130.816 569.484 131.147 569.792 131.381 570.184C131.614 570.566 131.731 571 131.731 571.486C131.731 572.055 131.6 572.601 131.339 573.124C131.087 573.646 130.695 574.211 130.163 574.818C129.631 575.424 128.823 576.269 127.741 577.352H131.955L131.801 578.43H126.271V577.408C127.521 576.11 128.408 575.163 128.931 574.566C129.453 573.959 129.827 573.432 130.051 572.984C130.275 572.536 130.387 572.055 130.387 571.542C130.387 571.056 130.247 570.678 129.967 570.408C129.687 570.128 129.313 569.988 128.847 569.988C128.464 569.988 128.128 570.067 127.839 570.226C127.549 570.384 127.241 570.646 126.915 571.01L126.075 570.338C126.457 569.862 126.882 569.507 127.349 569.274C127.815 569.04 128.338 568.924 128.917 568.924ZM141.238 568.476L142.134 569.064L135.652 578.864L134.756 578.276L141.238 568.476ZM135.554 568.924C136.226 568.924 136.772 569.138 137.192 569.568C137.622 569.997 137.836 570.571 137.836 571.29C137.836 572.008 137.622 572.582 137.192 573.012C136.772 573.441 136.226 573.656 135.554 573.656C134.892 573.656 134.346 573.441 133.916 573.012C133.496 572.582 133.286 572.008 133.286 571.29C133.286 570.571 133.496 569.997 133.916 569.568C134.346 569.138 134.892 568.924 135.554 568.924ZM135.554 569.792C135.144 569.792 134.85 569.932 134.672 570.212C134.504 570.492 134.42 570.851 134.42 571.29C134.42 571.719 134.504 572.078 134.672 572.368C134.85 572.648 135.144 572.788 135.554 572.788C136.31 572.788 136.688 572.288 136.688 571.29C136.688 570.86 136.604 570.506 136.436 570.226C136.268 569.936 135.974 569.792 135.554 569.792ZM141.322 573.866C141.994 573.866 142.54 574.08 142.96 574.51C143.38 574.939 143.59 575.513 143.59 576.232C143.59 576.95 143.38 577.524 142.96 577.954C142.54 578.383 141.994 578.598 141.322 578.598C140.65 578.598 140.1 578.383 139.67 577.954C139.25 577.524 139.04 576.95 139.04 576.232C139.04 575.513 139.25 574.939 139.67 574.51C140.1 574.08 140.65 573.866 141.322 573.866ZM141.322 574.748C140.912 574.748 140.618 574.888 140.44 575.168C140.272 575.438 140.188 575.793 140.188 576.232C140.188 576.661 140.272 577.02 140.44 577.31C140.618 577.59 140.912 577.73 141.322 577.73C142.078 577.73 142.456 577.23 142.456 576.232C142.456 575.802 142.372 575.448 142.204 575.168C142.036 574.888 141.742 574.748 141.322 574.748Z" fill="#002033" fill-opacity="0.65"/>
<path d="M223.29 45.4057L221.05 56.4297H219.098L217.066 47.1977L215.018 56.4297H213.114L210.874 45.4057H212.362L214.138 55.1017L216.266 45.4057H217.882L220.058 55.1017L221.898 45.4057H223.29ZM229.18 47.8057C229.948 47.8057 230.546 48.035 230.972 48.4937C231.41 48.9524 231.628 49.5817 231.628 50.3817V56.4297H230.156V50.5897C230.156 49.9924 230.039 49.571 229.804 49.3257C229.58 49.0804 229.25 48.9577 228.812 48.9577C228.375 48.9577 227.986 49.0857 227.644 49.3417C227.303 49.5977 226.983 49.9604 226.684 50.4297V56.4297H225.212V44.6217L226.684 44.4617V49.1657C227.346 48.259 228.178 47.8057 229.18 47.8057ZM236.059 47.9977V56.4297H234.587V47.9977H236.059ZM235.307 43.9497C235.617 43.9497 235.867 44.0457 236.059 44.2377C236.251 44.4297 236.347 44.6697 236.347 44.9577C236.347 45.2457 236.251 45.4857 236.059 45.6777C235.867 45.859 235.617 45.9497 235.307 45.9497C235.009 45.9497 234.763 45.859 234.571 45.6777C234.379 45.4857 234.283 45.2457 234.283 44.9577C234.283 44.6697 234.379 44.4297 234.571 44.2377C234.763 44.0457 235.009 43.9497 235.307 43.9497ZM243.359 56.0457C242.804 56.4297 242.175 56.6217 241.471 56.6217C240.756 56.6217 240.196 56.419 239.791 56.0137C239.396 55.5977 239.199 55.0004 239.199 54.2217V49.1337H237.727V47.9977H239.199V46.0937L240.671 45.9177V47.9977H242.671L242.511 49.1337H240.671V54.1577C240.671 54.595 240.746 54.915 240.895 55.1177C241.055 55.3097 241.316 55.4057 241.679 55.4057C242.01 55.4057 242.383 55.2937 242.799 55.0697L243.359 56.0457ZM251.018 51.9657C251.018 52.211 251.007 52.4617 250.986 52.7177H245.61C245.674 53.6457 245.909 54.3284 246.314 54.7657C246.719 55.203 247.242 55.4217 247.882 55.4217C248.287 55.4217 248.661 55.363 249.002 55.2457C249.343 55.1284 249.701 54.9417 250.074 54.6857L250.714 55.5657C249.818 56.2697 248.837 56.6217 247.77 56.6217C246.597 56.6217 245.679 56.2377 245.018 55.4697C244.367 54.7017 244.042 53.6457 244.042 52.3017C244.042 51.427 244.181 50.6537 244.458 49.9817C244.746 49.299 245.151 48.7657 245.674 48.3817C246.207 47.9977 246.831 47.8057 247.546 47.8057C248.666 47.8057 249.525 48.1737 250.122 48.9097C250.719 49.6457 251.018 50.6644 251.018 51.9657ZM249.562 51.5337C249.562 50.7017 249.397 50.067 249.066 49.6297C248.735 49.1924 248.239 48.9737 247.578 48.9737C246.373 48.9737 245.717 49.859 245.61 51.6297H249.562V51.5337Z" fill="#001826" fill-opacity="0.9"/>
<path d="M211.474 92.4297C211.474 90.2205 213.264 88.4297 215.474 88.4297H247.474C249.683 88.4297 251.474 90.2205 251.474 92.4297V124.43C251.474 126.639 249.683 128.43 247.474 128.43H215.474C213.264 128.43 211.474 126.639 211.474 124.43V92.4297Z" fill="white"/>
<path d="M211.974 92.4297C211.974 90.4967 213.541 88.9297 215.474 88.9297H247.474C249.407 88.9297 250.974 90.4967 250.974 92.4297V124.43C250.974 126.363 249.407 127.93 247.474 127.93H215.474C213.541 127.93 211.974 126.363 211.974 124.43V92.4297Z" stroke="#004166" stroke-opacity="0.1"/>
<path d="M219.377 139.064V148.43H218.089V140.436L215.905 141.766L215.345 140.856L218.243 139.064H219.377ZM224.818 138.924C225.854 138.924 226.633 139.339 227.156 140.17C227.688 140.991 227.954 142.186 227.954 143.754C227.954 145.322 227.688 146.521 227.156 147.352C226.633 148.182 225.854 148.598 224.818 148.598C223.782 148.598 222.998 148.182 222.466 147.352C221.943 146.521 221.682 145.322 221.682 143.754C221.682 142.186 221.943 140.991 222.466 140.17C222.998 139.339 223.782 138.924 224.818 138.924ZM224.818 139.946C224.211 139.946 223.759 140.244 223.46 140.842C223.171 141.439 223.026 142.41 223.026 143.754C223.026 145.098 223.171 146.073 223.46 146.68C223.759 147.277 224.211 147.576 224.818 147.576C225.415 147.576 225.863 147.277 226.162 146.68C226.461 146.073 226.61 145.098 226.61 143.754C226.61 142.419 226.461 141.453 226.162 140.856C225.863 140.249 225.415 139.946 224.818 139.946ZM232.625 138.924C233.661 138.924 234.44 139.339 234.963 140.17C235.495 140.991 235.761 142.186 235.761 143.754C235.761 145.322 235.495 146.521 234.963 147.352C234.44 148.182 233.661 148.598 232.625 148.598C231.589 148.598 230.805 148.182 230.273 147.352C229.75 146.521 229.489 145.322 229.489 143.754C229.489 142.186 229.75 140.991 230.273 140.17C230.805 139.339 231.589 138.924 232.625 138.924ZM232.625 139.946C232.018 139.946 231.565 140.244 231.267 140.842C230.977 141.439 230.833 142.41 230.833 143.754C230.833 145.098 230.977 146.073 231.267 146.68C231.565 147.277 232.018 147.576 232.625 147.576C233.222 147.576 233.67 147.277 233.969 146.68C234.267 146.073 234.417 145.098 234.417 143.754C234.417 142.419 234.267 141.453 233.969 140.856C233.67 140.249 233.222 139.946 232.625 139.946ZM245.107 138.476L246.003 139.064L239.521 148.864L238.625 148.276L245.107 138.476ZM239.423 138.924C240.095 138.924 240.641 139.138 241.061 139.568C241.491 139.997 241.705 140.571 241.705 141.29C241.705 142.008 241.491 142.582 241.061 143.012C240.641 143.441 240.095 143.656 239.423 143.656C238.761 143.656 238.215 143.441 237.785 143.012C237.365 142.582 237.155 142.008 237.155 141.29C237.155 140.571 237.365 139.997 237.785 139.568C238.215 139.138 238.761 138.924 239.423 138.924ZM239.423 139.792C239.013 139.792 238.719 139.932 238.541 140.212C238.373 140.492 238.289 140.851 238.289 141.29C238.289 141.719 238.373 142.078 238.541 142.368C238.719 142.648 239.013 142.788 239.423 142.788C240.179 142.788 240.557 142.288 240.557 141.29C240.557 140.86 240.473 140.506 240.305 140.226C240.137 139.936 239.843 139.792 239.423 139.792ZM245.191 143.866C245.863 143.866 246.409 144.08 246.829 144.51C247.249 144.939 247.459 145.513 247.459 146.232C247.459 146.95 247.249 147.524 246.829 147.954C246.409 148.383 245.863 148.598 245.191 148.598C244.519 148.598 243.969 148.383 243.539 147.954C243.119 147.524 242.909 146.95 242.909 146.232C242.909 145.513 243.119 144.939 243.539 144.51C243.969 144.08 244.519 143.866 245.191 143.866ZM245.191 144.748C244.781 144.748 244.487 144.888 244.309 145.168C244.141 145.438 244.057 145.793 244.057 146.232C244.057 146.661 244.141 147.02 244.309 147.31C244.487 147.59 244.781 147.73 245.191 147.73C245.947 147.73 246.325 147.23 246.325 146.232C246.325 145.802 246.241 145.448 246.073 145.168C245.905 144.888 245.611 144.748 245.191 144.748Z" fill="#002033" fill-opacity="0.65"/>
<path d="M211.474 178.43C211.474 176.221 213.264 174.43 215.474 174.43H247.474C249.683 174.43 251.474 176.221 251.474 178.43V210.43C251.474 212.639 249.683 214.43 247.474 214.43H215.474C213.264 214.43 211.474 212.639 211.474 210.43V178.43Z" fill="white" fill-opacity="0.78"/>
<path d="M211.974 178.43C211.974 176.497 213.541 174.93 215.474 174.93H247.474C249.407 174.93 250.974 176.497 250.974 178.43V210.43C250.974 212.363 249.407 213.93 247.474 213.93H215.474C213.541 213.93 211.974 212.363 211.974 210.43V178.43Z" stroke="#004166" stroke-opacity="0.1"/>
<path d="M224.657 225.064V226.03L221.157 234.57L219.981 234.178L223.355 226.114H219.211V225.064H224.657ZM229.919 229.404C231.235 229.936 231.893 230.776 231.893 231.924C231.893 232.437 231.753 232.899 231.473 233.31C231.202 233.711 230.819 234.028 230.325 234.262C229.83 234.486 229.27 234.598 228.645 234.598C228.01 234.598 227.45 234.486 226.965 234.262C226.479 234.038 226.101 233.725 225.831 233.324C225.569 232.922 225.439 232.465 225.439 231.952C225.439 231.373 225.593 230.888 225.901 230.496C226.218 230.104 226.68 229.777 227.287 229.516C226.792 229.264 226.423 228.96 226.181 228.606C225.947 228.242 225.831 227.817 225.831 227.332C225.831 226.828 225.961 226.394 226.223 226.03C226.493 225.666 226.843 225.39 227.273 225.204C227.711 225.017 228.178 224.924 228.673 224.924C229.158 224.924 229.615 225.012 230.045 225.19C230.483 225.367 230.838 225.638 231.109 226.002C231.379 226.356 231.515 226.786 231.515 227.29C231.515 227.756 231.384 228.158 231.123 228.494C230.861 228.83 230.46 229.133 229.919 229.404ZM228.673 225.89C228.187 225.89 227.8 226.016 227.511 226.268C227.231 226.52 227.091 226.879 227.091 227.346C227.091 227.794 227.226 228.134 227.497 228.368C227.777 228.601 228.22 228.816 228.827 229.012L229.065 229.096C229.485 228.853 229.788 228.596 229.975 228.326C230.161 228.055 230.255 227.724 230.255 227.332C230.255 226.893 230.115 226.543 229.835 226.282C229.564 226.02 229.177 225.89 228.673 225.89ZM228.659 233.576C229.237 233.576 229.695 233.426 230.031 233.128C230.376 232.829 230.549 232.432 230.549 231.938C230.549 231.602 230.483 231.322 230.353 231.098C230.222 230.864 230.012 230.664 229.723 230.496C229.433 230.318 229.027 230.141 228.505 229.964L228.155 229.838C227.688 230.062 227.343 230.346 227.119 230.692C226.895 231.028 226.783 231.448 226.783 231.952C226.783 232.465 226.951 232.866 227.287 233.156C227.623 233.436 228.08 233.576 228.659 233.576ZM241.102 224.476L241.998 225.064L235.516 234.864L234.62 234.276L241.102 224.476ZM235.418 224.924C236.09 224.924 236.636 225.138 237.056 225.568C237.485 225.997 237.7 226.571 237.7 227.29C237.7 228.008 237.485 228.582 237.056 229.012C236.636 229.441 236.09 229.656 235.418 229.656C234.755 229.656 234.209 229.441 233.78 229.012C233.36 228.582 233.15 228.008 233.15 227.29C233.15 226.571 233.36 225.997 233.78 225.568C234.209 225.138 234.755 224.924 235.418 224.924ZM235.418 225.792C235.007 225.792 234.713 225.932 234.536 226.212C234.368 226.492 234.284 226.851 234.284 227.29C234.284 227.719 234.368 228.078 234.536 228.368C234.713 228.648 235.007 228.788 235.418 228.788C236.174 228.788 236.552 228.288 236.552 227.29C236.552 226.86 236.468 226.506 236.3 226.226C236.132 225.936 235.838 225.792 235.418 225.792ZM241.186 229.866C241.858 229.866 242.404 230.08 242.824 230.51C243.244 230.939 243.454 231.513 243.454 232.232C243.454 232.95 243.244 233.524 242.824 233.954C242.404 234.383 241.858 234.598 241.186 234.598C240.514 234.598 239.963 234.383 239.534 233.954C239.114 233.524 238.904 232.95 238.904 232.232C238.904 231.513 239.114 230.939 239.534 230.51C239.963 230.08 240.514 229.866 241.186 229.866ZM241.186 230.748C240.775 230.748 240.481 230.888 240.304 231.168C240.136 231.438 240.052 231.793 240.052 232.232C240.052 232.661 240.136 233.02 240.304 233.31C240.481 233.59 240.775 233.73 241.186 233.73C241.942 233.73 242.32 233.23 242.32 232.232C242.32 231.802 242.236 231.448 242.068 231.168C241.9 230.888 241.606 230.748 241.186 230.748Z" fill="#002033" fill-opacity="0.65"/>
<path d="M211.474 264.43C211.474 262.221 213.264 260.43 215.474 260.43H247.474C249.683 260.43 251.474 262.221 251.474 264.43V296.43C251.474 298.639 249.683 300.43 247.474 300.43H215.474C213.264 300.43 211.474 298.639 211.474 296.43V264.43Z" fill="white" fill-opacity="0.6"/>
<path d="M211.974 264.43C211.974 262.497 213.541 260.93 215.474 260.93H247.474C249.407 260.93 250.974 262.497 250.974 264.43V296.43C250.974 298.363 249.407 299.93 247.474 299.93H215.474C213.541 299.93 211.974 298.363 211.974 296.43V264.43Z" stroke="#004166" stroke-opacity="0.1"/>
<path d="M222.367 314.27C222.843 314.27 223.277 314.382 223.669 314.606C224.061 314.83 224.373 315.166 224.607 315.614C224.84 316.062 224.957 316.608 224.957 317.252C224.957 317.914 224.821 318.502 224.551 319.016C224.289 319.52 223.93 319.912 223.473 320.192C223.025 320.462 222.525 320.598 221.975 320.598C220.883 320.598 220.085 320.196 219.581 319.394C219.077 318.582 218.825 317.462 218.825 316.034C218.825 315.016 218.965 314.125 219.245 313.36C219.534 312.585 219.945 311.988 220.477 311.568C221.009 311.138 221.639 310.924 222.367 310.924C223.076 310.924 223.72 311.115 224.299 311.498L223.795 312.352C223.356 312.081 222.875 311.946 222.353 311.946C221.681 311.946 221.149 312.268 220.757 312.912C220.365 313.556 220.15 314.419 220.113 315.502C220.691 314.68 221.443 314.27 222.367 314.27ZM221.975 319.576C222.516 319.576 222.931 319.37 223.221 318.96C223.51 318.549 223.655 317.994 223.655 317.294C223.655 315.959 223.151 315.292 222.143 315.292C221.732 315.292 221.354 315.408 221.009 315.642C220.663 315.866 220.369 316.178 220.127 316.58C220.155 317.606 220.313 318.362 220.603 318.848C220.901 319.333 221.359 319.576 221.975 319.576ZM229.426 310.924C230.462 310.924 231.241 311.339 231.764 312.17C232.296 312.991 232.562 314.186 232.562 315.754C232.562 317.322 232.296 318.521 231.764 319.352C231.241 320.182 230.462 320.598 229.426 320.598C228.39 320.598 227.606 320.182 227.074 319.352C226.551 318.521 226.29 317.322 226.29 315.754C226.29 314.186 226.551 312.991 227.074 312.17C227.606 311.339 228.39 310.924 229.426 310.924ZM229.426 311.946C228.819 311.946 228.366 312.244 228.068 312.842C227.778 313.439 227.634 314.41 227.634 315.754C227.634 317.098 227.778 318.073 228.068 318.68C228.366 319.277 228.819 319.576 229.426 319.576C230.023 319.576 230.471 319.277 230.77 318.68C231.068 318.073 231.218 317.098 231.218 315.754C231.218 314.419 231.068 313.453 230.77 312.856C230.471 312.249 230.023 311.946 229.426 311.946ZM241.908 310.476L242.804 311.064L236.322 320.864L235.426 320.276L241.908 310.476ZM236.224 310.924C236.896 310.924 237.442 311.138 237.862 311.568C238.292 311.997 238.506 312.571 238.506 313.29C238.506 314.008 238.292 314.582 237.862 315.012C237.442 315.441 236.896 315.656 236.224 315.656C235.562 315.656 235.016 315.441 234.586 315.012C234.166 314.582 233.956 314.008 233.956 313.29C233.956 312.571 234.166 311.997 234.586 311.568C235.016 311.138 235.562 310.924 236.224 310.924ZM236.224 311.792C235.814 311.792 235.52 311.932 235.342 312.212C235.174 312.492 235.09 312.851 235.09 313.29C235.09 313.719 235.174 314.078 235.342 314.368C235.52 314.648 235.814 314.788 236.224 314.788C236.98 314.788 237.358 314.288 237.358 313.29C237.358 312.86 237.274 312.506 237.106 312.226C236.938 311.936 236.644 311.792 236.224 311.792ZM241.992 315.866C242.664 315.866 243.21 316.08 243.63 316.51C244.05 316.939 244.26 317.513 244.26 318.232C244.26 318.95 244.05 319.524 243.63 319.954C243.21 320.383 242.664 320.598 241.992 320.598C241.32 320.598 240.77 320.383 240.34 319.954C239.92 319.524 239.71 318.95 239.71 318.232C239.71 317.513 239.92 316.939 240.34 316.51C240.77 316.08 241.32 315.866 241.992 315.866ZM241.992 316.748C241.582 316.748 241.288 316.888 241.11 317.168C240.942 317.438 240.858 317.793 240.858 318.232C240.858 318.661 240.942 319.02 241.11 319.31C241.288 319.59 241.582 319.73 241.992 319.73C242.748 319.73 243.126 319.23 243.126 318.232C243.126 317.802 243.042 317.448 242.874 317.168C242.706 316.888 242.412 316.748 241.992 316.748Z" fill="#002033" fill-opacity="0.65"/>
<path d="M211.474 350.43C211.474 348.221 213.264 346.43 215.474 346.43H247.474C249.683 346.43 251.474 348.221 251.474 350.43V382.43C251.474 384.639 249.683 386.43 247.474 386.43H215.474C213.264 386.43 211.474 384.639 211.474 382.43V350.43Z" fill="white" fill-opacity="0.6"/>
<path d="M211.974 350.43C211.974 348.497 213.541 346.93 215.474 346.93H247.474C249.407 346.93 250.974 348.497 250.974 350.43V382.43C250.974 384.363 249.407 385.93 247.474 385.93H215.474C213.541 385.93 211.974 384.363 211.974 382.43V350.43Z" stroke="#004166" stroke-opacity="0.1"/>
<path d="M221.513 396.924C222.073 396.924 222.563 397.036 222.983 397.26C223.413 397.484 223.744 397.792 223.977 398.184C224.211 398.566 224.327 399 224.327 399.486C224.327 400.055 224.197 400.601 223.935 401.124C223.683 401.646 223.291 402.211 222.759 402.818C222.227 403.424 221.42 404.269 220.337 405.352H224.551L224.397 406.43H218.867V405.408C220.118 404.11 221.005 403.163 221.527 402.566C222.05 401.959 222.423 401.432 222.647 400.984C222.871 400.536 222.983 400.055 222.983 399.542C222.983 399.056 222.843 398.678 222.563 398.408C222.283 398.128 221.91 397.988 221.443 397.988C221.061 397.988 220.725 398.067 220.435 398.226C220.146 398.384 219.838 398.646 219.511 399.01L218.671 398.338C219.054 397.862 219.479 397.507 219.945 397.274C220.412 397.04 220.935 396.924 221.513 396.924ZM229.159 396.924C230.195 396.924 230.974 397.339 231.497 398.17C232.029 398.991 232.295 400.186 232.295 401.754C232.295 403.322 232.029 404.521 231.497 405.352C230.974 406.182 230.195 406.598 229.159 406.598C228.123 406.598 227.339 406.182 226.807 405.352C226.284 404.521 226.023 403.322 226.023 401.754C226.023 400.186 226.284 398.991 226.807 398.17C227.339 397.339 228.123 396.924 229.159 396.924ZM229.159 397.946C228.552 397.946 228.1 398.244 227.801 398.842C227.512 399.439 227.367 400.41 227.367 401.754C227.367 403.098 227.512 404.073 227.801 404.68C228.1 405.277 228.552 405.576 229.159 405.576C229.756 405.576 230.204 405.277 230.503 404.68C230.802 404.073 230.951 403.098 230.951 401.754C230.951 400.419 230.802 399.453 230.503 398.856C230.204 398.249 229.756 397.946 229.159 397.946ZM241.642 396.476L242.538 397.064L236.056 406.864L235.16 406.276L241.642 396.476ZM235.958 396.924C236.63 396.924 237.176 397.138 237.596 397.568C238.025 397.997 238.24 398.571 238.24 399.29C238.24 400.008 238.025 400.582 237.596 401.012C237.176 401.441 236.63 401.656 235.958 401.656C235.295 401.656 234.749 401.441 234.32 401.012C233.9 400.582 233.69 400.008 233.69 399.29C233.69 398.571 233.9 397.997 234.32 397.568C234.749 397.138 235.295 396.924 235.958 396.924ZM235.958 397.792C235.547 397.792 235.253 397.932 235.076 398.212C234.908 398.492 234.824 398.851 234.824 399.29C234.824 399.719 234.908 400.078 235.076 400.368C235.253 400.648 235.547 400.788 235.958 400.788C236.714 400.788 237.092 400.288 237.092 399.29C237.092 398.86 237.008 398.506 236.84 398.226C236.672 397.936 236.378 397.792 235.958 397.792ZM241.726 401.866C242.398 401.866 242.944 402.08 243.364 402.51C243.784 402.939 243.994 403.513 243.994 404.232C243.994 404.95 243.784 405.524 243.364 405.954C242.944 406.383 242.398 406.598 241.726 406.598C241.054 406.598 240.503 406.383 240.074 405.954C239.654 405.524 239.444 404.95 239.444 404.232C239.444 403.513 239.654 402.939 240.074 402.51C240.503 402.08 241.054 401.866 241.726 401.866ZM241.726 402.748C241.315 402.748 241.021 402.888 240.844 403.168C240.676 403.438 240.592 403.793 240.592 404.232C240.592 404.661 240.676 405.02 240.844 405.31C241.021 405.59 241.315 405.73 241.726 405.73C242.482 405.73 242.86 405.23 242.86 404.232C242.86 403.802 242.776 403.448 242.608 403.168C242.44 402.888 242.146 402.748 241.726 402.748Z" fill="#002033" fill-opacity="0.65"/>
<path d="M211.474 436.43C211.474 434.221 213.264 432.43 215.474 432.43H247.474C249.683 432.43 251.474 434.221 251.474 436.43V468.43C251.474 470.639 249.683 472.43 247.474 472.43H215.474C213.264 472.43 211.474 470.639 211.474 468.43V436.43Z" fill="white" fill-opacity="0.2"/>
<path d="M211.974 436.43C211.974 434.497 213.541 432.93 215.474 432.93H247.474C249.407 432.93 250.974 434.497 250.974 436.43V468.43C250.974 470.363 249.407 471.93 247.474 471.93H215.474C213.541 471.93 211.974 470.363 211.974 468.43V436.43Z" stroke="#004166" stroke-opacity="0.1"/>
<path d="M223.718 483.064V492.43H222.43V484.436L220.246 485.766L219.686 484.856L222.584 483.064H223.718ZM228.445 482.924C229.005 482.924 229.495 483.036 229.915 483.26C230.344 483.484 230.676 483.792 230.909 484.184C231.142 484.566 231.259 485 231.259 485.486C231.259 486.055 231.128 486.601 230.867 487.124C230.615 487.646 230.223 488.211 229.691 488.818C229.159 489.424 228.352 490.269 227.269 491.352H231.483L231.329 492.43H225.799V491.408C227.05 490.11 227.936 489.163 228.459 488.566C228.982 487.959 229.355 487.432 229.579 486.984C229.803 486.536 229.915 486.055 229.915 485.542C229.915 485.056 229.775 484.678 229.495 484.408C229.215 484.128 228.842 483.988 228.375 483.988C227.992 483.988 227.656 484.067 227.367 484.226C227.078 484.384 226.77 484.646 226.443 485.01L225.603 484.338C225.986 483.862 226.41 483.507 226.877 483.274C227.344 483.04 227.866 482.924 228.445 482.924ZM240.767 482.476L241.663 483.064L235.181 492.864L234.285 492.276L240.767 482.476ZM235.083 482.924C235.755 482.924 236.301 483.138 236.721 483.568C237.15 483.997 237.365 484.571 237.365 485.29C237.365 486.008 237.15 486.582 236.721 487.012C236.301 487.441 235.755 487.656 235.083 487.656C234.42 487.656 233.874 487.441 233.445 487.012C233.025 486.582 232.815 486.008 232.815 485.29C232.815 484.571 233.025 483.997 233.445 483.568C233.874 483.138 234.42 482.924 235.083 482.924ZM235.083 483.792C234.672 483.792 234.378 483.932 234.201 484.212C234.033 484.492 233.949 484.851 233.949 485.29C233.949 485.719 234.033 486.078 234.201 486.368C234.378 486.648 234.672 486.788 235.083 486.788C235.839 486.788 236.217 486.288 236.217 485.29C236.217 484.86 236.133 484.506 235.965 484.226C235.797 483.936 235.503 483.792 235.083 483.792ZM240.851 487.866C241.523 487.866 242.069 488.08 242.489 488.51C242.909 488.939 243.119 489.513 243.119 490.232C243.119 490.95 242.909 491.524 242.489 491.954C242.069 492.383 241.523 492.598 240.851 492.598C240.179 492.598 239.628 492.383 239.199 491.954C238.779 491.524 238.569 490.95 238.569 490.232C238.569 489.513 238.779 488.939 239.199 488.51C239.628 488.08 240.179 487.866 240.851 487.866ZM240.851 488.748C240.44 488.748 240.146 488.888 239.969 489.168C239.801 489.438 239.717 489.793 239.717 490.232C239.717 490.661 239.801 491.02 239.969 491.31C240.146 491.59 240.44 491.73 240.851 491.73C241.607 491.73 241.985 491.23 241.985 490.232C241.985 489.802 241.901 489.448 241.733 489.168C241.565 488.888 241.271 488.748 240.851 488.748Z" fill="#002033" fill-opacity="0.65"/>
<path d="M211.474 522.43C211.474 520.221 213.264 518.43 215.474 518.43H247.474C249.683 518.43 251.474 520.221 251.474 522.43V554.43C251.474 556.639 249.683 558.43 247.474 558.43H215.474C213.264 558.43 211.474 556.639 211.474 554.43V522.43Z" fill="white" fill-opacity="0.06"/>
<path d="M211.974 522.43C211.974 520.497 213.541 518.93 215.474 518.93H247.474C249.407 518.93 250.974 520.497 250.974 522.43V554.43C250.974 556.363 249.407 557.93 247.474 557.93H215.474C213.541 557.93 211.974 556.363 211.974 554.43V522.43Z" stroke="#004166" stroke-opacity="0.1"/>
<path d="M226.27 572.27C226.746 572.27 227.18 572.382 227.572 572.606C227.964 572.83 228.277 573.166 228.51 573.614C228.743 574.062 228.86 574.608 228.86 575.252C228.86 575.914 228.725 576.502 228.454 577.016C228.193 577.52 227.833 577.912 227.376 578.192C226.928 578.462 226.429 578.598 225.878 578.598C224.786 578.598 223.988 578.196 223.484 577.394C222.98 576.582 222.728 575.462 222.728 574.034C222.728 573.016 222.868 572.125 223.148 571.36C223.437 570.585 223.848 569.988 224.38 569.568C224.912 569.138 225.542 568.924 226.27 568.924C226.979 568.924 227.623 569.115 228.202 569.498L227.698 570.352C227.259 570.081 226.779 569.946 226.256 569.946C225.584 569.946 225.052 570.268 224.66 570.912C224.268 571.556 224.053 572.419 224.016 573.502C224.595 572.68 225.346 572.27 226.27 572.27ZM225.878 577.576C226.419 577.576 226.835 577.37 227.124 576.96C227.413 576.549 227.558 575.994 227.558 575.294C227.558 573.959 227.054 573.292 226.046 573.292C225.635 573.292 225.257 573.408 224.912 573.642C224.567 573.866 224.273 574.178 224.03 574.58C224.058 575.606 224.217 576.362 224.506 576.848C224.805 577.333 225.262 577.576 225.878 577.576ZM238.005 568.476L238.901 569.064L232.419 578.864L231.523 578.276L238.005 568.476ZM232.321 568.924C232.993 568.924 233.539 569.138 233.959 569.568C234.388 569.997 234.603 570.571 234.603 571.29C234.603 572.008 234.388 572.582 233.959 573.012C233.539 573.441 232.993 573.656 232.321 573.656C231.658 573.656 231.112 573.441 230.683 573.012C230.263 572.582 230.053 572.008 230.053 571.29C230.053 570.571 230.263 569.997 230.683 569.568C231.112 569.138 231.658 568.924 232.321 568.924ZM232.321 569.792C231.91 569.792 231.616 569.932 231.439 570.212C231.271 570.492 231.187 570.851 231.187 571.29C231.187 571.719 231.271 572.078 231.439 572.368C231.616 572.648 231.91 572.788 232.321 572.788C233.077 572.788 233.455 572.288 233.455 571.29C233.455 570.86 233.371 570.506 233.203 570.226C233.035 569.936 232.741 569.792 232.321 569.792ZM238.089 573.866C238.761 573.866 239.307 574.08 239.727 574.51C240.147 574.939 240.357 575.513 240.357 576.232C240.357 576.95 240.147 577.524 239.727 577.954C239.307 578.383 238.761 578.598 238.089 578.598C237.417 578.598 236.866 578.383 236.437 577.954C236.017 577.524 235.807 576.95 235.807 576.232C235.807 575.513 236.017 574.939 236.437 574.51C236.866 574.08 237.417 573.866 238.089 573.866ZM238.089 574.748C237.678 574.748 237.384 574.888 237.207 575.168C237.039 575.438 236.955 575.793 236.955 576.232C236.955 576.661 237.039 577.02 237.207 577.31C237.384 577.59 237.678 577.73 238.089 577.73C238.845 577.73 239.223 577.23 239.223 576.232C239.223 575.802 239.139 575.448 238.971 575.168C238.803 574.888 238.509 574.748 238.089 574.748Z" fill="#002033" fill-opacity="0.65"/>
<path d="M211.474 608.43C211.474 606.221 213.264 604.43 215.474 604.43H247.474C249.683 604.43 251.474 606.221 251.474 608.43V640.43C251.474 642.639 249.683 644.43 247.474 644.43H215.474C213.264 644.43 211.474 642.639 211.474 640.43V608.43Z" fill="white" fill-opacity="0.03"/>
<path d="M211.974 608.43C211.974 606.497 213.541 604.93 215.474 604.93H247.474C249.407 604.93 250.974 606.497 250.974 608.43V640.43C250.974 642.363 249.407 643.93 247.474 643.93H215.474C213.541 643.93 211.974 642.363 211.974 640.43V608.43Z" stroke="#004166" stroke-opacity="0.1"/>
<path d="M225.347 654.924C225.926 654.924 226.421 655.031 226.831 655.246C227.251 655.46 227.569 655.75 227.783 656.114C228.007 656.478 228.119 656.874 228.119 657.304C228.119 657.873 227.951 658.344 227.615 658.718C227.289 659.082 226.85 659.329 226.299 659.46C226.925 659.516 227.433 659.74 227.825 660.132C228.217 660.524 228.413 661.056 228.413 661.728C228.413 662.269 228.283 662.759 228.021 663.198C227.76 663.636 227.387 663.982 226.901 664.234C226.416 664.476 225.856 664.598 225.221 664.598C224.652 664.598 224.129 664.495 223.653 664.29C223.177 664.075 222.762 663.758 222.407 663.338L223.177 662.624C223.485 662.941 223.798 663.174 224.115 663.324C224.442 663.473 224.797 663.548 225.179 663.548C225.767 663.548 226.229 663.384 226.565 663.058C226.901 662.722 227.069 662.274 227.069 661.714C227.069 661.098 226.911 660.664 226.593 660.412C226.276 660.16 225.814 660.034 225.207 660.034H224.507L224.661 659.04H225.137C225.623 659.04 226.024 658.895 226.341 658.606C226.668 658.316 226.831 657.91 226.831 657.388C226.831 656.949 226.691 656.604 226.411 656.352C226.131 656.09 225.753 655.96 225.277 655.96C224.913 655.96 224.577 656.025 224.269 656.156C223.971 656.286 223.663 656.501 223.345 656.8L222.673 656.03C223.467 655.292 224.358 654.924 225.347 654.924ZM237.766 654.476L238.662 655.064L232.18 664.864L231.284 664.276L237.766 654.476ZM232.082 654.924C232.754 654.924 233.3 655.138 233.72 655.568C234.149 655.997 234.364 656.571 234.364 657.29C234.364 658.008 234.149 658.582 233.72 659.012C233.3 659.441 232.754 659.656 232.082 659.656C231.419 659.656 230.873 659.441 230.444 659.012C230.024 658.582 229.814 658.008 229.814 657.29C229.814 656.571 230.024 655.997 230.444 655.568C230.873 655.138 231.419 654.924 232.082 654.924ZM232.082 655.792C231.671 655.792 231.377 655.932 231.2 656.212C231.032 656.492 230.948 656.851 230.948 657.29C230.948 657.719 231.032 658.078 231.2 658.368C231.377 658.648 231.671 658.788 232.082 658.788C232.838 658.788 233.216 658.288 233.216 657.29C233.216 656.86 233.132 656.506 232.964 656.226C232.796 655.936 232.502 655.792 232.082 655.792ZM237.85 659.866C238.522 659.866 239.068 660.08 239.488 660.51C239.908 660.939 240.118 661.513 240.118 662.232C240.118 662.95 239.908 663.524 239.488 663.954C239.068 664.383 238.522 664.598 237.85 664.598C237.178 664.598 236.627 664.383 236.198 663.954C235.778 663.524 235.568 662.95 235.568 662.232C235.568 661.513 235.778 660.939 236.198 660.51C236.627 660.08 237.178 659.866 237.85 659.866ZM237.85 660.748C237.439 660.748 237.145 660.888 236.968 661.168C236.8 661.438 236.716 661.793 236.716 662.232C236.716 662.661 236.8 663.02 236.968 663.31C237.145 663.59 237.439 663.73 237.85 663.73C238.606 663.73 238.984 663.23 238.984 662.232C238.984 661.802 238.9 661.448 238.732 661.168C238.564 660.888 238.27 660.748 237.85 660.748Z" fill="#002033" fill-opacity="0.65"/>
<path d="M313.028 50.6526C313.785 50.782 314.398 51.0498 314.867 51.456C315.335 51.8622 315.569 52.4919 315.567 53.3453C315.563 55.4359 314.106 56.4786 311.194 56.4732L308.154 56.4677L308.174 45.4437L310.782 45.4485C312.179 45.451 313.245 45.6823 313.981 46.1423C314.726 46.6024 315.098 47.3017 315.097 48.2404C315.095 48.8804 314.892 49.4134 314.486 49.8393C314.09 50.2652 313.604 50.5363 313.028 50.6526ZM309.692 46.6465L309.685 50.1185L311.349 50.1215C311.989 50.1227 312.512 49.969 312.918 49.6604C313.335 49.3518 313.543 48.9149 313.544 48.3495C313.546 47.7095 313.328 47.2665 312.891 47.0203C312.465 46.7742 311.814 46.6504 310.94 46.6488L309.692 46.6465ZM311.196 55.2572C312.092 55.2589 312.775 55.1268 313.244 54.861C313.725 54.5952 313.966 54.089 313.967 53.3423C313.969 52.617 313.74 52.0939 313.282 51.7731C312.824 51.4522 312.227 51.2911 311.491 51.2898L309.683 51.2865L309.676 55.2544L311.196 55.2572ZM319.488 56.6805C318.944 56.6795 318.512 56.5187 318.192 56.1981C317.884 55.8669 317.73 55.4079 317.731 54.8212L317.75 44.6613L319.222 44.488L319.203 54.7919C319.203 55.0266 319.24 55.1973 319.314 55.3041C319.399 55.411 319.538 55.4646 319.73 55.4649C319.932 55.4653 320.114 55.4336 320.274 55.3699L320.656 56.3946C320.304 56.586 319.914 56.6813 319.488 56.6805ZM328.101 54.5363C328.1 54.8776 328.158 55.1337 328.275 55.3046C328.392 55.4648 328.568 55.5878 328.803 55.6736L328.465 56.697C328.028 56.6428 327.676 56.5195 327.41 56.327C327.143 56.1345 326.946 55.8355 326.819 55.4299C326.252 56.2716 325.414 56.6914 324.305 56.6893C323.473 56.6878 322.817 56.4519 322.338 55.9817C321.859 55.5115 321.62 54.8977 321.622 54.1404C321.623 53.2444 321.944 52.557 322.585 52.0782C323.237 51.5993 324.155 51.361 325.339 51.3632L326.635 51.3656L326.636 50.7416C326.637 50.1443 326.494 49.7173 326.206 49.4608C325.919 49.2043 325.476 49.0755 324.879 49.0744C324.26 49.0732 323.503 49.2212 322.606 49.5182L322.24 48.4455C323.286 48.0634 324.257 47.8732 325.153 47.8749C326.145 47.8767 326.886 48.1234 327.376 48.6149C327.866 49.0958 328.11 49.7843 328.108 50.6803L328.101 54.5363ZM324.643 55.5859C325.486 55.5875 326.148 55.1514 326.629 54.2776L326.633 52.3416L325.529 52.3396C323.972 52.3367 323.192 52.9113 323.19 54.0633C323.189 54.5646 323.311 54.9435 323.556 55.1999C323.8 55.4564 324.163 55.5851 324.643 55.5859ZM334.208 47.8915C334.71 47.8924 335.168 47.9679 335.584 48.118C336 48.2574 336.399 48.4875 336.783 48.8082L336.077 49.7349C335.779 49.521 335.485 49.3658 335.198 49.2693C334.921 49.1621 334.611 49.1082 334.27 49.1076C333.587 49.1064 333.053 49.3774 332.668 49.9207C332.294 50.464 332.106 51.269 332.104 52.3356C332.102 53.4023 332.287 54.192 332.66 54.7047C333.032 55.2067 333.565 55.4583 334.258 55.4596C334.589 55.4602 334.893 55.4128 335.171 55.3173C335.448 55.2111 335.758 55.0463 336.099 54.823L336.77 55.7842C336.001 56.4015 335.141 56.7092 334.192 56.7075C333.051 56.7054 332.15 56.3197 331.49 55.5505C330.841 54.7813 330.517 53.7194 330.52 52.3647C330.522 51.4687 330.672 50.685 330.972 50.0136C331.272 49.3421 331.694 48.8202 332.239 48.4479C332.795 48.0756 333.451 47.8901 334.208 47.8915ZM340.255 44.5266L340.233 56.5266L338.761 56.5239L338.783 44.6999L340.255 44.5266ZM345.096 48.1035L341.986 51.8258L345.433 56.5361L343.673 56.5329L340.337 51.9188L343.448 48.1005L345.096 48.1035Z" fill="#001826" fill-opacity="0.9"/>
<path d="M306.05 92.571C306.054 90.3619 307.848 88.5743 310.057 88.5784L342.057 88.6372C344.266 88.6412 346.054 90.4354 346.05 92.6445L345.991 124.644C345.987 126.854 344.193 128.641 341.984 128.637L309.984 128.578C307.775 128.574 305.987 126.78 305.991 124.571L306.05 92.571Z" fill="black" fill-opacity="0.9"/>
<path d="M316.226 139.084C317.216 139.086 317.966 139.414 318.479 140.068C318.991 140.713 319.246 141.6 319.244 142.729C319.241 144.008 319.067 145.039 318.72 145.822C318.373 146.597 317.845 147.216 317.135 147.682C316.424 148.138 315.462 148.542 314.248 148.894L313.956 147.928C315.207 147.575 316.165 147.096 316.829 146.491C317.502 145.886 317.863 145.079 317.911 144.071C317.696 144.407 317.406 144.677 317.042 144.881C316.677 145.086 316.266 145.188 315.809 145.187C315.324 145.186 314.885 145.064 314.494 144.821C314.102 144.568 313.79 144.217 313.558 143.769C313.335 143.311 313.224 142.779 313.225 142.172C313.226 141.538 313.362 140.987 313.634 140.521C313.905 140.055 314.265 139.701 314.714 139.459C315.171 139.208 315.676 139.083 316.226 139.084ZM316.077 144.18C316.814 144.181 317.436 143.795 317.941 143.021C317.962 141.985 317.832 141.243 317.553 140.794C317.283 140.336 316.85 140.107 316.252 140.106C315.702 140.105 315.277 140.286 314.977 140.65C314.678 141.013 314.528 141.531 314.527 142.203C314.525 142.856 314.665 143.351 314.944 143.688C315.223 144.015 315.601 144.179 316.077 144.18ZM323.862 139.098C324.898 139.1 325.676 139.517 326.198 140.348C326.728 141.171 326.992 142.366 326.989 143.934C326.986 145.502 326.718 146.7 326.184 147.53C325.66 148.36 324.88 148.774 323.844 148.772C322.808 148.77 322.025 148.353 321.494 147.522C320.973 146.69 320.714 145.49 320.717 143.922C320.72 142.354 320.983 141.16 321.508 140.34C322.041 139.51 322.826 139.096 323.862 139.098ZM323.86 140.12C323.253 140.119 322.8 140.417 322.5 141.013C322.21 141.61 322.063 142.581 322.061 143.925C322.058 145.269 322.201 146.244 322.49 146.851C322.787 147.449 323.239 147.749 323.846 147.75C324.443 147.751 324.892 147.453 325.192 146.856C325.491 146.25 325.642 145.275 325.645 143.931C325.647 142.597 325.5 141.63 325.202 141.032C324.905 140.425 324.457 140.121 323.86 140.12ZM336.345 138.673L337.24 139.262L330.74 149.051L329.845 148.461L336.345 138.673ZM330.66 139.11C331.332 139.112 331.878 139.327 332.297 139.757C332.726 140.188 332.939 140.762 332.938 141.481C332.937 142.199 332.721 142.773 332.291 143.201C331.87 143.63 331.324 143.844 330.652 143.842C329.989 143.841 329.443 143.625 329.015 143.195C328.596 142.765 328.387 142.191 328.388 141.472C328.389 140.754 328.6 140.18 329.021 139.751C329.451 139.323 329.998 139.109 330.66 139.11ZM330.659 139.978C330.248 139.978 329.954 140.117 329.776 140.397C329.608 140.676 329.523 141.036 329.522 141.474C329.521 141.904 329.605 142.263 329.772 142.553C329.949 142.833 330.243 142.974 330.653 142.974C331.409 142.976 331.788 142.477 331.79 141.478C331.791 141.049 331.708 140.694 331.54 140.414C331.373 140.124 331.079 139.979 330.659 139.978ZM336.419 144.063C337.091 144.064 337.637 144.28 338.056 144.71C338.475 145.14 338.684 145.714 338.683 146.433C338.682 147.152 338.471 147.725 338.05 148.154C337.629 148.583 337.083 148.796 336.411 148.795C335.739 148.794 335.188 148.578 334.76 148.148C334.341 147.718 334.132 147.143 334.133 146.425C334.134 145.706 334.345 145.133 334.766 144.704C335.196 144.275 335.747 144.062 336.419 144.063ZM336.418 144.945C336.007 144.944 335.713 145.084 335.535 145.363C335.366 145.634 335.282 145.988 335.281 146.427C335.28 146.856 335.364 147.216 335.531 147.505C335.708 147.786 336.002 147.926 336.412 147.927C337.168 147.928 337.547 147.43 337.549 146.431C337.55 146.002 337.466 145.647 337.299 145.367C337.131 145.086 336.838 144.946 336.418 144.945Z" fill="#002033" fill-opacity="0.65"/>
<path d="M306.05 178.645C306.054 176.435 307.848 174.648 310.057 174.652L342.057 174.711C344.266 174.715 346.054 176.509 346.05 178.718L345.991 210.718C345.987 212.927 344.193 214.715 341.984 214.711L309.984 214.652C307.775 214.648 305.987 212.854 305.991 210.644L306.05 178.645Z" fill="black" fill-opacity="0.65"/>
<path d="M317.419 228.506C317.895 228.506 318.329 228.619 318.72 228.844C319.112 229.069 319.424 229.405 319.656 229.854C319.889 230.302 320.005 230.848 320.003 231.492C320.002 232.155 319.866 232.743 319.594 233.256C319.332 233.759 318.972 234.15 318.514 234.43C318.066 234.699 317.566 234.834 317.015 234.833C315.923 234.831 315.126 234.428 314.624 233.624C314.121 232.812 313.871 231.691 313.874 230.263C313.876 229.246 314.017 228.355 314.299 227.59C314.589 226.816 315.001 226.219 315.534 225.8C316.067 225.372 316.697 225.158 317.425 225.16C318.134 225.161 318.778 225.353 319.356 225.737L318.85 226.59C318.412 226.319 317.932 226.183 317.409 226.182C316.737 226.18 316.205 226.501 315.811 227.145C315.418 227.788 315.202 228.651 315.163 229.733C315.743 228.913 316.495 228.504 317.419 228.506ZM317.017 233.811C317.558 233.812 317.974 233.607 318.264 233.197C318.554 232.787 318.7 232.232 318.701 231.532C318.704 230.197 318.201 229.529 317.193 229.527C316.782 229.526 316.404 229.642 316.058 229.875C315.713 230.098 315.418 230.411 315.175 230.811C315.201 231.838 315.358 232.594 315.647 233.08C315.944 233.566 316.401 233.81 317.017 233.811ZM326.387 226.324L322.733 226.317L322.728 229.075C323.205 228.834 323.704 228.713 324.227 228.714C325.03 228.716 325.673 228.983 326.158 229.516C326.642 230.039 326.883 230.763 326.882 231.687C326.88 232.303 326.744 232.853 326.473 233.338C326.201 233.814 325.818 234.186 325.322 234.456C324.837 234.717 324.272 234.846 323.628 234.845C323.058 234.844 322.55 234.745 322.102 234.548C321.655 234.342 321.24 234.043 320.858 233.65L321.615 232.909C321.913 233.208 322.221 233.433 322.538 233.583C322.855 233.724 323.214 233.794 323.616 233.795C324.213 233.796 324.68 233.61 325.017 233.238C325.363 232.865 325.536 232.338 325.538 231.656C325.539 230.975 325.386 230.48 325.078 230.172C324.771 229.863 324.356 229.708 323.833 229.707C323.591 229.707 323.366 229.734 323.161 229.79C322.956 229.836 322.736 229.915 322.503 230.027L321.495 230.025L321.503 225.307L326.571 225.316L326.387 226.324ZM335.833 224.745L336.727 225.335L330.227 235.123L329.333 234.533L335.833 224.745ZM330.148 225.183C330.82 225.184 331.365 225.4 331.785 225.83C332.213 226.26 332.427 226.834 332.425 227.553C332.424 228.272 332.208 228.845 331.778 229.274C331.357 229.702 330.811 229.916 330.139 229.915C329.476 229.914 328.931 229.698 328.502 229.268C328.083 228.838 327.874 228.263 327.875 227.545C327.877 226.826 328.088 226.252 328.509 225.824C328.939 225.395 329.485 225.182 330.148 225.183ZM330.146 226.051C329.735 226.05 329.441 226.19 329.263 226.469C329.095 226.749 329.01 227.108 329.009 227.547C329.009 227.976 329.092 228.336 329.259 228.625C329.436 228.906 329.73 229.046 330.141 229.047C330.897 229.048 331.276 228.55 331.277 227.551C331.278 227.122 331.195 226.767 331.027 226.487C330.86 226.197 330.566 226.052 330.146 226.051ZM335.907 230.136C336.579 230.137 337.124 230.352 337.543 230.783C337.963 231.213 338.172 231.787 338.17 232.506C338.169 233.224 337.958 233.798 337.537 234.227C337.116 234.655 336.57 234.869 335.898 234.868C335.226 234.866 334.676 234.651 334.247 234.22C333.828 233.79 333.619 233.216 333.62 232.497C333.622 231.779 333.833 231.205 334.253 230.776C334.684 230.348 335.235 230.134 335.907 230.136ZM335.905 231.018C335.494 231.017 335.2 231.156 335.022 231.436C334.854 231.706 334.769 232.061 334.768 232.499C334.768 232.929 334.851 233.288 335.018 233.578C335.195 233.858 335.489 233.999 335.9 234C336.656 234.001 337.034 233.502 337.036 232.504C337.037 232.074 336.954 231.719 336.786 231.439C336.619 231.159 336.325 231.018 335.905 231.018Z" fill="#002033" fill-opacity="0.65"/>
<path d="M306.05 264.718C306.054 262.509 307.848 260.721 310.057 260.725L342.057 260.784C344.266 260.788 346.054 262.582 346.05 264.791L345.991 296.791C345.987 299 344.193 300.788 341.984 300.784L309.984 300.725C307.775 300.721 305.987 298.927 305.991 296.718L306.05 264.718Z" fill="black" fill-opacity="0.45"/>
<path d="M320.171 317.412L320.169 318.434L318.951 318.432L318.947 320.741L317.701 320.739L317.705 318.429L313.701 318.422L313.703 317.498L316.528 311.231L317.605 311.681L315.061 317.402L317.721 317.407L317.837 314.887L318.957 314.89L318.953 317.41L320.171 317.412ZM326.346 312.397L322.692 312.39L322.687 315.148C323.164 314.907 323.663 314.786 324.186 314.787C324.989 314.789 325.632 315.056 326.117 315.589C326.601 316.112 326.842 316.836 326.841 317.76C326.839 318.376 326.703 318.926 326.432 319.411C326.16 319.887 325.777 320.259 325.281 320.529C324.796 320.79 324.231 320.919 323.587 320.918C323.017 320.917 322.509 320.818 322.061 320.621C321.614 320.415 321.199 320.116 320.817 319.723L321.574 318.982C321.872 319.282 322.18 319.506 322.497 319.656C322.814 319.797 323.173 319.867 323.575 319.868C324.172 319.869 324.639 319.683 324.976 319.311C325.322 318.938 325.495 318.411 325.497 317.73C325.498 317.048 325.345 316.553 325.037 316.245C324.73 315.936 324.315 315.781 323.792 315.78C323.55 315.78 323.325 315.808 323.12 315.863C322.915 315.909 322.695 315.988 322.462 316.1L321.454 316.098L321.462 311.38L326.53 311.389L326.346 312.397ZM335.792 310.818L336.686 311.408L330.186 321.196L329.292 320.606L335.792 310.818ZM330.107 311.256C330.779 311.257 331.324 311.473 331.744 311.903C332.172 312.333 332.386 312.907 332.384 313.626C332.383 314.345 332.167 314.918 331.737 315.347C331.316 315.776 330.77 315.989 330.098 315.988C329.435 315.987 328.89 315.771 328.461 315.341C328.042 314.911 327.833 314.336 327.834 313.618C327.836 312.899 328.047 312.326 328.468 311.897C328.898 311.468 329.444 311.255 330.107 311.256ZM330.105 312.124C329.694 312.123 329.4 312.263 329.222 312.542C329.054 312.822 328.969 313.181 328.968 313.62C328.968 314.049 329.051 314.409 329.218 314.698C329.395 314.979 329.689 315.119 330.1 315.12C330.856 315.121 331.235 314.623 331.236 313.624C331.237 313.195 331.154 312.84 330.986 312.56C330.819 312.27 330.525 312.125 330.105 312.124ZM335.866 316.209C336.538 316.21 337.083 316.425 337.502 316.856C337.922 317.286 338.131 317.86 338.129 318.579C338.128 319.297 337.917 319.871 337.496 320.3C337.075 320.728 336.529 320.942 335.857 320.941C335.185 320.939 334.635 320.724 334.206 320.294C333.787 319.863 333.578 319.289 333.579 318.57C333.581 317.852 333.792 317.278 334.212 316.85C334.643 316.421 335.194 316.207 335.866 316.209ZM335.864 317.091C335.453 317.09 335.159 317.229 334.981 317.509C334.813 317.779 334.728 318.134 334.727 318.572C334.727 319.002 334.81 319.361 334.977 319.651C335.154 319.931 335.448 320.072 335.859 320.073C336.615 320.074 336.993 319.575 336.995 318.577C336.996 318.147 336.913 317.792 336.745 317.512C336.578 317.232 336.284 317.091 335.864 317.091Z" fill="#002033" fill-opacity="0.65"/>
<path d="M306.05 350.791C306.054 348.582 307.848 346.795 310.057 346.799L342.057 346.857C344.266 346.861 346.054 348.656 346.05 350.865L345.991 382.865C345.987 385.074 344.193 386.861 341.984 386.857L309.984 386.799C307.775 386.794 305.987 385 305.991 382.791L306.05 350.791Z" fill="black" fill-opacity="0.2"/>
<path d="M316.004 397.304C316.564 397.305 317.054 397.417 317.474 397.642C317.903 397.867 318.233 398.176 318.466 398.568C318.699 398.951 318.814 399.385 318.814 399.871C318.813 400.44 318.681 400.986 318.419 401.508C318.166 402.03 317.773 402.594 317.239 403.2C316.706 403.806 315.897 404.649 314.813 405.729L319.027 405.737L318.871 406.815L313.341 406.805L313.343 405.783C314.596 404.488 315.484 403.542 316.008 402.946C316.532 402.34 316.906 401.813 317.131 401.366C317.356 400.918 317.469 400.438 317.469 399.924C317.47 399.439 317.331 399.061 317.052 398.789C316.772 398.509 316.399 398.368 315.932 398.367C315.55 398.367 315.214 398.445 314.924 398.604C314.634 398.762 314.326 399.022 313.998 399.386L313.16 398.712C313.543 398.237 313.969 397.883 314.436 397.651C314.903 397.418 315.426 397.303 316.004 397.304ZM323.65 397.318C324.686 397.32 325.464 397.736 325.986 398.568C326.516 399.39 326.78 400.585 326.777 402.153C326.774 403.721 326.506 404.92 325.972 405.75C325.448 406.58 324.668 406.993 323.632 406.992C322.596 406.99 321.813 406.573 321.282 405.741C320.761 404.91 320.502 403.71 320.505 402.142C320.508 400.574 320.771 399.38 321.296 398.559C321.829 397.73 322.614 397.316 323.65 397.318ZM323.648 398.34C323.041 398.338 322.588 398.636 322.288 399.233C321.998 399.83 321.852 400.8 321.849 402.144C321.847 403.488 321.989 404.464 322.278 405.071C322.575 405.669 323.027 405.968 323.634 405.97C324.231 405.971 324.68 405.673 324.98 405.076C325.279 404.47 325.431 403.495 325.433 402.151C325.435 400.816 325.288 399.85 324.99 399.252C324.693 398.645 324.245 398.341 323.648 398.34ZM336.133 396.893L337.028 397.482L330.528 407.27L329.633 406.681L336.133 396.893ZM330.449 397.33C331.121 397.331 331.666 397.547 332.085 397.977C332.514 398.407 332.728 398.982 332.726 399.7C332.725 400.419 332.509 400.993 332.079 401.421C331.658 401.85 331.112 402.063 330.44 402.062C329.777 402.061 329.232 401.845 328.803 401.415C328.384 400.985 328.175 400.411 328.176 399.692C328.178 398.973 328.389 398.4 328.809 397.971C329.239 397.543 329.786 397.329 330.449 397.33ZM330.447 398.198C330.036 398.197 329.742 398.337 329.564 398.616C329.396 398.896 329.311 399.255 329.31 399.694C329.309 400.123 329.393 400.483 329.56 400.772C329.737 401.053 330.031 401.193 330.441 401.194C331.197 401.195 331.576 400.697 331.578 399.698C331.579 399.269 331.496 398.914 331.328 398.634C331.161 398.344 330.867 398.199 330.447 398.198ZM336.207 402.283C336.879 402.284 337.425 402.5 337.844 402.93C338.263 403.36 338.472 403.934 338.471 404.653C338.47 405.372 338.259 405.945 337.838 406.374C337.417 406.802 336.871 407.016 336.199 407.015C335.527 407.013 334.976 406.798 334.548 406.368C334.129 405.938 333.92 405.363 333.921 404.644C333.922 403.926 334.133 403.352 334.554 402.924C334.984 402.495 335.535 402.281 336.207 402.283ZM336.206 403.165C335.795 403.164 335.501 403.303 335.323 403.583C335.155 403.853 335.07 404.208 335.069 404.647C335.068 405.076 335.152 405.435 335.319 405.725C335.496 406.005 335.79 406.146 336.2 406.147C336.956 406.148 337.335 405.649 337.337 404.651C337.338 404.221 337.255 403.867 337.087 403.586C336.92 403.306 336.626 403.165 336.206 403.165Z" fill="#002033" fill-opacity="0.65"/>
<path d="M306.05 436.865C306.054 434.655 307.848 432.868 310.057 432.872L342.057 432.931C344.266 432.935 346.054 434.729 346.05 436.938L345.991 468.938C345.987 471.147 344.193 472.935 341.984 472.931L309.984 472.872C307.775 472.868 305.987 471.074 305.991 468.865L306.05 436.865Z" fill="black" fill-opacity="0.1"/>
<path d="M317.772 483.52L317.754 492.886L316.466 492.884L316.481 484.89L314.295 486.216L313.736 485.305L316.638 483.518L317.772 483.52ZM323.212 483.39C324.248 483.392 325.027 483.809 325.548 484.64C326.079 485.463 326.342 486.658 326.34 488.226C326.337 489.794 326.068 490.993 325.535 491.822C325.011 492.652 324.231 493.066 323.195 493.064C322.159 493.062 321.375 492.645 320.845 491.814C320.324 490.982 320.065 489.782 320.068 488.214C320.07 486.646 320.334 485.452 320.858 484.632C321.392 483.802 322.176 483.388 323.212 483.39ZM323.211 484.412C322.604 484.411 322.151 484.709 321.851 485.306C321.56 485.902 321.414 486.873 321.412 488.217C321.409 489.561 321.552 490.536 321.84 491.144C322.138 491.742 322.59 492.041 323.197 492.042C323.794 492.043 324.242 491.745 324.542 491.149C324.842 490.543 324.993 489.567 324.996 488.223C324.998 486.889 324.85 485.923 324.553 485.325C324.255 484.717 323.808 484.413 323.211 484.412ZM335.696 482.965L336.591 483.555L330.091 493.343L329.196 492.753L335.696 482.965ZM330.011 483.403C330.683 483.404 331.229 483.62 331.648 484.05C332.076 484.48 332.29 485.054 332.289 485.773C332.287 486.492 332.072 487.065 331.642 487.494C331.221 487.922 330.674 488.136 330.002 488.135C329.34 488.133 328.794 487.918 328.366 487.488C327.946 487.058 327.737 486.483 327.739 485.764C327.74 485.046 327.951 484.472 328.372 484.044C328.802 483.615 329.348 483.401 330.011 483.403ZM330.009 484.271C329.599 484.27 329.305 484.409 329.127 484.689C328.958 484.969 328.873 485.328 328.873 485.767C328.872 486.196 328.955 486.555 329.123 486.845C329.3 487.125 329.593 487.266 330.004 487.267C330.76 487.268 331.139 486.769 331.141 485.771C331.141 485.341 331.058 484.987 330.891 484.706C330.723 484.417 330.429 484.271 330.009 484.271ZM335.77 488.355C336.442 488.356 336.988 488.572 337.407 489.002C337.826 489.432 338.035 490.007 338.034 490.725C338.032 491.444 337.821 492.018 337.4 492.446C336.98 492.875 336.433 493.088 335.761 493.087C335.089 493.086 334.539 492.87 334.11 492.44C333.691 492.01 333.482 491.436 333.484 490.717C333.485 489.998 333.696 489.425 334.117 488.996C334.547 488.568 335.098 488.354 335.77 488.355ZM335.768 489.237C335.358 489.236 335.063 489.376 334.886 489.656C334.717 489.926 334.632 490.28 334.632 490.719C334.631 491.148 334.714 491.508 334.882 491.798C335.058 492.078 335.352 492.218 335.763 492.219C336.519 492.221 336.898 491.722 336.9 490.723C336.9 490.294 336.817 489.939 336.65 489.659C336.482 489.379 336.188 489.238 335.768 489.237Z" fill="#002033" fill-opacity="0.65"/>
<path d="M306.05 522.938C306.054 520.729 307.848 518.941 310.057 518.945L342.057 519.004C344.266 519.008 346.054 520.802 346.05 523.011L345.991 555.011C345.987 557.221 344.193 559.008 341.984 559.004L309.984 558.945C307.775 558.941 305.987 557.147 305.991 554.938L306.05 522.938Z" fill="black" fill-opacity="0.05"/>
<path d="M322.689 570.611L319.035 570.604L319.03 573.362C319.507 573.12 320.006 573 320.529 573.001C321.331 573.002 321.975 573.269 322.459 573.802C322.944 574.326 323.185 575.049 323.183 575.973C323.182 576.589 323.046 577.14 322.774 577.625C322.503 578.1 322.119 578.473 321.624 578.743C321.138 579.003 320.574 579.133 319.93 579.132C319.36 579.13 318.852 579.032 318.404 578.835C317.956 578.629 317.542 578.329 317.16 577.936L317.917 577.196C318.215 577.495 318.523 577.72 318.84 577.87C319.157 578.01 319.516 578.081 319.917 578.081C320.515 578.083 320.982 577.897 321.318 577.524C321.664 577.151 321.838 576.624 321.839 575.943C321.841 575.262 321.688 574.767 321.38 574.458C321.073 574.15 320.658 573.995 320.135 573.994C319.892 573.993 319.668 574.021 319.463 574.077C319.257 574.123 319.038 574.202 318.804 574.313L317.796 574.312L317.805 569.594L322.873 569.603L322.689 570.611ZM332.134 569.032L333.029 569.622L326.529 579.41L325.634 578.82L332.134 569.032ZM326.45 569.469C327.122 569.471 327.667 569.686 328.086 570.116C328.515 570.547 328.728 571.121 328.727 571.84C328.726 572.558 328.51 573.132 328.08 573.56C327.659 573.989 327.113 574.203 326.441 574.201C325.778 574.2 325.233 573.985 324.804 573.554C324.385 573.124 324.176 572.55 324.177 571.831C324.178 571.113 324.39 570.539 324.81 570.11C325.24 569.682 325.787 569.468 326.45 569.469ZM326.448 570.337C326.037 570.337 325.743 570.476 325.565 570.756C325.397 571.036 325.312 571.395 325.311 571.833C325.31 572.263 325.394 572.622 325.561 572.912C325.738 573.192 326.032 573.333 326.442 573.333C327.198 573.335 327.577 572.836 327.579 571.838C327.58 571.408 327.497 571.053 327.329 570.773C327.162 570.483 326.868 570.338 326.448 570.337ZM332.208 574.422C332.88 574.423 333.426 574.639 333.845 575.069C334.264 575.499 334.473 576.074 334.472 576.792C334.471 577.511 334.26 578.085 333.839 578.513C333.418 578.942 332.872 579.155 332.2 579.154C331.528 579.153 330.977 578.937 330.549 578.507C330.13 578.077 329.921 577.503 329.922 576.784C329.923 576.065 330.134 575.492 330.555 575.063C330.985 574.634 331.536 574.421 332.208 574.422ZM332.207 575.304C331.796 575.303 331.502 575.443 331.324 575.722C331.156 575.993 331.071 576.347 331.07 576.786C331.069 577.215 331.153 577.575 331.32 577.864C331.497 578.145 331.791 578.285 332.201 578.286C332.957 578.287 333.336 577.789 333.338 576.79C333.339 576.361 333.256 576.006 333.088 575.726C332.921 575.445 332.627 575.305 332.207 575.304Z" fill="#002033" fill-opacity="0.65"/>
<path d="M306.05 609.011C306.054 606.802 307.848 605.015 310.057 605.019L342.057 605.077C344.266 605.081 346.054 606.876 346.05 609.085L345.991 641.085C345.987 643.294 344.193 645.081 341.984 645.077L309.984 645.019C307.775 645.014 305.987 643.22 305.991 641.011L306.05 609.011Z" fill="black" fill-opacity="0.02"/>
<path d="M306.55 609.012C306.553 607.079 308.123 605.515 310.056 605.519L342.056 605.577C343.989 605.581 345.553 607.151 345.55 609.084L345.491 641.084C345.487 643.017 343.918 644.581 341.985 644.577L309.985 644.519C308.052 644.515 306.487 642.945 306.491 641.012L306.55 609.012Z" stroke="#004166" stroke-opacity="0.1"/>
<path d="M319.908 655.531C320.468 655.532 320.957 655.645 321.377 655.869C321.806 656.094 322.137 656.403 322.369 656.795C322.602 657.178 322.718 657.613 322.717 658.098C322.716 658.667 322.584 659.213 322.322 659.735C322.069 660.257 321.676 660.821 321.143 661.427C320.61 662.033 319.801 662.876 318.716 663.957L322.93 663.964L322.774 665.042L317.244 665.032L317.246 664.01C318.499 662.715 319.387 661.769 319.911 661.173C320.435 660.567 320.809 660.04 321.034 659.593C321.259 659.145 321.372 658.665 321.373 658.151C321.374 657.666 321.234 657.288 320.955 657.017C320.675 656.736 320.302 656.595 319.836 656.595C319.453 656.594 319.117 656.673 318.827 656.831C318.538 656.989 318.229 657.25 317.902 657.613L317.063 656.939C317.447 656.464 317.872 656.11 318.339 655.878C318.806 655.645 319.329 655.53 319.908 655.531ZM332.23 655.105L333.125 655.695L326.625 665.483L325.73 664.893L332.23 655.105ZM326.545 655.543C327.217 655.544 327.763 655.76 328.182 656.19C328.611 656.62 328.824 657.194 328.823 657.913C328.822 658.632 328.606 659.205 328.176 659.634C327.755 660.062 327.209 660.276 326.537 660.275C325.874 660.274 325.328 660.058 324.9 659.628C324.481 659.198 324.272 658.623 324.273 657.905C324.274 657.186 324.485 656.612 324.906 656.184C325.336 655.755 325.883 655.542 326.545 655.543ZM326.544 656.411C326.133 656.41 325.839 656.55 325.661 656.829C325.492 657.109 325.408 657.468 325.407 657.907C325.406 658.336 325.489 658.696 325.657 658.985C325.834 659.266 326.127 659.406 326.538 659.407C327.294 659.408 327.673 658.91 327.675 657.911C327.676 657.482 327.592 657.127 327.425 656.847C327.257 656.557 326.964 656.412 326.544 656.411ZM332.304 660.495C332.976 660.497 333.522 660.712 333.941 661.142C334.36 661.573 334.569 662.147 334.568 662.866C334.566 663.584 334.355 664.158 333.935 664.586C333.514 665.015 332.967 665.229 332.295 665.227C331.623 665.226 331.073 665.011 330.645 664.58C330.225 664.15 330.016 663.576 330.018 662.857C330.019 662.139 330.23 661.565 330.651 661.136C331.081 660.708 331.632 660.494 332.304 660.495ZM332.303 661.377C331.892 661.377 331.598 661.516 331.42 661.796C331.251 662.066 331.167 662.421 331.166 662.859C331.165 663.289 331.248 663.648 331.416 663.938C331.593 664.218 331.886 664.359 332.297 664.359C333.053 664.361 333.432 663.862 333.434 662.864C333.435 662.434 333.351 662.079 333.184 661.799C333.016 661.519 332.723 661.378 332.303 661.377Z" fill="#002033" fill-opacity="0.65"/>
</g>
<defs>
<filter id="filter0_dd_239_1528" x="0.473633" y="0.429688" width="402.053" height="708.655" filterUnits="userSpaceOnUse" color-interpolation-filters="sRGB">
<feFlood flood-opacity="0" result="BackgroundImageFix"/>
<feColorMatrix in="SourceAlpha" type="matrix" values="0 0 0 0 0 0 0 0 0 0 0 0 0 0 0 0 0 0 127 0" result="hardAlpha"/>
<feMorphology radius="2" operator="erode" in="SourceAlpha" result="effect1_dropShadow_239_1528"/>
<feOffset dy="4"/>
<feGaussianBlur stdDeviation="4"/>
<feComposite in2="hardAlpha" operator="out"/>
<feColorMatrix type="matrix" values="0 0 0 0 0.0784314 0 0 0 0 0.317647 0 0 0 0 0.454902 0 0 0 0.04 0"/>
<feBlend mode="normal" in2="BackgroundImageFix" result="effect1_dropShadow_239_1528"/>
<feColorMatrix in="SourceAlpha" type="matrix" values="0 0 0 0 0 0 0 0 0 0 0 0 0 0 0 0 0 0 127 0" result="hardAlpha"/>
<feMorphology radius="2" operator="erode" in="SourceAlpha" result="effect2_dropShadow_239_1528"/>
<feOffset dy="-4"/>
<feGaussianBlur stdDeviation="2"/>
<feComposite in2="hardAlpha" operator="out"/>
<feColorMatrix type="matrix" values="0 0 0 0 0.0784314 0 0 0 0 0.317647 0 0 0 0 0.454902 0 0 0 0.04 0"/>
<feBlend mode="normal" in2="effect1_dropShadow_239_1528" result="effect2_dropShadow_239_1528"/>
<feBlend mode="normal" in="SourceGraphic" in2="effect2_dropShadow_239_1528" result="shape"/>
</filter>
</defs>
</svg>
