<svg width="33" height="33" viewBox="0 0 33 33" fill="none" xmlns="http://www.w3.org/2000/svg">
<g clip-path="url(#clip0_860_2176)">
<path d="M13.5 2.92969H3.5C3.23478 2.92969 2.98043 3.03504 2.79289 3.22258C2.60536 3.41012 2.5 3.66447 2.5 3.92969V13.9297C2.5 14.1949 2.60536 14.4493 2.79289 14.6368C2.98043 14.8243 3.23478 14.9297 3.5 14.9297H13.5C13.7652 14.9297 14.0196 14.8243 14.2071 14.6368C14.3946 14.4493 14.5 14.1949 14.5 13.9297V3.92969C14.5 3.66447 14.3946 3.41012 14.2071 3.22258C14.0196 3.03504 13.7652 2.92969 13.5 2.92969Z" fill="#737F86"/>
<path d="M32.2 8.22247L25.2 1.22247C25.0124 1.035 24.7581 0.929688 24.493 0.929688C24.2278 0.929688 23.9735 1.035 23.7859 1.22247L16.7859 8.22247C16.5985 8.41 16.4932 8.66431 16.4932 8.92947C16.4932 9.19464 16.5985 9.44895 16.7859 9.63647L23.7859 16.6365C23.9735 16.8239 24.2278 16.9293 24.493 16.9293C24.7581 16.9293 25.0124 16.8239 25.2 16.6365L32.2 9.63647C32.3874 9.44895 32.4927 9.19464 32.4927 8.92947C32.4927 8.66431 32.3874 8.41 32.2 8.22247Z" fill="#737F86"/>
<path d="M29.5 18.9297H19.5C19.2348 18.9297 18.9804 19.035 18.7929 19.2226C18.6054 19.4101 18.5 19.6645 18.5 19.9297V29.9297C18.5 30.1949 18.6054 30.4493 18.7929 30.6368C18.9804 30.8243 19.2348 30.9297 19.5 30.9297H29.5C29.7652 30.9297 30.0196 30.8243 30.2071 30.6368C30.3946 30.4493 30.5 30.1949 30.5 29.9297V19.9297C30.5 19.6645 30.3946 19.4101 30.2071 19.2226C30.0196 19.035 29.7652 18.9297 29.5 18.9297Z" fill="#737F86"/>
<path d="M13.5 18.9297H3.5C3.23478 18.9297 2.98043 19.035 2.79289 19.2226C2.60536 19.4101 2.5 19.6645 2.5 19.9297V29.9297C2.5 30.1949 2.60536 30.4493 2.79289 30.6368C2.98043 30.8243 3.23478 30.9297 3.5 30.9297H13.5C13.7652 30.9297 14.0196 30.8243 14.2071 30.6368C14.3946 30.4493 14.5 30.1949 14.5 29.9297V19.9297C14.5 19.6645 14.3946 19.4101 14.2071 19.2226C14.0196 19.035 13.7652 18.9297 13.5 18.9297Z" fill="#737F86"/>
</g>
<defs>
<clipPath id="clip0_860_2176">
<rect width="32" height="32" fill="white" transform="translate(0.5 0.929688)"/>
</clipPath>
</defs>
</svg>
