<svg width="32" height="33" viewBox="0 0 32 33" fill="none" xmlns="http://www.w3.org/2000/svg">
<g clip-path="url(#clip0_860_2176)">
<path d="M13 2.92969H3C2.73478 2.92969 2.48043 3.03504 2.29289 3.22258C2.10536 3.41012 2 3.66447 2 3.92969V13.9297C2 14.1949 2.10536 14.4493 2.29289 14.6368C2.48043 14.8243 2.73478 14.9297 3 14.9297H13C13.2652 14.9297 13.5196 14.8243 13.7071 14.6368C13.8946 14.4493 14 14.1949 14 13.9297V3.92969C14 3.66447 13.8946 3.41012 13.7071 3.22258C13.5196 3.03504 13.2652 2.92969 13 2.92969Z" fill="#001724" fill-opacity="0.55"/>
<path d="M31.7 8.22247L24.7 1.22247C24.5124 1.035 24.2581 0.929688 23.993 0.929688C23.7278 0.929688 23.4735 1.035 23.2859 1.22247L16.2859 8.22247C16.0985 8.41 15.9932 8.66431 15.9932 8.92947C15.9932 9.19464 16.0985 9.44895 16.2859 9.63647L23.2859 16.6365C23.4735 16.8239 23.7278 16.9293 23.993 16.9293C24.2581 16.9293 24.5124 16.8239 24.7 16.6365L31.7 9.63647C31.8874 9.44895 31.9927 9.19464 31.9927 8.92947C31.9927 8.66431 31.8874 8.41 31.7 8.22247Z" fill="#001724" fill-opacity="0.55"/>
<path d="M29 18.9297H19C18.7348 18.9297 18.4804 19.035 18.2929 19.2226C18.1054 19.4101 18 19.6645 18 19.9297V29.9297C18 30.1949 18.1054 30.4493 18.2929 30.6368C18.4804 30.8243 18.7348 30.9297 19 30.9297H29C29.2652 30.9297 29.5196 30.8243 29.7071 30.6368C29.8946 30.4493 30 30.1949 30 29.9297V19.9297C30 19.6645 29.8946 19.4101 29.7071 19.2226C29.5196 19.035 29.2652 18.9297 29 18.9297Z" fill="#001724" fill-opacity="0.55"/>
<path d="M13 18.9297H3C2.73478 18.9297 2.48043 19.035 2.29289 19.2226C2.10536 19.4101 2 19.6645 2 19.9297V29.9297C2 30.1949 2.10536 30.4493 2.29289 30.6368C2.48043 30.8243 2.73478 30.9297 3 30.9297H13C13.2652 30.9297 13.5196 30.8243 13.7071 30.6368C13.8946 30.4493 14 30.1949 14 29.9297V19.9297C14 19.6645 13.8946 19.4101 13.7071 19.2226C13.5196 19.035 13.2652 18.9297 13 18.9297Z" fill="#001724" fill-opacity="0.55"/>
</g>
<defs>
<clipPath id="clip0_860_2176">
<rect width="32" height="32" fill="white" transform="translate(0 0.929688)"/>
</clipPath>
</defs>
</svg>
