<svg width="33" height="33" viewBox="0 0 33 33" fill="none" xmlns="http://www.w3.org/2000/svg">
<path d="M28.5 21.4297C28.5 20.634 28.8161 19.871 29.3787 19.3084C29.9413 18.7458 30.7044 18.4297 31.5 18.4297V14.4297C30.7044 14.4297 29.9413 14.1136 29.3787 13.551C28.8161 12.9884 28.5 12.2253 28.5 11.4297C28.5 10.634 28.8161 9.87098 29.3787 9.30837C29.9413 8.74576 30.7044 8.42969 31.5 8.42969V5.42969C31.5 4.36882 31.0786 3.35141 30.3284 2.60126C29.5783 1.85111 28.5609 1.42969 27.5 1.42969H5.5C4.43913 1.42969 3.42172 1.85111 2.67157 2.60126C1.92143 3.35141 1.5 4.36882 1.5 5.42969V8.42969C2.29565 8.42969 3.05871 8.74576 3.62132 9.30837C4.18393 9.87098 4.5 10.634 4.5 11.4297C4.5 12.2253 4.18393 12.9884 3.62132 13.551C3.05871 14.1136 2.29565 14.4297 1.5 14.4297V18.4297C2.29565 18.4297 3.05871 18.7458 3.62132 19.3084C4.18393 19.871 4.5 20.634 4.5 21.4297C4.5 22.2253 4.18393 22.9884 3.62132 23.551C3.05871 24.1136 2.29565 24.4297 1.5 24.4297V27.4297C1.5 28.4906 1.92143 29.508 2.67157 30.2581C3.42172 31.0083 4.43913 31.4297 5.5 31.4297H27.5C28.5609 31.4297 29.5783 31.0083 30.3284 30.2581C31.0786 29.508 31.5 28.4906 31.5 27.4297V24.4297C30.7044 24.4297 29.9413 24.1136 29.3787 23.551C28.8161 22.9884 28.5 22.2253 28.5 21.4297ZM14.5 24.4297H8.5V18.4297H14.5V24.4297ZM14.5 14.4297H8.5V8.42969H14.5V14.4297ZM24.5 24.4297H18.5V18.4297H24.5V24.4297ZM24.5 14.4297H18.5V8.42969H24.5V14.4297Z" fill="#737F86"/>
</svg>
