<svg width="33" height="33" viewBox="0 0 33 33" fill="none" xmlns="http://www.w3.org/2000/svg">
<g clip-path="url(#clip0_860_2267)">
<path d="M19.5 28.9299H13.5C12.948 28.9299 12.5 29.3779 12.5 29.9299H11.5C8.743 29.9299 6.5 27.6869 6.5 24.9299V23.6719H4.5V24.9299C4.5 28.7899 7.64 31.9299 11.5 31.9299H12.5C12.5 32.4819 12.948 32.9299 13.5 32.9299H19.5C20.052 32.9299 20.5 32.4819 20.5 31.9299V29.9299C20.5 29.3779 20.052 28.9299 19.5 28.9299Z" fill="#737F86"/>
<path d="M29.5 15.9817V10.9297C29.5 5.41569 25.014 0.929688 19.5 0.929688H13.5C7.986 0.929688 3.5 5.41569 3.5 10.9297V15.9817C2.87 16.9827 2.5 18.1627 2.5 19.4297C2.5 23.0137 5.416 25.9297 9 25.9297C9.59 25.9297 10.186 25.8457 10.772 25.6797L11.5 25.4727V13.3867L10.772 13.1807C10.186 13.0137 9.59 12.9297 9 12.9297C7.711 12.9297 6.512 13.3117 5.5 13.9617V10.9297C5.5 6.51869 9.089 2.92969 13.5 2.92969H19.5C23.911 2.92969 27.5 6.51869 27.5 10.9297V13.9617C26.488 13.3117 25.289 12.9297 24 12.9297C23.41 12.9297 22.814 13.0137 22.228 13.1797L21.5 13.3867V25.4737L22.228 25.6797C22.814 25.8457 23.41 25.9297 24 25.9297C27.584 25.9297 30.5 23.0137 30.5 19.4297C30.5 18.1627 30.13 16.9827 29.5 15.9817Z" fill="#737F86"/>
</g>
<defs>
<clipPath id="clip0_860_2267">
<rect width="32" height="32" fill="white" transform="translate(0.5 0.929688)"/>
</clipPath>
</defs>
</svg>
