<svg width="33" height="33" viewBox="0 0 33 33" fill="none" xmlns="http://www.w3.org/2000/svg">
<path d="M27.5 3.92969H5.5C3.294 3.92969 1.5 5.72369 1.5 7.92969V25.9297C1.5 28.1357 3.294 29.9297 5.5 29.9297H27.5C29.706 29.9297 31.5 28.1357 31.5 25.9297V7.92969C31.5 5.72369 29.706 3.92969 27.5 3.92969ZM12 7.92969C12.827 7.92969 13.5 8.60269 13.5 9.42969C13.5 10.2567 12.827 10.9297 12 10.9297C11.173 10.9297 10.5 10.2567 10.5 9.42969C10.5 8.60269 11.173 7.92969 12 7.92969ZM7 7.92969C7.827 7.92969 8.5 8.60269 8.5 9.42969C8.5 10.2567 7.827 10.9297 7 10.9297C6.173 10.9297 5.5 10.2567 5.5 9.42969C5.5 8.60269 6.173 7.92969 7 7.92969ZM29.5 25.9297C29.5 27.0327 28.603 27.9297 27.5 27.9297H5.5C4.397 27.9297 3.5 27.0327 3.5 25.9297V13.9297H29.5V25.9297Z" fill="#737F86"/>
<path fill-rule="evenodd" clip-rule="evenodd" d="M19.4999 26.344L24.4141 21.4298L19.4999 16.5156L18.0857 17.9298L21.5857 21.4298L18.0857 24.9298L19.4999 26.344Z" fill="#737F86"/>
<path fill-rule="evenodd" clip-rule="evenodd" d="M13.4999 26.344L8.58569 21.4298L13.4999 16.5156L14.9141 17.9298L11.4141 21.4298L14.9141 24.9298L13.4999 26.344Z" fill="#737F86"/>
</svg>
