<svg width="33" height="33" viewBox="0 0 33 33" fill="none" xmlns="http://www.w3.org/2000/svg">
<path d="M29.646 1.27734H3.646C3.11556 1.27734 2.60686 1.48806 2.23178 1.86313C1.85671 2.2382 1.646 2.74691 1.646 3.27734V29.2773C1.646 29.8078 1.85671 30.3165 2.23178 30.6916C2.60686 31.0666 3.11556 31.2773 3.646 31.2773H29.646C30.1764 31.2773 30.6851 31.0666 31.0602 30.6916C31.4353 30.3165 31.646 29.8078 31.646 29.2773V3.27734C31.646 2.74691 31.4353 2.2382 31.0602 1.86313C30.6851 1.48806 30.1764 1.27734 29.646 1.27734ZM10.533 26.8713H6.02V12.5273H10.533V26.8713ZM8.276 10.5583C7.75716 10.5568 7.25044 10.4015 6.81981 10.1121C6.38918 9.82267 6.05398 9.41215 5.85652 8.93236C5.65907 8.45256 5.60823 7.92502 5.71041 7.41635C5.8126 6.90767 6.06324 6.44069 6.43067 6.07438C6.7981 5.70807 7.26584 5.45885 7.77482 5.35821C8.2838 5.25757 8.81119 5.31002 9.29038 5.50893C9.76957 5.70785 10.1791 6.0443 10.4672 6.47581C10.7552 6.90731 10.909 7.41451 10.909 7.93334C10.9091 8.27878 10.8411 8.62083 10.7087 8.9399C10.5763 9.25896 10.3822 9.54874 10.1376 9.79263C9.89299 10.0365 9.60262 10.2297 9.28315 10.3611C8.96369 10.4925 8.62143 10.5595 8.276 10.5583ZM27.267 26.8713H22.846V19.9333C22.846 18.2463 22.846 16.1833 20.496 16.1833C18.146 16.1833 17.863 17.9653 17.863 19.8393V26.9653H13.446V12.5273H17.582V14.4963H17.676C18.1026 13.7588 18.7216 13.1512 19.4668 12.7383C20.2121 12.3254 21.0555 12.1229 21.907 12.1523C26.42 12.1523 27.266 15.1523 27.266 18.9963L27.267 26.8713Z" fill="#212121"/>
</svg>
