<svg width="24" height="25" viewBox="0 0 24 25" fill="none" xmlns="http://www.w3.org/2000/svg">
<path d="M21.75 1.46484H2.25C1.85218 1.46484 1.47064 1.62288 1.18934 1.90418C0.908035 2.18549 0.75 2.56702 0.75 2.96484V22.4648C0.75 22.8627 0.908035 23.2442 1.18934 23.5255C1.47064 23.8068 1.85218 23.9648 2.25 23.9648H21.75C22.1478 23.9648 22.5294 23.8068 22.8107 23.5255C23.092 23.2442 23.25 22.8627 23.25 22.4648V2.96484C23.25 2.56702 23.092 2.18549 22.8107 1.90418C22.5294 1.62288 22.1478 1.46484 21.75 1.46484ZM7.41525 20.6603H4.0305V9.90234H7.41525V20.6603ZM5.7225 8.42559C5.33338 8.42441 4.95333 8.30794 4.63036 8.09089C4.30739 7.87384 4.05599 7.56595 3.9079 7.2061C3.75981 6.84626 3.72167 6.4506 3.79831 6.06909C3.87495 5.68759 4.06293 5.33735 4.3385 5.06262C4.61408 4.78789 4.96488 4.60097 5.34662 4.5255C5.72835 4.45002 6.1239 4.48935 6.48329 4.63854C6.84268 4.78772 7.1498 5.04006 7.36587 5.36369C7.58193 5.68732 7.69725 6.06772 7.69725 6.45684C7.69735 6.71592 7.6463 6.97246 7.54702 7.21176C7.44774 7.45105 7.30219 7.66839 7.11872 7.85131C6.93525 8.03422 6.71746 8.17911 6.47787 8.27766C6.23827 8.37621 5.98157 8.42648 5.7225 8.42559ZM19.9657 20.6603H16.65V15.4568C16.65 14.1916 16.65 12.6443 14.8875 12.6443C13.125 12.6443 12.9127 13.9808 12.9127 15.3863V20.7308H9.6V9.90234H12.702V11.3791H12.7725C13.0924 10.826 13.5567 10.3702 14.1156 10.0606C14.6746 9.7509 15.3072 9.599 15.9457 9.62109C19.3305 9.62109 19.965 11.8711 19.965 14.7541L19.9657 20.6603Z" fill="#001724" fill-opacity="0.55"/>
</svg>
