<svg width="24" height="25" viewBox="0 0 24 25" fill="none" xmlns="http://www.w3.org/2000/svg">
<g clip-path="url(#clip0_352_1342)">
<path d="M9.68586 11.9105C9.68586 11.9105 11.957 11.7418 11.957 9.07844C11.957 6.415 10.0988 5.11523 7.74508 5.11523H3.41265H3.28537H0V19.9995H3.28537H3.41265H7.74507C7.74507 19.9995 12.4731 20.1486 12.4731 15.6063C12.4731 15.6063 12.6796 11.9105 9.68586 11.9105ZM3.41265 7.76057H7.18759H7.74508C7.74508 7.76057 8.79803 7.76057 8.79803 9.30908C8.79803 10.8576 8.17862 11.0821 7.47667 11.0821H3.41265V7.76057ZM7.54539 17.3542H3.41265V13.3765H7.74507C7.74507 13.3765 9.3142 13.3559 9.3142 15.4205C9.31421 17.1419 8.16648 17.3369 7.54539 17.3542Z" fill="#001724" fill-opacity="0.55"/>
<path d="M18.7791 8.90234C13.0553 8.90234 13.0605 14.621 13.0605 14.621C13.0605 14.621 12.6677 20.3108 18.7793 20.3108C18.7793 20.3108 23.8724 20.6017 23.8724 16.3527H21.253C21.253 16.3527 21.3403 17.9532 18.8666 17.9532C18.8666 17.9532 16.2472 18.1284 16.2472 15.3633H23.9597C23.9597 15.3633 24.8034 8.90234 18.7791 8.90234ZM21.1073 13.3767H16.218C16.218 13.3767 16.5382 11.0824 18.8374 11.0824C21.1366 11.0824 21.1073 13.3767 21.1073 13.3767Z" fill="#001724" fill-opacity="0.55"/>
<path d="M21.7179 5.96484H15.5771V7.46484H21.7179V5.96484Z" fill="#001724" fill-opacity="0.55"/>
</g>
<defs>
<clipPath id="clip0_352_1342">
<rect width="24" height="24" fill="white" transform="translate(0 0.714844)"/>
</clipPath>
</defs>
</svg>
