<svg width="166" height="37" viewBox="0 0 166 37" fill="none" xmlns="http://www.w3.org/2000/svg">
<path d="M149.736 5.54618H143.671V0.503906H161.601V5.54618H155.536V26.5775H149.736V5.54618Z" fill="#001826" fill-opacity="0.9"/>
<path d="M117.479 0.503906H124.756L130.398 21.631H130.504V0.503906H135.672V35.7998H129.713L122.752 10.0338H122.646V35.7998H117.479V0.503906Z" fill="#001826" fill-opacity="0.9"/>
<path d="M93.6584 7.12305H96.1589H99.4591V16.337H107.422V21.0369H99.4591V31.1418H109.478V35.8417H93.6584V7.12305Z" fill="#001826" fill-opacity="0.9"/>
<path d="M77.1155 36.3043C74.3383 36.3043 72.2114 35.548 70.7348 34.0353C69.2934 32.5226 68.5728 30.3881 68.5728 27.6316V8.6727C68.5728 5.91626 69.2934 3.7817 70.7348 2.26902C72.2114 0.756341 74.3383 0 77.1155 0C79.8928 0 82.0022 0.756341 83.4435 2.26902C84.9201 3.7817 85.6583 5.91626 85.6583 8.6727V12.404H80.1741V8.31975C80.1741 6.13476 79.2073 5.04227 77.2737 5.04227C75.3402 5.04227 74.3734 6.13476 74.3734 8.31975V28.035C74.3734 30.1864 75.3402 31.2621 77.2737 31.2621C79.2073 31.2621 80.1741 30.1864 80.1741 28.035V22.6398H85.6583V27.6316C85.6583 30.3881 84.9201 32.5226 83.4435 34.0353C82.0022 35.548 79.8928 36.3043 77.1155 36.3043Z" fill="#001826" fill-opacity="0.9"/>
<path d="M42.3799 0.503906H49.6571L55.2995 21.631H55.405V0.503906H60.5729V35.7998H54.614L47.6532 10.0338H47.5477V35.7998H42.3799V0.503906Z" fill="#001826" fill-opacity="0.9"/>
<path d="M26.8784 10.1338H34.38V35.9432H26.8784V10.1338Z" fill="#001826" fill-opacity="0.9"/>
<path d="M0 0.503906H5.85339L9.65019 27.8834H9.75565L13.5525 0.503906H18.8785L13.2888 35.7998H5.58973L0 0.503906Z" fill="#001826" fill-opacity="0.9"/>
<ellipse cx="30.6292" cy="4.54736" rx="3.75077" ry="3.58642" fill="#FAA342"/>
<path d="M93.6584 0H107.536V5.12346H93.6584V0Z" fill="#56CCF2"/>
<path d="M149.679 28.5781H155.573V36.7757H149.679V28.5781Z" fill="#155A32"/>
</svg>
