<svg width="128" height="230" viewBox="0 0 128 230" fill="none" xmlns="http://www.w3.org/2000/svg">
<path d="M64 229.474C43.3054 229.474 27.4651 224.598 16.479 214.844C5.49301 205.09 0 191.308 0 173.497V56.4521C0 38.641 5.49301 24.8586 16.479 15.1049C27.4651 5.35122 43.3054 0.474365 64 0.474365C84.6946 0.474365 100.535 5.35122 111.521 15.1049C122.507 24.8586 128 38.641 128 56.4521V173.497C128 191.308 122.507 205.09 111.521 214.844C100.535 224.598 84.6946 229.474 64 229.474ZM64 197.669C78.5629 197.669 85.8443 190.354 85.8443 175.723V54.2258C85.8443 39.5952 78.5629 32.2799 64 32.2799C49.4371 32.2799 42.1557 39.5952 42.1557 54.2258V175.723C42.1557 190.354 49.4371 197.669 64 197.669Z" fill="#005180" fill-opacity="0.02"/>
</svg>
