<svg width="32" height="33" viewBox="0 0 32 33" fill="none" xmlns="http://www.w3.org/2000/svg">
<path d="M22.447 5.03467L16.447 2.03467C16.3082 1.96531 16.1552 1.9292 16 1.9292C15.8448 1.9292 15.6918 1.96531 15.553 2.03467L9.553 5.03467C9.38677 5.11773 9.24697 5.24548 9.14929 5.40356C9.05161 5.56165 8.99991 5.74383 9 5.92967V12.9297C8.99991 13.1155 9.05161 13.2977 9.14929 13.4558C9.24697 13.6139 9.38677 13.7416 9.553 13.8247L15.553 16.8247C15.6918 16.894 15.8448 16.9301 16 16.9301C16.1552 16.9301 16.3082 16.894 16.447 16.8247L22.447 13.8247C22.6132 13.7416 22.753 13.6139 22.8507 13.4558C22.9484 13.2977 23.0001 13.1155 23 12.9297V5.92967C23.0001 5.74383 22.9484 5.56165 22.8507 5.40356C22.753 5.24548 22.6132 5.11773 22.447 5.03467ZM16 4.04767L19.764 5.92967L16 7.81167L12.236 5.92967L16 4.04767Z" fill="#737F86"/>
<path d="M29.5911 28.0607L24.3551 19.4117C24.2661 19.2646 24.1406 19.143 23.9908 19.0586C23.8411 18.9741 23.672 18.9298 23.5001 18.9297H8.50012C8.32819 18.9298 8.15918 18.9741 8.00941 19.0586C7.85965 19.143 7.73417 19.2646 7.64512 19.4117L2.42412 28.0377C2.1719 28.414 2.02665 28.8517 2.00389 29.3041C1.98113 29.7565 2.08172 30.2066 2.29491 30.6063C2.5081 31.006 2.82588 31.3402 3.21429 31.5733C3.60269 31.8064 4.04713 31.9296 4.50012 31.9297H27.5001C27.9507 31.9295 28.3929 31.8076 28.7799 31.5767C29.167 31.3459 29.4844 31.0148 29.6986 30.6183C29.9129 30.2219 30.016 29.7749 29.9971 29.3247C29.9781 28.8745 29.8379 28.4377 29.5911 28.0607ZM5.43012 26.9297L9.06312 20.9297H22.9361L26.5681 26.9297H5.43012Z" fill="#737F86"/>
</svg>
