<svg width="33" height="33" viewBox="0 0 33 33" fill="none" xmlns="http://www.w3.org/2000/svg">
<path d="M22.947 5.03467L16.947 2.03467C16.8082 1.96531 16.6552 1.9292 16.5 1.9292C16.3448 1.9292 16.1918 1.96531 16.053 2.03467L10.053 5.03467C9.88677 5.11773 9.74697 5.24548 9.64929 5.40356C9.55161 5.56165 9.49991 5.74383 9.5 5.92967V12.9297C9.49991 13.1155 9.55161 13.2977 9.64929 13.4558C9.74697 13.6139 9.88677 13.7416 10.053 13.8247L16.053 16.8247C16.1918 16.894 16.3448 16.9301 16.5 16.9301C16.6552 16.9301 16.8082 16.894 16.947 16.8247L22.947 13.8247C23.1132 13.7416 23.253 13.6139 23.3507 13.4558C23.4484 13.2977 23.5001 13.1155 23.5 12.9297V5.92967C23.5001 5.74383 23.4484 5.56165 23.3507 5.40356C23.253 5.24548 23.1132 5.11773 22.947 5.03467ZM16.5 4.04767L20.264 5.92967L16.5 7.81167L12.736 5.92967L16.5 4.04767Z" fill="#737F86"/>
<path d="M30.0911 28.0607L24.8551 19.4117C24.7661 19.2646 24.6406 19.143 24.4908 19.0586C24.3411 18.9741 24.172 18.9298 24.0001 18.9297H9.00012C8.82819 18.9298 8.65918 18.9741 8.50941 19.0586C8.35965 19.143 8.23417 19.2646 8.14512 19.4117L2.92412 28.0377C2.6719 28.414 2.52665 28.8517 2.50389 29.3041C2.48113 29.7565 2.58172 30.2066 2.79491 30.6063C3.0081 31.006 3.32588 31.3402 3.71429 31.5733C4.10269 31.8064 4.54713 31.9296 5.00012 31.9297H28.0001C28.4507 31.9295 28.8929 31.8076 29.2799 31.5767C29.6669 31.3459 29.9844 31.0148 30.1986 30.6183C30.4129 30.2219 30.516 29.7749 30.4971 29.3247C30.4781 28.8745 30.3379 28.4377 30.0911 28.0607ZM5.93012 26.9297L9.56312 20.9297H23.4361L27.0681 26.9297H5.93012Z" fill="#737F86"/>
</svg>
