<svg width="732" height="312" viewBox="0 0 732 312" fill="none" xmlns="http://www.w3.org/2000/svg">
<path d="M96.4801 99.9846C97.369 99.5051 98.4396 99.5051 99.3285 99.9846L192.733 148.985C194.834 150.118 194.834 153.132 192.733 154.265L99.3285 203.265C98.4396 203.745 97.369 203.745 96.4801 203.265L3.07579 154.265C0.974736 153.132 0.974737 150.118 3.07579 148.985L96.4801 99.9846Z" fill="white" stroke="#004166" stroke-opacity="0.1" stroke-width="2" stroke-linecap="round"/>
<path d="M62.5933 136.259V145.625H61.3053V137.631L59.1213 138.961L58.5613 138.051L61.4593 136.259H62.5933ZM67.4599 138.079C67.9639 138.079 68.4166 138.149 68.8179 138.289C69.2193 138.429 69.6019 138.639 69.9659 138.919L69.4199 139.731C69.0839 139.516 68.7619 139.358 68.4539 139.255C68.1553 139.152 67.8379 139.101 67.5019 139.101C67.0819 139.101 66.7506 139.19 66.5079 139.367C66.2653 139.535 66.1439 139.768 66.1439 140.067C66.1439 140.366 66.2559 140.599 66.4799 140.767C66.7133 140.935 67.1286 141.098 67.7259 141.257C68.5473 141.462 69.1586 141.742 69.5599 142.097C69.9706 142.452 70.1759 142.937 70.1759 143.553C70.1759 144.281 69.8913 144.836 69.3219 145.219C68.7619 145.602 68.0759 145.793 67.2639 145.793C66.1439 145.793 65.2153 145.471 64.4779 144.827L65.1639 144.043C65.7893 144.519 66.4799 144.757 67.2359 144.757C67.7213 144.757 68.1039 144.659 68.3839 144.463C68.6733 144.258 68.8179 143.982 68.8179 143.637C68.8179 143.385 68.7666 143.184 68.6639 143.035C68.5613 142.876 68.3839 142.741 68.1319 142.629C67.8799 142.508 67.5113 142.382 67.0259 142.251C66.2419 142.046 65.6726 141.77 65.3179 141.425C64.9726 141.08 64.7999 140.641 64.7999 140.109C64.7999 139.726 64.9119 139.381 65.1359 139.073C65.3693 138.756 65.6866 138.513 66.0879 138.345C66.4986 138.168 66.9559 138.079 67.4599 138.079ZM75.7171 145.289C75.2317 145.625 74.6811 145.793 74.0651 145.793C73.4397 145.793 72.9497 145.616 72.5951 145.261C72.2497 144.897 72.0771 144.374 72.0771 143.693V139.241H70.7891V138.247H72.0771V136.581L73.3651 136.427V138.247H75.1151L74.9751 139.241H73.3651V143.637C73.3651 144.02 73.4304 144.3 73.5611 144.477C73.7011 144.645 73.9297 144.729 74.2471 144.729C74.5364 144.729 74.8631 144.631 75.2271 144.435L75.7171 145.289ZM84.4808 145.289C83.9954 145.625 83.4448 145.793 82.8288 145.793C82.2034 145.793 81.7134 145.616 81.3588 145.261C81.0134 144.897 80.8408 144.374 80.8408 143.693V139.241H79.5528V138.247H80.8408V136.581L82.1288 136.427V138.247H83.8788L83.7388 139.241H82.1288V143.637C82.1288 144.02 82.1941 144.3 82.3248 144.477C82.4648 144.645 82.6934 144.729 83.0108 144.729C83.3001 144.729 83.6268 144.631 83.9908 144.435L84.4808 145.289ZM87.1033 138.247V145.625H85.8153V138.247H87.1033ZM86.4453 134.705C86.716 134.705 86.9353 134.789 87.1033 134.957C87.2713 135.125 87.3553 135.335 87.3553 135.587C87.3553 135.839 87.2713 136.049 87.1033 136.217C86.9353 136.376 86.716 136.455 86.4453 136.455C86.184 136.455 85.9693 136.376 85.8013 136.217C85.6333 136.049 85.5493 135.839 85.5493 135.587C85.5493 135.335 85.6333 135.125 85.8013 134.957C85.9693 134.789 86.184 134.705 86.4453 134.705ZM97.1725 138.079C97.7792 138.079 98.2645 138.284 98.6285 138.695C98.9925 139.096 99.1745 139.642 99.1745 140.333V145.625H97.8865V140.515C97.8865 139.563 97.5412 139.087 96.8505 139.087C96.4865 139.087 96.1785 139.194 95.9265 139.409C95.6745 139.614 95.4039 139.941 95.1145 140.389V145.625H93.8265V140.515C93.8265 139.563 93.4812 139.087 92.7905 139.087C92.4172 139.087 92.1045 139.194 91.8525 139.409C91.6005 139.624 91.3345 139.95 91.0545 140.389V145.625H89.7665V138.247H90.8725L90.9845 139.325C91.5352 138.494 92.2445 138.079 93.1125 138.079C93.5699 138.079 93.9572 138.196 94.2745 138.429C94.6012 138.662 94.8345 138.989 94.9745 139.409C95.2639 138.98 95.5812 138.653 95.9265 138.429C96.2812 138.196 96.6965 138.079 97.1725 138.079ZM107.342 141.719C107.342 141.934 107.333 142.153 107.314 142.377H102.61C102.666 143.189 102.872 143.786 103.226 144.169C103.581 144.552 104.038 144.743 104.598 144.743C104.953 144.743 105.28 144.692 105.578 144.589C105.877 144.486 106.19 144.323 106.516 144.099L107.076 144.869C106.292 145.485 105.434 145.793 104.5 145.793C103.474 145.793 102.671 145.457 102.092 144.785C101.523 144.113 101.238 143.189 101.238 142.013C101.238 141.248 101.36 140.571 101.602 139.983C101.854 139.386 102.209 138.919 102.666 138.583C103.133 138.247 103.679 138.079 104.304 138.079C105.284 138.079 106.036 138.401 106.558 139.045C107.081 139.689 107.342 140.58 107.342 141.719ZM106.068 141.341C106.068 140.613 105.924 140.058 105.634 139.675C105.345 139.292 104.911 139.101 104.332 139.101C103.278 139.101 102.704 139.876 102.61 141.425H106.068V141.341ZM115.106 138.079C115.61 138.079 116.063 138.149 116.464 138.289C116.866 138.429 117.248 138.639 117.612 138.919L117.066 139.731C116.73 139.516 116.408 139.358 116.1 139.255C115.802 139.152 115.484 139.101 115.148 139.101C114.728 139.101 114.397 139.19 114.154 139.367C113.912 139.535 113.79 139.768 113.79 140.067C113.79 140.366 113.902 140.599 114.126 140.767C114.36 140.935 114.775 141.098 115.372 141.257C116.194 141.462 116.805 141.742 117.206 142.097C117.617 142.452 117.822 142.937 117.822 143.553C117.822 144.281 117.538 144.836 116.968 145.219C116.408 145.602 115.722 145.793 114.91 145.793C113.79 145.793 112.862 145.471 112.124 144.827L112.81 144.043C113.436 144.519 114.126 144.757 114.882 144.757C115.368 144.757 115.75 144.659 116.03 144.463C116.32 144.258 116.464 143.982 116.464 143.637C116.464 143.385 116.413 143.184 116.31 143.035C116.208 142.876 116.03 142.741 115.778 142.629C115.526 142.508 115.158 142.382 114.672 142.251C113.888 142.046 113.319 141.77 112.964 141.425C112.619 141.08 112.446 140.641 112.446 140.109C112.446 139.726 112.558 139.381 112.782 139.073C113.016 138.756 113.333 138.513 113.734 138.345C114.145 138.168 114.602 138.079 115.106 138.079ZM120.928 138.247V145.625H119.64V138.247H120.928ZM120.27 134.705C120.54 134.705 120.76 134.789 120.928 134.957C121.096 135.125 121.18 135.335 121.18 135.587C121.18 135.839 121.096 136.049 120.928 136.217C120.76 136.376 120.54 136.455 120.27 136.455C120.008 136.455 119.794 136.376 119.626 136.217C119.458 136.049 119.374 135.839 119.374 135.587C119.374 135.335 119.458 135.125 119.626 134.957C119.794 134.789 120.008 134.705 120.27 134.705ZM129.541 138.583C129.261 138.676 128.953 138.737 128.617 138.765C128.281 138.793 127.87 138.807 127.385 138.807C128.253 139.199 128.687 139.82 128.687 140.669C128.687 141.406 128.435 142.008 127.931 142.475C127.427 142.942 126.741 143.175 125.873 143.175C125.537 143.175 125.224 143.128 124.935 143.035C124.823 143.11 124.734 143.212 124.669 143.343C124.603 143.464 124.571 143.59 124.571 143.721C124.571 144.122 124.893 144.323 125.537 144.323H126.713C127.207 144.323 127.646 144.412 128.029 144.589C128.411 144.766 128.705 145.009 128.911 145.317C129.125 145.625 129.233 145.975 129.233 146.367C129.233 147.086 128.939 147.636 128.351 148.019C127.763 148.411 126.904 148.607 125.775 148.607C124.981 148.607 124.351 148.523 123.885 148.355C123.427 148.196 123.101 147.954 122.905 147.627C122.709 147.3 122.611 146.88 122.611 146.367H123.773C123.773 146.666 123.829 146.899 123.941 147.067C124.053 147.244 124.253 147.375 124.543 147.459C124.832 147.552 125.243 147.599 125.775 147.599C126.549 147.599 127.1 147.501 127.427 147.305C127.763 147.118 127.931 146.834 127.931 146.451C127.931 146.106 127.8 145.844 127.539 145.667C127.277 145.49 126.913 145.401 126.447 145.401H125.285C124.659 145.401 124.183 145.27 123.857 145.009C123.539 144.738 123.381 144.402 123.381 144.001C123.381 143.758 123.451 143.525 123.591 143.301C123.731 143.077 123.931 142.876 124.193 142.699C123.763 142.475 123.446 142.2 123.241 141.873C123.045 141.537 122.947 141.131 122.947 140.655C122.947 140.16 123.068 139.717 123.311 139.325C123.563 138.933 123.903 138.63 124.333 138.415C124.771 138.191 125.257 138.079 125.789 138.079C126.367 138.088 126.853 138.07 127.245 138.023C127.637 137.967 127.959 137.897 128.211 137.813C128.472 137.72 128.789 137.589 129.163 137.421L129.541 138.583ZM125.789 139.003C125.303 139.003 124.925 139.157 124.655 139.465C124.393 139.764 124.263 140.16 124.263 140.655C124.263 141.159 124.398 141.565 124.669 141.873C124.939 142.172 125.322 142.321 125.817 142.321C126.321 142.321 126.703 142.176 126.965 141.887C127.235 141.588 127.371 141.173 127.371 140.641C127.371 139.549 126.843 139.003 125.789 139.003ZM134.336 138.079C135.008 138.079 135.531 138.28 135.904 138.681C136.287 139.082 136.478 139.633 136.478 140.333V145.625H135.19V140.515C135.19 139.992 135.092 139.624 134.896 139.409C134.7 139.194 134.411 139.087 134.028 139.087C133.636 139.087 133.291 139.199 132.992 139.423C132.694 139.647 132.414 139.969 132.152 140.389V145.625H130.864V138.247H131.97L132.082 139.339C132.344 138.947 132.666 138.639 133.048 138.415C133.44 138.191 133.87 138.079 134.336 138.079ZM93.5592 166.625H92.4532L92.3552 165.477C92.0752 165.934 91.7532 166.27 91.3892 166.485C91.0252 166.69 90.5819 166.793 90.0592 166.793C89.4152 166.793 88.9112 166.597 88.5472 166.205C88.1832 165.813 88.0012 165.258 88.0012 164.539V159.247H89.2892V164.399C89.2892 164.903 89.3779 165.262 89.5552 165.477C89.7325 165.682 90.0219 165.785 90.4232 165.785C91.1419 165.785 91.7579 165.36 92.2712 164.511V159.247H93.5592V166.625ZM99.6076 159.079C100.55 159.079 101.241 159.415 101.68 160.087C102.118 160.759 102.338 161.706 102.338 162.929C102.338 164.086 102.086 165.02 101.582 165.729C101.078 166.438 100.364 166.793 99.4396 166.793C98.6183 166.793 97.9743 166.513 97.5076 165.953V169.453L96.2196 169.607V159.247H97.3256L97.4236 160.241C97.6943 159.868 98.021 159.583 98.4036 159.387C98.7863 159.182 99.1876 159.079 99.6076 159.079ZM99.1316 165.743C100.345 165.743 100.952 164.805 100.952 162.929C100.952 161.044 100.396 160.101 99.2856 160.101C98.9216 160.101 98.5903 160.208 98.2916 160.423C97.993 160.638 97.7316 160.913 97.5076 161.249V164.847C97.6943 165.136 97.9276 165.36 98.2076 165.519C98.4876 165.668 98.7956 165.743 99.1316 165.743ZM105.974 156.811C106.534 156.811 107.014 156.914 107.416 157.119C107.826 157.315 108.134 157.581 108.34 157.917C108.545 158.253 108.648 158.612 108.648 158.995C108.648 159.359 108.582 159.672 108.452 159.933C108.33 160.185 108.181 160.39 108.004 160.549C107.826 160.708 107.588 160.894 107.29 161.109C106.898 161.38 106.604 161.632 106.408 161.865C106.212 162.089 106.114 162.392 106.114 162.775V163.405H104.84V162.705C104.84 162.304 104.905 161.963 105.036 161.683C105.176 161.403 105.339 161.179 105.526 161.011C105.712 160.843 105.96 160.652 106.268 160.437C106.622 160.204 106.884 159.994 107.052 159.807C107.22 159.62 107.304 159.378 107.304 159.079C107.304 158.696 107.178 158.402 106.926 158.197C106.674 157.982 106.328 157.875 105.89 157.875C105.143 157.875 104.494 158.211 103.944 158.883L103.062 158.197C103.846 157.273 104.816 156.811 105.974 156.811ZM105.512 164.847C105.792 164.847 106.025 164.94 106.212 165.127C106.398 165.314 106.492 165.542 106.492 165.813C106.492 166.084 106.398 166.317 106.212 166.513C106.025 166.7 105.792 166.793 105.512 166.793C105.241 166.793 105.012 166.7 104.826 166.513C104.639 166.317 104.546 166.084 104.546 165.813C104.546 165.542 104.639 165.314 104.826 165.127C105.012 164.94 105.241 164.847 105.512 164.847Z" fill="#001826" fill-opacity="0.9"/>
<path d="M286.122 5.48389H376.099V60.5721H286.122V5.48389Z" fill="white" stroke="#004166" stroke-opacity="0.1" stroke-width="2" stroke-linecap="round"/>
<path d="M311.279 28.1699C311.923 28.1699 312.474 28.2632 312.931 28.4499C313.389 28.6272 313.832 28.9072 314.261 29.2899L313.533 30.1019C313.169 29.8126 312.81 29.6026 312.455 29.4719C312.11 29.3319 311.737 29.2619 311.335 29.2619C310.831 29.2619 310.416 29.3786 310.089 29.6119C309.763 29.8452 309.599 30.1859 309.599 30.6339C309.599 30.9139 309.655 31.1519 309.767 31.3479C309.879 31.5346 310.085 31.7072 310.383 31.8659C310.691 32.0246 311.135 32.1926 311.713 32.3699C312.32 32.5566 312.824 32.7572 313.225 32.9719C313.627 33.1866 313.949 33.4852 314.191 33.8679C314.443 34.2412 314.569 34.7172 314.569 35.2959C314.569 35.8559 314.429 36.3506 314.149 36.7799C313.879 37.2092 313.482 37.5452 312.959 37.7879C312.446 38.0306 311.835 38.1519 311.125 38.1519C309.791 38.1519 308.699 37.7366 307.849 36.9059L308.577 36.0939C308.969 36.4112 309.366 36.6539 309.767 36.8219C310.169 36.9806 310.617 37.0599 311.111 37.0599C311.709 37.0599 312.203 36.9152 312.595 36.6259C312.987 36.3272 313.183 35.8979 313.183 35.3379C313.183 35.0206 313.123 34.7592 313.001 34.5539C312.88 34.3392 312.67 34.1479 312.371 33.9799C312.082 33.8119 311.657 33.6439 311.097 33.4759C310.108 33.1772 309.385 32.8179 308.927 32.3979C308.47 31.9779 308.241 31.4086 308.241 30.6899C308.241 30.2046 308.367 29.7706 308.619 29.3879C308.881 29.0052 309.24 28.7066 309.697 28.4919C310.164 28.2772 310.691 28.1699 311.279 28.1699ZM317.746 30.6059V37.9839H316.458V30.6059H317.746ZM317.088 27.0639C317.359 27.0639 317.578 27.1479 317.746 27.3159C317.914 27.4839 317.998 27.6939 317.998 27.9459C317.998 28.1979 317.914 28.4079 317.746 28.5759C317.578 28.7346 317.359 28.8139 317.088 28.8139C316.827 28.8139 316.612 28.7346 316.444 28.5759C316.276 28.4079 316.192 28.1979 316.192 27.9459C316.192 27.6939 316.276 27.4839 316.444 27.3159C316.612 27.1479 316.827 27.0639 317.088 27.0639ZM326.359 30.9419C326.079 31.0352 325.771 31.0959 325.435 31.1239C325.099 31.1519 324.689 31.1659 324.203 31.1659C325.071 31.5579 325.505 32.1786 325.505 33.0279C325.505 33.7652 325.253 34.3672 324.749 34.8339C324.245 35.3006 323.559 35.5339 322.691 35.5339C322.355 35.5339 322.043 35.4872 321.753 35.3939C321.641 35.4686 321.553 35.5712 321.487 35.7019C321.422 35.8232 321.389 35.9492 321.389 36.0799C321.389 36.4812 321.711 36.6819 322.355 36.6819H323.531C324.026 36.6819 324.465 36.7706 324.847 36.9479C325.23 37.1252 325.524 37.3679 325.729 37.6759C325.944 37.9839 326.051 38.3339 326.051 38.7259C326.051 39.4446 325.757 39.9952 325.169 40.3779C324.581 40.7699 323.723 40.9659 322.593 40.9659C321.8 40.9659 321.17 40.8819 320.703 40.7139C320.246 40.5552 319.919 40.3126 319.723 39.9859C319.527 39.6592 319.429 39.2392 319.429 38.7259H320.591C320.591 39.0246 320.647 39.2579 320.759 39.4259C320.871 39.6032 321.072 39.7339 321.361 39.8179C321.651 39.9112 322.061 39.9579 322.593 39.9579C323.368 39.9579 323.919 39.8599 324.245 39.6639C324.581 39.4772 324.749 39.1926 324.749 38.8099C324.749 38.4646 324.619 38.2032 324.357 38.0259C324.096 37.8486 323.732 37.7599 323.265 37.7599H322.103C321.478 37.7599 321.002 37.6292 320.675 37.3679C320.358 37.0972 320.199 36.7612 320.199 36.3599C320.199 36.1172 320.269 35.8839 320.409 35.6599C320.549 35.4359 320.75 35.2352 321.011 35.0579C320.582 34.8339 320.265 34.5586 320.059 34.2319C319.863 33.8959 319.765 33.4899 319.765 33.0139C319.765 32.5192 319.887 32.0759 320.129 31.6839C320.381 31.2919 320.722 30.9886 321.151 30.7739C321.59 30.5499 322.075 30.4379 322.607 30.4379C323.186 30.4472 323.671 30.4286 324.063 30.3819C324.455 30.3259 324.777 30.2559 325.029 30.1719C325.291 30.0786 325.608 29.9479 325.981 29.7799L326.359 30.9419ZM322.607 31.3619C322.122 31.3619 321.744 31.5159 321.473 31.8239C321.212 32.1226 321.081 32.5192 321.081 33.0139C321.081 33.5179 321.217 33.9239 321.487 34.2319C321.758 34.5306 322.141 34.6799 322.635 34.6799C323.139 34.6799 323.522 34.5352 323.783 34.2459C324.054 33.9472 324.189 33.5319 324.189 32.9999C324.189 31.9079 323.662 31.3619 322.607 31.3619ZM331.155 30.4379C331.827 30.4379 332.35 30.6386 332.723 31.0399C333.106 31.4412 333.297 31.9919 333.297 32.6919V37.9839H332.009V32.8739C332.009 32.3512 331.911 31.9826 331.715 31.7679C331.519 31.5532 331.23 31.4459 330.847 31.4459C330.455 31.4459 330.11 31.5579 329.811 31.7819C329.512 32.0059 329.232 32.3279 328.971 32.7479V37.9839H327.683V30.6059H328.789L328.901 31.6979C329.162 31.3059 329.484 30.9979 329.867 30.7739C330.259 30.5499 330.688 30.4379 331.155 30.4379ZM345.079 37.9839H343.973L343.875 36.8359C343.595 37.2932 343.273 37.6292 342.909 37.8439C342.545 38.0492 342.102 38.1519 341.579 38.1519C340.935 38.1519 340.431 37.9559 340.067 37.5639C339.703 37.1719 339.521 36.6166 339.521 35.8979V30.6059H340.809V35.7579C340.809 36.2619 340.898 36.6212 341.075 36.8359C341.252 37.0412 341.542 37.1439 341.943 37.1439C342.662 37.1439 343.278 36.7192 343.791 35.8699V30.6059H345.079V37.9839ZM351.128 30.4379C352.07 30.4379 352.761 30.7739 353.2 31.4459C353.638 32.1179 353.858 33.0652 353.858 34.2879C353.858 35.4452 353.606 36.3786 353.102 37.0879C352.598 37.7972 351.884 38.1519 350.96 38.1519C350.138 38.1519 349.494 37.8719 349.028 37.3119V40.8119L347.74 40.9659V30.6059H348.846L348.944 31.5999C349.214 31.2266 349.541 30.9419 349.924 30.7459C350.306 30.5406 350.708 30.4379 351.128 30.4379ZM350.652 37.1019C351.865 37.1019 352.472 36.1639 352.472 34.2879C352.472 32.4026 351.916 31.4599 350.806 31.4599C350.442 31.4599 350.11 31.5672 349.812 31.7819C349.513 31.9966 349.252 32.2719 349.028 32.6079V36.2059C349.214 36.4952 349.448 36.7192 349.728 36.8779C350.008 37.0272 350.316 37.1019 350.652 37.1019Z" fill="#001826" fill-opacity="0.9"/>
<path d="M198.809 150.625C198.256 150.625 197.809 151.073 197.809 151.625C197.809 152.177 198.256 152.625 198.809 152.625V150.625ZM239.046 109.389C239.046 108.836 238.598 108.389 238.046 108.389C237.493 108.389 237.046 108.836 237.046 109.389H239.046ZM237.046 75.2638C237.046 75.8161 237.493 76.2638 238.046 76.2638C238.598 76.2638 239.046 75.8161 239.046 75.2638H237.046ZM282.329 33.7349C282.72 33.3444 282.72 32.7112 282.329 32.3207L275.965 25.9568C275.575 25.5662 274.942 25.5662 274.551 25.9568C274.16 26.3473 274.16 26.9805 274.551 27.371L280.208 33.0278L274.551 38.6847C274.16 39.0752 274.16 39.7084 274.551 40.0989C274.942 40.4894 275.575 40.4894 275.965 40.0989L282.329 33.7349ZM198.809 152.625H235.046V150.625H198.809V152.625ZM239.046 148.625V109.389H237.046V148.625H239.046ZM239.046 75.2638V36.0278H237.046V75.2638H239.046ZM241.046 34.0278H281.622V32.0278H241.046V34.0278ZM239.046 36.0278C239.046 34.9233 239.941 34.0278 241.046 34.0278V32.0278C238.836 32.0278 237.046 33.8187 237.046 36.0278H239.046ZM235.046 152.625C237.255 152.625 239.046 150.834 239.046 148.625H237.046C237.046 149.729 236.15 150.625 235.046 150.625V152.625Z" fill="#004166" fill-opacity="0.1"/>
<rect width="35.125" height="34.125" transform="translate(220.483 75.2639)" fill="white"/>
<path d="M235.155 87.1804L232.047 93.1164V96.8264H230.703V93.1304L227.595 87.1804H229.065L231.417 91.9544L233.769 87.1804H235.155ZM241.304 92.9204C241.304 93.1351 241.295 93.3544 241.276 93.5784H236.572C236.628 94.3904 236.833 94.9877 237.188 95.3704C237.543 95.7531 238 95.9444 238.56 95.9444C238.915 95.9444 239.241 95.8931 239.54 95.7904C239.839 95.6877 240.151 95.5244 240.478 95.3004L241.038 96.0704C240.254 96.6864 239.395 96.9944 238.462 96.9944C237.435 96.9944 236.633 96.6584 236.054 95.9864C235.485 95.3144 235.2 94.3904 235.2 93.2144C235.2 92.4491 235.321 91.7724 235.564 91.1844C235.816 90.5871 236.171 90.1204 236.628 89.7844C237.095 89.4484 237.641 89.2804 238.266 89.2804C239.246 89.2804 239.997 89.6024 240.52 90.2464C241.043 90.8904 241.304 91.7817 241.304 92.9204ZM240.03 92.5424C240.03 91.8144 239.885 91.2591 239.596 90.8764C239.307 90.4937 238.873 90.3024 238.294 90.3024C237.239 90.3024 236.665 91.0771 236.572 92.6264H240.03V92.5424ZM245.363 89.2804C245.867 89.2804 246.319 89.3504 246.721 89.4904C247.122 89.6304 247.505 89.8404 247.869 90.1204L247.323 90.9324C246.987 90.7177 246.665 90.5591 246.357 90.4564C246.058 90.3537 245.741 90.3024 245.405 90.3024C244.985 90.3024 244.653 90.3911 244.411 90.5684C244.168 90.7364 244.047 90.9697 244.047 91.2684C244.047 91.5671 244.159 91.8004 244.383 91.9684C244.616 92.1364 245.031 92.2997 245.629 92.4584C246.45 92.6637 247.061 92.9437 247.463 93.2984C247.873 93.6531 248.079 94.1384 248.079 94.7544C248.079 95.4824 247.794 96.0377 247.225 96.4204C246.665 96.8031 245.979 96.9944 245.167 96.9944C244.047 96.9944 243.118 96.6724 242.381 96.0284L243.067 95.2444C243.692 95.7204 244.383 95.9584 245.139 95.9584C245.624 95.9584 246.007 95.8604 246.287 95.6644C246.576 95.4591 246.721 95.1837 246.721 94.8384C246.721 94.5864 246.669 94.3857 246.567 94.2364C246.464 94.0777 246.287 93.9424 246.035 93.8304C245.783 93.7091 245.414 93.5831 244.929 93.4524C244.145 93.2471 243.575 92.9717 243.221 92.6264C242.875 92.2811 242.703 91.8424 242.703 91.3104C242.703 90.9277 242.815 90.5824 243.039 90.2744C243.272 89.9571 243.589 89.7144 243.991 89.5464C244.401 89.3691 244.859 89.2804 245.363 89.2804Z" fill="#001826" fill-opacity="0.9"/>
<path d="M598.289 234.1H730.5V291.025H598.289V234.1Z" fill="white" stroke="#004166" stroke-opacity="0.1" stroke-width="2" stroke-linecap="round"/>
<path d="M645.434 256.786C646.013 256.786 646.498 256.861 646.89 257.01C647.291 257.159 647.697 257.402 648.108 257.738L647.38 258.592C646.792 258.116 646.171 257.878 645.518 257.878C644.715 257.878 644.067 258.186 643.572 258.802C643.087 259.418 642.844 260.407 642.844 261.77C642.844 263.095 643.087 264.075 643.572 264.71C644.057 265.335 644.701 265.648 645.504 265.648C645.915 265.648 646.274 265.578 646.582 265.438C646.89 265.298 647.217 265.102 647.562 264.85L648.22 265.69C647.921 265.998 647.539 266.255 647.072 266.46C646.605 266.665 646.069 266.768 645.462 266.768C644.678 266.768 643.978 266.577 643.362 266.194C642.755 265.802 642.279 265.233 641.934 264.486C641.598 263.73 641.43 262.825 641.43 261.77C641.43 260.715 641.607 259.815 641.962 259.068C642.317 258.312 642.797 257.743 643.404 257.36C644.011 256.977 644.687 256.786 645.434 256.786ZM654.657 264.878C654.657 265.177 654.709 265.401 654.811 265.55C654.914 265.69 655.068 265.797 655.273 265.872L654.979 266.768C654.597 266.721 654.289 266.614 654.055 266.446C653.822 266.278 653.649 266.017 653.537 265.662C653.043 266.399 652.31 266.768 651.339 266.768C650.611 266.768 650.037 266.563 649.617 266.152C649.197 265.741 648.987 265.205 648.987 264.542C648.987 263.758 649.267 263.156 649.827 262.736C650.397 262.316 651.199 262.106 652.235 262.106H653.369V261.56C653.369 261.037 653.243 260.664 652.991 260.44C652.739 260.216 652.352 260.104 651.829 260.104C651.288 260.104 650.625 260.235 649.841 260.496L649.519 259.558C650.434 259.222 651.283 259.054 652.067 259.054C652.935 259.054 653.584 259.269 654.013 259.698C654.443 260.118 654.657 260.72 654.657 261.504V264.878ZM651.633 265.802C652.371 265.802 652.949 265.419 653.369 264.654V262.96H652.403C651.041 262.96 650.359 263.464 650.359 264.472C650.359 264.911 650.467 265.242 650.681 265.466C650.896 265.69 651.213 265.802 651.633 265.802ZM664.708 259.054C665.315 259.054 665.8 259.259 666.164 259.67C666.528 260.071 666.71 260.617 666.71 261.308V266.6H665.422V261.49C665.422 260.538 665.077 260.062 664.386 260.062C664.022 260.062 663.714 260.169 663.462 260.384C663.21 260.589 662.94 260.916 662.65 261.364V266.6H661.362V261.49C661.362 260.538 661.017 260.062 660.326 260.062C659.953 260.062 659.64 260.169 659.388 260.384C659.136 260.599 658.87 260.925 658.59 261.364V266.6H657.302V259.222H658.408L658.52 260.3C659.071 259.469 659.78 259.054 660.648 259.054C661.106 259.054 661.493 259.171 661.81 259.404C662.137 259.637 662.37 259.964 662.51 260.384C662.8 259.955 663.117 259.628 663.462 259.404C663.817 259.171 664.232 259.054 664.708 259.054ZM674.878 262.694C674.878 262.909 674.869 263.128 674.85 263.352H670.146C670.202 264.164 670.408 264.761 670.762 265.144C671.117 265.527 671.574 265.718 672.134 265.718C672.489 265.718 672.816 265.667 673.114 265.564C673.413 265.461 673.726 265.298 674.052 265.074L674.612 265.844C673.828 266.46 672.97 266.768 672.036 266.768C671.01 266.768 670.207 266.432 669.628 265.76C669.059 265.088 668.774 264.164 668.774 262.988C668.774 262.223 668.896 261.546 669.138 260.958C669.39 260.361 669.745 259.894 670.202 259.558C670.669 259.222 671.215 259.054 671.84 259.054C672.82 259.054 673.572 259.376 674.094 260.02C674.617 260.664 674.878 261.555 674.878 262.694ZM673.604 262.316C673.604 261.588 673.46 261.033 673.17 260.65C672.881 260.267 672.447 260.076 671.868 260.076C670.814 260.076 670.24 260.851 670.146 262.4H673.604V262.316ZM680.141 259.054C680.403 259.054 680.645 259.082 680.869 259.138L680.631 260.398C680.407 260.342 680.193 260.314 679.987 260.314C679.53 260.314 679.161 260.482 678.881 260.818C678.601 261.154 678.382 261.677 678.223 262.386V266.6H676.935V259.222H678.041L678.167 260.72C678.363 260.169 678.629 259.754 678.965 259.474C679.301 259.194 679.693 259.054 680.141 259.054ZM686.814 264.878C686.814 265.177 686.865 265.401 686.968 265.55C687.07 265.69 687.224 265.797 687.43 265.872L687.136 266.768C686.753 266.721 686.445 266.614 686.212 266.446C685.978 266.278 685.806 266.017 685.694 265.662C685.199 266.399 684.466 266.768 683.496 266.768C682.768 266.768 682.194 266.563 681.774 266.152C681.354 265.741 681.144 265.205 681.144 264.542C681.144 263.758 681.424 263.156 681.984 262.736C682.553 262.316 683.356 262.106 684.392 262.106H685.526V261.56C685.526 261.037 685.4 260.664 685.148 260.44C684.896 260.216 684.508 260.104 683.986 260.104C683.444 260.104 682.782 260.235 681.998 260.496L681.676 259.558C682.59 259.222 683.44 259.054 684.224 259.054C685.092 259.054 685.74 259.269 686.17 259.698C686.599 260.118 686.814 260.72 686.814 261.504V264.878ZM683.79 265.802C684.527 265.802 685.106 265.419 685.526 264.654V262.96H684.56C683.197 262.96 682.516 263.464 682.516 264.472C682.516 264.911 682.623 265.242 682.838 265.466C683.052 265.69 683.37 265.802 683.79 265.802Z" fill="#001826" fill-opacity="0.9"/>
<path d="M421.088 234.1H535.855V291.025H421.088V234.1Z" fill="white" stroke="#004166" stroke-opacity="0.1" stroke-width="2" stroke-linecap="round"/>
<path d="M466.599 266.6V262.078H462.539V266.6H461.209V256.954H462.539V260.986H466.599V256.954H467.929V266.6H466.599ZM473.427 259.054C474.463 259.054 475.266 259.399 475.835 260.09C476.414 260.781 476.703 261.719 476.703 262.904C476.703 263.669 476.572 264.346 476.311 264.934C476.05 265.513 475.672 265.965 475.177 266.292C474.682 266.609 474.094 266.768 473.413 266.768C472.377 266.768 471.57 266.423 470.991 265.732C470.412 265.041 470.123 264.103 470.123 262.918C470.123 262.153 470.254 261.481 470.515 260.902C470.776 260.314 471.154 259.861 471.649 259.544C472.144 259.217 472.736 259.054 473.427 259.054ZM473.427 260.09C472.148 260.09 471.509 261.033 471.509 262.918C471.509 264.794 472.144 265.732 473.413 265.732C474.682 265.732 475.317 264.789 475.317 262.904C475.317 261.028 474.687 260.09 473.427 260.09ZM486.237 259.054C486.843 259.054 487.329 259.259 487.693 259.67C488.057 260.071 488.239 260.617 488.239 261.308V266.6H486.951V261.49C486.951 260.538 486.605 260.062 485.915 260.062C485.551 260.062 485.243 260.169 484.991 260.384C484.739 260.589 484.468 260.916 484.179 261.364V266.6H482.891V261.49C482.891 260.538 482.545 260.062 481.855 260.062C481.481 260.062 481.169 260.169 480.917 260.384C480.665 260.599 480.399 260.925 480.119 261.364V266.6H478.831V259.222H479.937L480.049 260.3C480.599 259.469 481.309 259.054 482.177 259.054C482.634 259.054 483.021 259.171 483.339 259.404C483.665 259.637 483.899 259.964 484.039 260.384C484.328 259.955 484.645 259.628 484.991 259.404C485.345 259.171 485.761 259.054 486.237 259.054ZM496.407 262.694C496.407 262.909 496.397 263.128 496.379 263.352H491.675C491.731 264.164 491.936 264.761 492.291 265.144C492.645 265.527 493.103 265.718 493.663 265.718C494.017 265.718 494.344 265.667 494.643 265.564C494.941 265.461 495.254 265.298 495.581 265.074L496.141 265.844C495.357 266.46 494.498 266.768 493.565 266.768C492.538 266.768 491.735 266.432 491.157 265.76C490.587 265.088 490.303 264.164 490.303 262.988C490.303 262.223 490.424 261.546 490.667 260.958C490.919 260.361 491.273 259.894 491.731 259.558C492.197 259.222 492.743 259.054 493.369 259.054C494.349 259.054 495.1 259.376 495.623 260.02C496.145 260.664 496.407 261.555 496.407 262.694ZM495.133 262.316C495.133 261.588 494.988 261.033 494.699 260.65C494.409 260.267 493.975 260.076 493.397 260.076C492.342 260.076 491.768 260.851 491.675 262.4H495.133V262.316Z" fill="#001826" fill-opacity="0.9"/>
<ellipse cx="329.275" cy="262.562" rx="46.8249" ry="47.7431" fill="white" stroke="#004166" stroke-opacity="0.1" stroke-width="2" stroke-linecap="round"/>
<path d="M311.596 257.505C312.24 257.505 312.791 257.598 313.248 257.785C313.706 257.962 314.149 258.242 314.578 258.625L313.85 259.437C313.486 259.148 313.127 258.938 312.772 258.807C312.427 258.667 312.054 258.597 311.652 258.597C311.148 258.597 310.733 258.714 310.406 258.947C310.08 259.18 309.916 259.521 309.916 259.969C309.916 260.249 309.972 260.487 310.084 260.683C310.196 260.87 310.402 261.042 310.7 261.201C311.008 261.36 311.452 261.528 312.03 261.705C312.637 261.892 313.141 262.092 313.542 262.307C313.944 262.522 314.266 262.82 314.508 263.203C314.76 263.576 314.886 264.052 314.886 264.631C314.886 265.191 314.746 265.686 314.466 266.115C314.196 266.544 313.799 266.88 313.276 267.123C312.763 267.366 312.152 267.487 311.442 267.487C310.108 267.487 309.016 267.072 308.166 266.241L308.894 265.429C309.286 265.746 309.683 265.989 310.084 266.157C310.486 266.316 310.934 266.395 311.428 266.395C312.026 266.395 312.52 266.25 312.912 265.961C313.304 265.662 313.5 265.233 313.5 264.673C313.5 264.356 313.44 264.094 313.318 263.889C313.197 263.674 312.987 263.483 312.688 263.315C312.399 263.147 311.974 262.979 311.414 262.811C310.425 262.512 309.702 262.153 309.244 261.733C308.787 261.313 308.558 260.744 308.558 260.025C308.558 259.54 308.684 259.106 308.936 258.723C309.198 258.34 309.557 258.042 310.014 257.827C310.481 257.612 311.008 257.505 311.596 257.505ZM318.063 259.941V267.319H316.775V259.941H318.063ZM317.405 256.399C317.676 256.399 317.895 256.483 318.063 256.651C318.231 256.819 318.315 257.029 318.315 257.281C318.315 257.533 318.231 257.743 318.063 257.911C317.895 258.07 317.676 258.149 317.405 258.149C317.144 258.149 316.929 258.07 316.761 257.911C316.593 257.743 316.509 257.533 316.509 257.281C316.509 257.029 316.593 256.819 316.761 256.651C316.929 256.483 317.144 256.399 317.405 256.399ZM326.676 260.277C326.396 260.37 326.088 260.431 325.752 260.459C325.416 260.487 325.006 260.501 324.52 260.501C325.388 260.893 325.822 261.514 325.822 262.363C325.822 263.1 325.57 263.702 325.066 264.169C324.562 264.636 323.876 264.869 323.008 264.869C322.672 264.869 322.36 264.822 322.07 264.729C321.958 264.804 321.87 264.906 321.804 265.037C321.739 265.158 321.706 265.284 321.706 265.415C321.706 265.816 322.028 266.017 322.672 266.017H323.848C324.343 266.017 324.782 266.106 325.164 266.283C325.547 266.46 325.841 266.703 326.046 267.011C326.261 267.319 326.368 267.669 326.368 268.061C326.368 268.78 326.074 269.33 325.486 269.713C324.898 270.105 324.04 270.301 322.91 270.301C322.117 270.301 321.487 270.217 321.02 270.049C320.563 269.89 320.236 269.648 320.04 269.321C319.844 268.994 319.746 268.574 319.746 268.061H320.908C320.908 268.36 320.964 268.593 321.076 268.761C321.188 268.938 321.389 269.069 321.678 269.153C321.968 269.246 322.378 269.293 322.91 269.293C323.685 269.293 324.236 269.195 324.562 268.999C324.898 268.812 325.066 268.528 325.066 268.145C325.066 267.8 324.936 267.538 324.674 267.361C324.413 267.184 324.049 267.095 323.582 267.095H322.42C321.795 267.095 321.319 266.964 320.992 266.703C320.675 266.432 320.516 266.096 320.516 265.695C320.516 265.452 320.586 265.219 320.726 264.995C320.866 264.771 321.067 264.57 321.328 264.393C320.899 264.169 320.582 263.894 320.376 263.567C320.18 263.231 320.082 262.825 320.082 262.349C320.082 261.854 320.204 261.411 320.446 261.019C320.698 260.627 321.039 260.324 321.468 260.109C321.907 259.885 322.392 259.773 322.924 259.773C323.503 259.782 323.988 259.764 324.38 259.717C324.772 259.661 325.094 259.591 325.346 259.507C325.608 259.414 325.925 259.283 326.298 259.115L326.676 260.277ZM322.924 260.697C322.439 260.697 322.061 260.851 321.79 261.159C321.529 261.458 321.398 261.854 321.398 262.349C321.398 262.853 321.534 263.259 321.804 263.567C322.075 263.866 322.458 264.015 322.952 264.015C323.456 264.015 323.839 263.87 324.1 263.581C324.371 263.282 324.506 262.867 324.506 262.335C324.506 261.243 323.979 260.697 322.924 260.697ZM331.472 259.773C332.144 259.773 332.667 259.974 333.04 260.375C333.423 260.776 333.614 261.327 333.614 262.027V267.319H332.326V262.209C332.326 261.686 332.228 261.318 332.032 261.103C331.836 260.888 331.547 260.781 331.164 260.781C330.772 260.781 330.427 260.893 330.128 261.117C329.829 261.341 329.549 261.663 329.288 262.083V267.319H328V259.941H329.106L329.218 261.033C329.479 260.641 329.801 260.333 330.184 260.109C330.576 259.885 331.005 259.773 331.472 259.773ZM341.196 259.941V267.319H339.908V259.941H341.196ZM340.538 256.399C340.809 256.399 341.028 256.483 341.196 256.651C341.364 256.819 341.448 257.029 341.448 257.281C341.448 257.533 341.364 257.743 341.196 257.911C341.028 258.07 340.809 258.149 340.538 258.149C340.277 258.149 340.062 258.07 339.894 257.911C339.726 257.743 339.642 257.533 339.642 257.281C339.642 257.029 339.726 256.819 339.894 256.651C340.062 256.483 340.277 256.399 340.538 256.399ZM347.331 259.773C348.003 259.773 348.526 259.974 348.899 260.375C349.282 260.776 349.473 261.327 349.473 262.027V267.319H348.185V262.209C348.185 261.686 348.087 261.318 347.891 261.103C347.695 260.888 347.406 260.781 347.023 260.781C346.631 260.781 346.286 260.893 345.987 261.117C345.689 261.341 345.409 261.663 345.147 262.083V267.319H343.859V259.941H344.965L345.077 261.033C345.339 260.641 345.661 260.333 346.043 260.109C346.435 259.885 346.865 259.773 347.331 259.773Z" fill="#001826" fill-opacity="0.9"/>
<path d="M98.9043 208.125C98.9043 207.573 98.4566 207.125 97.9043 207.125C97.352 207.125 96.9043 207.573 96.9043 208.125H98.9043ZM172.364 263.562C172.917 263.562 173.364 263.114 173.364 262.562C173.364 262.01 172.917 261.562 172.364 261.562V263.562ZM203.489 261.562C202.937 261.562 202.489 262.01 202.489 262.562C202.489 263.114 202.937 263.562 203.489 263.562V261.562ZM278.657 263.269C279.047 262.879 279.047 262.245 278.657 261.855L272.293 255.491C271.902 255.1 271.269 255.1 270.879 255.491C270.488 255.881 270.488 256.515 270.879 256.905L276.535 262.562L270.879 268.219C270.488 268.609 270.488 269.242 270.879 269.633C271.269 270.024 271.902 270.024 272.293 269.633L278.657 263.269ZM96.9043 208.125V259.562H98.9043V208.125H96.9043ZM100.904 263.562H172.364V261.562H100.904V263.562ZM203.489 263.562H277.95V261.562H203.489V263.562ZM96.9043 259.562C96.9043 261.771 98.6952 263.562 100.904 263.562V261.562C99.7997 261.562 98.9043 260.666 98.9043 259.562H96.9043Z" fill="#004166" fill-opacity="0.1"/>
<rect width="31.125" height="34.125" transform="translate(172.364 245.5)" fill="white"/>
<path d="M187.223 267.062H185.445L181.525 258.872C181.581 259.516 181.623 260.113 181.651 260.664C181.688 261.205 181.707 261.863 181.707 262.638V267.062H180.461V257.416H182.197L186.159 265.62C186.131 265.377 186.093 264.953 186.047 264.346C186 263.739 185.977 263.184 185.977 262.68V257.416H187.223V267.062ZM192.719 259.516C193.755 259.516 194.558 259.861 195.127 260.552C195.706 261.243 195.995 262.181 195.995 263.366C195.995 264.131 195.865 264.808 195.603 265.396C195.342 265.975 194.964 266.427 194.469 266.754C193.975 267.071 193.387 267.23 192.705 267.23C191.669 267.23 190.862 266.885 190.283 266.194C189.705 265.503 189.415 264.565 189.415 263.38C189.415 262.615 189.546 261.943 189.807 261.364C190.069 260.776 190.447 260.323 190.941 260.006C191.436 259.679 192.029 259.516 192.719 259.516ZM192.719 260.552C191.441 260.552 190.801 261.495 190.801 263.38C190.801 265.256 191.436 266.194 192.705 266.194C193.975 266.194 194.609 265.251 194.609 263.366C194.609 261.49 193.979 260.552 192.719 260.552Z" fill="#001826" fill-opacity="0.9"/>
<path d="M380.6 261.562C380.047 261.562 379.6 262.01 379.6 262.562C379.6 263.115 380.047 263.562 380.6 263.562V261.562ZM417.295 263.27C417.686 262.879 417.686 262.246 417.295 261.855L410.931 255.491C410.541 255.101 409.907 255.101 409.517 255.491C409.126 255.882 409.126 256.515 409.517 256.906L415.174 262.562L409.517 268.219C409.126 268.61 409.126 269.243 409.517 269.634C409.907 270.024 410.541 270.024 410.931 269.634L417.295 263.27ZM380.6 263.562H416.588V261.562H380.6V263.562Z" fill="#004166" fill-opacity="0.1"/>
<path d="M540.355 261.562C539.803 261.562 539.355 262.01 539.355 262.562C539.355 263.115 539.803 263.562 540.355 263.562V261.562ZM594.496 263.269C594.886 262.879 594.886 262.246 594.496 261.855L588.132 255.491C587.741 255.101 587.108 255.101 586.718 255.491C586.327 255.882 586.327 256.515 586.718 256.905L592.374 262.562L586.718 268.219C586.327 268.61 586.327 269.243 586.718 269.633C587.108 270.024 587.741 270.024 588.132 269.633L594.496 263.269ZM540.355 263.562H593.789V261.562H540.355V263.562Z" fill="#004166" fill-opacity="0.1"/>
<ellipse cx="664.394" cy="49.0955" rx="47.7431" ry="47.284" fill="white" stroke="#004166" stroke-opacity="0.1" stroke-width="2" stroke-linecap="round"/>
<path d="M657.082 33.1655L656.942 34.2995H654.268V42.8115H652.938V34.2995H650.194V33.1655H657.082ZM662.82 41.0895C662.82 41.3882 662.871 41.6122 662.974 41.7615C663.076 41.9015 663.23 42.0089 663.436 42.0835L663.142 42.9795C662.759 42.9329 662.451 42.8255 662.218 42.6575C661.984 42.4895 661.812 42.2282 661.7 41.8735C661.205 42.6109 660.472 42.9795 659.502 42.9795C658.774 42.9795 658.2 42.7742 657.78 42.3635C657.36 41.9529 657.15 41.4162 657.15 40.7535C657.15 39.9695 657.43 39.3675 657.99 38.9475C658.559 38.5275 659.362 38.3175 660.398 38.3175H661.532V37.7715C661.532 37.2489 661.406 36.8755 661.154 36.6515C660.902 36.4275 660.514 36.3155 659.992 36.3155C659.45 36.3155 658.788 36.4462 658.004 36.7075L657.682 35.7695C658.596 35.4335 659.446 35.2655 660.23 35.2655C661.098 35.2655 661.746 35.4802 662.176 35.9095C662.605 36.3295 662.82 36.9315 662.82 37.7155V41.0895ZM659.796 42.0135C660.533 42.0135 661.112 41.6309 661.532 40.8655V39.1715H660.566C659.203 39.1715 658.522 39.6755 658.522 40.6835C658.522 41.1222 658.629 41.4535 658.844 41.6775C659.058 41.9015 659.376 42.0135 659.796 42.0135ZM666.753 32.3115V42.8115H665.465V32.4655L666.753 32.3115ZM670.995 35.4335L668.279 38.6955L671.303 42.8115H669.763L666.837 38.7795L669.553 35.4335H670.995ZM678.078 38.9055C678.078 39.1202 678.068 39.3395 678.05 39.5635H673.346C673.402 40.3755 673.607 40.9729 673.962 41.3555C674.316 41.7382 674.774 41.9295 675.334 41.9295C675.688 41.9295 676.015 41.8782 676.314 41.7755C676.612 41.6729 676.925 41.5095 677.252 41.2855L677.812 42.0555C677.028 42.6715 676.169 42.9795 675.236 42.9795C674.209 42.9795 673.406 42.6435 672.828 41.9715C672.258 41.2995 671.974 40.3755 671.974 39.1995C671.974 38.4342 672.095 37.7575 672.338 37.1695C672.59 36.5722 672.944 36.1055 673.402 35.7695C673.868 35.4335 674.414 35.2655 675.04 35.2655C676.02 35.2655 676.771 35.5875 677.294 36.2315C677.816 36.8755 678.078 37.7669 678.078 38.9055ZM676.804 38.5275C676.804 37.7995 676.659 37.2442 676.37 36.8615C676.08 36.4789 675.646 36.2875 675.068 36.2875C674.013 36.2875 673.439 37.0622 673.346 38.6115H676.804V38.5275ZM650.252 56.2655C651.195 56.2655 651.886 56.6015 652.324 57.2735C652.763 57.9455 652.982 58.8929 652.982 60.1155C652.982 61.2729 652.73 62.2062 652.226 62.9155C651.722 63.6249 651.008 63.9795 650.084 63.9795C649.263 63.9795 648.619 63.6995 648.152 63.1395V66.6395L646.864 66.7935V56.4335H647.97L648.068 57.4275C648.339 57.0542 648.666 56.7695 649.048 56.5735C649.431 56.3682 649.832 56.2655 650.252 56.2655ZM649.776 62.9295C650.99 62.9295 651.596 61.9915 651.596 60.1155C651.596 58.2302 651.041 57.2875 649.93 57.2875C649.566 57.2875 649.235 57.3949 648.936 57.6095C648.638 57.8242 648.376 58.0995 648.152 58.4355V62.0335C648.339 62.3229 648.572 62.5469 648.852 62.7055C649.132 62.8549 649.44 62.9295 649.776 62.9295ZM658.649 56.2655C659.321 56.2655 659.843 56.4662 660.217 56.8675C660.599 57.2689 660.791 57.8195 660.791 58.5195V63.8115H659.503V58.7015C659.503 58.1789 659.4 57.8102 659.195 57.5955C658.999 57.3809 658.709 57.2735 658.327 57.2735C657.944 57.2735 657.603 57.3855 657.305 57.6095C657.006 57.8335 656.726 58.1509 656.465 58.5615V63.8115H655.177V53.4795L656.465 53.3395V57.4555C657.043 56.6622 657.771 56.2655 658.649 56.2655ZM666.152 56.2655C667.188 56.2655 667.99 56.6109 668.56 57.3015C669.138 57.9922 669.428 58.9302 669.428 60.1155C669.428 60.8809 669.297 61.5575 669.036 62.1455C668.774 62.7242 668.396 63.1769 667.902 63.5035C667.407 63.8209 666.819 63.9795 666.138 63.9795C665.102 63.9795 664.294 63.6342 663.716 62.9435C663.137 62.2529 662.848 61.3149 662.848 60.1295C662.848 59.3642 662.978 58.6922 663.24 58.1135C663.501 57.5255 663.879 57.0729 664.374 56.7555C664.868 56.4289 665.461 56.2655 666.152 56.2655ZM666.152 57.3015C664.873 57.3015 664.234 58.2442 664.234 60.1295C664.234 62.0055 664.868 62.9435 666.138 62.9435C667.407 62.9435 668.042 62.0009 668.042 60.1155C668.042 58.2395 667.412 57.3015 666.152 57.3015ZM675.28 63.4755C674.794 63.8115 674.244 63.9795 673.628 63.9795C673.002 63.9795 672.512 63.8022 672.158 63.4475C671.812 63.0835 671.64 62.5609 671.64 61.8795V57.4275H670.352V56.4335H671.64V54.7675L672.928 54.6135V56.4335H674.678L674.538 57.4275H672.928V61.8235C672.928 62.2062 672.993 62.4862 673.124 62.6635C673.264 62.8315 673.492 62.9155 673.81 62.9155C674.099 62.9155 674.426 62.8175 674.79 62.6215L675.28 63.4755ZM679.181 56.2655C680.217 56.2655 681.02 56.6109 681.589 57.3015C682.168 57.9922 682.457 58.9302 682.457 60.1155C682.457 60.8809 682.326 61.5575 682.065 62.1455C681.804 62.7242 681.426 63.1769 680.931 63.5035C680.436 63.8209 679.848 63.9795 679.167 63.9795C678.131 63.9795 677.324 63.6342 676.745 62.9435C676.166 62.2529 675.877 61.3149 675.877 60.1295C675.877 59.3642 676.008 58.6922 676.269 58.1135C676.53 57.5255 676.908 57.0729 677.403 56.7555C677.898 56.4289 678.49 56.2655 679.181 56.2655ZM679.181 57.3015C677.902 57.3015 677.263 58.2442 677.263 60.1295C677.263 62.0055 677.898 62.9435 679.167 62.9435C680.436 62.9435 681.071 62.0009 681.071 60.1155C681.071 58.2395 680.441 57.3015 679.181 57.3015Z" fill="#001826" fill-opacity="0.9"/>
<path d="M663.395 229.6C663.395 230.152 663.842 230.6 664.395 230.6C664.947 230.6 665.395 230.152 665.395 229.6H663.395ZM665.102 100.173C664.711 99.782 664.078 99.782 663.687 100.173L657.323 106.536C656.933 106.927 656.933 107.56 657.323 107.951C657.714 108.341 658.347 108.341 658.738 107.951L664.395 102.294L670.051 107.951C670.442 108.341 671.075 108.341 671.466 107.951C671.856 107.56 671.856 106.927 671.466 106.536L665.102 100.173ZM665.395 229.6V100.88H663.395V229.6H665.395Z" fill="#004166" fill-opacity="0.1"/>
<path d="M612.151 50.0955C612.703 50.0955 613.151 49.6477 613.151 49.0955C613.151 48.5432 612.703 48.0955 612.151 48.0955V50.0955ZM477.764 230.307C478.155 230.698 478.788 230.698 479.178 230.307L485.542 223.943C485.933 223.553 485.933 222.919 485.542 222.529C485.152 222.138 484.519 222.138 484.128 222.529L478.471 228.186L472.814 222.529C472.424 222.138 471.791 222.138 471.4 222.529C471.01 222.919 471.01 223.553 471.4 223.943L477.764 230.307ZM612.151 48.0955H481.471V50.0955H612.151V48.0955ZM477.471 52.0955V229.6H479.471V52.0955H477.471ZM481.471 48.0955C479.262 48.0955 477.471 49.8863 477.471 52.0955H479.471C479.471 50.9909 480.367 50.0955 481.471 50.0955V48.0955Z" fill="#004166" fill-opacity="0.1"/>
</svg>
