<svg width="731" height="337" viewBox="0 0 731 337" fill="none" xmlns="http://www.w3.org/2000/svg">
<path d="M140.206 26.0322H240.947V68.1604H140.206V26.0322Z" fill="white" stroke="#004166" stroke-opacity="0.1" stroke-width="2" stroke-linecap="round"/>
<path d="M161.604 41.8862C163.06 41.8862 164.227 42.2269 165.104 42.9082C165.991 43.5802 166.434 44.8309 166.434 46.6602C166.434 48.4429 165.991 49.7029 165.104 50.4402C164.227 51.1682 163.158 51.5322 161.898 51.5322H159.588V41.8862H161.604ZM160.918 42.9502V50.4822H161.996C162.892 50.4822 163.62 50.2069 164.18 49.6562C164.74 49.1056 165.02 48.1069 165.02 46.6602C165.02 45.6429 164.875 44.8636 164.586 44.3222C164.297 43.7716 163.928 43.4076 163.48 43.2302C163.032 43.0436 162.505 42.9502 161.898 42.9502H160.918ZM171.3 43.9862C172.336 43.9862 173.138 44.3316 173.708 45.0222C174.286 45.7129 174.576 46.6509 174.576 47.8362C174.576 48.6016 174.445 49.2782 174.184 49.8662C173.922 50.4449 173.544 50.8976 173.05 51.2242C172.555 51.5416 171.967 51.7002 171.286 51.7002C170.25 51.7002 169.442 51.3549 168.864 50.6642C168.285 49.9736 167.996 49.0356 167.996 47.8502C167.996 47.0849 168.126 46.4129 168.388 45.8342C168.649 45.2462 169.027 44.7936 169.522 44.4762C170.016 44.1496 170.609 43.9862 171.3 43.9862ZM171.3 45.0222C170.021 45.0222 169.382 45.9649 169.382 47.8502C169.382 49.7262 170.016 50.6642 171.286 50.6642C172.555 50.6642 173.19 49.7216 173.19 47.8362C173.19 45.9602 172.56 45.0222 171.3 45.0222ZM179.392 43.9862C179.83 43.9862 180.232 44.0516 180.596 44.1822C180.96 44.3036 181.31 44.5042 181.646 44.7842L181.03 45.5962C180.768 45.4096 180.512 45.2742 180.26 45.1902C180.017 45.0969 179.746 45.0502 179.448 45.0502C178.85 45.0502 178.384 45.2882 178.048 45.7642C177.721 46.2402 177.558 46.9449 177.558 47.8782C177.558 48.8116 177.721 49.5022 178.048 49.9502C178.374 50.3889 178.841 50.6082 179.448 50.6082C179.737 50.6082 180.003 50.5662 180.246 50.4822C180.488 50.3889 180.759 50.2442 181.058 50.0482L181.646 50.8882C180.974 51.4296 180.222 51.7002 179.392 51.7002C178.393 51.7002 177.604 51.3642 177.026 50.6922C176.456 50.0202 176.172 49.0916 176.172 47.9062C176.172 47.1222 176.302 46.4362 176.564 45.8482C176.825 45.2602 177.194 44.8029 177.67 44.4762C178.155 44.1496 178.729 43.9862 179.392 43.9862ZM188.74 51.5322H187.634L187.536 50.3842C187.256 50.8416 186.934 51.1776 186.57 51.3922C186.206 51.5976 185.763 51.7002 185.24 51.7002C184.596 51.7002 184.092 51.5042 183.728 51.1122C183.364 50.7202 183.182 50.1649 183.182 49.4462V44.1542H184.47V49.3062C184.47 49.8102 184.559 50.1696 184.736 50.3842C184.914 50.5896 185.203 50.6922 185.604 50.6922C186.323 50.6922 186.939 50.2676 187.452 49.4182V44.1542H188.74V51.5322ZM198.807 43.9862C199.413 43.9862 199.899 44.1916 200.263 44.6022C200.627 45.0036 200.809 45.5496 200.809 46.2402V51.5322H199.521V46.4222C199.521 45.4702 199.175 44.9942 198.485 44.9942C198.121 44.9942 197.813 45.1016 197.561 45.3162C197.309 45.5216 197.038 45.8482 196.749 46.2962V51.5322H195.461V46.4222C195.461 45.4702 195.115 44.9942 194.425 44.9942C194.051 44.9942 193.739 45.1016 193.487 45.3162C193.235 45.5309 192.969 45.8576 192.689 46.2962V51.5322H191.401V44.1542H192.507L192.619 45.2322C193.169 44.4016 193.879 43.9862 194.747 43.9862C195.204 43.9862 195.591 44.1029 195.909 44.3362C196.235 44.5696 196.469 44.8962 196.609 45.3162C196.898 44.8869 197.215 44.5602 197.561 44.3362C197.915 44.1029 198.331 43.9862 198.807 43.9862ZM208.977 47.6262C208.977 47.8409 208.967 48.0602 208.949 48.2842H204.245C204.301 49.0962 204.506 49.6936 204.861 50.0762C205.215 50.4589 205.673 50.6502 206.233 50.6502C206.587 50.6502 206.914 50.5989 207.213 50.4962C207.511 50.3936 207.824 50.2302 208.151 50.0062L208.711 50.7762C207.927 51.3922 207.068 51.7002 206.135 51.7002C205.108 51.7002 204.305 51.3642 203.727 50.6922C203.157 50.0202 202.873 49.0962 202.873 47.9202C202.873 47.1549 202.994 46.4782 203.237 45.8902C203.489 45.2929 203.843 44.8262 204.301 44.4902C204.767 44.1542 205.313 43.9862 205.939 43.9862C206.919 43.9862 207.67 44.3082 208.193 44.9522C208.715 45.5962 208.977 46.4876 208.977 47.6262ZM207.703 47.2482C207.703 46.5202 207.558 45.9649 207.269 45.5822C206.979 45.1996 206.545 45.0082 205.967 45.0082C204.912 45.0082 204.338 45.7829 204.245 47.3322H207.703V47.2482ZM214.506 43.9862C215.178 43.9862 215.7 44.1869 216.074 44.5882C216.456 44.9896 216.648 45.5402 216.648 46.2402V51.5322H215.36V46.4222C215.36 45.8996 215.262 45.5309 215.066 45.3162C214.87 45.1016 214.58 44.9942 214.198 44.9942C213.806 44.9942 213.46 45.1062 213.162 45.3302C212.863 45.5542 212.583 45.8762 212.322 46.2962V51.5322H211.034V44.1542H212.14L212.252 45.2462C212.513 44.8542 212.835 44.5462 213.218 44.3222C213.61 44.0982 214.039 43.9862 214.506 43.9862ZM222.961 51.1962C222.475 51.5322 221.925 51.7002 221.309 51.7002C220.683 51.7002 220.193 51.5229 219.839 51.1682C219.493 50.8042 219.321 50.2816 219.321 49.6002V45.1482H218.033V44.1542H219.321V42.4882L220.609 42.3342V44.1542H222.359L222.219 45.1482H220.609V49.5442C220.609 49.9269 220.674 50.2069 220.805 50.3842C220.945 50.5522 221.173 50.6362 221.491 50.6362C221.78 50.6362 222.107 50.5382 222.471 50.3422L222.961 51.1962Z" fill="#001826" fill-opacity="0.9"/>
<path d="M140.206 135.016H240.947V178.06H140.206V135.016Z" fill="white" stroke="#004166" stroke-opacity="0.1" stroke-width="2" stroke-linecap="round"/>
<path d="M171.982 161.516V151.87H177.106L176.952 152.934H173.312V156.224H176.462V157.274H173.312V161.516H171.982ZM181.068 153.97C182.104 153.97 182.907 154.315 183.476 155.006C184.055 155.697 184.344 156.635 184.344 157.82C184.344 158.585 184.214 159.262 183.952 159.85C183.691 160.429 183.313 160.881 182.818 161.208C182.324 161.525 181.736 161.684 181.054 161.684C180.018 161.684 179.211 161.339 178.632 160.648C178.054 159.957 177.764 159.019 177.764 157.834C177.764 157.069 177.895 156.397 178.156 155.818C178.418 155.23 178.796 154.777 179.29 154.46C179.785 154.133 180.378 153.97 181.068 153.97ZM181.068 155.006C179.79 155.006 179.15 155.949 179.15 157.834C179.15 159.71 179.785 160.648 181.054 160.648C182.324 160.648 182.958 159.705 182.958 157.82C182.958 155.944 182.328 155.006 181.068 155.006ZM187.942 161.684C187.466 161.684 187.088 161.544 186.808 161.264C186.537 160.975 186.402 160.573 186.402 160.06V151.17L187.69 151.016V160.032C187.69 160.237 187.723 160.387 187.788 160.48C187.863 160.573 187.984 160.62 188.152 160.62C188.329 160.62 188.488 160.592 188.628 160.536L188.964 161.432C188.656 161.6 188.315 161.684 187.942 161.684ZM196.217 151.17V161.516H195.083L194.957 160.494C194.715 160.867 194.411 161.161 194.047 161.376C193.683 161.581 193.277 161.684 192.829 161.684C191.952 161.684 191.266 161.339 190.771 160.648C190.286 159.957 190.043 159.029 190.043 157.862C190.043 157.106 190.16 156.434 190.393 155.846C190.627 155.258 190.963 154.801 191.401 154.474C191.84 154.138 192.353 153.97 192.941 153.97C193.697 153.97 194.36 154.273 194.929 154.88V151.016L196.217 151.17ZM193.109 160.662C193.501 160.662 193.837 160.573 194.117 160.396C194.397 160.209 194.668 159.934 194.929 159.57V155.958C194.687 155.641 194.425 155.403 194.145 155.244C193.875 155.076 193.567 154.992 193.221 154.992C192.652 154.992 192.209 155.23 191.891 155.706C191.583 156.182 191.429 156.891 191.429 157.834C191.429 158.786 191.574 159.495 191.863 159.962C192.153 160.429 192.568 160.662 193.109 160.662ZM204.444 157.61C204.444 157.825 204.435 158.044 204.416 158.268H199.712C199.768 159.08 199.974 159.677 200.328 160.06C200.683 160.443 201.14 160.634 201.7 160.634C202.055 160.634 202.382 160.583 202.68 160.48C202.979 160.377 203.292 160.214 203.618 159.99L204.178 160.76C203.394 161.376 202.536 161.684 201.602 161.684C200.576 161.684 199.773 161.348 199.194 160.676C198.625 160.004 198.34 159.08 198.34 157.904C198.34 157.139 198.462 156.462 198.704 155.874C198.956 155.277 199.311 154.81 199.768 154.474C200.235 154.138 200.781 153.97 201.406 153.97C202.386 153.97 203.138 154.292 203.66 154.936C204.183 155.58 204.444 156.471 204.444 157.61ZM203.17 157.232C203.17 156.504 203.026 155.949 202.736 155.566C202.447 155.183 202.013 154.992 201.434 154.992C200.38 154.992 199.806 155.767 199.712 157.316H203.17V157.232ZM209.707 153.97C209.969 153.97 210.211 153.998 210.435 154.054L210.197 155.314C209.973 155.258 209.759 155.23 209.553 155.23C209.096 155.23 208.727 155.398 208.447 155.734C208.167 156.07 207.948 156.593 207.789 157.302V161.516H206.501V154.138H207.607L207.733 155.636C207.929 155.085 208.195 154.67 208.531 154.39C208.867 154.11 209.259 153.97 209.707 153.97Z" fill="#001826" fill-opacity="0.9"/>
<circle cx="37.1753" cy="156.538" r="36.1753" fill="white" stroke="#004166" stroke-opacity="0.1" stroke-width="2" stroke-linecap="round"/>
<path d="M21.8516 140.549C22.4303 140.549 22.9156 140.623 23.3076 140.773C23.709 140.922 24.115 141.165 24.5256 141.501L23.7976 142.355C23.2096 141.879 22.589 141.641 21.9356 141.641C21.133 141.641 20.4843 141.949 19.9896 142.565C19.5043 143.181 19.2616 144.17 19.2616 145.533C19.2616 146.858 19.5043 147.838 19.9896 148.473C20.475 149.098 21.119 149.411 21.9216 149.411C22.3323 149.411 22.6916 149.341 22.9996 149.201C23.3076 149.061 23.6343 148.865 23.9796 148.613L24.6376 149.453C24.339 149.761 23.9563 150.017 23.4896 150.223C23.023 150.428 22.4863 150.531 21.8796 150.531C21.0956 150.531 20.3956 150.339 19.7796 149.957C19.173 149.565 18.697 148.995 18.3516 148.249C18.0156 147.493 17.8476 146.587 17.8476 145.533C17.8476 144.478 18.025 143.577 18.3796 142.831C18.7343 142.075 19.215 141.505 19.8216 141.123C20.4283 140.74 21.105 140.549 21.8516 140.549ZM29.2425 142.817C29.5039 142.817 29.7465 142.845 29.9705 142.901L29.7325 144.161C29.5085 144.105 29.2939 144.077 29.0885 144.077C28.6312 144.077 28.2625 144.245 27.9825 144.581C27.7025 144.917 27.4832 145.439 27.3245 146.149V150.363H26.0365V142.985H27.1425L27.2685 144.483C27.4645 143.932 27.7305 143.517 28.0665 143.237C28.4025 142.957 28.7945 142.817 29.2425 142.817ZM36.5851 146.457C36.5851 146.671 36.5758 146.891 36.5571 147.115H31.8531C31.9091 147.927 32.1144 148.524 32.4691 148.907C32.8238 149.289 33.2811 149.481 33.8411 149.481C34.1958 149.481 34.5224 149.429 34.8211 149.327C35.1198 149.224 35.4324 149.061 35.7591 148.837L36.3191 149.607C35.5351 150.223 34.6764 150.531 33.7431 150.531C32.7164 150.531 31.9138 150.195 31.3351 149.523C30.7658 148.851 30.4811 147.927 30.4811 146.751C30.4811 145.985 30.6024 145.309 30.8451 144.721C31.0971 144.123 31.4518 143.657 31.9091 143.321C32.3758 142.985 32.9218 142.817 33.5471 142.817C34.5271 142.817 35.2784 143.139 35.8011 143.783C36.3238 144.427 36.5851 145.318 36.5851 146.457ZM35.3111 146.079C35.3111 145.351 35.1664 144.795 34.8771 144.413C34.5878 144.03 34.1538 143.839 33.5751 143.839C32.5204 143.839 31.9464 144.613 31.8531 146.163H35.3111V146.079ZM43.4753 148.641C43.4753 148.939 43.5266 149.163 43.6293 149.313C43.732 149.453 43.886 149.56 44.0913 149.635L43.7973 150.531C43.4146 150.484 43.1066 150.377 42.8733 150.209C42.64 150.041 42.4673 149.779 42.3553 149.425C41.8606 150.162 41.128 150.531 40.1573 150.531C39.4293 150.531 38.8553 150.325 38.4353 149.915C38.0153 149.504 37.8053 148.967 37.8053 148.305C37.8053 147.521 38.0853 146.919 38.6453 146.499C39.2146 146.079 40.0173 145.869 41.0533 145.869H42.1873V145.323C42.1873 144.8 42.0613 144.427 41.8093 144.203C41.5573 143.979 41.17 143.867 40.6473 143.867C40.106 143.867 39.4433 143.997 38.6593 144.259L38.3373 143.321C39.252 142.985 40.1013 142.817 40.8853 142.817C41.7533 142.817 42.402 143.031 42.8313 143.461C43.2606 143.881 43.4753 144.483 43.4753 145.267V148.641ZM40.4513 149.565C41.1886 149.565 41.7673 149.182 42.1873 148.417V146.723H41.2213C39.8586 146.723 39.1773 147.227 39.1773 148.235C39.1773 148.673 39.2846 149.005 39.4993 149.229C39.714 149.453 40.0313 149.565 40.4513 149.565ZM49.8445 150.027C49.3592 150.363 48.8085 150.531 48.1925 150.531C47.5672 150.531 47.0772 150.353 46.7225 149.999C46.3772 149.635 46.2045 149.112 46.2045 148.431V143.979H44.9165V142.985H46.2045V141.319L47.4925 141.165V142.985H49.2425L49.1025 143.979H47.4925V148.375C47.4925 148.757 47.5579 149.037 47.6885 149.215C47.8285 149.383 48.0572 149.467 48.3745 149.467C48.6639 149.467 48.9905 149.369 49.3545 149.173L49.8445 150.027ZM56.546 146.457C56.546 146.671 56.5367 146.891 56.518 147.115H51.814C51.87 147.927 52.0754 148.524 52.43 148.907C52.7847 149.289 53.242 149.481 53.802 149.481C54.1567 149.481 54.4834 149.429 54.782 149.327C55.0807 149.224 55.3934 149.061 55.72 148.837L56.28 149.607C55.496 150.223 54.6374 150.531 53.704 150.531C52.6774 150.531 51.8747 150.195 51.296 149.523C50.7267 148.851 50.442 147.927 50.442 146.751C50.442 145.985 50.5634 145.309 50.806 144.721C51.058 144.123 51.4127 143.657 51.87 143.321C52.3367 142.985 52.8827 142.817 53.508 142.817C54.488 142.817 55.2394 143.139 55.762 143.783C56.2847 144.427 56.546 145.318 56.546 146.457ZM55.272 146.079C55.272 145.351 55.1274 144.795 54.838 144.413C54.5487 144.03 54.1147 143.839 53.536 143.839C52.4814 143.839 51.9074 144.613 51.814 146.163H55.272V146.079ZM29.0437 163.817C29.7157 163.817 30.2384 164.017 30.6117 164.419C30.9944 164.82 31.1857 165.371 31.1857 166.071V171.363H29.8977V166.253C29.8977 165.73 29.7997 165.361 29.6037 165.147C29.4077 164.932 29.1184 164.825 28.7357 164.825C28.3437 164.825 27.9984 164.937 27.6997 165.161C27.401 165.385 27.121 165.707 26.8597 166.127V171.363H25.5717V163.985H26.6777L26.7897 165.077C27.051 164.685 27.373 164.377 27.7557 164.153C28.1477 163.929 28.577 163.817 29.0437 163.817ZM39.3468 167.457C39.3468 167.671 39.3375 167.891 39.3188 168.115H34.6148C34.6708 168.927 34.8762 169.524 35.2308 169.907C35.5855 170.289 36.0428 170.481 36.6028 170.481C36.9575 170.481 37.2842 170.429 37.5828 170.327C37.8815 170.224 38.1942 170.061 38.5208 169.837L39.0808 170.607C38.2968 171.223 37.4382 171.531 36.5048 171.531C35.4782 171.531 34.6755 171.195 34.0968 170.523C33.5275 169.851 33.2428 168.927 33.2428 167.751C33.2428 166.985 33.3642 166.309 33.6068 165.721C33.8588 165.123 34.2135 164.657 34.6708 164.321C35.1375 163.985 35.6835 163.817 36.3088 163.817C37.2888 163.817 38.0402 164.139 38.5628 164.783C39.0855 165.427 39.3468 166.318 39.3468 167.457ZM38.0728 167.079C38.0728 166.351 37.9282 165.795 37.6388 165.413C37.3495 165.03 36.9155 164.839 36.3368 164.839C35.2822 164.839 34.7082 165.613 34.6148 167.163H38.0728V167.079ZM49.8317 163.985L48.1517 171.363H46.4017L45.1137 165.147L43.7837 171.363H42.0757L40.3537 163.985H41.6417L42.9717 170.467L44.4277 163.985H45.8697L47.2557 170.467L48.5997 163.985H49.8317Z" fill="#001826" fill-opacity="0.9"/>
<path d="M36.1753 115.863C36.1753 116.415 36.623 116.863 37.1753 116.863C37.7276 116.863 38.1753 116.415 38.1753 115.863H36.1753ZM136.413 47.8035C136.804 47.413 136.804 46.7799 136.413 46.3893L130.049 40.0254C129.659 39.6348 129.026 39.6348 128.635 40.0254C128.245 40.4159 128.245 41.0491 128.635 41.4396L134.292 47.0964L128.635 52.7533C128.245 53.1438 128.245 53.777 128.635 54.1675C129.026 54.558 129.659 54.558 130.049 54.1675L136.413 47.8035ZM38.1753 115.863V50.0964H36.1753V115.863H38.1753ZM40.1753 48.0964H135.706V46.0964H40.1753V48.0964ZM38.1753 50.0964C38.1753 48.9919 39.0707 48.0964 40.1753 48.0964V46.0964C37.9662 46.0964 36.1753 47.8873 36.1753 50.0964H38.1753Z" fill="#004166" fill-opacity="0.1"/>
<path d="M140 242.305H241V302.305H140V242.305Z" fill="white" stroke="#004166" stroke-opacity="0.1" stroke-width="2" stroke-linecap="round"/>
<path d="M171.69 256.659V266.305H170.36V256.659H171.69ZM181.825 258.759C182.432 258.759 182.917 258.964 183.281 259.375C183.645 259.776 183.827 260.322 183.827 261.013V266.305H182.539V261.195C182.539 260.243 182.194 259.767 181.503 259.767C181.139 259.767 180.831 259.874 180.579 260.089C180.327 260.294 180.056 260.621 179.767 261.069V266.305H178.479V261.195C178.479 260.243 178.134 259.767 177.443 259.767C177.07 259.767 176.757 259.874 176.505 260.089C176.253 260.304 175.987 260.63 175.707 261.069V266.305H174.419V258.927H175.525L175.637 260.005C176.188 259.174 176.897 258.759 177.765 258.759C178.222 258.759 178.61 258.876 178.927 259.109C179.254 259.342 179.487 259.669 179.627 260.089C179.916 259.66 180.234 259.333 180.579 259.109C180.934 258.876 181.349 258.759 181.825 258.759ZM189.811 258.759C190.753 258.759 191.444 259.095 191.883 259.767C192.321 260.439 192.541 261.386 192.541 262.609C192.541 263.766 192.289 264.7 191.785 265.409C191.281 266.118 190.567 266.473 189.643 266.473C188.821 266.473 188.177 266.193 187.711 265.633V269.133L186.423 269.287V258.927H187.529L187.627 259.921C187.897 259.548 188.224 259.263 188.607 259.067C188.989 258.862 189.391 258.759 189.811 258.759ZM189.335 265.423C190.548 265.423 191.155 264.485 191.155 262.609C191.155 260.724 190.599 259.781 189.489 259.781C189.125 259.781 188.793 259.888 188.495 260.103C188.196 260.318 187.935 260.593 187.711 260.929V264.527C187.897 264.816 188.131 265.04 188.411 265.199C188.691 265.348 188.999 265.423 189.335 265.423ZM197.507 258.759C198.543 258.759 199.346 259.104 199.915 259.795C200.494 260.486 200.783 261.424 200.783 262.609C200.783 263.374 200.653 264.051 200.391 264.639C200.13 265.218 199.752 265.67 199.257 265.997C198.763 266.314 198.175 266.473 197.493 266.473C196.457 266.473 195.65 266.128 195.071 265.437C194.493 264.746 194.203 263.808 194.203 262.623C194.203 261.858 194.334 261.186 194.595 260.607C194.857 260.019 195.235 259.566 195.729 259.249C196.224 258.922 196.817 258.759 197.507 258.759ZM197.507 259.795C196.229 259.795 195.589 260.738 195.589 262.623C195.589 264.499 196.224 265.437 197.493 265.437C198.763 265.437 199.397 264.494 199.397 262.609C199.397 260.733 198.767 259.795 197.507 259.795ZM206.117 258.759C206.378 258.759 206.621 258.787 206.845 258.843L206.607 260.103C206.383 260.047 206.168 260.019 205.963 260.019C205.506 260.019 205.137 260.187 204.857 260.523C204.577 260.859 204.358 261.382 204.199 262.091V266.305H202.911V258.927H204.017L204.143 260.425C204.339 259.874 204.605 259.459 204.941 259.179C205.277 258.899 205.669 258.759 206.117 258.759ZM212.035 265.969C211.55 266.305 210.999 266.473 210.383 266.473C209.758 266.473 209.268 266.296 208.913 265.941C208.568 265.577 208.395 265.054 208.395 264.373V259.921H207.107V258.927H208.395V257.261L209.683 257.107V258.927H211.433L211.293 259.921H209.683V264.317C209.683 264.7 209.749 264.98 209.879 265.157C210.019 265.325 210.248 265.409 210.565 265.409C210.855 265.409 211.181 265.311 211.545 265.115L212.035 265.969ZM165.475 276.959V287.305H164.341L164.215 286.283C163.972 286.656 163.669 286.95 163.305 287.165C162.941 287.37 162.535 287.473 162.087 287.473C161.209 287.473 160.523 287.128 160.029 286.437C159.543 285.746 159.301 284.818 159.301 283.651C159.301 282.895 159.417 282.223 159.651 281.635C159.884 281.047 160.22 280.59 160.659 280.263C161.097 279.927 161.611 279.759 162.199 279.759C162.955 279.759 163.617 280.062 164.187 280.669V276.805L165.475 276.959ZM162.367 286.451C162.759 286.451 163.095 286.362 163.375 286.185C163.655 285.998 163.925 285.723 164.187 285.359V281.747C163.944 281.43 163.683 281.192 163.403 281.033C163.132 280.865 162.824 280.781 162.479 280.781C161.909 280.781 161.466 281.019 161.149 281.495C160.841 281.971 160.687 282.68 160.687 283.623C160.687 284.575 160.831 285.284 161.121 285.751C161.41 286.218 161.825 286.451 162.367 286.451ZM170.902 279.759C171.938 279.759 172.74 280.104 173.31 280.795C173.888 281.486 174.178 282.424 174.178 283.609C174.178 284.374 174.047 285.051 173.786 285.639C173.524 286.218 173.146 286.67 172.652 286.997C172.157 287.314 171.569 287.473 170.888 287.473C169.852 287.473 169.044 287.128 168.466 286.437C167.887 285.746 167.598 284.808 167.598 283.623C167.598 282.858 167.728 282.186 167.99 281.607C168.251 281.019 168.629 280.566 169.124 280.249C169.618 279.922 170.211 279.759 170.902 279.759ZM170.902 280.795C169.623 280.795 168.984 281.738 168.984 283.623C168.984 285.499 169.618 286.437 170.888 286.437C172.157 286.437 172.792 285.494 172.792 283.609C172.792 281.733 172.162 280.795 170.902 280.795ZM178.994 279.759C179.432 279.759 179.834 279.824 180.198 279.955C180.562 280.076 180.912 280.277 181.248 280.557L180.632 281.369C180.37 281.182 180.114 281.047 179.862 280.963C179.619 280.87 179.348 280.823 179.05 280.823C178.452 280.823 177.986 281.061 177.65 281.537C177.323 282.013 177.16 282.718 177.16 283.651C177.16 284.584 177.323 285.275 177.65 285.723C177.976 286.162 178.443 286.381 179.05 286.381C179.339 286.381 179.605 286.339 179.848 286.255C180.09 286.162 180.361 286.017 180.66 285.821L181.248 286.661C180.576 287.202 179.824 287.473 178.994 287.473C177.995 287.473 177.206 287.137 176.628 286.465C176.058 285.793 175.774 284.864 175.774 283.679C175.774 282.895 175.904 282.209 176.166 281.621C176.427 281.033 176.796 280.576 177.272 280.249C177.757 279.922 178.331 279.759 178.994 279.759ZM188.342 287.305H187.236L187.138 286.157C186.858 286.614 186.536 286.95 186.172 287.165C185.808 287.37 185.365 287.473 184.842 287.473C184.198 287.473 183.694 287.277 183.33 286.885C182.966 286.493 182.784 285.938 182.784 285.219V279.927H184.072V285.079C184.072 285.583 184.161 285.942 184.338 286.157C184.516 286.362 184.805 286.465 185.206 286.465C185.925 286.465 186.541 286.04 187.054 285.191V279.927H188.342V287.305ZM198.409 279.759C199.016 279.759 199.501 279.964 199.865 280.375C200.229 280.776 200.411 281.322 200.411 282.013V287.305H199.123V282.195C199.123 281.243 198.778 280.767 198.087 280.767C197.723 280.767 197.415 280.874 197.163 281.089C196.911 281.294 196.64 281.621 196.351 282.069V287.305H195.063V282.195C195.063 281.243 194.718 280.767 194.027 280.767C193.654 280.767 193.341 280.874 193.089 281.089C192.837 281.304 192.571 281.63 192.291 282.069V287.305H191.003V279.927H192.109L192.221 281.005C192.772 280.174 193.481 279.759 194.349 279.759C194.806 279.759 195.194 279.876 195.511 280.109C195.838 280.342 196.071 280.669 196.211 281.089C196.5 280.66 196.818 280.333 197.163 280.109C197.518 279.876 197.933 279.759 198.409 279.759ZM208.579 283.399C208.579 283.614 208.569 283.833 208.551 284.057H203.847C203.903 284.869 204.108 285.466 204.463 285.849C204.817 286.232 205.275 286.423 205.835 286.423C206.189 286.423 206.516 286.372 206.815 286.269C207.113 286.166 207.426 286.003 207.753 285.779L208.313 286.549C207.529 287.165 206.67 287.473 205.737 287.473C204.71 287.473 203.907 287.137 203.329 286.465C202.759 285.793 202.475 284.869 202.475 283.693C202.475 282.928 202.596 282.251 202.839 281.663C203.091 281.066 203.445 280.599 203.903 280.263C204.369 279.927 204.915 279.759 205.541 279.759C206.521 279.759 207.272 280.081 207.795 280.725C208.317 281.369 208.579 282.26 208.579 283.399ZM207.305 283.021C207.305 282.293 207.16 281.738 206.871 281.355C206.581 280.972 206.147 280.781 205.569 280.781C204.514 280.781 203.94 281.556 203.847 283.105H207.305V283.021ZM214.108 279.759C214.78 279.759 215.302 279.96 215.676 280.361C216.058 280.762 216.25 281.313 216.25 282.013V287.305H214.962V282.195C214.962 281.672 214.864 281.304 214.668 281.089C214.472 280.874 214.182 280.767 213.8 280.767C213.408 280.767 213.062 280.879 212.764 281.103C212.465 281.327 212.185 281.649 211.924 282.069V287.305H210.636V279.927H211.742L211.854 281.019C212.115 280.627 212.437 280.319 212.82 280.095C213.212 279.871 213.641 279.759 214.108 279.759ZM222.563 286.969C222.077 287.305 221.527 287.473 220.911 287.473C220.285 287.473 219.795 287.296 219.441 286.941C219.095 286.577 218.923 286.054 218.923 285.373V280.921H217.635V279.927H218.923V278.261L220.211 278.107V279.927H221.961L221.821 280.921H220.211V285.317C220.211 285.7 220.276 285.98 220.407 286.157C220.547 286.325 220.775 286.409 221.093 286.409C221.382 286.409 221.709 286.311 222.073 286.115L222.563 286.969Z" fill="#001826" fill-opacity="0.9"/>
<path d="M305.055 192.713H405.796V254.99H305.055V192.713Z" fill="white" stroke="#004166" stroke-opacity="0.1" stroke-width="2" stroke-linecap="round"/>
<path d="M324.034 217.713V208.067H329.158L329.004 209.131H325.364V212.421H328.514V213.471H325.364V217.713H324.034ZM333.555 210.167C333.816 210.167 334.059 210.195 334.283 210.251L334.045 211.511C333.821 211.455 333.606 211.427 333.401 211.427C332.943 211.427 332.575 211.595 332.295 211.931C332.015 212.267 331.795 212.79 331.637 213.499V217.713H330.349V210.335H331.455L331.581 211.833C331.777 211.283 332.043 210.867 332.379 210.587C332.715 210.307 333.107 210.167 333.555 210.167ZM338.097 210.167C339.133 210.167 339.936 210.513 340.505 211.203C341.084 211.894 341.373 212.832 341.373 214.017C341.373 214.783 341.242 215.459 340.981 216.047C340.72 216.626 340.342 217.079 339.847 217.405C339.352 217.723 338.764 217.881 338.083 217.881C337.047 217.881 336.24 217.536 335.661 216.845C335.082 216.155 334.793 215.217 334.793 214.031C334.793 213.266 334.924 212.594 335.185 212.015C335.446 211.427 335.824 210.975 336.319 210.657C336.814 210.331 337.406 210.167 338.097 210.167ZM338.097 211.203C336.818 211.203 336.179 212.146 336.179 214.031C336.179 215.907 336.814 216.845 338.083 216.845C339.352 216.845 339.987 215.903 339.987 214.017C339.987 212.141 339.357 211.203 338.097 211.203ZM350.907 210.167C351.514 210.167 351.999 210.373 352.363 210.783C352.727 211.185 352.909 211.731 352.909 212.421V217.713H351.621V212.603C351.621 211.651 351.276 211.175 350.585 211.175C350.221 211.175 349.913 211.283 349.661 211.497C349.409 211.703 349.138 212.029 348.849 212.477V217.713H347.561V212.603C347.561 211.651 347.216 211.175 346.525 211.175C346.152 211.175 345.839 211.283 345.587 211.497C345.335 211.712 345.069 212.039 344.789 212.477V217.713H343.501V210.335H344.607L344.719 211.413C345.27 210.583 345.979 210.167 346.847 210.167C347.304 210.167 347.692 210.284 348.009 210.517C348.336 210.751 348.569 211.077 348.709 211.497C348.998 211.068 349.316 210.741 349.661 210.517C350.016 210.284 350.431 210.167 350.907 210.167ZM360.68 217.881C360.204 217.881 359.826 217.741 359.546 217.461C359.275 217.172 359.14 216.771 359.14 216.257V207.367L360.428 207.213V216.229C360.428 216.435 360.461 216.584 360.526 216.677C360.601 216.771 360.722 216.817 360.89 216.817C361.067 216.817 361.226 216.789 361.366 216.733L361.702 217.629C361.394 217.797 361.053 217.881 360.68 217.881ZM366.015 210.167C367.051 210.167 367.854 210.513 368.423 211.203C369.002 211.894 369.291 212.832 369.291 214.017C369.291 214.783 369.16 215.459 368.899 216.047C368.638 216.626 368.26 217.079 367.765 217.405C367.27 217.723 366.682 217.881 366.001 217.881C364.965 217.881 364.158 217.536 363.579 216.845C363 216.155 362.711 215.217 362.711 214.031C362.711 213.266 362.842 212.594 363.103 212.015C363.364 211.427 363.742 210.975 364.237 210.657C364.732 210.331 365.324 210.167 366.015 210.167ZM366.015 211.203C364.736 211.203 364.097 212.146 364.097 214.031C364.097 215.907 364.732 216.845 366.001 216.845C367.27 216.845 367.905 215.903 367.905 214.017C367.905 212.141 367.275 211.203 366.015 211.203ZM374.107 210.167C374.546 210.167 374.947 210.233 375.311 210.363C375.675 210.485 376.025 210.685 376.361 210.965L375.745 211.777C375.484 211.591 375.227 211.455 374.975 211.371C374.732 211.278 374.462 211.231 374.163 211.231C373.566 211.231 373.099 211.469 372.763 211.945C372.436 212.421 372.273 213.126 372.273 214.059C372.273 214.993 372.436 215.683 372.763 216.131C373.09 216.57 373.556 216.789 374.163 216.789C374.452 216.789 374.718 216.747 374.961 216.663C375.204 216.57 375.474 216.425 375.773 216.229L376.361 217.069C375.689 217.611 374.938 217.881 374.107 217.881C373.108 217.881 372.32 217.545 371.741 216.873C371.172 216.201 370.887 215.273 370.887 214.087C370.887 213.303 371.018 212.617 371.279 212.029C371.54 211.441 371.909 210.984 372.385 210.657C372.87 210.331 373.444 210.167 374.107 210.167ZM382.938 215.991C382.938 216.29 382.989 216.514 383.092 216.663C383.194 216.803 383.348 216.911 383.554 216.985L383.26 217.881C382.877 217.835 382.569 217.727 382.336 217.559C382.102 217.391 381.93 217.13 381.818 216.775C381.323 217.513 380.59 217.881 379.62 217.881C378.892 217.881 378.318 217.676 377.898 217.265C377.478 216.855 377.268 216.318 377.268 215.655C377.268 214.871 377.548 214.269 378.108 213.849C378.677 213.429 379.48 213.219 380.516 213.219H381.65V212.673C381.65 212.151 381.524 211.777 381.272 211.553C381.02 211.329 380.632 211.217 380.11 211.217C379.568 211.217 378.906 211.348 378.122 211.609L377.8 210.671C378.714 210.335 379.564 210.167 380.348 210.167C381.216 210.167 381.864 210.382 382.294 210.811C382.723 211.231 382.938 211.833 382.938 212.617V215.991ZM379.914 216.915C380.651 216.915 381.23 216.533 381.65 215.767V214.073H380.684C379.321 214.073 378.64 214.577 378.64 215.585C378.64 216.024 378.747 216.355 378.962 216.579C379.176 216.803 379.494 216.915 379.914 216.915ZM386.916 217.881C386.44 217.881 386.062 217.741 385.782 217.461C385.512 217.172 385.376 216.771 385.376 216.257V207.367L386.664 207.213V216.229C386.664 216.435 386.697 216.584 386.762 216.677C386.837 216.771 386.958 216.817 387.126 216.817C387.304 216.817 387.462 216.789 387.602 216.733L387.938 217.629C387.63 217.797 387.29 217.881 386.916 217.881ZM342.056 228.367V238.713H340.922L340.796 237.691C340.553 238.065 340.25 238.359 339.886 238.573C339.522 238.779 339.116 238.881 338.668 238.881C337.79 238.881 337.104 238.536 336.61 237.845C336.124 237.155 335.882 236.226 335.882 235.059C335.882 234.303 335.998 233.631 336.232 233.043C336.465 232.455 336.801 231.998 337.24 231.671C337.678 231.335 338.192 231.167 338.78 231.167C339.536 231.167 340.198 231.471 340.768 232.077V228.213L342.056 228.367ZM338.948 237.859C339.34 237.859 339.676 237.771 339.956 237.593C340.236 237.407 340.506 237.131 340.768 236.767V233.155C340.525 232.838 340.264 232.6 339.984 232.441C339.713 232.273 339.405 232.189 339.06 232.189C338.49 232.189 338.047 232.427 337.73 232.903C337.422 233.379 337.268 234.089 337.268 235.031C337.268 235.983 337.412 236.693 337.702 237.159C337.991 237.626 338.406 237.859 338.948 237.859ZM350.283 234.807C350.283 235.022 350.274 235.241 350.255 235.465H345.551C345.607 236.277 345.812 236.875 346.167 237.257C346.522 237.64 346.979 237.831 347.539 237.831C347.894 237.831 348.22 237.78 348.519 237.677C348.818 237.575 349.13 237.411 349.457 237.187L350.017 237.957C349.233 238.573 348.374 238.881 347.441 238.881C346.414 238.881 345.612 238.545 345.033 237.873C344.464 237.201 344.179 236.277 344.179 235.101C344.179 234.336 344.3 233.659 344.543 233.071C344.795 232.474 345.15 232.007 345.607 231.671C346.074 231.335 346.62 231.167 347.245 231.167C348.225 231.167 348.976 231.489 349.499 232.133C350.022 232.777 350.283 233.669 350.283 234.807ZM349.009 234.429C349.009 233.701 348.864 233.146 348.575 232.763C348.286 232.381 347.852 232.189 347.273 232.189C346.218 232.189 345.644 232.964 345.551 234.513H349.009V234.429ZM357.703 231.335L355.197 238.713H353.643L351.095 231.335H352.495L354.427 237.565L356.345 231.335H357.703ZM360.464 231.335V238.713H359.176V231.335H360.464ZM359.806 227.793C360.076 227.793 360.296 227.877 360.464 228.045C360.632 228.213 360.716 228.423 360.716 228.675C360.716 228.927 360.632 229.137 360.464 229.305C360.296 229.464 360.076 229.543 359.806 229.543C359.544 229.543 359.33 229.464 359.162 229.305C358.994 229.137 358.91 228.927 358.91 228.675C358.91 228.423 358.994 228.213 359.162 228.045C359.33 227.877 359.544 227.793 359.806 227.793ZM365.815 231.167C366.254 231.167 366.655 231.233 367.019 231.363C367.383 231.485 367.733 231.685 368.069 231.965L367.453 232.777C367.192 232.591 366.935 232.455 366.683 232.371C366.44 232.278 366.17 232.231 365.871 232.231C365.274 232.231 364.807 232.469 364.471 232.945C364.144 233.421 363.981 234.126 363.981 235.059C363.981 235.993 364.144 236.683 364.471 237.131C364.798 237.57 365.264 237.789 365.871 237.789C366.16 237.789 366.426 237.747 366.669 237.663C366.912 237.57 367.182 237.425 367.481 237.229L368.069 238.069C367.397 238.611 366.646 238.881 365.815 238.881C364.816 238.881 364.028 238.545 363.449 237.873C362.88 237.201 362.595 236.273 362.595 235.087C362.595 234.303 362.726 233.617 362.987 233.029C363.248 232.441 363.617 231.984 364.093 231.657C364.578 231.331 365.152 231.167 365.815 231.167ZM375.111 234.807C375.111 235.022 375.102 235.241 375.083 235.465H370.379C370.435 236.277 370.64 236.875 370.995 237.257C371.35 237.64 371.807 237.831 372.367 237.831C372.722 237.831 373.048 237.78 373.347 237.677C373.646 237.575 373.958 237.411 374.285 237.187L374.845 237.957C374.061 238.573 373.202 238.881 372.269 238.881C371.242 238.881 370.44 238.545 369.861 237.873C369.292 237.201 369.007 236.277 369.007 235.101C369.007 234.336 369.128 233.659 369.371 233.071C369.623 232.474 369.978 232.007 370.435 231.671C370.902 231.335 371.448 231.167 372.073 231.167C373.053 231.167 373.804 231.489 374.327 232.133C374.85 232.777 375.111 233.669 375.111 234.807ZM373.837 234.429C373.837 233.701 373.692 233.146 373.403 232.763C373.114 232.381 372.68 232.189 372.101 232.189C371.046 232.189 370.472 232.964 370.379 234.513H373.837V234.429Z" fill="#001826" fill-opacity="0.9"/>
<path d="M305.056 293.305H405.797V335.433H305.056V293.305Z" fill="white" stroke="#004166" stroke-opacity="0.1" stroke-width="2" stroke-linecap="round"/>
<path d="M321.498 318.805V309.159H326.622L326.468 310.223H322.828V313.513H325.978V314.563H322.828V318.805H321.498ZM331.019 311.259C331.28 311.259 331.523 311.287 331.747 311.343L331.509 312.603C331.285 312.547 331.07 312.519 330.865 312.519C330.408 312.519 330.039 312.687 329.759 313.023C329.479 313.359 329.26 313.882 329.101 314.591V318.805H327.813V311.427H328.919L329.045 312.925C329.241 312.374 329.507 311.959 329.843 311.679C330.179 311.399 330.571 311.259 331.019 311.259ZM335.561 311.259C336.597 311.259 337.4 311.604 337.969 312.295C338.548 312.986 338.837 313.924 338.837 315.109C338.837 315.874 338.707 316.551 338.445 317.139C338.184 317.718 337.806 318.17 337.311 318.497C336.817 318.814 336.229 318.973 335.547 318.973C334.511 318.973 333.704 318.628 333.125 317.937C332.547 317.246 332.257 316.308 332.257 315.123C332.257 314.358 332.388 313.686 332.649 313.107C332.911 312.519 333.289 312.066 333.783 311.749C334.278 311.422 334.871 311.259 335.561 311.259ZM335.561 312.295C334.283 312.295 333.643 313.238 333.643 315.123C333.643 316.999 334.278 317.937 335.547 317.937C336.817 317.937 337.451 316.994 337.451 315.109C337.451 313.233 336.821 312.295 335.561 312.295ZM348.371 311.259C348.978 311.259 349.463 311.464 349.827 311.875C350.191 312.276 350.373 312.822 350.373 313.513V318.805H349.085V313.695C349.085 312.743 348.74 312.267 348.049 312.267C347.685 312.267 347.377 312.374 347.125 312.589C346.873 312.794 346.603 313.121 346.313 313.569V318.805H345.025V313.695C345.025 312.743 344.68 312.267 343.989 312.267C343.616 312.267 343.303 312.374 343.051 312.589C342.799 312.804 342.533 313.13 342.253 313.569V318.805H340.965V311.427H342.071L342.183 312.505C342.734 311.674 343.443 311.259 344.311 311.259C344.769 311.259 345.156 311.376 345.473 311.609C345.8 311.842 346.033 312.169 346.173 312.589C346.463 312.16 346.78 311.833 347.125 311.609C347.48 311.376 347.895 311.259 348.371 311.259ZM359.362 311.259C359.801 311.259 360.202 311.324 360.566 311.455C360.93 311.576 361.28 311.777 361.616 312.057L361 312.869C360.739 312.682 360.482 312.547 360.23 312.463C359.988 312.37 359.717 312.323 359.418 312.323C358.821 312.323 358.354 312.561 358.018 313.037C357.692 313.513 357.528 314.218 357.528 315.151C357.528 316.084 357.692 316.775 358.018 317.223C358.345 317.662 358.812 317.881 359.418 317.881C359.708 317.881 359.974 317.839 360.216 317.755C360.459 317.662 360.73 317.517 361.028 317.321L361.616 318.161C360.944 318.702 360.193 318.973 359.362 318.973C358.364 318.973 357.575 318.637 356.996 317.965C356.427 317.293 356.142 316.364 356.142 315.179C356.142 314.395 356.273 313.709 356.534 313.121C356.796 312.533 357.164 312.076 357.64 311.749C358.126 311.422 358.7 311.259 359.362 311.259ZM364.83 318.973C364.354 318.973 363.976 318.833 363.696 318.553C363.425 318.264 363.29 317.862 363.29 317.349V308.459L364.578 308.305V317.321C364.578 317.526 364.61 317.676 364.676 317.769C364.75 317.862 364.872 317.909 365.04 317.909C365.217 317.909 365.376 317.881 365.516 317.825L365.852 318.721C365.544 318.889 365.203 318.973 364.83 318.973ZM370.165 311.259C371.201 311.259 372.004 311.604 372.573 312.295C373.152 312.986 373.441 313.924 373.441 315.109C373.441 315.874 373.31 316.551 373.049 317.139C372.788 317.718 372.41 318.17 371.915 318.497C371.42 318.814 370.832 318.973 370.151 318.973C369.115 318.973 368.308 318.628 367.729 317.937C367.15 317.246 366.861 316.308 366.861 315.123C366.861 314.358 366.992 313.686 367.253 313.107C367.514 312.519 367.892 312.066 368.387 311.749C368.882 311.422 369.474 311.259 370.165 311.259ZM370.165 312.295C368.886 312.295 368.247 313.238 368.247 315.123C368.247 316.999 368.882 317.937 370.151 317.937C371.42 317.937 372.055 316.994 372.055 315.109C372.055 313.233 371.425 312.295 370.165 312.295ZM381.057 318.805H379.951L379.853 317.657C379.573 318.114 379.251 318.45 378.887 318.665C378.523 318.87 378.079 318.973 377.557 318.973C376.913 318.973 376.409 318.777 376.045 318.385C375.681 317.993 375.499 317.438 375.499 316.719V311.427H376.787V316.579C376.787 317.083 376.875 317.442 377.053 317.657C377.23 317.862 377.519 317.965 377.921 317.965C378.639 317.965 379.255 317.54 379.769 316.691V311.427H381.057V318.805ZM389.429 308.459V318.805H388.295L388.169 317.783C387.927 318.156 387.623 318.45 387.259 318.665C386.895 318.87 386.489 318.973 386.041 318.973C385.164 318.973 384.478 318.628 383.983 317.937C383.498 317.246 383.255 316.318 383.255 315.151C383.255 314.395 383.372 313.723 383.605 313.135C383.839 312.547 384.175 312.09 384.613 311.763C385.052 311.427 385.565 311.259 386.153 311.259C386.909 311.259 387.572 311.562 388.141 312.169V308.305L389.429 308.459ZM386.321 317.951C386.713 317.951 387.049 317.862 387.329 317.685C387.609 317.498 387.88 317.223 388.141 316.859V313.247C387.899 312.93 387.637 312.692 387.357 312.533C387.087 312.365 386.779 312.281 386.433 312.281C385.864 312.281 385.421 312.519 385.103 312.995C384.795 313.471 384.641 314.18 384.641 315.123C384.641 316.075 384.786 316.784 385.075 317.251C385.365 317.718 385.78 317.951 386.321 317.951Z" fill="#001826" fill-opacity="0.9"/>
<path d="M38.1753 197.213C38.1753 196.661 37.7276 196.213 37.1753 196.213C36.623 196.213 36.1753 196.661 36.1753 197.213H38.1753ZM136.207 273.012C136.598 272.621 136.598 271.988 136.207 271.598L129.843 265.234C129.453 264.843 128.819 264.843 128.429 265.234C128.038 265.624 128.038 266.258 128.429 266.648L134.086 272.305L128.429 277.962C128.038 278.352 128.038 278.985 128.429 279.376C128.819 279.766 129.453 279.766 129.843 279.376L136.207 273.012ZM36.1753 197.213V269.305H38.1753V197.213H36.1753ZM40.1753 273.305H135.5V271.305H40.1753V273.305ZM36.1753 269.305C36.1753 271.514 37.9662 273.305 40.1753 273.305V271.305C39.0707 271.305 38.1753 270.409 38.1753 269.305H36.1753Z" fill="#004166" fill-opacity="0.1"/>
<path d="M77.8506 155.538C77.2983 155.538 76.8506 155.986 76.8506 156.538C76.8506 157.09 77.2983 157.538 77.8506 157.538V155.538ZM136.413 157.245C136.804 156.855 136.804 156.222 136.413 155.831L130.049 149.467C129.659 149.076 129.026 149.076 128.635 149.467C128.245 149.858 128.245 150.491 128.635 150.881L134.292 156.538L128.635 162.195C128.245 162.585 128.245 163.219 128.635 163.609C129.026 164 129.659 164 130.049 163.609L136.413 157.245ZM77.8506 157.538H135.706V155.538H77.8506V157.538Z" fill="#004166" fill-opacity="0.1"/>
<path d="M245.5 271.305C244.948 271.305 244.5 271.753 244.5 272.305C244.5 272.857 244.948 273.305 245.5 273.305V271.305ZM301.262 224.559C301.653 224.168 301.653 223.535 301.262 223.144L294.898 216.78C294.508 216.39 293.875 216.39 293.484 216.78C293.094 217.171 293.094 217.804 293.484 218.195L299.141 223.851L293.484 229.508C293.094 229.899 293.094 230.532 293.484 230.923C293.875 231.313 294.508 231.313 294.898 230.923L301.262 224.559ZM245.5 273.305H270.028V271.305H245.5V273.305ZM274.028 269.305V226.851H272.028V269.305H274.028ZM276.028 224.851H300.555V222.851H276.028V224.851ZM274.028 226.851C274.028 225.747 274.923 224.851 276.028 224.851V222.851C273.818 222.851 272.028 224.642 272.028 226.851H274.028ZM270.028 273.305C272.237 273.305 274.028 271.514 274.028 269.305H272.028C272.028 270.409 271.132 271.305 270.028 271.305V273.305Z" fill="#004166" fill-opacity="0.1"/>
<path d="M245.5 271.305C244.948 271.305 244.5 271.753 244.5 272.305C244.5 272.857 244.948 273.305 245.5 273.305V271.305ZM301.263 315.076C301.653 314.686 301.653 314.052 301.263 313.662L294.899 307.298C294.508 306.907 293.875 306.907 293.485 307.298C293.094 307.688 293.094 308.322 293.485 308.712L299.141 314.369L293.485 320.026C293.094 320.416 293.094 321.05 293.485 321.44C293.875 321.831 294.508 321.831 294.899 321.44L301.263 315.076ZM245.5 273.305H270.028V271.305H245.5V273.305ZM272.028 275.305V311.369H274.028V275.305H272.028ZM276.028 315.369H300.556V313.369H276.028V315.369ZM272.028 311.369C272.028 313.578 273.819 315.369 276.028 315.369V313.369C274.923 313.369 274.028 312.474 274.028 311.369H272.028ZM270.028 273.305C271.132 273.305 272.028 274.2 272.028 275.305H274.028C274.028 273.096 272.237 271.305 270.028 271.305V273.305Z" fill="#004166" fill-opacity="0.1"/>
<path d="M305.055 1.30493H405.796V43.4331H305.055V1.30493Z" fill="white" stroke="#004166" stroke-opacity="0.1" stroke-width="2" stroke-linecap="round"/>
<path d="M329.848 21.7089C330.511 21.8209 331.048 22.0543 331.458 22.4089C331.869 22.7636 332.074 23.3143 332.074 24.0609C332.074 25.8903 330.8 26.8049 328.252 26.8049H325.592V17.1589H327.874C329.097 17.1589 330.03 17.3596 330.674 17.7609C331.328 18.1623 331.654 18.7736 331.654 19.5949C331.654 20.1549 331.477 20.6216 331.122 20.9949C330.777 21.3683 330.352 21.6063 329.848 21.7089ZM326.922 18.2089V21.2469H328.378C328.938 21.2469 329.396 21.1116 329.75 20.8409C330.114 20.5703 330.296 20.1876 330.296 19.6929C330.296 19.1329 330.105 18.7456 329.722 18.5309C329.349 18.3163 328.78 18.2089 328.014 18.2089H326.922ZM328.252 25.7409C329.036 25.7409 329.634 25.6243 330.044 25.3909C330.464 25.1576 330.674 24.7143 330.674 24.0609C330.674 23.4263 330.474 22.9689 330.072 22.6889C329.671 22.4089 329.148 22.2689 328.504 22.2689H326.922V25.7409H328.252ZM335.51 26.9729C335.034 26.9729 334.656 26.8329 334.376 26.5529C334.105 26.2636 333.97 25.8623 333.97 25.3489V16.4589L335.258 16.3049V25.3209C335.258 25.5263 335.291 25.6756 335.356 25.7689C335.431 25.8623 335.552 25.9089 335.72 25.9089C335.897 25.9089 336.056 25.8809 336.196 25.8249L336.532 26.7209C336.224 26.8889 335.883 26.9729 335.51 26.9729ZM343.043 25.0829C343.043 25.3816 343.094 25.6056 343.197 25.7549C343.3 25.8949 343.454 26.0023 343.659 26.0769L343.365 26.9729C342.982 26.9263 342.674 26.8189 342.441 26.6509C342.208 26.4829 342.035 26.2216 341.923 25.8669C341.428 26.6043 340.696 26.9729 339.725 26.9729C338.997 26.9729 338.423 26.7676 338.003 26.3569C337.583 25.9463 337.373 25.4096 337.373 24.7469C337.373 23.9629 337.653 23.3609 338.213 22.9409C338.782 22.5209 339.585 22.3109 340.621 22.3109H341.755V21.7649C341.755 21.2423 341.629 20.8689 341.377 20.6449C341.125 20.4209 340.738 20.3089 340.215 20.3089C339.674 20.3089 339.011 20.4396 338.227 20.7009L337.905 19.7629C338.82 19.4269 339.669 19.2589 340.453 19.2589C341.321 19.2589 341.97 19.4736 342.399 19.9029C342.828 20.3229 343.043 20.9249 343.043 21.7089V25.0829ZM340.019 26.0069C340.756 26.0069 341.335 25.6243 341.755 24.8589V23.1649H340.789C339.426 23.1649 338.745 23.6689 338.745 24.6769C338.745 25.1156 338.852 25.4469 339.067 25.6709C339.282 25.8949 339.599 26.0069 340.019 26.0069ZM349.16 19.2589C349.832 19.2589 350.355 19.4596 350.728 19.8609C351.111 20.2623 351.302 20.8129 351.302 21.5129V26.8049H350.014V21.6949C350.014 21.1723 349.916 20.8036 349.72 20.5889C349.524 20.3743 349.235 20.2669 348.852 20.2669C348.46 20.2669 348.115 20.3789 347.816 20.6029C347.518 20.8269 347.238 21.1489 346.976 21.5689V26.8049H345.688V19.4269H346.794L346.906 20.5189C347.168 20.1269 347.49 19.8189 347.872 19.5949C348.264 19.3709 348.694 19.2589 349.16 19.2589ZM355.18 16.3049V26.8049H353.892V16.4589L355.18 16.3049ZM359.422 19.4269L356.706 22.6889L359.73 26.8049H358.19L355.264 22.7729L357.98 19.4269H359.422ZM370.473 16.4589V26.8049H369.339L369.213 25.7829C368.97 26.1563 368.667 26.4503 368.303 26.6649C367.939 26.8703 367.533 26.9729 367.085 26.9729C366.207 26.9729 365.521 26.6276 365.027 25.9369C364.541 25.2463 364.299 24.3176 364.299 23.1509C364.299 22.3949 364.415 21.7229 364.649 21.1349C364.882 20.5469 365.218 20.0896 365.657 19.7629C366.095 19.4269 366.609 19.2589 367.197 19.2589C367.953 19.2589 368.615 19.5623 369.185 20.1689V16.3049L370.473 16.4589ZM367.365 25.9509C367.757 25.9509 368.093 25.8623 368.373 25.6849C368.653 25.4983 368.923 25.2229 369.185 24.8589V21.2469C368.942 20.9296 368.681 20.6916 368.401 20.5329C368.13 20.3649 367.822 20.2809 367.477 20.2809C366.907 20.2809 366.464 20.5189 366.147 20.9949C365.839 21.4709 365.685 22.1803 365.685 23.1229C365.685 24.0749 365.829 24.7843 366.119 25.2509C366.408 25.7176 366.823 25.9509 367.365 25.9509ZM375.9 19.2589C376.936 19.2589 377.739 19.6043 378.308 20.2949C378.887 20.9856 379.176 21.9236 379.176 23.1089C379.176 23.8743 379.045 24.5509 378.784 25.1389C378.523 25.7176 378.145 26.1703 377.65 26.4969C377.155 26.8143 376.567 26.9729 375.886 26.9729C374.85 26.9729 374.043 26.6276 373.464 25.9369C372.885 25.2463 372.596 24.3083 372.596 23.1229C372.596 22.3576 372.727 21.6856 372.988 21.1069C373.249 20.5189 373.627 20.0663 374.122 19.7489C374.617 19.4223 375.209 19.2589 375.9 19.2589ZM375.9 20.2949C374.621 20.2949 373.982 21.2376 373.982 23.1229C373.982 24.9989 374.617 25.9369 375.886 25.9369C377.155 25.9369 377.79 24.9943 377.79 23.1089C377.79 21.2329 377.16 20.2949 375.9 20.2949ZM383.992 19.2589C384.43 19.2589 384.832 19.3243 385.196 19.4549C385.56 19.5763 385.91 19.7769 386.246 20.0569L385.63 20.8689C385.368 20.6823 385.112 20.5469 384.86 20.4629C384.617 20.3696 384.346 20.3229 384.048 20.3229C383.45 20.3229 382.984 20.5609 382.648 21.0369C382.321 21.5129 382.158 22.2176 382.158 23.1509C382.158 24.0843 382.321 24.7749 382.648 25.2229C382.974 25.6616 383.441 25.8809 384.048 25.8809C384.337 25.8809 384.603 25.8389 384.846 25.7549C385.088 25.6616 385.359 25.5169 385.658 25.3209L386.246 26.1609C385.574 26.7023 384.822 26.9729 383.992 26.9729C382.993 26.9729 382.204 26.6369 381.626 25.9649C381.056 25.2929 380.772 24.3643 380.772 23.1789C380.772 22.3949 380.902 21.7089 381.164 21.1209C381.425 20.5329 381.794 20.0756 382.27 19.7489C382.755 19.4223 383.329 19.2589 383.992 19.2589Z" fill="#001826" fill-opacity="0.9"/>
<path d="M301 71.3049H415.479V115.265H301V71.3049Z" fill="white" stroke="#004166" stroke-opacity="0.1" stroke-width="2" stroke-linecap="round"/>
<path d="M313.551 97.8049V88.1589H318.675L318.521 89.2229H314.881V92.5129H318.031V93.5629H314.881V97.8049H313.551ZM323.072 90.2589C323.334 90.2589 323.576 90.2869 323.8 90.3429L323.562 91.6029C323.338 91.5469 323.124 91.5189 322.918 91.5189C322.461 91.5189 322.092 91.6869 321.812 92.0229C321.532 92.3589 321.313 92.8816 321.154 93.5909V97.8049H319.866V90.4269H320.972L321.098 91.9249C321.294 91.3743 321.56 90.9589 321.896 90.6789C322.232 90.3989 322.624 90.2589 323.072 90.2589ZM327.615 90.2589C328.651 90.2589 329.453 90.6043 330.023 91.2949C330.601 91.9856 330.891 92.9236 330.891 94.1089C330.891 94.8743 330.76 95.5509 330.499 96.1389C330.237 96.7176 329.859 97.1703 329.365 97.4969C328.87 97.8143 328.282 97.9729 327.601 97.9729C326.565 97.9729 325.757 97.6276 325.179 96.9369C324.6 96.2463 324.311 95.3083 324.311 94.1229C324.311 93.3576 324.441 92.6856 324.703 92.1069C324.964 91.5189 325.342 91.0663 325.837 90.7489C326.331 90.4223 326.924 90.2589 327.615 90.2589ZM327.615 91.2949C326.336 91.2949 325.697 92.2376 325.697 94.1229C325.697 95.9989 326.331 96.9369 327.601 96.9369C328.87 96.9369 329.505 95.9943 329.505 94.1089C329.505 92.2329 328.875 91.2949 327.615 91.2949ZM340.425 90.2589C341.031 90.2589 341.517 90.4643 341.881 90.8749C342.245 91.2763 342.427 91.8223 342.427 92.5129V97.8049H341.139V92.6949C341.139 91.7429 340.793 91.2669 340.103 91.2669C339.739 91.2669 339.431 91.3743 339.179 91.5889C338.927 91.7943 338.656 92.1209 338.367 92.5689V97.8049H337.079V92.6949C337.079 91.7429 336.733 91.2669 336.043 91.2669C335.669 91.2669 335.357 91.3743 335.105 91.5889C334.853 91.8036 334.587 92.1303 334.307 92.5689V97.8049H333.019V90.4269H334.125L334.237 91.5049C334.787 90.6743 335.497 90.2589 336.365 90.2589C336.822 90.2589 337.209 90.3756 337.527 90.6089C337.853 90.8423 338.087 91.1689 338.227 91.5889C338.516 91.1596 338.833 90.8329 339.179 90.6089C339.533 90.3756 339.949 90.2589 340.425 90.2589ZM352.452 97.4689C351.966 97.8049 351.416 97.9729 350.8 97.9729C350.174 97.9729 349.684 97.7956 349.33 97.4409C348.984 97.0769 348.812 96.5543 348.812 95.8729V91.4209H347.524V90.4269H348.812V88.7609L350.1 88.6069V90.4269H351.85L351.71 91.4209H350.1V95.8169C350.1 96.1996 350.165 96.4796 350.296 96.6569C350.436 96.8249 350.664 96.9089 350.982 96.9089C351.271 96.9089 351.598 96.8109 351.962 96.6149L352.452 97.4689ZM359.153 93.8989C359.153 94.1136 359.144 94.3329 359.125 94.5569H354.421C354.477 95.3689 354.682 95.9663 355.037 96.3489C355.392 96.7316 355.849 96.9229 356.409 96.9229C356.764 96.9229 357.09 96.8716 357.389 96.7689C357.688 96.6663 358 96.5029 358.327 96.2789L358.887 97.0489C358.103 97.6649 357.244 97.9729 356.311 97.9729C355.284 97.9729 354.482 97.6369 353.903 96.9649C353.334 96.2929 353.049 95.3689 353.049 94.1929C353.049 93.4276 353.17 92.7509 353.413 92.1629C353.665 91.5656 354.02 91.0989 354.477 90.7629C354.944 90.4269 355.49 90.2589 356.115 90.2589C357.095 90.2589 357.846 90.5809 358.369 91.2249C358.892 91.8689 359.153 92.7603 359.153 93.8989ZM357.879 93.5209C357.879 92.7929 357.734 92.2376 357.445 91.8549C357.156 91.4723 356.722 91.2809 356.143 91.2809C355.088 91.2809 354.514 92.0556 354.421 93.6049H357.879V93.5209ZM368.616 90.2589C369.223 90.2589 369.708 90.4643 370.072 90.8749C370.436 91.2763 370.618 91.8223 370.618 92.5129V97.8049H369.33V92.6949C369.33 91.7429 368.985 91.2669 368.294 91.2669C367.93 91.2669 367.622 91.3743 367.37 91.5889C367.118 91.7943 366.847 92.1209 366.558 92.5689V97.8049H365.27V92.6949C365.27 91.7429 364.925 91.2669 364.234 91.2669C363.861 91.2669 363.548 91.3743 363.296 91.5889C363.044 91.8036 362.778 92.1303 362.498 92.5689V97.8049H361.21V90.4269H362.316L362.428 91.5049C362.979 90.6743 363.688 90.2589 364.556 90.2589C365.013 90.2589 365.401 90.3756 365.718 90.6089C366.045 90.8423 366.278 91.1689 366.418 91.5889C366.707 91.1596 367.025 90.8329 367.37 90.6089C367.725 90.3756 368.14 90.2589 368.616 90.2589ZM376.602 90.2589C377.545 90.2589 378.235 90.5949 378.674 91.2669C379.113 91.9389 379.332 92.8863 379.332 94.1089C379.332 95.2663 379.08 96.1996 378.576 96.9089C378.072 97.6183 377.358 97.9729 376.434 97.9729C375.613 97.9729 374.969 97.6929 374.502 97.1329V100.633L373.214 100.787V90.4269H374.32L374.418 91.4209C374.689 91.0476 375.015 90.7629 375.398 90.5669C375.781 90.3616 376.182 90.2589 376.602 90.2589ZM376.126 96.9229C377.339 96.9229 377.946 95.9849 377.946 94.1089C377.946 92.2236 377.391 91.2809 376.28 91.2809C375.916 91.2809 375.585 91.3883 375.286 91.6029C374.987 91.8176 374.726 92.0929 374.502 92.4289V96.0269C374.689 96.3163 374.922 96.5403 375.202 96.6989C375.482 96.8483 375.79 96.9229 376.126 96.9229ZM382.996 97.9729C382.52 97.9729 382.142 97.8329 381.862 97.5529C381.592 97.2636 381.456 96.8623 381.456 96.3489V87.4589L382.744 87.3049V96.3209C382.744 96.5263 382.777 96.6756 382.842 96.7689C382.917 96.8623 383.038 96.9089 383.206 96.9089C383.384 96.9089 383.542 96.8809 383.682 96.8249L384.018 97.7209C383.71 97.8889 383.37 97.9729 382.996 97.9729ZM390.53 96.0829C390.53 96.3816 390.581 96.6056 390.684 96.7549C390.786 96.8949 390.94 97.0023 391.146 97.0769L390.852 97.9729C390.469 97.9263 390.161 97.8189 389.928 97.6509C389.694 97.4829 389.522 97.2216 389.41 96.8669C388.915 97.6043 388.182 97.9729 387.212 97.9729C386.484 97.9729 385.91 97.7676 385.49 97.3569C385.07 96.9463 384.86 96.4096 384.86 95.7469C384.86 94.9629 385.14 94.3609 385.7 93.9409C386.269 93.5209 387.072 93.3109 388.108 93.3109H389.242V92.7649C389.242 92.2423 389.116 91.8689 388.864 91.6449C388.612 91.4209 388.224 91.3089 387.702 91.3089C387.16 91.3089 386.498 91.4396 385.714 91.7009L385.392 90.7629C386.306 90.4269 387.156 90.2589 387.94 90.2589C388.808 90.2589 389.456 90.4736 389.886 90.9029C390.315 91.3229 390.53 91.9249 390.53 92.7089V96.0829ZM387.506 97.0069C388.243 97.0069 388.822 96.6243 389.242 95.8589V94.1649H388.276C386.913 94.1649 386.232 94.6689 386.232 95.6769C386.232 96.1156 386.339 96.4469 386.554 96.6709C386.768 96.8949 387.086 97.0069 387.506 97.0069ZM396.899 97.4689C396.413 97.8049 395.863 97.9729 395.247 97.9729C394.621 97.9729 394.131 97.7956 393.777 97.4409C393.431 97.0769 393.259 96.5543 393.259 95.8729V91.4209H391.971V90.4269H393.259V88.7609L394.547 88.6069V90.4269H396.297L396.157 91.4209H394.547V95.8169C394.547 96.1996 394.612 96.4796 394.743 96.6569C394.883 96.8249 395.111 96.9089 395.429 96.9089C395.718 96.9089 396.045 96.8109 396.409 96.6149L396.899 97.4689ZM403.6 93.8989C403.6 94.1136 403.591 94.3329 403.572 94.5569H398.868C398.924 95.3689 399.13 95.9663 399.484 96.3489C399.839 96.7316 400.296 96.9229 400.856 96.9229C401.211 96.9229 401.538 96.8716 401.836 96.7689C402.135 96.6663 402.448 96.5029 402.774 96.2789L403.334 97.0489C402.55 97.6649 401.692 97.9729 400.758 97.9729C399.732 97.9729 398.929 97.6369 398.35 96.9649C397.781 96.2929 397.496 95.3689 397.496 94.1929C397.496 93.4276 397.618 92.7509 397.86 92.1629C398.112 91.5656 398.467 91.0989 398.924 90.7629C399.391 90.4269 399.937 90.2589 400.562 90.2589C401.542 90.2589 402.294 90.5809 402.816 91.2249C403.339 91.8689 403.6 92.7603 403.6 93.8989ZM402.326 93.5209C402.326 92.7929 402.182 92.2376 401.892 91.8549C401.603 91.4723 401.169 91.2809 400.59 91.2809C399.536 91.2809 398.962 92.0556 398.868 93.6049H402.326V93.5209Z" fill="#001826" fill-opacity="0.9"/>
<path d="M245.447 46.0963C244.895 46.0963 244.447 46.544 244.447 47.0963C244.447 47.6486 244.895 48.0963 245.447 48.0963V46.0963ZM301.262 23.076C301.653 22.6855 301.653 22.0523 301.262 21.6618L294.898 15.2978C294.508 14.9073 293.875 14.9073 293.484 15.2978C293.094 15.6884 293.094 16.3215 293.484 16.712L299.141 22.3689L293.484 28.0258C293.094 28.4163 293.094 29.0494 293.484 29.44C293.875 29.8305 294.508 29.8305 294.898 29.44L301.262 23.076ZM245.447 48.0963H270.001V46.0963H245.447V48.0963ZM274.001 44.0963V25.3689H272.001V44.0963H274.001ZM276.001 23.3689H300.555V21.3689H276.001V23.3689ZM274.001 25.3689C274.001 24.2643 274.897 23.3689 276.001 23.3689V21.3689C273.792 21.3689 272.001 23.1598 272.001 25.3689H274.001ZM270.001 48.0963C272.21 48.0963 274.001 46.3055 274.001 44.0963H272.001C272.001 45.2009 271.106 46.0963 270.001 46.0963V48.0963Z" fill="#004166" fill-opacity="0.1"/>
<path d="M245.447 46.0964C244.895 46.0964 244.447 46.5442 244.447 47.0964C244.447 47.6487 244.895 48.0964 245.447 48.0964V46.0964ZM297.207 93.992C297.598 93.6014 297.598 92.9683 297.207 92.5777L290.843 86.2138C290.453 85.8233 289.819 85.8233 289.429 86.2138C289.038 86.6043 289.038 87.2375 289.429 87.628L295.086 93.2849L289.429 98.9417C289.038 99.3322 289.038 99.9654 289.429 100.356C289.819 100.746 290.453 100.746 290.843 100.356L297.207 93.992ZM245.447 48.0964H267.974V46.0964H245.447V48.0964ZM269.974 50.0964V90.2849H271.974V50.0964H269.974ZM273.974 94.2849H296.5V92.2849H273.974V94.2849ZM269.974 90.2849C269.974 92.494 271.764 94.2849 273.974 94.2849V92.2849C272.869 92.2849 271.974 91.3894 271.974 90.2849H269.974ZM267.974 48.0964C269.078 48.0964 269.974 48.9919 269.974 50.0964H271.974C271.974 47.8873 270.183 46.0964 267.974 46.0964V48.0964Z" fill="#004166" fill-opacity="0.1"/>
<circle cx="534.241" cy="94.1404" r="54.0339" fill="white" stroke="#004166" stroke-opacity="0.1" stroke-width="2" stroke-linecap="round"/>
<path d="M518.918 67.7924C519.496 67.7924 519.982 67.8671 520.374 68.0164C520.775 68.1658 521.181 68.4084 521.592 68.7444L520.864 69.5984C520.276 69.1224 519.655 68.8844 519.002 68.8844C518.199 68.8844 517.55 69.1924 517.056 69.8084C516.57 70.4244 516.328 71.4138 516.328 72.7764C516.328 74.1018 516.57 75.0818 517.056 75.7164C517.541 76.3418 518.185 76.6544 518.988 76.6544C519.398 76.6544 519.758 76.5844 520.066 76.4444C520.374 76.3044 520.7 76.1084 521.046 75.8564L521.704 76.6964C521.405 77.0044 521.022 77.2611 520.556 77.4664C520.089 77.6718 519.552 77.7744 518.946 77.7744C518.162 77.7744 517.462 77.5831 516.846 77.2004C516.239 76.8084 515.763 76.2391 515.418 75.4924C515.082 74.7364 514.914 73.8311 514.914 72.7764C514.914 71.7218 515.091 70.8211 515.446 70.0744C515.8 69.3184 516.281 68.7491 516.888 68.3664C517.494 67.9838 518.171 67.7924 518.918 67.7924ZM526.308 70.0604C526.57 70.0604 526.812 70.0884 527.036 70.1444L526.798 71.4044C526.574 71.3484 526.36 71.3204 526.154 71.3204C525.697 71.3204 525.328 71.4884 525.048 71.8244C524.768 72.1604 524.549 72.6831 524.39 73.3924V77.6064H523.102V70.2284H524.208L524.334 71.7264C524.53 71.1758 524.796 70.7604 525.132 70.4804C525.468 70.2004 525.86 70.0604 526.308 70.0604ZM533.651 73.7004C533.651 73.9151 533.642 74.1344 533.623 74.3584H528.919C528.975 75.1704 529.18 75.7678 529.535 76.1504C529.89 76.5331 530.347 76.7244 530.907 76.7244C531.262 76.7244 531.588 76.6731 531.887 76.5704C532.186 76.4678 532.498 76.3044 532.825 76.0804L533.385 76.8504C532.601 77.4664 531.742 77.7744 530.809 77.7744C529.782 77.7744 528.98 77.4384 528.401 76.7664C527.832 76.0944 527.547 75.1704 527.547 73.9944C527.547 73.2291 527.668 72.5524 527.911 71.9644C528.163 71.3671 528.518 70.9004 528.975 70.5644C529.442 70.2284 529.988 70.0604 530.613 70.0604C531.593 70.0604 532.344 70.3824 532.867 71.0264C533.39 71.6704 533.651 72.5618 533.651 73.7004ZM532.377 73.3224C532.377 72.5944 532.232 72.0391 531.943 71.6564C531.654 71.2738 531.22 71.0824 530.641 71.0824C529.586 71.0824 529.012 71.8571 528.919 73.4064H532.377V73.3224ZM540.541 75.8844C540.541 76.1831 540.593 76.4071 540.695 76.5564C540.798 76.6964 540.952 76.8038 541.157 76.8784L540.863 77.7744C540.481 77.7278 540.173 77.6204 539.939 77.4524C539.706 77.2844 539.533 77.0231 539.421 76.6684C538.927 77.4058 538.194 77.7744 537.223 77.7744C536.495 77.7744 535.921 77.5691 535.501 77.1584C535.081 76.7478 534.871 76.2111 534.871 75.5484C534.871 74.7644 535.151 74.1624 535.711 73.7424C536.281 73.3224 537.083 73.1124 538.119 73.1124H539.253V72.5664C539.253 72.0438 539.127 71.6704 538.875 71.4464C538.623 71.2224 538.236 71.1104 537.713 71.1104C537.172 71.1104 536.509 71.2411 535.725 71.5024L535.403 70.5644C536.318 70.2284 537.167 70.0604 537.951 70.0604C538.819 70.0604 539.468 70.2751 539.897 70.7044C540.327 71.1244 540.541 71.7264 540.541 72.5104V75.8844ZM537.517 76.8084C538.255 76.8084 538.833 76.4258 539.253 75.6604V73.9664H538.287C536.925 73.9664 536.243 74.4704 536.243 75.4784C536.243 75.9171 536.351 76.2484 536.565 76.4724C536.78 76.6964 537.097 76.8084 537.517 76.8084ZM546.91 77.2704C546.425 77.6064 545.874 77.7744 545.258 77.7744C544.633 77.7744 544.143 77.5971 543.788 77.2424C543.443 76.8784 543.27 76.3558 543.27 75.6744V71.2224H541.982V70.2284H543.27V68.5624L544.558 68.4084V70.2284H546.308L546.168 71.2224H544.558V75.6184C544.558 76.0011 544.624 76.2811 544.754 76.4584C544.894 76.6264 545.123 76.7104 545.44 76.7104C545.73 76.7104 546.056 76.6124 546.42 76.4164L546.91 77.2704ZM553.612 73.7004C553.612 73.9151 553.603 74.1344 553.584 74.3584H548.88C548.936 75.1704 549.141 75.7678 549.496 76.1504C549.851 76.5331 550.308 76.7244 550.868 76.7244C551.223 76.7244 551.549 76.6731 551.848 76.5704C552.147 76.4678 552.459 76.3044 552.786 76.0804L553.346 76.8504C552.562 77.4664 551.703 77.7744 550.77 77.7744C549.743 77.7744 548.941 77.4384 548.362 76.7664C547.793 76.0944 547.508 75.1704 547.508 73.9944C547.508 73.2291 547.629 72.5524 547.872 71.9644C548.124 71.3671 548.479 70.9004 548.936 70.5644C549.403 70.2284 549.949 70.0604 550.574 70.0604C551.554 70.0604 552.305 70.3824 552.828 71.0264C553.351 71.6704 553.612 72.5618 553.612 73.7004ZM552.338 73.3224C552.338 72.5944 552.193 72.0391 551.904 71.6564C551.615 71.2738 551.181 71.0824 550.602 71.0824C549.547 71.0824 548.973 71.8571 548.88 73.4064H552.338V73.3224ZM507.878 91.0604C508.382 91.0604 508.835 91.1304 509.236 91.2704C509.637 91.4104 510.02 91.6204 510.384 91.9004L509.838 92.7124C509.502 92.4978 509.18 92.3391 508.872 92.2364C508.573 92.1338 508.256 92.0824 507.92 92.0824C507.5 92.0824 507.169 92.1711 506.926 92.3484C506.683 92.5164 506.562 92.7498 506.562 93.0484C506.562 93.3471 506.674 93.5804 506.898 93.7484C507.131 93.9164 507.547 94.0798 508.144 94.2384C508.965 94.4438 509.577 94.7238 509.978 95.0784C510.389 95.4331 510.594 95.9184 510.594 96.5344C510.594 97.2624 510.309 97.8178 509.74 98.2004C509.18 98.5831 508.494 98.7744 507.682 98.7744C506.562 98.7744 505.633 98.4524 504.896 97.8084L505.582 97.0244C506.207 97.5004 506.898 97.7384 507.654 97.7384C508.139 97.7384 508.522 97.6404 508.802 97.4444C509.091 97.2391 509.236 96.9638 509.236 96.6184C509.236 96.3664 509.185 96.1658 509.082 96.0164C508.979 95.8578 508.802 95.7224 508.55 95.6104C508.298 95.4891 507.929 95.3631 507.444 95.2324C506.66 95.0271 506.091 94.7518 505.736 94.4064C505.391 94.0611 505.218 93.6224 505.218 93.0904C505.218 92.7078 505.33 92.3624 505.554 92.0544C505.787 91.7371 506.105 91.4944 506.506 91.3264C506.917 91.1491 507.374 91.0604 507.878 91.0604ZM513.699 91.2284V98.6064H512.411V91.2284H513.699ZM513.041 87.6864C513.312 87.6864 513.531 87.7704 513.699 87.9384C513.867 88.1064 513.951 88.3164 513.951 88.5684C513.951 88.8204 513.867 89.0304 513.699 89.1984C513.531 89.3571 513.312 89.4364 513.041 89.4364C512.78 89.4364 512.565 89.3571 512.397 89.1984C512.229 89.0304 512.145 88.8204 512.145 88.5684C512.145 88.3164 512.229 88.1064 512.397 87.9384C512.565 87.7704 512.78 87.6864 513.041 87.6864ZM522.312 91.5644C522.032 91.6578 521.724 91.7184 521.388 91.7464C521.052 91.7744 520.642 91.7884 520.156 91.7884C521.024 92.1804 521.458 92.8011 521.458 93.6504C521.458 94.3878 521.206 94.9898 520.702 95.4564C520.198 95.9231 519.512 96.1564 518.644 96.1564C518.308 96.1564 517.996 96.1098 517.706 96.0164C517.594 96.0911 517.506 96.1938 517.44 96.3244C517.375 96.4458 517.342 96.5718 517.342 96.7024C517.342 97.1038 517.664 97.3044 518.308 97.3044H519.484C519.979 97.3044 520.418 97.3931 520.8 97.5704C521.183 97.7478 521.477 97.9904 521.682 98.2984C521.897 98.6064 522.004 98.9564 522.004 99.3484C522.004 100.067 521.71 100.618 521.122 101C520.534 101.392 519.676 101.588 518.546 101.588C517.753 101.588 517.123 101.504 516.656 101.336C516.199 101.178 515.872 100.935 515.676 100.608C515.48 100.282 515.382 99.8618 515.382 99.3484H516.544C516.544 99.6471 516.6 99.8804 516.712 100.048C516.824 100.226 517.025 100.356 517.314 100.44C517.604 100.534 518.014 100.58 518.546 100.58C519.321 100.58 519.872 100.482 520.198 100.286C520.534 100.1 520.702 99.8151 520.702 99.4324C520.702 99.0871 520.572 98.8258 520.31 98.6484C520.049 98.4711 519.685 98.3824 519.218 98.3824H518.056C517.431 98.3824 516.955 98.2518 516.628 97.9904C516.311 97.7198 516.152 97.3838 516.152 96.9824C516.152 96.7398 516.222 96.5064 516.362 96.2824C516.502 96.0584 516.703 95.8578 516.964 95.6804C516.535 95.4564 516.218 95.1811 516.012 94.8544C515.816 94.5184 515.718 94.1124 515.718 93.6364C515.718 93.1418 515.84 92.6984 516.082 92.3064C516.334 91.9144 516.675 91.6111 517.104 91.3964C517.543 91.1724 518.028 91.0604 518.56 91.0604C519.139 91.0698 519.624 91.0511 520.016 91.0044C520.408 90.9484 520.73 90.8784 520.982 90.7944C521.244 90.7011 521.561 90.5704 521.934 90.4024L522.312 91.5644ZM518.56 91.9844C518.075 91.9844 517.697 92.1384 517.426 92.4464C517.165 92.7451 517.034 93.1418 517.034 93.6364C517.034 94.1404 517.17 94.5464 517.44 94.8544C517.711 95.1531 518.094 95.3024 518.588 95.3024C519.092 95.3024 519.475 95.1578 519.736 94.8684C520.007 94.5698 520.142 94.1544 520.142 93.6224C520.142 92.5304 519.615 91.9844 518.56 91.9844ZM527.108 91.0604C527.78 91.0604 528.302 91.2611 528.676 91.6624C529.058 92.0638 529.25 92.6144 529.25 93.3144V98.6064H527.962V93.4964C527.962 92.9738 527.864 92.6051 527.668 92.3904C527.472 92.1758 527.182 92.0684 526.8 92.0684C526.408 92.0684 526.062 92.1804 525.764 92.4044C525.465 92.6284 525.185 92.9504 524.924 93.3704V98.6064H523.636V91.2284H524.742L524.854 92.3204C525.115 91.9284 525.437 91.6204 525.82 91.3964C526.212 91.1724 526.641 91.0604 527.108 91.0604ZM536.809 96.8844C536.809 97.1831 536.86 97.4071 536.963 97.5564C537.065 97.6964 537.219 97.8038 537.425 97.8784L537.131 98.7744C536.748 98.7278 536.44 98.6204 536.207 98.4524C535.973 98.2844 535.801 98.0231 535.689 97.6684C535.194 98.4058 534.461 98.7744 533.491 98.7744C532.763 98.7744 532.189 98.5691 531.769 98.1584C531.349 97.7478 531.139 97.2111 531.139 96.5484C531.139 95.7644 531.419 95.1624 531.979 94.7424C532.548 94.3224 533.351 94.1124 534.387 94.1124H535.521V93.5664C535.521 93.0438 535.395 92.6704 535.143 92.4464C534.891 92.2224 534.503 92.1104 533.981 92.1104C533.439 92.1104 532.777 92.2411 531.993 92.5024L531.671 91.5644C532.585 91.2284 533.435 91.0604 534.219 91.0604C535.087 91.0604 535.735 91.2751 536.165 91.7044C536.594 92.1244 536.809 92.7264 536.809 93.5104V96.8844ZM533.785 97.8084C534.522 97.8084 535.101 97.4258 535.521 96.6604V94.9664H534.555C533.192 94.9664 532.511 95.4704 532.511 96.4784C532.511 96.9171 532.618 97.2484 532.833 97.4724C533.047 97.6964 533.365 97.8084 533.785 97.8084ZM543.178 98.2704C542.693 98.6064 542.142 98.7744 541.526 98.7744C540.901 98.7744 540.411 98.5971 540.056 98.2424C539.711 97.8784 539.538 97.3558 539.538 96.6744V92.2224H538.25V91.2284H539.538V89.5624L540.826 89.4084V91.2284H542.576L542.436 92.2224H540.826V96.6184C540.826 97.0011 540.891 97.2811 541.022 97.4584C541.162 97.6264 541.391 97.7104 541.708 97.7104C541.997 97.7104 542.324 97.6124 542.688 97.4164L543.178 98.2704ZM550.001 98.6064H548.895L548.797 97.4584C548.517 97.9158 548.195 98.2518 547.831 98.4664C547.467 98.6718 547.023 98.7744 546.501 98.7744C545.857 98.7744 545.353 98.5784 544.989 98.1864C544.625 97.7944 544.443 97.2391 544.443 96.5204V91.2284H545.731V96.3804C545.731 96.8844 545.819 97.2438 545.997 97.4584C546.174 97.6638 546.463 97.7664 546.865 97.7664C547.583 97.7664 548.199 97.3418 548.713 96.4924V91.2284H550.001V98.6064ZM555.867 91.0604C556.128 91.0604 556.371 91.0884 556.595 91.1444L556.357 92.4044C556.133 92.3484 555.918 92.3204 555.713 92.3204C555.256 92.3204 554.887 92.4884 554.607 92.8244C554.327 93.1604 554.108 93.6831 553.949 94.3924V98.6064H552.661V91.2284H553.767L553.893 92.7264C554.089 92.1758 554.355 91.7604 554.691 91.4804C555.027 91.2004 555.419 91.0604 555.867 91.0604ZM563.21 94.7004C563.21 94.9151 563.2 95.1344 563.182 95.3584H558.478C558.534 96.1704 558.739 96.7678 559.094 97.1504C559.448 97.5331 559.906 97.7244 560.466 97.7244C560.82 97.7244 561.147 97.6731 561.446 97.5704C561.744 97.4678 562.057 97.3044 562.384 97.0804L562.944 97.8504C562.16 98.4664 561.301 98.7744 560.368 98.7744C559.341 98.7744 558.538 98.4384 557.96 97.7664C557.39 97.0944 557.106 96.1704 557.106 94.9944C557.106 94.2291 557.227 93.5524 557.47 92.9644C557.722 92.3671 558.076 91.9004 558.534 91.5644C559 91.2284 559.546 91.0604 560.172 91.0604C561.152 91.0604 561.903 91.3824 562.426 92.0264C562.948 92.6704 563.21 93.5618 563.21 94.7004ZM561.936 94.3224C561.936 93.5944 561.791 93.0391 561.502 92.6564C561.212 92.2738 560.778 92.0824 560.2 92.0824C559.145 92.0824 558.571 92.8571 558.478 94.4064H561.936V94.3224ZM520.345 112.06C521.185 112.06 521.852 112.401 522.347 113.082C522.841 113.754 523.089 114.697 523.089 115.91C523.089 116.676 522.972 117.352 522.739 117.94C522.505 118.519 522.169 118.972 521.731 119.298C521.292 119.616 520.779 119.774 520.191 119.774C519.416 119.774 518.763 119.448 518.231 118.794L518.105 119.606H516.971V109.26L518.259 109.106V113.152C518.791 112.424 519.486 112.06 520.345 112.06ZM519.883 118.752C520.452 118.752 520.895 118.524 521.213 118.066C521.539 117.6 521.703 116.881 521.703 115.91C521.703 114.912 521.553 114.193 521.255 113.754C520.956 113.306 520.531 113.082 519.981 113.082C519.327 113.082 518.753 113.465 518.259 114.23V117.758C518.455 118.066 518.693 118.309 518.973 118.486C519.262 118.664 519.565 118.752 519.883 118.752ZM528.055 112.06C529.091 112.06 529.894 112.406 530.463 113.096C531.042 113.787 531.331 114.725 531.331 115.91C531.331 116.676 531.2 117.352 530.939 117.94C530.678 118.519 530.3 118.972 529.805 119.298C529.31 119.616 528.722 119.774 528.041 119.774C527.005 119.774 526.198 119.429 525.619 118.738C525.04 118.048 524.751 117.11 524.751 115.924C524.751 115.159 524.882 114.487 525.143 113.908C525.404 113.32 525.782 112.868 526.277 112.55C526.772 112.224 527.364 112.06 528.055 112.06ZM528.055 113.096C526.776 113.096 526.137 114.039 526.137 115.924C526.137 117.8 526.772 118.738 528.041 118.738C529.31 118.738 529.945 117.796 529.945 115.91C529.945 114.034 529.315 113.096 528.055 113.096ZM536.164 115.658L538.726 119.606H537.172L535.366 116.484L533.532 119.606H532.076L534.652 115.714L532.37 112.228H533.882L535.422 114.93L536.976 112.228H538.432L536.164 115.658ZM545.58 115.7C545.58 115.915 545.57 116.134 545.552 116.358H540.848C540.904 117.17 541.109 117.768 541.464 118.15C541.818 118.533 542.276 118.724 542.836 118.724C543.19 118.724 543.517 118.673 543.816 118.57C544.114 118.468 544.427 118.304 544.754 118.08L545.314 118.85C544.53 119.466 543.671 119.774 542.738 119.774C541.711 119.774 540.908 119.438 540.33 118.766C539.76 118.094 539.476 117.17 539.476 115.994C539.476 115.229 539.597 114.552 539.84 113.964C540.092 113.367 540.446 112.9 540.904 112.564C541.37 112.228 541.916 112.06 542.542 112.06C543.522 112.06 544.273 112.382 544.796 113.026C545.318 113.67 545.58 114.562 545.58 115.7ZM544.306 115.322C544.306 114.594 544.161 114.039 543.872 113.656C543.582 113.274 543.148 113.082 542.57 113.082C541.515 113.082 540.941 113.857 540.848 115.406H544.306V115.322ZM549.639 112.06C550.143 112.06 550.595 112.13 550.997 112.27C551.398 112.41 551.781 112.62 552.145 112.9L551.599 113.712C551.263 113.498 550.941 113.339 550.633 113.236C550.334 113.134 550.017 113.082 549.681 113.082C549.261 113.082 548.929 113.171 548.687 113.348C548.444 113.516 548.323 113.75 548.323 114.048C548.323 114.347 548.435 114.58 548.659 114.748C548.892 114.916 549.307 115.08 549.905 115.238C550.726 115.444 551.337 115.724 551.739 116.078C552.149 116.433 552.355 116.918 552.355 117.534C552.355 118.262 552.07 118.818 551.501 119.2C550.941 119.583 550.255 119.774 549.443 119.774C548.323 119.774 547.394 119.452 546.657 118.808L547.343 118.024C547.968 118.5 548.659 118.738 549.415 118.738C549.9 118.738 550.283 118.64 550.563 118.444C550.852 118.239 550.997 117.964 550.997 117.618C550.997 117.366 550.945 117.166 550.843 117.016C550.74 116.858 550.563 116.722 550.311 116.61C550.059 116.489 549.69 116.363 549.205 116.232C548.421 116.027 547.851 115.752 547.497 115.406C547.151 115.061 546.979 114.622 546.979 114.09C546.979 113.708 547.091 113.362 547.315 113.054C547.548 112.737 547.865 112.494 548.267 112.326C548.677 112.149 549.135 112.06 549.639 112.06Z" fill="#001826" fill-opacity="0.9"/>
<path d="M410.296 21.3689C409.744 21.3689 409.296 21.8166 409.296 22.3689C409.296 22.9212 409.744 23.3689 410.296 23.3689V21.3689ZM476.414 94.8474C476.805 94.4568 476.805 93.8237 476.414 93.4332L470.05 87.0692C469.66 86.6787 469.026 86.6787 468.636 87.0692C468.245 87.4597 468.245 88.0929 468.636 88.4834L474.293 94.1403L468.636 99.7971C468.245 100.188 468.245 100.821 468.636 101.211C469.026 101.602 469.66 101.602 470.05 101.211L476.414 94.8474ZM410.296 23.3689H440.001V21.3689H410.296V23.3689ZM442.001 25.3689V91.1403H444.001V25.3689H442.001ZM446.001 95.1403H475.707V93.1403H446.001V95.1403ZM442.001 91.1403C442.001 93.3494 443.792 95.1403 446.001 95.1403V93.1403C444.897 93.1403 444.001 92.2448 444.001 91.1403H442.001ZM440.001 23.3689C441.106 23.3689 442.001 24.2643 442.001 25.3689H444.001C444.001 23.1598 442.211 21.3689 440.001 21.3689V23.3689Z" fill="#004166" fill-opacity="0.1"/>
<path d="M419.979 93.1404C419.426 93.1404 418.979 93.5881 418.979 94.1404C418.979 94.6927 419.426 95.1404 419.979 95.1404V93.1404ZM476.415 94.8475C476.805 94.457 476.805 93.8238 476.415 93.4333L470.051 87.0693C469.66 86.6788 469.027 86.6788 468.636 87.0693C468.246 87.4598 468.246 88.093 468.636 88.4835L474.293 94.1404L468.636 99.7972C468.246 100.188 468.246 100.821 468.636 101.211C469.027 101.602 469.66 101.602 470.051 101.211L476.415 94.8475ZM419.979 95.1404H475.707V93.1404H419.979V95.1404Z" fill="#004166" fill-opacity="0.1"/>
<path d="M410.296 222.851C409.744 222.851 409.296 223.299 409.296 223.851C409.296 224.404 409.744 224.851 410.296 224.851V222.851ZM476.414 94.8475C476.805 94.457 476.805 93.8238 476.414 93.4333L470.05 87.0693C469.66 86.6788 469.026 86.6788 468.636 87.0693C468.245 87.4598 468.245 88.093 468.636 88.4835L474.293 94.1404L468.636 99.7972C468.245 100.188 468.245 100.821 468.636 101.211C469.026 101.602 469.66 101.602 470.05 101.211L476.414 94.8475ZM410.296 224.851H440.001V222.851H410.296V224.851ZM444.001 220.851V97.1404H442.001V220.851H444.001ZM446.001 95.1404H475.707V93.1404H446.001V95.1404ZM444.001 97.1404C444.001 96.0358 444.897 95.1404 446.001 95.1404V93.1404C443.792 93.1404 442.001 94.9312 442.001 97.1404H444.001ZM440.001 224.851C442.211 224.851 444.001 223.061 444.001 220.851H442.001C442.001 221.956 441.106 222.851 440.001 222.851V224.851Z" fill="#004166" fill-opacity="0.1"/>
<path d="M410.297 313.369C409.745 313.369 409.297 313.817 409.297 314.369C409.297 314.921 409.745 315.369 410.297 315.369V313.369ZM476.415 94.8475C476.805 94.457 476.805 93.8238 476.415 93.4333L470.051 87.0693C469.66 86.6788 469.027 86.6788 468.636 87.0693C468.246 87.4598 468.246 88.093 468.636 88.4835L474.293 94.1404L468.636 99.7972C468.246 100.188 468.246 100.821 468.636 101.211C469.027 101.602 469.66 101.602 470.051 101.211L476.415 94.8475ZM410.297 315.369H440.002V313.369H410.297V315.369ZM444.002 311.369V97.1404H442.002V311.369H444.002ZM446.002 95.1404H475.708V93.1404H446.002V95.1404ZM444.002 97.1404C444.002 96.0358 444.898 95.1404 446.002 95.1404V93.1404C443.793 93.1404 442.002 94.9312 442.002 97.1404H444.002ZM440.002 315.369C442.211 315.369 444.002 313.578 444.002 311.369H442.002C442.002 312.474 441.107 313.369 440.002 313.369V315.369Z" fill="#004166" fill-opacity="0.1"/>
<ellipse cx="534.241" cy="253.73" rx="51.7443" ry="52.2023" fill="white" stroke="#004166" stroke-opacity="0.1" stroke-width="2" stroke-linecap="round"/>
<path d="M524.493 248.214C525.137 248.214 525.688 248.307 526.145 248.494C526.602 248.671 527.046 248.951 527.475 249.334L526.747 250.146C526.383 249.857 526.024 249.647 525.669 249.516C525.324 249.376 524.95 249.306 524.549 249.306C524.045 249.306 523.63 249.423 523.303 249.656C522.976 249.889 522.813 250.23 522.813 250.678C522.813 250.958 522.869 251.196 522.981 251.392C523.093 251.579 523.298 251.751 523.597 251.91C523.905 252.069 524.348 252.237 524.927 252.414C525.534 252.601 526.038 252.801 526.439 253.016C526.84 253.231 527.162 253.529 527.405 253.912C527.657 254.285 527.783 254.761 527.783 255.34C527.783 255.9 527.643 256.395 527.363 256.824C527.092 257.253 526.696 257.589 526.173 257.832C525.66 258.075 525.048 258.196 524.339 258.196C523.004 258.196 521.912 257.781 521.063 256.95L521.791 256.138C522.183 256.455 522.58 256.698 522.981 256.866C523.382 257.025 523.83 257.104 524.325 257.104C524.922 257.104 525.417 256.959 525.809 256.67C526.201 256.371 526.397 255.942 526.397 255.382C526.397 255.065 526.336 254.803 526.215 254.598C526.094 254.383 525.884 254.192 525.585 254.024C525.296 253.856 524.871 253.688 524.311 253.52C523.322 253.221 522.598 252.862 522.141 252.442C521.684 252.022 521.455 251.453 521.455 250.734C521.455 250.249 521.581 249.815 521.833 249.432C522.094 249.049 522.454 248.751 522.911 248.536C523.378 248.321 523.905 248.214 524.493 248.214ZM530.96 250.65V258.028H529.672V250.65H530.96ZM530.302 247.108C530.572 247.108 530.792 247.192 530.96 247.36C531.128 247.528 531.212 247.738 531.212 247.99C531.212 248.242 531.128 248.452 530.96 248.62C530.792 248.779 530.572 248.858 530.302 248.858C530.04 248.858 529.826 248.779 529.658 248.62C529.49 248.452 529.406 248.242 529.406 247.99C529.406 247.738 529.49 247.528 529.658 247.36C529.826 247.192 530.04 247.108 530.302 247.108ZM539.573 250.986C539.293 251.079 538.985 251.14 538.649 251.168C538.313 251.196 537.902 251.21 537.417 251.21C538.285 251.602 538.719 252.223 538.719 253.072C538.719 253.809 538.467 254.411 537.963 254.878C537.459 255.345 536.773 255.578 535.905 255.578C535.569 255.578 535.256 255.531 534.967 255.438C534.855 255.513 534.766 255.615 534.701 255.746C534.636 255.867 534.603 255.993 534.603 256.124C534.603 256.525 534.925 256.726 535.569 256.726H536.745C537.24 256.726 537.678 256.815 538.061 256.992C538.444 257.169 538.738 257.412 538.943 257.72C539.158 258.028 539.265 258.378 539.265 258.77C539.265 259.489 538.971 260.039 538.383 260.422C537.795 260.814 536.936 261.01 535.807 261.01C535.014 261.01 534.384 260.926 533.917 260.758C533.46 260.599 533.133 260.357 532.937 260.03C532.741 259.703 532.643 259.283 532.643 258.77H533.805C533.805 259.069 533.861 259.302 533.973 259.47C534.085 259.647 534.286 259.778 534.575 259.862C534.864 259.955 535.275 260.002 535.807 260.002C536.582 260.002 537.132 259.904 537.459 259.708C537.795 259.521 537.963 259.237 537.963 258.854C537.963 258.509 537.832 258.247 537.571 258.07C537.31 257.893 536.946 257.804 536.479 257.804H535.317C534.692 257.804 534.216 257.673 533.889 257.412C533.572 257.141 533.413 256.805 533.413 256.404C533.413 256.161 533.483 255.928 533.623 255.704C533.763 255.48 533.964 255.279 534.225 255.102C533.796 254.878 533.478 254.603 533.273 254.276C533.077 253.94 532.979 253.534 532.979 253.058C532.979 252.563 533.1 252.12 533.343 251.728C533.595 251.336 533.936 251.033 534.365 250.818C534.804 250.594 535.289 250.482 535.821 250.482C536.4 250.491 536.885 250.473 537.277 250.426C537.669 250.37 537.991 250.3 538.243 250.216C538.504 250.123 538.822 249.992 539.195 249.824L539.573 250.986ZM535.821 251.406C535.336 251.406 534.958 251.56 534.687 251.868C534.426 252.167 534.295 252.563 534.295 253.058C534.295 253.562 534.43 253.968 534.701 254.276C534.972 254.575 535.354 254.724 535.849 254.724C536.353 254.724 536.736 254.579 536.997 254.29C537.268 253.991 537.403 253.576 537.403 253.044C537.403 251.952 536.876 251.406 535.821 251.406ZM544.368 250.482C545.04 250.482 545.563 250.683 545.936 251.084C546.319 251.485 546.51 252.036 546.51 252.736V258.028H545.222V252.918C545.222 252.395 545.124 252.027 544.928 251.812C544.732 251.597 544.443 251.49 544.06 251.49C543.668 251.49 543.323 251.602 543.024 251.826C542.726 252.05 542.446 252.372 542.184 252.792V258.028H540.896V250.65H542.002L542.114 251.742C542.376 251.35 542.698 251.042 543.08 250.818C543.472 250.594 543.902 250.482 544.368 250.482Z" fill="#001826" fill-opacity="0.9"/>
<ellipse cx="678.256" cy="253.73" rx="51.7443" ry="52.6602" fill="white" stroke="#004166" stroke-opacity="0.1" stroke-width="2" stroke-linecap="round"/>
<path d="M651.711 227.756C652.355 227.756 652.906 227.85 653.363 228.036C653.82 228.214 654.264 228.494 654.693 228.876L653.965 229.688C653.601 229.399 653.242 229.189 652.887 229.058C652.542 228.918 652.168 228.848 651.767 228.848C651.263 228.848 650.848 228.965 650.521 229.198C650.194 229.432 650.031 229.772 650.031 230.22C650.031 230.5 650.087 230.738 650.199 230.934C650.311 231.121 650.516 231.294 650.815 231.452C651.123 231.611 651.566 231.779 652.145 231.956C652.752 232.143 653.256 232.344 653.657 232.558C654.058 232.773 654.38 233.072 654.623 233.454C654.875 233.828 655.001 234.304 655.001 234.882C655.001 235.442 654.861 235.937 654.581 236.366C654.31 236.796 653.914 237.132 653.391 237.374C652.878 237.617 652.266 237.738 651.557 237.738C650.222 237.738 649.13 237.323 648.281 236.492L649.009 235.68C649.401 235.998 649.798 236.24 650.199 236.408C650.6 236.567 651.048 236.646 651.543 236.646C652.14 236.646 652.635 236.502 653.027 236.212C653.419 235.914 653.615 235.484 653.615 234.924C653.615 234.607 653.554 234.346 653.433 234.14C653.312 233.926 653.102 233.734 652.803 233.566C652.514 233.398 652.089 233.23 651.529 233.062C650.54 232.764 649.816 232.404 649.359 231.984C648.902 231.564 648.673 230.995 648.673 230.276C648.673 229.791 648.799 229.357 649.051 228.974C649.312 228.592 649.672 228.293 650.129 228.078C650.596 227.864 651.123 227.756 651.711 227.756ZM660.362 230.024C661.034 230.024 661.557 230.225 661.93 230.626C662.313 231.028 662.504 231.578 662.504 232.278V237.57H661.216V232.46C661.216 231.938 661.113 231.569 660.908 231.354C660.712 231.14 660.423 231.032 660.04 231.032C659.657 231.032 659.317 231.144 659.018 231.368C658.719 231.592 658.439 231.91 658.178 232.32V237.57H656.89V227.238L658.178 227.098V231.214C658.757 230.421 659.485 230.024 660.362 230.024ZM670.063 235.848C670.063 236.147 670.115 236.371 670.217 236.52C670.32 236.66 670.474 236.768 670.679 236.842L670.385 237.738C670.003 237.692 669.695 237.584 669.461 237.416C669.228 237.248 669.055 236.987 668.943 236.632C668.449 237.37 667.716 237.738 666.745 237.738C666.017 237.738 665.443 237.533 665.023 237.122C664.603 236.712 664.393 236.175 664.393 235.512C664.393 234.728 664.673 234.126 665.233 233.706C665.803 233.286 666.605 233.076 667.641 233.076H668.775V232.53C668.775 232.008 668.649 231.634 668.397 231.41C668.145 231.186 667.758 231.074 667.235 231.074C666.694 231.074 666.031 231.205 665.247 231.466L664.925 230.528C665.84 230.192 666.689 230.024 667.473 230.024C668.341 230.024 668.99 230.239 669.419 230.668C669.849 231.088 670.063 231.69 670.063 232.474V235.848ZM667.039 236.772C667.777 236.772 668.355 236.39 668.775 235.624V233.93H667.809C666.447 233.93 665.765 234.434 665.765 235.442C665.765 235.881 665.873 236.212 666.087 236.436C666.302 236.66 666.619 236.772 667.039 236.772ZM675.914 230.024C676.176 230.024 676.418 230.052 676.642 230.108L676.404 231.368C676.18 231.312 675.966 231.284 675.76 231.284C675.303 231.284 674.934 231.452 674.654 231.788C674.374 232.124 674.155 232.647 673.996 233.356V237.57H672.708V230.192H673.814L673.94 231.69C674.136 231.14 674.402 230.724 674.738 230.444C675.074 230.164 675.466 230.024 675.914 230.024ZM683.257 233.664C683.257 233.879 683.248 234.098 683.229 234.322H678.525C678.581 235.134 678.786 235.732 679.141 236.114C679.496 236.497 679.953 236.688 680.513 236.688C680.868 236.688 681.194 236.637 681.493 236.534C681.792 236.432 682.104 236.268 682.431 236.044L682.991 236.814C682.207 237.43 681.348 237.738 680.415 237.738C679.388 237.738 678.586 237.402 678.007 236.73C677.438 236.058 677.153 235.134 677.153 233.958C677.153 233.193 677.274 232.516 677.517 231.928C677.769 231.331 678.124 230.864 678.581 230.528C679.048 230.192 679.594 230.024 680.219 230.024C681.199 230.024 681.95 230.346 682.473 230.99C682.996 231.634 683.257 232.526 683.257 233.664ZM681.983 233.286C681.983 232.558 681.838 232.003 681.549 231.62C681.26 231.238 680.826 231.046 680.247 231.046C679.192 231.046 678.618 231.821 678.525 233.37H681.983V233.286ZM692.743 237.234C692.258 237.57 691.707 237.738 691.091 237.738C690.466 237.738 689.976 237.561 689.621 237.206C689.276 236.842 689.103 236.32 689.103 235.638V231.186H687.815V230.192H689.103V228.526L690.391 228.372V230.192H692.141L692.001 231.186H690.391V235.582C690.391 235.965 690.456 236.245 690.587 236.422C690.727 236.59 690.956 236.674 691.273 236.674C691.562 236.674 691.889 236.576 692.253 236.38L692.743 237.234ZM697.55 230.024C698.222 230.024 698.744 230.225 699.118 230.626C699.5 231.028 699.692 231.578 699.692 232.278V237.57H698.404V232.46C698.404 231.938 698.301 231.569 698.096 231.354C697.9 231.14 697.61 231.032 697.228 231.032C696.845 231.032 696.504 231.144 696.206 231.368C695.907 231.592 695.627 231.91 695.366 232.32V237.57H694.078V227.238L695.366 227.098V231.214C695.944 230.421 696.672 230.024 697.55 230.024ZM707.853 233.664C707.853 233.879 707.843 234.098 707.825 234.322H703.121C703.177 235.134 703.382 235.732 703.737 236.114C704.091 236.497 704.549 236.688 705.109 236.688C705.463 236.688 705.79 236.637 706.089 236.534C706.387 236.432 706.7 236.268 707.027 236.044L707.587 236.814C706.803 237.43 705.944 237.738 705.011 237.738C703.984 237.738 703.181 237.402 702.603 236.73C702.033 236.058 701.749 235.134 701.749 233.958C701.749 233.193 701.87 232.516 702.113 231.928C702.365 231.331 702.719 230.864 703.177 230.528C703.643 230.192 704.189 230.024 704.815 230.024C705.795 230.024 706.546 230.346 707.069 230.99C707.591 231.634 707.853 232.526 707.853 233.664ZM706.579 233.286C706.579 232.558 706.434 232.003 706.145 231.62C705.855 231.238 705.421 231.046 704.843 231.046C703.788 231.046 703.214 231.821 703.121 233.37H706.579V233.286ZM665.316 248.224V258.57H664.182L664.056 257.548C663.813 257.922 663.51 258.216 663.146 258.43C662.782 258.636 662.376 258.738 661.928 258.738C661.051 258.738 660.365 258.393 659.87 257.702C659.385 257.012 659.142 256.083 659.142 254.916C659.142 254.16 659.259 253.488 659.492 252.9C659.725 252.312 660.061 251.855 660.5 251.528C660.939 251.192 661.452 251.024 662.04 251.024C662.796 251.024 663.459 251.328 664.028 251.934V248.07L665.316 248.224ZM662.208 257.716C662.6 257.716 662.936 257.628 663.216 257.45C663.496 257.264 663.767 256.988 664.028 256.624V253.012C663.785 252.695 663.524 252.457 663.244 252.298C662.973 252.13 662.665 252.046 662.32 252.046C661.751 252.046 661.307 252.284 660.99 252.76C660.682 253.236 660.528 253.946 660.528 254.888C660.528 255.84 660.673 256.55 660.962 257.016C661.251 257.483 661.667 257.716 662.208 257.716ZM670.743 251.024C671.779 251.024 672.582 251.37 673.151 252.06C673.73 252.751 674.019 253.689 674.019 254.874C674.019 255.64 673.888 256.316 673.627 256.904C673.366 257.483 672.988 257.936 672.493 258.262C671.998 258.58 671.41 258.738 670.729 258.738C669.693 258.738 668.886 258.393 668.307 257.702C667.728 257.012 667.439 256.074 667.439 254.888C667.439 254.123 667.57 253.451 667.831 252.872C668.092 252.284 668.47 251.832 668.965 251.514C669.46 251.188 670.052 251.024 670.743 251.024ZM670.743 252.06C669.464 252.06 668.825 253.003 668.825 254.888C668.825 256.764 669.46 257.702 670.729 257.702C671.998 257.702 672.633 256.76 672.633 254.874C672.633 252.998 672.003 252.06 670.743 252.06ZM678.835 251.024C679.274 251.024 679.675 251.09 680.039 251.22C680.403 251.342 680.753 251.542 681.089 251.822L680.473 252.634C680.212 252.448 679.955 252.312 679.703 252.228C679.46 252.135 679.19 252.088 678.891 252.088C678.294 252.088 677.827 252.326 677.491 252.802C677.164 253.278 677.001 253.983 677.001 254.916C677.001 255.85 677.164 256.54 677.491 256.988C677.818 257.427 678.284 257.646 678.891 257.646C679.18 257.646 679.446 257.604 679.689 257.52C679.932 257.427 680.202 257.282 680.501 257.086L681.089 257.926C680.417 258.468 679.666 258.738 678.835 258.738C677.836 258.738 677.048 258.402 676.469 257.73C675.9 257.058 675.615 256.13 675.615 254.944C675.615 254.16 675.746 253.474 676.007 252.886C676.268 252.298 676.637 251.841 677.113 251.514C677.598 251.188 678.172 251.024 678.835 251.024ZM690.262 258.234C689.776 258.57 689.226 258.738 688.61 258.738C687.984 258.738 687.494 258.561 687.14 258.206C686.794 257.842 686.622 257.32 686.622 256.638V252.186H685.334V251.192H686.622V249.526L687.91 249.372V251.192H689.66L689.52 252.186H687.91V256.582C687.91 256.965 687.975 257.245 688.106 257.422C688.246 257.59 688.474 257.674 688.792 257.674C689.081 257.674 689.408 257.576 689.772 257.38L690.262 258.234ZM694.163 251.024C695.199 251.024 696.002 251.37 696.571 252.06C697.15 252.751 697.439 253.689 697.439 254.874C697.439 255.64 697.308 256.316 697.047 256.904C696.786 257.483 696.408 257.936 695.913 258.262C695.418 258.58 694.83 258.738 694.149 258.738C693.113 258.738 692.306 258.393 691.727 257.702C691.148 257.012 690.859 256.074 690.859 254.888C690.859 254.123 690.99 253.451 691.251 252.872C691.512 252.284 691.89 251.832 692.385 251.514C692.88 251.188 693.472 251.024 694.163 251.024ZM694.163 252.06C692.884 252.06 692.245 253.003 692.245 254.888C692.245 256.764 692.88 257.702 694.149 257.702C695.418 257.702 696.053 256.76 696.053 254.874C696.053 252.998 695.423 252.06 694.163 252.06ZM654.593 272.024C654.854 272.024 655.097 272.052 655.321 272.108L655.083 273.368C654.859 273.312 654.644 273.284 654.439 273.284C653.982 273.284 653.613 273.452 653.333 273.788C653.053 274.124 652.834 274.647 652.675 275.356V279.57H651.387V272.192H652.493L652.619 273.69C652.815 273.14 653.081 272.724 653.417 272.444C653.753 272.164 654.145 272.024 654.593 272.024ZM661.936 275.664C661.936 275.879 661.926 276.098 661.908 276.322H657.204C657.26 277.134 657.465 277.732 657.82 278.114C658.174 278.497 658.632 278.688 659.192 278.688C659.546 278.688 659.873 278.637 660.172 278.534C660.47 278.432 660.783 278.268 661.11 278.044L661.67 278.814C660.886 279.43 660.027 279.738 659.094 279.738C658.067 279.738 657.264 279.402 656.686 278.73C656.116 278.058 655.832 277.134 655.832 275.958C655.832 275.193 655.953 274.516 656.196 273.928C656.448 273.331 656.802 272.864 657.26 272.528C657.726 272.192 658.272 272.024 658.898 272.024C659.878 272.024 660.629 272.346 661.152 272.99C661.674 273.634 661.936 274.526 661.936 275.664ZM660.662 275.286C660.662 274.558 660.517 274.003 660.228 273.62C659.938 273.238 659.504 273.046 658.926 273.046C657.871 273.046 657.297 273.821 657.204 275.37H660.662V275.286ZM666.681 272.024C667.119 272.024 667.521 272.09 667.885 272.22C668.249 272.342 668.599 272.542 668.935 272.822L668.319 273.634C668.057 273.448 667.801 273.312 667.549 273.228C667.306 273.135 667.035 273.088 666.737 273.088C666.139 273.088 665.673 273.326 665.337 273.802C665.01 274.278 664.847 274.983 664.847 275.916C664.847 276.85 665.01 277.54 665.337 277.988C665.663 278.427 666.13 278.646 666.737 278.646C667.026 278.646 667.292 278.604 667.535 278.52C667.777 278.427 668.048 278.282 668.347 278.086L668.935 278.926C668.263 279.468 667.511 279.738 666.681 279.738C665.682 279.738 664.893 279.402 664.315 278.73C663.745 278.058 663.461 277.13 663.461 275.944C663.461 275.16 663.591 274.474 663.853 273.886C664.114 273.298 664.483 272.841 664.959 272.514C665.444 272.188 666.018 272.024 666.681 272.024ZM671.966 272.192V279.57H670.678V272.192H671.966ZM671.308 268.65C671.579 268.65 671.798 268.734 671.966 268.902C672.134 269.07 672.218 269.28 672.218 269.532C672.218 269.784 672.134 269.994 671.966 270.162C671.798 270.321 671.579 270.4 671.308 270.4C671.047 270.4 670.832 270.321 670.664 270.162C670.496 269.994 670.412 269.784 670.412 269.532C670.412 269.28 670.496 269.07 670.664 268.902C670.832 268.734 671.047 268.65 671.308 268.65ZM678.017 272.024C678.96 272.024 679.651 272.36 680.089 273.032C680.528 273.704 680.747 274.652 680.747 275.874C680.747 277.032 680.495 277.965 679.991 278.674C679.487 279.384 678.773 279.738 677.849 279.738C677.028 279.738 676.384 279.458 675.917 278.898V282.398L674.629 282.552V272.192H675.735L675.833 273.186C676.104 272.813 676.431 272.528 676.813 272.332C677.196 272.127 677.597 272.024 678.017 272.024ZM677.541 278.688C678.755 278.688 679.361 277.75 679.361 275.874C679.361 273.989 678.806 273.046 677.695 273.046C677.331 273.046 677 273.154 676.701 273.368C676.403 273.583 676.141 273.858 675.917 274.194V277.792C676.104 278.082 676.337 278.306 676.617 278.464C676.897 278.614 677.205 278.688 677.541 278.688ZM684.23 272.192V279.57H682.942V272.192H684.23ZM683.572 268.65C683.842 268.65 684.062 268.734 684.23 268.902C684.398 269.07 684.482 269.28 684.482 269.532C684.482 269.784 684.398 269.994 684.23 270.162C684.062 270.321 683.842 270.4 683.572 270.4C683.31 270.4 683.096 270.321 682.928 270.162C682.76 269.994 682.676 269.784 682.676 269.532C682.676 269.28 682.76 269.07 682.928 268.902C683.096 268.734 683.31 268.65 683.572 268.65ZM692.465 275.664C692.465 275.879 692.456 276.098 692.437 276.322H687.733C687.789 277.134 687.994 277.732 688.349 278.114C688.704 278.497 689.161 278.688 689.721 278.688C690.076 278.688 690.402 278.637 690.701 278.534C691 278.432 691.312 278.268 691.639 278.044L692.199 278.814C691.415 279.43 690.556 279.738 689.623 279.738C688.596 279.738 687.794 279.402 687.215 278.73C686.646 278.058 686.361 277.134 686.361 275.958C686.361 275.193 686.482 274.516 686.725 273.928C686.977 273.331 687.332 272.864 687.789 272.528C688.256 272.192 688.802 272.024 689.427 272.024C690.407 272.024 691.158 272.346 691.681 272.99C692.204 273.634 692.465 274.526 692.465 275.664ZM691.191 275.286C691.191 274.558 691.046 274.003 690.757 273.62C690.468 273.238 690.034 273.046 689.455 273.046C688.4 273.046 687.826 273.821 687.733 275.37H691.191V275.286ZM697.994 272.024C698.666 272.024 699.189 272.225 699.562 272.626C699.945 273.028 700.136 273.578 700.136 274.278V279.57H698.848V274.46C698.848 273.938 698.75 273.569 698.554 273.354C698.358 273.14 698.069 273.032 697.686 273.032C697.294 273.032 696.949 273.144 696.65 273.368C696.351 273.592 696.071 273.914 695.81 274.334V279.57H694.522V272.192H695.628L695.74 273.284C696.001 272.892 696.323 272.584 696.706 272.36C697.098 272.136 697.527 272.024 697.994 272.024ZM706.449 279.234C705.964 279.57 705.413 279.738 704.797 279.738C704.172 279.738 703.682 279.561 703.327 279.206C702.982 278.842 702.809 278.32 702.809 277.638V273.186H701.521V272.192H702.809V270.526L704.097 270.372V272.192H705.847L705.707 273.186H704.097V277.582C704.097 277.965 704.162 278.245 704.293 278.422C704.433 278.59 704.662 278.674 704.979 278.674C705.268 278.674 705.595 278.576 705.959 278.38L706.449 279.234Z" fill="#001826" fill-opacity="0.9"/>
<path d="M590.486 252.73C589.934 252.73 589.486 253.178 589.486 253.73C589.486 254.283 589.934 254.73 590.486 254.73V252.73ZM622.718 254.437C623.109 254.047 623.109 253.414 622.718 253.023L616.354 246.659C615.964 246.269 615.331 246.269 614.94 246.659C614.55 247.05 614.55 247.683 614.94 248.073L620.597 253.73L614.94 259.387C614.55 259.778 614.55 260.411 614.94 260.801C615.331 261.192 615.964 261.192 616.354 260.801L622.718 254.437ZM590.486 254.73H622.011V252.73H590.486V254.73Z" fill="#004166" fill-opacity="0.1"/>
<path d="M535.241 152.674C535.241 152.122 534.793 151.674 534.241 151.674C533.689 151.674 533.241 152.122 533.241 152.674H535.241ZM533.534 197.735C533.925 198.126 534.558 198.126 534.948 197.735L541.312 191.371C541.703 190.981 541.703 190.347 541.312 189.957C540.922 189.566 540.289 189.566 539.898 189.957L534.241 195.614L528.584 189.957C528.194 189.566 527.561 189.566 527.17 189.957C526.78 190.347 526.78 190.981 527.17 191.371L533.534 197.735ZM533.241 152.674V197.028H535.241V152.674H533.241Z" fill="#004166" fill-opacity="0.1"/>
</svg>
