<svg width="734" height="293" viewBox="0 0 734 293" fill="none" xmlns="http://www.w3.org/2000/svg">
<path d="M1 110.923H138.093V168.888H1V110.923Z" fill="white" stroke="#004166" stroke-opacity="0.1" stroke-width="2" stroke-linecap="round"/>
<path d="M60.0332 134.609C60.6118 134.609 61.0972 134.683 61.4892 134.833C61.8905 134.982 62.2965 135.225 62.7072 135.561L61.9792 136.415C61.3912 135.939 60.7705 135.701 60.1172 135.701C59.3145 135.701 58.6658 136.009 58.1712 136.625C57.6858 137.241 57.4432 138.23 57.4432 139.593C57.4432 140.918 57.6858 141.898 58.1712 142.533C58.6565 143.158 59.3005 143.471 60.1032 143.471C60.5138 143.471 60.8732 143.401 61.1812 143.261C61.4892 143.121 61.8158 142.925 62.1612 142.673L62.8192 143.513C62.5205 143.821 62.1378 144.077 61.6712 144.283C61.2045 144.488 60.6678 144.591 60.0612 144.591C59.2772 144.591 58.5772 144.399 57.9612 144.017C57.3545 143.625 56.8785 143.055 56.5332 142.309C56.1972 141.553 56.0292 140.647 56.0292 139.593C56.0292 138.538 56.2065 137.637 56.5612 136.891C56.9158 136.135 57.3965 135.565 58.0032 135.183C58.6098 134.8 59.2865 134.609 60.0332 134.609ZM67.7584 136.877C68.4304 136.877 68.9531 137.077 69.3264 137.479C69.7091 137.88 69.9004 138.431 69.9004 139.131V144.423H68.6124V139.313C68.6124 138.79 68.5098 138.421 68.3044 138.207C68.1084 137.992 67.8191 137.885 67.4364 137.885C67.0538 137.885 66.7131 137.997 66.4144 138.221C66.1158 138.445 65.8358 138.762 65.5744 139.173V144.423H64.2864V134.091L65.5744 133.951V138.067C66.1531 137.273 66.8811 136.877 67.7584 136.877ZM77.4596 142.701C77.4596 142.999 77.5109 143.223 77.6136 143.373C77.7162 143.513 77.8702 143.62 78.0756 143.695L77.7816 144.591C77.3989 144.544 77.0909 144.437 76.8576 144.269C76.6242 144.101 76.4516 143.839 76.3396 143.485C75.8449 144.222 75.1122 144.591 74.1416 144.591C73.4136 144.591 72.8396 144.385 72.4196 143.975C71.9996 143.564 71.7896 143.027 71.7896 142.365C71.7896 141.581 72.0696 140.979 72.6296 140.559C73.1989 140.139 74.0016 139.929 75.0376 139.929H76.1716V139.383C76.1716 138.86 76.0456 138.487 75.7936 138.263C75.5416 138.039 75.1542 137.927 74.6316 137.927C74.0902 137.927 73.4276 138.057 72.6436 138.319L72.3216 137.381C73.2362 137.045 74.0856 136.877 74.8696 136.877C75.7376 136.877 76.3862 137.091 76.8156 137.521C77.2449 137.941 77.4596 138.543 77.4596 139.327V142.701ZM74.4356 143.625C75.1729 143.625 75.7516 143.242 76.1716 142.477V140.783H75.2056C73.8429 140.783 73.1616 141.287 73.1616 142.295C73.1616 142.733 73.2689 143.065 73.4836 143.289C73.6982 143.513 74.0156 143.625 74.4356 143.625ZM83.8288 144.087C83.3435 144.423 82.7928 144.591 82.1768 144.591C81.5515 144.591 81.0615 144.413 80.7068 144.059C80.3615 143.695 80.1888 143.172 80.1888 142.491V138.039H78.9008V137.045H80.1888V135.379L81.4768 135.225V137.045H83.2268L83.0868 138.039H81.4768V142.435C81.4768 142.817 81.5421 143.097 81.6728 143.275C81.8128 143.443 82.0415 143.527 82.3588 143.527C82.6481 143.527 82.9748 143.429 83.3388 143.233L83.8288 144.087Z" fill="#001826" fill-opacity="0.9"/>
<path d="M393.416 110.923H530.509V168.888H393.416V110.923Z" fill="white" stroke="#004166" stroke-opacity="0.1" stroke-width="2" stroke-linecap="round"/>
<path d="M425.584 144.423L424.856 142.001H421.202L420.474 144.423H419.13L422.224 134.777H423.904L426.984 144.423H425.584ZM421.524 140.923H424.534L423.036 135.883L421.524 140.923ZM434.114 134.077V144.423H432.98L432.854 143.401C432.611 143.774 432.308 144.068 431.944 144.283C431.58 144.488 431.174 144.591 430.726 144.591C429.848 144.591 429.162 144.245 428.668 143.555C428.182 142.864 427.94 141.935 427.94 140.769C427.94 140.013 428.056 139.341 428.29 138.753C428.523 138.165 428.859 137.707 429.298 137.381C429.736 137.045 430.25 136.877 430.838 136.877C431.594 136.877 432.256 137.18 432.826 137.787V133.923L434.114 134.077ZM431.006 143.569C431.398 143.569 431.734 143.48 432.014 143.303C432.294 143.116 432.564 142.841 432.826 142.477V138.865C432.583 138.547 432.322 138.309 432.042 138.151C431.771 137.983 431.463 137.899 431.118 137.899C430.548 137.899 430.105 138.137 429.788 138.613C429.48 139.089 429.326 139.798 429.326 140.741C429.326 141.693 429.47 142.402 429.76 142.869C430.049 143.335 430.464 143.569 431.006 143.569ZM442.481 134.077V144.423H441.347L441.221 143.401C440.978 143.774 440.675 144.068 440.311 144.283C439.947 144.488 439.541 144.591 439.093 144.591C438.216 144.591 437.53 144.245 437.035 143.555C436.55 142.864 436.307 141.935 436.307 140.769C436.307 140.013 436.424 139.341 436.657 138.753C436.89 138.165 437.226 137.707 437.665 137.381C438.104 137.045 438.617 136.877 439.205 136.877C439.961 136.877 440.624 137.18 441.193 137.787V133.923L442.481 134.077ZM439.373 143.569C439.765 143.569 440.101 143.48 440.381 143.303C440.661 143.116 440.932 142.841 441.193 142.477V138.865C440.95 138.547 440.689 138.309 440.409 138.151C440.138 137.983 439.83 137.899 439.485 137.899C438.916 137.899 438.472 138.137 438.155 138.613C437.847 139.089 437.693 139.798 437.693 140.741C437.693 141.693 437.838 142.402 438.127 142.869C438.416 143.335 438.832 143.569 439.373 143.569ZM448.342 136.877C448.603 136.877 448.846 136.905 449.07 136.961L448.832 138.221C448.608 138.165 448.393 138.137 448.188 138.137C447.731 138.137 447.362 138.305 447.082 138.641C446.802 138.977 446.583 139.499 446.424 140.209V144.423H445.136V137.045H446.242L446.368 138.543C446.564 137.992 446.83 137.577 447.166 137.297C447.502 137.017 447.894 136.877 448.342 136.877ZM455.685 140.517C455.685 140.731 455.675 140.951 455.657 141.175H450.953C451.009 141.987 451.214 142.584 451.569 142.967C451.923 143.349 452.381 143.541 452.941 143.541C453.295 143.541 453.622 143.489 453.921 143.387C454.219 143.284 454.532 143.121 454.859 142.897L455.419 143.667C454.635 144.283 453.776 144.591 452.843 144.591C451.816 144.591 451.013 144.255 450.435 143.583C449.865 142.911 449.581 141.987 449.581 140.811C449.581 140.045 449.702 139.369 449.945 138.781C450.197 138.183 450.551 137.717 451.009 137.381C451.475 137.045 452.021 136.877 452.647 136.877C453.627 136.877 454.378 137.199 454.901 137.843C455.423 138.487 455.685 139.378 455.685 140.517ZM454.411 140.139C454.411 139.411 454.266 138.855 453.977 138.473C453.687 138.09 453.253 137.899 452.675 137.899C451.62 137.899 451.046 138.673 450.953 140.223H454.411V140.139ZM459.744 136.877C460.248 136.877 460.7 136.947 461.102 137.087C461.503 137.227 461.886 137.437 462.25 137.717L461.704 138.529C461.368 138.314 461.046 138.155 460.738 138.053C460.439 137.95 460.122 137.899 459.786 137.899C459.366 137.899 459.034 137.987 458.792 138.165C458.549 138.333 458.428 138.566 458.428 138.865C458.428 139.163 458.54 139.397 458.764 139.565C458.997 139.733 459.412 139.896 460.01 140.055C460.831 140.26 461.442 140.54 461.844 140.895C462.254 141.249 462.46 141.735 462.46 142.351C462.46 143.079 462.175 143.634 461.606 144.017C461.046 144.399 460.36 144.591 459.548 144.591C458.428 144.591 457.499 144.269 456.762 143.625L457.448 142.841C458.073 143.317 458.764 143.555 459.52 143.555C460.005 143.555 460.388 143.457 460.668 143.261C460.957 143.055 461.102 142.78 461.102 142.435C461.102 142.183 461.05 141.982 460.948 141.833C460.845 141.674 460.668 141.539 460.416 141.427C460.164 141.305 459.795 141.179 459.31 141.049C458.526 140.843 457.956 140.568 457.602 140.223C457.256 139.877 457.084 139.439 457.084 138.907C457.084 138.524 457.196 138.179 457.42 137.871C457.653 137.553 457.97 137.311 458.372 137.143C458.782 136.965 459.24 136.877 459.744 136.877ZM466.142 136.877C466.646 136.877 467.099 136.947 467.5 137.087C467.901 137.227 468.284 137.437 468.648 137.717L468.102 138.529C467.766 138.314 467.444 138.155 467.136 138.053C466.837 137.95 466.52 137.899 466.184 137.899C465.764 137.899 465.433 137.987 465.19 138.165C464.947 138.333 464.826 138.566 464.826 138.865C464.826 139.163 464.938 139.397 465.162 139.565C465.395 139.733 465.811 139.896 466.408 140.055C467.229 140.26 467.841 140.54 468.242 140.895C468.653 141.249 468.858 141.735 468.858 142.351C468.858 143.079 468.573 143.634 468.004 144.017C467.444 144.399 466.758 144.591 465.946 144.591C464.826 144.591 463.897 144.269 463.16 143.625L463.846 142.841C464.471 143.317 465.162 143.555 465.918 143.555C466.403 143.555 466.786 143.457 467.066 143.261C467.355 143.055 467.5 142.78 467.5 142.435C467.5 142.183 467.449 141.982 467.346 141.833C467.243 141.674 467.066 141.539 466.814 141.427C466.562 141.305 466.193 141.179 465.708 141.049C464.924 140.843 464.355 140.568 464 140.223C463.655 139.877 463.482 139.439 463.482 138.907C463.482 138.524 463.594 138.179 463.818 137.871C464.051 137.553 464.369 137.311 464.77 137.143C465.181 136.965 465.638 136.877 466.142 136.877ZM477.754 136.877C478.594 136.877 479.262 137.217 479.756 137.899C480.251 138.571 480.498 139.513 480.498 140.727C480.498 141.492 480.382 142.169 480.148 142.757C479.915 143.335 479.579 143.788 479.14 144.115C478.702 144.432 478.188 144.591 477.6 144.591C476.826 144.591 476.172 144.264 475.64 143.611L475.514 144.423H474.38V134.077L475.668 133.923V137.969C476.2 137.241 476.896 136.877 477.754 136.877ZM477.292 143.569C477.862 143.569 478.305 143.34 478.622 142.883C478.949 142.416 479.112 141.697 479.112 140.727C479.112 139.728 478.963 139.009 478.664 138.571C478.366 138.123 477.941 137.899 477.39 137.899C476.737 137.899 476.163 138.281 475.668 139.047V142.575C475.864 142.883 476.102 143.125 476.382 143.303C476.672 143.48 476.975 143.569 477.292 143.569ZM485.465 136.877C486.501 136.877 487.303 137.222 487.873 137.913C488.451 138.603 488.741 139.541 488.741 140.727C488.741 141.492 488.61 142.169 488.349 142.757C488.087 143.335 487.709 143.788 487.215 144.115C486.72 144.432 486.132 144.591 485.451 144.591C484.415 144.591 483.607 144.245 483.029 143.555C482.45 142.864 482.161 141.926 482.161 140.741C482.161 139.975 482.291 139.303 482.553 138.725C482.814 138.137 483.192 137.684 483.687 137.367C484.181 137.04 484.774 136.877 485.465 136.877ZM485.465 137.913C484.186 137.913 483.547 138.855 483.547 140.741C483.547 142.617 484.181 143.555 485.451 143.555C486.72 143.555 487.355 142.612 487.355 140.727C487.355 138.851 486.725 137.913 485.465 137.913ZM493.64 136.877C494.676 136.877 495.479 137.222 496.048 137.913C496.627 138.603 496.916 139.541 496.916 140.727C496.916 141.492 496.786 142.169 496.524 142.757C496.263 143.335 495.885 143.788 495.39 144.115C494.896 144.432 494.308 144.591 493.626 144.591C492.59 144.591 491.783 144.245 491.204 143.555C490.626 142.864 490.336 141.926 490.336 140.741C490.336 139.975 490.467 139.303 490.728 138.725C490.99 138.137 491.368 137.684 491.862 137.367C492.357 137.04 492.95 136.877 493.64 136.877ZM493.64 137.913C492.362 137.913 491.722 138.855 491.722 140.741C491.722 142.617 492.357 143.555 493.626 143.555C494.896 143.555 495.53 142.612 495.53 140.727C495.53 138.851 494.9 137.913 493.64 137.913ZM500.332 133.923V144.423H499.044V134.077L500.332 133.923ZM504.574 137.045L501.858 140.307L504.882 144.423H503.342L500.416 140.391L503.132 137.045H504.574Z" fill="#001826" fill-opacity="0.9"/>
<ellipse cx="272.425" cy="139.905" rx="61.6456" ry="62.1057" fill="white" stroke="#004166" stroke-opacity="0.1" stroke-width="2" stroke-linecap="round"/>
<path d="M242.315 123.986C242.894 123.986 243.379 124.06 243.771 124.21C244.172 124.359 244.578 124.602 244.989 124.938L244.261 125.792C243.673 125.316 243.052 125.078 242.399 125.078C241.596 125.078 240.948 125.386 240.453 126.002C239.968 126.618 239.725 127.607 239.725 128.97C239.725 130.295 239.968 131.275 240.453 131.91C240.938 132.535 241.582 132.848 242.385 132.848C242.796 132.848 243.155 132.778 243.463 132.638C243.771 132.498 244.098 132.302 244.443 132.05L245.101 132.89C244.802 133.198 244.42 133.454 243.953 133.66C243.486 133.865 242.95 133.968 242.343 133.968C241.559 133.968 240.859 133.776 240.243 133.394C239.636 133.002 239.16 132.432 238.815 131.686C238.479 130.93 238.311 130.024 238.311 128.97C238.311 127.915 238.488 127.014 238.843 126.268C239.198 125.512 239.678 124.942 240.285 124.56C240.892 124.177 241.568 123.986 242.315 123.986ZM249.706 126.254C249.967 126.254 250.21 126.282 250.434 126.338L250.196 127.598C249.972 127.542 249.757 127.514 249.552 127.514C249.095 127.514 248.726 127.682 248.446 128.018C248.166 128.354 247.947 128.876 247.788 129.586V133.8H246.5V126.422H247.606L247.732 127.92C247.928 127.369 248.194 126.954 248.53 126.674C248.866 126.394 249.258 126.254 249.706 126.254ZM257.048 129.894C257.048 130.108 257.039 130.328 257.02 130.552H252.316C252.372 131.364 252.578 131.961 252.932 132.344C253.287 132.726 253.744 132.918 254.304 132.918C254.659 132.918 254.986 132.866 255.284 132.764C255.583 132.661 255.896 132.498 256.222 132.274L256.782 133.044C255.998 133.66 255.14 133.968 254.206 133.968C253.18 133.968 252.377 133.632 251.798 132.96C251.229 132.288 250.944 131.364 250.944 130.188C250.944 129.422 251.066 128.746 251.308 128.158C251.56 127.56 251.915 127.094 252.372 126.758C252.839 126.422 253.385 126.254 254.01 126.254C254.99 126.254 255.742 126.576 256.264 127.22C256.787 127.864 257.048 128.755 257.048 129.894ZM255.774 129.516C255.774 128.788 255.63 128.232 255.34 127.85C255.051 127.467 254.617 127.276 254.038 127.276C252.984 127.276 252.41 128.05 252.316 129.6H255.774V129.516ZM263.939 132.078C263.939 132.376 263.99 132.6 264.093 132.75C264.195 132.89 264.349 132.997 264.555 133.072L264.261 133.968C263.878 133.921 263.57 133.814 263.337 133.646C263.103 133.478 262.931 133.216 262.819 132.862C262.324 133.599 261.591 133.968 260.621 133.968C259.893 133.968 259.319 133.762 258.899 133.352C258.479 132.941 258.269 132.404 258.269 131.742C258.269 130.958 258.549 130.356 259.109 129.936C259.678 129.516 260.481 129.306 261.517 129.306H262.651V128.76C262.651 128.237 262.525 127.864 262.273 127.64C262.021 127.416 261.633 127.304 261.111 127.304C260.569 127.304 259.907 127.434 259.123 127.696L258.801 126.758C259.715 126.422 260.565 126.254 261.349 126.254C262.217 126.254 262.865 126.468 263.295 126.898C263.724 127.318 263.939 127.92 263.939 128.704V132.078ZM260.915 133.002C261.652 133.002 262.231 132.619 262.651 131.854V130.16H261.685C260.322 130.16 259.641 130.664 259.641 131.672C259.641 132.11 259.748 132.442 259.963 132.666C260.177 132.89 260.495 133.002 260.915 133.002ZM270.308 133.464C269.823 133.8 269.272 133.968 268.656 133.968C268.031 133.968 267.541 133.79 267.186 133.436C266.841 133.072 266.668 132.549 266.668 131.868V127.416H265.38V126.422H266.668V124.756L267.956 124.602V126.422H269.706L269.566 127.416H267.956V131.812C267.956 132.194 268.021 132.474 268.152 132.652C268.292 132.82 268.521 132.904 268.838 132.904C269.127 132.904 269.454 132.806 269.818 132.61L270.308 133.464ZM277.009 129.894C277.009 130.108 277 130.328 276.981 130.552H272.277C272.333 131.364 272.539 131.961 272.893 132.344C273.248 132.726 273.705 132.918 274.265 132.918C274.62 132.918 274.947 132.866 275.245 132.764C275.544 132.661 275.857 132.498 276.183 132.274L276.743 133.044C275.959 133.66 275.101 133.968 274.167 133.968C273.141 133.968 272.338 133.632 271.759 132.96C271.19 132.288 270.905 131.364 270.905 130.188C270.905 129.422 271.027 128.746 271.269 128.158C271.521 127.56 271.876 127.094 272.333 126.758C272.8 126.422 273.346 126.254 273.971 126.254C274.951 126.254 275.703 126.576 276.225 127.22C276.748 127.864 277.009 128.755 277.009 129.894ZM275.735 129.516C275.735 128.788 275.591 128.232 275.301 127.85C275.012 127.467 274.578 127.276 273.999 127.276C272.945 127.276 272.371 128.05 272.277 129.6H275.735V129.516ZM286.243 126.254C286.915 126.254 287.438 126.454 287.811 126.856C288.194 127.257 288.385 127.808 288.385 128.508V133.8H287.097V128.69C287.097 128.167 286.999 127.798 286.803 127.584C286.607 127.369 286.318 127.262 285.935 127.262C285.543 127.262 285.198 127.374 284.899 127.598C284.601 127.822 284.321 128.144 284.059 128.564V133.8H282.771V126.422H283.877L283.989 127.514C284.251 127.122 284.573 126.814 284.955 126.59C285.347 126.366 285.777 126.254 286.243 126.254ZM296.547 129.894C296.547 130.108 296.537 130.328 296.519 130.552H291.815C291.871 131.364 292.076 131.961 292.431 132.344C292.785 132.726 293.243 132.918 293.803 132.918C294.157 132.918 294.484 132.866 294.783 132.764C295.081 132.661 295.394 132.498 295.721 132.274L296.281 133.044C295.497 133.66 294.638 133.968 293.705 133.968C292.678 133.968 291.875 133.632 291.297 132.96C290.727 132.288 290.443 131.364 290.443 130.188C290.443 129.422 290.564 128.746 290.807 128.158C291.059 127.56 291.413 127.094 291.871 126.758C292.337 126.422 292.883 126.254 293.509 126.254C294.489 126.254 295.24 126.576 295.763 127.22C296.285 127.864 296.547 128.755 296.547 129.894ZM295.273 129.516C295.273 128.788 295.128 128.232 294.839 127.85C294.549 127.467 294.115 127.276 293.537 127.276C292.482 127.276 291.908 128.05 291.815 129.6H295.273V129.516ZM307.031 126.422L305.351 133.8H303.601L302.313 127.584L300.983 133.8H299.275L297.553 126.422H298.841L300.171 132.904L301.627 126.422H303.069L304.455 132.904L305.799 126.422H307.031ZM262.662 147.254C263.1 147.254 263.502 147.319 263.866 147.45C264.23 147.571 264.58 147.772 264.916 148.052L264.3 148.864C264.038 148.677 263.782 148.542 263.53 148.458C263.287 148.364 263.016 148.318 262.718 148.318C262.12 148.318 261.654 148.556 261.318 149.032C260.991 149.508 260.828 150.212 260.828 151.146C260.828 152.079 260.991 152.77 261.318 153.218C261.644 153.656 262.111 153.876 262.718 153.876C263.007 153.876 263.273 153.834 263.516 153.75C263.758 153.656 264.029 153.512 264.328 153.316L264.916 154.156C264.244 154.697 263.492 154.968 262.662 154.968C261.663 154.968 260.874 154.632 260.296 153.96C259.726 153.288 259.442 152.359 259.442 151.174C259.442 150.39 259.572 149.704 259.834 149.116C260.095 148.528 260.464 148.07 260.94 147.744C261.425 147.417 261.999 147.254 262.662 147.254ZM270.131 147.254C270.803 147.254 271.326 147.454 271.699 147.856C272.082 148.257 272.273 148.808 272.273 149.508V154.8H270.985V149.69C270.985 149.167 270.882 148.798 270.677 148.584C270.481 148.369 270.192 148.262 269.809 148.262C269.426 148.262 269.086 148.374 268.787 148.598C268.488 148.822 268.208 149.139 267.947 149.55V154.8H266.659V144.468L267.947 144.328V148.444C268.526 147.65 269.254 147.254 270.131 147.254ZM279.832 153.078C279.832 153.376 279.884 153.6 279.986 153.75C280.089 153.89 280.243 153.997 280.448 154.072L280.154 154.968C279.772 154.921 279.464 154.814 279.23 154.646C278.997 154.478 278.824 154.216 278.712 153.862C278.218 154.599 277.485 154.968 276.514 154.968C275.786 154.968 275.212 154.762 274.792 154.352C274.372 153.941 274.162 153.404 274.162 152.742C274.162 151.958 274.442 151.356 275.002 150.936C275.572 150.516 276.374 150.306 277.41 150.306H278.544V149.76C278.544 149.237 278.418 148.864 278.166 148.64C277.914 148.416 277.527 148.304 277.004 148.304C276.463 148.304 275.8 148.434 275.016 148.696L274.694 147.758C275.609 147.422 276.458 147.254 277.242 147.254C278.11 147.254 278.759 147.468 279.188 147.898C279.618 148.318 279.832 148.92 279.832 149.704V153.078ZM276.808 154.002C277.546 154.002 278.124 153.619 278.544 152.854V151.16H277.578C276.216 151.16 275.534 151.664 275.534 152.672C275.534 153.11 275.642 153.442 275.856 153.666C276.071 153.89 276.388 154.002 276.808 154.002ZM286.201 154.464C285.716 154.8 285.165 154.968 284.549 154.968C283.924 154.968 283.434 154.79 283.079 154.436C282.734 154.072 282.561 153.549 282.561 152.868V148.416H281.273V147.422H282.561V145.756L283.849 145.602V147.422H285.599L285.459 148.416H283.849V152.812C283.849 153.194 283.915 153.474 284.045 153.652C284.185 153.82 284.414 153.904 284.731 153.904C285.021 153.904 285.347 153.806 285.711 153.61L286.201 154.464Z" fill="#001826" fill-opacity="0.9"/>
<ellipse cx="668.061" cy="65.379" rx="63.4858" ry="63.9459" fill="white" stroke="#004166" stroke-opacity="0.1" stroke-width="2" stroke-linecap="round"/>
<path d="M626.139 49.7871V59.4331H624.809V49.7871H626.139ZM632.34 51.8871C633.012 51.8871 633.534 52.0878 633.908 52.4891C634.29 52.8904 634.482 53.4411 634.482 54.1411V59.4331H633.194V54.3231C633.194 53.8004 633.096 53.4318 632.9 53.2171C632.704 53.0024 632.414 52.8951 632.032 52.8951C631.64 52.8951 631.294 53.0071 630.996 53.2311C630.697 53.4551 630.417 53.7771 630.156 54.1971V59.4331H628.868V52.0551H629.974L630.086 53.1471C630.347 52.7551 630.669 52.4471 631.052 52.2231C631.444 51.9991 631.873 51.8871 632.34 51.8871ZM642.393 52.0551L639.887 59.4331H638.333L635.785 52.0551H637.185L639.117 58.2851L641.035 52.0551H642.393ZM645.154 52.0551V59.4331H643.866V52.0551H645.154ZM644.496 48.5131C644.766 48.5131 644.986 48.5971 645.154 48.7651C645.322 48.9331 645.406 49.1431 645.406 49.3951C645.406 49.6471 645.322 49.8571 645.154 50.0251C644.986 50.1838 644.766 50.2631 644.496 50.2631C644.234 50.2631 644.02 50.1838 643.852 50.0251C643.684 49.8571 643.6 49.6471 643.6 49.3951C643.6 49.1431 643.684 48.9331 643.852 48.7651C644.02 48.5971 644.234 48.5131 644.496 48.5131ZM651.541 59.0971C651.055 59.4331 650.505 59.6011 649.889 59.6011C649.263 59.6011 648.773 59.4238 648.419 59.0691C648.073 58.7051 647.901 58.1824 647.901 57.5011V53.0491H646.613V52.0551H647.901V50.3891L649.189 50.2351V52.0551H650.939L650.799 53.0491H649.189V57.4451C649.189 57.8278 649.254 58.1078 649.385 58.2851C649.525 58.4531 649.753 58.5371 650.071 58.5371C650.36 58.5371 650.687 58.4391 651.051 58.2431L651.541 59.0971ZM658.242 55.5271C658.242 55.7418 658.233 55.9611 658.214 56.1851H653.51C653.566 56.9971 653.772 57.5944 654.126 57.9771C654.481 58.3598 654.938 58.5511 655.498 58.5511C655.853 58.5511 656.18 58.4998 656.478 58.3971C656.777 58.2944 657.09 58.1311 657.416 57.9071L657.976 58.6771C657.192 59.2931 656.334 59.6011 655.4 59.6011C654.374 59.6011 653.571 59.2651 652.992 58.5931C652.423 57.9211 652.138 56.9971 652.138 55.8211C652.138 55.0558 652.26 54.3791 652.502 53.7911C652.754 53.1938 653.109 52.7271 653.566 52.3911C654.033 52.0551 654.579 51.8871 655.204 51.8871C656.184 51.8871 656.936 52.2091 657.458 52.8531C657.981 53.4971 658.242 54.3884 658.242 55.5271ZM656.968 55.1491C656.968 54.4211 656.824 53.8658 656.534 53.4831C656.245 53.1004 655.811 52.9091 655.232 52.9091C654.178 52.9091 653.604 53.6838 653.51 55.2331H656.968V55.1491ZM667.728 59.0971C667.243 59.4331 666.692 59.6011 666.076 59.6011C665.451 59.6011 664.961 59.4238 664.606 59.0691C664.261 58.7051 664.088 58.1824 664.088 57.5011V53.0491H662.8V52.0551H664.088V50.3891L665.376 50.2351V52.0551H667.126L666.986 53.0491H665.376V57.4451C665.376 57.8278 665.442 58.1078 665.572 58.2851C665.712 58.4531 665.941 58.5371 666.258 58.5371C666.548 58.5371 666.874 58.4391 667.238 58.2431L667.728 59.0971ZM672.535 51.8871C673.207 51.8871 673.73 52.0878 674.103 52.4891C674.486 52.8904 674.677 53.4411 674.677 54.1411V59.4331H673.389V54.3231C673.389 53.8004 673.286 53.4318 673.081 53.2171C672.885 53.0024 672.596 52.8951 672.213 52.8951C671.83 52.8951 671.49 53.0071 671.191 53.2311C670.892 53.4551 670.612 53.7724 670.351 54.1831V59.4331H669.063V49.1011L670.351 48.9611V53.0771C670.93 52.2838 671.658 51.8871 672.535 51.8871ZM680.472 51.8871C680.733 51.8871 680.976 51.9151 681.2 51.9711L680.962 53.2311C680.738 53.1751 680.523 53.1471 680.318 53.1471C679.861 53.1471 679.492 53.3151 679.212 53.6511C678.932 53.9871 678.713 54.5098 678.554 55.2191V59.4331H677.266V52.0551H678.372L678.498 53.5531C678.694 53.0024 678.96 52.5871 679.296 52.3071C679.632 52.0271 680.024 51.8871 680.472 51.8871ZM685.015 51.8871C686.051 51.8871 686.853 52.2324 687.423 52.9231C688.001 53.6138 688.291 54.5518 688.291 55.7371C688.291 56.5024 688.16 57.1791 687.899 57.7671C687.637 58.3458 687.259 58.7984 686.765 59.1251C686.27 59.4424 685.682 59.6011 685.001 59.6011C683.965 59.6011 683.157 59.2558 682.579 58.5651C682 57.8744 681.711 56.9364 681.711 55.7511C681.711 54.9858 681.841 54.3138 682.103 53.7351C682.364 53.1471 682.742 52.6944 683.237 52.3771C683.731 52.0504 684.324 51.8871 685.015 51.8871ZM685.015 52.9231C683.736 52.9231 683.097 53.8658 683.097 55.7511C683.097 57.6271 683.731 58.5651 685.001 58.5651C686.27 58.5651 686.905 57.6224 686.905 55.7371C686.905 53.8611 686.275 52.9231 685.015 52.9231ZM695.906 59.4331H694.8L694.702 58.2851C694.422 58.7424 694.1 59.0784 693.736 59.2931C693.372 59.4984 692.929 59.6011 692.406 59.6011C691.762 59.6011 691.258 59.4051 690.894 59.0131C690.53 58.6211 690.348 58.0658 690.348 57.3471V52.0551H691.636V57.2071C691.636 57.7111 691.725 58.0704 691.902 58.2851C692.08 58.4904 692.369 58.5931 692.77 58.5931C693.489 58.5931 694.105 58.1684 694.618 57.3191V52.0551H695.906V59.4331ZM704.517 52.3911C704.237 52.4844 703.929 52.5451 703.593 52.5731C703.257 52.6011 702.846 52.6151 702.361 52.6151C703.229 53.0071 703.663 53.6278 703.663 54.4771C703.663 55.2144 703.411 55.8164 702.907 56.2831C702.403 56.7498 701.717 56.9831 700.849 56.9831C700.513 56.9831 700.2 56.9364 699.911 56.8431C699.799 56.9178 699.71 57.0204 699.645 57.1511C699.579 57.2724 699.547 57.3984 699.547 57.5291C699.547 57.9304 699.869 58.1311 700.513 58.1311H701.689C702.183 58.1311 702.622 58.2198 703.005 58.3971C703.387 58.5744 703.681 58.8171 703.887 59.1251C704.101 59.4331 704.209 59.7831 704.209 60.1751C704.209 60.8938 703.915 61.4444 703.327 61.8271C702.739 62.2191 701.88 62.4151 700.751 62.4151C699.957 62.4151 699.327 62.3311 698.861 62.1631C698.403 62.0044 698.077 61.7618 697.881 61.4351C697.685 61.1084 697.587 60.6884 697.587 60.1751H698.749C698.749 60.4738 698.805 60.7071 698.917 60.8751C699.029 61.0524 699.229 61.1831 699.519 61.2671C699.808 61.3604 700.219 61.4071 700.751 61.4071C701.525 61.4071 702.076 61.3091 702.403 61.1131C702.739 60.9264 702.907 60.6418 702.907 60.2591C702.907 59.9138 702.776 59.6524 702.515 59.4751C702.253 59.2978 701.889 59.2091 701.423 59.2091H700.261C699.635 59.2091 699.159 59.0784 698.833 58.8171C698.515 58.5464 698.357 58.2104 698.357 57.8091C698.357 57.5664 698.427 57.3331 698.567 57.1091C698.707 56.8851 698.907 56.6844 699.169 56.5071C698.739 56.2831 698.422 56.0078 698.217 55.6811C698.021 55.3451 697.923 54.9391 697.923 54.4631C697.923 53.9684 698.044 53.5251 698.287 53.1331C698.539 52.7411 698.879 52.4378 699.309 52.2231C699.747 51.9991 700.233 51.8871 700.765 51.8871C701.343 51.8964 701.829 51.8778 702.221 51.8311C702.613 51.7751 702.935 51.7051 703.187 51.6211C703.448 51.5278 703.765 51.3971 704.139 51.2291L704.517 52.3911ZM700.765 52.8111C700.279 52.8111 699.901 52.9651 699.631 53.2731C699.369 53.5718 699.239 53.9684 699.239 54.4631C699.239 54.9671 699.374 55.3731 699.645 55.6811C699.915 55.9798 700.298 56.1291 700.793 56.1291C701.297 56.1291 701.679 55.9844 701.941 55.6951C702.211 55.3964 702.347 54.9811 702.347 54.4491C702.347 53.3571 701.819 52.8111 700.765 52.8111ZM709.312 51.8871C709.984 51.8871 710.507 52.0878 710.88 52.4891C711.263 52.8904 711.454 53.4411 711.454 54.1411V59.4331H710.166V54.3231C710.166 53.8004 710.064 53.4318 709.858 53.2171C709.662 53.0024 709.373 52.8951 708.99 52.8951C708.608 52.8951 708.267 53.0071 707.968 53.2311C707.67 53.4551 707.39 53.7724 707.128 54.1831V59.4331H705.84V49.1011L707.128 48.9611V53.0771C707.707 52.2838 708.435 51.8871 709.312 51.8871ZM657.313 76.5271C657.313 76.7418 657.303 76.9611 657.285 77.1851H652.581C652.637 77.9971 652.842 78.5944 653.197 78.9771C653.551 79.3598 654.009 79.5511 654.569 79.5511C654.923 79.5511 655.25 79.4998 655.549 79.3971C655.847 79.2944 656.16 79.1311 656.487 78.9071L657.047 79.6771C656.263 80.2931 655.404 80.6011 654.471 80.6011C653.444 80.6011 652.641 80.2651 652.063 79.5931C651.493 78.9211 651.209 77.9971 651.209 76.8211C651.209 76.0558 651.33 75.3791 651.573 74.7911C651.825 74.1938 652.179 73.7271 652.637 73.3911C653.103 73.0551 653.649 72.8871 654.275 72.8871C655.255 72.8871 656.006 73.2091 656.529 73.8531C657.051 74.4971 657.313 75.3884 657.313 76.5271ZM656.039 76.1491C656.039 75.4211 655.894 74.8658 655.605 74.4831C655.315 74.1004 654.881 73.9091 654.303 73.9091C653.248 73.9091 652.674 74.6838 652.581 76.2331H656.039V76.1491ZM666.776 72.8871C667.382 72.8871 667.868 73.0924 668.232 73.5031C668.596 73.9044 668.778 74.4504 668.778 75.1411V80.4331H667.49V75.3231C667.49 74.3711 667.144 73.8951 666.454 73.8951C666.09 73.8951 665.782 74.0024 665.53 74.2171C665.278 74.4224 665.007 74.7491 664.718 75.1971V80.4331H663.43V75.3231C663.43 74.3711 663.084 73.8951 662.394 73.8951C662.02 73.8951 661.708 74.0024 661.456 74.2171C661.204 74.4318 660.938 74.7584 660.658 75.1971V80.4331H659.37V73.0551H660.476L660.588 74.1331C661.138 73.3024 661.848 72.8871 662.716 72.8871C663.173 72.8871 663.56 73.0038 663.878 73.2371C664.204 73.4704 664.438 73.7971 664.578 74.2171C664.867 73.7878 665.184 73.4611 665.53 73.2371C665.884 73.0038 666.3 72.8871 666.776 72.8871ZM676.343 78.7111C676.343 79.0098 676.395 79.2338 676.497 79.3831C676.6 79.5231 676.754 79.6304 676.959 79.7051L676.665 80.6011C676.283 80.5544 675.975 80.4471 675.741 80.2791C675.508 80.1111 675.335 79.8498 675.223 79.4951C674.729 80.2324 673.996 80.6011 673.025 80.6011C672.297 80.6011 671.723 80.3958 671.303 79.9851C670.883 79.5744 670.673 79.0378 670.673 78.3751C670.673 77.5911 670.953 76.9891 671.513 76.5691C672.083 76.1491 672.885 75.9391 673.921 75.9391H675.055V75.3931C675.055 74.8704 674.929 74.4971 674.677 74.2731C674.425 74.0491 674.038 73.9371 673.515 73.9371C672.974 73.9371 672.311 74.0678 671.527 74.3291L671.205 73.3911C672.12 73.0551 672.969 72.8871 673.753 72.8871C674.621 72.8871 675.27 73.1018 675.699 73.5311C676.129 73.9511 676.343 74.5531 676.343 75.3371V78.7111ZM673.319 79.6351C674.057 79.6351 674.635 79.2524 675.055 78.4871V76.7931H674.089C672.727 76.7931 672.045 77.2971 672.045 78.3051C672.045 78.7438 672.153 79.0751 672.367 79.2991C672.582 79.5231 672.899 79.6351 673.319 79.6351ZM680.277 73.0551V80.4331H678.989V73.0551H680.277ZM679.619 69.5131C679.889 69.5131 680.109 69.5971 680.277 69.7651C680.445 69.9331 680.529 70.1431 680.529 70.3951C680.529 70.6471 680.445 70.8571 680.277 71.0251C680.109 71.1838 679.889 71.2631 679.619 71.2631C679.357 71.2631 679.143 71.1838 678.975 71.0251C678.807 70.8571 678.723 70.6471 678.723 70.3951C678.723 70.1431 678.807 69.9331 678.975 69.7651C679.143 69.5971 679.357 69.5131 679.619 69.5131ZM684.41 80.6011C683.934 80.6011 683.556 80.4611 683.276 80.1811C683.005 79.8918 682.87 79.4904 682.87 78.9771V70.0871L684.158 69.9331V78.9491C684.158 79.1544 684.191 79.3038 684.256 79.3971C684.331 79.4904 684.452 79.5371 684.62 79.5371C684.797 79.5371 684.956 79.5091 685.096 79.4531L685.432 80.3491C685.124 80.5171 684.783 80.6011 684.41 80.6011Z" fill="#001826" fill-opacity="0.9"/>
<ellipse cx="668.521" cy="226.854" rx="63.9459" ry="64.4059" fill="white" stroke="#004166" stroke-opacity="0.1" stroke-width="2" stroke-linecap="round"/>
<path d="M638.008 220.448L637.28 218.026H633.626L632.898 220.448H631.554L634.648 210.802H636.328L639.408 220.448H638.008ZM633.948 216.948H636.958L635.46 211.908L633.948 216.948ZM646.538 210.102V220.448H645.404L645.278 219.426C645.035 219.799 644.732 220.093 644.368 220.308C644.004 220.513 643.598 220.616 643.15 220.616C642.272 220.616 641.586 220.271 641.092 219.58C640.606 218.889 640.364 217.961 640.364 216.794C640.364 216.038 640.48 215.366 640.714 214.778C640.947 214.19 641.283 213.733 641.722 213.406C642.16 213.07 642.674 212.902 643.262 212.902C644.018 212.902 644.68 213.205 645.25 213.812V209.948L646.538 210.102ZM643.43 219.594C643.822 219.594 644.158 219.505 644.438 219.328C644.718 219.141 644.988 218.866 645.25 218.502V214.89C645.007 214.573 644.746 214.335 644.466 214.176C644.195 214.008 643.887 213.924 643.542 213.924C642.972 213.924 642.529 214.162 642.212 214.638C641.904 215.114 641.75 215.823 641.75 216.766C641.75 217.718 641.894 218.427 642.184 218.894C642.473 219.361 642.888 219.594 643.43 219.594ZM654.905 210.102V220.448H653.771L653.645 219.426C653.402 219.799 653.099 220.093 652.735 220.308C652.371 220.513 651.965 220.616 651.517 220.616C650.639 220.616 649.953 220.271 649.459 219.58C648.973 218.889 648.731 217.961 648.731 216.794C648.731 216.038 648.847 215.366 649.081 214.778C649.314 214.19 649.65 213.733 650.089 213.406C650.527 213.07 651.041 212.902 651.629 212.902C652.385 212.902 653.047 213.205 653.617 213.812V209.948L654.905 210.102ZM651.797 219.594C652.189 219.594 652.525 219.505 652.805 219.328C653.085 219.141 653.355 218.866 653.617 218.502V214.89C653.374 214.573 653.113 214.335 652.833 214.176C652.562 214.008 652.254 213.924 651.909 213.924C651.339 213.924 650.896 214.162 650.579 214.638C650.271 215.114 650.117 215.823 650.117 216.766C650.117 217.718 650.261 218.427 650.551 218.894C650.84 219.361 651.255 219.594 651.797 219.594ZM666.837 216.542C666.837 216.757 666.828 216.976 666.809 217.2H662.105C662.161 218.012 662.366 218.609 662.721 218.992C663.076 219.375 663.533 219.566 664.093 219.566C664.448 219.566 664.774 219.515 665.073 219.412C665.372 219.309 665.684 219.146 666.011 218.922L666.571 219.692C665.787 220.308 664.928 220.616 663.995 220.616C662.968 220.616 662.166 220.28 661.587 219.608C661.018 218.936 660.733 218.012 660.733 216.836C660.733 216.071 660.854 215.394 661.097 214.806C661.349 214.209 661.704 213.742 662.161 213.406C662.628 213.07 663.174 212.902 663.799 212.902C664.779 212.902 665.53 213.224 666.053 213.868C666.576 214.512 666.837 215.403 666.837 216.542ZM665.563 216.164C665.563 215.436 665.418 214.881 665.129 214.498C664.84 214.115 664.406 213.924 663.827 213.924C662.772 213.924 662.198 214.699 662.105 216.248H665.563V216.164ZM671.599 216.5L674.161 220.448H672.607L670.801 217.326L668.967 220.448H667.511L670.087 216.556L667.805 213.07H669.317L670.857 215.772L672.411 213.07H673.867L671.599 216.5ZM676.854 213.07V220.448H675.566V213.07H676.854ZM676.196 209.528C676.467 209.528 676.686 209.612 676.854 209.78C677.022 209.948 677.106 210.158 677.106 210.41C677.106 210.662 677.022 210.872 676.854 211.04C676.686 211.199 676.467 211.278 676.196 211.278C675.935 211.278 675.72 211.199 675.552 211.04C675.384 210.872 675.3 210.662 675.3 210.41C675.3 210.158 675.384 209.948 675.552 209.78C675.72 209.612 675.935 209.528 676.196 209.528ZM681.519 212.902C682.023 212.902 682.476 212.972 682.877 213.112C683.278 213.252 683.661 213.462 684.025 213.742L683.479 214.554C683.143 214.339 682.821 214.181 682.513 214.078C682.214 213.975 681.897 213.924 681.561 213.924C681.141 213.924 680.81 214.013 680.567 214.19C680.324 214.358 680.203 214.591 680.203 214.89C680.203 215.189 680.315 215.422 680.539 215.59C680.772 215.758 681.188 215.921 681.785 216.08C682.606 216.285 683.218 216.565 683.619 216.92C684.03 217.275 684.235 217.76 684.235 218.376C684.235 219.104 683.95 219.659 683.381 220.042C682.821 220.425 682.135 220.616 681.323 220.616C680.203 220.616 679.274 220.294 678.537 219.65L679.223 218.866C679.848 219.342 680.539 219.58 681.295 219.58C681.78 219.58 682.163 219.482 682.443 219.286C682.732 219.081 682.877 218.805 682.877 218.46C682.877 218.208 682.826 218.007 682.723 217.858C682.62 217.699 682.443 217.564 682.191 217.452C681.939 217.331 681.57 217.205 681.085 217.074C680.301 216.869 679.732 216.593 679.377 216.248C679.032 215.903 678.859 215.464 678.859 214.932C678.859 214.549 678.971 214.204 679.195 213.896C679.428 213.579 679.746 213.336 680.147 213.168C680.558 212.991 681.015 212.902 681.519 212.902ZM689.776 220.112C689.291 220.448 688.74 220.616 688.124 220.616C687.499 220.616 687.009 220.439 686.654 220.084C686.309 219.72 686.136 219.197 686.136 218.516V214.064H684.848V213.07H686.136V211.404L687.424 211.25V213.07H689.174L689.034 214.064H687.424V218.46C687.424 218.843 687.49 219.123 687.62 219.3C687.76 219.468 687.989 219.552 688.306 219.552C688.596 219.552 688.922 219.454 689.286 219.258L689.776 220.112ZM696.478 216.542C696.478 216.757 696.468 216.976 696.45 217.2H691.746C691.802 218.012 692.007 218.609 692.362 218.992C692.716 219.375 693.174 219.566 693.734 219.566C694.088 219.566 694.415 219.515 694.714 219.412C695.012 219.309 695.325 219.146 695.652 218.922L696.212 219.692C695.428 220.308 694.569 220.616 693.636 220.616C692.609 220.616 691.806 220.28 691.228 219.608C690.658 218.936 690.374 218.012 690.374 216.836C690.374 216.071 690.495 215.394 690.738 214.806C690.99 214.209 691.344 213.742 691.802 213.406C692.268 213.07 692.814 212.902 693.44 212.902C694.42 212.902 695.171 213.224 695.694 213.868C696.216 214.512 696.478 215.403 696.478 216.542ZM695.204 216.164C695.204 215.436 695.059 214.881 694.77 214.498C694.48 214.115 694.046 213.924 693.468 213.924C692.413 213.924 691.839 214.699 691.746 216.248H695.204V216.164ZM704.247 210.102V220.448H703.113L702.987 219.426C702.744 219.799 702.441 220.093 702.077 220.308C701.713 220.513 701.307 220.616 700.859 220.616C699.981 220.616 699.295 220.271 698.801 219.58C698.315 218.889 698.073 217.961 698.073 216.794C698.073 216.038 698.189 215.366 698.423 214.778C698.656 214.19 698.992 213.733 699.431 213.406C699.869 213.07 700.383 212.902 700.971 212.902C701.727 212.902 702.389 213.205 702.959 213.812V209.948L704.247 210.102ZM701.139 219.594C701.531 219.594 701.867 219.505 702.147 219.328C702.427 219.141 702.697 218.866 702.959 218.502V214.89C702.716 214.573 702.455 214.335 702.175 214.176C701.904 214.008 701.596 213.924 701.251 213.924C700.681 213.924 700.238 214.162 699.921 214.638C699.613 215.114 699.459 215.823 699.459 216.766C699.459 217.718 699.603 218.427 699.893 218.894C700.182 219.361 700.597 219.594 701.139 219.594ZM648.982 233.902C649.421 233.902 649.822 233.967 650.186 234.098C650.55 234.219 650.9 234.42 651.236 234.7L650.62 235.512C650.359 235.325 650.102 235.19 649.85 235.106C649.608 235.013 649.337 234.966 649.038 234.966C648.441 234.966 647.974 235.204 647.638 235.68C647.312 236.156 647.148 236.861 647.148 237.794C647.148 238.727 647.312 239.418 647.638 239.866C647.965 240.305 648.432 240.524 649.038 240.524C649.328 240.524 649.594 240.482 649.836 240.398C650.079 240.305 650.35 240.16 650.648 239.964L651.236 240.804C650.564 241.345 649.813 241.616 648.982 241.616C647.984 241.616 647.195 241.28 646.616 240.608C646.047 239.936 645.762 239.007 645.762 237.822C645.762 237.038 645.893 236.352 646.154 235.764C646.416 235.176 646.784 234.719 647.26 234.392C647.746 234.065 648.32 233.902 648.982 233.902ZM655.478 233.902C656.514 233.902 657.317 234.247 657.886 234.938C658.465 235.629 658.754 236.567 658.754 237.752C658.754 238.517 658.624 239.194 658.362 239.782C658.101 240.361 657.723 240.813 657.228 241.14C656.734 241.457 656.146 241.616 655.464 241.616C654.428 241.616 653.621 241.271 653.042 240.58C652.464 239.889 652.174 238.951 652.174 237.766C652.174 237.001 652.305 236.329 652.566 235.75C652.828 235.162 653.206 234.709 653.7 234.392C654.195 234.065 654.788 233.902 655.478 233.902ZM655.478 234.938C654.2 234.938 653.56 235.881 653.56 237.766C653.56 239.642 654.195 240.58 655.464 240.58C656.734 240.58 657.368 239.637 657.368 237.752C657.368 235.876 656.738 234.938 655.478 234.938ZM664.354 233.902C665.026 233.902 665.549 234.103 665.922 234.504C666.305 234.905 666.496 235.456 666.496 236.156V241.448H665.208V236.338C665.208 235.815 665.11 235.447 664.914 235.232C664.718 235.017 664.429 234.91 664.046 234.91C663.654 234.91 663.309 235.022 663.01 235.246C662.712 235.47 662.432 235.792 662.17 236.212V241.448H660.882V234.07H661.988L662.1 235.162C662.362 234.77 662.684 234.462 663.066 234.238C663.458 234.014 663.888 233.902 664.354 233.902ZM672.809 241.112C672.324 241.448 671.773 241.616 671.157 241.616C670.532 241.616 670.042 241.439 669.687 241.084C669.342 240.72 669.169 240.197 669.169 239.516V235.064H667.881V234.07H669.169V232.404L670.457 232.25V234.07H672.207L672.067 235.064H670.457V239.46C670.457 239.843 670.523 240.123 670.653 240.3C670.793 240.468 671.022 240.552 671.339 240.552C671.629 240.552 671.955 240.454 672.319 240.258L672.809 241.112ZM679.018 239.726C679.018 240.025 679.07 240.249 679.172 240.398C679.275 240.538 679.429 240.645 679.634 240.72L679.34 241.616C678.958 241.569 678.65 241.462 678.416 241.294C678.183 241.126 678.01 240.865 677.898 240.51C677.404 241.247 676.671 241.616 675.7 241.616C674.972 241.616 674.398 241.411 673.978 241C673.558 240.589 673.348 240.053 673.348 239.39C673.348 238.606 673.628 238.004 674.188 237.584C674.758 237.164 675.56 236.954 676.596 236.954H677.73V236.408C677.73 235.885 677.604 235.512 677.352 235.288C677.1 235.064 676.713 234.952 676.19 234.952C675.649 234.952 674.986 235.083 674.202 235.344L673.88 234.406C674.795 234.07 675.644 233.902 676.428 233.902C677.296 233.902 677.945 234.117 678.374 234.546C678.804 234.966 679.018 235.568 679.018 236.352V239.726ZM675.994 240.65C676.732 240.65 677.31 240.267 677.73 239.502V237.808H676.764C675.402 237.808 674.72 238.312 674.72 239.32C674.72 239.759 674.828 240.09 675.042 240.314C675.257 240.538 675.574 240.65 675.994 240.65ZM684.351 233.902C684.79 233.902 685.191 233.967 685.555 234.098C685.919 234.219 686.269 234.42 686.605 234.7L685.989 235.512C685.728 235.325 685.471 235.19 685.219 235.106C684.977 235.013 684.706 234.966 684.407 234.966C683.81 234.966 683.343 235.204 683.007 235.68C682.681 236.156 682.517 236.861 682.517 237.794C682.517 238.727 682.681 239.418 683.007 239.866C683.334 240.305 683.801 240.524 684.407 240.524C684.697 240.524 684.963 240.482 685.205 240.398C685.448 240.305 685.719 240.16 686.017 239.964L686.605 240.804C685.933 241.345 685.182 241.616 684.351 241.616C683.353 241.616 682.564 241.28 681.985 240.608C681.416 239.936 681.131 239.007 681.131 237.822C681.131 237.038 681.262 236.352 681.523 235.764C681.785 235.176 682.153 234.719 682.629 234.392C683.115 234.065 683.689 233.902 684.351 233.902ZM692.073 241.112C691.588 241.448 691.037 241.616 690.421 241.616C689.796 241.616 689.306 241.439 688.951 241.084C688.606 240.72 688.433 240.197 688.433 239.516V235.064H687.145V234.07H688.433V232.404L689.721 232.25V234.07H691.471L691.331 235.064H689.721V239.46C689.721 239.843 689.786 240.123 689.917 240.3C690.057 240.468 690.286 240.552 690.603 240.552C690.892 240.552 691.219 240.454 691.583 240.258L692.073 241.112Z" fill="#001826" fill-opacity="0.9"/>
<path d="M142.593 138.905C142.04 138.905 141.593 139.353 141.593 139.905C141.593 140.458 142.04 140.905 142.593 140.905V138.905ZM206.987 140.612C207.377 140.222 207.377 139.589 206.987 139.198L200.623 132.834C200.232 132.444 199.599 132.444 199.208 132.834C198.818 133.225 198.818 133.858 199.208 134.248L204.865 139.905L199.208 145.562C198.818 145.953 198.818 146.586 199.208 146.976C199.599 147.367 200.232 147.367 200.623 146.976L206.987 140.612ZM142.593 140.905H206.28V138.905H142.593V140.905Z" fill="#004166" fill-opacity="0.1"/>
<path d="M338.571 138.905C338.019 138.905 337.571 139.353 337.571 139.905C337.571 140.458 338.019 140.905 338.571 140.905V138.905ZM389.623 140.612C390.014 140.222 390.014 139.589 389.623 139.198L383.259 132.834C382.869 132.444 382.236 132.444 381.845 132.834C381.455 133.225 381.455 133.858 381.845 134.248L387.502 139.905L381.845 145.562C381.455 145.953 381.455 146.586 381.845 146.976C382.236 147.367 382.869 147.367 383.259 146.976L389.623 140.612ZM338.571 140.905H388.916V138.905H338.571V140.905Z" fill="#004166" fill-opacity="0.1"/>
<path d="M535.009 138.905C534.457 138.905 534.009 139.353 534.009 139.905C534.009 140.458 534.457 140.905 535.009 140.905V138.905ZM600.783 227.561C601.173 227.17 601.173 226.537 600.783 226.147L594.419 219.783C594.028 219.392 593.395 219.392 593.004 219.783C592.614 220.173 592.614 220.807 593.004 221.197L598.661 226.854L593.004 232.511C592.614 232.901 592.614 233.534 593.004 233.925C593.395 234.316 594.028 234.316 594.419 233.925L600.783 227.561ZM535.009 140.905H564.542V138.905H535.009V140.905ZM566.542 142.905V223.854H568.542V142.905H566.542ZM570.542 227.854H600.075V225.854H570.542V227.854ZM566.542 223.854C566.542 226.063 568.333 227.854 570.542 227.854V225.854C569.438 225.854 568.542 224.958 568.542 223.854H566.542ZM564.542 140.905C565.647 140.905 566.542 141.801 566.542 142.905H568.542C568.542 140.696 566.751 138.905 564.542 138.905V140.905Z" fill="#004166" fill-opacity="0.1"/>
<path d="M535.009 138.905C534.457 138.905 534.009 139.353 534.009 139.905C534.009 140.457 534.457 140.905 535.009 140.905V138.905ZM600.783 66.086C601.173 65.6955 601.173 65.0623 600.783 64.6718L594.419 58.3078C594.028 57.9173 593.395 57.9173 593.004 58.3078C592.614 58.6984 592.614 59.3315 593.004 59.7221L598.661 65.3789L593.004 71.0358C592.614 71.4263 592.614 72.0594 593.004 72.45C593.395 72.8405 594.028 72.8405 594.419 72.45L600.783 66.086ZM535.009 140.905H564.542V138.905H535.009V140.905ZM568.542 136.905V68.3789H566.542V136.905H568.542ZM570.542 66.3789H600.075V64.3789H570.542V66.3789ZM568.542 68.3789C568.542 67.2743 569.438 66.3789 570.542 66.3789V64.3789C568.333 64.3789 566.542 66.1698 566.542 68.3789H568.542ZM564.542 140.905C566.751 140.905 568.542 139.114 568.542 136.905H566.542C566.542 138.01 565.647 138.905 564.542 138.905V140.905Z" fill="#004166" fill-opacity="0.1"/>
</svg>
