<svg width="396" height="400" viewBox="0 0 396 400" fill="none" xmlns="http://www.w3.org/2000/svg">
<mask id="mask0_797_2145" style="mask-type:luminance" maskUnits="userSpaceOnUse" x="0" y="0" width="375" height="376">
<path d="M0.289062 0.410156H374.977V375.094H0.289062V0.410156Z" fill="white"/>
</mask>
<g mask="url(#mask0_797_2145)">
<mask id="mask1_797_2145" style="mask-type:luminance" maskUnits="userSpaceOnUse" x="0" y="0" width="375" height="376">
<path d="M187.633 0.410156C84.1641 0.410156 0.289062 84.2852 0.289062 187.754C0.289062 291.219 84.1641 375.094 187.633 375.094C291.098 375.094 374.977 291.219 374.977 187.754C374.977 84.2852 291.098 0.410156 187.633 0.410156Z" fill="white"/>
</mask>
<g mask="url(#mask1_797_2145)">
<path d="M0.289062 0.410156H374.977V375.094H0.289062V0.410156Z" fill="#FFC700"/>
</g>
</g>
<path d="M350.746 371.559L311.309 394.434C309.465 395.484 307.102 396.012 304.996 396.012C302.895 396.012 300.527 395.484 298.688 394.434L259.246 371.559C257.668 370.773 256.617 369.457 256.617 367.879V371.559C256.879 373.137 257.668 374.715 259.246 375.242L298.688 398.117C300.527 399.168 302.895 399.691 304.996 399.691C307.102 399.691 309.465 399.168 311.309 398.117L350.746 375.242C352.324 374.715 353.113 373.137 353.375 371.559C353.375 371.824 352.586 370.773 350.746 371.559Z" fill="#414042"/>
<path d="M290.008 378.133L283.699 374.453V348.422L290.008 352.102V378.133Z" fill="#191919"/>
<path d="M290.008 352.105L283.699 348.422L313.672 331.332L319.984 335.016L290.008 352.105Z" fill="#113A52"/>
<mask id="mask2_797_2145" style="mask-type:luminance" maskUnits="userSpaceOnUse" x="256" y="339" width="98" height="58">
<path d="M256 339.43H354V396.43H256V339.43Z" fill="white"/>
</mask>
<g mask="url(#mask2_797_2145)">
<mask id="mask3_797_2145" style="mask-type:luminance" maskUnits="userSpaceOnUse" x="256" y="339" width="98" height="58">
<path d="M350.746 364.199C354.164 366.301 354.43 369.457 350.746 371.559L311.309 394.434C307.363 396.539 302.629 396.539 298.688 394.434L259.246 371.559C255.828 369.457 255.828 366.301 259.246 364.199L298.688 341.324C302.629 339.223 307.363 339.223 311.309 341.324L350.746 364.199Z" fill="white"/>
</mask>
<g mask="url(#mask3_797_2145)">
<path d="M255.828 339.223V396.539H354.43V339.223H255.828Z" fill="url(#paint0_linear_797_2145)"/>
</g>
</g>
<path d="M388.348 122.836C391.762 120.734 394.656 122.308 394.656 126.516L394.918 284.269C394.656 288.738 392.289 292.945 388.609 295.312L210.605 398.117C207.187 400.219 204.297 398.379 204.297 394.434L204.031 236.68C204.297 232.211 206.66 228.004 210.344 225.637L388.348 122.836Z" fill="#E4E3E5"/>
<path d="M388.344 122.836C391.762 120.734 204.82 383.656 204.82 387.598L395.18 284.269C394.918 288.742 392.551 292.949 388.871 295.312L210.867 398.117C207.449 400.219 204.559 398.379 204.559 394.433L204.297 236.683C204.559 232.211 206.926 228.004 210.605 225.64L388.344 122.836Z" fill="#EFEFEF"/>
<path d="M204.297 394.434C204.297 394.434 203.508 399.168 209.027 398.902L394.918 280.852L204.031 388.648" fill="#2C57F3"/>
<path d="M204.297 394.434L204.031 236.68L197.723 233L197.984 390.754C197.723 392.332 198.512 393.906 199.824 394.961L206.137 398.641C204.82 397.59 204.031 396.012 204.297 394.434Z" fill="#414042"/>
<mask id="mask4_797_2145" style="mask-type:luminance" maskUnits="userSpaceOnUse" x="197" y="117" width="196" height="121">
<path d="M197 117.836H393V237.43H197V117.836Z" fill="white"/>
</mask>
<g mask="url(#mask4_797_2145)">
<path d="M386.504 118.629C384.926 117.84 383.348 118.105 382.035 119.156L204.031 221.957C200.352 224.324 197.984 228.531 197.723 233L204.031 236.68C204.297 232.211 206.66 228.004 210.344 225.637L388.344 122.836C389.66 121.785 391.5 121.785 392.816 122.309L386.504 118.629Z" fill="#414042"/>
</g>
<path d="M224.277 379.711C221.91 381.289 220.598 383.656 220.332 386.547C220.332 389.176 222.176 389.965 224.277 388.914C226.645 387.336 227.957 384.969 228.223 382.078C228.223 379.711 226.645 378.66 224.277 379.711Z" fill="#072DB7"/>
<path d="M224.277 381.024C222.699 382.078 221.648 383.918 221.387 386.02C221.387 387.863 222.699 388.649 224.277 387.598C225.855 386.547 226.906 384.707 227.168 382.602C227.168 380.762 225.855 380.238 224.277 381.024Z" fill="#FFB100"/>
<path d="M319.984 335.016V361.043L290.008 378.133V352.105L319.984 335.016Z" fill="#414042"/>
<path d="M389.398 294.789L209.027 398.902C207.187 399.429 205.082 398.379 204.559 396.273C204.559 396.012 204.559 395.75 204.559 395.75V388.648L395.18 281.117C394.918 280.851 395.969 290.054 389.398 294.789Z" fill="#59595B"/>
<path d="M224.539 270.336L381.246 184.098L380.984 227.215L223.75 315.559L224.539 270.336Z" fill="#FFB100"/>
<path d="M224.016 234.051L275.023 205.656L274.762 235.105L223.75 263.5L224.016 234.051Z" fill="#1040EF"/>
<path d="M283.172 207.496L381.246 152.809V170.164L282.91 225.375L283.172 207.496Z" fill="#1040EF"/>
<path d="M225.066 341.324C225.066 341.586 225.328 341.848 225.594 341.586L265.559 317.922C265.82 317.66 266.086 317.398 266.086 316.875V302.41C266.086 302.148 265.82 301.887 265.559 302.148L225.594 325.813C225.328 326.074 225.066 326.336 225.066 326.863V341.324Z" fill="#7B9F00"/>
<path d="M283.438 306.883C283.438 307.145 283.699 307.406 283.965 307.145L323.93 283.48C324.191 283.219 324.453 282.957 324.453 282.43V267.969C324.453 267.707 324.191 267.445 323.93 267.707L283.965 291.371C283.699 291.633 283.438 291.895 283.438 292.422V306.883Z" fill="#7B9F00"/>
<path d="M340.754 272.437C340.754 272.699 341.02 272.965 341.281 272.699L381.246 249.039C381.508 248.773 381.773 248.511 381.773 247.988V233.789C381.773 233.527 381.508 233.261 381.246 233.527L341.281 257.187C341.02 257.453 340.754 257.715 340.754 258.242V272.437Z" fill="#7B9F00"/>
<path d="M225.066 361.832C225.066 362.097 225.328 362.359 225.594 362.097L265.559 338.433C265.82 338.168 266.086 337.906 266.086 337.379V323.183C266.086 322.922 265.82 322.656 265.559 322.922L225.594 346.582C225.328 346.847 225.066 347.109 225.066 347.633V361.832Z" fill="#7B9F00"/>
<path d="M283.438 327.39C283.438 327.652 283.699 327.914 283.965 327.652L323.93 303.988C324.191 303.726 324.453 303.465 324.453 302.937V288.476C324.453 288.215 324.191 287.949 323.93 288.215L283.965 311.875C283.699 312.14 283.438 312.402 283.438 312.929V327.39Z" fill="#7B9F00"/>
<path d="M340.754 292.945C340.754 293.211 341.02 293.472 341.281 293.211L381.246 269.547C381.508 269.285 381.773 269.019 381.773 268.496V254.035C381.773 253.773 381.508 253.508 381.246 253.773L341.281 277.433C341.02 277.699 340.754 277.961 340.754 278.484V292.945Z" fill="#7B9F00"/>
<path d="M298.563 178.445L292.746 181.754L278.617 173.898C278.617 173.484 278.617 173.484 278.617 173.07C278.617 173.07 278.617 172.66 279.035 172.66L279.867 172.246H279.449C279.449 172.246 279.035 172.246 279.035 171.832C278.617 172.246 277.789 172.66 277.371 172.66C275.293 173.484 273.633 173.898 271.555 173.898C271.555 174.312 271.969 174.727 271.969 175.141C272.387 175.551 272.801 176.379 272.801 176.793C274.047 176.793 274.879 175.551 276.539 175.141C278.203 174.727 279.867 176.379 281.113 177.207C285.266 180.098 289.836 181.754 293.992 184.645C294.406 182.168 298.563 180.926 301.055 180.926C299.809 179.687 299.395 178.859 298.563 178.445Z" fill="#302A26"/>
<path d="M298.562 178.445C298.977 178.859 299.809 179.688 300.641 180.512H301.055C302.305 178.445 303.965 177.207 306.043 176.379C305.625 175.965 305.211 175.551 304.797 175.141L298.562 178.445Z" fill="#12100E"/>
<path d="M293.574 184.234C294.406 185.059 295.652 185.473 296.902 185.473C297.316 185.887 298.148 185.887 298.977 185.887C298.563 186.715 298.148 187.125 297.316 187.539C298.148 187.953 298.977 188.367 299.809 189.191H298.977C298.563 190.848 300.227 194.152 300.641 195.809C301.473 198.289 301.887 200.766 302.719 203.246C303.551 205.312 304.379 208.207 306.871 208.621C308.117 208.621 308.949 208.621 310.195 208.621C310.195 208.207 309.781 207.383 309.781 206.555C308.535 198.699 306.457 191.262 303.965 183.82C303.551 182.992 302.301 181.34 301.055 180.098C298.148 180.512 293.992 181.754 293.574 184.234Z" fill="#413833"/>
<path d="M310.195 208.621C308.949 208.621 308.121 208.621 306.875 208.621C304.379 208.207 303.551 205.727 302.719 203.246C301.887 200.766 301.473 198.289 300.641 195.809C300.227 194.152 298.148 190.848 298.977 189.195H299.809C298.977 188.367 298.148 187.953 297.316 187.539C298.148 187.125 298.562 186.715 298.977 185.887C298.148 185.887 297.73 185.887 296.902 185.473C295.652 185.473 294.406 184.645 293.578 184.234C289.422 181.34 284.852 179.688 280.695 176.793C279.449 175.965 277.789 174.313 276.125 174.727C274.465 175.141 273.633 176.379 272.387 176.379C276.539 181.34 287.762 183.82 293.578 187.953C295.238 194.981 298.148 201.594 301.055 208.207C301.055 209.449 302.305 210.688 301.887 211.93H302.305C302.719 211.93 303.551 212.34 303.965 212.34C305.211 212.34 306.043 212.34 307.289 212.34C308.535 211.93 309.367 210.688 310.195 210.273C310.195 210.273 310.195 210.273 310.613 210.273C310.195 209.863 310.195 209.035 310.195 208.621Z" fill="#302A26"/>
<path d="M301.055 180.512C301.887 181.754 303.133 183.406 303.551 184.234C306.043 191.672 308.117 199.113 309.367 206.969C309.781 202.008 309.781 186.715 309.367 182.578C309.781 181.34 307.703 178.445 306.043 176.379C303.965 176.793 302.301 178.445 301.055 180.512Z" fill="#26211E"/>
<path d="M283.605 175.141C283.605 175.141 282.773 174.312 283.191 173.898C282.359 173.484 281.941 173.484 281.113 173.07C280.695 172.66 279.867 172.66 279.449 172.246L278.617 172.66L279.035 173.07L280.281 173.484C280.695 173.484 281.113 173.898 281.527 173.898L283.605 175.141Z" fill="#303A3A"/>
<path d="M283.605 175.141L281.941 174.312C282.359 174.312 282.773 174.727 283.605 175.141Z" fill="#303A3A"/>
<path d="M283.191 175.141L283.605 175.551L291.5 180.098L292.328 177.621C290.254 176.793 287.758 175.551 285.684 174.727C285.266 174.727 284.438 174.727 284.02 174.727V175.141C283.605 175.141 283.191 174.727 282.773 174.727C283.191 174.727 283.191 175.141 283.191 175.141Z" fill="#303A3A"/>
<path d="M278.617 173.898L292.746 181.754L298.562 178.445L304.797 174.727L311.859 170.594C311.859 170.18 311.859 169.766 311.859 169.352L297.73 177.621L292.746 180.512L291.5 179.688L283.605 175.141L283.191 174.727L282.359 174.313C281.941 173.898 281.527 173.898 281.113 173.484L280.695 173.074L279.867 172.66L278.617 172.246L278.203 171.832C278.203 171.832 278.203 172.246 277.789 172.246C278.617 173.484 278.617 173.898 278.617 173.898Z" fill="#4D5858"/>
<path d="M281.527 174.313C281.113 174.313 280.695 173.898 280.281 173.898L281.113 174.313H281.527Z" fill="#303A3A"/>
<path d="M264.078 154.883C264.078 155.711 264.492 156.953 264.492 157.777C265.324 157.777 265.738 157.777 266.57 157.363C267.402 157.363 268.648 156.953 269.476 156.539C270.308 156.125 272.386 155.297 273.218 154.473C272.8 153.645 272.386 152.406 271.968 151.164C271.554 149.926 270.722 148.684 269.894 147.445C269.062 146.617 267.816 146.203 266.57 145.789C265.738 146.203 264.906 146.617 264.492 147.445C264.492 147.445 264.492 147.445 264.492 147.859C264.492 148.27 264.078 148.27 264.078 148.684C263.66 149.926 263.246 151.164 263.66 152.406V152.816C263.66 153.23 263.66 153.23 264.078 153.645C264.078 154.059 264.078 154.473 264.078 154.883Z" fill="#4EB2CF"/>
<path d="M272.387 156.332L272.801 155.918C273.215 155.504 273.633 155.504 273.633 155.09C273.633 154.68 273.215 154.68 273.215 154.266C272.801 155.09 270.723 155.918 269.477 156.332C268.645 156.746 267.398 157.156 266.57 157.156C265.738 157.156 265.324 157.57 264.492 157.57C264.492 157.984 264.492 158.398 264.492 159.227C264.906 159.227 265.324 159.227 265.738 159.227H266.152C268.648 158.398 270.309 157.57 272.387 156.332Z" fill="#64CAFA"/>
<path d="M263.66 149.098C263.246 149.926 263.246 151.164 263.66 152.406C263.66 151.164 263.66 149.926 264.078 148.684C264.078 148.27 264.492 148.27 264.492 147.855C264.078 148.27 263.66 148.27 263.66 149.098Z" fill="#4EB2CF"/>
<path d="M272.801 155.297C272.801 155.711 273.215 155.711 273.215 156.125C272.801 156.539 272.801 156.953 272.387 156.953C272.387 156.953 272.387 156.953 272.387 157.363V157.777C272.387 158.191 272.387 158.191 272.801 158.605C273.215 159.43 273.215 160.258 273.633 161.086C274.047 161.91 274.047 162.738 274.465 163.566C276.539 165.219 279.449 166.457 281.527 168.113H281.941C281.941 168.113 281.941 168.113 282.359 168.523C284.852 167.699 287.344 166.047 289.004 163.977C288.176 162.324 287.344 160.672 286.93 159.02C286.93 157.363 286.93 155.297 286.93 153.645C286.93 152.816 286.93 151.578 286.93 150.75C286.93 150.336 286.93 149.926 286.93 149.512C286.93 149.098 286.93 148.684 286.93 147.855C286.93 146.617 286.512 145.379 286.098 144.137C285.684 142.484 284.438 140.418 283.605 139.176C283.188 137.937 282.359 137.109 281.113 136.285V136.695C281.113 137.109 281.113 137.109 281.113 137.523C281.113 138.352 281.113 138.762 281.113 139.176V139.59C281.113 139.59 281.113 140.004 280.695 140.004C281.113 140.832 281.527 142.07 281.113 142.898C281.113 144.137 280.281 145.379 278.617 145.379C276.957 145.379 275.293 145.379 273.633 144.551C272.801 144.137 271.141 143.309 270.309 142.07L269.895 142.484C269.477 142.898 269.062 143.309 268.645 143.309C268.23 143.723 267.398 144.551 266.984 144.965C266.57 145.379 266.57 145.789 266.152 145.789C266.152 145.789 265.738 145.789 265.738 146.203C265.324 146.617 264.906 147.445 264.492 147.855C264.906 147.031 265.738 146.203 266.57 146.203C267.816 146.203 269.062 146.617 269.895 147.855C270.723 148.684 271.555 150.336 271.969 151.578C271.555 153.23 271.969 154.059 272.801 155.297Z" fill="#4297B0"/>
<path d="M266.156 159.02C266.156 160.258 266.57 161.5 266.57 162.324C267.402 165.633 268.648 168.938 269.895 172.246C271.141 172.246 272.801 171.832 274.047 171.832C274.879 171.832 275.293 171.418 276.125 171.004C275.293 170.594 274.465 170.18 274.047 169.766C273.219 169.352 272.387 168.938 271.973 168.113C271.555 167.699 271.555 167.699 271.141 167.285C270.723 167.285 270.723 166.871 270.309 166.457C268.648 164.391 267.402 161.91 266.156 159.02C266.156 159.43 266.156 159.43 266.156 159.02Z" fill="#4297B0"/>
<path d="M290.047 172.98C289.629 172.566 289.215 172.566 288.383 172.566C287.137 172.566 285.891 171.742 285.473 170.914C284.227 173.395 280.074 170.914 278.41 170.086C275.086 168.02 271.348 166.367 270.516 161.82C270.102 160.578 269.687 159.34 270.934 158.512C271.762 157.687 272.594 157.273 273.012 156.445V156.031C273.012 156.031 273.012 156.031 273.012 155.621L272.594 156.031C272.594 156.031 272.594 156.031 272.18 156.445C270.516 157.687 268.437 158.512 266.777 158.926H266.359C266.359 159.34 266.777 159.34 266.777 159.754C268.023 162.234 269.27 164.715 270.934 166.781C271.348 167.195 271.348 167.195 271.762 167.605C272.18 168.02 272.18 168.02 272.594 168.434C273.426 168.848 274.258 169.672 274.672 170.086C275.504 170.5 276.332 170.914 276.75 171.328C277.578 171.742 278.41 172.152 278.828 172.152C278.828 172.152 279.242 172.152 279.242 172.566H279.656C280.074 172.98 280.488 172.98 281.32 173.395C282.148 173.809 282.566 174.219 283.395 174.219C283.812 174.219 284.227 174.633 284.645 174.633C285.059 174.633 285.891 174.633 286.305 174.633C287.137 174.633 287.969 174.219 288.797 174.219C289.215 174.219 289.215 174.633 289.629 174.633C290.047 174.633 290.047 175.047 290.461 175.047C290.875 175.047 290.875 175.461 291.293 175.461C291.707 175.461 292.121 175.875 292.121 175.461H292.539C292.539 175.047 292.121 175.047 292.121 174.633C290.461 173.809 290.461 173.395 290.047 172.98Z" fill="#F79B6A"/>
<path d="M271.141 125.535C269.477 126.777 267.816 128.844 268.648 130.496C269.062 132.148 269.895 134.215 270.723 135.871C270.723 136.285 270.723 136.695 270.723 137.523C270.723 137.937 271.141 138.351 271.555 138.351C271.555 138.351 271.555 138.351 271.555 137.937V138.351C271.969 138.351 271.969 138.351 272.387 138.351C272.387 137.937 272.387 137.937 272.387 137.523C272.387 137.523 272.387 137.109 271.969 137.109V136.695C271.141 136.695 271.141 135.043 271.141 134.215C270.723 133.391 271.969 133.391 272.387 133.391C272.387 133.805 272.387 134.629 272.387 135.043C272.801 135.457 272.801 135.457 273.215 135.871C273.215 135.457 273.215 135.043 273.215 134.629C273.215 134.215 273.633 133.391 273.633 132.976C273.633 132.562 274.047 132.148 274.047 131.738C274.465 131.738 274.465 131.738 274.879 131.738C275.711 131.738 276.125 131.324 276.957 131.324C276.957 131.738 276.539 132.148 276.539 132.562C277.371 132.562 277.789 132.148 278.203 131.738C278.617 131.324 279.035 130.91 279.449 130.496C279.449 130.91 279.035 130.91 279.035 131.324C279.449 130.91 280.695 130.082 280.695 129.258C280.695 130.082 281.113 130.91 281.113 131.324C280.695 132.148 281.113 132.148 281.113 133.391C281.527 132.148 281.527 130.496 281.527 129.258C281.527 125.535 274.465 123.469 271.141 125.535Z" fill="#30120B"/>
<path d="M274.047 171.418C272.801 171.832 271.141 171.832 269.895 171.832C270.309 172.246 270.309 173.07 270.723 173.484C272.801 173.484 274.879 173.07 276.539 172.246C276.957 172.246 277.789 171.832 278.203 171.418C277.371 171.004 276.539 170.594 276.125 170.594C275.293 171.004 274.879 171.418 274.047 171.418Z" fill="#4EB2CF"/>
<path d="M271.141 141.109L270.723 141.523C271.141 142.766 272.801 143.59 274.047 144.004C275.293 144.832 277.371 145.246 279.035 144.832C280.281 144.832 281.527 143.59 281.527 142.352C281.527 141.523 281.527 140.285 281.113 139.457L280.695 139.871C280.695 139.871 280.695 140.285 281.113 140.285C281.113 140.699 281.113 140.699 281.527 141.109C281.527 141.523 281.527 141.937 281.113 142.352C280.695 143.176 279.449 143.59 278.617 143.59C278.203 143.59 277.789 143.59 277.789 143.59C276.125 143.176 274.879 142.352 273.633 141.523C273.633 141.109 273.633 141.109 273.633 140.699V140.285C273.633 140.285 273.633 140.699 273.215 140.699C271.555 140.699 271.555 140.699 271.141 141.109Z" fill="#64CAFA"/>
<path d="M281.734 167.543C281.32 167.543 281.32 167.543 281.734 167.543L281.32 167.129C279.242 165.477 276.335 164.238 274.257 162.582C274.257 161.758 273.839 160.93 273.425 160.102C273.011 159.277 273.011 158.449 272.593 157.625C272.593 157.211 272.593 157.211 272.179 156.797C271.761 157.621 270.515 158.035 270.101 158.863C269.269 160.102 269.687 160.93 269.687 162.172C270.515 166.305 274.257 167.957 277.582 170.438C279.242 171.676 283.398 174.156 284.644 171.266C285.472 172.09 286.304 172.918 287.55 172.918C288.382 172.918 289.214 172.918 289.628 173.332H290.046C290.046 173.332 290.046 173.332 290.46 173.332C290.46 173.332 290.46 173.332 290.875 173.332C291.292 173.742 291.707 173.742 292.125 173.332H292.539V172.918L292.125 172.504L291.707 172.09C291.707 172.09 291.707 172.09 291.707 171.676C291.707 171.266 291.292 170.852 291.292 170.438L290.875 170.023C290.46 169.609 290.46 169.609 290.046 169.195C289.628 168.785 289.214 168.371 288.796 168.371C287.55 168.371 286.304 168.785 285.058 169.195H284.644C284.644 169.195 284.644 169.195 284.226 169.195C283.812 169.195 283.398 168.785 282.98 168.785C282.98 168.785 282.98 168.785 282.566 168.785C282.152 168.785 282.152 168.371 281.734 168.371C282.566 168.371 282.152 167.957 281.734 167.543ZM288.382 170.852C288.382 170.437 288.796 170.437 288.796 170.023C289.214 170.023 289.628 170.023 290.046 170.438H289.214C288.796 170.852 288.382 170.852 288.382 170.852Z" fill="#F8A773"/>
<path d="M272.387 132.719C271.973 132.305 271.141 132.305 271.141 133.543C271.141 134.371 271.555 135.613 271.973 136.023H272.387C272.387 136.437 272.801 137.266 273.219 137.68C273.633 138.09 274.047 138.094 274.465 138.504V138.09C274.465 137.68 274.465 136.852 274.465 136.023C274.465 135.613 274.879 134.785 274.879 134.371C274.879 133.543 274.465 133.543 274.879 132.719C274.879 132.305 274.879 131.891 274.879 131.477C274.465 131.477 274.465 131.477 274.047 131.477C274.047 131.891 273.633 132.305 273.633 132.719C273.219 133.133 273.219 133.957 273.219 134.371C273.219 134.785 273.219 135.199 273.219 135.613C272.801 135.199 272.387 135.199 272.387 134.785C272.387 133.957 272.387 133.133 272.387 132.719Z" fill="#F8A773"/>
<path d="M271.969 139.332C271.969 139.746 271.969 139.746 271.969 140.16C273.215 140.984 274.879 141.812 276.125 142.227C276.539 142.227 276.539 142.227 276.957 142.227C277.789 142.227 279.035 141.812 279.449 140.984C279.867 140.57 279.867 140.16 279.867 139.746C279.867 139.332 279.867 139.332 279.449 138.918C279.449 138.918 279.449 138.504 279.035 138.504C278.617 138.504 278.203 138.918 277.789 138.918C277.789 138.918 277.789 138.918 277.371 138.918C276.125 138.504 275.293 138.504 274.465 138.094C274.047 137.68 273.633 137.68 273.215 137.266C272.801 136.852 272.387 136.437 272.387 135.613H271.969V136.023C271.969 136.023 271.969 136.438 272.387 136.438C272.387 136.852 272.387 136.852 272.387 137.266C272.387 137.68 272.387 137.68 272.387 138.094V138.504C272.387 138.504 271.969 138.918 271.969 139.332C271.969 138.918 271.969 138.918 271.969 139.332Z" fill="#F79B6A"/>
<path d="M280.645 138.219L281.059 137.805V137.391C281.059 136.977 281.059 136.152 281.059 135.738C281.059 135.324 281.059 135.324 281.059 134.91V134.496C281.059 134.082 281.059 134.082 281.059 133.672V133.258C281.059 132.016 280.645 132.016 281.059 131.191C281.059 130.363 281.059 129.535 280.645 129.125C280.645 129.949 279.398 130.777 278.984 131.191C278.984 130.777 278.984 130.777 279.398 130.363C278.984 130.777 278.566 131.191 278.152 131.605C277.738 132.016 276.906 132.43 276.488 132.43C276.488 132.016 276.906 131.605 276.906 131.191C276.488 131.605 275.66 131.605 274.828 131.605C274.828 132.016 274.828 132.43 274.828 132.844C274.414 133.672 274.828 133.672 274.828 134.496C274.828 134.91 274.828 135.738 274.414 136.152C274.414 136.977 274.414 137.391 274.414 138.219V138.633C275.242 139.043 276.488 139.457 277.32 139.457C277.32 139.457 277.32 139.457 277.738 139.457C278.152 139.457 278.566 139.457 278.984 139.043C280.23 138.629 280.645 138.633 280.645 138.219Z" fill="#FAB685"/>
<path d="M280.695 135.457C281.527 136.285 282.359 137.523 283.191 138.352C284.02 140.004 285.266 141.656 285.684 143.309C286.098 144.551 286.516 145.789 286.516 147.031C288.59 146.617 289.836 144.551 290.254 142.484C289.836 142.07 289.422 141.242 289.008 140.832C288.176 140.004 287.344 138.762 286.516 137.938C286.098 137.523 285.684 136.695 285.266 136.285C285.266 136.285 285.266 136.285 285.266 135.871C285.266 135.457 284.852 135.457 284.852 135.043C284.438 134.629 284.02 134.215 283.605 134.215C281.941 135.043 281.527 135.457 280.695 135.457Z" fill="#388196"/>
<path d="M282.773 173.898C282.773 174.312 283.188 175.141 283.188 175.141C283.188 175.141 283.187 174.727 282.773 173.898C283.187 174.312 283.605 174.727 284.02 174.727V174.312C283.605 174.312 283.187 174.312 282.773 173.898Z" fill="#303A3A"/>
<path d="M282.359 167.699C282.773 168.113 283.191 168.523 283.605 168.938L284.438 168.523C286.512 167.699 288.176 166.457 289.422 164.391C289.422 163.977 289.008 163.566 289.008 163.152C286.93 165.219 284.852 166.871 282.359 167.699Z" fill="#4EB2CF"/>
<path d="M284.02 168.527L283.191 168.938C283.605 169.352 283.605 169.352 284.02 169.352L284.852 168.938L290.668 165.633C289.836 165.219 289.422 165.219 288.59 164.805C288.176 166.047 286.098 167.699 284.02 168.527Z" fill="#12100E"/>
<path d="M293.16 165.633L292.746 164.805L291.086 165.633L285.27 168.938L284.438 169.352C284.438 169.352 284.438 169.352 284.852 169.352C285.27 169.766 285.684 169.766 286.098 169.766H286.516C288.59 168.523 291.086 166.871 293.16 165.633Z" fill="#303A3A"/>
<path d="M285.684 170.18C286.098 170.18 286.098 170.18 285.684 170.18H286.516C287.762 169.766 289.008 169.352 290.254 169.352C290.668 169.766 291.082 170.18 291.5 170.18C292.746 169.352 293.992 168.523 294.824 167.699C295.238 167.699 295.238 167.285 295.652 167.285C295.652 166.871 295.238 166.457 295.238 166.047C295.238 165.633 294.824 165.219 294.406 164.805C293.992 164.805 293.992 165.219 293.578 165.219L293.16 165.633C291.082 167.285 288.59 168.523 286.516 169.766C286.516 169.766 286.098 169.766 285.684 170.18C286.098 169.766 286.098 169.766 285.684 170.18Z" fill="#64706F"/>
<path d="M290.668 173.484C291.082 173.898 291.082 174.312 291.5 174.312L291.914 174.727H291.5C291.082 174.727 290.668 174.727 290.668 174.727C290.254 174.312 290.254 174.312 289.836 174.312C289.422 174.312 289.422 173.898 289.008 173.898C288.59 173.898 288.59 173.484 288.176 173.484C287.344 173.484 286.512 173.898 285.684 173.898C287.762 174.727 290.254 175.965 292.328 176.793L293.578 173.074H293.16C292.746 173.898 292.328 173.484 291.914 173.074C291.914 173.074 291.914 173.074 291.5 173.074L290.668 173.484C291.082 173.484 291.082 173.484 290.668 173.484Z" fill="#2A2926"/>
<path d="M286.516 146.824C286.516 147.238 286.516 147.648 286.516 148.477C286.93 148.477 287.344 148.477 287.762 148.063C288.176 147.648 288.59 147.238 289.008 146.824C289.422 146.41 289.836 145.582 290.668 145.172C291.082 144.758 291.082 144.344 291.082 143.93C290.668 143.516 290.254 143.102 290.254 142.691C289.836 144.344 288.176 146.41 286.516 146.824Z" fill="#64CAFA"/>
<path d="M294.617 163.266C295.031 163.68 295.031 164.094 295.445 164.508C295.445 164.922 295.863 165.332 295.863 165.746C295.863 166.16 295.863 166.16 296.277 166.574L296.691 165.746L297.109 164.094C296.277 162.852 295.445 161.199 294.617 159.961C293.367 158.305 292.539 156.652 292.121 155C291.707 154.172 292.121 152.934 292.121 152.52C292.121 152.105 291.293 152.105 290.875 151.691C290.461 151.277 288.797 149.211 288.797 148.387C288.797 147.559 290.461 146.32 291.293 145.906L290.875 144.664C290.461 145.492 290.047 145.906 289.215 146.32C288.797 146.73 288.383 147.145 287.969 147.559C287.551 147.559 287.137 147.973 286.723 147.973C286.723 148.387 286.723 148.801 286.723 149.211C286.723 149.625 287.137 150.039 287.137 150.039C287.137 150.453 287.551 150.867 287.969 151.277C288.383 152.105 289.629 152.52 290.047 153.348C290.047 153.348 290.047 153.758 290.461 153.758C290.875 155.414 291.293 157.066 292.121 158.305C292.539 159.133 292.953 159.961 293.367 160.785C293.785 161.199 294.199 161.613 294.617 162.027C294.199 162.852 294.199 163.266 294.617 163.266Z" fill="#F79B6A"/>
<path d="M288.383 148.387C288.383 149.211 290.047 151.277 290.461 151.691C290.875 152.105 291.293 152.105 291.707 152.52C292.121 152.934 291.707 154.586 291.707 155C292.539 156.652 293.371 158.305 294.199 159.961C295.031 161.199 295.863 162.852 296.691 164.094L298.77 162.852C298.355 162.027 298.355 161.199 297.938 160.785C297.523 159.547 297.109 158.305 296.691 157.066C295.863 155 295.031 153.348 293.785 151.691C293.371 151.277 293.371 151.277 292.953 150.867C292.953 150.453 292.539 150.453 292.539 150.039C291.707 148.801 291.293 147.145 290.461 145.906C290.047 146.73 288.383 147.559 288.383 148.387Z" fill="#F8A773"/>
<path d="M289.008 171.004H290.254C289.836 170.594 289.422 170.594 289.008 170.594V171.004Z" fill="#64706F"/>
<path d="M290.668 173.484C291.082 173.898 291.5 174.313 291.5 174.313C291.914 174.727 291.914 174.727 291.914 175.141L291.5 174.727C291.082 174.312 291.082 173.898 290.668 173.484Z" fill="#F79B6A"/>
<path d="M296.902 165.219L296.484 166.871L296.07 167.699V168.113L293.992 173.484V173.898L292.746 177.617L291.914 180.098L293.16 180.926L298.562 165.633L317.676 154.883C318.09 154.059 316.43 154.473 316.43 154.473L300.641 163.566L299.809 163.977L298.977 164.391L296.902 165.219Z" fill="#6D7B79"/>
<path d="M294.824 167.699C293.574 168.523 292.328 169.352 291.5 170.18C291.914 170.594 291.914 170.594 292.328 171.004L292.746 171.418C293.16 171.832 293.16 172.246 293.16 172.66L293.574 173.074L293.992 173.484L296.07 168.113V167.699C296.07 167.285 295.652 167.285 295.652 166.871H295.238C295.238 167.699 295.238 167.699 294.824 167.699Z" fill="#2A2926"/>
<path d="M293.992 163.98L292.746 164.805L293.16 165.633L293.578 165.219C293.992 165.219 293.992 164.805 294.406 164.805C294.406 164.391 294.406 163.98 293.992 163.98Z" fill="#303A3A"/>
<path d="M298.148 165.633L292.746 180.512L297.73 177.621L311.859 169.352L317.676 154.473L298.148 165.633Z" fill="#979797"/>
<path d="M294.824 167.699H295.652C295.652 167.285 295.238 167.285 294.824 167.699Z" fill="#2A2926"/>
<path d="M298.148 161.91C298.148 162.738 298.563 163.566 298.977 163.977L299.809 163.566L300.641 163.152L299.395 162.324C298.977 162.324 298.562 161.91 298.148 161.91Z" fill="#303A3A"/>
<path d="M301.887 212.754C305.211 215.234 308.949 217.301 312.688 218.953C313.934 218.543 314.766 218.129 316.012 217.715C316.012 217.301 316.012 216.887 316.012 216.063C316.012 215.648 316.012 215.234 315.598 214.82C315.598 214.406 315.184 214.406 314.766 214.406C313.934 213.996 313.52 213.582 312.688 213.168C311.441 213.168 310.195 213.996 309.781 215.234C308.949 214.82 307.703 214.406 306.871 213.996C306.043 213.582 305.211 213.168 304.379 212.34C303.965 212.34 303.133 212.34 302.719 211.93C302.301 212.34 301.887 212.34 301.887 212.754Z" fill="#2F8AA1"/>
<path d="M301.887 212.754C301.887 213.168 301.887 213.582 301.887 213.582C303.551 214.82 305.625 216.062 307.289 217.301C308.535 218.543 310.195 219.367 311.859 219.781C313.105 220.195 314.352 219.781 315.184 218.953C315.598 218.543 315.598 218.129 315.598 217.715C314.352 218.129 313.52 218.543 312.273 218.953C308.949 217.301 305.211 215.234 301.887 212.754Z" fill="#0F2C33"/>
<path d="M307.289 212.34C306.043 212.34 305.211 212.754 303.965 212.34C304.797 213.168 305.625 213.582 306.457 213.996C307.289 214.406 308.535 214.82 309.367 215.234C309.781 213.996 311.027 213.168 312.273 213.168C311.441 212.754 311.027 211.93 310.613 211.102L310.195 210.273C309.367 210.687 308.121 211.93 307.289 212.34Z" fill="#F79B6A"/>
<path d="M310.613 210.688V211.102C311.027 211.93 311.859 212.34 312.273 213.168C312.687 213.582 313.52 214.41 314.352 214.41C314.766 214.41 315.184 214.82 315.184 214.82C315.598 214.406 316.012 214.41 316.43 213.996C316.43 213.582 316.012 213.168 315.598 212.754C313.938 211.93 312.273 212.34 310.613 210.688Z" fill="#24697A"/>
<path d="M315.184 214.82C315.184 215.234 315.598 215.648 315.598 216.062C316.012 215.648 316.43 214.82 316.43 213.996C316.012 214.41 315.598 214.82 315.184 214.82Z" fill="#0F2C33"/>
<defs>
<linearGradient id="paint0_linear_797_2145" x1="255.83" y1="367.879" x2="354.428" y2="367.879" gradientUnits="userSpaceOnUse">
<stop stop-color="#6D6E71"/>
<stop offset="0.03125" stop-color="#6D6E71"/>
<stop offset="0.046875" stop-color="#6E6F72"/>
<stop offset="0.0625" stop-color="#6F7073"/>
<stop offset="0.078125" stop-color="#6F7073"/>
<stop offset="0.09375" stop-color="#707174"/>
<stop offset="0.109375" stop-color="#707174"/>
<stop offset="0.125" stop-color="#717275"/>
<stop offset="0.140625" stop-color="#717376"/>
<stop offset="0.15625" stop-color="#727376"/>
<stop offset="0.171875" stop-color="#737477"/>
<stop offset="0.1875" stop-color="#737477"/>
<stop offset="0.203125" stop-color="#747578"/>
<stop offset="0.21875" stop-color="#747678"/>
<stop offset="0.234375" stop-color="#757679"/>
<stop offset="0.25" stop-color="#76777A"/>
<stop offset="0.265625" stop-color="#76777A"/>
<stop offset="0.28125" stop-color="#77787B"/>
<stop offset="0.296875" stop-color="#77787B"/>
<stop offset="0.3125" stop-color="#78797C"/>
<stop offset="0.328125" stop-color="#787A7C"/>
<stop offset="0.34375" stop-color="#797A7D"/>
<stop offset="0.359375" stop-color="#7A7B7E"/>
<stop offset="0.375" stop-color="#7A7B7E"/>
<stop offset="0.390625" stop-color="#7B7C7F"/>
<stop offset="0.40625" stop-color="#7B7D7F"/>
<stop offset="0.421875" stop-color="#7C7D80"/>
<stop offset="0.4375" stop-color="#7C7E80"/>
<stop offset="0.453125" stop-color="#7D7E81"/>
<stop offset="0.46875" stop-color="#7E7F82"/>
<stop offset="0.484375" stop-color="#7E8082"/>
<stop offset="0.5" stop-color="#7F8083"/>
<stop offset="0.515625" stop-color="#7F8183"/>
<stop offset="0.53125" stop-color="#808184"/>
<stop offset="0.546875" stop-color="#808284"/>
<stop offset="0.5625" stop-color="#818285"/>
<stop offset="0.578125" stop-color="#828386"/>
<stop offset="0.59375" stop-color="#828486"/>
<stop offset="0.609375" stop-color="#838487"/>
<stop offset="0.625" stop-color="#838587"/>
<stop offset="0.640625" stop-color="#848588"/>
<stop offset="0.65625" stop-color="#848688"/>
<stop offset="0.671875" stop-color="#858789"/>
<stop offset="0.6875" stop-color="#86878A"/>
<stop offset="0.703125" stop-color="#86888A"/>
<stop offset="0.71875" stop-color="#87888B"/>
<stop offset="0.734375" stop-color="#87898B"/>
<stop offset="0.75" stop-color="#888A8C"/>
<stop offset="0.765625" stop-color="#898A8C"/>
<stop offset="0.78125" stop-color="#898B8D"/>
<stop offset="0.796875" stop-color="#8A8B8E"/>
<stop offset="0.8125" stop-color="#8A8C8E"/>
<stop offset="0.828125" stop-color="#8B8C8F"/>
<stop offset="0.84375" stop-color="#8B8D8F"/>
<stop offset="0.859375" stop-color="#8C8E90"/>
<stop offset="0.875" stop-color="#8D8E90"/>
<stop offset="0.890625" stop-color="#8D8F91"/>
<stop offset="0.90625" stop-color="#8E8F92"/>
<stop offset="0.921875" stop-color="#8E9092"/>
<stop offset="0.9375" stop-color="#8F9193"/>
<stop offset="0.953125" stop-color="#8F9193"/>
<stop offset="0.96875" stop-color="#909294"/>
<stop offset="1" stop-color="#919295"/>
</linearGradient>
</defs>
</svg>
