<svg width="123" height="224" viewBox="0 0 123 224" fill="none" xmlns="http://www.w3.org/2000/svg">
<path d="M60.75 223.474C40.75 223.474 25.625 218.829 15.375 209.537C5.125 200.039 0 186.514 0 168.963V156.574H39V171.441C39 185.482 46.125 192.502 60.375 192.502C67.375 192.502 72.625 190.85 76.125 187.547C79.875 184.036 81.75 178.461 81.75 170.822C81.75 161.736 79.25 153.787 74.25 146.973C69.25 139.953 60 131.59 46.5 121.885C29.5 109.497 17.625 98.3466 10.875 88.4355C4.125 78.3179 0.749999 66.9614 0.749999 54.366C0.749999 37.2281 6 24.0133 16.5 14.7216C27 5.22344 42.25 0.474365 62.25 0.474365C82 0.474365 96.875 5.22344 106.875 14.7216C117.125 24.0133 122.25 37.4346 122.25 54.9855V63.9674H83.25V52.8174C83.25 45.3841 81.5 40.0156 78 36.7119C74.5 33.2017 69.375 31.4466 62.625 31.4466C48.875 31.4466 42 38.3637 42 52.198C42 60.0443 44.5 67.3744 49.5 74.1883C54.75 81.0022 64.125 89.2614 77.625 98.966C94.875 111.355 106.75 122.608 113.25 132.726C119.75 142.843 123 154.716 123 168.344C123 186.101 117.625 199.729 106.875 209.227C96.375 218.725 81 223.474 60.75 223.474Z" fill="#005180" fill-opacity="0.02"/>
</svg>
