<svg width="689" height="272" viewBox="0 0 689 272" fill="none" xmlns="http://www.w3.org/2000/svg">
<ellipse cx="49.8033" cy="60.3608" rx="48.8033" ry="49.7418" fill="white" stroke="#004166" stroke-opacity="0.1" stroke-width="2" stroke-linecap="round"/>
<path d="M32.1252 55.305C32.7692 55.305 33.3199 55.3984 33.7772 55.585C34.2345 55.7624 34.6779 56.0424 35.1072 56.425L34.3792 57.237C34.0152 56.9477 33.6559 56.7377 33.3012 56.607C32.9559 56.467 32.5825 56.397 32.1812 56.397C31.6772 56.397 31.2619 56.5137 30.9352 56.747C30.6085 56.9804 30.4452 57.321 30.4452 57.769C30.4452 58.049 30.5012 58.287 30.6132 58.483C30.7252 58.6697 30.9305 58.8424 31.2292 59.001C31.5372 59.1597 31.9805 59.3277 32.5592 59.505C33.1659 59.6917 33.6699 59.8924 34.0712 60.107C34.4725 60.3217 34.7945 60.6204 35.0372 61.003C35.2892 61.3764 35.4152 61.8524 35.4152 62.431C35.4152 62.991 35.2752 63.4857 34.9952 63.915C34.7245 64.3444 34.3279 64.6804 33.8052 64.923C33.2919 65.1657 32.6805 65.287 31.9712 65.287C30.6365 65.287 29.5445 64.8717 28.6952 64.041L29.4232 63.229C29.8152 63.5464 30.2119 63.789 30.6132 63.957C31.0145 64.1157 31.4625 64.195 31.9572 64.195C32.5545 64.195 33.0492 64.0504 33.4412 63.761C33.8332 63.4624 34.0292 63.033 34.0292 62.473C34.0292 62.1557 33.9685 61.8944 33.8472 61.689C33.7259 61.4744 33.5159 61.283 33.2172 61.115C32.9279 60.947 32.5032 60.779 31.9432 60.611C30.9539 60.3124 30.2305 59.953 29.7732 59.533C29.3159 59.113 29.0872 58.5437 29.0872 57.825C29.0872 57.3397 29.2132 56.9057 29.4652 56.523C29.7265 56.1404 30.0859 55.8417 30.5432 55.627C31.0099 55.4124 31.5372 55.305 32.1252 55.305ZM38.5921 57.741V65.119H37.3041V57.741H38.5921ZM37.9341 54.199C38.2048 54.199 38.4241 54.283 38.5921 54.451C38.7601 54.619 38.8441 54.829 38.8441 55.081C38.8441 55.333 38.7601 55.543 38.5921 55.711C38.4241 55.8697 38.2048 55.949 37.9341 55.949C37.6728 55.949 37.4581 55.8697 37.2901 55.711C37.1221 55.543 37.0381 55.333 37.0381 55.081C37.0381 54.829 37.1221 54.619 37.2901 54.451C37.4581 54.283 37.6728 54.199 37.9341 54.199ZM47.2053 58.077C46.9253 58.1704 46.6173 58.231 46.2813 58.259C45.9453 58.287 45.5346 58.301 45.0493 58.301C45.9173 58.693 46.3513 59.3137 46.3513 60.163C46.3513 60.9004 46.0993 61.5024 45.5953 61.969C45.0913 62.4357 44.4053 62.669 43.5373 62.669C43.2013 62.669 42.8886 62.6224 42.5993 62.529C42.4873 62.6037 42.3986 62.7064 42.3333 62.837C42.268 62.9584 42.2353 63.0844 42.2353 63.215C42.2353 63.6164 42.5573 63.817 43.2013 63.817H44.3773C44.872 63.817 45.3106 63.9057 45.6933 64.083C46.076 64.2604 46.37 64.503 46.5753 64.811C46.79 65.119 46.8973 65.469 46.8973 65.861C46.8973 66.5797 46.6033 67.1304 46.0153 67.513C45.4273 67.905 44.5686 68.101 43.4393 68.101C42.646 68.101 42.016 68.017 41.5493 67.849C41.092 67.6904 40.7653 67.4477 40.5693 67.121C40.3733 66.7944 40.2753 66.3744 40.2753 65.861H41.4373C41.4373 66.1597 41.4933 66.393 41.6053 66.561C41.7173 66.7384 41.918 66.869 42.2073 66.953C42.4966 67.0464 42.9073 67.093 43.4393 67.093C44.214 67.093 44.7646 66.995 45.0913 66.799C45.4273 66.6124 45.5953 66.3277 45.5953 65.945C45.5953 65.5997 45.4646 65.3384 45.2033 65.161C44.942 64.9837 44.578 64.895 44.1113 64.895H42.9493C42.324 64.895 41.848 64.7644 41.5213 64.503C41.204 64.2324 41.0453 63.8964 41.0453 63.495C41.0453 63.2524 41.1153 63.019 41.2553 62.795C41.3953 62.571 41.596 62.3704 41.8573 62.193C41.428 61.969 41.1106 61.6937 40.9053 61.367C40.7093 61.031 40.6113 60.625 40.6113 60.149C40.6113 59.6544 40.7326 59.211 40.9753 58.819C41.2273 58.427 41.568 58.1237 41.9973 57.909C42.436 57.685 42.9213 57.573 43.4533 57.573C44.032 57.5824 44.5173 57.5637 44.9093 57.517C45.3013 57.461 45.6233 57.391 45.8753 57.307C46.1366 57.2137 46.454 57.083 46.8273 56.915L47.2053 58.077ZM43.4533 58.497C42.968 58.497 42.59 58.651 42.3193 58.959C42.058 59.2577 41.9273 59.6544 41.9273 60.149C41.9273 60.653 42.0626 61.059 42.3333 61.367C42.604 61.6657 42.9866 61.815 43.4813 61.815C43.9853 61.815 44.368 61.6704 44.6293 61.381C44.9 61.0824 45.0353 60.667 45.0353 60.135C45.0353 59.043 44.508 58.497 43.4533 58.497ZM52.0007 57.573C52.6727 57.573 53.1954 57.7737 53.5687 58.175C53.9514 58.5764 54.1427 59.127 54.1427 59.827V65.119H52.8547V60.009C52.8547 59.4864 52.7567 59.1177 52.5607 58.903C52.3647 58.6884 52.0754 58.581 51.6927 58.581C51.3007 58.581 50.9554 58.693 50.6567 58.917C50.3581 59.141 50.0781 59.463 49.8167 59.883V65.119H48.5287V57.741H49.6347L49.7467 58.833C50.0081 58.441 50.3301 58.133 50.7127 57.909C51.1047 57.685 51.5341 57.573 52.0007 57.573ZM61.7249 57.741V65.119H60.4369V57.741H61.7249ZM61.0669 54.199C61.3376 54.199 61.5569 54.283 61.7249 54.451C61.8929 54.619 61.9769 54.829 61.9769 55.081C61.9769 55.333 61.8929 55.543 61.7249 55.711C61.5569 55.8697 61.3376 55.949 61.0669 55.949C60.8056 55.949 60.5909 55.8697 60.4229 55.711C60.2549 55.543 60.1709 55.333 60.1709 55.081C60.1709 54.829 60.2549 54.619 60.4229 54.451C60.5909 54.283 60.8056 54.199 61.0669 54.199ZM67.8601 57.573C68.5321 57.573 69.0548 57.7737 69.4281 58.175C69.8108 58.5764 70.0021 59.127 70.0021 59.827V65.119H68.7141V60.009C68.7141 59.4864 68.6161 59.1177 68.4201 58.903C68.2241 58.6884 67.9348 58.581 67.5521 58.581C67.1601 58.581 66.8148 58.693 66.5161 58.917C66.2174 59.141 65.9374 59.463 65.6761 59.883V65.119H64.3881V57.741H65.4941L65.6061 58.833C65.8674 58.441 66.1894 58.133 66.5721 57.909C66.9641 57.685 67.3934 57.573 67.8601 57.573Z" fill="#001826" fill-opacity="0.9"/>
<path d="M223.43 22.8199H375.471V97.9019H223.43V22.8199Z" fill="white" stroke="#004166" stroke-opacity="0.1" stroke-width="2" stroke-linecap="round"/>
<path d="M287.579 65.3199V60.7979H283.519V65.3199H282.189V55.6739H283.519V59.7059H287.579V55.6739H288.909V65.3199H287.579ZM294.406 57.7739C295.442 57.7739 296.245 58.1193 296.814 58.8099C297.393 59.5006 297.682 60.4386 297.682 61.6239C297.682 62.3893 297.552 63.0659 297.29 63.6539C297.029 64.2326 296.651 64.6853 296.156 65.0119C295.662 65.3293 295.074 65.4879 294.392 65.4879C293.356 65.4879 292.549 65.1426 291.97 64.4519C291.392 63.7613 291.102 62.8233 291.102 61.6379C291.102 60.8726 291.233 60.2006 291.494 59.6219C291.756 59.0339 292.134 58.5813 292.628 58.2639C293.123 57.9373 293.716 57.7739 294.406 57.7739ZM294.406 58.8099C293.128 58.8099 292.488 59.7526 292.488 61.6379C292.488 63.5139 293.123 64.4519 294.392 64.4519C295.662 64.4519 296.296 63.5093 296.296 61.6239C296.296 59.7479 295.666 58.8099 294.406 58.8099ZM307.216 57.7739C307.823 57.7739 308.308 57.9793 308.672 58.3899C309.036 58.7913 309.218 59.3373 309.218 60.0279V65.3199H307.93V60.2099C307.93 59.2579 307.585 58.7819 306.894 58.7819C306.53 58.7819 306.222 58.8893 305.97 59.1039C305.718 59.3093 305.447 59.6359 305.158 60.0839V65.3199H303.87V60.2099C303.87 59.2579 303.525 58.7819 302.834 58.7819C302.461 58.7819 302.148 58.8893 301.896 59.1039C301.644 59.3186 301.378 59.6453 301.098 60.0839V65.3199H299.81V57.9419H300.916L301.028 59.0199C301.579 58.1893 302.288 57.7739 303.156 57.7739C303.613 57.7739 304.001 57.8906 304.318 58.1239C304.645 58.3573 304.878 58.6839 305.018 59.1039C305.307 58.6746 305.625 58.3479 305.97 58.1239C306.325 57.8906 306.74 57.7739 307.216 57.7739ZM317.386 61.4139C317.386 61.6286 317.377 61.8479 317.358 62.0719H312.654C312.71 62.8839 312.915 63.4813 313.27 63.8639C313.625 64.2466 314.082 64.4379 314.642 64.4379C314.997 64.4379 315.323 64.3866 315.622 64.2839C315.921 64.1813 316.233 64.0179 316.56 63.7939L317.12 64.5639C316.336 65.1799 315.477 65.4879 314.544 65.4879C313.517 65.4879 312.715 65.1519 312.136 64.4799C311.567 63.8079 311.282 62.8839 311.282 61.7079C311.282 60.9426 311.403 60.2659 311.646 59.6779C311.898 59.0806 312.253 58.6139 312.71 58.2779C313.177 57.9419 313.723 57.7739 314.348 57.7739C315.328 57.7739 316.079 58.0959 316.602 58.7399C317.125 59.3839 317.386 60.2753 317.386 61.4139ZM316.112 61.0359C316.112 60.3079 315.967 59.7526 315.678 59.3699C315.389 58.9873 314.955 58.7959 314.376 58.7959C313.321 58.7959 312.747 59.5706 312.654 61.1199H316.112V61.0359Z" fill="#001826" fill-opacity="0.9"/>
<ellipse cx="629.812" cy="60.8302" rx="58.1885" ry="59.5963" fill="white" stroke="#004166" stroke-opacity="0.1" stroke-width="2" stroke-linecap="round"/>
<path d="M604.82 43.3899C604.82 44.3419 604.61 45.0559 604.19 45.5319C603.779 46.0079 603.149 46.3812 602.3 46.6519L601.95 45.6859C602.379 45.5179 602.701 45.3359 602.916 45.1399C603.131 44.9439 603.28 44.7059 603.364 44.4259C603.448 44.1459 603.49 43.7819 603.49 43.3339V35.0879H604.82V43.3899ZM610.248 37.1879C611.284 37.1879 612.086 37.5332 612.656 38.2239C613.234 38.9146 613.524 39.8526 613.524 41.0379C613.524 41.8032 613.393 42.4799 613.132 43.0679C612.87 43.6466 612.492 44.0992 611.998 44.4259C611.503 44.7432 610.915 44.9019 610.234 44.9019C609.198 44.9019 608.39 44.5566 607.812 43.8659C607.233 43.1752 606.944 42.2372 606.944 41.0519C606.944 40.2866 607.074 39.6146 607.336 39.0359C607.597 38.4479 607.975 37.9952 608.47 37.6779C608.964 37.3512 609.557 37.1879 610.248 37.1879ZM610.248 38.2239C608.969 38.2239 608.33 39.1666 608.33 41.0519C608.33 42.9279 608.964 43.8659 610.234 43.8659C611.503 43.8659 612.138 42.9232 612.138 41.0379C612.138 39.1619 611.508 38.2239 610.248 38.2239ZM616.939 37.3559V44.7339H615.651V37.3559H616.939ZM616.281 33.8139C616.552 33.8139 616.771 33.8979 616.939 34.0659C617.107 34.2339 617.191 34.4439 617.191 34.6959C617.191 34.9479 617.107 35.1579 616.939 35.3259C616.771 35.4846 616.552 35.5639 616.281 35.5639C616.02 35.5639 615.805 35.4846 615.637 35.3259C615.469 35.1579 615.385 34.9479 615.385 34.6959C615.385 34.4439 615.469 34.2339 615.637 34.0659C615.805 33.8979 616.02 33.8139 616.281 33.8139ZM623.074 37.1879C623.746 37.1879 624.269 37.3886 624.642 37.7899C625.025 38.1912 625.216 38.7419 625.216 39.4419V44.7339H623.928V39.6239C623.928 39.1012 623.83 38.7326 623.634 38.5179C623.438 38.3032 623.149 38.1959 622.766 38.1959C622.374 38.1959 622.029 38.3079 621.73 38.5319C621.432 38.7559 621.152 39.0779 620.89 39.4979V44.7339H619.602V37.3559H620.708L620.82 38.4479C621.082 38.0559 621.404 37.7479 621.786 37.5239C622.178 37.2999 622.608 37.1879 623.074 37.1879ZM634.199 37.1879C634.637 37.1879 635.039 37.2532 635.403 37.3839C635.767 37.5052 636.117 37.7059 636.453 37.9859L635.837 38.7979C635.575 38.6112 635.319 38.4759 635.067 38.3919C634.824 38.2986 634.553 38.2519 634.255 38.2519C633.657 38.2519 633.191 38.4899 632.855 38.9659C632.528 39.4419 632.365 40.1466 632.365 41.0799C632.365 42.0132 632.528 42.7039 632.855 43.1519C633.181 43.5906 633.648 43.8099 634.255 43.8099C634.544 43.8099 634.81 43.7679 635.053 43.6839C635.295 43.5906 635.566 43.4459 635.865 43.2499L636.453 44.0899C635.781 44.6312 635.029 44.9019 634.199 44.9019C633.2 44.9019 632.411 44.5659 631.833 43.8939C631.263 43.2219 630.979 42.2932 630.979 41.1079C630.979 40.3239 631.109 39.6379 631.371 39.0499C631.632 38.4619 632.001 38.0046 632.477 37.6779C632.962 37.3512 633.536 37.1879 634.199 37.1879ZM641.668 37.1879C642.34 37.1879 642.863 37.3886 643.236 37.7899C643.619 38.1912 643.81 38.7419 643.81 39.4419V44.7339H642.522V39.6239C642.522 39.1012 642.42 38.7326 642.214 38.5179C642.018 38.3032 641.729 38.1959 641.346 38.1959C640.964 38.1959 640.623 38.3079 640.324 38.5319C640.026 38.7559 639.746 39.0732 639.484 39.4839V44.7339H638.196V34.4019L639.484 34.2619V38.3779C640.063 37.5846 640.791 37.1879 641.668 37.1879ZM651.369 43.0119C651.369 43.3106 651.421 43.5346 651.523 43.6839C651.626 43.8239 651.78 43.9312 651.985 44.0059L651.691 44.9019C651.309 44.8552 651.001 44.7479 650.767 44.5799C650.534 44.4119 650.361 44.1506 650.249 43.7959C649.755 44.5332 649.022 44.9019 648.051 44.9019C647.323 44.9019 646.749 44.6966 646.329 44.2859C645.909 43.8752 645.699 43.3386 645.699 42.6759C645.699 41.8919 645.979 41.2899 646.539 40.8699C647.109 40.4499 647.911 40.2399 648.947 40.2399H650.081V39.6939C650.081 39.1712 649.955 38.7979 649.703 38.5739C649.451 38.3499 649.064 38.2379 648.541 38.2379C648 38.2379 647.337 38.3686 646.553 38.6299L646.231 37.6919C647.146 37.3559 647.995 37.1879 648.779 37.1879C649.647 37.1879 650.296 37.4026 650.725 37.8319C651.155 38.2519 651.369 38.8539 651.369 39.6379V43.0119ZM648.345 43.9359C649.083 43.9359 649.661 43.5532 650.081 42.7879V41.0939H649.115C647.753 41.0939 647.071 41.5979 647.071 42.6059C647.071 43.0446 647.179 43.3759 647.393 43.5999C647.608 43.8239 647.925 43.9359 648.345 43.9359ZM657.739 44.3979C657.253 44.7339 656.703 44.9019 656.087 44.9019C655.461 44.9019 654.971 44.7246 654.617 44.3699C654.271 44.0059 654.099 43.4832 654.099 42.8019V38.3499H652.811V37.3559H654.099V35.6899L655.387 35.5359V37.3559H657.137L656.997 38.3499H655.387V42.7459C655.387 43.1286 655.452 43.4086 655.583 43.5859C655.723 43.7539 655.951 43.8379 656.269 43.8379C656.558 43.8379 656.885 43.7399 657.249 43.5439L657.739 44.3979ZM609.314 58.1879C609.576 58.1879 609.818 58.2159 610.042 58.2719L609.804 59.5319C609.58 59.4759 609.366 59.4479 609.16 59.4479C608.703 59.4479 608.334 59.6159 608.054 59.9519C607.774 60.2879 607.555 60.8106 607.396 61.5199V65.7339H606.108V58.3559H607.214L607.34 59.8539C607.536 59.3032 607.802 58.8879 608.138 58.6079C608.474 58.3279 608.866 58.1879 609.314 58.1879ZM613.857 58.1879C614.893 58.1879 615.696 58.5332 616.265 59.2239C616.844 59.9146 617.133 60.8526 617.133 62.0379C617.133 62.8032 617.002 63.4799 616.741 64.0679C616.48 64.6466 616.102 65.0992 615.607 65.4259C615.112 65.7432 614.524 65.9019 613.843 65.9019C612.807 65.9019 612 65.5566 611.421 64.8659C610.842 64.1752 610.553 63.2372 610.553 62.0519C610.553 61.2866 610.684 60.6146 610.945 60.0359C611.206 59.4479 611.584 58.9952 612.079 58.6779C612.574 58.3512 613.166 58.1879 613.857 58.1879ZM613.857 59.2239C612.578 59.2239 611.939 60.1666 611.939 62.0519C611.939 63.9279 612.574 64.8659 613.843 64.8659C615.112 64.8659 615.747 63.9232 615.747 62.0379C615.747 60.1619 615.117 59.2239 613.857 59.2239ZM622.033 58.1879C623.069 58.1879 623.871 58.5332 624.441 59.2239C625.019 59.9146 625.309 60.8526 625.309 62.0379C625.309 62.8032 625.178 63.4799 624.917 64.0679C624.655 64.6466 624.277 65.0992 623.783 65.4259C623.288 65.7432 622.7 65.9019 622.019 65.9019C620.983 65.9019 620.175 65.5566 619.597 64.8659C619.018 64.1752 618.729 63.2372 618.729 62.0519C618.729 61.2866 618.859 60.6146 619.121 60.0359C619.382 59.4479 619.76 58.9952 620.255 58.6779C620.749 58.3512 621.342 58.1879 622.033 58.1879ZM622.033 59.2239C620.754 59.2239 620.115 60.1666 620.115 62.0519C620.115 63.9279 620.749 64.8659 622.019 64.8659C623.288 64.8659 623.923 63.9232 623.923 62.0379C623.923 60.1619 623.293 59.2239 622.033 59.2239ZM634.842 58.1879C635.449 58.1879 635.934 58.3932 636.298 58.8039C636.662 59.2052 636.844 59.7512 636.844 60.4419V65.7339H635.556V60.6239C635.556 59.6719 635.211 59.1959 634.52 59.1959C634.156 59.1959 633.848 59.3032 633.596 59.5179C633.344 59.7232 633.074 60.0499 632.784 60.4979V65.7339H631.496V60.6239C631.496 59.6719 631.151 59.1959 630.46 59.1959C630.087 59.1959 629.774 59.3032 629.522 59.5179C629.27 59.7326 629.004 60.0592 628.724 60.4979V65.7339H627.436V58.3559H628.542L628.654 59.4339C629.205 58.6032 629.914 58.1879 630.782 58.1879C631.24 58.1879 631.627 58.3046 631.944 58.5379C632.271 58.7712 632.504 59.0979 632.644 59.5179C632.934 59.0886 633.251 58.7619 633.596 58.5379C633.951 58.3046 634.366 58.1879 634.842 58.1879ZM646.869 65.3979C646.384 65.7339 645.833 65.9019 645.217 65.9019C644.592 65.9019 644.102 65.7246 643.747 65.3699C643.402 65.0059 643.229 64.4832 643.229 63.8019V59.3499H641.941V58.3559H643.229V56.6899L644.517 56.5359V58.3559H646.267L646.127 59.3499H644.517V63.7459C644.517 64.1286 644.583 64.4086 644.713 64.5859C644.853 64.7539 645.082 64.8379 645.399 64.8379C645.689 64.8379 646.015 64.7399 646.379 64.5439L646.869 65.3979ZM650.771 58.1879C651.807 58.1879 652.61 58.5332 653.179 59.2239C653.758 59.9146 654.047 60.8526 654.047 62.0379C654.047 62.8032 653.916 63.4799 653.655 64.0679C653.394 64.6466 653.016 65.0992 652.521 65.4259C652.026 65.7432 651.438 65.9019 650.757 65.9019C649.721 65.9019 648.914 65.5566 648.335 64.8659C647.756 64.1752 647.467 63.2372 647.467 62.0519C647.467 61.2866 647.598 60.6146 647.859 60.0359C648.12 59.4479 648.498 58.9952 648.993 58.6779C649.488 58.3512 650.08 58.1879 650.771 58.1879ZM650.771 59.2239C649.492 59.2239 648.853 60.1666 648.853 62.0519C648.853 63.9279 649.488 64.8659 650.757 64.8659C652.026 64.8659 652.661 63.9232 652.661 62.0379C652.661 60.1619 652.031 59.2239 650.771 59.2239ZM610.176 79.1879C610.437 79.1879 610.68 79.2159 610.904 79.2719L610.666 80.5319C610.442 80.4759 610.227 80.4479 610.022 80.4479C609.564 80.4479 609.196 80.6159 608.916 80.9519C608.636 81.2879 608.416 81.8106 608.258 82.5199V86.7339H606.97V79.3559H608.076L608.202 80.8539C608.398 80.3032 608.664 79.8879 609 79.6079C609.336 79.3279 609.728 79.1879 610.176 79.1879ZM617.518 82.8279C617.518 83.0426 617.509 83.2619 617.49 83.4859H612.786C612.842 84.2979 613.048 84.8952 613.402 85.2779C613.757 85.6606 614.214 85.8519 614.774 85.8519C615.129 85.8519 615.456 85.8006 615.754 85.6979C616.053 85.5952 616.366 85.4319 616.692 85.2079L617.252 85.9779C616.468 86.5939 615.61 86.9019 614.676 86.9019C613.65 86.9019 612.847 86.5659 612.268 85.8939C611.699 85.2219 611.414 84.2979 611.414 83.1219C611.414 82.3566 611.536 81.6799 611.778 81.0919C612.03 80.4946 612.385 80.0279 612.842 79.6919C613.309 79.3559 613.855 79.1879 614.48 79.1879C615.46 79.1879 616.212 79.5099 616.734 80.1539C617.257 80.7979 617.518 81.6892 617.518 82.8279ZM616.244 82.4499C616.244 81.7219 616.1 81.1666 615.81 80.7839C615.521 80.4012 615.087 80.2099 614.508 80.2099C613.454 80.2099 612.88 80.9846 612.786 82.5339H616.244V82.4499ZM625.287 79.3559V89.7159L623.999 89.5619V85.7539C623.756 86.1179 623.453 86.4026 623.089 86.6079C622.734 86.8039 622.338 86.9019 621.899 86.9019C621.022 86.9019 620.336 86.5566 619.841 85.8659C619.356 85.1752 619.113 84.2466 619.113 83.0799C619.113 82.3239 619.23 81.6519 619.463 81.0639C619.696 80.4759 620.032 80.0186 620.471 79.6919C620.91 79.3559 621.423 79.1879 622.011 79.1879C622.795 79.1879 623.486 79.5192 624.083 80.1819L624.181 79.3559H625.287ZM622.179 85.8799C622.571 85.8799 622.907 85.7912 623.187 85.6139C623.467 85.4272 623.738 85.1519 623.999 84.7879V81.1759C623.756 80.8586 623.495 80.6206 623.215 80.4619C622.944 80.2939 622.636 80.2099 622.291 80.2099C621.722 80.2099 621.278 80.4479 620.961 80.9239C620.653 81.3999 620.499 82.1092 620.499 83.0519C620.499 84.0039 620.644 84.7132 620.933 85.1799C621.222 85.6466 621.638 85.8799 622.179 85.8799ZM633.43 86.7339H632.324L632.226 85.5859C631.946 86.0432 631.624 86.3792 631.26 86.5939C630.896 86.7992 630.453 86.9019 629.93 86.9019C629.286 86.9019 628.782 86.7059 628.418 86.3139C628.054 85.9219 627.872 85.3666 627.872 84.6479V79.3559H629.16V84.5079C629.16 85.0119 629.249 85.3712 629.426 85.5859C629.604 85.7912 629.893 85.8939 630.294 85.8939C631.013 85.8939 631.629 85.4692 632.142 84.6199V79.3559H633.43V86.7339ZM641.663 82.8279C641.663 83.0426 641.653 83.2619 641.635 83.4859H636.931C636.987 84.2979 637.192 84.8952 637.547 85.2779C637.901 85.6606 638.359 85.8519 638.919 85.8519C639.273 85.8519 639.6 85.8006 639.899 85.6979C640.197 85.5952 640.51 85.4319 640.837 85.2079L641.397 85.9779C640.613 86.5939 639.754 86.9019 638.821 86.9019C637.794 86.9019 636.991 86.5659 636.413 85.8939C635.843 85.2219 635.559 84.2979 635.559 83.1219C635.559 82.3566 635.68 81.6799 635.923 81.0919C636.175 80.4946 636.529 80.0279 636.987 79.6919C637.453 79.3559 637.999 79.1879 638.625 79.1879C639.605 79.1879 640.356 79.5099 640.879 80.1539C641.401 80.7979 641.663 81.6892 641.663 82.8279ZM640.389 82.4499C640.389 81.7219 640.244 81.1666 639.955 80.7839C639.665 80.4012 639.231 80.2099 638.653 80.2099C637.598 80.2099 637.024 80.9846 636.931 82.5339H640.389V82.4499ZM645.722 79.1879C646.226 79.1879 646.678 79.2579 647.08 79.3979C647.481 79.5379 647.864 79.7479 648.228 80.0279L647.682 80.8399C647.346 80.6252 647.024 80.4666 646.716 80.3639C646.417 80.2612 646.1 80.2099 645.764 80.2099C645.344 80.2099 645.012 80.2986 644.77 80.4759C644.527 80.6439 644.406 80.8772 644.406 81.1759C644.406 81.4746 644.518 81.7079 644.742 81.8759C644.975 82.0439 645.39 82.2072 645.988 82.3659C646.809 82.5712 647.42 82.8512 647.822 83.2059C648.232 83.5606 648.438 84.0459 648.438 84.6619C648.438 85.3899 648.153 85.9452 647.584 86.3279C647.024 86.7106 646.338 86.9019 645.526 86.9019C644.406 86.9019 643.477 86.5799 642.74 85.9359L643.426 85.1519C644.051 85.6279 644.742 85.8659 645.498 85.8659C645.983 85.8659 646.366 85.7679 646.646 85.5719C646.935 85.3666 647.08 85.0912 647.08 84.7459C647.08 84.4939 647.028 84.2932 646.926 84.1439C646.823 83.9852 646.646 83.8499 646.394 83.7379C646.142 83.6166 645.773 83.4906 645.288 83.3599C644.504 83.1546 643.934 82.8792 643.58 82.5339C643.234 82.1886 643.062 81.7499 643.062 81.2179C643.062 80.8352 643.174 80.4899 643.398 80.1819C643.631 79.8646 643.948 79.6219 644.35 79.4539C644.76 79.2766 645.218 79.1879 645.722 79.1879ZM653.979 86.3979C653.493 86.7339 652.943 86.9019 652.327 86.9019C651.701 86.9019 651.211 86.7246 650.857 86.3699C650.511 86.0059 650.339 85.4832 650.339 84.8019V80.3499H649.051V79.3559H650.339V77.6899L651.627 77.5359V79.3559H653.377L653.237 80.3499H651.627V84.7459C651.627 85.1286 651.692 85.4086 651.823 85.5859C651.963 85.7539 652.191 85.8379 652.509 85.8379C652.798 85.8379 653.125 85.7399 653.489 85.5439L653.979 86.3979Z" fill="#001826" fill-opacity="0.9"/>
<path d="M379.971 59.361C379.419 59.361 378.971 59.8087 378.971 60.361C378.971 60.9132 379.419 61.361 379.971 61.361V59.361ZM567.83 61.0681C568.221 60.6775 568.221 60.0444 567.83 59.6539L561.466 53.2899C561.076 52.8994 560.443 52.8994 560.052 53.2899C559.661 53.6804 559.661 54.3136 560.052 54.7041L565.709 60.361L560.052 66.0178C559.661 66.4083 559.661 67.0415 560.052 67.432C560.443 67.8226 561.076 67.8226 561.466 67.432L567.83 61.0681ZM379.971 61.361H567.123V59.361H379.971V61.361Z" fill="#004166" fill-opacity="0.1"/>
<path d="M103.106 59.361C102.554 59.361 102.106 59.8087 102.106 60.361C102.106 60.9132 102.554 61.361 103.106 61.361V59.361ZM219.637 61.0681C220.028 60.6775 220.028 60.0444 219.637 59.6539L213.273 53.2899C212.883 52.8994 212.25 52.8994 211.859 53.2899C211.468 53.6804 211.468 54.3136 211.859 54.7041L217.516 60.361L211.859 66.0178C211.468 66.4083 211.468 67.0415 211.859 67.432C212.25 67.8226 212.883 67.8226 213.273 67.432L219.637 61.0681ZM103.106 61.361H218.93V59.361H103.106V61.361Z" fill="#004166" fill-opacity="0.1"/>
<ellipse cx="629.812" cy="210.994" rx="58.1885" ry="59.5963" fill="white" stroke="#004166" stroke-opacity="0.1" stroke-width="2" stroke-linecap="round"/>
<path d="M597.945 205.398L597.217 202.976H593.563L592.835 205.398H591.491L594.585 195.752H596.265L599.345 205.398H597.945ZM593.885 201.898H596.895L595.397 196.858L593.885 201.898ZM604.151 197.852C605.093 197.852 605.784 198.188 606.223 198.86C606.661 199.532 606.881 200.479 606.881 201.702C606.881 202.859 606.629 203.792 606.125 204.502C605.621 205.211 604.907 205.566 603.983 205.566C603.161 205.566 602.517 205.286 602.051 204.726V208.226L600.763 208.38V198.02H601.869L601.967 199.014C602.237 198.64 602.564 198.356 602.947 198.16C603.329 197.954 603.731 197.852 604.151 197.852ZM603.675 204.516C604.888 204.516 605.495 203.578 605.495 201.702C605.495 199.816 604.939 198.874 603.829 198.874C603.465 198.874 603.133 198.981 602.835 199.196C602.536 199.41 602.275 199.686 602.051 200.022V203.62C602.237 203.909 602.471 204.133 602.751 204.292C603.031 204.441 603.339 204.516 603.675 204.516ZM612.463 197.852C613.406 197.852 614.096 198.188 614.535 198.86C614.974 199.532 615.193 200.479 615.193 201.702C615.193 202.859 614.941 203.792 614.437 204.502C613.933 205.211 613.219 205.566 612.295 205.566C611.474 205.566 610.83 205.286 610.363 204.726V208.226L609.075 208.38V198.02H610.181L610.279 199.014C610.55 198.64 610.876 198.356 611.259 198.16C611.642 197.954 612.043 197.852 612.463 197.852ZM611.987 204.516C613.2 204.516 613.807 203.578 613.807 201.702C613.807 199.816 613.252 198.874 612.141 198.874C611.777 198.874 611.446 198.981 611.147 199.196C610.848 199.41 610.587 199.686 610.363 200.022V203.62C610.55 203.909 610.783 204.133 611.063 204.292C611.343 204.441 611.651 204.516 611.987 204.516ZM620.594 197.852C620.855 197.852 621.098 197.88 621.322 197.936L621.084 199.196C620.86 199.14 620.645 199.112 620.44 199.112C619.982 199.112 619.614 199.28 619.334 199.616C619.054 199.952 618.834 200.474 618.676 201.184V205.398H617.388V198.02H618.494L618.62 199.518C618.816 198.967 619.082 198.552 619.418 198.272C619.754 197.992 620.146 197.852 620.594 197.852ZM625.136 197.852C626.172 197.852 626.975 198.197 627.544 198.888C628.123 199.578 628.412 200.516 628.412 201.702C628.412 202.467 628.282 203.144 628.02 203.732C627.759 204.31 627.381 204.763 626.886 205.09C626.392 205.407 625.804 205.566 625.122 205.566C624.086 205.566 623.279 205.22 622.7 204.53C622.122 203.839 621.832 202.901 621.832 201.716C621.832 200.95 621.963 200.278 622.224 199.7C622.486 199.112 622.864 198.659 623.358 198.342C623.853 198.015 624.446 197.852 625.136 197.852ZM625.136 198.888C623.858 198.888 623.218 199.83 623.218 201.716C623.218 203.592 623.853 204.53 625.122 204.53C626.392 204.53 627.026 203.587 627.026 201.702C627.026 199.826 626.396 198.888 625.136 198.888ZM635.903 198.02L633.397 205.398H631.843L629.295 198.02H630.695L632.627 204.25L634.545 198.02H635.903ZM642.893 201.492C642.893 201.706 642.884 201.926 642.865 202.15H638.161C638.217 202.962 638.423 203.559 638.777 203.942C639.132 204.324 639.589 204.516 640.149 204.516C640.504 204.516 640.831 204.464 641.129 204.362C641.428 204.259 641.741 204.096 642.067 203.872L642.627 204.642C641.843 205.258 640.985 205.566 640.051 205.566C639.025 205.566 638.222 205.23 637.643 204.558C637.074 203.886 636.789 202.962 636.789 201.786C636.789 201.02 636.911 200.344 637.153 199.756C637.405 199.158 637.76 198.692 638.217 198.356C638.684 198.02 639.23 197.852 639.855 197.852C640.835 197.852 641.587 198.174 642.109 198.818C642.632 199.462 642.893 200.353 642.893 201.492ZM641.619 201.114C641.619 200.386 641.475 199.83 641.185 199.448C640.896 199.065 640.462 198.874 639.883 198.874C638.829 198.874 638.255 199.648 638.161 201.198H641.619V201.114ZM652.379 205.062C651.894 205.398 651.343 205.566 650.727 205.566C650.102 205.566 649.612 205.388 649.257 205.034C648.912 204.67 648.739 204.147 648.739 203.466V199.014H647.451V198.02H648.739V196.354L650.027 196.2V198.02H651.777L651.637 199.014H650.027V203.41C650.027 203.792 650.093 204.072 650.223 204.25C650.363 204.418 650.592 204.502 650.909 204.502C651.199 204.502 651.525 204.404 651.889 204.208L652.379 205.062ZM657.186 197.852C657.858 197.852 658.38 198.052 658.754 198.454C659.136 198.855 659.328 199.406 659.328 200.106V205.398H658.04V200.288C658.04 199.765 657.937 199.396 657.732 199.182C657.536 198.967 657.246 198.86 656.864 198.86C656.481 198.86 656.14 198.972 655.842 199.196C655.543 199.42 655.263 199.737 655.002 200.148V205.398H653.714V195.066L655.002 194.926V199.042C655.58 198.248 656.308 197.852 657.186 197.852ZM667.489 201.492C667.489 201.706 667.48 201.926 667.461 202.15H662.757C662.813 202.962 663.018 203.559 663.373 203.942C663.728 204.324 664.185 204.516 664.745 204.516C665.1 204.516 665.426 204.464 665.725 204.362C666.024 204.259 666.336 204.096 666.663 203.872L667.223 204.642C666.439 205.258 665.58 205.566 664.647 205.566C663.62 205.566 662.818 205.23 662.239 204.558C661.67 203.886 661.385 202.962 661.385 201.786C661.385 201.02 661.506 200.344 661.749 199.756C662.001 199.158 662.356 198.692 662.813 198.356C663.28 198.02 663.826 197.852 664.451 197.852C665.431 197.852 666.182 198.174 666.705 198.818C667.228 199.462 667.489 200.353 667.489 201.492ZM666.215 201.114C666.215 200.386 666.07 199.83 665.781 199.448C665.492 199.065 665.058 198.874 664.479 198.874C663.424 198.874 662.85 199.648 662.757 201.198H666.215V201.114ZM610.176 218.852C610.437 218.852 610.68 218.88 610.904 218.936L610.666 220.196C610.442 220.14 610.227 220.112 610.022 220.112C609.564 220.112 609.196 220.28 608.916 220.616C608.636 220.952 608.416 221.474 608.258 222.184V226.398H606.97V219.02H608.076L608.202 220.518C608.398 219.967 608.664 219.552 609 219.272C609.336 218.992 609.728 218.852 610.176 218.852ZM617.518 222.492C617.518 222.706 617.509 222.926 617.49 223.15H612.786C612.842 223.962 613.048 224.559 613.402 224.942C613.757 225.324 614.214 225.516 614.774 225.516C615.129 225.516 615.456 225.464 615.754 225.362C616.053 225.259 616.366 225.096 616.692 224.872L617.252 225.642C616.468 226.258 615.61 226.566 614.676 226.566C613.65 226.566 612.847 226.23 612.268 225.558C611.699 224.886 611.414 223.962 611.414 222.786C611.414 222.02 611.536 221.344 611.778 220.756C612.03 220.158 612.385 219.692 612.842 219.356C613.309 219.02 613.855 218.852 614.48 218.852C615.46 218.852 616.212 219.174 616.734 219.818C617.257 220.462 617.518 221.353 617.518 222.492ZM616.244 222.114C616.244 221.386 616.1 220.83 615.81 220.448C615.521 220.065 615.087 219.874 614.508 219.874C613.454 219.874 612.88 220.648 612.786 222.198H616.244V222.114ZM625.287 219.02V229.38L623.999 229.226V225.418C623.756 225.782 623.453 226.066 623.089 226.272C622.734 226.468 622.338 226.566 621.899 226.566C621.022 226.566 620.336 226.22 619.841 225.53C619.356 224.839 619.113 223.91 619.113 222.744C619.113 221.988 619.23 221.316 619.463 220.728C619.696 220.14 620.032 219.682 620.471 219.356C620.91 219.02 621.423 218.852 622.011 218.852C622.795 218.852 623.486 219.183 624.083 219.846L624.181 219.02H625.287ZM622.179 225.544C622.571 225.544 622.907 225.455 623.187 225.278C623.467 225.091 623.738 224.816 623.999 224.452V220.84C623.756 220.522 623.495 220.284 623.215 220.126C622.944 219.958 622.636 219.874 622.291 219.874C621.722 219.874 621.278 220.112 620.961 220.588C620.653 221.064 620.499 221.773 620.499 222.716C620.499 223.668 620.644 224.377 620.933 224.844C621.222 225.31 621.638 225.544 622.179 225.544ZM633.43 226.398H632.324L632.226 225.25C631.946 225.707 631.624 226.043 631.26 226.258C630.896 226.463 630.453 226.566 629.93 226.566C629.286 226.566 628.782 226.37 628.418 225.978C628.054 225.586 627.872 225.03 627.872 224.312V219.02H629.16V224.172C629.16 224.676 629.249 225.035 629.426 225.25C629.604 225.455 629.893 225.558 630.294 225.558C631.013 225.558 631.629 225.133 632.142 224.284V219.02H633.43V226.398ZM641.663 222.492C641.663 222.706 641.653 222.926 641.635 223.15H636.931C636.987 223.962 637.192 224.559 637.547 224.942C637.901 225.324 638.359 225.516 638.919 225.516C639.273 225.516 639.6 225.464 639.899 225.362C640.197 225.259 640.51 225.096 640.837 224.872L641.397 225.642C640.613 226.258 639.754 226.566 638.821 226.566C637.794 226.566 636.991 226.23 636.413 225.558C635.843 224.886 635.559 223.962 635.559 222.786C635.559 222.02 635.68 221.344 635.923 220.756C636.175 220.158 636.529 219.692 636.987 219.356C637.453 219.02 637.999 218.852 638.625 218.852C639.605 218.852 640.356 219.174 640.879 219.818C641.401 220.462 641.663 221.353 641.663 222.492ZM640.389 222.114C640.389 221.386 640.244 220.83 639.955 220.448C639.665 220.065 639.231 219.874 638.653 219.874C637.598 219.874 637.024 220.648 636.931 222.198H640.389V222.114ZM645.722 218.852C646.226 218.852 646.678 218.922 647.08 219.062C647.481 219.202 647.864 219.412 648.228 219.692L647.682 220.504C647.346 220.289 647.024 220.13 646.716 220.028C646.417 219.925 646.1 219.874 645.764 219.874C645.344 219.874 645.012 219.962 644.77 220.14C644.527 220.308 644.406 220.541 644.406 220.84C644.406 221.138 644.518 221.372 644.742 221.54C644.975 221.708 645.39 221.871 645.988 222.03C646.809 222.235 647.42 222.515 647.822 222.87C648.232 223.224 648.438 223.71 648.438 224.326C648.438 225.054 648.153 225.609 647.584 225.992C647.024 226.374 646.338 226.566 645.526 226.566C644.406 226.566 643.477 226.244 642.74 225.6L643.426 224.816C644.051 225.292 644.742 225.53 645.498 225.53C645.983 225.53 646.366 225.432 646.646 225.236C646.935 225.03 647.08 224.755 647.08 224.41C647.08 224.158 647.028 223.957 646.926 223.808C646.823 223.649 646.646 223.514 646.394 223.402C646.142 223.28 645.773 223.154 645.288 223.024C644.504 222.818 643.934 222.543 643.58 222.198C643.234 221.852 643.062 221.414 643.062 220.882C643.062 220.499 643.174 220.154 643.398 219.846C643.631 219.528 643.948 219.286 644.35 219.118C644.76 218.94 645.218 218.852 645.722 218.852ZM653.979 226.062C653.493 226.398 652.943 226.566 652.327 226.566C651.701 226.566 651.211 226.388 650.857 226.034C650.511 225.67 650.339 225.147 650.339 224.466V220.014H649.051V219.02H650.339V217.354L651.627 217.2V219.02H653.377L653.237 220.014H651.627V224.41C651.627 224.792 651.692 225.072 651.823 225.25C651.963 225.418 652.191 225.502 652.509 225.502C652.798 225.502 653.125 225.404 653.489 225.208L653.979 226.062Z" fill="#001826" fill-opacity="0.9"/>
<path d="M379.971 59.3608C379.419 59.3608 378.971 59.8086 378.971 60.3608C378.971 60.9131 379.419 61.3608 379.971 61.3608V59.3608ZM567.83 211.701C568.221 211.311 568.221 210.677 567.83 210.287L561.466 203.923C561.076 203.532 560.443 203.532 560.052 203.923C559.661 204.313 559.661 204.947 560.052 205.337L565.709 210.994L560.052 216.651C559.661 217.041 559.661 217.674 560.052 218.065C560.443 218.456 561.076 218.456 561.466 218.065L567.83 211.701ZM379.971 61.3608H385.141V59.3608H379.971V61.3608ZM387.141 63.3608V102.13H389.141V63.3608H387.141ZM391.141 106.13H470.546V104.13H391.141V106.13ZM472.546 108.13V207.994H474.546V108.13H472.546ZM476.546 211.994H567.123V209.994H476.546V211.994ZM472.546 207.994C472.546 210.203 474.337 211.994 476.546 211.994V209.994C475.442 209.994 474.546 209.098 474.546 207.994H472.546ZM470.546 106.13C471.651 106.13 472.546 107.025 472.546 108.13H474.546C474.546 105.92 472.755 104.13 470.546 104.13V106.13ZM387.141 102.13C387.141 104.339 388.932 106.13 391.141 106.13V104.13C390.036 104.13 389.141 103.234 389.141 102.13H387.141ZM385.141 61.3608C386.246 61.3608 387.141 62.2563 387.141 63.3608H389.141C389.141 61.1517 387.35 59.3608 385.141 59.3608V61.3608Z" fill="#004166" fill-opacity="0.1"/>
</svg>
