<svg width="689" height="445" viewBox="0 0 689 445" fill="none" xmlns="http://www.w3.org/2000/svg">
<ellipse cx="46.3794" cy="46.0863" rx="41.5987" ry="44.3129" fill="white" stroke="#004166" stroke-opacity="0.1" stroke-width="2" stroke-linecap="round"/>
<path d="M28.7014 40.4594C29.3454 40.4594 29.8961 40.5528 30.3534 40.7394C30.8107 40.9168 31.2541 41.1968 31.6834 41.5794L30.9554 42.3914C30.5914 42.1021 30.2321 41.8921 29.8774 41.7614C29.5321 41.6214 29.1587 41.5514 28.7574 41.5514C28.2534 41.5514 27.8381 41.6681 27.5114 41.9014C27.1847 42.1348 27.0214 42.4754 27.0214 42.9234C27.0214 43.2034 27.0774 43.4414 27.1894 43.6374C27.3014 43.8241 27.5067 43.9968 27.8054 44.1554C28.1134 44.3141 28.5567 44.4821 29.1354 44.6594C29.7421 44.8461 30.2461 45.0468 30.6474 45.2614C31.0487 45.4761 31.3707 45.7748 31.6134 46.1574C31.8654 46.5308 31.9914 47.0068 31.9914 47.5854C31.9914 48.1454 31.8514 48.6401 31.5714 49.0694C31.3007 49.4988 30.9041 49.8348 30.3814 50.0774C29.8681 50.3201 29.2567 50.4414 28.5474 50.4414C27.2127 50.4414 26.1207 50.0261 25.2714 49.1954L25.9994 48.3834C26.3914 48.7008 26.7881 48.9434 27.1894 49.1114C27.5907 49.2701 28.0387 49.3494 28.5334 49.3494C29.1307 49.3494 29.6254 49.2048 30.0174 48.9154C30.4094 48.6168 30.6054 48.1874 30.6054 47.6274C30.6054 47.3101 30.5447 47.0488 30.4234 46.8434C30.3021 46.6288 30.0921 46.4374 29.7934 46.2694C29.5041 46.1014 29.0794 45.9334 28.5194 45.7654C27.5301 45.4668 26.8067 45.1074 26.3494 44.6874C25.8921 44.2674 25.6634 43.6981 25.6634 42.9794C25.6634 42.4941 25.7894 42.0601 26.0414 41.6774C26.3027 41.2948 26.6621 40.9961 27.1194 40.7814C27.5861 40.5668 28.1134 40.4594 28.7014 40.4594ZM35.1683 42.8954V50.2734H33.8803V42.8954H35.1683ZM34.5103 39.3534C34.781 39.3534 35.0003 39.4374 35.1683 39.6054C35.3363 39.7734 35.4203 39.9834 35.4203 40.2354C35.4203 40.4874 35.3363 40.6974 35.1683 40.8654C35.0003 41.0241 34.781 41.1034 34.5103 41.1034C34.249 41.1034 34.0343 41.0241 33.8663 40.8654C33.6983 40.6974 33.6143 40.4874 33.6143 40.2354C33.6143 39.9834 33.6983 39.7734 33.8663 39.6054C34.0343 39.4374 34.249 39.3534 34.5103 39.3534ZM43.7815 43.2314C43.5015 43.3248 43.1935 43.3854 42.8575 43.4134C42.5215 43.4414 42.1108 43.4554 41.6255 43.4554C42.4935 43.8474 42.9275 44.4681 42.9275 45.3174C42.9275 46.0548 42.6755 46.6568 42.1715 47.1234C41.6675 47.5901 40.9815 47.8234 40.1135 47.8234C39.7775 47.8234 39.4648 47.7768 39.1755 47.6834C39.0635 47.7581 38.9748 47.8608 38.9095 47.9914C38.8441 48.1128 38.8115 48.2388 38.8115 48.3694C38.8115 48.7708 39.1335 48.9714 39.7775 48.9714H40.9535C41.4481 48.9714 41.8868 49.0601 42.2695 49.2374C42.6521 49.4148 42.9461 49.6574 43.1515 49.9654C43.3661 50.2734 43.4735 50.6234 43.4735 51.0154C43.4735 51.7341 43.1795 52.2848 42.5915 52.6674C42.0035 53.0594 41.1448 53.2554 40.0155 53.2554C39.2221 53.2554 38.5921 53.1714 38.1255 53.0034C37.6681 52.8448 37.3415 52.6021 37.1455 52.2754C36.9495 51.9488 36.8515 51.5288 36.8515 51.0154H38.0135C38.0135 51.3141 38.0695 51.5474 38.1815 51.7154C38.2935 51.8928 38.4941 52.0234 38.7835 52.1074C39.0728 52.2008 39.4835 52.2474 40.0155 52.2474C40.7901 52.2474 41.3408 52.1494 41.6675 51.9534C42.0035 51.7668 42.1715 51.4821 42.1715 51.0994C42.1715 50.7541 42.0408 50.4928 41.7795 50.3154C41.5181 50.1381 41.1541 50.0494 40.6875 50.0494H39.5255C38.9001 50.0494 38.4241 49.9188 38.0975 49.6574C37.7801 49.3868 37.6215 49.0508 37.6215 48.6494C37.6215 48.4068 37.6915 48.1734 37.8315 47.9494C37.9715 47.7254 38.1721 47.5248 38.4335 47.3474C38.0041 47.1234 37.6868 46.8481 37.4815 46.5214C37.2855 46.1854 37.1875 45.7794 37.1875 45.3034C37.1875 44.8088 37.3088 44.3654 37.5515 43.9734C37.8035 43.5814 38.1441 43.2781 38.5735 43.0634C39.0121 42.8394 39.4975 42.7274 40.0295 42.7274C40.6081 42.7368 41.0935 42.7181 41.4855 42.6714C41.8775 42.6154 42.1995 42.5454 42.4515 42.4614C42.7128 42.3681 43.0301 42.2374 43.4035 42.0694L43.7815 43.2314ZM40.0295 43.6514C39.5441 43.6514 39.1661 43.8054 38.8955 44.1134C38.6341 44.4121 38.5035 44.8088 38.5035 45.3034C38.5035 45.8074 38.6388 46.2134 38.9095 46.5214C39.1801 46.8201 39.5628 46.9694 40.0575 46.9694C40.5615 46.9694 40.9441 46.8248 41.2055 46.5354C41.4761 46.2368 41.6115 45.8214 41.6115 45.2894C41.6115 44.1974 41.0841 43.6514 40.0295 43.6514ZM48.5769 42.7274C49.2489 42.7274 49.7716 42.9281 50.1449 43.3294C50.5276 43.7308 50.7189 44.2814 50.7189 44.9814V50.2734H49.4309V45.1634C49.4309 44.6408 49.3329 44.2721 49.1369 44.0574C48.9409 43.8428 48.6516 43.7354 48.2689 43.7354C47.8769 43.7354 47.5316 43.8474 47.2329 44.0714C46.9342 44.2954 46.6542 44.6174 46.3929 45.0374V50.2734H45.1049V42.8954H46.2109L46.3229 43.9874C46.5842 43.5954 46.9062 43.2874 47.2889 43.0634C47.6809 42.8394 48.1102 42.7274 48.5769 42.7274ZM58.3011 42.8954V50.2734H57.0131V42.8954H58.3011ZM57.6431 39.3534C57.9138 39.3534 58.1331 39.4374 58.3011 39.6054C58.4691 39.7734 58.5531 39.9834 58.5531 40.2354C58.5531 40.4874 58.4691 40.6974 58.3011 40.8654C58.1331 41.0241 57.9138 41.1034 57.6431 41.1034C57.3818 41.1034 57.1671 41.0241 56.9991 40.8654C56.8311 40.6974 56.7471 40.4874 56.7471 40.2354C56.7471 39.9834 56.8311 39.7734 56.9991 39.6054C57.1671 39.4374 57.3818 39.3534 57.6431 39.3534ZM64.4363 42.7274C65.1083 42.7274 65.6309 42.9281 66.0043 43.3294C66.3869 43.7308 66.5783 44.2814 66.5783 44.9814V50.2734H65.2903V45.1634C65.2903 44.6408 65.1923 44.2721 64.9963 44.0574C64.8003 43.8428 64.5109 43.7354 64.1283 43.7354C63.7363 43.7354 63.3909 43.8474 63.0923 44.0714C62.7936 44.2954 62.5136 44.6174 62.2523 45.0374V50.2734H60.9643V42.8954H62.0703L62.1823 43.9874C62.4436 43.5954 62.7656 43.2874 63.1483 43.0634C63.5403 42.8394 63.9696 42.7274 64.4363 42.7274Z" fill="#001826" fill-opacity="0.9"/>
<path d="M1 209.083H91.5886V256.427H1V209.083Z" fill="white" stroke="#004166" stroke-opacity="0.1" stroke-width="2" stroke-linecap="round"/>
<path d="M34.4222 237.583V233.061H30.3622V237.583H29.0322V227.937H30.3622V231.969H34.4222V227.937H35.7522V237.583H34.4222ZM41.2498 230.037C42.2858 230.037 43.0885 230.383 43.6578 231.073C44.2365 231.764 44.5258 232.702 44.5258 233.887C44.5258 234.653 44.3952 235.329 44.1338 235.917C43.8725 236.496 43.4945 236.949 42.9998 237.275C42.5052 237.593 41.9172 237.751 41.2358 237.751C40.1998 237.751 39.3925 237.406 38.8138 236.715C38.2352 236.025 37.9458 235.087 37.9458 233.901C37.9458 233.136 38.0765 232.464 38.3378 231.885C38.5992 231.297 38.9772 230.845 39.4718 230.527C39.9665 230.201 40.5592 230.037 41.2498 230.037ZM41.2498 231.073C39.9712 231.073 39.3318 232.016 39.3318 233.901C39.3318 235.777 39.9665 236.715 41.2358 236.715C42.5052 236.715 43.1398 235.773 43.1398 233.887C43.1398 232.011 42.5098 231.073 41.2498 231.073ZM54.0596 230.037C54.6663 230.037 55.1516 230.243 55.5156 230.653C55.8796 231.055 56.0616 231.601 56.0616 232.291V237.583H54.7736V232.473C54.7736 231.521 54.4283 231.045 53.7376 231.045C53.3736 231.045 53.0656 231.153 52.8136 231.367C52.5616 231.573 52.291 231.899 52.0016 232.347V237.583H50.7136V232.473C50.7136 231.521 50.3683 231.045 49.6776 231.045C49.3043 231.045 48.9916 231.153 48.7396 231.367C48.4876 231.582 48.2216 231.909 47.9416 232.347V237.583H46.6536V230.205H47.7596L47.8716 231.283C48.4223 230.453 49.1316 230.037 49.9996 230.037C50.457 230.037 50.8443 230.154 51.1616 230.387C51.4883 230.621 51.7216 230.947 51.8616 231.367C52.151 230.938 52.4683 230.611 52.8136 230.387C53.1683 230.154 53.5836 230.037 54.0596 230.037ZM64.2295 233.677C64.2295 233.892 64.2202 234.111 64.2015 234.335H59.4975C59.5535 235.147 59.7589 235.745 60.1135 236.127C60.4682 236.51 60.9255 236.701 61.4855 236.701C61.8402 236.701 62.1669 236.65 62.4655 236.547C62.7642 236.445 63.0769 236.281 63.4035 236.057L63.9635 236.827C63.1795 237.443 62.3209 237.751 61.3875 237.751C60.3609 237.751 59.5582 237.415 58.9795 236.743C58.4102 236.071 58.1255 235.147 58.1255 233.971C58.1255 233.206 58.2469 232.529 58.4895 231.941C58.7415 231.344 59.0962 230.877 59.5535 230.541C60.0202 230.205 60.5662 230.037 61.1915 230.037C62.1715 230.037 62.9229 230.359 63.4455 231.003C63.9682 231.647 64.2295 232.539 64.2295 233.677ZM62.9555 233.299C62.9555 232.571 62.8109 232.016 62.5215 231.633C62.2322 231.251 61.7982 231.059 61.2195 231.059C60.1649 231.059 59.5909 231.834 59.4975 233.383H62.9555V233.299Z" fill="#001826" fill-opacity="0.9"/>
<path d="M129.542 209.083H220.131V256.427H129.542V209.083Z" fill="white" stroke="#004166" stroke-opacity="0.1" stroke-width="2" stroke-linecap="round"/>
<path d="M146.805 227.769C147.384 227.769 147.869 227.844 148.261 227.993C148.662 228.143 149.068 228.385 149.479 228.721L148.751 229.575C148.163 229.099 147.542 228.861 146.889 228.861C146.086 228.861 145.438 229.169 144.943 229.785C144.458 230.401 144.215 231.391 144.215 232.753C144.215 234.079 144.458 235.059 144.943 235.693C145.428 236.319 146.072 236.631 146.875 236.631C147.286 236.631 147.645 236.561 147.953 236.421C148.261 236.281 148.588 236.085 148.933 235.833L149.591 236.673C149.292 236.981 148.91 237.238 148.443 237.443C147.976 237.649 147.44 237.751 146.833 237.751C146.049 237.751 145.349 237.56 144.733 237.177C144.126 236.785 143.65 236.216 143.305 235.469C142.969 234.713 142.801 233.808 142.801 232.753C142.801 231.699 142.978 230.798 143.333 230.051C143.688 229.295 144.168 228.726 144.775 228.343C145.382 227.961 146.058 227.769 146.805 227.769ZM154.53 230.037C155.202 230.037 155.725 230.238 156.098 230.639C156.481 231.041 156.672 231.591 156.672 232.291V237.583H155.384V232.473C155.384 231.951 155.282 231.582 155.076 231.367C154.88 231.153 154.591 231.045 154.208 231.045C153.826 231.045 153.485 231.157 153.186 231.381C152.888 231.605 152.608 231.923 152.346 232.333V237.583H151.058V227.251L152.346 227.111V231.227C152.925 230.434 153.653 230.037 154.53 230.037ZM164.232 235.861C164.232 236.16 164.283 236.384 164.386 236.533C164.488 236.673 164.642 236.781 164.848 236.855L164.554 237.751C164.171 237.705 163.863 237.597 163.63 237.429C163.396 237.261 163.224 237 163.112 236.645C162.617 237.383 161.884 237.751 160.914 237.751C160.186 237.751 159.612 237.546 159.192 237.135C158.772 236.725 158.562 236.188 158.562 235.525C158.562 234.741 158.842 234.139 159.402 233.719C159.971 233.299 160.774 233.089 161.81 233.089H162.944V232.543C162.944 232.021 162.818 231.647 162.566 231.423C162.314 231.199 161.926 231.087 161.404 231.087C160.862 231.087 160.2 231.218 159.416 231.479L159.094 230.541C160.008 230.205 160.858 230.037 161.642 230.037C162.51 230.037 163.158 230.252 163.588 230.681C164.017 231.101 164.232 231.703 164.232 232.487V235.861ZM161.208 236.785C161.945 236.785 162.524 236.403 162.944 235.637V233.943H161.978C160.615 233.943 159.934 234.447 159.934 235.455C159.934 235.894 160.041 236.225 160.256 236.449C160.47 236.673 160.788 236.785 161.208 236.785ZM170.601 237.247C170.115 237.583 169.565 237.751 168.949 237.751C168.323 237.751 167.833 237.574 167.479 237.219C167.133 236.855 166.961 236.333 166.961 235.651V231.199H165.673V230.205H166.961V228.539L168.249 228.385V230.205H169.999L169.859 231.199H168.249V235.595C168.249 235.978 168.314 236.258 168.445 236.435C168.585 236.603 168.813 236.687 169.131 236.687C169.42 236.687 169.747 236.589 170.111 236.393L170.601 237.247ZM178.846 230.037C179.108 230.037 179.35 230.065 179.574 230.121L179.336 231.381C179.112 231.325 178.898 231.297 178.692 231.297C178.235 231.297 177.866 231.465 177.586 231.801C177.306 232.137 177.087 232.66 176.928 233.369V237.583H175.64V230.205H176.746L176.872 231.703C177.068 231.153 177.334 230.737 177.67 230.457C178.006 230.177 178.398 230.037 178.846 230.037ZM183.389 230.037C184.425 230.037 185.228 230.383 185.797 231.073C186.376 231.764 186.665 232.702 186.665 233.887C186.665 234.653 186.534 235.329 186.273 235.917C186.012 236.496 185.634 236.949 185.139 237.275C184.644 237.593 184.056 237.751 183.375 237.751C182.339 237.751 181.532 237.406 180.953 236.715C180.374 236.025 180.085 235.087 180.085 233.901C180.085 233.136 180.216 232.464 180.477 231.885C180.738 231.297 181.116 230.845 181.611 230.527C182.106 230.201 182.698 230.037 183.389 230.037ZM183.389 231.073C182.11 231.073 181.471 232.016 181.471 233.901C181.471 235.777 182.106 236.715 183.375 236.715C184.644 236.715 185.279 235.773 185.279 233.887C185.279 232.011 184.649 231.073 183.389 231.073ZM191.565 230.037C192.601 230.037 193.403 230.383 193.973 231.073C194.551 231.764 194.841 232.702 194.841 233.887C194.841 234.653 194.71 235.329 194.449 235.917C194.187 236.496 193.809 236.949 193.315 237.275C192.82 237.593 192.232 237.751 191.551 237.751C190.515 237.751 189.707 237.406 189.129 236.715C188.55 236.025 188.261 235.087 188.261 233.901C188.261 233.136 188.391 232.464 188.653 231.885C188.914 231.297 189.292 230.845 189.787 230.527C190.281 230.201 190.874 230.037 191.565 230.037ZM191.565 231.073C190.286 231.073 189.647 232.016 189.647 233.901C189.647 235.777 190.281 236.715 191.551 236.715C192.82 236.715 193.455 235.773 193.455 233.887C193.455 232.011 192.825 231.073 191.565 231.073ZM204.375 230.037C204.981 230.037 205.467 230.243 205.831 230.653C206.195 231.055 206.377 231.601 206.377 232.291V237.583H205.089V232.473C205.089 231.521 204.743 231.045 204.053 231.045C203.689 231.045 203.381 231.153 203.129 231.367C202.877 231.573 202.606 231.899 202.317 232.347V237.583H201.029V232.473C201.029 231.521 200.683 231.045 199.993 231.045C199.619 231.045 199.307 231.153 199.055 231.367C198.803 231.582 198.537 231.909 198.257 232.347V237.583H196.969V230.205H198.075L198.187 231.283C198.737 230.453 199.447 230.037 200.315 230.037C200.772 230.037 201.159 230.154 201.477 230.387C201.803 230.621 202.037 230.947 202.177 231.367C202.466 230.938 202.783 230.611 203.129 230.387C203.483 230.154 203.899 230.037 204.375 230.037Z" fill="#001826" fill-opacity="0.9"/>
<path d="M47.2944 94.8994C47.2944 94.3471 46.8467 93.8994 46.2944 93.8994C45.7421 93.8994 45.2944 94.3471 45.2944 94.8994H47.2944ZM45.5873 205.291C45.9779 205.681 46.611 205.681 47.0015 205.291L53.3655 198.927C53.756 198.536 53.756 197.903 53.3655 197.513C52.975 197.122 52.3418 197.122 51.9513 197.513L46.2944 203.169L40.6376 197.513C40.2471 197.122 39.6139 197.122 39.2234 197.513C38.8328 197.903 38.8328 198.536 39.2234 198.927L45.5873 205.291ZM45.2944 94.8994V204.584H47.2944V94.8994H45.2944Z" fill="#004166" fill-opacity="0.1"/>
<ellipse cx="305.17" cy="232.685" rx="47.0842" ry="50.5745" fill="white" stroke="#004166" stroke-opacity="0.1" stroke-width="2" stroke-linecap="round"/>
<path d="M289.846 217.297C290.424 217.297 290.91 217.371 291.302 217.521C291.703 217.67 292.109 217.913 292.52 218.249L291.792 219.103C291.204 218.627 290.583 218.389 289.93 218.389C289.127 218.389 288.478 218.697 287.984 219.313C287.498 219.929 287.256 220.918 287.256 222.281C287.256 223.606 287.498 224.586 287.984 225.221C288.469 225.846 289.113 226.159 289.916 226.159C290.326 226.159 290.686 226.089 290.994 225.949C291.302 225.809 291.628 225.613 291.974 225.361L292.632 226.201C292.333 226.509 291.95 226.765 291.484 226.971C291.017 227.176 290.48 227.279 289.874 227.279C289.09 227.279 288.39 227.087 287.774 226.705C287.167 226.313 286.691 225.743 286.346 224.997C286.01 224.241 285.842 223.335 285.842 222.281C285.842 221.226 286.019 220.325 286.374 219.579C286.728 218.823 287.209 218.253 287.816 217.871C288.422 217.488 289.099 217.297 289.846 217.297ZM297.237 219.565C297.498 219.565 297.741 219.593 297.965 219.649L297.727 220.909C297.503 220.853 297.288 220.825 297.083 220.825C296.625 220.825 296.257 220.993 295.977 221.329C295.697 221.665 295.477 222.187 295.319 222.897V227.111H294.031V219.733H295.137L295.263 221.231C295.459 220.68 295.725 220.265 296.061 219.985C296.397 219.705 296.789 219.565 297.237 219.565ZM304.579 223.205C304.579 223.419 304.57 223.639 304.551 223.863H299.847C299.903 224.675 300.109 225.272 300.463 225.655C300.818 226.037 301.275 226.229 301.835 226.229C302.19 226.229 302.517 226.177 302.815 226.075C303.114 225.972 303.427 225.809 303.753 225.585L304.313 226.355C303.529 226.971 302.671 227.279 301.737 227.279C300.711 227.279 299.908 226.943 299.329 226.271C298.76 225.599 298.475 224.675 298.475 223.499C298.475 222.733 298.597 222.057 298.839 221.469C299.091 220.871 299.446 220.405 299.903 220.069C300.37 219.733 300.916 219.565 301.541 219.565C302.521 219.565 303.273 219.887 303.795 220.531C304.318 221.175 304.579 222.066 304.579 223.205ZM303.305 222.827C303.305 222.099 303.161 221.543 302.871 221.161C302.582 220.778 302.148 220.587 301.569 220.587C300.515 220.587 299.941 221.361 299.847 222.911H303.305V222.827ZM311.469 225.389C311.469 225.687 311.521 225.911 311.623 226.061C311.726 226.201 311.88 226.308 312.085 226.383L311.791 227.279C311.409 227.232 311.101 227.125 310.867 226.957C310.634 226.789 310.461 226.527 310.349 226.173C309.855 226.91 309.122 227.279 308.151 227.279C307.423 227.279 306.849 227.073 306.429 226.663C306.009 226.252 305.799 225.715 305.799 225.053C305.799 224.269 306.079 223.667 306.639 223.247C307.209 222.827 308.011 222.617 309.047 222.617H310.181V222.071C310.181 221.548 310.055 221.175 309.803 220.951C309.551 220.727 309.164 220.615 308.641 220.615C308.1 220.615 307.437 220.745 306.653 221.007L306.331 220.069C307.246 219.733 308.095 219.565 308.879 219.565C309.747 219.565 310.396 219.779 310.825 220.209C311.255 220.629 311.469 221.231 311.469 222.015V225.389ZM308.445 226.313C309.183 226.313 309.761 225.93 310.181 225.165V223.471H309.215C307.853 223.471 307.171 223.975 307.171 224.983C307.171 225.421 307.279 225.753 307.493 225.977C307.708 226.201 308.025 226.313 308.445 226.313ZM317.839 226.775C317.353 227.111 316.803 227.279 316.187 227.279C315.561 227.279 315.071 227.101 314.717 226.747C314.371 226.383 314.199 225.86 314.199 225.179V220.727H312.911V219.733H314.199V218.067L315.487 217.913V219.733H317.237L317.097 220.727H315.487V225.123C315.487 225.505 315.552 225.785 315.683 225.963C315.823 226.131 316.051 226.215 316.369 226.215C316.658 226.215 316.985 226.117 317.349 225.921L317.839 226.775ZM324.54 223.205C324.54 223.419 324.531 223.639 324.512 223.863H319.808C319.864 224.675 320.07 225.272 320.424 225.655C320.779 226.037 321.236 226.229 321.796 226.229C322.151 226.229 322.478 226.177 322.776 226.075C323.075 225.972 323.388 225.809 323.714 225.585L324.274 226.355C323.49 226.971 322.632 227.279 321.698 227.279C320.672 227.279 319.869 226.943 319.29 226.271C318.721 225.599 318.436 224.675 318.436 223.499C318.436 222.733 318.558 222.057 318.8 221.469C319.052 220.871 319.407 220.405 319.864 220.069C320.331 219.733 320.877 219.565 321.502 219.565C322.482 219.565 323.234 219.887 323.756 220.531C324.279 221.175 324.54 222.066 324.54 223.205ZM323.266 222.827C323.266 222.099 323.122 221.543 322.832 221.161C322.543 220.778 322.109 220.587 321.53 220.587C320.476 220.587 319.902 221.361 319.808 222.911H323.266V222.827ZM277.535 240.565C278.207 240.565 278.73 240.765 279.103 241.167C279.486 241.568 279.677 242.119 279.677 242.819V248.111H278.389V243.001C278.389 242.478 278.291 242.109 278.095 241.895C277.899 241.68 277.61 241.573 277.227 241.573C276.835 241.573 276.49 241.685 276.191 241.909C275.892 242.133 275.612 242.455 275.351 242.875V248.111H274.063V240.733H275.169L275.281 241.825C275.542 241.433 275.864 241.125 276.247 240.901C276.639 240.677 277.068 240.565 277.535 240.565ZM287.838 244.205C287.838 244.419 287.829 244.639 287.81 244.863H283.106C283.162 245.675 283.367 246.272 283.722 246.655C284.077 247.037 284.534 247.229 285.094 247.229C285.449 247.229 285.775 247.177 286.074 247.075C286.373 246.972 286.685 246.809 287.012 246.585L287.572 247.355C286.788 247.971 285.929 248.279 284.996 248.279C283.969 248.279 283.167 247.943 282.588 247.271C282.019 246.599 281.734 245.675 281.734 244.499C281.734 243.733 281.855 243.057 282.098 242.469C282.35 241.871 282.705 241.405 283.162 241.069C283.629 240.733 284.175 240.565 284.8 240.565C285.78 240.565 286.531 240.887 287.054 241.531C287.577 242.175 287.838 243.066 287.838 244.205ZM286.564 243.827C286.564 243.099 286.419 242.543 286.13 242.161C285.841 241.778 285.407 241.587 284.828 241.587C283.773 241.587 283.199 242.361 283.106 243.911H286.564V243.827ZM298.323 240.733L296.643 248.111H294.893L293.605 241.895L292.275 248.111H290.567L288.845 240.733H290.133L291.463 247.215L292.919 240.733H294.361L295.747 247.215L297.091 240.733H298.323ZM309.207 244.205C309.207 244.419 309.198 244.639 309.179 244.863H304.475C304.531 245.675 304.737 246.272 305.091 246.655C305.446 247.037 305.903 247.229 306.463 247.229C306.818 247.229 307.145 247.177 307.443 247.075C307.742 246.972 308.055 246.809 308.381 246.585L308.941 247.355C308.157 247.971 307.299 248.279 306.365 248.279C305.339 248.279 304.536 247.943 303.957 247.271C303.388 246.599 303.103 245.675 303.103 244.499C303.103 243.733 303.225 243.057 303.467 242.469C303.719 241.871 304.074 241.405 304.531 241.069C304.998 240.733 305.544 240.565 306.169 240.565C307.149 240.565 307.901 240.887 308.423 241.531C308.946 242.175 309.207 243.066 309.207 244.205ZM307.933 243.827C307.933 243.099 307.789 242.543 307.499 242.161C307.21 241.778 306.776 241.587 306.197 241.587C305.143 241.587 304.569 242.361 304.475 243.911H307.933V243.827ZM316.627 240.733L314.121 248.111H312.567L310.019 240.733H311.419L313.351 246.963L315.269 240.733H316.627ZM323.617 244.205C323.617 244.419 323.608 244.639 323.589 244.863H318.885C318.941 245.675 319.147 246.272 319.501 246.655C319.856 247.037 320.313 247.229 320.873 247.229C321.228 247.229 321.555 247.177 321.853 247.075C322.152 246.972 322.465 246.809 322.791 246.585L323.351 247.355C322.567 247.971 321.709 248.279 320.775 248.279C319.749 248.279 318.946 247.943 318.367 247.271C317.798 246.599 317.513 245.675 317.513 244.499C317.513 243.733 317.635 243.057 317.877 242.469C318.129 241.871 318.484 241.405 318.941 241.069C319.408 240.733 319.954 240.565 320.579 240.565C321.559 240.565 322.311 240.887 322.833 241.531C323.356 242.175 323.617 243.066 323.617 244.205ZM322.343 243.827C322.343 243.099 322.199 242.543 321.909 242.161C321.62 241.778 321.186 241.587 320.607 241.587C319.553 241.587 318.979 242.361 318.885 243.911H322.343V243.827ZM329.146 240.565C329.818 240.565 330.341 240.765 330.714 241.167C331.097 241.568 331.288 242.119 331.288 242.819V248.111H330V243.001C330 242.478 329.902 242.109 329.706 241.895C329.51 241.68 329.221 241.573 328.838 241.573C328.446 241.573 328.101 241.685 327.802 241.909C327.504 242.133 327.224 242.455 326.962 242.875V248.111H325.674V240.733H326.78L326.892 241.825C327.154 241.433 327.476 241.125 327.858 240.901C328.25 240.677 328.68 240.565 329.146 240.565ZM337.601 247.775C337.116 248.111 336.565 248.279 335.949 248.279C335.324 248.279 334.834 248.101 334.479 247.747C334.134 247.383 333.961 246.86 333.961 246.179V241.727H332.673V240.733H333.961V239.067L335.249 238.913V240.733H336.999L336.859 241.727H335.249V246.123C335.249 246.505 335.315 246.785 335.445 246.963C335.585 247.131 335.814 247.215 336.131 247.215C336.421 247.215 336.747 247.117 337.111 246.921L337.601 247.775Z" fill="#001826" fill-opacity="0.9"/>
<ellipse cx="443.185" cy="73.255" rx="53.9411" ry="57.7994" fill="white" stroke="#004166" stroke-opacity="0.1" stroke-width="2" stroke-linecap="round"/>
<path d="M421.326 57.6416C421.904 57.6416 422.39 57.7162 422.782 57.8656C423.183 58.0149 423.589 58.2576 424 58.5936L423.272 59.4476C422.684 58.9716 422.063 58.7336 421.41 58.7336C420.607 58.7336 419.958 59.0416 419.464 59.6576C418.978 60.2736 418.736 61.2629 418.736 62.6256C418.736 63.9509 418.978 64.9309 419.464 65.5656C419.949 66.1909 420.593 66.5036 421.396 66.5036C421.806 66.5036 422.166 66.4336 422.474 66.2936C422.782 66.1536 423.108 65.9576 423.454 65.7056L424.112 66.5456C423.813 66.8536 423.43 67.1102 422.964 67.3156C422.497 67.5209 421.96 67.6236 421.354 67.6236C420.57 67.6236 419.87 67.4322 419.254 67.0496C418.647 66.6576 418.171 66.0882 417.826 65.3416C417.49 64.5856 417.322 63.6802 417.322 62.6256C417.322 61.5709 417.499 60.6702 417.854 59.9236C418.208 59.1676 418.689 58.5982 419.296 58.2156C419.902 57.8329 420.579 57.6416 421.326 57.6416ZM428.214 59.9096C429.25 59.9096 430.053 60.2549 430.622 60.9456C431.201 61.6362 431.49 62.5742 431.49 63.7596C431.49 64.5249 431.36 65.2016 431.098 65.7896C430.837 66.3682 430.459 66.8209 429.964 67.1476C429.47 67.4649 428.882 67.6236 428.2 67.6236C427.164 67.6236 426.357 67.2782 425.778 66.5876C425.2 65.8969 424.91 64.9589 424.91 63.7736C424.91 63.0082 425.041 62.3362 425.302 61.7576C425.564 61.1696 425.942 60.7169 426.436 60.3996C426.931 60.0729 427.524 59.9096 428.214 59.9096ZM428.214 60.9456C426.936 60.9456 426.296 61.8882 426.296 63.7736C426.296 65.6496 426.931 66.5876 428.2 66.5876C429.47 66.5876 430.104 65.6449 430.104 63.7596C430.104 61.8836 429.474 60.9456 428.214 60.9456ZM437.09 59.9096C437.762 59.9096 438.285 60.1102 438.658 60.5116C439.041 60.9129 439.232 61.4636 439.232 62.1636V67.4556H437.944V62.3456C437.944 61.8229 437.846 61.4542 437.65 61.2396C437.454 61.0249 437.165 60.9176 436.782 60.9176C436.39 60.9176 436.045 61.0296 435.746 61.2536C435.447 61.4776 435.167 61.7996 434.906 62.2196V67.4556H433.618V60.0776H434.724L434.836 61.1696C435.097 60.7776 435.419 60.4696 435.802 60.2456C436.194 60.0216 436.623 59.9096 437.09 59.9096ZM445.545 67.1196C445.06 67.4556 444.509 67.6236 443.893 67.6236C443.268 67.6236 442.778 67.4462 442.423 67.0916C442.078 66.7276 441.905 66.2049 441.905 65.5236V61.0716H440.617V60.0776H441.905V58.4116L443.193 58.2576V60.0776H444.943L444.803 61.0716H443.193V65.4676C443.193 65.8502 443.259 66.1302 443.389 66.3076C443.529 66.4756 443.758 66.5596 444.075 66.5596C444.365 66.5596 444.691 66.4616 445.055 66.2656L445.545 67.1196ZM450.086 59.9096C450.347 59.9096 450.59 59.9376 450.814 59.9936L450.576 61.2536C450.352 61.1976 450.137 61.1696 449.932 61.1696C449.474 61.1696 449.106 61.3376 448.826 61.6736C448.546 62.0096 448.326 62.5322 448.168 63.2416V67.4556H446.88V60.0776H447.986L448.112 61.5756C448.308 61.0249 448.574 60.6096 448.91 60.3296C449.246 60.0496 449.638 59.9096 450.086 59.9096ZM456.758 65.7336C456.758 66.0322 456.809 66.2562 456.912 66.4056C457.015 66.5456 457.169 66.6529 457.374 66.7276L457.08 67.6236C456.697 67.5769 456.389 67.4696 456.156 67.3016C455.923 67.1336 455.75 66.8722 455.638 66.5176C455.143 67.2549 454.411 67.6236 453.44 67.6236C452.712 67.6236 452.138 67.4182 451.718 67.0076C451.298 66.5969 451.088 66.0602 451.088 65.3976C451.088 64.6136 451.368 64.0116 451.928 63.5916C452.497 63.1716 453.3 62.9616 454.336 62.9616H455.47V62.4156C455.47 61.8929 455.344 61.5196 455.092 61.2956C454.84 61.0716 454.453 60.9596 453.93 60.9596C453.389 60.9596 452.726 61.0902 451.942 61.3516L451.62 60.4136C452.535 60.0776 453.384 59.9096 454.168 59.9096C455.036 59.9096 455.685 60.1242 456.114 60.5536C456.543 60.9736 456.758 61.5756 456.758 62.3596V65.7336ZM453.734 66.6576C454.471 66.6576 455.05 66.2749 455.47 65.5096V63.8156H454.504C453.141 63.8156 452.46 64.3196 452.46 65.3276C452.46 65.7662 452.567 66.0976 452.782 66.3216C452.997 66.5456 453.314 66.6576 453.734 66.6576ZM462.091 59.9096C462.53 59.9096 462.931 59.9749 463.295 60.1056C463.659 60.2269 464.009 60.4276 464.345 60.7076L463.729 61.5196C463.468 61.3329 463.211 61.1976 462.959 61.1136C462.717 61.0202 462.446 60.9736 462.147 60.9736C461.55 60.9736 461.083 61.2116 460.747 61.6876C460.421 62.1636 460.257 62.8682 460.257 63.8016C460.257 64.7349 460.421 65.4256 460.747 65.8736C461.074 66.3122 461.541 66.5316 462.147 66.5316C462.437 66.5316 462.703 66.4896 462.945 66.4056C463.188 66.3122 463.459 66.1676 463.757 65.9716L464.345 66.8116C463.673 67.3529 462.922 67.6236 462.091 67.6236C461.093 67.6236 460.304 67.2876 459.725 66.6156C459.156 65.9436 458.871 65.0149 458.871 63.8296C458.871 63.0456 459.002 62.3596 459.263 61.7716C459.525 61.1836 459.893 60.7262 460.369 60.3996C460.855 60.0729 461.429 59.9096 462.091 59.9096ZM469.813 67.1196C469.327 67.4556 468.777 67.6236 468.161 67.6236C467.535 67.6236 467.045 67.4462 466.691 67.0916C466.345 66.7276 466.173 66.2049 466.173 65.5236V61.0716H464.885V60.0776H466.173V58.4116L467.461 58.2576V60.0776H469.211L469.071 61.0716H467.461V65.4676C467.461 65.8502 467.526 66.1302 467.657 66.3076C467.797 66.4756 468.025 66.5596 468.343 66.5596C468.632 66.5596 468.959 66.4616 469.323 66.2656L469.813 67.1196ZM422.776 80.9096C423.038 80.9096 423.28 80.9376 423.504 80.9936L423.266 82.2536C423.042 82.1976 422.828 82.1696 422.622 82.1696C422.165 82.1696 421.796 82.3376 421.516 82.6736C421.236 83.0096 421.017 83.5322 420.858 84.2416V88.4556H419.57V81.0776H420.676L420.802 82.5756C420.998 82.0249 421.264 81.6096 421.6 81.3296C421.936 81.0496 422.328 80.9096 422.776 80.9096ZM430.119 84.5496C430.119 84.7642 430.109 84.9836 430.091 85.2076H425.387C425.443 86.0196 425.648 86.6169 426.003 86.9996C426.357 87.3822 426.815 87.5736 427.375 87.5736C427.729 87.5736 428.056 87.5222 428.355 87.4196C428.653 87.3169 428.966 87.1536 429.293 86.9296L429.853 87.6996C429.069 88.3156 428.21 88.6236 427.277 88.6236C426.25 88.6236 425.447 88.2876 424.869 87.6156C424.299 86.9436 424.015 86.0196 424.015 84.8436C424.015 84.0782 424.136 83.4016 424.379 82.8136C424.631 82.2162 424.985 81.7496 425.443 81.4136C425.909 81.0776 426.455 80.9096 427.081 80.9096C428.061 80.9096 428.812 81.2316 429.335 81.8756C429.857 82.5196 430.119 83.4109 430.119 84.5496ZM428.845 84.1716C428.845 83.4436 428.7 82.8882 428.411 82.5056C428.121 82.1229 427.687 81.9316 427.109 81.9316C426.054 81.9316 425.48 82.7062 425.387 84.2556H428.845V84.1716ZM435.648 80.9096C436.32 80.9096 436.842 81.1102 437.216 81.5116C437.598 81.9129 437.79 82.4636 437.79 83.1636V88.4556H436.502V83.3456C436.502 82.8229 436.404 82.4542 436.208 82.2396C436.012 82.0249 435.722 81.9176 435.34 81.9176C434.948 81.9176 434.602 82.0296 434.304 82.2536C434.005 82.4776 433.725 82.7996 433.464 83.2196V88.4556H432.176V81.0776H433.282L433.394 82.1696C433.655 81.7776 433.977 81.4696 434.36 81.2456C434.752 81.0216 435.181 80.9096 435.648 80.9096ZM445.951 84.5496C445.951 84.7642 445.941 84.9836 445.923 85.2076H441.219C441.275 86.0196 441.48 86.6169 441.835 86.9996C442.189 87.3822 442.647 87.5736 443.207 87.5736C443.561 87.5736 443.888 87.5222 444.187 87.4196C444.485 87.3169 444.798 87.1536 445.125 86.9296L445.685 87.6996C444.901 88.3156 444.042 88.6236 443.109 88.6236C442.082 88.6236 441.279 88.2876 440.701 87.6156C440.131 86.9436 439.847 86.0196 439.847 84.8436C439.847 84.0782 439.968 83.4016 440.211 82.8136C440.463 82.2162 440.817 81.7496 441.275 81.4136C441.741 81.0776 442.287 80.9096 442.913 80.9096C443.893 80.9096 444.644 81.2316 445.167 81.8756C445.689 82.5196 445.951 83.4109 445.951 84.5496ZM444.677 84.1716C444.677 83.4436 444.532 82.8882 444.243 82.5056C443.953 82.1229 443.519 81.9316 442.941 81.9316C441.886 81.9316 441.312 82.7062 441.219 84.2556H444.677V84.1716ZM456.436 81.0776L454.756 88.4556H453.006L451.718 82.2396L450.388 88.4556H448.68L446.958 81.0776H448.246L449.576 87.5596L451.032 81.0776H452.474L453.86 87.5596L455.204 81.0776H456.436ZM462.849 86.7336C462.849 87.0322 462.9 87.2562 463.003 87.4056C463.105 87.5456 463.259 87.6529 463.465 87.7276L463.171 88.6236C462.788 88.5769 462.48 88.4696 462.247 88.3016C462.013 88.1336 461.841 87.8722 461.729 87.5176C461.234 88.2549 460.501 88.6236 459.531 88.6236C458.803 88.6236 458.229 88.4182 457.809 88.0076C457.389 87.5969 457.179 87.0602 457.179 86.3976C457.179 85.6136 457.459 85.0116 458.019 84.5916C458.588 84.1716 459.391 83.9616 460.427 83.9616H461.561V83.4156C461.561 82.8929 461.435 82.5196 461.183 82.2956C460.931 82.0716 460.543 81.9596 460.021 81.9596C459.479 81.9596 458.817 82.0902 458.033 82.3516L457.711 81.4136C458.625 81.0776 459.475 80.9096 460.259 80.9096C461.127 80.9096 461.775 81.1242 462.205 81.5536C462.634 81.9736 462.849 82.5756 462.849 83.3596V86.7336ZM459.825 87.6576C460.562 87.6576 461.141 87.2749 461.561 86.5096V84.8156H460.595C459.232 84.8156 458.551 85.3196 458.551 86.3276C458.551 86.7662 458.658 87.0976 458.873 87.3216C459.087 87.5456 459.405 87.6576 459.825 87.6576ZM466.827 88.6236C466.351 88.6236 465.973 88.4836 465.693 88.2036C465.423 87.9142 465.287 87.5129 465.287 86.9996V78.1096L466.575 77.9556V86.9716C466.575 87.1769 466.608 87.3262 466.673 87.4196C466.748 87.5129 466.869 87.5596 467.037 87.5596C467.215 87.5596 467.373 87.5316 467.513 87.4756L467.849 88.3716C467.541 88.5396 467.201 88.6236 466.827 88.6236Z" fill="#001826" fill-opacity="0.9"/>
<ellipse cx="602.059" cy="73.255" rx="53.9411" ry="57.7994" fill="white" stroke="#004166" stroke-opacity="0.1" stroke-width="2" stroke-linecap="round"/>
<path d="M596.217 67.4556L595.489 65.0336H591.835L591.107 67.4556H589.763L592.857 57.8096H594.537L597.617 67.4556H596.217ZM592.157 63.9556H595.167L593.669 58.9156L592.157 63.9556ZM604.747 57.1096V67.4556H603.613L603.487 66.4336C603.244 66.8069 602.941 67.1009 602.577 67.3156C602.213 67.5209 601.807 67.6236 601.359 67.6236C600.481 67.6236 599.795 67.2782 599.301 66.5876C598.815 65.8969 598.573 64.9682 598.573 63.8016C598.573 63.0456 598.689 62.3736 598.923 61.7856C599.156 61.1976 599.492 60.7402 599.931 60.4136C600.369 60.0776 600.883 59.9096 601.471 59.9096C602.227 59.9096 602.889 60.2129 603.459 60.8196V56.9556L604.747 57.1096ZM601.639 66.6016C602.031 66.6016 602.367 66.5129 602.647 66.3356C602.927 66.1489 603.197 65.8736 603.459 65.5096V61.8976C603.216 61.5802 602.955 61.3422 602.675 61.1836C602.404 61.0156 602.096 60.9316 601.751 60.9316C601.181 60.9316 600.738 61.1696 600.421 61.6456C600.113 62.1216 599.959 62.8309 599.959 63.7736C599.959 64.7256 600.103 65.4349 600.393 65.9016C600.682 66.3682 601.097 66.6016 601.639 66.6016ZM613.114 57.1096V67.4556H611.98L611.854 66.4336C611.611 66.8069 611.308 67.1009 610.944 67.3156C610.58 67.5209 610.174 67.6236 609.726 67.6236C608.848 67.6236 608.162 67.2782 607.668 66.5876C607.182 65.8969 606.94 64.9682 606.94 63.8016C606.94 63.0456 607.056 62.3736 607.29 61.7856C607.523 61.1976 607.859 60.7402 608.298 60.4136C608.736 60.0776 609.25 59.9096 609.838 59.9096C610.594 59.9096 611.256 60.2129 611.826 60.8196V56.9556L613.114 57.1096ZM610.006 66.6016C610.398 66.6016 610.734 66.5129 611.014 66.3356C611.294 66.1489 611.564 65.8736 611.826 65.5096V61.8976C611.583 61.5802 611.322 61.3422 611.042 61.1836C610.771 61.0156 610.463 60.9316 610.118 60.9316C609.548 60.9316 609.105 61.1696 608.788 61.6456C608.48 62.1216 608.326 62.8309 608.326 63.7736C608.326 64.7256 608.47 65.4349 608.76 65.9016C609.049 66.3682 609.464 66.6016 610.006 66.6016ZM581.141 80.9096C581.747 80.9096 582.233 81.1149 582.597 81.5256C582.961 81.9269 583.143 82.4729 583.143 83.1636V88.4556H581.855V83.3456C581.855 82.3936 581.509 81.9176 580.819 81.9176C580.455 81.9176 580.147 82.0249 579.895 82.2396C579.643 82.4449 579.372 82.7716 579.083 83.2196V88.4556H577.795V83.3456C577.795 82.3936 577.449 81.9176 576.759 81.9176C576.385 81.9176 576.073 82.0249 575.821 82.2396C575.569 82.4542 575.303 82.7809 575.023 83.2196V88.4556H573.735V81.0776H574.841L574.953 82.1556C575.503 81.3249 576.213 80.9096 577.081 80.9096C577.538 80.9096 577.925 81.0262 578.243 81.2596C578.569 81.4929 578.803 81.8196 578.943 82.2396C579.232 81.8102 579.549 81.4836 579.895 81.2596C580.249 81.0262 580.665 80.9096 581.141 80.9096ZM591.311 84.5496C591.311 84.7642 591.301 84.9836 591.283 85.2076H586.579C586.635 86.0196 586.84 86.6169 587.195 86.9996C587.549 87.3822 588.007 87.5736 588.567 87.5736C588.921 87.5736 589.248 87.5222 589.547 87.4196C589.845 87.3169 590.158 87.1536 590.485 86.9296L591.045 87.6996C590.261 88.3156 589.402 88.6236 588.469 88.6236C587.442 88.6236 586.639 88.2876 586.061 87.6156C585.491 86.9436 585.207 86.0196 585.207 84.8436C585.207 84.0782 585.328 83.4016 585.571 82.8136C585.823 82.2162 586.177 81.7496 586.635 81.4136C587.101 81.0776 587.647 80.9096 588.273 80.9096C589.253 80.9096 590.004 81.2316 590.527 81.8756C591.049 82.5196 591.311 83.4109 591.311 84.5496ZM590.037 84.1716C590.037 83.4436 589.892 82.8882 589.603 82.5056C589.313 82.1229 588.879 81.9316 588.301 81.9316C587.246 81.9316 586.672 82.7062 586.579 84.2556H590.037V84.1716ZM600.774 80.9096C601.38 80.9096 601.866 81.1149 602.23 81.5256C602.594 81.9269 602.776 82.4729 602.776 83.1636V88.4556H601.488V83.3456C601.488 82.3936 601.142 81.9176 600.452 81.9176C600.088 81.9176 599.78 82.0249 599.528 82.2396C599.276 82.4449 599.005 82.7716 598.716 83.2196V88.4556H597.428V83.3456C597.428 82.3936 597.082 81.9176 596.392 81.9176C596.018 81.9176 595.706 82.0249 595.454 82.2396C595.202 82.4542 594.936 82.7809 594.656 83.2196V88.4556H593.368V81.0776H594.474L594.586 82.1556C595.136 81.3249 595.846 80.9096 596.714 80.9096C597.171 80.9096 597.558 81.0262 597.876 81.2596C598.202 81.4929 598.436 81.8196 598.576 82.2396C598.865 81.8102 599.182 81.4836 599.528 81.2596C599.882 81.0262 600.298 80.9096 600.774 80.9096ZM608.746 80.9096C609.586 80.9096 610.253 81.2502 610.748 81.9316C611.242 82.6036 611.49 83.5462 611.49 84.7596C611.49 85.5249 611.373 86.2016 611.14 86.7896C610.906 87.3682 610.57 87.8209 610.132 88.1476C609.693 88.4649 609.18 88.6236 608.592 88.6236C607.817 88.6236 607.164 88.2969 606.632 87.6436L606.506 88.4556H605.372V78.1096L606.66 77.9556V82.0016C607.192 81.2736 607.887 80.9096 608.746 80.9096ZM608.284 87.6016C608.853 87.6016 609.296 87.3729 609.614 86.9156C609.94 86.4489 610.104 85.7302 610.104 84.7596C610.104 83.7609 609.954 83.0422 609.656 82.6036C609.357 82.1556 608.932 81.9316 608.382 81.9316C607.728 81.9316 607.154 82.3142 606.66 83.0796V86.6076C606.856 86.9156 607.094 87.1582 607.374 87.3356C607.663 87.5129 607.966 87.6016 608.284 87.6016ZM619.256 84.5496C619.256 84.7642 619.247 84.9836 619.228 85.2076H614.524C614.58 86.0196 614.785 86.6169 615.14 86.9996C615.495 87.3822 615.952 87.5736 616.512 87.5736C616.867 87.5736 617.193 87.5222 617.492 87.4196C617.791 87.3169 618.103 87.1536 618.43 86.9296L618.99 87.6996C618.206 88.3156 617.347 88.6236 616.414 88.6236C615.387 88.6236 614.585 88.2876 614.006 87.6156C613.437 86.9436 613.152 86.0196 613.152 84.8436C613.152 84.0782 613.273 83.4016 613.516 82.8136C613.768 82.2162 614.123 81.7496 614.58 81.4136C615.047 81.0776 615.593 80.9096 616.218 80.9096C617.198 80.9096 617.949 81.2316 618.472 81.8756C618.995 82.5196 619.256 83.4109 619.256 84.5496ZM617.982 84.1716C617.982 83.4436 617.837 82.8882 617.548 82.5056C617.259 82.1229 616.825 81.9316 616.246 81.9316C615.191 81.9316 614.617 82.7062 614.524 84.2556H617.982V84.1716ZM624.519 80.9096C624.78 80.9096 625.023 80.9376 625.247 80.9936L625.009 82.2536C624.785 82.1976 624.57 82.1696 624.365 82.1696C623.908 82.1696 623.539 82.3376 623.259 82.6736C622.979 83.0096 622.76 83.5322 622.601 84.2416V88.4556H621.313V81.0776H622.419L622.545 82.5756C622.741 82.0249 623.007 81.6096 623.343 81.3296C623.679 81.0496 624.071 80.9096 624.519 80.9096ZM628.51 80.9096C629.014 80.9096 629.467 80.9796 629.868 81.1196C630.27 81.2596 630.652 81.4696 631.016 81.7496L630.47 82.5616C630.134 82.3469 629.812 82.1882 629.504 82.0856C629.206 81.9829 628.888 81.9316 628.552 81.9316C628.132 81.9316 627.801 82.0202 627.558 82.1976C627.316 82.3656 627.194 82.5989 627.194 82.8976C627.194 83.1962 627.306 83.4296 627.53 83.5976C627.764 83.7656 628.179 83.9289 628.776 84.0876C629.598 84.2929 630.209 84.5729 630.61 84.9276C631.021 85.2822 631.226 85.7676 631.226 86.3836C631.226 87.1116 630.942 87.6669 630.372 88.0496C629.812 88.4322 629.126 88.6236 628.314 88.6236C627.194 88.6236 626.266 88.3016 625.528 87.6576L626.214 86.8736C626.84 87.3496 627.53 87.5876 628.286 87.5876C628.772 87.5876 629.154 87.4896 629.434 87.2936C629.724 87.0882 629.868 86.8129 629.868 86.4676C629.868 86.2156 629.817 86.0149 629.714 85.8656C629.612 85.7069 629.434 85.5716 629.182 85.4596C628.93 85.3382 628.562 85.2122 628.076 85.0816C627.292 84.8762 626.723 84.6009 626.368 84.2556C626.023 83.9102 625.85 83.4716 625.85 82.9396C625.85 82.5569 625.962 82.2116 626.186 81.9036C626.42 81.5862 626.737 81.3436 627.138 81.1756C627.549 80.9982 628.006 80.9096 628.51 80.9096Z" fill="#001826" fill-opacity="0.9"/>
<ellipse cx="510.176" cy="385.435" rx="53.9411" ry="57.7994" fill="white" stroke="#004166" stroke-opacity="0.1" stroke-width="2" stroke-linecap="round"/>
<path d="M480.217 375.547H478.719V379.635H477.389V369.989H479.923C481.127 369.989 482.037 370.218 482.653 370.675C483.279 371.133 483.591 371.814 483.591 372.719C483.591 373.391 483.419 373.937 483.073 374.357C482.728 374.777 482.205 375.095 481.505 375.309L484.109 379.635H482.527L480.217 375.547ZM480.063 374.525C480.763 374.525 481.291 374.385 481.645 374.105C482 373.816 482.177 373.354 482.177 372.719C482.177 372.122 481.995 371.693 481.631 371.431C481.277 371.161 480.703 371.025 479.909 371.025H478.719V374.525H480.063ZM491.163 375.729C491.163 375.944 491.153 376.163 491.135 376.387H486.431C486.487 377.199 486.692 377.797 487.047 378.179C487.401 378.562 487.859 378.753 488.419 378.753C488.773 378.753 489.1 378.702 489.399 378.599C489.697 378.497 490.01 378.333 490.337 378.109L490.897 378.879C490.113 379.495 489.254 379.803 488.321 379.803C487.294 379.803 486.491 379.467 485.913 378.795C485.343 378.123 485.059 377.199 485.059 376.023C485.059 375.258 485.18 374.581 485.423 373.993C485.675 373.396 486.029 372.929 486.487 372.593C486.953 372.257 487.499 372.089 488.125 372.089C489.105 372.089 489.856 372.411 490.379 373.055C490.901 373.699 491.163 374.591 491.163 375.729ZM489.889 375.351C489.889 374.623 489.744 374.068 489.455 373.685C489.165 373.303 488.731 373.111 488.153 373.111C487.098 373.111 486.524 373.886 486.431 375.435H489.889V375.351ZM498.932 372.257V382.617L497.644 382.463V378.655C497.401 379.019 497.098 379.304 496.734 379.509C496.379 379.705 495.982 379.803 495.544 379.803C494.666 379.803 493.98 379.458 493.486 378.767C493 378.077 492.758 377.148 492.758 375.981C492.758 375.225 492.874 374.553 493.108 373.965C493.341 373.377 493.677 372.92 494.116 372.593C494.554 372.257 495.068 372.089 495.656 372.089C496.44 372.089 497.13 372.421 497.728 373.083L497.826 372.257H498.932ZM495.824 378.781C496.216 378.781 496.552 378.693 496.832 378.515C497.112 378.329 497.382 378.053 497.644 377.689V374.077C497.401 373.76 497.14 373.522 496.86 373.363C496.589 373.195 496.281 373.111 495.936 373.111C495.366 373.111 494.923 373.349 494.606 373.825C494.298 374.301 494.144 375.011 494.144 375.953C494.144 376.905 494.288 377.615 494.578 378.081C494.867 378.548 495.282 378.781 495.824 378.781ZM507.075 379.635H505.969L505.871 378.487C505.591 378.945 505.269 379.281 504.905 379.495C504.541 379.701 504.098 379.803 503.575 379.803C502.931 379.803 502.427 379.607 502.063 379.215C501.699 378.823 501.517 378.268 501.517 377.549V372.257H502.805V377.409C502.805 377.913 502.894 378.273 503.071 378.487C503.248 378.693 503.538 378.795 503.939 378.795C504.658 378.795 505.274 378.371 505.787 377.521V372.257H507.075V379.635ZM515.307 375.729C515.307 375.944 515.298 376.163 515.279 376.387H510.575C510.631 377.199 510.837 377.797 511.191 378.179C511.546 378.562 512.003 378.753 512.563 378.753C512.918 378.753 513.245 378.702 513.543 378.599C513.842 378.497 514.155 378.333 514.481 378.109L515.041 378.879C514.257 379.495 513.399 379.803 512.465 379.803C511.439 379.803 510.636 379.467 510.057 378.795C509.488 378.123 509.203 377.199 509.203 376.023C509.203 375.258 509.325 374.581 509.567 373.993C509.819 373.396 510.174 372.929 510.631 372.593C511.098 372.257 511.644 372.089 512.269 372.089C513.249 372.089 514.001 372.411 514.523 373.055C515.046 373.699 515.307 374.591 515.307 375.729ZM514.033 375.351C514.033 374.623 513.889 374.068 513.599 373.685C513.31 373.303 512.876 373.111 512.297 373.111C511.243 373.111 510.669 373.886 510.575 375.435H514.033V375.351ZM519.366 372.089C519.87 372.089 520.323 372.159 520.724 372.299C521.126 372.439 521.508 372.649 521.872 372.929L521.326 373.741C520.99 373.527 520.668 373.368 520.36 373.265C520.062 373.163 519.744 373.111 519.408 373.111C518.988 373.111 518.657 373.2 518.414 373.377C518.172 373.545 518.05 373.779 518.05 374.077C518.05 374.376 518.162 374.609 518.386 374.777C518.62 374.945 519.035 375.109 519.632 375.267C520.454 375.473 521.065 375.753 521.466 376.107C521.877 376.462 522.082 376.947 522.082 377.563C522.082 378.291 521.798 378.847 521.228 379.229C520.668 379.612 519.982 379.803 519.17 379.803C518.05 379.803 517.122 379.481 516.384 378.837L517.07 378.053C517.696 378.529 518.386 378.767 519.142 378.767C519.628 378.767 520.01 378.669 520.29 378.473C520.58 378.268 520.724 377.993 520.724 377.647C520.724 377.395 520.673 377.195 520.57 377.045C520.468 376.887 520.29 376.751 520.038 376.639C519.786 376.518 519.418 376.392 518.932 376.261C518.148 376.056 517.579 375.781 517.224 375.435C516.879 375.09 516.706 374.651 516.706 374.119C516.706 373.737 516.818 373.391 517.042 373.083C517.276 372.766 517.593 372.523 517.994 372.355C518.405 372.178 518.862 372.089 519.366 372.089ZM527.623 379.299C527.138 379.635 526.587 379.803 525.971 379.803C525.346 379.803 524.856 379.626 524.501 379.271C524.156 378.907 523.983 378.385 523.983 377.703V373.251H522.695V372.257H523.983V370.591L525.271 370.437V372.257H527.021L526.881 373.251H525.271V377.647C525.271 378.03 525.337 378.31 525.467 378.487C525.607 378.655 525.836 378.739 526.153 378.739C526.443 378.739 526.769 378.641 527.133 378.445L527.623 379.299ZM536.387 379.299C535.902 379.635 535.351 379.803 534.735 379.803C534.11 379.803 533.62 379.626 533.265 379.271C532.92 378.907 532.747 378.385 532.747 377.703V373.251H531.459V372.257H532.747V370.591L534.035 370.437V372.257H535.785L535.645 373.251H534.035V377.647C534.035 378.03 534.1 378.31 534.231 378.487C534.371 378.655 534.6 378.739 534.917 378.739C535.206 378.739 535.533 378.641 535.897 378.445L536.387 379.299ZM540.289 372.089C541.325 372.089 542.127 372.435 542.697 373.125C543.275 373.816 543.565 374.754 543.565 375.939C543.565 376.705 543.434 377.381 543.173 377.969C542.911 378.548 542.533 379.001 542.039 379.327C541.544 379.645 540.956 379.803 540.275 379.803C539.239 379.803 538.431 379.458 537.853 378.767C537.274 378.077 536.985 377.139 536.985 375.953C536.985 375.188 537.115 374.516 537.377 373.937C537.638 373.349 538.016 372.897 538.511 372.579C539.005 372.253 539.598 372.089 540.289 372.089ZM540.289 373.125C539.01 373.125 538.371 374.068 538.371 375.953C538.371 377.829 539.005 378.767 540.275 378.767C541.544 378.767 542.179 377.825 542.179 375.939C542.179 374.063 541.549 373.125 540.289 373.125ZM478.162 393.089C478.6 393.089 479.002 393.155 479.366 393.285C479.73 393.407 480.08 393.607 480.416 393.887L479.8 394.699C479.538 394.513 479.282 394.377 479.03 394.293C478.787 394.2 478.516 394.153 478.218 394.153C477.62 394.153 477.154 394.391 476.818 394.867C476.491 395.343 476.328 396.048 476.328 396.981C476.328 397.915 476.491 398.605 476.818 399.053C477.144 399.492 477.611 399.711 478.218 399.711C478.507 399.711 478.773 399.669 479.016 399.585C479.258 399.492 479.529 399.347 479.828 399.151L480.416 399.991C479.744 400.533 478.992 400.803 478.162 400.803C477.163 400.803 476.374 400.467 475.796 399.795C475.226 399.123 474.942 398.195 474.942 397.009C474.942 396.225 475.072 395.539 475.334 394.951C475.595 394.363 475.964 393.906 476.44 393.579C476.925 393.253 477.499 393.089 478.162 393.089ZM483.629 400.803C483.153 400.803 482.775 400.663 482.495 400.383C482.224 400.094 482.089 399.693 482.089 399.179V390.289L483.377 390.135V399.151C483.377 399.357 483.41 399.506 483.475 399.599C483.55 399.693 483.671 399.739 483.839 399.739C484.016 399.739 484.175 399.711 484.315 399.655L484.651 400.551C484.343 400.719 484.002 400.803 483.629 400.803ZM488.964 393.089C490 393.089 490.803 393.435 491.372 394.125C491.951 394.816 492.24 395.754 492.24 396.939C492.24 397.705 492.11 398.381 491.848 398.969C491.587 399.548 491.209 400.001 490.714 400.327C490.22 400.645 489.632 400.803 488.95 400.803C487.914 400.803 487.107 400.458 486.528 399.767C485.95 399.077 485.66 398.139 485.66 396.953C485.66 396.188 485.791 395.516 486.052 394.937C486.314 394.349 486.692 393.897 487.186 393.579C487.681 393.253 488.274 393.089 488.964 393.089ZM488.964 394.125C487.686 394.125 487.046 395.068 487.046 396.953C487.046 398.829 487.681 399.767 488.95 399.767C490.22 399.767 490.854 398.825 490.854 396.939C490.854 395.063 490.224 394.125 488.964 394.125ZM496.37 393.089C496.874 393.089 497.327 393.159 497.728 393.299C498.129 393.439 498.512 393.649 498.876 393.929L498.33 394.741C497.994 394.527 497.672 394.368 497.364 394.265C497.065 394.163 496.748 394.111 496.412 394.111C495.992 394.111 495.661 394.2 495.418 394.377C495.175 394.545 495.054 394.779 495.054 395.077C495.054 395.376 495.166 395.609 495.39 395.777C495.623 395.945 496.039 396.109 496.636 396.267C497.457 396.473 498.069 396.753 498.47 397.107C498.881 397.462 499.086 397.947 499.086 398.563C499.086 399.291 498.801 399.847 498.232 400.229C497.672 400.612 496.986 400.803 496.174 400.803C495.054 400.803 494.125 400.481 493.388 399.837L494.074 399.053C494.699 399.529 495.39 399.767 496.146 399.767C496.631 399.767 497.014 399.669 497.294 399.473C497.583 399.268 497.728 398.993 497.728 398.647C497.728 398.395 497.677 398.195 497.574 398.045C497.471 397.887 497.294 397.751 497.042 397.639C496.79 397.518 496.421 397.392 495.936 397.261C495.152 397.056 494.583 396.781 494.228 396.435C493.883 396.09 493.71 395.651 493.71 395.119C493.71 394.737 493.822 394.391 494.046 394.083C494.279 393.766 494.597 393.523 494.998 393.355C495.409 393.178 495.866 393.089 496.37 393.089ZM506.475 396.729C506.475 396.944 506.466 397.163 506.447 397.387H501.743C501.799 398.199 502.005 398.797 502.359 399.179C502.714 399.562 503.171 399.753 503.731 399.753C504.086 399.753 504.413 399.702 504.711 399.599C505.01 399.497 505.323 399.333 505.649 399.109L506.209 399.879C505.425 400.495 504.567 400.803 503.633 400.803C502.607 400.803 501.804 400.467 501.225 399.795C500.656 399.123 500.371 398.199 500.371 397.023C500.371 396.258 500.493 395.581 500.735 394.993C500.987 394.396 501.342 393.929 501.799 393.593C502.266 393.257 502.812 393.089 503.437 393.089C504.417 393.089 505.169 393.411 505.691 394.055C506.214 394.699 506.475 395.591 506.475 396.729ZM505.201 396.351C505.201 395.623 505.057 395.068 504.767 394.685C504.478 394.303 504.044 394.111 503.465 394.111C502.411 394.111 501.837 394.886 501.743 396.435H505.201V396.351ZM517.809 396.729C517.809 396.944 517.8 397.163 517.781 397.387H513.077C513.133 398.199 513.339 398.797 513.693 399.179C514.048 399.562 514.505 399.753 515.065 399.753C515.42 399.753 515.747 399.702 516.045 399.599C516.344 399.497 516.657 399.333 516.983 399.109L517.543 399.879C516.759 400.495 515.901 400.803 514.967 400.803C513.941 400.803 513.138 400.467 512.559 399.795C511.99 399.123 511.705 398.199 511.705 397.023C511.705 396.258 511.827 395.581 512.069 394.993C512.321 394.396 512.676 393.929 513.133 393.593C513.6 393.257 514.146 393.089 514.771 393.089C515.751 393.089 516.503 393.411 517.025 394.055C517.548 394.699 517.809 395.591 517.809 396.729ZM516.535 396.351C516.535 395.623 516.391 395.068 516.101 394.685C515.812 394.303 515.378 394.111 514.799 394.111C513.745 394.111 513.171 394.886 513.077 396.435H516.535V396.351ZM525.229 393.257L522.723 400.635H521.169L518.621 393.257H520.021L521.953 399.487L523.871 393.257H525.229ZM532.219 396.729C532.219 396.944 532.21 397.163 532.191 397.387H527.487C527.543 398.199 527.749 398.797 528.103 399.179C528.458 399.562 528.915 399.753 529.475 399.753C529.83 399.753 530.157 399.702 530.455 399.599C530.754 399.497 531.067 399.333 531.393 399.109L531.953 399.879C531.169 400.495 530.311 400.803 529.377 400.803C528.351 400.803 527.548 400.467 526.969 399.795C526.4 399.123 526.115 398.199 526.115 397.023C526.115 396.258 526.237 395.581 526.479 394.993C526.731 394.396 527.086 393.929 527.543 393.593C528.01 393.257 528.556 393.089 529.181 393.089C530.161 393.089 530.913 393.411 531.435 394.055C531.958 394.699 532.219 395.591 532.219 396.729ZM530.945 396.351C530.945 395.623 530.801 395.068 530.511 394.685C530.222 394.303 529.788 394.111 529.209 394.111C528.155 394.111 527.581 394.886 527.487 396.435H530.945V396.351ZM537.748 393.089C538.42 393.089 538.943 393.29 539.316 393.691C539.699 394.093 539.89 394.643 539.89 395.343V400.635H538.602V395.525C538.602 395.003 538.504 394.634 538.308 394.419C538.112 394.205 537.823 394.097 537.44 394.097C537.048 394.097 536.703 394.209 536.404 394.433C536.106 394.657 535.826 394.979 535.564 395.399V400.635H534.276V393.257H535.382L535.494 394.349C535.756 393.957 536.078 393.649 536.46 393.425C536.852 393.201 537.282 393.089 537.748 393.089ZM546.203 400.299C545.718 400.635 545.167 400.803 544.551 400.803C543.926 400.803 543.436 400.626 543.081 400.271C542.736 399.907 542.563 399.385 542.563 398.703V394.251H541.275V393.257H542.563V391.591L543.851 391.437V393.257H545.601L545.461 394.251H543.851V398.647C543.851 399.03 543.917 399.31 544.047 399.487C544.187 399.655 544.416 399.739 544.733 399.739C545.023 399.739 545.349 399.641 545.713 399.445L546.203 400.299Z" fill="#001826" fill-opacity="0.9"/>
<path d="M304.169 177.61C304.169 178.163 304.617 178.61 305.169 178.61C305.722 178.61 306.169 178.163 306.169 177.61H304.169ZM385.451 73.962C385.841 73.5715 385.841 72.9383 385.451 72.5478L379.087 66.1838C378.696 65.7933 378.063 65.7933 377.672 66.1838C377.282 66.5743 377.282 67.2075 377.672 67.598L383.329 73.2549L377.672 78.9117C377.282 79.3023 377.282 79.9354 377.672 80.326C378.063 80.7165 378.696 80.7165 379.087 80.326L385.451 73.962ZM306.169 177.61V76.2549H304.169V177.61H306.169ZM308.169 74.2549H384.743V72.2549H308.169V74.2549ZM306.169 76.2549C306.169 75.1503 307.065 74.2549 308.169 74.2549V72.2549C305.96 72.2549 304.169 74.0458 304.169 76.2549H306.169Z" fill="#004166" fill-opacity="0.1"/>
<path d="M501.626 72.2549C501.074 72.2549 500.626 72.7026 500.626 73.2549C500.626 73.8072 501.074 74.2549 501.626 74.2549V72.2549ZM544.325 73.962C544.716 73.5715 544.716 72.9383 544.325 72.5478L537.961 66.1838C537.571 65.7933 536.938 65.7933 536.547 66.1838C536.157 66.5743 536.157 67.2075 536.547 67.598L542.204 73.2549L536.547 78.9117C536.157 79.3023 536.157 79.9354 536.547 80.326C536.938 80.7165 537.571 80.7165 537.961 80.326L544.325 73.962ZM501.626 74.2549H543.618V72.2549H501.626V74.2549Z" fill="#004166" fill-opacity="0.1"/>
<path d="M96.0889 231.755C95.5366 231.755 95.0889 232.203 95.0889 232.755C95.0889 233.308 95.5366 233.755 96.0889 233.755V231.755ZM125.75 233.462C126.14 233.072 126.14 232.439 125.75 232.048L119.386 225.684C118.995 225.294 118.362 225.294 117.972 225.684C117.581 226.075 117.581 226.708 117.972 227.098L123.628 232.755L117.972 238.412C117.581 238.803 117.581 239.436 117.972 239.826C118.362 240.217 118.995 240.217 119.386 239.826L125.75 233.462ZM96.0889 233.755H125.043V231.755H96.0889V233.755Z" fill="#004166" fill-opacity="0.1"/>
<path d="M224.631 231.685C224.079 231.685 223.631 232.133 223.631 232.685C223.631 233.237 224.079 233.685 224.631 233.685V231.685ZM254.293 233.392C254.683 233.002 254.683 232.368 254.293 231.978L247.929 225.614C247.538 225.223 246.905 225.223 246.515 225.614C246.124 226.005 246.124 226.638 246.515 227.028L252.171 232.685L246.515 238.342C246.124 238.732 246.124 239.366 246.515 239.756C246.905 240.147 247.538 240.147 247.929 239.756L254.293 233.392ZM224.631 233.685H253.586V231.685H224.631V233.685Z" fill="#004166" fill-opacity="0.1"/>
<ellipse cx="444.216" cy="232.685" rx="53.9411" ry="57.3178" fill="white" stroke="#004166" stroke-opacity="0.1" stroke-width="2" stroke-linecap="round"/>
<path d="M433.202 216.553C433.846 216.553 434.397 216.647 434.854 216.833C435.312 217.011 435.755 217.291 436.184 217.673L435.456 218.485C435.092 218.196 434.733 217.986 434.378 217.855C434.033 217.715 433.66 217.645 433.258 217.645C432.754 217.645 432.339 217.762 432.012 217.995C431.686 218.229 431.522 218.569 431.522 219.017C431.522 219.297 431.578 219.535 431.69 219.731C431.802 219.918 432.008 220.091 432.306 220.249C432.614 220.408 433.058 220.576 433.636 220.753C434.243 220.94 434.747 221.141 435.148 221.355C435.55 221.57 435.872 221.869 436.114 222.251C436.366 222.625 436.492 223.101 436.492 223.679C436.492 224.239 436.352 224.734 436.072 225.163C435.802 225.593 435.405 225.929 434.882 226.171C434.369 226.414 433.758 226.535 433.048 226.535C431.714 226.535 430.622 226.12 429.772 225.289L430.5 224.477C430.892 224.795 431.289 225.037 431.69 225.205C432.092 225.364 432.54 225.443 433.034 225.443C433.632 225.443 434.126 225.299 434.518 225.009C434.91 224.711 435.106 224.281 435.106 223.721C435.106 223.404 435.046 223.143 434.924 222.937C434.803 222.723 434.593 222.531 434.294 222.363C434.005 222.195 433.58 222.027 433.02 221.859C432.031 221.561 431.308 221.201 430.85 220.781C430.393 220.361 430.164 219.792 430.164 219.073C430.164 218.588 430.29 218.154 430.542 217.771C430.804 217.389 431.163 217.09 431.62 216.875C432.087 216.661 432.614 216.553 433.202 216.553ZM442.105 226.031C441.62 226.367 441.069 226.535 440.453 226.535C439.828 226.535 439.338 226.358 438.983 226.003C438.638 225.639 438.465 225.117 438.465 224.435V219.983H437.177V218.989H438.465V217.323L439.753 217.169V218.989H441.503L441.363 219.983H439.753V224.379C439.753 224.762 439.819 225.042 439.949 225.219C440.089 225.387 440.318 225.471 440.635 225.471C440.925 225.471 441.251 225.373 441.615 225.177L442.105 226.031ZM448.314 224.645C448.314 224.944 448.365 225.168 448.468 225.317C448.571 225.457 448.725 225.565 448.93 225.639L448.636 226.535C448.253 226.489 447.945 226.381 447.712 226.213C447.479 226.045 447.306 225.784 447.194 225.429C446.699 226.167 445.967 226.535 444.996 226.535C444.268 226.535 443.694 226.33 443.274 225.919C442.854 225.509 442.644 224.972 442.644 224.309C442.644 223.525 442.924 222.923 443.484 222.503C444.053 222.083 444.856 221.873 445.892 221.873H447.026V221.327C447.026 220.805 446.9 220.431 446.648 220.207C446.396 219.983 446.009 219.871 445.486 219.871C444.945 219.871 444.282 220.002 443.498 220.263L443.176 219.325C444.091 218.989 444.94 218.821 445.724 218.821C446.592 218.821 447.241 219.036 447.67 219.465C448.099 219.885 448.314 220.487 448.314 221.271V224.645ZM445.29 225.569C446.027 225.569 446.606 225.187 447.026 224.421V222.727H446.06C444.697 222.727 444.016 223.231 444.016 224.239C444.016 224.678 444.123 225.009 444.338 225.233C444.553 225.457 444.87 225.569 445.29 225.569ZM453.465 216.903C453.073 216.903 452.793 216.992 452.625 217.169C452.457 217.337 452.373 217.603 452.373 217.967V218.989H454.165L454.025 219.983H452.373V226.367H451.085V219.983H449.769V218.989H451.085V217.981C451.085 217.347 451.286 216.838 451.687 216.455C452.098 216.063 452.667 215.867 453.395 215.867C453.731 215.867 454.03 215.9 454.291 215.965C454.562 216.021 454.851 216.115 455.159 216.245L454.753 217.183C454.333 216.997 453.904 216.903 453.465 216.903ZM458.155 216.903C457.763 216.903 457.483 216.992 457.315 217.169C457.147 217.337 457.063 217.603 457.063 217.967V218.989H458.855L458.715 219.983H457.063V226.367H455.775V219.983H454.459V218.989H455.775V217.981C455.775 217.347 455.976 216.838 456.377 216.455C456.788 216.063 457.357 215.867 458.085 215.867C458.421 215.867 458.72 215.9 458.981 215.965C459.252 216.021 459.541 216.115 459.849 216.245L459.443 217.183C459.023 216.997 458.594 216.903 458.155 216.903ZM424.579 239.821C424.841 239.821 425.083 239.849 425.307 239.905L425.069 241.165C424.845 241.109 424.631 241.081 424.425 241.081C423.968 241.081 423.599 241.249 423.319 241.585C423.039 241.921 422.82 242.444 422.661 243.153V247.367H421.373V239.989H422.479L422.605 241.487C422.801 240.937 423.067 240.521 423.403 240.241C423.739 239.961 424.131 239.821 424.579 239.821ZM431.922 243.461C431.922 243.676 431.913 243.895 431.894 244.119H427.19C427.246 244.931 427.451 245.529 427.806 245.911C428.161 246.294 428.618 246.485 429.178 246.485C429.533 246.485 429.859 246.434 430.158 246.331C430.457 246.229 430.769 246.065 431.096 245.841L431.656 246.611C430.872 247.227 430.013 247.535 429.08 247.535C428.053 247.535 427.251 247.199 426.672 246.527C426.103 245.855 425.818 244.931 425.818 243.755C425.818 242.99 425.939 242.313 426.182 241.725C426.434 241.128 426.789 240.661 427.246 240.325C427.713 239.989 428.259 239.821 428.884 239.821C429.864 239.821 430.615 240.143 431.138 240.787C431.661 241.431 431.922 242.323 431.922 243.461ZM430.648 243.083C430.648 242.355 430.503 241.8 430.214 241.417C429.925 241.035 429.491 240.843 428.912 240.843C427.857 240.843 427.283 241.618 427.19 243.167H430.648V243.083ZM439.691 239.989V250.349L438.403 250.195V246.387C438.16 246.751 437.857 247.036 437.493 247.241C437.138 247.437 436.742 247.535 436.303 247.535C435.426 247.535 434.74 247.19 434.245 246.499C433.76 245.809 433.517 244.88 433.517 243.713C433.517 242.957 433.634 242.285 433.867 241.697C434.1 241.109 434.436 240.652 434.875 240.325C435.314 239.989 435.827 239.821 436.415 239.821C437.199 239.821 437.89 240.153 438.487 240.815L438.585 239.989H439.691ZM436.583 246.513C436.975 246.513 437.311 246.425 437.591 246.247C437.871 246.061 438.142 245.785 438.403 245.421V241.809C438.16 241.492 437.899 241.254 437.619 241.095C437.348 240.927 437.04 240.843 436.695 240.843C436.126 240.843 435.682 241.081 435.365 241.557C435.057 242.033 434.903 242.743 434.903 243.685C434.903 244.637 435.048 245.347 435.337 245.813C435.626 246.28 436.042 246.513 436.583 246.513ZM447.834 247.367H446.728L446.63 246.219C446.35 246.677 446.028 247.013 445.664 247.227C445.3 247.433 444.857 247.535 444.334 247.535C443.69 247.535 443.186 247.339 442.822 246.947C442.458 246.555 442.276 246 442.276 245.281V239.989H443.564V245.141C443.564 245.645 443.653 246.005 443.83 246.219C444.007 246.425 444.297 246.527 444.698 246.527C445.417 246.527 446.033 246.103 446.546 245.253V239.989H447.834V247.367ZM456.067 243.461C456.067 243.676 456.057 243.895 456.039 244.119H451.335C451.391 244.931 451.596 245.529 451.951 245.911C452.305 246.294 452.763 246.485 453.323 246.485C453.677 246.485 454.004 246.434 454.303 246.331C454.601 246.229 454.914 246.065 455.241 245.841L455.801 246.611C455.017 247.227 454.158 247.535 453.225 247.535C452.198 247.535 451.395 247.199 450.817 246.527C450.247 245.855 449.963 244.931 449.963 243.755C449.963 242.99 450.084 242.313 450.327 241.725C450.579 241.128 450.933 240.661 451.391 240.325C451.857 239.989 452.403 239.821 453.029 239.821C454.009 239.821 454.76 240.143 455.283 240.787C455.805 241.431 456.067 242.323 456.067 243.461ZM454.793 243.083C454.793 242.355 454.648 241.8 454.359 241.417C454.069 241.035 453.635 240.843 453.057 240.843C452.002 240.843 451.428 241.618 451.335 243.167H454.793V243.083ZM460.125 239.821C460.629 239.821 461.082 239.891 461.483 240.031C461.885 240.171 462.267 240.381 462.631 240.661L462.085 241.473C461.749 241.259 461.427 241.1 461.119 240.997C460.821 240.895 460.503 240.843 460.167 240.843C459.747 240.843 459.416 240.932 459.173 241.109C458.931 241.277 458.809 241.511 458.809 241.809C458.809 242.108 458.921 242.341 459.145 242.509C459.379 242.677 459.794 242.841 460.391 242.999C461.213 243.205 461.824 243.485 462.225 243.839C462.636 244.194 462.841 244.679 462.841 245.295C462.841 246.023 462.557 246.579 461.987 246.961C461.427 247.344 460.741 247.535 459.929 247.535C458.809 247.535 457.881 247.213 457.143 246.569L457.829 245.785C458.455 246.261 459.145 246.499 459.901 246.499C460.387 246.499 460.769 246.401 461.049 246.205C461.339 246 461.483 245.725 461.483 245.379C461.483 245.127 461.432 244.927 461.329 244.777C461.227 244.619 461.049 244.483 460.797 244.371C460.545 244.25 460.177 244.124 459.691 243.993C458.907 243.788 458.338 243.513 457.983 243.167C457.638 242.822 457.465 242.383 457.465 241.851C457.465 241.469 457.577 241.123 457.801 240.815C458.035 240.498 458.352 240.255 458.753 240.087C459.164 239.91 459.621 239.821 460.125 239.821ZM468.383 247.031C467.897 247.367 467.347 247.535 466.731 247.535C466.105 247.535 465.615 247.358 465.261 247.003C464.915 246.639 464.743 246.117 464.743 245.435V240.983H463.455V239.989H464.743V238.323L466.031 238.169V239.989H467.781L467.641 240.983H466.031V245.379C466.031 245.762 466.096 246.042 466.227 246.219C466.367 246.387 466.595 246.471 466.913 246.471C467.202 246.471 467.529 246.373 467.893 246.177L468.383 247.031Z" fill="#001826" fill-opacity="0.9"/>
<ellipse cx="599.639" cy="233.167" rx="53.9411" ry="57.7994" fill="white" stroke="#004166" stroke-opacity="0.1" stroke-width="2" stroke-linecap="round"/>
<path d="M587.586 227.367V217.721H592.71L592.556 218.785H588.916V222.075H592.066V223.125H588.916V227.367H587.586ZM595.189 219.989V227.367H593.901V219.989H595.189ZM594.531 216.447C594.801 216.447 595.021 216.531 595.189 216.699C595.357 216.867 595.441 217.077 595.441 217.329C595.441 217.581 595.357 217.791 595.189 217.959C595.021 218.118 594.801 218.197 594.531 218.197C594.269 218.197 594.055 218.118 593.887 217.959C593.719 217.791 593.635 217.581 593.635 217.329C593.635 217.077 593.719 216.867 593.887 216.699C594.055 216.531 594.269 216.447 594.531 216.447ZM601.324 219.821C601.996 219.821 602.519 220.022 602.892 220.423C603.275 220.825 603.466 221.375 603.466 222.075V227.367H602.178V222.257C602.178 221.735 602.08 221.366 601.884 221.151C601.688 220.937 601.399 220.829 601.016 220.829C600.624 220.829 600.279 220.941 599.98 221.165C599.681 221.389 599.401 221.711 599.14 222.131V227.367H597.852V219.989H598.958L599.07 221.081C599.331 220.689 599.653 220.381 600.036 220.157C600.428 219.933 600.857 219.821 601.324 219.821ZM611.767 217.021V227.367H610.633L610.507 226.345C610.264 226.719 609.961 227.013 609.597 227.227C609.233 227.433 608.827 227.535 608.379 227.535C607.502 227.535 606.816 227.19 606.321 226.499C605.836 225.809 605.593 224.88 605.593 223.713C605.593 222.957 605.71 222.285 605.943 221.697C606.176 221.109 606.512 220.652 606.951 220.325C607.39 219.989 607.903 219.821 608.491 219.821C609.247 219.821 609.91 220.125 610.479 220.731V216.867L611.767 217.021ZM608.659 226.513C609.051 226.513 609.387 226.425 609.667 226.247C609.947 226.061 610.218 225.785 610.479 225.421V221.809C610.236 221.492 609.975 221.254 609.695 221.095C609.424 220.927 609.116 220.843 608.771 220.843C608.202 220.843 607.758 221.081 607.441 221.557C607.133 222.033 606.979 222.743 606.979 223.685C606.979 224.637 607.124 225.347 607.413 225.813C607.702 226.28 608.118 226.513 608.659 226.513ZM572.082 240.821C572.521 240.821 572.922 240.887 573.286 241.017C573.65 241.139 574 241.339 574.336 241.619L573.72 242.431C573.459 242.245 573.202 242.109 572.95 242.025C572.707 241.932 572.437 241.885 572.138 241.885C571.541 241.885 571.074 242.123 570.738 242.599C570.411 243.075 570.248 243.78 570.248 244.713C570.248 245.647 570.411 246.337 570.738 246.785C571.065 247.224 571.531 247.443 572.138 247.443C572.427 247.443 572.693 247.401 572.936 247.317C573.179 247.224 573.449 247.079 573.748 246.883L574.336 247.723C573.664 248.265 572.913 248.535 572.082 248.535C571.083 248.535 570.295 248.199 569.716 247.527C569.147 246.855 568.862 245.927 568.862 244.741C568.862 243.957 568.993 243.271 569.254 242.683C569.515 242.095 569.884 241.638 570.36 241.311C570.845 240.985 571.419 240.821 572.082 240.821ZM580.913 246.645C580.913 246.944 580.964 247.168 581.067 247.317C581.169 247.457 581.323 247.565 581.529 247.639L581.235 248.535C580.852 248.489 580.544 248.381 580.311 248.213C580.077 248.045 579.905 247.784 579.793 247.429C579.298 248.167 578.565 248.535 577.595 248.535C576.867 248.535 576.293 248.33 575.873 247.919C575.453 247.509 575.243 246.972 575.243 246.309C575.243 245.525 575.523 244.923 576.083 244.503C576.652 244.083 577.455 243.873 578.491 243.873H579.625V243.327C579.625 242.805 579.499 242.431 579.247 242.207C578.995 241.983 578.607 241.871 578.085 241.871C577.543 241.871 576.881 242.002 576.097 242.263L575.775 241.325C576.689 240.989 577.539 240.821 578.323 240.821C579.191 240.821 579.839 241.036 580.269 241.465C580.698 241.885 580.913 242.487 580.913 243.271V246.645ZM577.889 247.569C578.626 247.569 579.205 247.187 579.625 246.421V244.727H578.659C577.296 244.727 576.615 245.231 576.615 246.239C576.615 246.678 576.722 247.009 576.937 247.233C577.151 247.457 577.469 247.569 577.889 247.569ZM587.03 240.821C587.702 240.821 588.225 241.022 588.598 241.423C588.981 241.825 589.172 242.375 589.172 243.075V248.367H587.884V243.257C587.884 242.735 587.786 242.366 587.59 242.151C587.394 241.937 587.105 241.829 586.722 241.829C586.33 241.829 585.985 241.941 585.686 242.165C585.387 242.389 585.107 242.711 584.846 243.131V248.367H583.558V240.989H584.664L584.776 242.081C585.037 241.689 585.359 241.381 585.742 241.157C586.134 240.933 586.563 240.821 587.03 240.821ZM597.473 238.021V248.367H596.339L596.213 247.345C595.97 247.719 595.667 248.013 595.303 248.227C594.939 248.433 594.533 248.535 594.085 248.535C593.208 248.535 592.522 248.19 592.027 247.499C591.542 246.809 591.299 245.88 591.299 244.713C591.299 243.957 591.416 243.285 591.649 242.697C591.882 242.109 592.218 241.652 592.657 241.325C593.096 240.989 593.609 240.821 594.197 240.821C594.953 240.821 595.616 241.125 596.185 241.731V237.867L597.473 238.021ZM594.365 247.513C594.757 247.513 595.093 247.425 595.373 247.247C595.653 247.061 595.924 246.785 596.185 246.421V242.809C595.942 242.492 595.681 242.254 595.401 242.095C595.13 241.927 594.822 241.843 594.477 241.843C593.908 241.843 593.464 242.081 593.147 242.557C592.839 243.033 592.685 243.743 592.685 244.685C592.685 245.637 592.83 246.347 593.119 246.813C593.408 247.28 593.824 247.513 594.365 247.513ZM601.416 240.989V248.367H600.128V240.989H601.416ZM600.758 237.447C601.029 237.447 601.248 237.531 601.416 237.699C601.584 237.867 601.668 238.077 601.668 238.329C601.668 238.581 601.584 238.791 601.416 238.959C601.248 239.118 601.029 239.197 600.758 239.197C600.497 239.197 600.282 239.118 600.114 238.959C599.946 238.791 599.862 238.581 599.862 238.329C599.862 238.077 599.946 237.867 600.114 237.699C600.282 237.531 600.497 237.447 600.758 237.447ZM609.792 238.021V248.367H608.658L608.532 247.345C608.289 247.719 607.986 248.013 607.622 248.227C607.258 248.433 606.852 248.535 606.404 248.535C605.526 248.535 604.84 248.19 604.346 247.499C603.86 246.809 603.618 245.88 603.618 244.713C603.618 243.957 603.734 243.285 603.968 242.697C604.201 242.109 604.537 241.652 604.976 241.325C605.414 240.989 605.928 240.821 606.516 240.821C607.272 240.821 607.934 241.125 608.504 241.731V237.867L609.792 238.021ZM606.684 247.513C607.076 247.513 607.412 247.425 607.692 247.247C607.972 247.061 608.242 246.785 608.504 246.421V242.809C608.261 242.492 608 242.254 607.72 242.095C607.449 241.927 607.141 241.843 606.796 241.843C606.226 241.843 605.783 242.081 605.466 242.557C605.158 243.033 605.004 243.743 605.004 244.685C605.004 245.637 605.148 246.347 605.438 246.813C605.727 247.28 606.142 247.513 606.684 247.513ZM617.417 246.645C617.417 246.944 617.468 247.168 617.571 247.317C617.673 247.457 617.827 247.565 618.033 247.639L617.739 248.535C617.356 248.489 617.048 248.381 616.815 248.213C616.581 248.045 616.409 247.784 616.297 247.429C615.802 248.167 615.069 248.535 614.099 248.535C613.371 248.535 612.797 248.33 612.377 247.919C611.957 247.509 611.747 246.972 611.747 246.309C611.747 245.525 612.027 244.923 612.587 244.503C613.156 244.083 613.959 243.873 614.995 243.873H616.129V243.327C616.129 242.805 616.003 242.431 615.751 242.207C615.499 241.983 615.111 241.871 614.589 241.871C614.047 241.871 613.385 242.002 612.601 242.263L612.279 241.325C613.193 240.989 614.043 240.821 614.827 240.821C615.695 240.821 616.343 241.036 616.773 241.465C617.202 241.885 617.417 242.487 617.417 243.271V246.645ZM614.393 247.569C615.13 247.569 615.709 247.187 616.129 246.421V244.727H615.163C613.8 244.727 613.119 245.231 613.119 246.239C613.119 246.678 613.226 247.009 613.441 247.233C613.655 247.457 613.973 247.569 614.393 247.569ZM623.786 248.031C623.301 248.367 622.75 248.535 622.134 248.535C621.509 248.535 621.019 248.358 620.664 248.003C620.319 247.639 620.146 247.117 620.146 246.435V241.983H618.858V240.989H620.146V239.323L621.434 239.169V240.989H623.184L623.044 241.983H621.434V246.379C621.434 246.762 621.499 247.042 621.63 247.219C621.77 247.387 621.999 247.471 622.316 247.471C622.605 247.471 622.932 247.373 623.296 247.177L623.786 248.031ZM630.487 244.461C630.487 244.676 630.478 244.895 630.459 245.119H625.755C625.811 245.931 626.017 246.529 626.371 246.911C626.726 247.294 627.183 247.485 627.743 247.485C628.098 247.485 628.425 247.434 628.723 247.331C629.022 247.229 629.335 247.065 629.661 246.841L630.221 247.611C629.437 248.227 628.579 248.535 627.645 248.535C626.619 248.535 625.816 248.199 625.237 247.527C624.668 246.855 624.383 245.931 624.383 244.755C624.383 243.99 624.505 243.313 624.747 242.725C624.999 242.128 625.354 241.661 625.811 241.325C626.278 240.989 626.824 240.821 627.449 240.821C628.429 240.821 629.181 241.143 629.703 241.787C630.226 242.431 630.487 243.323 630.487 244.461ZM629.213 244.083C629.213 243.355 629.069 242.8 628.779 242.417C628.49 242.035 628.056 241.843 627.477 241.843C626.423 241.843 625.849 242.618 625.755 244.167H629.213V244.083Z" fill="#001826" fill-opacity="0.9"/>
<path d="M357.254 231.185C356.425 231.185 355.754 231.857 355.754 232.685C355.754 233.513 356.425 234.185 357.254 234.185V231.185ZM386.335 233.746C386.921 233.16 386.921 232.21 386.335 231.624L376.789 222.078C376.203 221.493 375.254 221.493 374.668 222.078C374.082 222.664 374.082 223.614 374.668 224.2L383.153 232.685L374.668 241.17C374.082 241.756 374.082 242.706 374.668 243.292C375.254 243.877 376.203 243.877 376.789 243.292L386.335 233.746ZM357.254 234.185H385.274V231.185H357.254V234.185Z" fill="#004166" fill-opacity="0.1"/>
<path d="M502.657 232.167C502.104 232.167 501.657 232.614 501.657 233.167C501.657 233.719 502.104 234.167 502.657 234.167V232.167ZM541.905 233.874C542.296 233.483 542.296 232.85 541.905 232.459L535.541 226.095C535.151 225.705 534.518 225.705 534.127 226.095C533.737 226.486 533.737 227.119 534.127 227.51L539.784 233.167L534.127 238.823C533.737 239.214 533.737 239.847 534.127 240.238C534.518 240.628 535.151 240.628 535.541 240.238L541.905 233.874ZM502.657 234.167H541.198V232.167H502.657V234.167Z" fill="#004166" fill-opacity="0.1"/>
<path d="M660.5 72.2551C659.948 72.2551 659.5 72.7028 659.5 73.2551C659.5 73.8074 659.948 74.2551 660.5 74.2551V72.2551ZM567.91 384.728C567.52 385.118 567.52 385.752 567.91 386.142L574.274 392.506C574.665 392.897 575.298 392.897 575.688 392.506C576.079 392.116 576.079 391.482 575.688 391.092L570.031 385.435L575.688 379.778C576.079 379.388 576.079 378.755 575.688 378.364C575.298 377.973 574.665 377.973 574.274 378.364L567.91 384.728ZM660.5 74.2551H685V72.2551H660.5V74.2551ZM687 76.2551V382.435H689V76.2551H687ZM685 384.435H568.617V386.435H685V384.435ZM687 382.435C687 383.54 686.105 384.435 685 384.435V386.435C687.21 386.435 689 384.644 689 382.435H687ZM685 74.2551C686.105 74.2551 687 75.1506 687 76.2551H689C689 74.046 687.21 72.2551 685 72.2551V74.2551Z" fill="#004166" fill-opacity="0.1"/>
<path d="M658.081 232.167C657.528 232.167 657.081 232.614 657.081 233.167C657.081 233.719 657.528 234.167 658.081 234.167V232.167ZM567.91 384.728C567.52 385.118 567.52 385.751 567.91 386.142L574.274 392.506C574.665 392.896 575.298 392.896 575.688 392.506C576.079 392.115 576.079 391.482 575.688 391.092L570.031 385.435L575.688 379.778C576.079 379.387 576.079 378.754 575.688 378.364C575.298 377.973 574.665 377.973 574.274 378.364L567.91 384.728ZM658.081 234.167H662.812V232.167H658.081V234.167ZM664.812 236.167V382.435H666.812V236.167H664.812ZM662.812 384.435H568.617V386.435H662.812V384.435ZM664.812 382.435C664.812 383.539 663.917 384.435 662.812 384.435V386.435C665.021 386.435 666.812 384.644 666.812 382.435H664.812ZM662.812 234.167C663.917 234.167 664.812 235.062 664.812 236.167H666.812C666.812 233.957 665.021 232.167 662.812 232.167V234.167Z" fill="#004166" fill-opacity="0.1"/>
</svg>
