<svg width="689" height="504" viewBox="0 0 689 504" fill="none" xmlns="http://www.w3.org/2000/svg">
<ellipse cx="37.8337" cy="92.7385" rx="36.8337" ry="37.2571" fill="white" stroke="#004166" stroke-opacity="0.1" stroke-width="2" stroke-linecap="round"/>
<path d="M20.1555 87.1674C20.7995 87.1674 21.3502 87.2608 21.8075 87.4474C22.2648 87.6248 22.7082 87.9048 23.1375 88.2874L22.4095 89.0994C22.0455 88.8101 21.6862 88.6001 21.3315 88.4694C20.9862 88.3294 20.6128 88.2594 20.2115 88.2594C19.7075 88.2594 19.2922 88.3761 18.9655 88.6094C18.6388 88.8428 18.4755 89.1834 18.4755 89.6314C18.4755 89.9114 18.5315 90.1494 18.6435 90.3454C18.7555 90.5321 18.9608 90.7048 19.2595 90.8634C19.5675 91.0221 20.0108 91.1901 20.5895 91.3674C21.1962 91.5541 21.7002 91.7548 22.1015 91.9694C22.5028 92.1841 22.8248 92.4828 23.0675 92.8654C23.3195 93.2388 23.4455 93.7148 23.4455 94.2934C23.4455 94.8534 23.3055 95.3481 23.0255 95.7774C22.7548 96.2068 22.3582 96.5428 21.8355 96.7854C21.3222 97.0281 20.7108 97.1494 20.0015 97.1494C18.6668 97.1494 17.5748 96.7341 16.7255 95.9034L17.4535 95.0914C17.8455 95.4088 18.2422 95.6514 18.6435 95.8194C19.0448 95.9781 19.4928 96.0574 19.9875 96.0574C20.5848 96.0574 21.0795 95.9128 21.4715 95.6234C21.8635 95.3248 22.0595 94.8954 22.0595 94.3354C22.0595 94.0181 21.9988 93.7568 21.8775 93.5514C21.7562 93.3368 21.5462 93.1454 21.2475 92.9774C20.9582 92.8094 20.5335 92.6414 19.9735 92.4734C18.9842 92.1748 18.2608 91.8154 17.8035 91.3954C17.3462 90.9754 17.1175 90.4061 17.1175 89.6874C17.1175 89.2021 17.2435 88.7681 17.4955 88.3854C17.7568 88.0028 18.1162 87.7041 18.5735 87.4894C19.0402 87.2748 19.5675 87.1674 20.1555 87.1674ZM26.6224 89.6034V96.9814H25.3344V89.6034H26.6224ZM25.9644 86.0614C26.2351 86.0614 26.4544 86.1454 26.6224 86.3134C26.7904 86.4814 26.8744 86.6914 26.8744 86.9434C26.8744 87.1954 26.7904 87.4054 26.6224 87.5734C26.4544 87.7321 26.2351 87.8114 25.9644 87.8114C25.7031 87.8114 25.4884 87.7321 25.3204 87.5734C25.1524 87.4054 25.0684 87.1954 25.0684 86.9434C25.0684 86.6914 25.1524 86.4814 25.3204 86.3134C25.4884 86.1454 25.7031 86.0614 25.9644 86.0614ZM35.2356 89.9394C34.9556 90.0328 34.6476 90.0934 34.3116 90.1214C33.9756 90.1494 33.5649 90.1634 33.0796 90.1634C33.9476 90.5554 34.3816 91.1761 34.3816 92.0254C34.3816 92.7628 34.1296 93.3648 33.6256 93.8314C33.1216 94.2981 32.4356 94.5314 31.5676 94.5314C31.2316 94.5314 30.9189 94.4848 30.6296 94.3914C30.5176 94.4661 30.4289 94.5688 30.3636 94.6994C30.2982 94.8208 30.2656 94.9468 30.2656 95.0774C30.2656 95.4788 30.5876 95.6794 31.2316 95.6794H32.4076C32.9022 95.6794 33.3409 95.7681 33.7236 95.9454C34.1062 96.1228 34.4002 96.3654 34.6056 96.6734C34.8202 96.9814 34.9276 97.3314 34.9276 97.7234C34.9276 98.4421 34.6336 98.9928 34.0456 99.3754C33.4576 99.7674 32.5989 99.9634 31.4696 99.9634C30.6762 99.9634 30.0462 99.8794 29.5796 99.7114C29.1222 99.5528 28.7956 99.3101 28.5996 98.9834C28.4036 98.6568 28.3056 98.2368 28.3056 97.7234H29.4676C29.4676 98.0221 29.5236 98.2554 29.6356 98.4234C29.7476 98.6008 29.9482 98.7314 30.2376 98.8154C30.5269 98.9088 30.9376 98.9554 31.4696 98.9554C32.2442 98.9554 32.7949 98.8574 33.1216 98.6614C33.4576 98.4748 33.6256 98.1901 33.6256 97.8074C33.6256 97.4621 33.4949 97.2008 33.2336 97.0234C32.9722 96.8461 32.6082 96.7574 32.1416 96.7574H30.9796C30.3542 96.7574 29.8782 96.6268 29.5516 96.3654C29.2342 96.0948 29.0756 95.7588 29.0756 95.3574C29.0756 95.1148 29.1456 94.8814 29.2856 94.6574C29.4256 94.4334 29.6262 94.2328 29.8876 94.0554C29.4582 93.8314 29.1409 93.5561 28.9356 93.2294C28.7396 92.8934 28.6416 92.4874 28.6416 92.0114C28.6416 91.5168 28.7629 91.0734 29.0056 90.6814C29.2576 90.2894 29.5982 89.9861 30.0276 89.7714C30.4662 89.5474 30.9516 89.4354 31.4836 89.4354C32.0622 89.4448 32.5476 89.4261 32.9396 89.3794C33.3316 89.3234 33.6536 89.2534 33.9056 89.1694C34.1669 89.0761 34.4842 88.9454 34.8576 88.7774L35.2356 89.9394ZM31.4836 90.3594C30.9982 90.3594 30.6202 90.5134 30.3496 90.8214C30.0882 91.1201 29.9576 91.5168 29.9576 92.0114C29.9576 92.5154 30.0929 92.9214 30.3636 93.2294C30.6342 93.5281 31.0169 93.6774 31.5116 93.6774C32.0156 93.6774 32.3982 93.5328 32.6596 93.2434C32.9302 92.9448 33.0656 92.5294 33.0656 91.9974C33.0656 90.9054 32.5382 90.3594 31.4836 90.3594ZM40.031 89.4354C40.703 89.4354 41.2257 89.6361 41.599 90.0374C41.9817 90.4388 42.173 90.9894 42.173 91.6894V96.9814H40.885V91.8714C40.885 91.3488 40.787 90.9801 40.591 90.7654C40.395 90.5508 40.1057 90.4434 39.723 90.4434C39.331 90.4434 38.9857 90.5554 38.687 90.7794C38.3883 91.0034 38.1083 91.3254 37.847 91.7454V96.9814H36.559V89.6034H37.665L37.777 90.6954C38.0383 90.3034 38.3603 89.9954 38.743 89.7714C39.135 89.5474 39.5643 89.4354 40.031 89.4354ZM49.7552 89.6034V96.9814H48.4672V89.6034H49.7552ZM49.0972 86.0614C49.3679 86.0614 49.5872 86.1454 49.7552 86.3134C49.9232 86.4814 50.0072 86.6914 50.0072 86.9434C50.0072 87.1954 49.9232 87.4054 49.7552 87.5734C49.5872 87.7321 49.3679 87.8114 49.0972 87.8114C48.8359 87.8114 48.6212 87.7321 48.4532 87.5734C48.2852 87.4054 48.2012 87.1954 48.2012 86.9434C48.2012 86.6914 48.2852 86.4814 48.4532 86.3134C48.6212 86.1454 48.8359 86.0614 49.0972 86.0614ZM55.8904 89.4354C56.5624 89.4354 57.085 89.6361 57.4584 90.0374C57.841 90.4388 58.0324 90.9894 58.0324 91.6894V96.9814H56.7444V91.8714C56.7444 91.3488 56.6464 90.9801 56.4504 90.7654C56.2544 90.5508 55.965 90.4434 55.5824 90.4434C55.1904 90.4434 54.845 90.5554 54.5464 90.7794C54.2477 91.0034 53.9677 91.3254 53.7064 91.7454V96.9814H52.4184V89.6034H53.5244L53.6364 90.6954C53.8977 90.3034 54.2197 89.9954 54.6024 89.7714C54.9944 89.5474 55.4237 89.4354 55.8904 89.4354Z" fill="#001826" fill-opacity="0.9"/>
<path d="M5.91602 221.417H69.7517V253.335H5.91602V221.417Z" fill="white" stroke="#004166" stroke-opacity="0.1" stroke-width="2" stroke-linecap="round"/>
<path d="M25.9618 241.917V237.395H21.9018V241.917H20.5718V232.271H21.9018V236.303H25.9618V232.271H27.2918V241.917H25.9618ZM32.7894 234.371C33.8254 234.371 34.6281 234.717 35.1974 235.407C35.7761 236.098 36.0654 237.036 36.0654 238.221C36.0654 238.987 35.9347 239.663 35.6734 240.251C35.4121 240.83 35.0341 241.283 34.5394 241.609C34.0447 241.927 33.4567 242.085 32.7754 242.085C31.7394 242.085 30.9321 241.74 30.3534 241.049C29.7747 240.359 29.4854 239.421 29.4854 238.235C29.4854 237.47 29.6161 236.798 29.8774 236.219C30.1387 235.631 30.5167 235.179 31.0114 234.861C31.5061 234.535 32.0987 234.371 32.7894 234.371ZM32.7894 235.407C31.5107 235.407 30.8714 236.35 30.8714 238.235C30.8714 240.111 31.5061 241.049 32.7754 241.049C34.0447 241.049 34.6794 240.107 34.6794 238.221C34.6794 236.345 34.0494 235.407 32.7894 235.407ZM45.5992 234.371C46.2058 234.371 46.6912 234.577 47.0552 234.987C47.4192 235.389 47.6012 235.935 47.6012 236.625V241.917H46.3132V236.807C46.3132 235.855 45.9678 235.379 45.2772 235.379C44.9132 235.379 44.6052 235.487 44.3532 235.701C44.1012 235.907 43.8305 236.233 43.5412 236.681V241.917H42.2532V236.807C42.2532 235.855 41.9078 235.379 41.2172 235.379C40.8438 235.379 40.5312 235.487 40.2792 235.701C40.0272 235.916 39.7612 236.243 39.4812 236.681V241.917H38.1932V234.539H39.2992L39.4112 235.617C39.9618 234.787 40.6712 234.371 41.5392 234.371C41.9965 234.371 42.3838 234.488 42.7012 234.721C43.0278 234.955 43.2612 235.281 43.4012 235.701C43.6905 235.272 44.0078 234.945 44.3532 234.721C44.7078 234.488 45.1232 234.371 45.5992 234.371ZM55.7691 238.011C55.7691 238.226 55.7597 238.445 55.7411 238.669H51.0371C51.0931 239.481 51.2984 240.079 51.6531 240.461C52.0077 240.844 52.4651 241.035 53.0251 241.035C53.3797 241.035 53.7064 240.984 54.0051 240.881C54.3037 240.779 54.6164 240.615 54.9431 240.391L55.5031 241.161C54.7191 241.777 53.8604 242.085 52.9271 242.085C51.9004 242.085 51.0977 241.749 50.5191 241.077C49.9497 240.405 49.6651 239.481 49.6651 238.305C49.6651 237.54 49.7864 236.863 50.0291 236.275C50.2811 235.678 50.6357 235.211 51.0931 234.875C51.5597 234.539 52.1057 234.371 52.7311 234.371C53.7111 234.371 54.4624 234.693 54.9851 235.337C55.5077 235.981 55.7691 236.873 55.7691 238.011ZM54.4951 237.633C54.4951 236.905 54.3504 236.35 54.0611 235.967C53.7717 235.585 53.3377 235.393 52.7591 235.393C51.7044 235.393 51.1304 236.168 51.0371 237.717H54.4951V237.633Z" fill="#001826" fill-opacity="0.9"/>
<ellipse cx="143.386" cy="236.764" rx="40.6151" ry="41.082" fill="white" stroke="#004166" stroke-opacity="0.1" stroke-width="2" stroke-linecap="round"/>
<path d="M128.063 231.368C128.641 231.368 129.127 231.443 129.519 231.592C129.92 231.742 130.326 231.984 130.737 232.32L130.009 233.174C129.421 232.698 128.8 232.46 128.147 232.46C127.344 232.46 126.695 232.768 126.201 233.384C125.715 234 125.473 234.99 125.473 236.352C125.473 237.678 125.715 238.658 126.201 239.292C126.686 239.918 127.33 240.23 128.133 240.23C128.543 240.23 128.903 240.16 129.211 240.02C129.519 239.88 129.845 239.684 130.191 239.432L130.849 240.272C130.55 240.58 130.167 240.837 129.701 241.042C129.234 241.248 128.697 241.35 128.091 241.35C127.307 241.35 126.607 241.159 125.991 240.776C125.384 240.384 124.908 239.815 124.563 239.068C124.227 238.312 124.059 237.407 124.059 236.352C124.059 235.298 124.236 234.397 124.591 233.65C124.945 232.894 125.426 232.325 126.033 231.942C126.639 231.56 127.316 231.368 128.063 231.368ZM135.453 233.636C135.715 233.636 135.957 233.664 136.181 233.72L135.943 234.98C135.719 234.924 135.505 234.896 135.299 234.896C134.842 234.896 134.473 235.064 134.193 235.4C133.913 235.736 133.694 236.259 133.535 236.968V241.182H132.247V233.804H133.353L133.479 235.302C133.675 234.752 133.941 234.336 134.277 234.056C134.613 233.776 135.005 233.636 135.453 233.636ZM142.796 237.276C142.796 237.491 142.787 237.71 142.768 237.934H138.064C138.12 238.746 138.325 239.344 138.68 239.726C139.035 240.109 139.492 240.3 140.052 240.3C140.407 240.3 140.733 240.249 141.032 240.146C141.331 240.044 141.643 239.88 141.97 239.656L142.53 240.426C141.746 241.042 140.887 241.35 139.954 241.35C138.927 241.35 138.125 241.014 137.546 240.342C136.977 239.67 136.692 238.746 136.692 237.57C136.692 236.805 136.813 236.128 137.056 235.54C137.308 234.943 137.663 234.476 138.12 234.14C138.587 233.804 139.133 233.636 139.758 233.636C140.738 233.636 141.489 233.958 142.012 234.602C142.535 235.246 142.796 236.138 142.796 237.276ZM141.522 236.898C141.522 236.17 141.377 235.615 141.088 235.232C140.799 234.85 140.365 234.658 139.786 234.658C138.731 234.658 138.157 235.433 138.064 236.982H141.522V236.898ZM149.686 239.46C149.686 239.759 149.738 239.983 149.84 240.132C149.943 240.272 150.097 240.38 150.302 240.454L150.008 241.35C149.626 241.304 149.318 241.196 149.084 241.028C148.851 240.86 148.678 240.599 148.566 240.244C148.072 240.982 147.339 241.35 146.368 241.35C145.64 241.35 145.066 241.145 144.646 240.734C144.226 240.324 144.016 239.787 144.016 239.124C144.016 238.34 144.296 237.738 144.856 237.318C145.426 236.898 146.228 236.688 147.264 236.688H148.398V236.142C148.398 235.62 148.272 235.246 148.02 235.022C147.768 234.798 147.381 234.686 146.858 234.686C146.317 234.686 145.654 234.817 144.87 235.078L144.548 234.14C145.463 233.804 146.312 233.636 147.096 233.636C147.964 233.636 148.613 233.851 149.042 234.28C149.472 234.7 149.686 235.302 149.686 236.086V239.46ZM146.662 240.384C147.4 240.384 147.978 240.002 148.398 239.236V237.542H147.432C146.07 237.542 145.388 238.046 145.388 239.054C145.388 239.493 145.496 239.824 145.71 240.048C145.925 240.272 146.242 240.384 146.662 240.384ZM156.055 240.846C155.57 241.182 155.019 241.35 154.403 241.35C153.778 241.35 153.288 241.173 152.933 240.818C152.588 240.454 152.415 239.932 152.415 239.25V234.798H151.127V233.804H152.415V232.138L153.703 231.984V233.804H155.453L155.313 234.798H153.703V239.194C153.703 239.577 153.769 239.857 153.899 240.034C154.039 240.202 154.268 240.286 154.585 240.286C154.875 240.286 155.201 240.188 155.565 239.992L156.055 240.846ZM162.757 237.276C162.757 237.491 162.748 237.71 162.729 237.934H158.025C158.081 238.746 158.286 239.344 158.641 239.726C158.996 240.109 159.453 240.3 160.013 240.3C160.368 240.3 160.694 240.249 160.993 240.146C161.292 240.044 161.604 239.88 161.931 239.656L162.491 240.426C161.707 241.042 160.848 241.35 159.915 241.35C158.888 241.35 158.086 241.014 157.507 240.342C156.938 239.67 156.653 238.746 156.653 237.57C156.653 236.805 156.774 236.128 157.017 235.54C157.269 234.943 157.624 234.476 158.081 234.14C158.548 233.804 159.094 233.636 159.719 233.636C160.699 233.636 161.45 233.958 161.973 234.602C162.496 235.246 162.757 236.138 162.757 237.276ZM161.483 236.898C161.483 236.17 161.338 235.615 161.049 235.232C160.76 234.85 160.326 234.658 159.747 234.658C158.692 234.658 158.118 235.433 158.025 236.982H161.483V236.898Z" fill="#001826" fill-opacity="0.9"/>
<path d="M74.252 235.764C73.6997 235.764 73.252 236.212 73.252 236.764C73.252 237.317 73.6997 237.764 74.252 237.764V235.764ZM98.9783 237.472C99.3688 237.081 99.3688 236.448 98.9783 236.057L92.6144 229.693C92.2238 229.303 91.5907 229.303 91.2001 229.693C90.8096 230.084 90.8096 230.717 91.2001 231.108L96.857 236.764L91.2001 242.421C90.8096 242.812 90.8096 243.445 91.2001 243.835C91.5907 244.226 92.2238 244.226 92.6144 243.835L98.9783 237.472ZM74.252 237.764H98.2712V235.764H74.252V237.764Z" fill="#004166" fill-opacity="0.1"/>
<path d="M444.154 278.218C445.215 277.431 446.667 277.431 447.729 278.218L510.352 323.906C511.969 325.106 511.969 327.526 510.352 328.725L447.729 374.413C446.667 375.201 445.215 375.201 444.154 374.413L381.53 328.725C379.914 327.526 379.914 325.106 381.53 323.906L444.154 278.218Z" fill="white" stroke="#004166" stroke-opacity="0.1" stroke-width="2" stroke-linecap="round"/>
<path d="M429.752 321.481L429.598 322.545H425.86V325.695H429.108V326.759H425.86V330.063H429.864V331.127H424.53V321.481H429.752ZM434.78 327.179L437.342 331.127H435.788L433.982 328.005L432.148 331.127H430.692L433.268 327.235L430.986 323.749H432.498L434.038 326.451L435.592 323.749H437.048L434.78 327.179ZM440.035 323.749V331.127H438.747V323.749H440.035ZM439.377 320.207C439.647 320.207 439.867 320.291 440.035 320.459C440.203 320.627 440.287 320.837 440.287 321.089C440.287 321.341 440.203 321.551 440.035 321.719C439.867 321.878 439.647 321.957 439.377 321.957C439.115 321.957 438.901 321.878 438.733 321.719C438.565 321.551 438.481 321.341 438.481 321.089C438.481 320.837 438.565 320.627 438.733 320.459C438.901 320.291 439.115 320.207 439.377 320.207ZM444.7 323.581C445.204 323.581 445.656 323.651 446.058 323.791C446.459 323.931 446.842 324.141 447.206 324.421L446.66 325.233C446.324 325.019 446.002 324.86 445.694 324.757C445.395 324.655 445.078 324.603 444.742 324.603C444.322 324.603 443.99 324.692 443.748 324.869C443.505 325.037 443.384 325.271 443.384 325.569C443.384 325.868 443.496 326.101 443.72 326.269C443.953 326.437 444.368 326.601 444.966 326.759C445.787 326.965 446.398 327.245 446.8 327.599C447.21 327.954 447.416 328.439 447.416 329.055C447.416 329.783 447.131 330.339 446.562 330.721C446.002 331.104 445.316 331.295 444.504 331.295C443.384 331.295 442.455 330.973 441.718 330.329L442.404 329.545C443.029 330.021 443.72 330.259 444.476 330.259C444.961 330.259 445.344 330.161 445.624 329.965C445.913 329.76 446.058 329.485 446.058 329.139C446.058 328.887 446.006 328.687 445.904 328.537C445.801 328.379 445.624 328.243 445.372 328.131C445.12 328.01 444.751 327.884 444.266 327.753C443.482 327.548 442.912 327.273 442.558 326.927C442.212 326.582 442.04 326.143 442.04 325.611C442.04 325.229 442.152 324.883 442.376 324.575C442.609 324.258 442.926 324.015 443.328 323.847C443.738 323.67 444.196 323.581 444.7 323.581ZM452.957 330.791C452.472 331.127 451.921 331.295 451.305 331.295C450.68 331.295 450.19 331.118 449.835 330.763C449.49 330.399 449.317 329.877 449.317 329.195V324.743H448.029V323.749H449.317V322.083L450.605 321.929V323.749H452.355L452.215 324.743H450.605V329.139C450.605 329.522 450.67 329.802 450.801 329.979C450.941 330.147 451.17 330.231 451.487 330.231C451.776 330.231 452.103 330.133 452.467 329.937L452.957 330.791ZM459.658 327.221C459.658 327.436 459.649 327.655 459.63 327.879H454.926C454.982 328.691 455.188 329.289 455.542 329.671C455.897 330.054 456.354 330.245 456.914 330.245C457.269 330.245 457.596 330.194 457.894 330.091C458.193 329.989 458.506 329.825 458.832 329.601L459.392 330.371C458.608 330.987 457.75 331.295 456.816 331.295C455.79 331.295 454.987 330.959 454.408 330.287C453.839 329.615 453.554 328.691 453.554 327.515C453.554 326.75 453.676 326.073 453.918 325.485C454.17 324.888 454.525 324.421 454.982 324.085C455.449 323.749 455.995 323.581 456.62 323.581C457.6 323.581 458.352 323.903 458.874 324.547C459.397 325.191 459.658 326.083 459.658 327.221ZM458.384 326.843C458.384 326.115 458.24 325.56 457.95 325.177C457.661 324.795 457.227 324.603 456.648 324.603C455.594 324.603 455.02 325.378 454.926 326.927H458.384V326.843ZM465.537 329.349C465.817 329.349 466.051 329.443 466.237 329.629C466.424 329.816 466.517 330.045 466.517 330.315C466.517 330.586 466.424 330.819 466.237 331.015C466.051 331.202 465.817 331.295 465.537 331.295C465.267 331.295 465.038 331.202 464.851 331.015C464.665 330.819 464.571 330.586 464.571 330.315C464.571 330.045 464.665 329.816 464.851 329.629C465.038 329.443 465.267 329.349 465.537 329.349ZM469.023 329.349C469.303 329.349 469.537 329.443 469.723 329.629C469.91 329.816 470.003 330.045 470.003 330.315C470.003 330.586 469.91 330.819 469.723 331.015C469.537 331.202 469.303 331.295 469.023 331.295C468.753 331.295 468.524 331.202 468.337 331.015C468.151 330.819 468.057 330.586 468.057 330.315C468.057 330.045 468.151 329.816 468.337 329.629C468.524 329.443 468.753 329.349 469.023 329.349ZM462.051 329.349C462.331 329.349 462.565 329.443 462.751 329.629C462.938 329.816 463.031 330.045 463.031 330.315C463.031 330.586 462.938 330.819 462.751 331.015C462.565 331.202 462.331 331.295 462.051 331.295C461.781 331.295 461.552 331.202 461.365 331.015C461.179 330.819 461.085 330.586 461.085 330.315C461.085 330.045 461.179 329.816 461.365 329.629C461.552 329.443 461.781 329.349 462.051 329.349Z" fill="#001826" fill-opacity="0.9"/>
<ellipse cx="634.805" cy="326.315" rx="50.8051" ry="51.6519" fill="white" stroke="#004166" stroke-opacity="0.1" stroke-width="2" stroke-linecap="round"/>
<path d="M628.963 320.664L628.235 318.242H624.581L623.853 320.664H622.509L625.603 311.018H627.283L630.363 320.664H628.963ZM624.903 317.164H627.913L626.415 312.124L624.903 317.164ZM637.493 310.318V320.664H636.359L636.233 319.642C635.99 320.015 635.687 320.309 635.323 320.524C634.959 320.729 634.553 320.832 634.105 320.832C633.227 320.832 632.541 320.486 632.047 319.796C631.561 319.105 631.319 318.176 631.319 317.01C631.319 316.254 631.435 315.582 631.669 314.994C631.902 314.406 632.238 313.948 632.677 313.622C633.115 313.286 633.629 313.118 634.217 313.118C634.973 313.118 635.635 313.421 636.205 314.028V310.164L637.493 310.318ZM634.385 319.81C634.777 319.81 635.113 319.721 635.393 319.544C635.673 319.357 635.943 319.082 636.205 318.718V315.106C635.962 314.788 635.701 314.55 635.421 314.392C635.15 314.224 634.842 314.14 634.497 314.14C633.927 314.14 633.484 314.378 633.167 314.854C632.859 315.33 632.705 316.039 632.705 316.982C632.705 317.934 632.849 318.643 633.139 319.11C633.428 319.576 633.843 319.81 634.385 319.81ZM645.86 310.318V320.664H644.726L644.6 319.642C644.357 320.015 644.054 320.309 643.69 320.524C643.326 320.729 642.92 320.832 642.472 320.832C641.595 320.832 640.909 320.486 640.414 319.796C639.929 319.105 639.686 318.176 639.686 317.01C639.686 316.254 639.803 315.582 640.036 314.994C640.269 314.406 640.605 313.948 641.044 313.622C641.483 313.286 641.996 313.118 642.584 313.118C643.34 313.118 644.003 313.421 644.572 314.028V310.164L645.86 310.318ZM642.752 319.81C643.144 319.81 643.48 319.721 643.76 319.544C644.04 319.357 644.311 319.082 644.572 318.718V315.106C644.329 314.788 644.068 314.55 643.788 314.392C643.517 314.224 643.209 314.14 642.864 314.14C642.295 314.14 641.851 314.378 641.534 314.854C641.226 315.33 641.072 316.039 641.072 316.982C641.072 317.934 641.217 318.643 641.506 319.11C641.795 319.576 642.211 319.81 642.752 319.81ZM617.052 334.118C617.659 334.118 618.144 334.323 618.508 334.734C618.872 335.135 619.054 335.681 619.054 336.372V341.664H617.766V336.554C617.766 335.602 617.421 335.126 616.73 335.126C616.366 335.126 616.058 335.233 615.806 335.448C615.554 335.653 615.283 335.98 614.994 336.428V341.664H613.706V336.554C613.706 335.602 613.361 335.126 612.67 335.126C612.297 335.126 611.984 335.233 611.732 335.448C611.48 335.662 611.214 335.989 610.934 336.428V341.664H609.646V334.286H610.752L610.864 335.364C611.415 334.533 612.124 334.118 612.992 334.118C613.449 334.118 613.837 334.234 614.154 334.468C614.481 334.701 614.714 335.028 614.854 335.448C615.143 335.018 615.461 334.692 615.806 334.468C616.161 334.234 616.576 334.118 617.052 334.118ZM627.222 337.758C627.222 337.972 627.212 338.192 627.194 338.416H622.49C622.546 339.228 622.751 339.825 623.106 340.208C623.46 340.59 623.918 340.782 624.478 340.782C624.832 340.782 625.159 340.73 625.458 340.628C625.756 340.525 626.069 340.362 626.396 340.138L626.956 340.908C626.172 341.524 625.313 341.832 624.38 341.832C623.353 341.832 622.55 341.496 621.972 340.824C621.402 340.152 621.118 339.228 621.118 338.052C621.118 337.286 621.239 336.61 621.482 336.022C621.734 335.424 622.088 334.958 622.546 334.622C623.012 334.286 623.558 334.118 624.184 334.118C625.164 334.118 625.915 334.44 626.438 335.084C626.96 335.728 627.222 336.619 627.222 337.758ZM625.948 337.38C625.948 336.652 625.803 336.096 625.514 335.714C625.224 335.331 624.79 335.14 624.212 335.14C623.157 335.14 622.583 335.914 622.49 337.464H625.948V337.38ZM636.685 334.118C637.291 334.118 637.777 334.323 638.141 334.734C638.505 335.135 638.687 335.681 638.687 336.372V341.664H637.399V336.554C637.399 335.602 637.053 335.126 636.363 335.126C635.999 335.126 635.691 335.233 635.439 335.448C635.187 335.653 634.916 335.98 634.627 336.428V341.664H633.339V336.554C633.339 335.602 632.993 335.126 632.303 335.126C631.929 335.126 631.617 335.233 631.365 335.448C631.113 335.662 630.847 335.989 630.567 336.428V341.664H629.279V334.286H630.385L630.497 335.364C631.047 334.533 631.757 334.118 632.625 334.118C633.082 334.118 633.469 334.234 633.787 334.468C634.113 334.701 634.347 335.028 634.487 335.448C634.776 335.018 635.093 334.692 635.439 334.468C635.793 334.234 636.209 334.118 636.685 334.118ZM644.657 334.118C645.497 334.118 646.164 334.458 646.659 335.14C647.153 335.812 647.401 336.754 647.401 337.968C647.401 338.733 647.284 339.41 647.051 339.998C646.817 340.576 646.481 341.029 646.043 341.356C645.604 341.673 645.091 341.832 644.503 341.832C643.728 341.832 643.075 341.505 642.543 340.852L642.417 341.664H641.283V331.318L642.571 331.164V335.21C643.103 334.482 643.798 334.118 644.657 334.118ZM644.195 340.81C644.764 340.81 645.207 340.581 645.525 340.124C645.851 339.657 646.015 338.938 646.015 337.968C646.015 336.969 645.865 336.25 645.567 335.812C645.268 335.364 644.843 335.14 644.293 335.14C643.639 335.14 643.065 335.522 642.571 336.288V339.816C642.767 340.124 643.005 340.366 643.285 340.544C643.574 340.721 643.877 340.81 644.195 340.81ZM655.167 337.758C655.167 337.972 655.158 338.192 655.139 338.416H650.435C650.491 339.228 650.696 339.825 651.051 340.208C651.406 340.59 651.863 340.782 652.423 340.782C652.778 340.782 653.104 340.73 653.403 340.628C653.702 340.525 654.014 340.362 654.341 340.138L654.901 340.908C654.117 341.524 653.258 341.832 652.325 341.832C651.298 341.832 650.496 341.496 649.917 340.824C649.348 340.152 649.063 339.228 649.063 338.052C649.063 337.286 649.184 336.61 649.427 336.022C649.679 335.424 650.034 334.958 650.491 334.622C650.958 334.286 651.504 334.118 652.129 334.118C653.109 334.118 653.86 334.44 654.383 335.084C654.906 335.728 655.167 336.619 655.167 337.758ZM653.893 337.38C653.893 336.652 653.748 336.096 653.459 335.714C653.17 335.331 652.736 335.14 652.157 335.14C651.102 335.14 650.528 335.914 650.435 337.464H653.893V337.38ZM660.43 334.118C660.691 334.118 660.934 334.146 661.158 334.202L660.92 335.462C660.696 335.406 660.481 335.378 660.276 335.378C659.819 335.378 659.45 335.546 659.17 335.882C658.89 336.218 658.671 336.74 658.512 337.45V341.664H657.224V334.286H658.33L658.456 335.784C658.652 335.233 658.918 334.818 659.254 334.538C659.59 334.258 659.982 334.118 660.43 334.118Z" fill="#001826" fill-opacity="0.9"/>
<path d="M404.35 31.3542H530.397V82.7067H404.35V31.3542Z" fill="white" stroke="#004166" stroke-opacity="0.1" stroke-width="2" stroke-linecap="round"/>
<path d="M430.996 61.8542L430.268 59.4322H426.614L425.886 61.8542H424.542L427.636 52.2082H429.316L432.396 61.8542H430.996ZM426.936 58.3542H429.946L428.448 53.3142L426.936 58.3542ZM439.525 51.5082V61.8542H438.391L438.265 60.8322C438.022 61.2056 437.719 61.4996 437.355 61.7142C436.991 61.9196 436.585 62.0222 436.137 62.0222C435.26 62.0222 434.574 61.6769 434.079 60.9862C433.594 60.2956 433.351 59.3669 433.351 58.2002C433.351 57.4442 433.468 56.7722 433.701 56.1842C433.934 55.5962 434.27 55.1389 434.709 54.8122C435.148 54.4762 435.661 54.3082 436.249 54.3082C437.005 54.3082 437.668 54.6116 438.237 55.2182V51.3542L439.525 51.5082ZM436.417 61.0002C436.809 61.0002 437.145 60.9116 437.425 60.7342C437.705 60.5476 437.976 60.2722 438.237 59.9082V56.2962C437.994 55.9789 437.733 55.7409 437.453 55.5822C437.182 55.4142 436.874 55.3302 436.529 55.3302C435.96 55.3302 435.516 55.5682 435.199 56.0442C434.891 56.5202 434.737 57.2296 434.737 58.1722C434.737 59.1242 434.882 59.8336 435.171 60.3002C435.46 60.7669 435.876 61.0002 436.417 61.0002ZM447.892 51.5082V61.8542H446.758L446.632 60.8322C446.389 61.2056 446.086 61.4996 445.722 61.7142C445.358 61.9196 444.952 62.0222 444.504 62.0222C443.627 62.0222 442.941 61.6769 442.446 60.9862C441.961 60.2956 441.718 59.3669 441.718 58.2002C441.718 57.4442 441.835 56.7722 442.068 56.1842C442.301 55.5962 442.637 55.1389 443.076 54.8122C443.515 54.4762 444.028 54.3082 444.616 54.3082C445.372 54.3082 446.035 54.6116 446.604 55.2182V51.3542L447.892 51.5082ZM444.784 61.0002C445.176 61.0002 445.512 60.9116 445.792 60.7342C446.072 60.5476 446.343 60.2722 446.604 59.9082V56.2962C446.361 55.9789 446.1 55.7409 445.82 55.5822C445.549 55.4142 445.241 55.3302 444.896 55.3302C444.327 55.3302 443.883 55.5682 443.566 56.0442C443.258 56.5202 443.104 57.2296 443.104 58.1722C443.104 59.1242 443.249 59.8336 443.538 60.3002C443.827 60.7669 444.243 61.0002 444.784 61.0002ZM453.753 54.3082C454.015 54.3082 454.257 54.3362 454.481 54.3922L454.243 55.6522C454.019 55.5962 453.805 55.5682 453.599 55.5682C453.142 55.5682 452.773 55.7362 452.493 56.0722C452.213 56.4082 451.994 56.9309 451.835 57.6402V61.8542H450.547V54.4762H451.653L451.779 55.9742C451.975 55.4236 452.241 55.0082 452.577 54.7282C452.913 54.4482 453.305 54.3082 453.753 54.3082ZM461.096 57.9482C461.096 58.1629 461.087 58.3822 461.068 58.6062H456.364C456.42 59.4182 456.625 60.0156 456.98 60.3982C457.335 60.7809 457.792 60.9722 458.352 60.9722C458.707 60.9722 459.033 60.9209 459.332 60.8182C459.631 60.7156 459.943 60.5522 460.27 60.3282L460.83 61.0982C460.046 61.7142 459.187 62.0222 458.254 62.0222C457.227 62.0222 456.425 61.6862 455.846 61.0142C455.277 60.3422 454.992 59.4182 454.992 58.2422C454.992 57.4769 455.113 56.8002 455.356 56.2122C455.608 55.6149 455.963 55.1482 456.42 54.8122C456.887 54.4762 457.433 54.3082 458.058 54.3082C459.038 54.3082 459.789 54.6302 460.312 55.2742C460.835 55.9182 461.096 56.8096 461.096 57.9482ZM459.822 57.5702C459.822 56.8422 459.677 56.2869 459.388 55.9042C459.099 55.5216 458.665 55.3302 458.086 55.3302C457.031 55.3302 456.457 56.1049 456.364 57.6542H459.822V57.5702ZM465.155 54.3082C465.659 54.3082 466.111 54.3782 466.513 54.5182C466.914 54.6582 467.297 54.8682 467.661 55.1482L467.115 55.9602C466.779 55.7456 466.457 55.5869 466.149 55.4842C465.85 55.3816 465.533 55.3302 465.197 55.3302C464.777 55.3302 464.445 55.4189 464.203 55.5962C463.96 55.7642 463.839 55.9976 463.839 56.2962C463.839 56.5949 463.951 56.8282 464.175 56.9962C464.408 57.1642 464.823 57.3276 465.421 57.4862C466.242 57.6916 466.853 57.9716 467.255 58.3262C467.665 58.6809 467.871 59.1662 467.871 59.7822C467.871 60.5102 467.586 61.0656 467.017 61.4482C466.457 61.8309 465.771 62.0222 464.959 62.0222C463.839 62.0222 462.91 61.7002 462.173 61.0562L462.859 60.2722C463.484 60.7482 464.175 60.9862 464.931 60.9862C465.416 60.9862 465.799 60.8882 466.079 60.6922C466.368 60.4869 466.513 60.2116 466.513 59.8662C466.513 59.6142 466.461 59.4136 466.359 59.2642C466.256 59.1056 466.079 58.9702 465.827 58.8582C465.575 58.7369 465.206 58.6109 464.721 58.4802C463.937 58.2749 463.367 57.9996 463.013 57.6542C462.667 57.3089 462.495 56.8702 462.495 56.3382C462.495 55.9556 462.607 55.6102 462.831 55.3022C463.064 54.9849 463.381 54.7422 463.783 54.5742C464.193 54.3969 464.651 54.3082 465.155 54.3082ZM471.553 54.3082C472.057 54.3082 472.51 54.3782 472.911 54.5182C473.313 54.6582 473.695 54.8682 474.059 55.1482L473.513 55.9602C473.177 55.7456 472.855 55.5869 472.547 55.4842C472.249 55.3816 471.931 55.3302 471.595 55.3302C471.175 55.3302 470.844 55.4189 470.601 55.5962C470.359 55.7642 470.237 55.9976 470.237 56.2962C470.237 56.5949 470.349 56.8282 470.573 56.9962C470.807 57.1642 471.222 57.3276 471.819 57.4862C472.641 57.6916 473.252 57.9716 473.653 58.3262C474.064 58.6809 474.269 59.1662 474.269 59.7822C474.269 60.5102 473.985 61.0656 473.415 61.4482C472.855 61.8309 472.169 62.0222 471.357 62.0222C470.237 62.0222 469.309 61.7002 468.571 61.0562L469.257 60.2722C469.883 60.7482 470.573 60.9862 471.329 60.9862C471.815 60.9862 472.197 60.8882 472.477 60.6922C472.767 60.4869 472.911 60.2116 472.911 59.8662C472.911 59.6142 472.86 59.4136 472.757 59.2642C472.655 59.1056 472.477 58.9702 472.225 58.8582C471.973 58.7369 471.605 58.6109 471.119 58.4802C470.335 58.2749 469.766 57.9996 469.411 57.6542C469.066 57.3089 468.893 56.8702 468.893 56.3382C468.893 55.9556 469.005 55.6102 469.229 55.3022C469.463 54.9849 469.78 54.7422 470.181 54.5742C470.592 54.3969 471.049 54.3082 471.553 54.3082ZM483.165 54.3082C484.005 54.3082 484.673 54.6489 485.167 55.3302C485.662 56.0022 485.909 56.9449 485.909 58.1582C485.909 58.9236 485.793 59.6002 485.559 60.1882C485.326 60.7669 484.99 61.2196 484.551 61.5462C484.113 61.8636 483.599 62.0222 483.011 62.0222C482.237 62.0222 481.583 61.6956 481.051 61.0422L480.925 61.8542H479.791V51.5082L481.079 51.3542V55.4002C481.611 54.6722 482.307 54.3082 483.165 54.3082ZM482.703 61.0002C483.273 61.0002 483.716 60.7716 484.033 60.3142C484.36 59.8476 484.523 59.1289 484.523 58.1582C484.523 57.1596 484.374 56.4409 484.075 56.0022C483.777 55.5542 483.352 55.3302 482.801 55.3302C482.148 55.3302 481.574 55.7129 481.079 56.4782V60.0062C481.275 60.3142 481.513 60.5569 481.793 60.7342C482.083 60.9116 482.386 61.0002 482.703 61.0002ZM490.876 54.3082C491.912 54.3082 492.715 54.6536 493.284 55.3442C493.863 56.0349 494.152 56.9729 494.152 58.1582C494.152 58.9236 494.021 59.6002 493.76 60.1882C493.499 60.7669 493.121 61.2196 492.626 61.5462C492.131 61.8636 491.543 62.0222 490.862 62.0222C489.826 62.0222 489.019 61.6769 488.44 60.9862C487.861 60.2956 487.572 59.3576 487.572 58.1722C487.572 57.4069 487.703 56.7349 487.964 56.1562C488.225 55.5682 488.603 55.1156 489.098 54.7982C489.593 54.4716 490.185 54.3082 490.876 54.3082ZM490.876 55.3442C489.597 55.3442 488.958 56.2869 488.958 58.1722C488.958 60.0482 489.593 60.9862 490.862 60.9862C492.131 60.9862 492.766 60.0436 492.766 58.1582C492.766 56.2822 492.136 55.3442 490.876 55.3442ZM499.052 54.3082C500.088 54.3082 500.89 54.6536 501.46 55.3442C502.038 56.0349 502.328 56.9729 502.328 58.1582C502.328 58.9236 502.197 59.6002 501.936 60.1882C501.674 60.7669 501.296 61.2196 500.802 61.5462C500.307 61.8636 499.719 62.0222 499.038 62.0222C498.002 62.0222 497.194 61.6769 496.616 60.9862C496.037 60.2956 495.748 59.3576 495.748 58.1722C495.748 57.4069 495.878 56.7349 496.14 56.1562C496.401 55.5682 496.779 55.1156 497.274 54.7982C497.768 54.4716 498.361 54.3082 499.052 54.3082ZM499.052 55.3442C497.773 55.3442 497.134 56.2869 497.134 58.1722C497.134 60.0482 497.768 60.9862 499.038 60.9862C500.307 60.9862 500.942 60.0436 500.942 58.1582C500.942 56.2822 500.312 55.3442 499.052 55.3442ZM505.744 51.3542V61.8542H504.456V51.5082L505.744 51.3542ZM509.986 54.4762L507.27 57.7382L510.294 61.8542H508.754L505.828 57.8222L508.544 54.4762H509.986Z" fill="#001826" fill-opacity="0.9"/>
<path d="M516.064 325.315C515.512 325.315 515.064 325.763 515.064 326.315C515.064 326.868 515.512 327.315 516.064 327.315V325.315ZM530.22 327.315C530.772 327.315 531.22 326.868 531.22 326.315C531.22 325.763 530.772 325.315 530.22 325.315V327.315ZM565.345 325.315C564.792 325.315 564.345 325.763 564.345 326.315C564.345 326.868 564.792 327.315 565.345 327.315V325.315ZM580.207 327.023C580.598 326.632 580.598 325.999 580.207 325.608L573.843 319.244C573.453 318.854 572.819 318.854 572.429 319.244C572.038 319.635 572.038 320.268 572.429 320.659L578.086 326.315L572.429 331.972C572.038 332.363 572.038 332.996 572.429 333.386C572.819 333.777 573.453 333.777 573.843 333.386L580.207 327.023ZM516.064 327.315H530.22V325.315H516.064V327.315ZM565.345 327.315H579.5V325.315H565.345V327.315Z" fill="#004166" fill-opacity="0.1"/>
<rect width="35.125" height="34.125" transform="translate(530.22 309.253)" fill="#005180" fill-opacity="0.04"/>
<path d="M544.892 321.169L541.784 327.105V330.815H540.44V327.119L537.332 321.169H538.802L541.154 325.943L543.506 321.169H544.892ZM551.041 326.909C551.041 327.124 551.031 327.343 551.013 327.567H546.309C546.365 328.379 546.57 328.977 546.925 329.359C547.279 329.742 547.737 329.933 548.297 329.933C548.651 329.933 548.978 329.882 549.277 329.779C549.575 329.677 549.888 329.513 550.215 329.289L550.775 330.059C549.991 330.675 549.132 330.983 548.199 330.983C547.172 330.983 546.369 330.647 545.791 329.975C545.221 329.303 544.937 328.379 544.937 327.203C544.937 326.438 545.058 325.761 545.301 325.173C545.553 324.576 545.907 324.109 546.365 323.773C546.831 323.437 547.377 323.269 548.003 323.269C548.983 323.269 549.734 323.591 550.257 324.235C550.779 324.879 551.041 325.771 551.041 326.909ZM549.767 326.531C549.767 325.803 549.622 325.248 549.333 324.865C549.043 324.483 548.609 324.291 548.031 324.291C546.976 324.291 546.402 325.066 546.309 326.615H549.767V326.531ZM555.1 323.269C555.604 323.269 556.056 323.339 556.458 323.479C556.859 323.619 557.242 323.829 557.606 324.109L557.06 324.921C556.724 324.707 556.402 324.548 556.094 324.445C555.795 324.343 555.478 324.291 555.142 324.291C554.722 324.291 554.39 324.38 554.148 324.557C553.905 324.725 553.784 324.959 553.784 325.257C553.784 325.556 553.896 325.789 554.12 325.957C554.353 326.125 554.768 326.289 555.366 326.447C556.187 326.653 556.798 326.933 557.2 327.287C557.61 327.642 557.816 328.127 557.816 328.743C557.816 329.471 557.531 330.027 556.962 330.409C556.402 330.792 555.716 330.983 554.904 330.983C553.784 330.983 552.855 330.661 552.118 330.017L552.804 329.233C553.429 329.709 554.12 329.947 554.876 329.947C555.361 329.947 555.744 329.849 556.024 329.653C556.313 329.448 556.458 329.173 556.458 328.827C556.458 328.575 556.406 328.375 556.304 328.225C556.201 328.067 556.024 327.931 555.772 327.819C555.52 327.698 555.151 327.572 554.666 327.441C553.882 327.236 553.312 326.961 552.958 326.615C552.612 326.27 552.44 325.831 552.44 325.299C552.44 324.917 552.552 324.571 552.776 324.263C553.009 323.946 553.326 323.703 553.728 323.535C554.138 323.358 554.596 323.269 555.1 323.269Z" fill="black"/>
<path d="M444.941 273.127C444.941 273.68 445.389 274.127 445.941 274.127C446.493 274.127 446.941 273.68 446.941 273.127H444.941ZM424.708 179.167C424.156 179.167 423.708 179.615 423.708 180.167C423.708 180.719 424.156 181.167 424.708 181.167V179.167ZM393.583 181.167C394.135 181.167 394.583 180.719 394.583 180.167C394.583 179.615 394.135 179.167 393.583 179.167V181.167ZM400.557 57.7376C400.948 57.3471 400.948 56.7139 400.557 56.3234L394.193 49.9594C393.803 49.5689 393.17 49.5689 392.779 49.9594C392.389 50.35 392.389 50.9831 392.779 51.3737L398.436 57.0305L392.779 62.6874C392.389 63.0779 392.389 63.7111 392.779 64.1016C393.17 64.4921 393.803 64.4921 394.193 64.1016L400.557 57.7376ZM446.941 273.127V183.167H444.941V273.127H446.941ZM442.941 179.167H424.708V181.167H442.941V179.167ZM393.583 179.167H375.35V181.167H393.583V179.167ZM373.35 177.167V60.0305H371.35V177.167H373.35ZM375.35 58.0305H399.85V56.0305H375.35V58.0305ZM373.35 60.0305C373.35 58.9259 374.246 58.0305 375.35 58.0305V56.0305C373.141 56.0305 371.35 57.8214 371.35 60.0305H373.35ZM375.35 179.167C374.246 179.167 373.35 178.272 373.35 177.167H371.35C371.35 179.376 373.141 181.167 375.35 181.167V179.167ZM446.941 183.167C446.941 180.958 445.15 179.167 442.941 179.167V181.167C444.046 181.167 444.941 182.063 444.941 183.167H446.941Z" fill="#004166" fill-opacity="0.1"/>
<rect width="31.125" height="34.125" transform="translate(393.583 163.104)" fill="#005180" fill-opacity="0.04"/>
<path d="M408.441 184.667H406.663L402.743 176.477C402.799 177.121 402.841 177.718 402.869 178.269C402.907 178.81 402.925 179.468 402.925 180.243V184.667H401.679V175.021H403.415L407.377 183.225C407.349 182.982 407.312 182.558 407.265 181.951C407.219 181.344 407.195 180.789 407.195 180.285V175.021H408.441V184.667ZM413.938 177.121C414.974 177.121 415.777 177.466 416.346 178.157C416.925 178.848 417.214 179.786 417.214 180.971C417.214 181.736 417.083 182.413 416.822 183.001C416.561 183.58 416.183 184.032 415.688 184.359C415.193 184.676 414.605 184.835 413.924 184.835C412.888 184.835 412.081 184.49 411.502 183.799C410.923 183.108 410.634 182.17 410.634 180.985C410.634 180.22 410.765 179.548 411.026 178.969C411.287 178.381 411.665 177.928 412.16 177.611C412.655 177.284 413.247 177.121 413.938 177.121ZM413.938 178.157C412.659 178.157 412.02 179.1 412.02 180.985C412.02 182.861 412.655 183.799 413.924 183.799C415.193 183.799 415.828 182.856 415.828 180.971C415.828 179.095 415.198 178.157 413.938 178.157Z" fill="black"/>
<ellipse cx="285.167" cy="67.6327" rx="49.1116" ry="49.9584" fill="white" stroke="#004166" stroke-opacity="0.1" stroke-width="2" stroke-linecap="round"/>
<path d="M257.136 62.3603C257.714 62.3603 258.2 62.435 258.592 62.5843C258.993 62.7336 259.399 62.9763 259.81 63.3123L259.082 64.1663C258.494 63.6903 257.873 63.4523 257.22 63.4523C256.417 63.4523 255.768 63.7603 255.274 64.3763C254.788 64.9923 254.546 65.9816 254.546 67.3443C254.546 68.6696 254.788 69.6496 255.274 70.2843C255.759 70.9096 256.403 71.2223 257.206 71.2223C257.616 71.2223 257.976 71.1523 258.284 71.0123C258.592 70.8723 258.918 70.6763 259.264 70.4243L259.922 71.2643C259.623 71.5723 259.24 71.829 258.774 72.0343C258.307 72.2396 257.77 72.3423 257.164 72.3423C256.38 72.3423 255.68 72.151 255.064 71.7683C254.457 71.3763 253.981 70.807 253.636 70.0603C253.3 69.3043 253.132 68.399 253.132 67.3443C253.132 66.2896 253.309 65.389 253.664 64.6423C254.018 63.8863 254.499 63.317 255.106 62.9343C255.712 62.5516 256.389 62.3603 257.136 62.3603ZM264.861 64.6283C265.533 64.6283 266.056 64.829 266.429 65.2303C266.812 65.6316 267.003 66.1823 267.003 66.8823V72.1743H265.715V67.0643C265.715 66.5416 265.612 66.173 265.407 65.9583C265.211 65.7436 264.922 65.6363 264.539 65.6363C264.156 65.6363 263.816 65.7483 263.517 65.9723C263.218 66.1963 262.938 66.5136 262.677 66.9243V72.1743H261.389V61.8423L262.677 61.7023V65.8183C263.256 65.025 263.984 64.6283 264.861 64.6283ZM274.562 70.4523C274.562 70.751 274.614 70.975 274.716 71.1243C274.819 71.2643 274.973 71.3716 275.178 71.4463L274.884 72.3423C274.502 72.2956 274.194 72.1883 273.96 72.0203C273.727 71.8523 273.554 71.591 273.442 71.2363C272.948 71.9736 272.215 72.3423 271.244 72.3423C270.516 72.3423 269.942 72.137 269.522 71.7263C269.102 71.3156 268.892 70.779 268.892 70.1163C268.892 69.3323 269.172 68.7303 269.732 68.3103C270.302 67.8903 271.104 67.6803 272.14 67.6803H273.274V67.1343C273.274 66.6116 273.148 66.2383 272.896 66.0143C272.644 65.7903 272.257 65.6783 271.734 65.6783C271.193 65.6783 270.53 65.809 269.746 66.0703L269.424 65.1323C270.339 64.7963 271.188 64.6283 271.972 64.6283C272.84 64.6283 273.489 64.843 273.918 65.2723C274.348 65.6923 274.562 66.2943 274.562 67.0783V70.4523ZM271.538 71.3763C272.276 71.3763 272.854 70.9936 273.274 70.2283V68.5343H272.308C270.946 68.5343 270.264 69.0383 270.264 70.0463C270.264 70.485 270.372 70.8163 270.586 71.0403C270.801 71.2643 271.118 71.3763 271.538 71.3763ZM280.931 71.8383C280.446 72.1743 279.895 72.3423 279.279 72.3423C278.654 72.3423 278.164 72.165 277.809 71.8103C277.464 71.4463 277.291 70.9236 277.291 70.2423V65.7903H276.003V64.7963H277.291V63.1303L278.579 62.9763V64.7963H280.329L280.189 65.7903H278.579V70.1863C278.579 70.569 278.645 70.849 278.775 71.0263C278.915 71.1943 279.144 71.2783 279.461 71.2783C279.751 71.2783 280.077 71.1803 280.441 70.9843L280.931 71.8383ZM289.177 64.6283C289.438 64.6283 289.681 64.6563 289.905 64.7123L289.667 65.9723C289.443 65.9163 289.228 65.8883 289.023 65.8883C288.566 65.8883 288.197 66.0563 287.917 66.3923C287.637 66.7283 287.418 67.251 287.259 67.9603V72.1743H285.971V64.7963H287.077L287.203 66.2943C287.399 65.7436 287.665 65.3283 288.001 65.0483C288.337 64.7683 288.729 64.6283 289.177 64.6283ZM293.72 64.6283C294.756 64.6283 295.558 64.9736 296.128 65.6643C296.706 66.355 296.996 67.293 296.996 68.4783C296.996 69.2436 296.865 69.9203 296.604 70.5083C296.342 71.087 295.964 71.5396 295.47 71.8663C294.975 72.1836 294.387 72.3423 293.706 72.3423C292.67 72.3423 291.862 71.997 291.284 71.3063C290.705 70.6156 290.416 69.6776 290.416 68.4923C290.416 67.727 290.546 67.055 290.808 66.4763C291.069 65.8883 291.447 65.4356 291.942 65.1183C292.436 64.7916 293.029 64.6283 293.72 64.6283ZM293.72 65.6643C292.441 65.6643 291.802 66.607 291.802 68.4923C291.802 70.3683 292.436 71.3063 293.706 71.3063C294.975 71.3063 295.61 70.3636 295.61 68.4783C295.61 66.6023 294.98 65.6643 293.72 65.6643ZM301.895 64.6283C302.931 64.6283 303.734 64.9736 304.303 65.6643C304.882 66.355 305.171 67.293 305.171 68.4783C305.171 69.2436 305.041 69.9203 304.779 70.5083C304.518 71.087 304.14 71.5396 303.645 71.8663C303.151 72.1836 302.563 72.3423 301.881 72.3423C300.845 72.3423 300.038 71.997 299.459 71.3063C298.881 70.6156 298.591 69.6776 298.591 68.4923C298.591 67.727 298.722 67.055 298.983 66.4763C299.245 65.8883 299.623 65.4356 300.117 65.1183C300.612 64.7916 301.205 64.6283 301.895 64.6283ZM301.895 65.6643C300.617 65.6643 299.977 66.607 299.977 68.4923C299.977 70.3683 300.612 71.3063 301.881 71.3063C303.151 71.3063 303.785 70.3636 303.785 68.4783C303.785 66.6023 303.155 65.6643 301.895 65.6643ZM314.705 64.6283C315.312 64.6283 315.797 64.8336 316.161 65.2443C316.525 65.6456 316.707 66.1916 316.707 66.8823V72.1743H315.419V67.0643C315.419 66.1123 315.074 65.6363 314.383 65.6363C314.019 65.6363 313.711 65.7436 313.459 65.9583C313.207 66.1636 312.937 66.4903 312.647 66.9383V72.1743H311.359V67.0643C311.359 66.1123 311.014 65.6363 310.323 65.6363C309.95 65.6363 309.637 65.7436 309.385 65.9583C309.133 66.173 308.867 66.4996 308.587 66.9383V72.1743H307.299V64.7963H308.405L308.517 65.8743C309.068 65.0436 309.777 64.6283 310.645 64.6283C311.103 64.6283 311.49 64.745 311.807 64.9783C312.134 65.2116 312.367 65.5383 312.507 65.9583C312.797 65.529 313.114 65.2023 313.459 64.9783C313.814 64.745 314.229 64.6283 314.705 64.6283Z" fill="#001826" fill-opacity="0.9"/>
<ellipse cx="285.167" cy="187.448" rx="49.1116" ry="49.535" fill="white" stroke="#004166" stroke-opacity="0.1" stroke-width="2" stroke-linecap="round"/>
<path d="M264.475 161.599C265.119 161.599 265.669 161.692 266.127 161.879C266.584 162.056 267.027 162.336 267.457 162.719L266.729 163.531C266.365 163.242 266.005 163.032 265.651 162.901C265.305 162.761 264.932 162.691 264.531 162.691C264.027 162.691 263.611 162.808 263.285 163.041C262.958 163.274 262.795 163.615 262.795 164.063C262.795 164.343 262.851 164.581 262.963 164.777C263.075 164.964 263.28 165.136 263.579 165.295C263.887 165.454 264.33 165.622 264.909 165.799C265.515 165.986 266.019 166.186 266.421 166.401C266.822 166.616 267.144 166.914 267.387 167.297C267.639 167.67 267.765 168.146 267.765 168.725C267.765 169.285 267.625 169.78 267.345 170.209C267.074 170.638 266.677 170.974 266.155 171.217C265.641 171.46 265.03 171.581 264.321 171.581C262.986 171.581 261.894 171.166 261.045 170.335L261.773 169.523C262.165 169.84 262.561 170.083 262.963 170.251C263.364 170.41 263.812 170.489 264.307 170.489C264.904 170.489 265.399 170.344 265.791 170.055C266.183 169.756 266.379 169.327 266.379 168.767C266.379 168.45 266.318 168.188 266.197 167.983C266.075 167.768 265.865 167.577 265.567 167.409C265.277 167.241 264.853 167.073 264.293 166.905C263.303 166.606 262.58 166.247 262.123 165.827C261.665 165.407 261.437 164.838 261.437 164.119C261.437 163.634 261.563 163.2 261.815 162.817C262.076 162.434 262.435 162.136 262.893 161.921C263.359 161.706 263.887 161.599 264.475 161.599ZM273.042 163.867C273.984 163.867 274.675 164.203 275.114 164.875C275.552 165.547 275.772 166.494 275.772 167.717C275.772 168.874 275.52 169.808 275.016 170.517C274.512 171.226 273.798 171.581 272.874 171.581C272.052 171.581 271.408 171.301 270.942 170.741V174.241L269.654 174.395V164.035H270.76L270.858 165.029C271.128 164.656 271.455 164.371 271.838 164.175C272.22 163.97 272.622 163.867 273.042 163.867ZM272.566 170.531C273.779 170.531 274.386 169.593 274.386 167.717C274.386 165.832 273.83 164.889 272.72 164.889C272.356 164.889 272.024 164.996 271.726 165.211C271.427 165.426 271.166 165.701 270.942 166.037V169.635C271.128 169.924 271.362 170.148 271.642 170.307C271.922 170.456 272.23 170.531 272.566 170.531ZM283.538 167.507C283.538 167.722 283.529 167.941 283.51 168.165H278.806C278.862 168.977 279.068 169.574 279.422 169.957C279.777 170.34 280.234 170.531 280.794 170.531C281.149 170.531 281.476 170.48 281.774 170.377C282.073 170.274 282.386 170.111 282.712 169.887L283.272 170.657C282.488 171.273 281.63 171.581 280.696 171.581C279.67 171.581 278.867 171.245 278.288 170.573C277.719 169.901 277.434 168.977 277.434 167.801C277.434 167.036 277.556 166.359 277.798 165.771C278.05 165.174 278.405 164.707 278.862 164.371C279.329 164.035 279.875 163.867 280.5 163.867C281.48 163.867 282.232 164.189 282.754 164.833C283.277 165.477 283.538 166.368 283.538 167.507ZM282.264 167.129C282.264 166.401 282.12 165.846 281.83 165.463C281.541 165.08 281.107 164.889 280.528 164.889C279.474 164.889 278.9 165.664 278.806 167.213H282.264V167.129ZM288.283 163.867C288.722 163.867 289.123 163.932 289.487 164.063C289.851 164.184 290.201 164.385 290.537 164.665L289.921 165.477C289.66 165.29 289.403 165.155 289.151 165.071C288.908 164.978 288.638 164.931 288.339 164.931C287.742 164.931 287.275 165.169 286.939 165.645C286.612 166.121 286.449 166.826 286.449 167.759C286.449 168.692 286.612 169.383 286.939 169.831C287.266 170.27 287.732 170.489 288.339 170.489C288.628 170.489 288.894 170.447 289.137 170.363C289.38 170.27 289.65 170.125 289.949 169.929L290.537 170.769C289.865 171.31 289.114 171.581 288.283 171.581C287.284 171.581 286.496 171.245 285.917 170.573C285.348 169.901 285.063 168.972 285.063 167.787C285.063 167.003 285.194 166.317 285.455 165.729C285.716 165.141 286.085 164.684 286.561 164.357C287.046 164.03 287.62 163.867 288.283 163.867ZM293.569 164.035V171.413H292.281V164.035H293.569ZM292.911 160.493C293.181 160.493 293.401 160.577 293.569 160.745C293.737 160.913 293.821 161.123 293.821 161.375C293.821 161.627 293.737 161.837 293.569 162.005C293.401 162.164 293.181 162.243 292.911 162.243C292.649 162.243 292.435 162.164 292.267 162.005C292.099 161.837 292.015 161.627 292.015 161.375C292.015 161.123 292.099 160.913 292.267 160.745C292.435 160.577 292.649 160.493 292.911 160.493ZM298.766 160.913C299.158 160.913 299.513 160.955 299.83 161.039C300.157 161.123 300.483 161.249 300.81 161.417L300.362 162.313C299.877 162.08 299.359 161.963 298.808 161.963C298.313 161.963 297.973 162.052 297.786 162.229C297.599 162.406 297.506 162.682 297.506 163.055V164.035H301.622V171.413H300.334V165.029H297.506V171.413H296.218V165.029H295.042V164.035H296.218V163.069C296.218 162.416 296.428 161.893 296.848 161.501C297.268 161.109 297.907 160.913 298.766 160.913ZM306.973 163.867C307.411 163.867 307.813 163.932 308.177 164.063C308.541 164.184 308.891 164.385 309.227 164.665L308.611 165.477C308.349 165.29 308.093 165.155 307.841 165.071C307.598 164.978 307.327 164.931 307.029 164.931C306.431 164.931 305.965 165.169 305.629 165.645C305.302 166.121 305.139 166.826 305.139 167.759C305.139 168.692 305.302 169.383 305.629 169.831C305.955 170.27 306.422 170.489 307.029 170.489C307.318 170.489 307.584 170.447 307.827 170.363C308.069 170.27 308.34 170.125 308.639 169.929L309.227 170.769C308.555 171.31 307.803 171.581 306.973 171.581C305.974 171.581 305.185 171.245 304.607 170.573C304.037 169.901 303.753 168.972 303.753 167.787C303.753 167.003 303.883 166.317 304.145 165.729C304.406 165.141 304.775 164.684 305.251 164.357C305.736 164.03 306.31 163.867 306.973 163.867ZM274.253 184.867C274.757 184.867 275.21 184.937 275.611 185.077C276.013 185.217 276.395 185.427 276.759 185.707L276.213 186.519C275.877 186.304 275.555 186.146 275.247 186.043C274.949 185.94 274.631 185.889 274.295 185.889C273.875 185.889 273.544 185.978 273.301 186.155C273.059 186.323 272.937 186.556 272.937 186.855C272.937 187.154 273.049 187.387 273.273 187.555C273.507 187.723 273.922 187.886 274.519 188.045C275.341 188.25 275.952 188.53 276.353 188.885C276.764 189.24 276.969 189.725 276.969 190.341C276.969 191.069 276.685 191.624 276.115 192.007C275.555 192.39 274.869 192.581 274.057 192.581C272.937 192.581 272.009 192.259 271.271 191.615L271.957 190.831C272.583 191.307 273.273 191.545 274.029 191.545C274.515 191.545 274.897 191.447 275.177 191.251C275.467 191.046 275.611 190.77 275.611 190.425C275.611 190.173 275.56 189.972 275.457 189.823C275.355 189.664 275.177 189.529 274.925 189.417C274.673 189.296 274.305 189.17 273.819 189.039C273.035 188.834 272.466 188.558 272.111 188.213C271.766 187.868 271.593 187.429 271.593 186.897C271.593 186.514 271.705 186.169 271.929 185.861C272.163 185.544 272.48 185.301 272.881 185.133C273.292 184.956 273.749 184.867 274.253 184.867ZM282.511 192.077C282.025 192.413 281.475 192.581 280.859 192.581C280.233 192.581 279.743 192.404 279.389 192.049C279.043 191.685 278.871 191.162 278.871 190.481V186.029H277.583V185.035H278.871V183.369L280.159 183.215V185.035H281.909L281.769 186.029H280.159V190.425C280.159 190.808 280.224 191.088 280.355 191.265C280.495 191.433 280.723 191.517 281.041 191.517C281.33 191.517 281.657 191.419 282.021 191.223L282.511 192.077ZM288.719 190.691C288.719 190.99 288.771 191.214 288.873 191.363C288.976 191.503 289.13 191.61 289.335 191.685L289.041 192.581C288.659 192.534 288.351 192.427 288.117 192.259C287.884 192.091 287.711 191.83 287.599 191.475C287.105 192.212 286.372 192.581 285.401 192.581C284.673 192.581 284.099 192.376 283.679 191.965C283.259 191.554 283.049 191.018 283.049 190.355C283.049 189.571 283.329 188.969 283.889 188.549C284.459 188.129 285.261 187.919 286.297 187.919H287.431V187.373C287.431 186.85 287.305 186.477 287.053 186.253C286.801 186.029 286.414 185.917 285.891 185.917C285.35 185.917 284.687 186.048 283.903 186.309L283.581 185.371C284.496 185.035 285.345 184.867 286.129 184.867C286.997 184.867 287.646 185.082 288.075 185.511C288.505 185.931 288.719 186.533 288.719 187.317V190.691ZM285.695 191.615C286.433 191.615 287.011 191.232 287.431 190.467V188.773H286.465C285.103 188.773 284.421 189.277 284.421 190.285C284.421 190.724 284.529 191.055 284.743 191.279C284.958 191.503 285.275 191.615 285.695 191.615ZM293.871 182.949C293.479 182.949 293.199 183.038 293.031 183.215C292.863 183.383 292.779 183.649 292.779 184.013V185.035H294.571L294.431 186.029H292.779V192.413H291.491V186.029H290.175V185.035H291.491V184.027C291.491 183.392 291.691 182.884 292.093 182.501C292.503 182.109 293.073 181.913 293.801 181.913C294.137 181.913 294.435 181.946 294.697 182.011C294.967 182.067 295.257 182.16 295.565 182.291L295.159 183.229C294.739 183.042 294.309 182.949 293.871 182.949ZM298.56 182.949C298.168 182.949 297.888 183.038 297.72 183.215C297.552 183.383 297.468 183.649 297.468 184.013V185.035H299.26L299.12 186.029H297.468V192.413H296.18V186.029H294.864V185.035H296.18V184.027C296.18 183.392 296.381 182.884 296.782 182.501C297.193 182.109 297.762 181.913 298.49 181.913C298.826 181.913 299.125 181.946 299.386 182.011C299.657 182.067 299.946 182.16 300.254 182.291L299.848 183.229C299.428 183.042 298.999 182.949 298.56 182.949ZM265.532 205.867C265.793 205.867 266.036 205.895 266.26 205.951L266.022 207.211C265.798 207.155 265.583 207.127 265.378 207.127C264.92 207.127 264.552 207.295 264.272 207.631C263.992 207.967 263.772 208.49 263.614 209.199V213.413H262.326V206.035H263.432L263.558 207.533C263.754 206.982 264.02 206.567 264.356 206.287C264.692 206.007 265.084 205.867 265.532 205.867ZM272.874 209.507C272.874 209.722 272.865 209.941 272.846 210.165H268.142C268.198 210.977 268.404 211.574 268.758 211.957C269.113 212.34 269.57 212.531 270.13 212.531C270.485 212.531 270.812 212.48 271.11 212.377C271.409 212.274 271.722 212.111 272.048 211.887L272.608 212.657C271.824 213.273 270.966 213.581 270.032 213.581C269.006 213.581 268.203 213.245 267.624 212.573C267.055 211.901 266.77 210.977 266.77 209.801C266.77 209.036 266.892 208.359 267.134 207.771C267.386 207.174 267.741 206.707 268.198 206.371C268.665 206.035 269.211 205.867 269.836 205.867C270.816 205.867 271.568 206.189 272.09 206.833C272.613 207.477 272.874 208.368 272.874 209.507ZM271.6 209.129C271.6 208.401 271.456 207.846 271.166 207.463C270.877 207.08 270.443 206.889 269.864 206.889C268.81 206.889 268.236 207.664 268.142 209.213H271.6V209.129ZM280.643 206.035V216.395L279.355 216.241V212.433C279.112 212.797 278.809 213.082 278.445 213.287C278.09 213.483 277.694 213.581 277.255 213.581C276.378 213.581 275.692 213.236 275.197 212.545C274.712 211.854 274.469 210.926 274.469 209.759C274.469 209.003 274.586 208.331 274.819 207.743C275.052 207.155 275.388 206.698 275.827 206.371C276.266 206.035 276.779 205.867 277.367 205.867C278.151 205.867 278.842 206.198 279.439 206.861L279.537 206.035H280.643ZM277.535 212.559C277.927 212.559 278.263 212.47 278.543 212.293C278.823 212.106 279.094 211.831 279.355 211.467V207.855C279.112 207.538 278.851 207.3 278.571 207.141C278.3 206.973 277.992 206.889 277.647 206.889C277.078 206.889 276.634 207.127 276.317 207.603C276.009 208.079 275.855 208.788 275.855 209.731C275.855 210.683 276 211.392 276.289 211.859C276.578 212.326 276.994 212.559 277.535 212.559ZM288.786 213.413H287.68L287.582 212.265C287.302 212.722 286.98 213.058 286.616 213.273C286.252 213.478 285.809 213.581 285.286 213.581C284.642 213.581 284.138 213.385 283.774 212.993C283.41 212.601 283.228 212.046 283.228 211.327V206.035H284.516V211.187C284.516 211.691 284.605 212.05 284.782 212.265C284.96 212.47 285.249 212.573 285.65 212.573C286.369 212.573 286.985 212.148 287.498 211.299V206.035H288.786V213.413ZM297.019 209.507C297.019 209.722 297.009 209.941 296.991 210.165H292.287C292.343 210.977 292.548 211.574 292.903 211.957C293.257 212.34 293.715 212.531 294.275 212.531C294.629 212.531 294.956 212.48 295.255 212.377C295.553 212.274 295.866 212.111 296.193 211.887L296.753 212.657C295.969 213.273 295.11 213.581 294.177 213.581C293.15 213.581 292.347 213.245 291.769 212.573C291.199 211.901 290.915 210.977 290.915 209.801C290.915 209.036 291.036 208.359 291.279 207.771C291.531 207.174 291.885 206.707 292.343 206.371C292.809 206.035 293.355 205.867 293.981 205.867C294.961 205.867 295.712 206.189 296.235 206.833C296.757 207.477 297.019 208.368 297.019 209.507ZM295.745 209.129C295.745 208.401 295.6 207.846 295.311 207.463C295.021 207.08 294.587 206.889 294.009 206.889C292.954 206.889 292.38 207.664 292.287 209.213H295.745V209.129ZM301.078 205.867C301.582 205.867 302.034 205.937 302.436 206.077C302.837 206.217 303.22 206.427 303.584 206.707L303.038 207.519C302.702 207.304 302.38 207.146 302.072 207.043C301.773 206.94 301.456 206.889 301.12 206.889C300.7 206.889 300.368 206.978 300.126 207.155C299.883 207.323 299.762 207.556 299.762 207.855C299.762 208.154 299.874 208.387 300.098 208.555C300.331 208.723 300.746 208.886 301.344 209.045C302.165 209.25 302.776 209.53 303.178 209.885C303.588 210.24 303.794 210.725 303.794 211.341C303.794 212.069 303.509 212.624 302.94 213.007C302.38 213.39 301.694 213.581 300.882 213.581C299.762 213.581 298.833 213.259 298.096 212.615L298.782 211.831C299.407 212.307 300.098 212.545 300.854 212.545C301.339 212.545 301.722 212.447 302.002 212.251C302.291 212.046 302.436 211.77 302.436 211.425C302.436 211.173 302.384 210.972 302.282 210.823C302.179 210.664 302.002 210.529 301.75 210.417C301.498 210.296 301.129 210.17 300.644 210.039C299.86 209.834 299.29 209.558 298.936 209.213C298.59 208.868 298.418 208.429 298.418 207.897C298.418 207.514 298.53 207.169 298.754 206.861C298.987 206.544 299.304 206.301 299.706 206.133C300.116 205.956 300.574 205.867 301.078 205.867ZM309.335 213.077C308.849 213.413 308.299 213.581 307.683 213.581C307.057 213.581 306.567 213.404 306.213 213.049C305.867 212.685 305.695 212.162 305.695 211.481V207.029H304.407V206.035H305.695V204.369L306.983 204.215V206.035H308.733L308.593 207.029H306.983V211.425C306.983 211.808 307.048 212.088 307.179 212.265C307.319 212.433 307.547 212.517 307.865 212.517C308.154 212.517 308.481 212.419 308.845 212.223L309.335 213.077Z" fill="#001826" fill-opacity="0.9"/>
<ellipse cx="285.167" cy="326.316" rx="49.1116" ry="49.9584" fill="white" stroke="#004166" stroke-opacity="0.1" stroke-width="2" stroke-linecap="round"/>
<path d="M265.811 310.543C266.389 310.543 266.875 310.618 267.267 310.767C267.668 310.917 268.074 311.159 268.485 311.495L267.757 312.349C267.169 311.873 266.548 311.635 265.895 311.635C265.092 311.635 264.443 311.943 263.949 312.559C263.463 313.175 263.221 314.165 263.221 315.527C263.221 316.853 263.463 317.833 263.949 318.467C264.434 319.093 265.078 319.405 265.881 319.405C266.291 319.405 266.651 319.335 266.959 319.195C267.267 319.055 267.593 318.859 267.939 318.607L268.597 319.447C268.298 319.755 267.915 320.012 267.449 320.217C266.982 320.423 266.445 320.525 265.839 320.525C265.055 320.525 264.355 320.334 263.739 319.951C263.132 319.559 262.656 318.99 262.311 318.243C261.975 317.487 261.807 316.582 261.807 315.527C261.807 314.473 261.984 313.572 262.339 312.825C262.693 312.069 263.174 311.5 263.781 311.117C264.387 310.735 265.064 310.543 265.811 310.543ZM272.699 312.811C273.735 312.811 274.538 313.157 275.107 313.847C275.686 314.538 275.975 315.476 275.975 316.661C275.975 317.427 275.845 318.103 275.583 318.691C275.322 319.27 274.944 319.723 274.449 320.049C273.955 320.367 273.367 320.525 272.685 320.525C271.649 320.525 270.842 320.18 270.263 319.489C269.685 318.799 269.395 317.861 269.395 316.675C269.395 315.91 269.526 315.238 269.787 314.659C270.049 314.071 270.427 313.619 270.921 313.301C271.416 312.975 272.009 312.811 272.699 312.811ZM272.699 313.847C271.421 313.847 270.781 314.79 270.781 316.675C270.781 318.551 271.416 319.489 272.685 319.489C273.955 319.489 274.589 318.547 274.589 316.661C274.589 314.785 273.959 313.847 272.699 313.847ZM281.575 312.811C282.247 312.811 282.77 313.012 283.143 313.413C283.526 313.815 283.717 314.365 283.717 315.065V320.357H282.429V315.247C282.429 314.725 282.331 314.356 282.135 314.141C281.939 313.927 281.65 313.819 281.267 313.819C280.875 313.819 280.53 313.931 280.231 314.155C279.932 314.379 279.652 314.701 279.391 315.121V320.357H278.103V312.979H279.209L279.321 314.071C279.582 313.679 279.904 313.371 280.287 313.147C280.679 312.923 281.108 312.811 281.575 312.811ZM290.03 320.021C289.545 320.357 288.994 320.525 288.378 320.525C287.753 320.525 287.263 320.348 286.908 319.993C286.563 319.629 286.39 319.107 286.39 318.425V313.973H285.102V312.979H286.39V311.313L287.678 311.159V312.979H289.428L289.288 313.973H287.678V318.369C287.678 318.752 287.743 319.032 287.874 319.209C288.014 319.377 288.243 319.461 288.56 319.461C288.849 319.461 289.176 319.363 289.54 319.167L290.03 320.021ZM296.239 318.635C296.239 318.934 296.29 319.158 296.393 319.307C296.496 319.447 296.65 319.555 296.855 319.629L296.561 320.525C296.178 320.479 295.87 320.371 295.637 320.203C295.404 320.035 295.231 319.774 295.119 319.419C294.624 320.157 293.892 320.525 292.921 320.525C292.193 320.525 291.619 320.32 291.199 319.909C290.779 319.499 290.569 318.962 290.569 318.299C290.569 317.515 290.849 316.913 291.409 316.493C291.978 316.073 292.781 315.863 293.817 315.863H294.951V315.317C294.951 314.795 294.825 314.421 294.573 314.197C294.321 313.973 293.934 313.861 293.411 313.861C292.87 313.861 292.207 313.992 291.423 314.253L291.101 313.315C292.016 312.979 292.865 312.811 293.649 312.811C294.517 312.811 295.166 313.026 295.595 313.455C296.024 313.875 296.239 314.477 296.239 315.261V318.635ZM293.215 319.559C293.952 319.559 294.531 319.177 294.951 318.411V316.717H293.985C292.622 316.717 291.941 317.221 291.941 318.229C291.941 318.668 292.048 318.999 292.263 319.223C292.478 319.447 292.795 319.559 293.215 319.559ZM301.572 312.811C302.011 312.811 302.412 312.877 302.776 313.007C303.14 313.129 303.49 313.329 303.826 313.609L303.21 314.421C302.949 314.235 302.692 314.099 302.44 314.015C302.198 313.922 301.927 313.875 301.628 313.875C301.031 313.875 300.564 314.113 300.228 314.589C299.902 315.065 299.738 315.77 299.738 316.703C299.738 317.637 299.902 318.327 300.228 318.775C300.555 319.214 301.022 319.433 301.628 319.433C301.918 319.433 302.184 319.391 302.426 319.307C302.669 319.214 302.94 319.069 303.238 318.873L303.826 319.713C303.154 320.255 302.403 320.525 301.572 320.525C300.574 320.525 299.785 320.189 299.206 319.517C298.637 318.845 298.352 317.917 298.352 316.731C298.352 315.947 298.483 315.261 298.744 314.673C299.006 314.085 299.374 313.628 299.85 313.301C300.336 312.975 300.91 312.811 301.572 312.811ZM309.294 320.021C308.808 320.357 308.258 320.525 307.642 320.525C307.016 320.525 306.526 320.348 306.172 319.993C305.826 319.629 305.654 319.107 305.654 318.425V313.973H304.366V312.979H305.654V311.313L306.942 311.159V312.979H308.692L308.552 313.973H306.942V318.369C306.942 318.752 307.007 319.032 307.138 319.209C307.278 319.377 307.506 319.461 307.824 319.461C308.113 319.461 308.44 319.363 308.804 319.167L309.294 320.021ZM264.759 333.811C265.02 333.811 265.263 333.839 265.487 333.895L265.249 335.155C265.025 335.099 264.81 335.071 264.605 335.071C264.148 335.071 263.779 335.239 263.499 335.575C263.219 335.911 263 336.434 262.841 337.143V341.357H261.553V333.979H262.659L262.785 335.477C262.981 334.927 263.247 334.511 263.583 334.231C263.919 333.951 264.311 333.811 264.759 333.811ZM272.102 337.451C272.102 337.666 272.092 337.885 272.074 338.109H267.37C267.426 338.921 267.631 339.519 267.986 339.901C268.34 340.284 268.798 340.475 269.358 340.475C269.712 340.475 270.039 340.424 270.338 340.321C270.636 340.219 270.949 340.055 271.276 339.831L271.836 340.601C271.052 341.217 270.193 341.525 269.26 341.525C268.233 341.525 267.43 341.189 266.852 340.517C266.282 339.845 265.998 338.921 265.998 337.745C265.998 336.98 266.119 336.303 266.362 335.715C266.614 335.118 266.968 334.651 267.426 334.315C267.892 333.979 268.438 333.811 269.064 333.811C270.044 333.811 270.795 334.133 271.318 334.777C271.84 335.421 272.102 336.313 272.102 337.451ZM270.828 337.073C270.828 336.345 270.683 335.79 270.394 335.407C270.104 335.025 269.67 334.833 269.092 334.833C268.037 334.833 267.463 335.608 267.37 337.157H270.828V337.073ZM277.631 333.811C278.303 333.811 278.825 334.012 279.199 334.413C279.581 334.815 279.773 335.365 279.773 336.065V341.357H278.485V336.247C278.485 335.725 278.387 335.356 278.191 335.141C277.995 334.927 277.705 334.819 277.323 334.819C276.931 334.819 276.585 334.931 276.287 335.155C275.988 335.379 275.708 335.701 275.447 336.121V341.357H274.159V333.979H275.265L275.377 335.071C275.638 334.679 275.96 334.371 276.343 334.147C276.735 333.923 277.164 333.811 277.631 333.811ZM287.934 337.451C287.934 337.666 287.924 337.885 287.906 338.109H283.202C283.258 338.921 283.463 339.519 283.818 339.901C284.172 340.284 284.63 340.475 285.19 340.475C285.544 340.475 285.871 340.424 286.17 340.321C286.468 340.219 286.781 340.055 287.108 339.831L287.668 340.601C286.884 341.217 286.025 341.525 285.092 341.525C284.065 341.525 283.262 341.189 282.684 340.517C282.114 339.845 281.83 338.921 281.83 337.745C281.83 336.98 281.951 336.303 282.194 335.715C282.446 335.118 282.8 334.651 283.258 334.315C283.724 333.979 284.27 333.811 284.896 333.811C285.876 333.811 286.627 334.133 287.15 334.777C287.672 335.421 287.934 336.313 287.934 337.451ZM286.66 337.073C286.66 336.345 286.515 335.79 286.226 335.407C285.936 335.025 285.502 334.833 284.924 334.833C283.869 334.833 283.295 335.608 283.202 337.157H286.66V337.073ZM298.419 333.979L296.739 341.357H294.989L293.701 335.141L292.371 341.357H290.663L288.941 333.979H290.229L291.559 340.461L293.015 333.979H294.457L295.843 340.461L297.187 333.979H298.419ZM304.832 339.635C304.832 339.934 304.883 340.158 304.986 340.307C305.088 340.447 305.242 340.555 305.448 340.629L305.154 341.525C304.771 341.479 304.463 341.371 304.23 341.203C303.996 341.035 303.824 340.774 303.712 340.419C303.217 341.157 302.484 341.525 301.514 341.525C300.786 341.525 300.212 341.32 299.792 340.909C299.372 340.499 299.162 339.962 299.162 339.299C299.162 338.515 299.442 337.913 300.002 337.493C300.571 337.073 301.374 336.863 302.41 336.863H303.544V336.317C303.544 335.795 303.418 335.421 303.166 335.197C302.914 334.973 302.526 334.861 302.004 334.861C301.462 334.861 300.8 334.992 300.016 335.253L299.694 334.315C300.608 333.979 301.458 333.811 302.242 333.811C303.11 333.811 303.758 334.026 304.188 334.455C304.617 334.875 304.832 335.477 304.832 336.261V339.635ZM301.808 340.559C302.545 340.559 303.124 340.177 303.544 339.411V337.717H302.578C301.215 337.717 300.534 338.221 300.534 339.229C300.534 339.668 300.641 339.999 300.856 340.223C301.07 340.447 301.388 340.559 301.808 340.559ZM308.81 341.525C308.334 341.525 307.956 341.385 307.676 341.105C307.406 340.816 307.27 340.415 307.27 339.901V331.011L308.558 330.857V339.873C308.558 340.079 308.591 340.228 308.656 340.321C308.731 340.415 308.852 340.461 309.02 340.461C309.198 340.461 309.356 340.433 309.496 340.377L309.832 341.273C309.524 341.441 309.184 341.525 308.81 341.525Z" fill="#001826" fill-opacity="0.9"/>
<ellipse cx="285.167" cy="452.905" rx="49.1116" ry="49.9584" fill="white" stroke="#004166" stroke-opacity="0.1" stroke-width="2" stroke-linecap="round"/>
<path d="M259.255 452.351C259.918 452.463 260.454 452.696 260.865 453.051C261.276 453.405 261.481 453.956 261.481 454.703C261.481 456.532 260.207 457.447 257.659 457.447H254.999V447.801H257.281C258.504 447.801 259.437 448.001 260.081 448.403C260.734 448.804 261.061 449.415 261.061 450.237C261.061 450.797 260.884 451.263 260.529 451.637C260.184 452.01 259.759 452.248 259.255 452.351ZM256.329 448.851V451.889H257.785C258.345 451.889 258.802 451.753 259.157 451.483C259.521 451.212 259.703 450.829 259.703 450.335C259.703 449.775 259.512 449.387 259.129 449.173C258.756 448.958 258.186 448.851 257.421 448.851H256.329ZM257.659 456.383C258.443 456.383 259.04 456.266 259.451 456.033C259.871 455.799 260.081 455.356 260.081 454.703C260.081 454.068 259.88 453.611 259.479 453.331C259.078 453.051 258.555 452.911 257.911 452.911H256.329V456.383H257.659ZM266.653 449.901C266.914 449.901 267.157 449.929 267.381 449.985L267.143 451.245C266.919 451.189 266.704 451.161 266.499 451.161C266.041 451.161 265.673 451.329 265.393 451.665C265.113 452.001 264.893 452.523 264.735 453.233V457.447H263.447V450.069H264.553L264.679 451.567C264.875 451.016 265.141 450.601 265.477 450.321C265.813 450.041 266.205 449.901 266.653 449.901ZM271.195 449.901C272.231 449.901 273.034 450.246 273.603 450.937C274.182 451.627 274.471 452.565 274.471 453.751C274.471 454.516 274.341 455.193 274.079 455.781C273.818 456.359 273.44 456.812 272.945 457.139C272.451 457.456 271.863 457.615 271.181 457.615C270.145 457.615 269.338 457.269 268.759 456.579C268.181 455.888 267.891 454.95 267.891 453.765C267.891 452.999 268.022 452.327 268.283 451.749C268.545 451.161 268.923 450.708 269.417 450.391C269.912 450.064 270.505 449.901 271.195 449.901ZM271.195 450.937C269.917 450.937 269.277 451.879 269.277 453.765C269.277 455.641 269.912 456.579 271.181 456.579C272.451 456.579 273.085 455.636 273.085 453.751C273.085 451.875 272.455 450.937 271.195 450.937ZM281.432 455.725C281.432 456.023 281.484 456.247 281.586 456.397C281.689 456.537 281.843 456.644 282.048 456.719L281.754 457.615C281.372 457.568 281.064 457.461 280.83 457.293C280.597 457.125 280.424 456.863 280.312 456.509C279.818 457.246 279.085 457.615 278.114 457.615C277.386 457.615 276.812 457.409 276.392 456.999C275.972 456.588 275.762 456.051 275.762 455.389C275.762 454.605 276.042 454.003 276.602 453.583C277.172 453.163 277.974 452.953 279.01 452.953H280.144V452.407C280.144 451.884 280.018 451.511 279.766 451.287C279.514 451.063 279.127 450.951 278.604 450.951C278.063 450.951 277.4 451.081 276.616 451.343L276.294 450.405C277.209 450.069 278.058 449.901 278.842 449.901C279.71 449.901 280.359 450.115 280.788 450.545C281.218 450.965 281.432 451.567 281.432 452.351V455.725ZM278.408 456.649C279.146 456.649 279.724 456.266 280.144 455.501V453.807H279.178C277.816 453.807 277.134 454.311 277.134 455.319C277.134 455.757 277.242 456.089 277.456 456.313C277.671 456.537 277.988 456.649 278.408 456.649ZM289.79 447.101V457.447H288.656L288.53 456.425C288.287 456.798 287.984 457.092 287.62 457.307C287.256 457.512 286.85 457.615 286.402 457.615C285.524 457.615 284.838 457.269 284.344 456.579C283.858 455.888 283.616 454.959 283.616 453.793C283.616 453.037 283.732 452.365 283.966 451.777C284.199 451.189 284.535 450.731 284.974 450.405C285.412 450.069 285.926 449.901 286.514 449.901C287.27 449.901 287.932 450.204 288.502 450.811V446.947L289.79 447.101ZM286.682 456.593C287.074 456.593 287.41 456.504 287.69 456.327C287.97 456.14 288.24 455.865 288.502 455.501V451.889C288.259 451.571 287.998 451.333 287.718 451.175C287.447 451.007 287.139 450.923 286.794 450.923C286.224 450.923 285.781 451.161 285.464 451.637C285.156 452.113 285.002 452.822 285.002 453.765C285.002 454.717 285.146 455.426 285.436 455.893C285.725 456.359 286.14 456.593 286.682 456.593ZM295.133 449.901C295.571 449.901 295.973 449.966 296.337 450.097C296.701 450.218 297.051 450.419 297.387 450.699L296.771 451.511C296.509 451.324 296.253 451.189 296.001 451.105C295.758 451.011 295.487 450.965 295.189 450.965C294.591 450.965 294.125 451.203 293.789 451.679C293.462 452.155 293.299 452.859 293.299 453.793C293.299 454.726 293.462 455.417 293.789 455.865C294.115 456.303 294.582 456.523 295.189 456.523C295.478 456.523 295.744 456.481 295.987 456.397C296.229 456.303 296.5 456.159 296.799 455.963L297.387 456.803C296.715 457.344 295.963 457.615 295.133 457.615C294.134 457.615 293.345 457.279 292.767 456.607C292.197 455.935 291.913 455.006 291.913 453.821C291.913 453.037 292.043 452.351 292.305 451.763C292.566 451.175 292.935 450.717 293.411 450.391C293.896 450.064 294.47 449.901 295.133 449.901ZM303.964 455.725C303.964 456.023 304.015 456.247 304.118 456.397C304.22 456.537 304.374 456.644 304.58 456.719L304.286 457.615C303.903 457.568 303.595 457.461 303.362 457.293C303.128 457.125 302.956 456.863 302.844 456.509C302.349 457.246 301.616 457.615 300.646 457.615C299.918 457.615 299.344 457.409 298.924 456.999C298.504 456.588 298.294 456.051 298.294 455.389C298.294 454.605 298.574 454.003 299.134 453.583C299.703 453.163 300.506 452.953 301.542 452.953H302.676V452.407C302.676 451.884 302.55 451.511 302.298 451.287C302.046 451.063 301.658 450.951 301.136 450.951C300.594 450.951 299.932 451.081 299.148 451.343L298.826 450.405C299.74 450.069 300.59 449.901 301.374 449.901C302.242 449.901 302.89 450.115 303.32 450.545C303.749 450.965 303.964 451.567 303.964 452.351V455.725ZM300.94 456.649C301.677 456.649 302.256 456.266 302.676 455.501V453.807H301.71C300.347 453.807 299.666 454.311 299.666 455.319C299.666 455.757 299.773 456.089 299.988 456.313C300.202 456.537 300.52 456.649 300.94 456.649ZM308.474 449.901C308.978 449.901 309.431 449.971 309.832 450.111C310.233 450.251 310.616 450.461 310.98 450.741L310.434 451.553C310.098 451.338 309.776 451.179 309.468 451.077C309.169 450.974 308.852 450.923 308.516 450.923C308.096 450.923 307.765 451.011 307.522 451.189C307.279 451.357 307.158 451.59 307.158 451.889C307.158 452.187 307.27 452.421 307.494 452.589C307.727 452.757 308.143 452.92 308.74 453.079C309.561 453.284 310.173 453.564 310.574 453.919C310.985 454.273 311.19 454.759 311.19 455.375C311.19 456.103 310.905 456.658 310.336 457.041C309.776 457.423 309.09 457.615 308.278 457.615C307.158 457.615 306.229 457.293 305.492 456.649L306.178 455.865C306.803 456.341 307.494 456.579 308.25 456.579C308.735 456.579 309.118 456.481 309.398 456.285C309.687 456.079 309.832 455.804 309.832 455.459C309.832 455.207 309.781 455.006 309.678 454.857C309.575 454.698 309.398 454.563 309.146 454.451C308.894 454.329 308.525 454.203 308.04 454.073C307.256 453.867 306.687 453.592 306.332 453.247C305.987 452.901 305.814 452.463 305.814 451.931C305.814 451.548 305.926 451.203 306.15 450.895C306.383 450.577 306.701 450.335 307.102 450.167C307.513 449.989 307.97 449.901 308.474 449.901ZM316.731 457.111C316.246 457.447 315.695 457.615 315.079 457.615C314.454 457.615 313.964 457.437 313.609 457.083C313.264 456.719 313.091 456.196 313.091 455.515V451.063H311.803V450.069H313.091V448.403L314.379 448.249V450.069H316.129L315.989 451.063H314.379V455.459C314.379 455.841 314.445 456.121 314.575 456.299C314.715 456.467 314.944 456.551 315.261 456.551C315.551 456.551 315.877 456.453 316.241 456.257L316.731 457.111Z" fill="#001826" fill-opacity="0.9"/>
<path d="M188.501 235.764C187.949 235.764 187.501 236.212 187.501 236.764C187.501 237.317 187.949 237.764 188.501 237.764V235.764ZM232.263 68.3397C232.654 67.9492 232.654 67.316 232.263 66.9255L225.899 60.5615C225.509 60.171 224.875 60.171 224.485 60.5615C224.094 60.952 224.094 61.5852 224.485 61.9757L230.142 67.6326L224.485 73.2894C224.094 73.6799 224.094 74.3131 224.485 74.7036C224.875 75.0942 225.509 75.0942 225.899 74.7036L232.263 68.3397ZM188.501 237.764H207.029V235.764H188.501V237.764ZM211.029 233.764V70.6326H209.029V233.764H211.029ZM213.029 68.6326H231.556V66.6326H213.029V68.6326ZM211.029 70.6326C211.029 69.528 211.924 68.6326 213.029 68.6326V66.6326C210.82 66.6326 209.029 68.4234 209.029 70.6326H211.029ZM207.029 237.764C209.238 237.764 211.029 235.973 211.029 233.764H209.029C209.029 234.869 208.133 235.764 207.029 235.764V237.764Z" fill="#004166" fill-opacity="0.1"/>
<path d="M188.501 235.764C187.949 235.764 187.501 236.212 187.501 236.764C187.501 237.317 187.949 237.764 188.501 237.764V235.764ZM232.263 188.155C232.654 187.765 232.654 187.131 232.263 186.741L225.899 180.377C225.509 179.986 224.875 179.986 224.485 180.377C224.094 180.767 224.094 181.401 224.485 181.791L230.142 187.448L224.485 193.105C224.094 193.495 224.094 194.129 224.485 194.519C224.875 194.91 225.509 194.91 225.899 194.519L232.263 188.155ZM188.501 237.764H207.029V235.764H188.501V237.764ZM211.029 233.764V190.448H209.029V233.764H211.029ZM213.029 188.448H231.556V186.448H213.029V188.448ZM211.029 190.448C211.029 189.343 211.924 188.448 213.029 188.448V186.448C210.82 186.448 209.029 188.239 209.029 190.448H211.029ZM207.029 237.764C209.238 237.764 211.029 235.973 211.029 233.764H209.029C209.029 234.869 208.133 235.764 207.029 235.764V237.764Z" fill="#004166" fill-opacity="0.1"/>
<path d="M188.501 235.764C187.949 235.764 187.501 236.212 187.501 236.764C187.501 237.316 187.949 237.764 188.501 237.764V235.764ZM232.263 327.022C232.654 326.632 232.654 325.999 232.263 325.608L225.899 319.244C225.509 318.854 224.875 318.854 224.485 319.244C224.094 319.635 224.094 320.268 224.485 320.659L230.142 326.315L224.485 331.972C224.094 332.363 224.094 332.996 224.485 333.386C224.875 333.777 225.509 333.777 225.899 333.386L232.263 327.022ZM188.501 237.764H207.029V235.764H188.501V237.764ZM209.029 239.764V323.315H211.029V239.764H209.029ZM213.029 327.315H231.556V325.315H213.029V327.315ZM209.029 323.315C209.029 325.525 210.82 327.315 213.029 327.315V325.315C211.924 325.315 211.029 324.42 211.029 323.315H209.029ZM207.029 237.764C208.133 237.764 209.029 238.66 209.029 239.764H211.029C211.029 237.555 209.238 235.764 207.029 235.764V237.764Z" fill="#004166" fill-opacity="0.1"/>
<path d="M188.501 235.764C187.949 235.764 187.501 236.212 187.501 236.764C187.501 237.316 187.949 237.764 188.501 237.764V235.764ZM232.263 453.612C232.654 453.221 232.654 452.588 232.263 452.198L225.899 445.834C225.509 445.443 224.875 445.443 224.485 445.834C224.094 446.224 224.094 446.857 224.485 447.248L230.142 452.905L224.485 458.562C224.094 458.952 224.094 459.585 224.485 459.976C224.875 460.366 225.509 460.366 225.899 459.976L232.263 453.612ZM188.501 237.764H207.029V235.764H188.501V237.764ZM209.029 239.764V449.905H211.029V239.764H209.029ZM213.029 453.905H231.556V451.905H213.029V453.905ZM209.029 449.905C209.029 452.114 210.82 453.905 213.029 453.905V451.905C211.924 451.905 211.029 451.009 211.029 449.905H209.029ZM207.029 237.764C208.133 237.764 209.029 238.66 209.029 239.764H211.029C211.029 237.555 209.238 235.764 207.029 235.764V237.764Z" fill="#004166" fill-opacity="0.1"/>
<ellipse cx="634.036" cy="56.5637" rx="53.2198" ry="55.0872" fill="white" stroke="#004166" stroke-opacity="0.1" stroke-width="2" stroke-linecap="round"/>
<path d="M623.144 40.8306L622.99 41.8946H619.252V45.0446H622.5V46.1086H619.252V49.4126H623.256V50.4766H617.922V40.8306H623.144ZM632.613 42.9306C633.22 42.9306 633.705 43.1359 634.069 43.5466C634.433 43.9479 634.615 44.4939 634.615 45.1846V50.4766H633.327V45.3666C633.327 44.4146 632.982 43.9386 632.291 43.9386C631.927 43.9386 631.619 44.0459 631.367 44.2606C631.115 44.4659 630.845 44.7926 630.555 45.2406V50.4766H629.267V45.3666C629.267 44.4146 628.922 43.9386 628.231 43.9386C627.858 43.9386 627.545 44.0459 627.293 44.2606C627.041 44.4752 626.775 44.8019 626.495 45.2406V50.4766H625.207V43.0986H626.313L626.425 44.1766C626.976 43.3459 627.685 42.9306 628.553 42.9306C629.011 42.9306 629.398 43.0472 629.715 43.2806C630.042 43.5139 630.275 43.8406 630.415 44.2606C630.705 43.8312 631.022 43.5046 631.367 43.2806C631.722 43.0472 632.137 42.9306 632.613 42.9306ZM642.181 48.7546C642.181 49.0532 642.233 49.2772 642.335 49.4266C642.438 49.5666 642.592 49.6739 642.797 49.7486L642.503 50.6446C642.121 50.5979 641.813 50.4906 641.579 50.3226C641.346 50.1546 641.173 49.8932 641.061 49.5386C640.567 50.2759 639.834 50.6446 638.863 50.6446C638.135 50.6446 637.561 50.4392 637.141 50.0286C636.721 49.6179 636.511 49.0812 636.511 48.4186C636.511 47.6346 636.791 47.0326 637.351 46.6126C637.921 46.1926 638.723 45.9826 639.759 45.9826H640.893V45.4366C640.893 44.9139 640.767 44.5406 640.515 44.3166C640.263 44.0926 639.876 43.9806 639.353 43.9806C638.812 43.9806 638.149 44.1112 637.365 44.3726L637.043 43.4346C637.958 43.0986 638.807 42.9306 639.591 42.9306C640.459 42.9306 641.108 43.1452 641.537 43.5746C641.967 43.9946 642.181 44.5966 642.181 45.3806V48.7546ZM639.157 49.6786C639.895 49.6786 640.473 49.2959 640.893 48.5306V46.8366H639.927C638.565 46.8366 637.883 47.3406 637.883 48.3486C637.883 48.7872 637.991 49.1186 638.205 49.3426C638.42 49.5666 638.737 49.6786 639.157 49.6786ZM646.115 43.0986V50.4766H644.827V43.0986H646.115ZM645.457 39.5566C645.727 39.5566 645.947 39.6406 646.115 39.8086C646.283 39.9766 646.367 40.1866 646.367 40.4386C646.367 40.6906 646.283 40.9006 646.115 41.0686C645.947 41.2272 645.727 41.3066 645.457 41.3066C645.195 41.3066 644.981 41.2272 644.813 41.0686C644.645 40.9006 644.561 40.6906 644.561 40.4386C644.561 40.1866 644.645 39.9766 644.813 39.8086C644.981 39.6406 645.195 39.5566 645.457 39.5566ZM650.248 50.6446C649.772 50.6446 649.394 50.5046 649.114 50.2246C648.843 49.9352 648.708 49.5339 648.708 49.0206V40.1306L649.996 39.9766V48.9926C649.996 49.1979 650.028 49.3472 650.094 49.4406C650.168 49.5339 650.29 49.5806 650.458 49.5806C650.635 49.5806 650.794 49.5526 650.934 49.4966L651.27 50.3926C650.962 50.5606 650.621 50.6446 650.248 50.6446ZM606.22 64.0986V71.4766H604.932V64.0986H606.22ZM605.562 60.5566C605.833 60.5566 606.052 60.6406 606.22 60.8086C606.388 60.9766 606.472 61.1866 606.472 61.4386C606.472 61.6906 606.388 61.9006 606.22 62.0686C606.052 62.2272 605.833 62.3066 605.562 62.3066C605.301 62.3066 605.086 62.2272 604.918 62.0686C604.75 61.9006 604.666 61.6906 604.666 61.4386C604.666 61.1866 604.75 60.9766 604.918 60.8086C605.086 60.6406 605.301 60.5566 605.562 60.5566ZM612.355 63.9306C613.027 63.9306 613.55 64.1312 613.923 64.5326C614.306 64.9339 614.497 65.4846 614.497 66.1846V71.4766H613.209V66.3666C613.209 65.8439 613.111 65.4752 612.915 65.2606C612.719 65.0459 612.43 64.9386 612.047 64.9386C611.655 64.9386 611.31 65.0506 611.011 65.2746C610.713 65.4986 610.433 65.8206 610.171 66.2406V71.4766H608.883V64.0986H609.989L610.101 65.1906C610.363 64.7986 610.685 64.4906 611.067 64.2666C611.459 64.0426 611.889 63.9306 612.355 63.9306ZM622.409 64.0986L619.903 71.4766H618.349L615.801 64.0986H617.201L619.133 70.3286L621.051 64.0986H622.409ZM625.169 64.0986V71.4766H623.881V64.0986H625.169ZM624.511 60.5566C624.782 60.5566 625.001 60.6406 625.169 60.8086C625.337 60.9766 625.421 61.1866 625.421 61.4386C625.421 61.6906 625.337 61.9006 625.169 62.0686C625.001 62.2272 624.782 62.3066 624.511 62.3066C624.25 62.3066 624.035 62.2272 623.867 62.0686C623.699 61.9006 623.615 61.6906 623.615 61.4386C623.615 61.1866 623.699 60.9766 623.867 60.8086C624.035 60.6406 624.25 60.5566 624.511 60.5566ZM631.556 71.1406C631.071 71.4766 630.52 71.6446 629.904 71.6446C629.279 71.6446 628.789 71.4672 628.434 71.1126C628.089 70.7486 627.916 70.2259 627.916 69.5446V65.0926H626.628V64.0986H627.916V62.4326L629.204 62.2786V64.0986H630.954L630.814 65.0926H629.204V69.4886C629.204 69.8712 629.27 70.1512 629.4 70.3286C629.54 70.4966 629.769 70.5806 630.086 70.5806C630.376 70.5806 630.702 70.4826 631.066 70.2866L631.556 71.1406ZM637.765 69.7546C637.765 70.0532 637.817 70.2772 637.919 70.4266C638.022 70.5666 638.176 70.6739 638.381 70.7486L638.087 71.6446C637.705 71.5979 637.397 71.4906 637.163 71.3226C636.93 71.1546 636.757 70.8932 636.645 70.5386C636.151 71.2759 635.418 71.6446 634.447 71.6446C633.719 71.6446 633.145 71.4392 632.725 71.0286C632.305 70.6179 632.095 70.0812 632.095 69.4186C632.095 68.6346 632.375 68.0326 632.935 67.6126C633.505 67.1926 634.307 66.9826 635.343 66.9826H636.477V66.4366C636.477 65.9139 636.351 65.5406 636.099 65.3166C635.847 65.0926 635.46 64.9806 634.937 64.9806C634.396 64.9806 633.733 65.1112 632.949 65.3726L632.627 64.4346C633.542 64.0986 634.391 63.9306 635.175 63.9306C636.043 63.9306 636.692 64.1452 637.121 64.5746C637.551 64.9946 637.765 65.5966 637.765 66.3806V69.7546ZM634.741 70.6786C635.479 70.6786 636.057 70.2959 636.477 69.5306V67.8366H635.511C634.149 67.8366 633.467 68.3406 633.467 69.3486C633.467 69.7872 633.575 70.1186 633.789 70.3426C634.004 70.5666 634.321 70.6786 634.741 70.6786ZM644.135 71.1406C643.649 71.4766 643.099 71.6446 642.483 71.6446C641.857 71.6446 641.367 71.4672 641.013 71.1126C640.667 70.7486 640.495 70.2259 640.495 69.5446V65.0926H639.207V64.0986H640.495V62.4326L641.783 62.2786V64.0986H643.533L643.393 65.0926H641.783V69.4886C641.783 69.8712 641.848 70.1512 641.979 70.3286C642.119 70.4966 642.347 70.5806 642.665 70.5806C642.954 70.5806 643.281 70.4826 643.645 70.2866L644.135 71.1406ZM646.757 64.0986V71.4766H645.469V64.0986H646.757ZM646.099 60.5566C646.37 60.5566 646.589 60.6406 646.757 60.8086C646.925 60.9766 647.009 61.1866 647.009 61.4386C647.009 61.6906 646.925 61.9006 646.757 62.0686C646.589 62.2272 646.37 62.3066 646.099 62.3066C645.838 62.3066 645.623 62.2272 645.455 62.0686C645.287 61.9006 645.203 61.6906 645.203 61.4386C645.203 61.1866 645.287 60.9766 645.455 60.8086C645.623 60.6406 645.838 60.5566 646.099 60.5566ZM652.192 63.9306C653.228 63.9306 654.031 64.2759 654.6 64.9666C655.179 65.6572 655.468 66.5952 655.468 67.7806C655.468 68.5459 655.338 69.2226 655.076 69.8106C654.815 70.3892 654.437 70.8419 653.942 71.1686C653.448 71.4859 652.86 71.6446 652.178 71.6446C651.142 71.6446 650.335 71.2992 649.756 70.6086C649.178 69.9179 648.888 68.9799 648.888 67.7946C648.888 67.0292 649.019 66.3572 649.28 65.7786C649.542 65.1906 649.92 64.7379 650.414 64.4206C650.909 64.0939 651.502 63.9306 652.192 63.9306ZM652.192 64.9666C650.914 64.9666 650.274 65.9092 650.274 67.7946C650.274 69.6706 650.909 70.6086 652.178 70.6086C653.448 70.6086 654.082 69.6659 654.082 67.7806C654.082 65.9046 653.452 64.9666 652.192 64.9666ZM661.068 63.9306C661.74 63.9306 662.263 64.1312 662.636 64.5326C663.019 64.9339 663.21 65.4846 663.21 66.1846V71.4766H661.922V66.3666C661.922 65.8439 661.824 65.4752 661.628 65.2606C661.432 65.0459 661.143 64.9386 660.76 64.9386C660.368 64.9386 660.023 65.0506 659.724 65.2746C659.425 65.4986 659.145 65.8206 658.884 66.2406V71.4766H657.596V64.0986H658.702L658.814 65.1906C659.075 64.7986 659.397 64.4906 659.78 64.2666C660.172 64.0426 660.601 63.9306 661.068 63.9306Z" fill="#001826" fill-opacity="0.9"/>
<path d="M534.897 55.5637C534.345 55.5637 533.897 56.0114 533.897 56.5637C533.897 57.116 534.345 57.5637 534.897 57.5637V55.5637ZM577.023 57.2708C577.414 56.8803 577.414 56.2471 577.023 55.8566L570.659 49.4927C570.269 49.1021 569.635 49.1021 569.245 49.4927C568.854 49.8832 568.854 50.5163 569.245 50.9069L574.902 56.5637L569.245 62.2206C568.854 62.6111 568.854 63.2443 569.245 63.6348C569.635 64.0253 570.269 64.0253 570.659 63.6348L577.023 57.2708ZM534.897 57.5637H576.316V55.5637H534.897V57.5637Z" fill="#004166" fill-opacity="0.1"/>
<path d="M635.805 116.151C635.805 115.599 635.357 115.151 634.805 115.151C634.253 115.151 633.805 115.599 633.805 116.151H635.805ZM634.098 270.871C634.489 271.261 635.122 271.261 635.512 270.871L641.876 264.507C642.267 264.116 642.267 263.483 641.876 263.093C641.486 262.702 640.853 262.702 640.462 263.093L634.805 268.75L629.148 263.093C628.758 262.702 628.125 262.702 627.734 263.093C627.344 263.483 627.344 264.116 627.734 264.507L634.098 270.871ZM633.805 116.151V270.164H635.805V116.151H633.805Z" fill="#004166" fill-opacity="0.1"/>
<path d="M338.779 66.6328C338.227 66.6328 337.779 67.0805 337.779 67.6328C337.779 68.1851 338.227 68.6328 338.779 68.6328V66.6328ZM376.525 327.023C376.915 326.632 376.915 325.999 376.525 325.609L370.161 319.245C369.77 318.854 369.137 318.854 368.747 319.245C368.356 319.635 368.356 320.268 368.747 320.659L374.404 326.316L368.747 331.973C368.356 332.363 368.356 332.996 368.747 333.387C369.137 333.777 369.77 333.777 370.161 333.387L376.525 327.023ZM338.779 68.6328H354.298V66.6328H338.779V68.6328ZM356.298 70.6328V323.316H358.298V70.6328H356.298ZM360.298 327.316H375.818V325.316H360.298V327.316ZM356.298 323.316C356.298 325.525 358.089 327.316 360.298 327.316V325.316C359.194 325.316 358.298 324.42 358.298 323.316H356.298ZM354.298 68.6328C355.403 68.6328 356.298 69.5282 356.298 70.6328H358.298C358.298 68.4237 356.507 66.6328 354.298 66.6328V68.6328Z" fill="#004166" fill-opacity="0.1"/>
<path d="M338.779 186.448C338.227 186.448 337.779 186.896 337.779 187.448C337.779 188 338.227 188.448 338.779 188.448V186.448ZM376.525 327.023C376.915 326.632 376.915 325.999 376.525 325.608L370.161 319.245C369.77 318.854 369.137 318.854 368.747 319.245C368.356 319.635 368.356 320.268 368.747 320.659L374.404 326.316L368.747 331.972C368.356 332.363 368.356 332.996 368.747 333.387C369.137 333.777 369.77 333.777 370.161 333.387L376.525 327.023ZM338.779 188.448H354.298V186.448H338.779V188.448ZM356.298 190.448V323.316H358.298V190.448H356.298ZM360.298 327.316H375.818V325.316H360.298V327.316ZM356.298 323.316C356.298 325.525 358.089 327.316 360.298 327.316V325.316C359.194 325.316 358.298 324.42 358.298 323.316H356.298ZM354.298 188.448C355.403 188.448 356.298 189.343 356.298 190.448H358.298C358.298 188.239 356.507 186.448 354.298 186.448V188.448Z" fill="#004166" fill-opacity="0.1"/>
<path d="M338.779 325.316C338.227 325.316 337.779 325.763 337.779 326.316C337.779 326.868 338.227 327.316 338.779 327.316V325.316ZM376.525 327.023C376.915 326.632 376.915 325.999 376.525 325.609L370.161 319.245C369.77 318.854 369.137 318.854 368.747 319.245C368.356 319.635 368.356 320.268 368.747 320.659L374.404 326.316L368.747 331.973C368.356 332.363 368.356 332.996 368.747 333.387C369.137 333.777 369.77 333.777 370.161 333.387L376.525 327.023ZM338.779 327.316H375.818V325.316H338.779V327.316Z" fill="#004166" fill-opacity="0.1"/>
<path d="M338.779 451.905C338.227 451.905 337.779 452.353 337.779 452.905C337.779 453.457 338.227 453.905 338.779 453.905V451.905ZM376.525 327.023C376.915 326.632 376.915 325.999 376.525 325.609L370.161 319.245C369.77 318.854 369.137 318.854 368.747 319.245C368.356 319.635 368.356 320.268 368.747 320.659L374.404 326.316L368.747 331.973C368.356 332.363 368.356 332.996 368.747 333.387C369.137 333.777 369.77 333.777 370.161 333.387L376.525 327.023ZM338.779 453.905H354.298V451.905H338.779V453.905ZM358.298 449.905V329.316H356.298V449.905H358.298ZM360.298 327.316H375.818V325.316H360.298V327.316ZM358.298 329.316C358.298 328.211 359.194 327.316 360.298 327.316V325.316C358.089 325.316 356.298 327.107 356.298 329.316H358.298ZM354.298 453.905C356.507 453.905 358.298 452.114 358.298 449.905H356.298C356.298 451.009 355.403 451.905 354.298 451.905V453.905Z" fill="#004166" fill-opacity="0.1"/>
<path d="M38.834 134.496C38.834 133.943 38.3863 133.496 37.834 133.496C37.2817 133.496 36.834 133.943 36.834 134.496H38.834ZM37.1269 217.624C37.5174 218.015 38.1506 218.015 38.5411 217.624L44.9051 211.26C45.2956 210.87 45.2956 210.237 44.9051 209.846C44.5145 209.456 43.8814 209.456 43.4908 209.846L37.834 215.503L32.1771 209.846C31.7866 209.456 31.1534 209.456 30.7629 209.846C30.3724 210.237 30.3724 210.87 30.7629 211.26L37.1269 217.624ZM36.834 134.496V216.917H38.834V134.496H36.834Z" fill="#004166" fill-opacity="0.1"/>
</svg>
