<svg width="687" height="367" viewBox="0 0 687 367" fill="none" xmlns="http://www.w3.org/2000/svg">
<path d="M1 150.41H127.717V214.579H1V150.41Z" fill="white" stroke="#004166" stroke-opacity="0.1" stroke-width="2" stroke-linecap="round"/>
<path d="M33.5996 186.91L32.8716 184.488H29.2176L28.4896 186.91H27.1456L30.2396 177.264H31.9196L34.9996 186.91H33.5996ZM29.5396 183.41H32.5496L31.0516 178.37L29.5396 183.41ZM42.129 176.564V186.91H40.995L40.869 185.888C40.6263 186.261 40.323 186.555 39.959 186.77C39.595 186.975 39.189 187.078 38.741 187.078C37.8637 187.078 37.1777 186.733 36.683 186.042C36.1977 185.351 35.955 184.423 35.955 183.256C35.955 182.5 36.0717 181.828 36.305 181.24C36.5383 180.652 36.8743 180.195 37.313 179.868C37.7517 179.532 38.265 179.364 38.853 179.364C39.609 179.364 40.2717 179.667 40.841 180.274V176.41L42.129 176.564ZM39.021 186.056C39.413 186.056 39.749 185.967 40.029 185.79C40.309 185.603 40.5797 185.328 40.841 184.964V181.352C40.5983 181.035 40.337 180.797 40.057 180.638C39.7863 180.47 39.4783 180.386 39.133 180.386C38.5637 180.386 38.1203 180.624 37.803 181.1C37.495 181.576 37.341 182.285 37.341 183.228C37.341 184.18 37.4857 184.889 37.775 185.356C38.0643 185.823 38.4797 186.056 39.021 186.056ZM52.1902 179.364C52.7969 179.364 53.2822 179.569 53.6462 179.98C54.0102 180.381 54.1922 180.927 54.1922 181.618V186.91H52.9042V181.8C52.9042 180.848 52.5589 180.372 51.8682 180.372C51.5042 180.372 51.1962 180.479 50.9442 180.694C50.6922 180.899 50.4215 181.226 50.1322 181.674V186.91H48.8442V181.8C48.8442 180.848 48.4989 180.372 47.8082 180.372C47.4349 180.372 47.1222 180.479 46.8702 180.694C46.6182 180.909 46.3522 181.235 46.0722 181.674V186.91H44.7842V179.532H45.8902L46.0022 180.61C46.5529 179.779 47.2622 179.364 48.1302 179.364C48.5875 179.364 48.9749 179.481 49.2922 179.714C49.6189 179.947 49.8522 180.274 49.9922 180.694C50.2815 180.265 50.5989 179.938 50.9442 179.714C51.2989 179.481 51.7142 179.364 52.1902 179.364ZM58.0761 179.532V186.91H56.7881V179.532H58.0761ZM57.4181 175.99C57.6888 175.99 57.9081 176.074 58.0761 176.242C58.2441 176.41 58.3281 176.62 58.3281 176.872C58.3281 177.124 58.2441 177.334 58.0761 177.502C57.9081 177.661 57.6888 177.74 57.4181 177.74C57.1568 177.74 56.9421 177.661 56.7741 177.502C56.6061 177.334 56.5221 177.124 56.5221 176.872C56.5221 176.62 56.6061 176.41 56.7741 176.242C56.9421 176.074 57.1568 175.99 57.4181 175.99ZM64.2113 179.364C64.8833 179.364 65.4059 179.565 65.7793 179.966C66.1619 180.367 66.3533 180.918 66.3533 181.618V186.91H65.0653V181.8C65.0653 181.277 64.9673 180.909 64.7713 180.694C64.5753 180.479 64.2859 180.372 63.9033 180.372C63.5113 180.372 63.1659 180.484 62.8673 180.708C62.5686 180.932 62.2886 181.254 62.0273 181.674V186.91H60.7393V179.532H61.8453L61.9573 180.624C62.2186 180.232 62.5406 179.924 62.9233 179.7C63.3153 179.476 63.7446 179.364 64.2113 179.364ZM76.0355 179.364C76.9781 179.364 77.6688 179.7 78.1075 180.372C78.5461 181.044 78.7655 181.991 78.7655 183.214C78.7655 184.371 78.5135 185.305 78.0095 186.014C77.5055 186.723 76.7915 187.078 75.8675 187.078C75.0461 187.078 74.4021 186.798 73.9355 186.238V189.738L72.6475 189.892V179.532H73.7535L73.8515 180.526C74.1221 180.153 74.4488 179.868 74.8315 179.672C75.2141 179.467 75.6155 179.364 76.0355 179.364ZM75.5595 186.028C76.7728 186.028 77.3795 185.09 77.3795 183.214C77.3795 181.329 76.8241 180.386 75.7135 180.386C75.3495 180.386 75.0181 180.493 74.7195 180.708C74.4208 180.923 74.1595 181.198 73.9355 181.534V185.132C74.1221 185.421 74.3555 185.645 74.6355 185.804C74.9155 185.953 75.2235 186.028 75.5595 186.028ZM85.7932 185.188C85.7932 185.487 85.8446 185.711 85.9472 185.86C86.0499 186 86.2039 186.107 86.4092 186.182L86.1152 187.078C85.7326 187.031 85.4246 186.924 85.1912 186.756C84.9579 186.588 84.7852 186.327 84.6732 185.972C84.1786 186.709 83.4459 187.078 82.4752 187.078C81.7472 187.078 81.1732 186.873 80.7532 186.462C80.3332 186.051 80.1232 185.515 80.1232 184.852C80.1232 184.068 80.4032 183.466 80.9632 183.046C81.5326 182.626 82.3352 182.416 83.3712 182.416H84.5052V181.87C84.5052 181.347 84.3792 180.974 84.1272 180.75C83.8752 180.526 83.4879 180.414 82.9652 180.414C82.4239 180.414 81.7612 180.545 80.9772 180.806L80.6552 179.868C81.5699 179.532 82.4192 179.364 83.2032 179.364C84.0712 179.364 84.7199 179.579 85.1492 180.008C85.5786 180.428 85.7932 181.03 85.7932 181.814V185.188ZM82.7692 186.112C83.5066 186.112 84.0852 185.729 84.5052 184.964V183.27H83.5392C82.1766 183.27 81.4952 183.774 81.4952 184.782C81.4952 185.221 81.6026 185.552 81.8172 185.776C82.0319 186 82.3492 186.112 82.7692 186.112ZM94.2518 179.868C93.9718 179.961 93.6638 180.022 93.3278 180.05C92.9918 180.078 92.5811 180.092 92.0958 180.092C92.9638 180.484 93.3978 181.105 93.3978 181.954C93.3978 182.691 93.1458 183.293 92.6418 183.76C92.1378 184.227 91.4518 184.46 90.5838 184.46C90.2478 184.46 89.9351 184.413 89.6458 184.32C89.5338 184.395 89.4451 184.497 89.3798 184.628C89.3144 184.749 89.2818 184.875 89.2818 185.006C89.2818 185.407 89.6038 185.608 90.2478 185.608H91.4238C91.9184 185.608 92.3571 185.697 92.7398 185.874C93.1224 186.051 93.4164 186.294 93.6218 186.602C93.8364 186.91 93.9438 187.26 93.9438 187.652C93.9438 188.371 93.6498 188.921 93.0618 189.304C92.4738 189.696 91.6151 189.892 90.4858 189.892C89.6924 189.892 89.0624 189.808 88.5958 189.64C88.1384 189.481 87.8118 189.239 87.6158 188.912C87.4198 188.585 87.3218 188.165 87.3218 187.652H88.4838C88.4838 187.951 88.5398 188.184 88.6518 188.352C88.7638 188.529 88.9644 188.66 89.2538 188.744C89.5431 188.837 89.9538 188.884 90.4858 188.884C91.2604 188.884 91.8111 188.786 92.1378 188.59C92.4738 188.403 92.6418 188.119 92.6418 187.736C92.6418 187.391 92.5111 187.129 92.2498 186.952C91.9884 186.775 91.6244 186.686 91.1578 186.686H89.9958C89.3704 186.686 88.8944 186.555 88.5678 186.294C88.2504 186.023 88.0918 185.687 88.0918 185.286C88.0918 185.043 88.1618 184.81 88.3018 184.586C88.4418 184.362 88.6424 184.161 88.9038 183.984C88.4744 183.76 88.1571 183.485 87.9518 183.158C87.7558 182.822 87.6578 182.416 87.6578 181.94C87.6578 181.445 87.7791 181.002 88.0218 180.61C88.2738 180.218 88.6144 179.915 89.0438 179.7C89.4824 179.476 89.9678 179.364 90.4998 179.364C91.0784 179.373 91.5638 179.355 91.9558 179.308C92.3478 179.252 92.6698 179.182 92.9218 179.098C93.1831 179.005 93.5004 178.874 93.8738 178.706L94.2518 179.868ZM90.4998 180.288C90.0144 180.288 89.6364 180.442 89.3658 180.75C89.1044 181.049 88.9738 181.445 88.9738 181.94C88.9738 182.444 89.1091 182.85 89.3798 183.158C89.6504 183.457 90.0331 183.606 90.5278 183.606C91.0318 183.606 91.4144 183.461 91.6758 183.172C91.9464 182.873 92.0818 182.458 92.0818 181.926C92.0818 180.834 91.5544 180.288 90.4998 180.288ZM100.928 183.004C100.928 183.219 100.919 183.438 100.9 183.662H96.1965C96.2525 184.474 96.4578 185.071 96.8125 185.454C97.1671 185.837 97.6245 186.028 98.1845 186.028C98.5391 186.028 98.8658 185.977 99.1645 185.874C99.4631 185.771 99.7758 185.608 100.102 185.384L100.662 186.154C99.8785 186.77 99.0198 187.078 98.0865 187.078C97.0598 187.078 96.2571 186.742 95.6785 186.07C95.1091 185.398 94.8245 184.474 94.8245 183.298C94.8245 182.533 94.9458 181.856 95.1885 181.268C95.4405 180.671 95.7951 180.204 96.2525 179.868C96.7191 179.532 97.2651 179.364 97.8905 179.364C98.8705 179.364 99.6218 179.686 100.144 180.33C100.667 180.974 100.928 181.865 100.928 183.004ZM99.6545 182.626C99.6545 181.898 99.5098 181.343 99.2205 180.96C98.9311 180.577 98.4971 180.386 97.9185 180.386C96.8638 180.386 96.2898 181.161 96.1965 182.71H99.6545V182.626Z" fill="#001826" fill-opacity="0.9"/>
<ellipse cx="303.639" cy="182.495" rx="51.7005" ry="52.1374" fill="white" stroke="#004166" stroke-opacity="0.1" stroke-width="2" stroke-linecap="round"/>
<path d="M288.315 166.543C288.894 166.543 289.379 166.618 289.771 166.767C290.172 166.917 290.578 167.159 290.989 167.495L290.261 168.349C289.673 167.873 289.052 167.635 288.399 167.635C287.596 167.635 286.948 167.943 286.453 168.559C285.968 169.175 285.725 170.165 285.725 171.527C285.725 172.853 285.968 173.833 286.453 174.467C286.938 175.093 287.582 175.405 288.385 175.405C288.796 175.405 289.155 175.335 289.463 175.195C289.771 175.055 290.098 174.859 290.443 174.607L291.101 175.447C290.802 175.755 290.42 176.012 289.953 176.217C289.486 176.423 288.95 176.525 288.343 176.525C287.559 176.525 286.859 176.334 286.243 175.951C285.636 175.559 285.16 174.99 284.815 174.243C284.479 173.487 284.311 172.582 284.311 171.527C284.311 170.473 284.488 169.572 284.843 168.825C285.198 168.069 285.678 167.5 286.285 167.117C286.892 166.735 287.568 166.543 288.315 166.543ZM295.706 168.811C295.967 168.811 296.21 168.839 296.434 168.895L296.196 170.155C295.972 170.099 295.757 170.071 295.552 170.071C295.095 170.071 294.726 170.239 294.446 170.575C294.166 170.911 293.947 171.434 293.788 172.143V176.357H292.5V168.979H293.606L293.732 170.477C293.928 169.927 294.194 169.511 294.53 169.231C294.866 168.951 295.258 168.811 295.706 168.811ZM303.048 172.451C303.048 172.666 303.039 172.885 303.02 173.109H298.316C298.372 173.921 298.578 174.519 298.932 174.901C299.287 175.284 299.744 175.475 300.304 175.475C300.659 175.475 300.986 175.424 301.284 175.321C301.583 175.219 301.896 175.055 302.222 174.831L302.782 175.601C301.998 176.217 301.14 176.525 300.206 176.525C299.18 176.525 298.377 176.189 297.798 175.517C297.229 174.845 296.944 173.921 296.944 172.745C296.944 171.98 297.066 171.303 297.308 170.715C297.56 170.118 297.915 169.651 298.372 169.315C298.839 168.979 299.385 168.811 300.01 168.811C300.99 168.811 301.742 169.133 302.264 169.777C302.787 170.421 303.048 171.313 303.048 172.451ZM301.774 172.073C301.774 171.345 301.63 170.79 301.34 170.407C301.051 170.025 300.617 169.833 300.038 169.833C298.984 169.833 298.41 170.608 298.316 172.157H301.774V172.073ZM309.939 174.635C309.939 174.934 309.99 175.158 310.093 175.307C310.195 175.447 310.349 175.555 310.555 175.629L310.261 176.525C309.878 176.479 309.57 176.371 309.337 176.203C309.103 176.035 308.931 175.774 308.819 175.419C308.324 176.157 307.591 176.525 306.621 176.525C305.893 176.525 305.319 176.32 304.899 175.909C304.479 175.499 304.269 174.962 304.269 174.299C304.269 173.515 304.549 172.913 305.109 172.493C305.678 172.073 306.481 171.863 307.517 171.863H308.651V171.317C308.651 170.795 308.525 170.421 308.273 170.197C308.021 169.973 307.633 169.861 307.111 169.861C306.569 169.861 305.907 169.992 305.123 170.253L304.801 169.315C305.715 168.979 306.565 168.811 307.349 168.811C308.217 168.811 308.865 169.026 309.295 169.455C309.724 169.875 309.939 170.477 309.939 171.261V174.635ZM306.915 175.559C307.652 175.559 308.231 175.177 308.651 174.411V172.717H307.685C306.322 172.717 305.641 173.221 305.641 174.229C305.641 174.668 305.748 174.999 305.963 175.223C306.177 175.447 306.495 175.559 306.915 175.559ZM316.308 176.021C315.823 176.357 315.272 176.525 314.656 176.525C314.031 176.525 313.541 176.348 313.186 175.993C312.841 175.629 312.668 175.107 312.668 174.425V169.973H311.38V168.979H312.668V167.313L313.956 167.159V168.979H315.706L315.566 169.973H313.956V174.369C313.956 174.752 314.021 175.032 314.152 175.209C314.292 175.377 314.521 175.461 314.838 175.461C315.127 175.461 315.454 175.363 315.818 175.167L316.308 176.021ZM323.009 172.451C323.009 172.666 323 172.885 322.981 173.109H318.277C318.333 173.921 318.539 174.519 318.893 174.901C319.248 175.284 319.705 175.475 320.265 175.475C320.62 175.475 320.947 175.424 321.245 175.321C321.544 175.219 321.857 175.055 322.183 174.831L322.743 175.601C321.959 176.217 321.101 176.525 320.167 176.525C319.141 176.525 318.338 176.189 317.759 175.517C317.19 174.845 316.905 173.921 316.905 172.745C316.905 171.98 317.027 171.303 317.269 170.715C317.521 170.118 317.876 169.651 318.333 169.315C318.8 168.979 319.346 168.811 319.971 168.811C320.951 168.811 321.703 169.133 322.225 169.777C322.748 170.421 323.009 171.313 323.009 172.451ZM321.735 172.073C321.735 171.345 321.591 170.79 321.301 170.407C321.012 170.025 320.578 169.833 319.999 169.833C318.945 169.833 318.371 170.608 318.277 172.157H321.735V172.073ZM284.926 195.635C284.926 195.934 284.977 196.158 285.08 196.307C285.183 196.447 285.337 196.555 285.542 196.629L285.248 197.525C284.865 197.479 284.557 197.371 284.324 197.203C284.091 197.035 283.918 196.774 283.806 196.419C283.311 197.157 282.579 197.525 281.608 197.525C280.88 197.525 280.306 197.32 279.886 196.909C279.466 196.499 279.256 195.962 279.256 195.299C279.256 194.515 279.536 193.913 280.096 193.493C280.665 193.073 281.468 192.863 282.504 192.863H283.638V192.317C283.638 191.795 283.512 191.421 283.26 191.197C283.008 190.973 282.621 190.861 282.098 190.861C281.557 190.861 280.894 190.992 280.11 191.253L279.788 190.315C280.703 189.979 281.552 189.811 282.336 189.811C283.204 189.811 283.853 190.026 284.282 190.455C284.711 190.875 284.926 191.477 284.926 192.261V195.635ZM281.902 196.559C282.639 196.559 283.218 196.177 283.638 195.411V193.717H282.672C281.309 193.717 280.628 194.221 280.628 195.229C280.628 195.668 280.735 195.999 280.95 196.223C281.165 196.447 281.482 196.559 281.902 196.559ZM290.259 189.811C290.698 189.811 291.099 189.877 291.463 190.007C291.827 190.129 292.177 190.329 292.513 190.609L291.897 191.421C291.636 191.235 291.379 191.099 291.127 191.015C290.885 190.922 290.614 190.875 290.315 190.875C289.718 190.875 289.251 191.113 288.915 191.589C288.589 192.065 288.425 192.77 288.425 193.703C288.425 194.637 288.589 195.327 288.915 195.775C289.242 196.214 289.709 196.433 290.315 196.433C290.605 196.433 290.871 196.391 291.113 196.307C291.356 196.214 291.627 196.069 291.925 195.873L292.513 196.713C291.841 197.255 291.09 197.525 290.259 197.525C289.261 197.525 288.472 197.189 287.893 196.517C287.324 195.845 287.039 194.917 287.039 193.731C287.039 192.947 287.17 192.261 287.431 191.673C287.693 191.085 288.061 190.628 288.537 190.301C289.023 189.975 289.597 189.811 290.259 189.811ZM296.671 189.811C297.11 189.811 297.511 189.877 297.875 190.007C298.239 190.129 298.589 190.329 298.925 190.609L298.309 191.421C298.048 191.235 297.791 191.099 297.539 191.015C297.297 190.922 297.026 190.875 296.727 190.875C296.13 190.875 295.663 191.113 295.327 191.589C295.001 192.065 294.837 192.77 294.837 193.703C294.837 194.637 295.001 195.327 295.327 195.775C295.654 196.214 296.121 196.433 296.727 196.433C297.017 196.433 297.283 196.391 297.525 196.307C297.768 196.214 298.039 196.069 298.337 195.873L298.925 196.713C298.253 197.255 297.502 197.525 296.671 197.525C295.673 197.525 294.884 197.189 294.305 196.517C293.736 195.845 293.451 194.917 293.451 193.731C293.451 192.947 293.582 192.261 293.843 191.673C294.105 191.085 294.473 190.628 294.949 190.301C295.435 189.975 296.009 189.811 296.671 189.811ZM303.167 189.811C304.203 189.811 305.006 190.157 305.575 190.847C306.154 191.538 306.443 192.476 306.443 193.661C306.443 194.427 306.313 195.103 306.051 195.691C305.79 196.27 305.412 196.723 304.917 197.049C304.423 197.367 303.835 197.525 303.153 197.525C302.117 197.525 301.31 197.18 300.731 196.489C300.153 195.799 299.863 194.861 299.863 193.675C299.863 192.91 299.994 192.238 300.255 191.659C300.517 191.071 300.895 190.619 301.389 190.301C301.884 189.975 302.477 189.811 303.167 189.811ZM303.167 190.847C301.889 190.847 301.249 191.79 301.249 193.675C301.249 195.551 301.884 196.489 303.153 196.489C304.423 196.489 305.057 195.547 305.057 193.661C305.057 191.785 304.427 190.847 303.167 190.847ZM314.059 197.357H312.953L312.855 196.209C312.575 196.667 312.253 197.003 311.889 197.217C311.525 197.423 311.082 197.525 310.559 197.525C309.915 197.525 309.411 197.329 309.047 196.937C308.683 196.545 308.501 195.99 308.501 195.271V189.979H309.789V195.131C309.789 195.635 309.878 195.995 310.055 196.209C310.233 196.415 310.522 196.517 310.923 196.517C311.642 196.517 312.258 196.093 312.771 195.243V189.979H314.059V197.357ZM320.192 189.811C320.864 189.811 321.386 190.012 321.76 190.413C322.142 190.815 322.334 191.365 322.334 192.065V197.357H321.046V192.247C321.046 191.725 320.948 191.356 320.752 191.141C320.556 190.927 320.266 190.819 319.884 190.819C319.492 190.819 319.146 190.931 318.848 191.155C318.549 191.379 318.269 191.701 318.008 192.121V197.357H316.72V189.979H317.826L317.938 191.071C318.199 190.679 318.521 190.371 318.904 190.147C319.296 189.923 319.725 189.811 320.192 189.811ZM328.647 197.021C328.161 197.357 327.611 197.525 326.995 197.525C326.369 197.525 325.879 197.348 325.525 196.993C325.179 196.629 325.007 196.107 325.007 195.425V190.973H323.719V189.979H325.007V188.313L326.295 188.159V189.979H328.045L327.905 190.973H326.295V195.369C326.295 195.752 326.36 196.032 326.491 196.209C326.631 196.377 326.859 196.461 327.177 196.461C327.466 196.461 327.793 196.363 328.157 196.167L328.647 197.021Z" fill="#001826" fill-opacity="0.9"/>
<ellipse cx="634.3" cy="53.6549" rx="51.7005" ry="52.1374" fill="white" stroke="#004166" stroke-opacity="0.1" stroke-width="2" stroke-linecap="round"/>
<path d="M617.185 58.0176H615.897L615.561 53.6636C615.421 51.9556 615.342 50.6442 615.323 49.7296L613.237 56.9256H611.991L609.793 49.7156C609.793 50.8822 609.732 52.2309 609.611 53.7616L609.289 58.0176H608.029L608.827 48.3716H610.619L612.649 55.3856L614.581 48.3716H616.387L617.185 58.0176ZM624.358 56.2956C624.358 56.5942 624.409 56.8182 624.512 56.9676C624.614 57.1076 624.768 57.2149 624.974 57.2896L624.68 58.1856C624.297 58.1389 623.989 58.0316 623.756 57.8636C623.522 57.6956 623.35 57.4342 623.238 57.0796C622.743 57.8169 622.01 58.1856 621.04 58.1856C620.312 58.1856 619.738 57.9802 619.318 57.5696C618.898 57.1589 618.688 56.6222 618.688 55.9596C618.688 55.1756 618.968 54.5736 619.528 54.1536C620.097 53.7336 620.9 53.5236 621.936 53.5236H623.07V52.9776C623.07 52.4549 622.944 52.0816 622.692 51.8576C622.44 51.6336 622.052 51.5216 621.53 51.5216C620.988 51.5216 620.326 51.6522 619.542 51.9136L619.22 50.9756C620.134 50.6396 620.984 50.4716 621.768 50.4716C622.636 50.4716 623.284 50.6862 623.714 51.1156C624.143 51.5356 624.358 52.1376 624.358 52.9216V56.2956ZM621.334 57.2196C622.071 57.2196 622.65 56.8369 623.07 56.0716V54.3776H622.104C620.741 54.3776 620.06 54.8816 620.06 55.8896C620.06 56.3282 620.167 56.6596 620.382 56.8836C620.596 57.1076 620.914 57.2196 621.334 57.2196ZM630.475 50.4716C631.147 50.4716 631.67 50.6722 632.043 51.0736C632.426 51.4749 632.617 52.0256 632.617 52.7256V58.0176H631.329V52.9076C631.329 52.3849 631.231 52.0162 631.035 51.8016C630.839 51.5869 630.55 51.4796 630.167 51.4796C629.775 51.4796 629.43 51.5916 629.131 51.8156C628.832 52.0396 628.552 52.3616 628.291 52.7816V58.0176H627.003V50.6396H628.109L628.221 51.7316C628.482 51.3396 628.804 51.0316 629.187 50.8076C629.579 50.5836 630.008 50.4716 630.475 50.4716ZM640.176 56.2956C640.176 56.5942 640.227 56.8182 640.33 56.9676C640.433 57.1076 640.587 57.2149 640.792 57.2896L640.498 58.1856C640.115 58.1389 639.807 58.0316 639.574 57.8636C639.341 57.6956 639.168 57.4342 639.056 57.0796C638.561 57.8169 637.829 58.1856 636.858 58.1856C636.13 58.1856 635.556 57.9802 635.136 57.5696C634.716 57.1589 634.506 56.6222 634.506 55.9596C634.506 55.1756 634.786 54.5736 635.346 54.1536C635.915 53.7336 636.718 53.5236 637.754 53.5236H638.888V52.9776C638.888 52.4549 638.762 52.0816 638.51 51.8576C638.258 51.6336 637.871 51.5216 637.348 51.5216C636.807 51.5216 636.144 51.6522 635.36 51.9136L635.038 50.9756C635.953 50.6396 636.802 50.4716 637.586 50.4716C638.454 50.4716 639.103 50.6862 639.532 51.1156C639.961 51.5356 640.176 52.1376 640.176 52.9216V56.2956ZM637.152 57.2196C637.889 57.2196 638.468 56.8369 638.888 56.0716V54.3776H637.922C636.559 54.3776 635.878 54.8816 635.878 55.8896C635.878 56.3282 635.985 56.6596 636.2 56.8836C636.415 57.1076 636.732 57.2196 637.152 57.2196ZM648.634 50.9756C648.354 51.0689 648.046 51.1296 647.71 51.1576C647.374 51.1856 646.964 51.1996 646.478 51.1996C647.346 51.5916 647.78 52.2122 647.78 53.0616C647.78 53.7989 647.528 54.4009 647.024 54.8676C646.52 55.3342 645.834 55.5676 644.966 55.5676C644.63 55.5676 644.318 55.5209 644.028 55.4276C643.916 55.5022 643.828 55.6049 643.762 55.7356C643.697 55.8569 643.664 55.9829 643.664 56.1136C643.664 56.5149 643.986 56.7156 644.63 56.7156H645.806C646.301 56.7156 646.74 56.8042 647.122 56.9816C647.505 57.1589 647.799 57.4016 648.004 57.7096C648.219 58.0176 648.326 58.3676 648.326 58.7596C648.326 59.4782 648.032 60.0289 647.444 60.4116C646.856 60.8036 645.998 60.9996 644.868 60.9996C644.075 60.9996 643.445 60.9156 642.978 60.7476C642.521 60.5889 642.194 60.3462 641.998 60.0196C641.802 59.6929 641.704 59.2729 641.704 58.7596H642.866C642.866 59.0582 642.922 59.2916 643.034 59.4596C643.146 59.6369 643.347 59.7676 643.636 59.8516C643.926 59.9449 644.336 59.9916 644.868 59.9916C645.643 59.9916 646.194 59.8936 646.52 59.6976C646.856 59.5109 647.024 59.2262 647.024 58.8436C647.024 58.4982 646.894 58.2369 646.632 58.0596C646.371 57.8822 646.007 57.7936 645.54 57.7936H644.378C643.753 57.7936 643.277 57.6629 642.95 57.4016C642.633 57.1309 642.474 56.7949 642.474 56.3936C642.474 56.1509 642.544 55.9176 642.684 55.6936C642.824 55.4696 643.025 55.2689 643.286 55.0916C642.857 54.8676 642.54 54.5922 642.334 54.2656C642.138 53.9296 642.04 53.5236 642.04 53.0476C642.04 52.5529 642.162 52.1096 642.404 51.7176C642.656 51.3256 642.997 51.0222 643.426 50.8076C643.865 50.5836 644.35 50.4716 644.882 50.4716C645.461 50.4809 645.946 50.4622 646.338 50.4156C646.73 50.3596 647.052 50.2896 647.304 50.2056C647.566 50.1122 647.883 49.9816 648.256 49.8136L648.634 50.9756ZM644.882 51.3956C644.397 51.3956 644.019 51.5496 643.748 51.8576C643.487 52.1562 643.356 52.5529 643.356 53.0476C643.356 53.5516 643.492 53.9576 643.762 54.2656C644.033 54.5642 644.416 54.7136 644.91 54.7136C645.414 54.7136 645.797 54.5689 646.058 54.2796C646.329 53.9809 646.464 53.5656 646.464 53.0336C646.464 51.9416 645.937 51.3956 644.882 51.3956ZM655.311 54.1116C655.311 54.3262 655.302 54.5456 655.283 54.7696H650.579C650.635 55.5816 650.841 56.1789 651.195 56.5616C651.55 56.9442 652.007 57.1356 652.567 57.1356C652.922 57.1356 653.249 57.0842 653.547 56.9816C653.846 56.8789 654.159 56.7156 654.485 56.4916L655.045 57.2616C654.261 57.8776 653.403 58.1856 652.469 58.1856C651.443 58.1856 650.64 57.8496 650.061 57.1776C649.492 56.5056 649.207 55.5816 649.207 54.4056C649.207 53.6402 649.329 52.9636 649.571 52.3756C649.823 51.7782 650.178 51.3116 650.635 50.9756C651.102 50.6396 651.648 50.4716 652.273 50.4716C653.253 50.4716 654.005 50.7936 654.527 51.4376C655.05 52.0816 655.311 52.9729 655.311 54.1116ZM654.037 53.7336C654.037 53.0056 653.893 52.4502 653.603 52.0676C653.314 51.6849 652.88 51.4936 652.301 51.4936C651.247 51.4936 650.673 52.2682 650.579 53.8176H654.037V53.7336ZM660.574 50.4716C660.835 50.4716 661.078 50.4996 661.302 50.5556L661.064 51.8156C660.84 51.7596 660.625 51.7316 660.42 51.7316C659.963 51.7316 659.594 51.8996 659.314 52.2356C659.034 52.5716 658.815 53.0942 658.656 53.8036V58.0176H657.368V50.6396H658.474L658.6 52.1376C658.796 51.5869 659.062 51.1716 659.398 50.8916C659.734 50.6116 660.126 50.4716 660.574 50.4716Z" fill="#001826" fill-opacity="0.9"/>
<ellipse cx="634.3" cy="182.495" rx="51.7005" ry="52.1374" fill="white" stroke="#004166" stroke-opacity="0.1" stroke-width="2" stroke-linecap="round"/>
<path d="M632.094 186.857V182.335H628.034V186.857H626.704V177.211H628.034V181.243H632.094V177.211H633.424V186.857H632.094ZM639.047 182.769H637.549V186.857H636.219V177.211H638.753C639.957 177.211 640.867 177.44 641.483 177.897C642.109 178.355 642.421 179.036 642.421 179.941C642.421 180.613 642.249 181.159 641.903 181.579C641.558 181.999 641.035 182.317 640.335 182.531L642.939 186.857H641.357L639.047 182.769ZM638.893 181.747C639.593 181.747 640.121 181.607 640.475 181.327C640.83 181.038 641.007 180.576 641.007 179.941C641.007 179.344 640.825 178.915 640.461 178.653C640.107 178.383 639.533 178.247 638.739 178.247H637.549V181.747H638.893Z" fill="#001826" fill-opacity="0.9"/>
<ellipse cx="634.3" cy="313.339" rx="51.7005" ry="52.1374" fill="white" stroke="#004166" stroke-opacity="0.1" stroke-width="2" stroke-linecap="round"/>
<path d="M623.287 297.388C623.931 297.388 624.482 297.481 624.939 297.668C625.396 297.845 625.84 298.125 626.269 298.508L625.541 299.32C625.177 299.03 624.818 298.82 624.463 298.69C624.118 298.55 623.744 298.48 623.343 298.48C622.839 298.48 622.424 298.596 622.097 298.83C621.77 299.063 621.607 299.404 621.607 299.852C621.607 300.132 621.663 300.37 621.775 300.566C621.887 300.752 622.092 300.925 622.391 301.084C622.699 301.242 623.142 301.41 623.721 301.588C624.328 301.774 624.832 301.975 625.233 302.19C625.634 302.404 625.956 302.703 626.199 303.086C626.451 303.459 626.577 303.935 626.577 304.514C626.577 305.074 626.437 305.568 626.157 305.998C625.886 306.427 625.49 306.763 624.967 307.006C624.454 307.248 623.842 307.37 623.133 307.37C621.798 307.37 620.706 306.954 619.857 306.124L620.585 305.312C620.977 305.629 621.374 305.872 621.775 306.04C622.176 306.198 622.624 306.278 623.119 306.278C623.716 306.278 624.211 306.133 624.603 305.844C624.995 305.545 625.191 305.116 625.191 304.556C625.191 304.238 625.13 303.977 625.009 303.772C624.888 303.557 624.678 303.366 624.379 303.198C624.09 303.03 623.665 302.862 623.105 302.694C622.116 302.395 621.392 302.036 620.935 301.616C620.478 301.196 620.249 300.626 620.249 299.908C620.249 299.422 620.375 298.988 620.627 298.606C620.888 298.223 621.248 297.924 621.705 297.71C622.172 297.495 622.699 297.388 623.287 297.388ZM632.19 306.866C631.704 307.202 631.154 307.37 630.538 307.37C629.912 307.37 629.422 307.192 629.068 306.838C628.722 306.474 628.55 305.951 628.55 305.27V300.818H627.262V299.824H628.55V298.158L629.838 298.004V299.824H631.588L631.448 300.818H629.838V305.214C629.838 305.596 629.903 305.876 630.034 306.054C630.174 306.222 630.402 306.306 630.72 306.306C631.009 306.306 631.336 306.208 631.7 306.012L632.19 306.866ZM638.399 305.48C638.399 305.778 638.45 306.002 638.553 306.152C638.655 306.292 638.809 306.399 639.015 306.474L638.721 307.37C638.338 307.323 638.03 307.216 637.797 307.048C637.563 306.88 637.391 306.618 637.279 306.264C636.784 307.001 636.051 307.37 635.081 307.37C634.353 307.37 633.779 307.164 633.359 306.754C632.939 306.343 632.729 305.806 632.729 305.144C632.729 304.36 633.009 303.758 633.569 303.338C634.138 302.918 634.941 302.708 635.977 302.708H637.111V302.162C637.111 301.639 636.985 301.266 636.733 301.042C636.481 300.818 636.093 300.706 635.571 300.706C635.029 300.706 634.367 300.836 633.583 301.098L633.261 300.16C634.175 299.824 635.025 299.656 635.809 299.656C636.677 299.656 637.325 299.87 637.755 300.3C638.184 300.72 638.399 301.322 638.399 302.106V305.48ZM635.375 306.404C636.112 306.404 636.691 306.021 637.111 305.256V303.562H636.145C634.782 303.562 634.101 304.066 634.101 305.074C634.101 305.512 634.208 305.844 634.423 306.068C634.637 306.292 634.955 306.404 635.375 306.404ZM643.55 297.738C643.158 297.738 642.878 297.826 642.71 298.004C642.542 298.172 642.458 298.438 642.458 298.802V299.824H644.25L644.11 300.818H642.458V307.202H641.17V300.818H639.854V299.824H641.17V298.816C641.17 298.181 641.371 297.672 641.772 297.29C642.183 296.898 642.752 296.702 643.48 296.702C643.816 296.702 644.115 296.734 644.376 296.8C644.647 296.856 644.936 296.949 645.244 297.08L644.838 298.018C644.418 297.831 643.989 297.738 643.55 297.738ZM648.239 297.738C647.847 297.738 647.567 297.826 647.399 298.004C647.231 298.172 647.147 298.438 647.147 298.802V299.824H648.939L648.799 300.818H647.147V307.202H645.859V300.818H644.543V299.824H645.859V298.816C645.859 298.181 646.06 297.672 646.461 297.29C646.872 296.898 647.441 296.702 648.169 296.702C648.505 296.702 648.804 296.734 649.065 296.8C649.336 296.856 649.625 296.949 649.933 297.08L649.527 298.018C649.107 297.831 648.678 297.738 648.239 297.738ZM618.629 326.48C618.629 326.778 618.68 327.002 618.783 327.152C618.886 327.292 619.04 327.399 619.245 327.474L618.951 328.37C618.568 328.323 618.26 328.216 618.027 328.048C617.794 327.88 617.621 327.618 617.509 327.264C617.014 328.001 616.282 328.37 615.311 328.37C614.583 328.37 614.009 328.164 613.589 327.754C613.169 327.343 612.959 326.806 612.959 326.144C612.959 325.36 613.239 324.758 613.799 324.338C614.368 323.918 615.171 323.708 616.207 323.708H617.341V323.162C617.341 322.639 617.215 322.266 616.963 322.042C616.711 321.818 616.324 321.706 615.801 321.706C615.26 321.706 614.597 321.836 613.813 322.098L613.491 321.16C614.406 320.824 615.255 320.656 616.039 320.656C616.907 320.656 617.556 320.87 617.985 321.3C618.414 321.72 618.629 322.322 618.629 323.106V326.48ZM615.605 327.404C616.342 327.404 616.921 327.021 617.341 326.256V324.562H616.375C615.012 324.562 614.331 325.066 614.331 326.074C614.331 326.512 614.438 326.844 614.653 327.068C614.868 327.292 615.185 327.404 615.605 327.404ZM627.088 321.16C626.808 321.253 626.5 321.314 626.164 321.342C625.828 321.37 625.417 321.384 624.932 321.384C625.8 321.776 626.234 322.396 626.234 323.246C626.234 323.983 625.982 324.585 625.478 325.052C624.974 325.518 624.288 325.752 623.42 325.752C623.084 325.752 622.771 325.705 622.482 325.612C622.37 325.686 622.281 325.789 622.216 325.92C622.15 326.041 622.118 326.167 622.118 326.298C622.118 326.699 622.44 326.9 623.084 326.9H624.26C624.754 326.9 625.193 326.988 625.576 327.166C625.958 327.343 626.252 327.586 626.458 327.894C626.672 328.202 626.78 328.552 626.78 328.944C626.78 329.662 626.486 330.213 625.898 330.596C625.31 330.988 624.451 331.184 623.322 331.184C622.528 331.184 621.898 331.1 621.432 330.932C620.974 330.773 620.648 330.53 620.452 330.204C620.256 329.877 620.158 329.457 620.158 328.944H621.32C621.32 329.242 621.376 329.476 621.488 329.644C621.6 329.821 621.8 329.952 622.09 330.036C622.379 330.129 622.79 330.176 623.322 330.176C624.096 330.176 624.647 330.078 624.974 329.882C625.31 329.695 625.478 329.41 625.478 329.028C625.478 328.682 625.347 328.421 625.086 328.244C624.824 328.066 624.46 327.978 623.994 327.978H622.832C622.206 327.978 621.73 327.847 621.404 327.586C621.086 327.315 620.928 326.979 620.928 326.578C620.928 326.335 620.998 326.102 621.138 325.878C621.278 325.654 621.478 325.453 621.74 325.276C621.31 325.052 620.993 324.776 620.788 324.45C620.592 324.114 620.494 323.708 620.494 323.232C620.494 322.737 620.615 322.294 620.858 321.902C621.11 321.51 621.45 321.206 621.88 320.992C622.318 320.768 622.804 320.656 623.336 320.656C623.914 320.665 624.4 320.646 624.792 320.6C625.184 320.544 625.506 320.474 625.758 320.39C626.019 320.296 626.336 320.166 626.71 319.998L627.088 321.16ZM623.336 321.58C622.85 321.58 622.472 321.734 622.202 322.042C621.94 322.34 621.81 322.737 621.81 323.232C621.81 323.736 621.945 324.142 622.216 324.45C622.486 324.748 622.869 324.898 623.364 324.898C623.868 324.898 624.25 324.753 624.512 324.464C624.782 324.165 624.918 323.75 624.918 323.218C624.918 322.126 624.39 321.58 623.336 321.58ZM633.764 324.296C633.764 324.51 633.755 324.73 633.736 324.954H629.032C629.088 325.766 629.294 326.363 629.648 326.746C630.003 327.128 630.46 327.32 631.02 327.32C631.375 327.32 631.702 327.268 632 327.166C632.299 327.063 632.612 326.9 632.938 326.676L633.498 327.446C632.714 328.062 631.856 328.37 630.922 328.37C629.896 328.37 629.093 328.034 628.514 327.362C627.945 326.69 627.66 325.766 627.66 324.59C627.66 323.824 627.782 323.148 628.024 322.56C628.276 321.962 628.631 321.496 629.088 321.16C629.555 320.824 630.101 320.656 630.726 320.656C631.706 320.656 632.458 320.978 632.98 321.622C633.503 322.266 633.764 323.157 633.764 324.296ZM632.49 323.918C632.49 323.19 632.346 322.634 632.056 322.252C631.767 321.869 631.333 321.678 630.754 321.678C629.7 321.678 629.126 322.452 629.032 324.002H632.49V323.918ZM639.293 320.656C639.965 320.656 640.488 320.856 640.861 321.258C641.244 321.659 641.435 322.21 641.435 322.91V328.202H640.147V323.092C640.147 322.569 640.049 322.2 639.853 321.986C639.657 321.771 639.368 321.664 638.985 321.664C638.593 321.664 638.248 321.776 637.949 322C637.651 322.224 637.371 322.546 637.109 322.966V328.202H635.821V320.824H636.927L637.039 321.916C637.301 321.524 637.623 321.216 638.005 320.992C638.397 320.768 638.827 320.656 639.293 320.656ZM646.712 320.656C647.151 320.656 647.552 320.721 647.916 320.852C648.28 320.973 648.63 321.174 648.966 321.454L648.35 322.266C648.089 322.079 647.832 321.944 647.58 321.86C647.338 321.766 647.067 321.72 646.768 321.72C646.171 321.72 645.704 321.958 645.368 322.434C645.042 322.91 644.878 323.614 644.878 324.548C644.878 325.481 645.042 326.172 645.368 326.62C645.695 327.058 646.162 327.278 646.768 327.278C647.058 327.278 647.324 327.236 647.566 327.152C647.809 327.058 648.08 326.914 648.378 326.718L648.966 327.558C648.294 328.099 647.543 328.37 646.712 328.37C645.714 328.37 644.925 328.034 644.346 327.362C643.777 326.69 643.492 325.761 643.492 324.576C643.492 323.792 643.623 323.106 643.884 322.518C644.146 321.93 644.514 321.472 644.99 321.146C645.476 320.819 646.05 320.656 646.712 320.656ZM653.664 328.244C653.375 329.102 652.969 329.779 652.446 330.274C651.933 330.778 651.195 331.081 650.234 331.184L650.094 330.176C650.579 330.092 650.967 329.97 651.256 329.812C651.545 329.653 651.774 329.448 651.942 329.196C652.119 328.953 652.283 328.622 652.432 328.202H651.998L649.52 320.824H650.892L652.866 327.264L654.798 320.824H656.128L653.664 328.244Z" fill="#001826" fill-opacity="0.9"/>
<path d="M359.839 181.495C359.287 181.495 358.839 181.942 358.839 182.495C358.839 183.047 359.287 183.495 359.839 183.495V181.495ZM578.806 54.3621C579.197 53.9716 579.197 53.3384 578.806 52.9479L572.442 46.584C572.052 46.1934 571.418 46.1934 571.028 46.584C570.637 46.9745 570.637 47.6077 571.028 47.9982L576.685 53.655L571.028 59.3119C570.637 59.7024 570.637 60.3356 571.028 60.7261C571.418 61.1166 572.052 61.1166 572.442 60.7261L578.806 54.3621ZM359.839 183.495H396.255V181.495H359.839V183.495ZM400.255 179.495V147.311H398.255V179.495H400.255ZM402.255 145.311H465.968V143.311H402.255V145.311ZM469.968 141.311V56.655H467.968V141.311H469.968ZM471.968 54.655H578.099V52.655H471.968V54.655ZM469.968 56.655C469.968 55.5505 470.863 54.655 471.968 54.655V52.655C469.759 52.655 467.968 54.4459 467.968 56.655H469.968ZM465.968 145.311C468.177 145.311 469.968 143.52 469.968 141.311H467.968C467.968 142.415 467.073 143.311 465.968 143.311V145.311ZM400.255 147.311C400.255 146.206 401.15 145.311 402.255 145.311V143.311C400.046 143.311 398.255 145.102 398.255 147.311H400.255ZM396.255 183.495C398.464 183.495 400.255 181.704 400.255 179.495H398.255C398.255 180.599 397.36 181.495 396.255 181.495V183.495Z" fill="#004166" fill-opacity="0.1"/>
<path d="M359.839 181.494C359.287 181.494 358.839 181.942 358.839 182.494C358.839 183.047 359.287 183.494 359.839 183.494V181.494ZM578.806 183.201C579.197 182.811 579.197 182.178 578.806 181.787L572.442 175.423C572.052 175.033 571.418 175.033 571.028 175.423C570.637 175.814 570.637 176.447 571.028 176.838L576.685 182.494L571.028 188.151C570.637 188.542 570.637 189.175 571.028 189.565C571.418 189.956 572.052 189.956 572.442 189.565L578.806 183.201ZM359.839 183.494H578.099V181.494H359.839V183.494Z" fill="#004166" fill-opacity="0.1"/>
<path d="M359.839 181.494C359.287 181.494 358.839 181.942 358.839 182.494C358.839 183.047 359.287 183.494 359.839 183.494V181.494ZM578.806 314.046C579.197 313.655 579.197 313.022 578.806 312.632L572.442 306.268C572.052 305.877 571.418 305.877 571.028 306.268C570.637 306.658 570.637 307.291 571.028 307.682L576.685 313.339L571.028 318.996C570.637 319.386 570.637 320.019 571.028 320.41C571.418 320.8 572.052 320.8 572.442 320.41L578.806 314.046ZM359.839 183.494H397.319V181.494H359.839V183.494ZM399.319 185.494V213.465H401.319V185.494H399.319ZM403.319 217.465H465.969V215.465H403.319V217.465ZM467.969 219.465V310.339H469.969V219.465H467.969ZM471.969 314.339H578.099V312.339H471.969V314.339ZM467.969 310.339C467.969 312.548 469.76 314.339 471.969 314.339V312.339C470.864 312.339 469.969 311.443 469.969 310.339H467.969ZM465.969 217.465C467.073 217.465 467.969 218.36 467.969 219.465H469.969C469.969 217.256 468.178 215.465 465.969 215.465V217.465ZM399.319 213.465C399.319 215.674 401.11 217.465 403.319 217.465V215.465C402.214 215.465 401.319 214.569 401.319 213.465H399.319ZM397.319 183.494C398.423 183.494 399.319 184.39 399.319 185.494H401.319C401.319 183.285 399.528 181.494 397.319 181.494V183.494Z" fill="#004166" fill-opacity="0.1"/>
<path d="M132.217 181.495C131.665 181.495 131.217 181.942 131.217 182.495C131.217 183.047 131.665 183.495 132.217 183.495V181.495ZM248.145 183.202C248.535 182.811 248.535 182.178 248.145 181.788L241.781 175.424C241.39 175.033 240.757 175.033 240.367 175.424C239.976 175.814 239.976 176.447 240.367 176.838L246.024 182.495L240.367 188.151C239.976 188.542 239.976 189.175 240.367 189.566C240.757 189.956 241.39 189.956 241.781 189.566L248.145 183.202ZM132.217 183.495H247.438V181.495H132.217V183.495Z" fill="#004166" fill-opacity="0.1"/>
</svg>
