<svg width="370" height="709" viewBox="0 0 370 709" fill="none" xmlns="http://www.w3.org/2000/svg">
<g filter="url(#filter0_dd_239_1532)">
<path d="M6.52637 22.7571C6.52637 13.9205 13.6898 6.75708 22.5264 6.75708H347.526C356.363 6.75708 363.526 13.9205 363.526 22.7571V682.757C363.526 691.594 356.363 698.757 347.526 698.757H22.5264C13.6898 698.757 6.52637 691.594 6.52637 682.757V22.7571Z" fill="white" shape-rendering="crispEdges"/>
<path d="M22.5264 7.25708H347.526C356.087 7.25708 363.026 14.1967 363.026 22.7571V682.757C363.026 691.317 356.087 698.257 347.526 698.257H22.5264C13.966 698.257 7.02637 691.318 7.02637 682.757V22.7571C7.02637 14.1967 13.966 7.25708 22.5264 7.25708Z" stroke="#004166" stroke-opacity="0.1" shape-rendering="crispEdges"/>
<path d="M57.4982 50.9331C58.2555 51.0611 58.8688 51.3277 59.3382 51.7331C59.8075 52.1384 60.0422 52.7677 60.0422 53.6211C60.0422 55.7117 58.5862 56.7571 55.6742 56.7571H52.6342V45.7331H55.2422C56.6395 45.7331 57.7062 45.9624 58.4422 46.4211C59.1888 46.8797 59.5622 47.5784 59.5622 48.5171C59.5622 49.1571 59.3595 49.6904 58.9542 50.1171C58.5595 50.5437 58.0742 50.8157 57.4982 50.9331ZM54.1542 46.9331V50.4051H55.8182C56.4582 50.4051 56.9808 50.2504 57.3862 49.9411C57.8022 49.6317 58.0102 49.1944 58.0102 48.6291C58.0102 47.9891 57.7915 47.5464 57.3542 47.3011C56.9275 47.0557 56.2768 46.9331 55.4022 46.9331H54.1542ZM55.6742 55.5411C56.5702 55.5411 57.2528 55.4077 57.7222 55.1411C58.2022 54.8744 58.4422 54.3677 58.4422 53.6211C58.4422 52.8957 58.2128 52.3731 57.7542 52.0531C57.2955 51.7331 56.6982 51.5731 55.9622 51.5731H54.1542V55.5411H55.6742ZM65.9526 48.1331C66.2512 48.1331 66.5286 48.1651 66.7846 48.2291L66.5126 49.6691C66.2566 49.6051 66.0112 49.5731 65.7766 49.5731C65.2539 49.5731 64.8326 49.7651 64.5126 50.1491C64.1926 50.5331 63.9419 51.1304 63.7606 51.9411V56.7571H62.2886V48.3251H63.5526L63.6966 50.0371C63.9206 49.4077 64.2246 48.9331 64.6086 48.6131C64.9926 48.2931 65.4406 48.1331 65.9526 48.1331ZM73.5779 54.7891C73.5779 55.1304 73.6366 55.3864 73.7539 55.5571C73.8713 55.7171 74.0473 55.8397 74.2819 55.9251L73.9459 56.9491C73.5086 56.8957 73.1566 56.7731 72.8899 56.5811C72.6233 56.3891 72.4259 56.0904 72.2979 55.6851C71.7326 56.5277 70.8953 56.9491 69.7859 56.9491C68.9539 56.9491 68.2979 56.7144 67.8179 56.2451C67.3379 55.7757 67.0979 55.1624 67.0979 54.4051C67.0979 53.5091 67.4179 52.8211 68.0579 52.3411C68.7086 51.8611 69.6259 51.6211 70.8099 51.6211H72.1059V50.9971C72.1059 50.3997 71.9619 49.9731 71.6739 49.7171C71.3859 49.4611 70.9433 49.3331 70.3459 49.3331C69.7273 49.3331 68.9699 49.4824 68.0739 49.7811L67.7059 48.7091C68.7513 48.3251 69.7219 48.1331 70.6179 48.1331C71.6099 48.1331 72.3513 48.3784 72.8419 48.8691C73.3326 49.3491 73.5779 50.0371 73.5779 50.9331V54.7891ZM70.1219 55.8451C70.9646 55.8451 71.6259 55.4077 72.1059 54.5331V52.5971H71.0019C69.4446 52.5971 68.6659 53.1731 68.6659 54.3251C68.6659 54.8264 68.7886 55.2051 69.0339 55.4611C69.2793 55.7171 69.6419 55.8451 70.1219 55.8451ZM80.5691 48.1331C81.3371 48.1331 81.9344 48.3624 82.3611 48.8211C82.7984 49.2797 83.0171 49.9091 83.0171 50.7091V56.7571H81.5451V50.9171C81.5451 50.3197 81.4331 49.8984 81.2091 49.6531C80.9851 49.4077 80.6544 49.2851 80.2171 49.2851C79.7691 49.2851 79.3744 49.4131 79.0331 49.6691C78.6917 49.9251 78.3717 50.2931 78.0731 50.7731V56.7571H76.6011V48.3251H77.8651L77.9931 49.5731C78.2917 49.1251 78.6597 48.7731 79.0971 48.5171C79.5451 48.2611 80.0357 48.1331 80.5691 48.1331ZM92.5041 44.9331V56.7571H91.2081L91.0641 55.5891C90.7867 56.0157 90.4401 56.3517 90.0241 56.5971C89.6081 56.8317 89.1441 56.9491 88.6321 56.9491C87.6294 56.9491 86.8454 56.5544 86.2801 55.7651C85.7254 54.9757 85.4481 53.9144 85.4481 52.5811C85.4481 51.7171 85.5814 50.9491 85.8481 50.2771C86.1147 49.6051 86.4987 49.0824 87.0001 48.7091C87.5014 48.3251 88.0881 48.1331 88.7601 48.1331C89.6241 48.1331 90.3814 48.4797 91.0321 49.1731V44.7571L92.5041 44.9331ZM88.9521 55.7811C89.4001 55.7811 89.7841 55.6797 90.1041 55.4771C90.4241 55.2637 90.7334 54.9491 91.0321 54.5331V50.4051C90.7547 50.0424 90.4561 49.7704 90.1361 49.5891C89.8267 49.3971 89.4747 49.3011 89.0801 49.3011C88.4294 49.3011 87.9227 49.5731 87.5601 50.1171C87.2081 50.6611 87.0321 51.4717 87.0321 52.5491C87.0321 53.6371 87.1974 54.4477 87.5281 54.9811C87.8587 55.5144 88.3334 55.7811 88.9521 55.7811Z" fill="#001826" fill-opacity="0.9"/>
<path d="M52.5264 92.7571C52.5264 90.5479 54.3172 88.7571 56.5264 88.7571H88.5264C90.7355 88.7571 92.5264 90.5479 92.5264 92.7571V124.757C92.5264 126.966 90.7355 128.757 88.5264 128.757H56.5264C54.3172 128.757 52.5264 126.966 52.5264 124.757V92.7571Z" fill="#145174"/>
<path d="M50.264 139.111L50.124 140.245H47.45V148.757H46.12V140.245H43.376V139.111H50.264ZM56.5348 144.851C56.5348 145.066 56.5255 145.285 56.5068 145.509H51.8028C51.8588 146.321 52.0641 146.918 52.4188 147.301C52.7735 147.684 53.2308 147.875 53.7908 147.875C54.1455 147.875 54.4721 147.824 54.7708 147.721C55.0695 147.618 55.3821 147.455 55.7088 147.231L56.2688 148.001C55.4848 148.617 54.6261 148.925 53.6928 148.925C52.6661 148.925 51.8635 148.589 51.2848 147.917C50.7155 147.245 50.4308 146.321 50.4308 145.145C50.4308 144.38 50.5521 143.703 50.7948 143.115C51.0468 142.518 51.4015 142.051 51.8588 141.715C52.3255 141.379 52.8715 141.211 53.4968 141.211C54.4768 141.211 55.2281 141.533 55.7508 142.177C56.2735 142.821 56.5348 143.712 56.5348 144.851ZM55.2608 144.473C55.2608 143.745 55.1161 143.19 54.8268 142.807C54.5375 142.424 54.1035 142.233 53.5248 142.233C52.4701 142.233 51.8961 143.008 51.8028 144.557H55.2608V144.473ZM63.425 147.035C63.425 147.334 63.4763 147.558 63.579 147.707C63.6817 147.847 63.8357 147.954 64.041 148.029L63.747 148.925C63.3643 148.878 63.0563 148.771 62.823 148.603C62.5897 148.435 62.417 148.174 62.305 147.819C61.8103 148.556 61.0777 148.925 60.107 148.925C59.379 148.925 58.805 148.72 58.385 148.309C57.965 147.898 57.755 147.362 57.755 146.699C57.755 145.915 58.035 145.313 58.595 144.893C59.1643 144.473 59.967 144.263 61.003 144.263H62.137V143.717C62.137 143.194 62.011 142.821 61.759 142.597C61.507 142.373 61.1197 142.261 60.597 142.261C60.0557 142.261 59.393 142.392 58.609 142.653L58.287 141.715C59.2017 141.379 60.051 141.211 60.835 141.211C61.703 141.211 62.3517 141.426 62.781 141.855C63.2103 142.275 63.425 142.877 63.425 143.661V147.035ZM60.401 147.959C61.1383 147.959 61.717 147.576 62.137 146.811V145.117H61.171C59.8083 145.117 59.127 145.621 59.127 146.629C59.127 147.068 59.2343 147.399 59.449 147.623C59.6637 147.847 59.981 147.959 60.401 147.959ZM67.4035 148.925C66.9275 148.925 66.5495 148.785 66.2695 148.505C65.9988 148.216 65.8635 147.814 65.8635 147.301V138.411L67.1515 138.257V147.273C67.1515 147.478 67.1842 147.628 67.2495 147.721C67.3242 147.814 67.4455 147.861 67.6135 147.861C67.7908 147.861 67.9495 147.833 68.0895 147.777L68.4255 148.673C68.1175 148.841 67.7768 148.925 67.4035 148.925ZM76.9322 139.391V148.757H75.6442V140.763L73.4602 142.093L72.9002 141.183L75.7982 139.391H76.9322ZM82.3728 139.251C83.4088 139.251 84.1881 139.666 84.7108 140.497C85.2428 141.318 85.5088 142.513 85.5088 144.081C85.5088 145.649 85.2428 146.848 84.7108 147.679C84.1881 148.51 83.4088 148.925 82.3728 148.925C81.3368 148.925 80.5528 148.51 80.0208 147.679C79.4981 146.848 79.2368 145.649 79.2368 144.081C79.2368 142.513 79.4981 141.318 80.0208 140.497C80.5528 139.666 81.3368 139.251 82.3728 139.251ZM82.3728 140.273C81.7661 140.273 81.3135 140.572 81.0148 141.169C80.7255 141.766 80.5808 142.737 80.5808 144.081C80.5808 145.425 80.7255 146.4 81.0148 147.007C81.3135 147.604 81.7661 147.903 82.3728 147.903C82.9701 147.903 83.4181 147.604 83.7168 147.007C84.0155 146.4 84.1648 145.425 84.1648 144.081C84.1648 142.746 84.0155 141.78 83.7168 141.183C83.4181 140.576 82.9701 140.273 82.3728 140.273ZM90.1794 139.251C91.2154 139.251 91.9948 139.666 92.5174 140.497C93.0494 141.318 93.3154 142.513 93.3154 144.081C93.3154 145.649 93.0494 146.848 92.5174 147.679C91.9948 148.51 91.2154 148.925 90.1794 148.925C89.1434 148.925 88.3594 148.51 87.8274 147.679C87.3048 146.848 87.0434 145.649 87.0434 144.081C87.0434 142.513 87.3048 141.318 87.8274 140.497C88.3594 139.666 89.1434 139.251 90.1794 139.251ZM90.1794 140.273C89.5728 140.273 89.1201 140.572 88.8214 141.169C88.5321 141.766 88.3874 142.737 88.3874 144.081C88.3874 145.425 88.5321 146.4 88.8214 147.007C89.1201 147.604 89.5728 147.903 90.1794 147.903C90.7768 147.903 91.2248 147.604 91.5234 147.007C91.8221 146.4 91.9714 145.425 91.9714 144.081C91.9714 142.746 91.8221 141.78 91.5234 141.183C91.2248 140.576 90.7768 140.273 90.1794 140.273ZM97.9861 139.251C99.0221 139.251 99.8014 139.666 100.324 140.497C100.856 141.318 101.122 142.513 101.122 144.081C101.122 145.649 100.856 146.848 100.324 147.679C99.8014 148.51 99.0221 148.925 97.9861 148.925C96.9501 148.925 96.1661 148.51 95.6341 147.679C95.1114 146.848 94.8501 145.649 94.8501 144.081C94.8501 142.513 95.1114 141.318 95.6341 140.497C96.1661 139.666 96.9501 139.251 97.9861 139.251ZM97.9861 140.273C97.3794 140.273 96.9267 140.572 96.6281 141.169C96.3387 141.766 96.1941 142.737 96.1941 144.081C96.1941 145.425 96.3387 146.4 96.6281 147.007C96.9267 147.604 97.3794 147.903 97.9861 147.903C98.5834 147.903 99.0314 147.604 99.3301 147.007C99.6287 146.4 99.7781 145.425 99.7781 144.081C99.7781 142.746 99.6287 141.78 99.3301 141.183C99.0314 140.576 98.5834 140.273 97.9861 140.273Z" fill="#002033" fill-opacity="0.65"/>
<path d="M52.5264 192.757C52.5264 190.548 54.3172 188.757 56.5264 188.757H88.5264C90.7355 188.757 92.5264 190.548 92.5264 192.757V224.757C92.5264 226.966 90.7355 228.757 88.5264 228.757H56.5264C54.3172 228.757 52.5264 226.966 52.5264 224.757V192.757Z" fill="#145174" fill-opacity="0.8"/>
<path d="M65.9743 243.731C67.2903 244.263 67.9483 245.103 67.9483 246.251C67.9483 246.764 67.8083 247.226 67.5283 247.637C67.2576 248.038 66.8749 248.356 66.3803 248.589C65.8856 248.813 65.3256 248.925 64.7003 248.925C64.0656 248.925 63.5056 248.813 63.0203 248.589C62.5349 248.365 62.1569 248.052 61.8863 247.651C61.6249 247.25 61.4943 246.792 61.4943 246.279C61.4943 245.7 61.6483 245.215 61.9563 244.823C62.2736 244.431 62.7356 244.104 63.3423 243.843C62.8476 243.591 62.4789 243.288 62.2363 242.933C62.0029 242.569 61.8863 242.144 61.8863 241.659C61.8863 241.155 62.0169 240.721 62.2783 240.357C62.5489 239.993 62.8989 239.718 63.3283 239.531C63.7669 239.344 64.2336 239.251 64.7283 239.251C65.2136 239.251 65.6709 239.34 66.1003 239.517C66.5389 239.694 66.8936 239.965 67.1643 240.329C67.4349 240.684 67.5703 241.113 67.5703 241.617C67.5703 242.084 67.4396 242.485 67.1783 242.821C66.9169 243.157 66.5156 243.46 65.9743 243.731ZM64.7283 240.217C64.2429 240.217 63.8556 240.343 63.5663 240.595C63.2863 240.847 63.1463 241.206 63.1463 241.673C63.1463 242.121 63.2816 242.462 63.5523 242.695C63.8323 242.928 64.2756 243.143 64.8823 243.339L65.1203 243.423C65.5403 243.18 65.8436 242.924 66.0303 242.653C66.2169 242.382 66.3103 242.051 66.3103 241.659C66.3103 241.22 66.1703 240.87 65.8903 240.609C65.6196 240.348 65.2323 240.217 64.7283 240.217ZM64.7143 247.903C65.2929 247.903 65.7503 247.754 66.0863 247.455C66.4316 247.156 66.6043 246.76 66.6043 246.265C66.6043 245.929 66.5389 245.649 66.4083 245.425C66.2776 245.192 66.0676 244.991 65.7783 244.823C65.4889 244.646 65.0829 244.468 64.5603 244.291L64.2103 244.165C63.7436 244.389 63.3983 244.674 63.1743 245.019C62.9503 245.355 62.8383 245.775 62.8383 246.279C62.8383 246.792 63.0063 247.194 63.3423 247.483C63.6783 247.763 64.1356 247.903 64.7143 247.903ZM72.4812 239.251C73.5172 239.251 74.2965 239.666 74.8192 240.497C75.3512 241.318 75.6172 242.513 75.6172 244.081C75.6172 245.649 75.3512 246.848 74.8192 247.679C74.2965 248.51 73.5172 248.925 72.4812 248.925C71.4452 248.925 70.6612 248.51 70.1292 247.679C69.6065 246.848 69.3452 245.649 69.3452 244.081C69.3452 242.513 69.6065 241.318 70.1292 240.497C70.6612 239.666 71.4452 239.251 72.4812 239.251ZM72.4812 240.273C71.8745 240.273 71.4219 240.572 71.1232 241.169C70.8339 241.766 70.6892 242.737 70.6892 244.081C70.6892 245.425 70.8339 246.4 71.1232 247.007C71.4219 247.604 71.8745 247.903 72.4812 247.903C73.0785 247.903 73.5265 247.604 73.8252 247.007C74.1239 246.4 74.2732 245.425 74.2732 244.081C74.2732 242.746 74.1239 241.78 73.8252 241.183C73.5265 240.576 73.0785 240.273 72.4812 240.273ZM80.2878 239.251C81.3238 239.251 82.1032 239.666 82.6258 240.497C83.1578 241.318 83.4238 242.513 83.4238 244.081C83.4238 245.649 83.1578 246.848 82.6258 247.679C82.1032 248.51 81.3238 248.925 80.2878 248.925C79.2518 248.925 78.4678 248.51 77.9358 247.679C77.4132 246.848 77.1518 245.649 77.1518 244.081C77.1518 242.513 77.4132 241.318 77.9358 240.497C78.4678 239.666 79.2518 239.251 80.2878 239.251ZM80.2878 240.273C79.6812 240.273 79.2285 240.572 78.9298 241.169C78.6405 241.766 78.4958 242.737 78.4958 244.081C78.4958 245.425 78.6405 246.4 78.9298 247.007C79.2285 247.604 79.6812 247.903 80.2878 247.903C80.8852 247.903 81.3332 247.604 81.6318 247.007C81.9305 246.4 82.0798 245.425 82.0798 244.081C82.0798 242.746 81.9305 241.78 81.6318 241.183C81.3332 240.576 80.8852 240.273 80.2878 240.273Z" fill="#002033" fill-opacity="0.65"/>
<path d="M52.5264 278.757C52.5264 276.548 54.3172 274.757 56.5264 274.757H88.5264C90.7355 274.757 92.5264 276.548 92.5264 278.757V310.757C92.5264 312.966 90.7355 314.757 88.5264 314.757H56.5264C54.3172 314.757 52.5264 312.966 52.5264 310.757V278.757Z" fill="#145174" fill-opacity="0.5"/>
<path d="M67.0929 326.399H63.4389V329.157C63.9149 328.914 64.4142 328.793 64.9369 328.793C65.7396 328.793 66.3836 329.059 66.8689 329.591C67.3542 330.114 67.5969 330.837 67.5969 331.761C67.5969 332.377 67.4616 332.928 67.1909 333.413C66.9202 333.889 66.5376 334.262 66.0429 334.533C65.5576 334.794 64.9929 334.925 64.3489 334.925C63.7796 334.925 63.2709 334.827 62.8229 334.631C62.3749 334.426 61.9596 334.127 61.5769 333.735L62.3329 332.993C62.6316 333.292 62.9396 333.516 63.2569 333.665C63.5742 333.805 63.9336 333.875 64.3349 333.875C64.9322 333.875 65.3989 333.688 65.7349 333.315C66.0802 332.942 66.2529 332.414 66.2529 331.733C66.2529 331.052 66.0989 330.557 65.7909 330.249C65.4829 329.941 65.0676 329.787 64.5449 329.787C64.3022 329.787 64.0782 329.815 63.8729 329.871C63.6676 329.918 63.4482 329.997 63.2149 330.109H62.2069V325.391H67.2749L67.0929 326.399ZM72.1326 325.251C73.1686 325.251 73.9479 325.666 74.4706 326.497C75.0026 327.318 75.2686 328.513 75.2686 330.081C75.2686 331.649 75.0026 332.848 74.4706 333.679C73.9479 334.51 73.1686 334.925 72.1326 334.925C71.0966 334.925 70.3126 334.51 69.7806 333.679C69.2579 332.848 68.9966 331.649 68.9966 330.081C68.9966 328.513 69.2579 327.318 69.7806 326.497C70.3126 325.666 71.0966 325.251 72.1326 325.251ZM72.1326 326.273C71.5259 326.273 71.0732 326.572 70.7746 327.169C70.4852 327.766 70.3406 328.737 70.3406 330.081C70.3406 331.425 70.4852 332.4 70.7746 333.007C71.0732 333.604 71.5259 333.903 72.1326 333.903C72.7299 333.903 73.1779 333.604 73.4766 333.007C73.7752 332.4 73.9246 331.425 73.9246 330.081C73.9246 328.746 73.7752 327.78 73.4766 327.183C73.1779 326.576 72.7299 326.273 72.1326 326.273ZM79.9392 325.251C80.9752 325.251 81.7545 325.666 82.2772 326.497C82.8092 327.318 83.0752 328.513 83.0752 330.081C83.0752 331.649 82.8092 332.848 82.2772 333.679C81.7545 334.51 80.9752 334.925 79.9392 334.925C78.9032 334.925 78.1192 334.51 77.5872 333.679C77.0645 332.848 76.8032 331.649 76.8032 330.081C76.8032 328.513 77.0645 327.318 77.5872 326.497C78.1192 325.666 78.9032 325.251 79.9392 325.251ZM79.9392 326.273C79.3325 326.273 78.8799 326.572 78.5812 327.169C78.2919 327.766 78.1472 328.737 78.1472 330.081C78.1472 331.425 78.2919 332.4 78.5812 333.007C78.8799 333.604 79.3325 333.903 79.9392 333.903C80.5365 333.903 80.9845 333.604 81.2832 333.007C81.5819 332.4 81.7312 331.425 81.7312 330.081C81.7312 328.746 81.5819 327.78 81.2832 327.183C80.9845 326.576 80.5365 326.273 79.9392 326.273Z" fill="#002033" fill-opacity="0.65"/>
<path d="M52.5264 364.757C52.5264 362.548 54.3172 360.757 56.5264 360.757H88.5264C90.7355 360.757 92.5264 362.548 92.5264 364.757V396.757C92.5264 398.966 90.7355 400.757 88.5264 400.757H56.5264C54.3172 400.757 52.5264 398.966 52.5264 396.757V364.757Z" fill="#145174" fill-opacity="0.2"/>
<path d="M64.4459 411.251C65.0059 411.251 65.4959 411.363 65.9159 411.587C66.3452 411.811 66.6766 412.119 66.9099 412.511C67.1432 412.894 67.2599 413.328 67.2599 413.813C67.2599 414.382 67.1292 414.928 66.8679 415.451C66.6159 415.974 66.2239 416.538 65.6919 417.145C65.1599 417.752 64.3526 418.596 63.2699 419.679H67.4839L67.3299 420.757H61.7999V419.735C63.0506 418.438 63.9372 417.49 64.4599 416.893C64.9826 416.286 65.3559 415.759 65.5799 415.311C65.8039 414.863 65.9159 414.382 65.9159 413.869C65.9159 413.384 65.7759 413.006 65.4959 412.735C65.2159 412.455 64.8426 412.315 64.3759 412.315C63.9932 412.315 63.6572 412.394 63.3679 412.553C63.0786 412.712 62.7706 412.973 62.4439 413.337L61.6039 412.665C61.9866 412.189 62.4112 411.834 62.8779 411.601C63.3446 411.368 63.8672 411.251 64.4459 411.251ZM72.0915 411.251C73.1275 411.251 73.9069 411.666 74.4295 412.497C74.9615 413.318 75.2275 414.513 75.2275 416.081C75.2275 417.649 74.9615 418.848 74.4295 419.679C73.9069 420.51 73.1275 420.925 72.0915 420.925C71.0555 420.925 70.2715 420.51 69.7395 419.679C69.2169 418.848 68.9555 417.649 68.9555 416.081C68.9555 414.513 69.2169 413.318 69.7395 412.497C70.2715 411.666 71.0555 411.251 72.0915 411.251ZM72.0915 412.273C71.4849 412.273 71.0322 412.572 70.7335 413.169C70.4442 413.766 70.2995 414.737 70.2995 416.081C70.2995 417.425 70.4442 418.4 70.7335 419.007C71.0322 419.604 71.4849 419.903 72.0915 419.903C72.6889 419.903 73.1369 419.604 73.4355 419.007C73.7342 418.4 73.8835 417.425 73.8835 416.081C73.8835 414.746 73.7342 413.78 73.4355 413.183C73.1369 412.576 72.6889 412.273 72.0915 412.273ZM79.8982 411.251C80.9342 411.251 81.7135 411.666 82.2362 412.497C82.7682 413.318 83.0342 414.513 83.0342 416.081C83.0342 417.649 82.7682 418.848 82.2362 419.679C81.7135 420.51 80.9342 420.925 79.8982 420.925C78.8622 420.925 78.0782 420.51 77.5462 419.679C77.0235 418.848 76.7622 417.649 76.7622 416.081C76.7622 414.513 77.0235 413.318 77.5462 412.497C78.0782 411.666 78.8622 411.251 79.8982 411.251ZM79.8982 412.273C79.2915 412.273 78.8389 412.572 78.5402 413.169C78.2509 413.766 78.1062 414.737 78.1062 416.081C78.1062 417.425 78.2509 418.4 78.5402 419.007C78.8389 419.604 79.2915 419.903 79.8982 419.903C80.4955 419.903 80.9435 419.604 81.2422 419.007C81.5409 418.4 81.6902 417.425 81.6902 416.081C81.6902 414.746 81.5409 413.78 81.2422 413.183C80.9435 412.576 80.4955 412.273 79.8982 412.273Z" fill="#002033" fill-opacity="0.65"/>
<path d="M52.5264 450.757C52.5264 448.548 54.3172 446.757 56.5264 446.757H88.5264C90.7355 446.757 92.5264 448.548 92.5264 450.757V482.757C92.5264 484.966 90.7355 486.757 88.5264 486.757H56.5264C54.3172 486.757 52.5264 484.966 52.5264 482.757V450.757Z" fill="#145174" fill-opacity="0.05"/>
<path d="M53.0264 450.757C53.0264 448.824 54.5934 447.257 56.5264 447.257H88.5264C90.4594 447.257 92.0264 448.824 92.0264 450.757V482.757C92.0264 484.69 90.4594 486.257 88.5264 486.257H56.5264C54.5934 486.257 53.0264 484.69 53.0264 482.757V450.757Z" stroke="#004166" stroke-opacity="0.1"/>
<path d="M70.9962 498.399H67.3422V501.157C67.8182 500.914 68.3175 500.793 68.8402 500.793C69.6429 500.793 70.2869 501.059 70.7722 501.591C71.2575 502.114 71.5002 502.837 71.5002 503.761C71.5002 504.377 71.3649 504.928 71.0942 505.413C70.8235 505.889 70.4409 506.262 69.9462 506.533C69.4609 506.794 68.8962 506.925 68.2522 506.925C67.6829 506.925 67.1742 506.827 66.7262 506.631C66.2782 506.426 65.8629 506.127 65.4802 505.735L66.2362 504.993C66.5349 505.292 66.8429 505.516 67.1602 505.665C67.4775 505.805 67.8369 505.875 68.2382 505.875C68.8355 505.875 69.3022 505.688 69.6382 505.315C69.9835 504.942 70.1562 504.414 70.1562 503.733C70.1562 503.052 70.0022 502.557 69.6942 502.249C69.3862 501.941 68.9709 501.787 68.4482 501.787C68.2055 501.787 67.9815 501.815 67.7762 501.871C67.5709 501.918 67.3515 501.997 67.1182 502.109H66.1102V497.391H71.1782L70.9962 498.399ZM76.0359 497.251C77.0719 497.251 77.8512 497.666 78.3739 498.497C78.9059 499.318 79.1719 500.513 79.1719 502.081C79.1719 503.649 78.9059 504.848 78.3739 505.679C77.8512 506.51 77.0719 506.925 76.0359 506.925C74.9999 506.925 74.2159 506.51 73.6839 505.679C73.1612 504.848 72.8999 503.649 72.8999 502.081C72.8999 500.513 73.1612 499.318 73.6839 498.497C74.2159 497.666 74.9999 497.251 76.0359 497.251ZM76.0359 498.273C75.4292 498.273 74.9765 498.572 74.6779 499.169C74.3885 499.766 74.2439 500.737 74.2439 502.081C74.2439 503.425 74.3885 504.4 74.6779 505.007C74.9765 505.604 75.4292 505.903 76.0359 505.903C76.6332 505.903 77.0812 505.604 77.3799 505.007C77.6785 504.4 77.8279 503.425 77.8279 502.081C77.8279 500.746 77.6785 499.78 77.3799 499.183C77.0812 498.576 76.6332 498.273 76.0359 498.273Z" fill="#002033" fill-opacity="0.65"/>
<path d="M125.646 45.7331V55.4291H130.174L129.998 56.7571H124.126V45.7331H125.646ZM133.487 48.3251V56.7571H132.015V48.3251H133.487ZM132.735 44.2771C133.044 44.2771 133.295 44.3731 133.487 44.5651C133.679 44.7571 133.775 44.9971 133.775 45.2851C133.775 45.5731 133.679 45.8131 133.487 46.0051C133.295 46.1864 133.044 46.2771 132.735 46.2771C132.436 46.2771 132.191 46.1864 131.999 46.0051C131.807 45.8131 131.711 45.5731 131.711 45.2851C131.711 44.9971 131.807 44.7571 131.999 44.5651C132.191 44.3731 132.436 44.2771 132.735 44.2771ZM143.331 48.7091C143.011 48.8157 142.659 48.8851 142.275 48.9171C141.891 48.9491 141.421 48.9651 140.867 48.9651C141.859 49.4131 142.355 50.1224 142.355 51.0931C142.355 51.9357 142.067 52.6237 141.491 53.1571C140.915 53.6904 140.131 53.9571 139.139 53.9571C138.755 53.9571 138.397 53.9037 138.067 53.7971C137.939 53.8824 137.837 53.9997 137.763 54.1491C137.688 54.2877 137.651 54.4317 137.651 54.5811C137.651 55.0397 138.019 55.2691 138.755 55.2691H140.099C140.664 55.2691 141.165 55.3704 141.603 55.5731C142.04 55.7757 142.376 56.0531 142.611 56.4051C142.856 56.7571 142.979 57.1571 142.979 57.6051C142.979 58.4264 142.643 59.0557 141.971 59.4931C141.299 59.9411 140.317 60.1651 139.027 60.1651C138.12 60.1651 137.4 60.0691 136.867 59.8771C136.344 59.6957 135.971 59.4184 135.747 59.0451C135.523 58.6717 135.411 58.1917 135.411 57.6051H136.739C136.739 57.9464 136.803 58.2131 136.931 58.4051C137.059 58.6077 137.288 58.7571 137.619 58.8531C137.949 58.9597 138.419 59.0131 139.027 59.0131C139.912 59.0131 140.541 58.9011 140.915 58.6771C141.299 58.4637 141.491 58.1384 141.491 57.7011C141.491 57.3064 141.341 57.0077 141.043 56.8051C140.744 56.6024 140.328 56.5011 139.795 56.5011H138.467C137.752 56.5011 137.208 56.3517 136.835 56.0531C136.472 55.7437 136.291 55.3597 136.291 54.9011C136.291 54.6237 136.371 54.3571 136.531 54.1011C136.691 53.8451 136.92 53.6157 137.219 53.4131C136.728 53.1571 136.365 52.8424 136.131 52.4691C135.907 52.0851 135.795 51.6211 135.795 51.0771C135.795 50.5117 135.933 50.0051 136.211 49.5571C136.499 49.1091 136.888 48.7624 137.379 48.5171C137.88 48.2611 138.435 48.1331 139.043 48.1331C139.704 48.1437 140.259 48.1224 140.707 48.0691C141.155 48.0051 141.523 47.9251 141.811 47.8291C142.109 47.7224 142.472 47.5731 142.899 47.3811L143.331 48.7091ZM139.043 49.1891C138.488 49.1891 138.056 49.3651 137.747 49.7171C137.448 50.0584 137.299 50.5117 137.299 51.0771C137.299 51.6531 137.453 52.1171 137.763 52.4691C138.072 52.8104 138.509 52.9811 139.075 52.9811C139.651 52.9811 140.088 52.8157 140.387 52.4851C140.696 52.1437 140.851 51.6691 140.851 51.0611C140.851 49.8131 140.248 49.1891 139.043 49.1891ZM148.811 48.1331C149.579 48.1331 150.177 48.3624 150.603 48.8211C151.041 49.2797 151.259 49.9091 151.259 50.7091V56.7571H149.787V50.9171C149.787 50.3197 149.67 49.8984 149.435 49.6531C149.211 49.4077 148.881 49.2851 148.443 49.2851C148.006 49.2851 147.617 49.4131 147.275 49.6691C146.934 49.9251 146.614 50.2877 146.315 50.7571V56.7571H144.843V44.9491L146.315 44.7891V49.4931C146.977 48.5864 147.809 48.1331 148.811 48.1331ZM158.474 56.3731C157.92 56.7571 157.29 56.9491 156.586 56.9491C155.872 56.9491 155.312 56.7464 154.906 56.3411C154.512 55.9251 154.314 55.3277 154.314 54.5491V49.4611H152.842V48.3251H154.314V46.4211L155.786 46.2451V48.3251H157.786L157.626 49.4611H155.786V54.4851C155.786 54.9224 155.861 55.2424 156.01 55.4451C156.17 55.6371 156.432 55.7331 156.794 55.7331C157.125 55.7331 157.498 55.6211 157.914 55.3971L158.474 56.3731ZM168.49 56.3731C167.935 56.7571 167.306 56.9491 166.602 56.9491C165.887 56.9491 165.327 56.7464 164.922 56.3411C164.527 55.9251 164.33 55.3277 164.33 54.5491V49.4611H162.858V48.3251H164.33V46.4211L165.802 46.2451V48.3251H167.802L167.642 49.4611H165.802V54.4851C165.802 54.9224 165.877 55.2424 166.026 55.4451C166.186 55.6371 166.447 55.7331 166.81 55.7331C167.141 55.7331 167.514 55.6211 167.93 55.3971L168.49 56.3731ZM173.983 48.1331C174.751 48.1331 175.348 48.3624 175.775 48.8211C176.212 49.2797 176.431 49.9091 176.431 50.7091V56.7571H174.959V50.9171C174.959 50.3197 174.842 49.8984 174.607 49.6531C174.383 49.4077 174.052 49.2851 173.615 49.2851C173.178 49.2851 172.788 49.4131 172.447 49.6691C172.106 49.9251 171.786 50.2877 171.487 50.7571V56.7571H170.015V44.9491L171.487 44.7891V49.4931C172.148 48.5864 172.98 48.1331 173.983 48.1331ZM185.758 52.2931C185.758 52.5384 185.747 52.7891 185.726 53.0451H180.35C180.414 53.9731 180.649 54.6557 181.054 55.0931C181.459 55.5304 181.982 55.7491 182.622 55.7491C183.027 55.7491 183.401 55.6904 183.742 55.5731C184.083 55.4557 184.441 55.2691 184.814 55.0131L185.454 55.8931C184.558 56.5971 183.577 56.9491 182.51 56.9491C181.337 56.9491 180.419 56.5651 179.758 55.7971C179.107 55.0291 178.782 53.9731 178.782 52.6291C178.782 51.7544 178.921 50.9811 179.198 50.3091C179.486 49.6264 179.891 49.0931 180.414 48.7091C180.947 48.3251 181.571 48.1331 182.286 48.1331C183.406 48.1331 184.265 48.5011 184.862 49.2371C185.459 49.9731 185.758 50.9917 185.758 52.2931ZM184.302 51.8611C184.302 51.0291 184.137 50.3944 183.806 49.9571C183.475 49.5197 182.979 49.3011 182.318 49.3011C181.113 49.3011 180.457 50.1864 180.35 51.9571H184.302V51.8611ZM196.573 48.1331C197.266 48.1331 197.821 48.3677 198.237 48.8371C198.653 49.2957 198.861 49.9197 198.861 50.7091V56.7571H197.389V50.9171C197.389 49.8291 196.994 49.2851 196.205 49.2851C195.789 49.2851 195.437 49.4077 195.149 49.6531C194.861 49.8877 194.552 50.2611 194.221 50.7731V56.7571H192.749V50.9171C192.749 49.8291 192.354 49.2851 191.565 49.2851C191.138 49.2851 190.781 49.4077 190.493 49.6531C190.205 49.8984 189.901 50.2717 189.581 50.7731V56.7571H188.109V48.3251H189.373L189.501 49.5571C190.13 48.6077 190.941 48.1331 191.933 48.1331C192.456 48.1331 192.898 48.2664 193.261 48.5331C193.634 48.7997 193.901 49.1731 194.061 49.6531C194.392 49.1624 194.754 48.7891 195.149 48.5331C195.554 48.2664 196.029 48.1331 196.573 48.1331ZM208.196 52.2931C208.196 52.5384 208.185 52.7891 208.164 53.0451H202.788C202.852 53.9731 203.086 54.6557 203.492 55.0931C203.897 55.5304 204.42 55.7491 205.06 55.7491C205.465 55.7491 205.838 55.6904 206.18 55.5731C206.521 55.4557 206.878 55.2691 207.252 55.0131L207.892 55.8931C206.996 56.5971 206.014 56.9491 204.948 56.9491C203.774 56.9491 202.857 56.5651 202.196 55.7971C201.545 55.0291 201.22 53.9731 201.22 52.6291C201.22 51.7544 201.358 50.9811 201.636 50.3091C201.924 49.6264 202.329 49.0931 202.852 48.7091C203.385 48.3251 204.009 48.1331 204.724 48.1331C205.844 48.1331 206.702 48.5011 207.3 49.2371C207.897 49.9731 208.196 50.9917 208.196 52.2931ZM206.74 51.8611C206.74 51.0291 206.574 50.3944 206.244 49.9571C205.913 49.5197 205.417 49.3011 204.756 49.3011C203.55 49.3011 202.894 50.1864 202.788 51.9571H206.74V51.8611Z" fill="#001826" fill-opacity="0.9"/>
<path d="M151.526 92.7571C151.526 90.5479 153.317 88.7571 155.526 88.7571H187.526C189.736 88.7571 191.526 90.5479 191.526 92.7571V124.757C191.526 126.966 189.736 128.757 187.526 128.757H155.526C153.317 128.757 151.526 126.966 151.526 124.757V92.7571Z" fill="#001826" fill-opacity="0.9"/>
<path d="M127.877 139.111C129.333 139.111 130.5 139.452 131.377 140.133C132.264 140.805 132.707 142.056 132.707 143.885C132.707 145.668 132.264 146.928 131.377 147.665C130.5 148.393 129.431 148.757 128.171 148.757H125.861V139.111H127.877ZM127.191 140.175V147.707H128.269C129.165 147.707 129.893 147.432 130.453 146.881C131.013 146.33 131.293 145.332 131.293 143.885C131.293 142.868 131.148 142.088 130.859 141.547C130.57 140.996 130.201 140.632 129.753 140.455C129.305 140.268 128.778 140.175 128.171 140.175H127.191ZM139.634 147.035C139.634 147.334 139.685 147.558 139.788 147.707C139.891 147.847 140.045 147.954 140.25 148.029L139.956 148.925C139.573 148.878 139.265 148.771 139.032 148.603C138.799 148.435 138.626 148.174 138.514 147.819C138.019 148.556 137.287 148.925 136.316 148.925C135.588 148.925 135.014 148.72 134.594 148.309C134.174 147.898 133.964 147.362 133.964 146.699C133.964 145.915 134.244 145.313 134.804 144.893C135.373 144.473 136.176 144.263 137.212 144.263H138.346V143.717C138.346 143.194 138.22 142.821 137.968 142.597C137.716 142.373 137.329 142.261 136.806 142.261C136.265 142.261 135.602 142.392 134.818 142.653L134.496 141.715C135.411 141.379 136.26 141.211 137.044 141.211C137.912 141.211 138.561 141.426 138.99 141.855C139.419 142.275 139.634 142.877 139.634 143.661V147.035ZM136.61 147.959C137.347 147.959 137.926 147.576 138.346 146.811V145.117H137.38C136.017 145.117 135.336 145.621 135.336 146.629C135.336 147.068 135.443 147.399 135.658 147.623C135.873 147.847 136.19 147.959 136.61 147.959ZM145.485 141.211C145.747 141.211 145.989 141.239 146.213 141.295L145.975 142.555C145.751 142.499 145.537 142.471 145.331 142.471C144.874 142.471 144.505 142.639 144.225 142.975C143.945 143.311 143.726 143.834 143.567 144.543V148.757H142.279V141.379H143.385L143.511 142.877C143.707 142.326 143.973 141.911 144.309 141.631C144.645 141.351 145.037 141.211 145.485 141.211ZM148.968 138.257V148.757H147.68V138.411L148.968 138.257ZM153.21 141.379L150.494 144.641L153.518 148.757H151.978L149.052 144.725L151.768 141.379H153.21ZM161.923 141.211C162.763 141.211 163.43 141.552 163.925 142.233C164.419 142.905 164.667 143.848 164.667 145.061C164.667 145.826 164.55 146.503 164.317 147.091C164.083 147.67 163.747 148.122 163.309 148.449C162.87 148.766 162.357 148.925 161.769 148.925C160.994 148.925 160.341 148.598 159.809 147.945L159.683 148.757H158.549V138.411L159.837 138.257V142.303C160.369 141.575 161.064 141.211 161.923 141.211ZM161.461 147.903C162.03 147.903 162.473 147.674 162.791 147.217C163.117 146.75 163.281 146.032 163.281 145.061C163.281 144.062 163.131 143.344 162.833 142.905C162.534 142.457 162.109 142.233 161.559 142.233C160.905 142.233 160.331 142.616 159.837 143.381V146.909C160.033 147.217 160.271 147.46 160.551 147.637C160.84 147.814 161.143 147.903 161.461 147.903ZM168.331 148.925C167.855 148.925 167.477 148.785 167.197 148.505C166.927 148.216 166.791 147.814 166.791 147.301V138.411L168.079 138.257V147.273C168.079 147.478 168.112 147.628 168.177 147.721C168.252 147.814 168.373 147.861 168.541 147.861C168.719 147.861 168.877 147.833 169.017 147.777L169.353 148.673C169.045 148.841 168.705 148.925 168.331 148.925ZM176.451 148.757H175.345L175.247 147.609C174.967 148.066 174.645 148.402 174.281 148.617C173.917 148.822 173.473 148.925 172.951 148.925C172.307 148.925 171.803 148.729 171.439 148.337C171.075 147.945 170.893 147.39 170.893 146.671V141.379H172.181V146.531C172.181 147.035 172.269 147.394 172.447 147.609C172.624 147.814 172.913 147.917 173.315 147.917C174.033 147.917 174.649 147.492 175.163 146.643V141.379H176.451V148.757ZM184.683 144.851C184.683 145.066 184.674 145.285 184.655 145.509H179.951C180.007 146.321 180.213 146.918 180.567 147.301C180.922 147.684 181.379 147.875 181.939 147.875C182.294 147.875 182.621 147.824 182.919 147.721C183.218 147.618 183.531 147.455 183.857 147.231L184.417 148.001C183.633 148.617 182.775 148.925 181.841 148.925C180.815 148.925 180.012 148.589 179.433 147.917C178.864 147.245 178.579 146.321 178.579 145.145C178.579 144.38 178.701 143.703 178.943 143.115C179.195 142.518 179.55 142.051 180.007 141.715C180.474 141.379 181.02 141.211 181.645 141.211C182.625 141.211 183.377 141.533 183.899 142.177C184.422 142.821 184.683 143.712 184.683 144.851ZM183.409 144.473C183.409 143.745 183.265 143.19 182.975 142.807C182.686 142.424 182.252 142.233 181.673 142.233C180.619 142.233 180.045 143.008 179.951 144.557H183.409V144.473ZM193.637 139.391V148.757H192.349V140.763L190.165 142.093L189.605 141.183L192.503 139.391H193.637ZM199.078 139.251C200.114 139.251 200.893 139.666 201.416 140.497C201.948 141.318 202.214 142.513 202.214 144.081C202.214 145.649 201.948 146.848 201.416 147.679C200.893 148.51 200.114 148.925 199.078 148.925C198.042 148.925 197.258 148.51 196.726 147.679C196.203 146.848 195.942 145.649 195.942 144.081C195.942 142.513 196.203 141.318 196.726 140.497C197.258 139.666 198.042 139.251 199.078 139.251ZM199.078 140.273C198.471 140.273 198.019 140.572 197.72 141.169C197.431 141.766 197.286 142.737 197.286 144.081C197.286 145.425 197.431 146.4 197.72 147.007C198.019 147.604 198.471 147.903 199.078 147.903C199.675 147.903 200.123 147.604 200.422 147.007C200.721 146.4 200.87 145.425 200.87 144.081C200.87 142.746 200.721 141.78 200.422 141.183C200.123 140.576 199.675 140.273 199.078 140.273ZM206.885 139.251C207.921 139.251 208.7 139.666 209.223 140.497C209.755 141.318 210.021 142.513 210.021 144.081C210.021 145.649 209.755 146.848 209.223 147.679C208.7 148.51 207.921 148.925 206.885 148.925C205.849 148.925 205.065 148.51 204.533 147.679C204.01 146.848 203.749 145.649 203.749 144.081C203.749 142.513 204.01 141.318 204.533 140.497C205.065 139.666 205.849 139.251 206.885 139.251ZM206.885 140.273C206.278 140.273 205.825 140.572 205.527 141.169C205.237 141.766 205.093 142.737 205.093 144.081C205.093 145.425 205.237 146.4 205.527 147.007C205.825 147.604 206.278 147.903 206.885 147.903C207.482 147.903 207.93 147.604 208.229 147.007C208.527 146.4 208.677 145.425 208.677 144.081C208.677 142.746 208.527 141.78 208.229 141.183C207.93 140.576 207.482 140.273 206.885 140.273ZM214.691 139.251C215.727 139.251 216.506 139.666 217.029 140.497C217.561 141.318 217.827 142.513 217.827 144.081C217.827 145.649 217.561 146.848 217.029 147.679C216.506 148.51 215.727 148.925 214.691 148.925C213.655 148.925 212.871 148.51 212.339 147.679C211.816 146.848 211.555 145.649 211.555 144.081C211.555 142.513 211.816 141.318 212.339 140.497C212.871 139.666 213.655 139.251 214.691 139.251ZM214.691 140.273C214.084 140.273 213.632 140.572 213.333 141.169C213.044 141.766 212.899 142.737 212.899 144.081C212.899 145.425 213.044 146.4 213.333 147.007C213.632 147.604 214.084 147.903 214.691 147.903C215.288 147.903 215.736 147.604 216.035 147.007C216.334 146.4 216.483 145.425 216.483 144.081C216.483 142.746 216.334 141.78 216.035 141.183C215.736 140.576 215.288 140.273 214.691 140.273Z" fill="#002033" fill-opacity="0.65"/>
<path d="M151.526 192.757C151.526 190.548 153.317 188.757 155.526 188.757H187.526C189.736 188.757 191.526 190.548 191.526 192.757V224.757C191.526 226.966 189.736 228.757 187.526 228.757H155.526C153.317 228.757 151.526 226.966 151.526 224.757V192.757Z" fill="#002033" fill-opacity="0.65"/>
<path d="M166.904 239.391V240.357L163.404 248.897L162.228 248.505L165.602 240.441H161.458V239.391H166.904ZM173.004 240.399H169.35V243.157C169.826 242.914 170.325 242.793 170.848 242.793C171.651 242.793 172.295 243.059 172.78 243.591C173.265 244.114 173.508 244.837 173.508 245.761C173.508 246.377 173.373 246.928 173.102 247.413C172.831 247.889 172.449 248.262 171.954 248.533C171.469 248.794 170.904 248.925 170.26 248.925C169.691 248.925 169.182 248.827 168.734 248.631C168.286 248.426 167.871 248.127 167.488 247.735L168.244 246.993C168.543 247.292 168.851 247.516 169.168 247.665C169.485 247.805 169.845 247.875 170.246 247.875C170.843 247.875 171.31 247.688 171.646 247.315C171.991 246.942 172.164 246.414 172.164 245.733C172.164 245.052 172.01 244.557 171.702 244.249C171.394 243.941 170.979 243.787 170.456 243.787C170.213 243.787 169.989 243.815 169.784 243.871C169.579 243.918 169.359 243.997 169.126 244.109H168.118V239.391H173.186L173.004 240.399ZM178.044 239.251C179.08 239.251 179.859 239.666 180.382 240.497C180.914 241.318 181.18 242.513 181.18 244.081C181.18 245.649 180.914 246.848 180.382 247.679C179.859 248.51 179.08 248.925 178.044 248.925C177.008 248.925 176.224 248.51 175.692 247.679C175.169 246.848 174.908 245.649 174.908 244.081C174.908 242.513 175.169 241.318 175.692 240.497C176.224 239.666 177.008 239.251 178.044 239.251ZM178.044 240.273C177.437 240.273 176.984 240.572 176.686 241.169C176.396 241.766 176.252 242.737 176.252 244.081C176.252 245.425 176.396 246.4 176.686 247.007C176.984 247.604 177.437 247.903 178.044 247.903C178.641 247.903 179.089 247.604 179.388 247.007C179.686 246.4 179.836 245.425 179.836 244.081C179.836 242.746 179.686 241.78 179.388 241.183C179.089 240.576 178.641 240.273 178.044 240.273Z" fill="#002033" fill-opacity="0.65"/>
<path d="M151.526 292.757C151.526 290.548 153.317 288.757 155.526 288.757H187.526C189.736 288.757 191.526 290.548 191.526 292.757V324.757C191.526 326.966 189.736 328.757 187.526 328.757H155.526C153.317 328.757 151.526 326.966 151.526 324.757V292.757Z" fill="#001724" fill-opacity="0.55"/>
<path d="M166.093 340.399H162.439V343.157C162.915 342.914 163.414 342.793 163.937 342.793C164.74 342.793 165.384 343.059 165.869 343.591C166.354 344.114 166.597 344.837 166.597 345.761C166.597 346.377 166.462 346.928 166.191 347.413C165.92 347.889 165.538 348.262 165.043 348.533C164.558 348.794 163.993 348.925 163.349 348.925C162.78 348.925 162.271 348.827 161.823 348.631C161.375 348.426 160.96 348.127 160.577 347.735L161.333 346.993C161.632 347.292 161.94 347.516 162.257 347.665C162.574 347.805 162.934 347.875 163.335 347.875C163.932 347.875 164.399 347.688 164.735 347.315C165.08 346.942 165.253 346.414 165.253 345.733C165.253 345.052 165.099 344.557 164.791 344.249C164.483 343.941 164.068 343.787 163.545 343.787C163.302 343.787 163.078 343.815 162.873 343.871C162.668 343.918 162.448 343.997 162.215 344.109H161.207V339.391H166.275L166.093 340.399ZM171.133 339.251C172.169 339.251 172.948 339.666 173.471 340.497C174.003 341.318 174.269 342.513 174.269 344.081C174.269 345.649 174.003 346.848 173.471 347.679C172.948 348.51 172.169 348.925 171.133 348.925C170.097 348.925 169.313 348.51 168.781 347.679C168.258 346.848 167.997 345.649 167.997 344.081C167.997 342.513 168.258 341.318 168.781 340.497C169.313 339.666 170.097 339.251 171.133 339.251ZM171.133 340.273C170.526 340.273 170.073 340.572 169.775 341.169C169.485 341.766 169.341 342.737 169.341 344.081C169.341 345.425 169.485 346.4 169.775 347.007C170.073 347.604 170.526 347.903 171.133 347.903C171.73 347.903 172.178 347.604 172.477 347.007C172.775 346.4 172.925 345.425 172.925 344.081C172.925 342.746 172.775 341.78 172.477 341.183C172.178 340.576 171.73 340.273 171.133 340.273ZM178.939 339.251C179.975 339.251 180.755 339.666 181.277 340.497C181.809 341.318 182.075 342.513 182.075 344.081C182.075 345.649 181.809 346.848 181.277 347.679C180.755 348.51 179.975 348.925 178.939 348.925C177.903 348.925 177.119 348.51 176.587 347.679C176.065 346.848 175.803 345.649 175.803 344.081C175.803 342.513 176.065 341.318 176.587 340.497C177.119 339.666 177.903 339.251 178.939 339.251ZM178.939 340.273C178.333 340.273 177.88 340.572 177.581 341.169C177.292 341.766 177.147 342.737 177.147 344.081C177.147 345.425 177.292 346.4 177.581 347.007C177.88 347.604 178.333 347.903 178.939 347.903C179.537 347.903 179.985 347.604 180.283 347.007C180.582 346.4 180.731 345.425 180.731 344.081C180.731 342.746 180.582 341.78 180.283 341.183C179.985 340.576 179.537 340.273 178.939 340.273Z" fill="#002033" fill-opacity="0.65"/>
<path d="M151.526 378.757C151.526 376.548 153.317 374.757 155.526 374.757H187.526C189.736 374.757 191.526 376.548 191.526 378.757V410.757C191.526 412.966 189.736 414.757 187.526 414.757H155.526C153.317 414.757 151.526 412.966 151.526 410.757V378.757Z" fill="#004166" fill-opacity="0.1"/>
<path d="M165.213 425.391V434.757H163.925V426.763L161.741 428.093L161.181 427.183L164.079 425.391H165.213ZM170.654 425.251C171.69 425.251 172.469 425.666 172.992 426.497C173.524 427.318 173.79 428.513 173.79 430.081C173.79 431.649 173.524 432.848 172.992 433.679C172.469 434.51 171.69 434.925 170.654 434.925C169.618 434.925 168.834 434.51 168.302 433.679C167.779 432.848 167.518 431.649 167.518 430.081C167.518 428.513 167.779 427.318 168.302 426.497C168.834 425.666 169.618 425.251 170.654 425.251ZM170.654 426.273C170.047 426.273 169.595 426.572 169.296 427.169C169.007 427.766 168.862 428.737 168.862 430.081C168.862 431.425 169.007 432.4 169.296 433.007C169.595 433.604 170.047 433.903 170.654 433.903C171.251 433.903 171.699 433.604 171.998 433.007C172.297 432.4 172.446 431.425 172.446 430.081C172.446 428.746 172.297 427.78 171.998 427.183C171.699 426.576 171.251 426.273 170.654 426.273ZM178.461 425.251C179.497 425.251 180.276 425.666 180.799 426.497C181.331 427.318 181.597 428.513 181.597 430.081C181.597 431.649 181.331 432.848 180.799 433.679C180.276 434.51 179.497 434.925 178.461 434.925C177.425 434.925 176.641 434.51 176.109 433.679C175.586 432.848 175.325 431.649 175.325 430.081C175.325 428.513 175.586 427.318 176.109 426.497C176.641 425.666 177.425 425.251 178.461 425.251ZM178.461 426.273C177.854 426.273 177.401 426.572 177.103 427.169C176.813 427.766 176.669 428.737 176.669 430.081C176.669 431.425 176.813 432.4 177.103 433.007C177.401 433.604 177.854 433.903 178.461 433.903C179.058 433.903 179.506 433.604 179.805 433.007C180.103 432.4 180.253 431.425 180.253 430.081C180.253 428.746 180.103 427.78 179.805 427.183C179.506 426.576 179.058 426.273 178.461 426.273Z" fill="#002033" fill-opacity="0.65"/>
<path d="M151.526 464.757C151.526 462.548 153.317 460.757 155.526 460.757H187.526C189.736 460.757 191.526 462.548 191.526 464.757V496.757C191.526 498.966 189.736 500.757 187.526 500.757H155.526C153.317 500.757 151.526 498.966 151.526 496.757V464.757Z" fill="#005180" fill-opacity="0.04"/>
<path d="M152.026 464.757C152.026 462.824 153.593 461.257 155.526 461.257H187.526C189.459 461.257 191.026 462.824 191.026 464.757V496.757C191.026 498.69 189.459 500.257 187.526 500.257H155.526C153.593 500.257 152.026 498.69 152.026 496.757V464.757Z" stroke="#004166" stroke-opacity="0.1"/>
<path d="M169.996 512.399H166.342V515.157C166.818 514.914 167.318 514.793 167.84 514.793C168.643 514.793 169.287 515.059 169.772 515.591C170.258 516.114 170.5 516.837 170.5 517.761C170.5 518.377 170.365 518.928 170.094 519.413C169.824 519.889 169.441 520.262 168.946 520.533C168.461 520.794 167.896 520.925 167.252 520.925C166.683 520.925 166.174 520.827 165.726 520.631C165.278 520.426 164.863 520.127 164.48 519.735L165.236 518.993C165.535 519.292 165.843 519.516 166.16 519.665C166.478 519.805 166.837 519.875 167.238 519.875C167.836 519.875 168.302 519.688 168.638 519.315C168.984 518.942 169.156 518.414 169.156 517.733C169.156 517.052 169.002 516.557 168.694 516.249C168.386 515.941 167.971 515.787 167.448 515.787C167.206 515.787 166.982 515.815 166.776 515.871C166.571 515.918 166.352 515.997 166.118 516.109H165.11V511.391H170.178L169.996 512.399ZM175.036 511.251C176.072 511.251 176.851 511.666 177.374 512.497C177.906 513.318 178.172 514.513 178.172 516.081C178.172 517.649 177.906 518.848 177.374 519.679C176.851 520.51 176.072 520.925 175.036 520.925C174 520.925 173.216 520.51 172.684 519.679C172.161 518.848 171.9 517.649 171.9 516.081C171.9 514.513 172.161 513.318 172.684 512.497C173.216 511.666 174 511.251 175.036 511.251ZM175.036 512.273C174.429 512.273 173.977 512.572 173.678 513.169C173.389 513.766 173.244 514.737 173.244 516.081C173.244 517.425 173.389 518.4 173.678 519.007C173.977 519.604 174.429 519.903 175.036 519.903C175.633 519.903 176.081 519.604 176.38 519.007C176.679 518.4 176.828 517.425 176.828 516.081C176.828 514.746 176.679 513.78 176.38 513.183C176.081 512.576 175.633 512.273 175.036 512.273Z" fill="#002033" fill-opacity="0.65"/>
<path d="M151.526 550.757C151.526 548.548 153.317 546.757 155.526 546.757H187.526C189.736 546.757 191.526 548.548 191.526 550.757V582.757C191.526 584.966 189.736 586.757 187.526 586.757H155.526C153.317 586.757 151.526 584.966 151.526 582.757V550.757Z" fill="#005180" fill-opacity="0.02"/>
<path d="M152.026 550.757C152.026 548.824 153.593 547.257 155.526 547.257H187.526C189.459 547.257 191.026 548.824 191.026 550.757V582.757C191.026 584.69 189.459 586.257 187.526 586.257H155.526C153.593 586.257 152.026 584.69 152.026 582.757V550.757Z" stroke="#004166" stroke-opacity="0.1"/>
<path d="M167.349 597.251C167.909 597.251 168.399 597.363 168.819 597.587C169.249 597.811 169.58 598.119 169.813 598.511C170.047 598.894 170.163 599.328 170.163 599.813C170.163 600.382 170.033 600.928 169.771 601.451C169.519 601.974 169.127 602.538 168.595 603.145C168.063 603.752 167.256 604.596 166.173 605.679H170.387L170.233 606.757H164.703V605.735C165.954 604.438 166.841 603.49 167.363 602.893C167.886 602.286 168.259 601.759 168.483 601.311C168.707 600.863 168.819 600.382 168.819 599.869C168.819 599.384 168.679 599.006 168.399 598.735C168.119 598.455 167.746 598.315 167.279 598.315C166.897 598.315 166.561 598.394 166.271 598.553C165.982 598.712 165.674 598.973 165.347 599.337L164.507 598.665C164.89 598.189 165.315 597.834 165.781 597.601C166.248 597.368 166.771 597.251 167.349 597.251ZM174.995 597.251C176.031 597.251 176.81 597.666 177.333 598.497C177.865 599.318 178.131 600.513 178.131 602.081C178.131 603.649 177.865 604.848 177.333 605.679C176.81 606.51 176.031 606.925 174.995 606.925C173.959 606.925 173.175 606.51 172.643 605.679C172.12 604.848 171.859 603.649 171.859 602.081C171.859 600.513 172.12 599.318 172.643 598.497C173.175 597.666 173.959 597.251 174.995 597.251ZM174.995 598.273C174.388 598.273 173.936 598.572 173.637 599.169C173.348 599.766 173.203 600.737 173.203 602.081C173.203 603.425 173.348 604.4 173.637 605.007C173.936 605.604 174.388 605.903 174.995 605.903C175.592 605.903 176.04 605.604 176.339 605.007C176.638 604.4 176.787 603.425 176.787 602.081C176.787 600.746 176.638 599.78 176.339 599.183C176.04 598.576 175.592 598.273 174.995 598.273Z" fill="#002033" fill-opacity="0.65"/>
<path d="M240.43 45.7331C242.094 45.7331 243.428 46.1224 244.43 46.9011C245.444 47.6691 245.95 49.0984 245.95 51.1891C245.95 53.2264 245.444 54.6664 244.43 55.5091C243.428 56.3411 242.206 56.7571 240.766 56.7571H238.126V45.7331H240.43ZM239.646 46.9491V55.5571H240.878C241.902 55.5571 242.734 55.2424 243.374 54.6131C244.014 53.9837 244.334 52.8424 244.334 51.1891C244.334 50.0264 244.169 49.1357 243.838 48.5171C243.508 47.8877 243.086 47.4717 242.574 47.2691C242.062 47.0557 241.46 46.9491 240.766 46.9491H239.646ZM253.867 54.7891C253.867 55.1304 253.926 55.3864 254.043 55.5571C254.16 55.7171 254.336 55.8397 254.571 55.9251L254.235 56.9491C253.798 56.8957 253.446 56.7731 253.179 56.5811C252.912 56.3891 252.715 56.0904 252.587 55.6851C252.022 56.5277 251.184 56.9491 250.075 56.9491C249.243 56.9491 248.587 56.7144 248.107 56.2451C247.627 55.7757 247.387 55.1624 247.387 54.4051C247.387 53.5091 247.707 52.8211 248.347 52.3411C248.998 51.8611 249.915 51.6211 251.099 51.6211H252.395V50.9971C252.395 50.3997 252.251 49.9731 251.963 49.7171C251.675 49.4611 251.232 49.3331 250.635 49.3331C250.016 49.3331 249.259 49.4824 248.363 49.7811L247.995 48.7091C249.04 48.3251 250.011 48.1331 250.907 48.1331C251.899 48.1331 252.64 48.3784 253.131 48.8691C253.622 49.3491 253.867 50.0371 253.867 50.9331V54.7891ZM250.411 55.8451C251.254 55.8451 251.915 55.4077 252.395 54.5331V52.5971H251.291C249.734 52.5971 248.955 53.1731 248.955 54.3251C248.955 54.8264 249.078 55.2051 249.323 55.4611C249.568 55.7171 249.931 55.8451 250.411 55.8451ZM260.554 48.1331C260.853 48.1331 261.13 48.1651 261.386 48.2291L261.114 49.6691C260.858 49.6051 260.613 49.5731 260.378 49.5731C259.855 49.5731 259.434 49.7651 259.114 50.1491C258.794 50.5331 258.543 51.1304 258.362 51.9411V56.7571H256.89V48.3251H258.154L258.298 50.0371C258.522 49.4077 258.826 48.9331 259.21 48.6131C259.594 48.2931 260.042 48.1331 260.554 48.1331ZM264.534 44.7571V56.7571H263.062V44.9331L264.534 44.7571ZM269.382 48.3251L266.278 52.0531L269.734 56.7571H267.974L264.63 52.1491L267.734 48.3251H269.382ZM279.74 56.3731C279.185 56.7571 278.556 56.9491 277.852 56.9491C277.137 56.9491 276.577 56.7464 276.172 56.3411C275.777 55.9251 275.58 55.3277 275.58 54.5491V49.4611H274.108V48.3251H275.58V46.4211L277.052 46.2451V48.3251H279.052L278.892 49.4611H277.052V54.4851C277.052 54.9224 277.127 55.2424 277.276 55.4451C277.436 55.6371 277.697 55.7331 278.06 55.7331C278.391 55.7331 278.764 55.6211 279.18 55.3971L279.74 56.3731ZM285.233 48.1331C286.001 48.1331 286.598 48.3624 287.025 48.8211C287.462 49.2797 287.681 49.9091 287.681 50.7091V56.7571H286.209V50.9171C286.209 50.3197 286.092 49.8984 285.857 49.6531C285.633 49.4077 285.302 49.2851 284.865 49.2851C284.428 49.2851 284.038 49.4131 283.697 49.6691C283.356 49.9251 283.036 50.2877 282.737 50.7571V56.7571H281.265V44.9491L282.737 44.7891V49.4931C283.398 48.5864 284.23 48.1331 285.233 48.1331ZM297.008 52.2931C297.008 52.5384 296.997 52.7891 296.976 53.0451H291.6C291.664 53.9731 291.899 54.6557 292.304 55.0931C292.709 55.5304 293.232 55.7491 293.872 55.7491C294.277 55.7491 294.651 55.6904 294.992 55.5731C295.333 55.4557 295.691 55.2691 296.064 55.0131L296.704 55.8931C295.808 56.5971 294.827 56.9491 293.76 56.9491C292.587 56.9491 291.669 56.5651 291.008 55.7971C290.357 55.0291 290.032 53.9731 290.032 52.6291C290.032 51.7544 290.171 50.9811 290.448 50.3091C290.736 49.6264 291.141 49.0931 291.664 48.7091C292.197 48.3251 292.821 48.1331 293.536 48.1331C294.656 48.1331 295.515 48.5011 296.112 49.2371C296.709 49.9731 297.008 50.9917 297.008 52.2931ZM295.552 51.8611C295.552 51.0291 295.387 50.3944 295.056 49.9571C294.725 49.5197 294.229 49.3011 293.568 49.3011C292.363 49.3011 291.707 50.1864 291.6 51.9571H295.552V51.8611ZM307.823 48.1331C308.516 48.1331 309.071 48.3677 309.487 48.8371C309.903 49.2957 310.111 49.9197 310.111 50.7091V56.7571H308.639V50.9171C308.639 49.8291 308.244 49.2851 307.455 49.2851C307.039 49.2851 306.687 49.4077 306.399 49.6531C306.111 49.8877 305.802 50.2611 305.471 50.7731V56.7571H303.999V50.9171C303.999 49.8291 303.604 49.2851 302.815 49.2851C302.388 49.2851 302.031 49.4077 301.743 49.6531C301.455 49.8984 301.151 50.2717 300.831 50.7731V56.7571H299.359V48.3251H300.623L300.751 49.5571C301.38 48.6077 302.191 48.1331 303.183 48.1331C303.706 48.1331 304.148 48.2664 304.511 48.5331C304.884 48.7997 305.151 49.1731 305.311 49.6531C305.642 49.1624 306.004 48.7891 306.399 48.5331C306.804 48.2664 307.279 48.1331 307.823 48.1331ZM319.446 52.2931C319.446 52.5384 319.435 52.7891 319.414 53.0451H314.038C314.102 53.9731 314.336 54.6557 314.742 55.0931C315.147 55.5304 315.67 55.7491 316.31 55.7491C316.715 55.7491 317.088 55.6904 317.43 55.5731C317.771 55.4557 318.128 55.2691 318.502 55.0131L319.142 55.8931C318.246 56.5971 317.264 56.9491 316.198 56.9491C315.024 56.9491 314.107 56.5651 313.446 55.7971C312.795 55.0291 312.47 53.9731 312.47 52.6291C312.47 51.7544 312.608 50.9811 312.886 50.3091C313.174 49.6264 313.579 49.0931 314.102 48.7091C314.635 48.3251 315.259 48.1331 315.974 48.1331C317.094 48.1331 317.952 48.5011 318.55 49.2371C319.147 49.9731 319.446 50.9917 319.446 52.2931ZM317.99 51.8611C317.99 51.0291 317.824 50.3944 317.494 49.9571C317.163 49.5197 316.667 49.3011 316.006 49.3011C314.8 49.3011 314.144 50.1864 314.038 51.9571H317.99V51.8611Z" fill="#001826" fill-opacity="0.9"/>
<path d="M264.026 92.7571C264.026 90.5479 265.817 88.7571 268.026 88.7571H300.026C302.236 88.7571 304.026 90.5479 304.026 92.7571V124.757C304.026 126.966 302.236 128.757 300.026 128.757H268.026C265.817 128.757 264.026 126.966 264.026 124.757V92.7571Z" fill="white"/>
<path d="M264.526 92.7571C264.526 90.8241 266.093 89.2571 268.026 89.2571H300.026C301.959 89.2571 303.526 90.8241 303.526 92.7571V124.757C303.526 126.69 301.959 128.257 300.026 128.257H268.026C266.093 128.257 264.526 126.69 264.526 124.757V92.7571Z" stroke="#004166" stroke-opacity="0.1"/>
<path d="M239.226 139.111V147.595H243.188L243.034 148.757H237.896V139.111H239.226ZM246.087 141.379V148.757H244.799V141.379H246.087ZM245.429 137.837C245.699 137.837 245.919 137.921 246.087 138.089C246.255 138.257 246.339 138.467 246.339 138.719C246.339 138.971 246.255 139.181 246.087 139.349C245.919 139.508 245.699 139.587 245.429 139.587C245.167 139.587 244.953 139.508 244.785 139.349C244.617 139.181 244.533 138.971 244.533 138.719C244.533 138.467 244.617 138.257 244.785 138.089C244.953 137.921 245.167 137.837 245.429 137.837ZM254.7 141.715C254.42 141.808 254.112 141.869 253.776 141.897C253.44 141.925 253.029 141.939 252.544 141.939C253.412 142.331 253.846 142.952 253.846 143.801C253.846 144.538 253.594 145.14 253.09 145.607C252.586 146.074 251.9 146.307 251.032 146.307C250.696 146.307 250.383 146.26 250.094 146.167C249.982 146.242 249.893 146.344 249.828 146.475C249.763 146.596 249.73 146.722 249.73 146.853C249.73 147.254 250.052 147.455 250.696 147.455H251.872C252.367 147.455 252.805 147.544 253.188 147.721C253.571 147.898 253.865 148.141 254.07 148.449C254.285 148.757 254.392 149.107 254.392 149.499C254.392 150.218 254.098 150.768 253.51 151.151C252.922 151.543 252.063 151.739 250.934 151.739C250.141 151.739 249.511 151.655 249.044 151.487C248.587 151.328 248.26 151.086 248.064 150.759C247.868 150.432 247.77 150.012 247.77 149.499H248.932C248.932 149.798 248.988 150.031 249.1 150.199C249.212 150.376 249.413 150.507 249.702 150.591C249.991 150.684 250.402 150.731 250.934 150.731C251.709 150.731 252.259 150.633 252.586 150.437C252.922 150.25 253.09 149.966 253.09 149.583C253.09 149.238 252.959 148.976 252.698 148.799C252.437 148.622 252.073 148.533 251.606 148.533H250.444C249.819 148.533 249.343 148.402 249.016 148.141C248.699 147.87 248.54 147.534 248.54 147.133C248.54 146.89 248.61 146.657 248.75 146.433C248.89 146.209 249.091 146.008 249.352 145.831C248.923 145.607 248.605 145.332 248.4 145.005C248.204 144.669 248.106 144.263 248.106 143.787C248.106 143.292 248.227 142.849 248.47 142.457C248.722 142.065 249.063 141.762 249.492 141.547C249.931 141.323 250.416 141.211 250.948 141.211C251.527 141.22 252.012 141.202 252.404 141.155C252.796 141.099 253.118 141.029 253.37 140.945C253.631 140.852 253.949 140.721 254.322 140.553L254.7 141.715ZM250.948 142.135C250.463 142.135 250.085 142.289 249.814 142.597C249.553 142.896 249.422 143.292 249.422 143.787C249.422 144.291 249.557 144.697 249.828 145.005C250.099 145.304 250.481 145.453 250.976 145.453C251.48 145.453 251.863 145.308 252.124 145.019C252.395 144.72 252.53 144.305 252.53 143.773C252.53 142.681 252.003 142.135 250.948 142.135ZM259.495 141.211C260.167 141.211 260.69 141.412 261.063 141.813C261.446 142.214 261.637 142.765 261.637 143.465V148.757H260.349V143.647C260.349 143.124 260.247 142.756 260.041 142.541C259.845 142.326 259.556 142.219 259.173 142.219C258.791 142.219 258.45 142.331 258.151 142.555C257.853 142.779 257.573 143.096 257.311 143.507V148.757H256.023V138.425L257.311 138.285V142.401C257.89 141.608 258.618 141.211 259.495 141.211ZM267.95 148.421C267.465 148.757 266.914 148.925 266.298 148.925C265.673 148.925 265.183 148.748 264.828 148.393C264.483 148.029 264.31 147.506 264.31 146.825V142.373H263.022V141.379H264.31V139.713L265.598 139.559V141.379H267.348L267.208 142.373H265.598V146.769C265.598 147.152 265.664 147.432 265.794 147.609C265.934 147.777 266.163 147.861 266.48 147.861C266.77 147.861 267.096 147.763 267.46 147.567L267.95 148.421ZM278.94 141.715C278.66 141.808 278.352 141.869 278.016 141.897C277.68 141.925 277.269 141.939 276.784 141.939C277.652 142.331 278.086 142.952 278.086 143.801C278.086 144.538 277.834 145.14 277.33 145.607C276.826 146.074 276.14 146.307 275.272 146.307C274.936 146.307 274.623 146.26 274.334 146.167C274.222 146.242 274.133 146.344 274.068 146.475C274.003 146.596 273.97 146.722 273.97 146.853C273.97 147.254 274.292 147.455 274.936 147.455H276.112C276.607 147.455 277.045 147.544 277.428 147.721C277.811 147.898 278.105 148.141 278.31 148.449C278.525 148.757 278.632 149.107 278.632 149.499C278.632 150.218 278.338 150.768 277.75 151.151C277.162 151.543 276.303 151.739 275.174 151.739C274.381 151.739 273.751 151.655 273.284 151.487C272.827 151.328 272.5 151.086 272.304 150.759C272.108 150.432 272.01 150.012 272.01 149.499H273.172C273.172 149.798 273.228 150.031 273.34 150.199C273.452 150.376 273.653 150.507 273.942 150.591C274.231 150.684 274.642 150.731 275.174 150.731C275.949 150.731 276.499 150.633 276.826 150.437C277.162 150.25 277.33 149.966 277.33 149.583C277.33 149.238 277.199 148.976 276.938 148.799C276.677 148.622 276.313 148.533 275.846 148.533H274.684C274.059 148.533 273.583 148.402 273.256 148.141C272.939 147.87 272.78 147.534 272.78 147.133C272.78 146.89 272.85 146.657 272.99 146.433C273.13 146.209 273.331 146.008 273.592 145.831C273.163 145.607 272.845 145.332 272.64 145.005C272.444 144.669 272.346 144.263 272.346 143.787C272.346 143.292 272.467 142.849 272.71 142.457C272.962 142.065 273.303 141.762 273.732 141.547C274.171 141.323 274.656 141.211 275.188 141.211C275.767 141.22 276.252 141.202 276.644 141.155C277.036 141.099 277.358 141.029 277.61 140.945C277.871 140.852 278.189 140.721 278.562 140.553L278.94 141.715ZM275.188 142.135C274.703 142.135 274.325 142.289 274.054 142.597C273.793 142.896 273.662 143.292 273.662 143.787C273.662 144.291 273.797 144.697 274.068 145.005C274.339 145.304 274.721 145.453 275.216 145.453C275.72 145.453 276.103 145.308 276.364 145.019C276.635 144.72 276.77 144.305 276.77 143.773C276.77 142.681 276.243 142.135 275.188 142.135ZM283.47 141.211C283.731 141.211 283.974 141.239 284.198 141.295L283.96 142.555C283.736 142.499 283.521 142.471 283.316 142.471C282.858 142.471 282.49 142.639 282.21 142.975C281.93 143.311 281.71 143.834 281.552 144.543V148.757H280.264V141.379H281.37L281.496 142.877C281.692 142.326 281.958 141.911 282.294 141.631C282.63 141.351 283.022 141.211 283.47 141.211ZM290.812 144.851C290.812 145.066 290.803 145.285 290.784 145.509H286.08C286.136 146.321 286.341 146.918 286.696 147.301C287.051 147.684 287.508 147.875 288.068 147.875C288.423 147.875 288.749 147.824 289.048 147.721C289.347 147.618 289.659 147.455 289.986 147.231L290.546 148.001C289.762 148.617 288.903 148.925 287.97 148.925C286.943 148.925 286.141 148.589 285.562 147.917C284.993 147.245 284.708 146.321 284.708 145.145C284.708 144.38 284.829 143.703 285.072 143.115C285.324 142.518 285.679 142.051 286.136 141.715C286.603 141.379 287.149 141.211 287.774 141.211C288.754 141.211 289.505 141.533 290.028 142.177C290.551 142.821 290.812 143.712 290.812 144.851ZM289.538 144.473C289.538 143.745 289.393 143.19 289.104 142.807C288.815 142.424 288.381 142.233 287.802 142.233C286.747 142.233 286.173 143.008 286.08 144.557H289.538V144.473ZM295.768 148.799C295.479 149.658 295.073 150.334 294.55 150.829C294.037 151.333 293.3 151.636 292.338 151.739L292.198 150.731C292.684 150.647 293.071 150.526 293.36 150.367C293.65 150.208 293.878 150.003 294.046 149.751C294.224 149.508 294.387 149.177 294.536 148.757H294.102L291.624 141.379H292.996L294.97 147.819L296.902 141.379H298.232L295.768 148.799ZM306.602 139.391V148.757H305.314V140.763L303.13 142.093L302.57 141.183L305.468 139.391H306.602ZM312.043 139.251C313.079 139.251 313.858 139.666 314.381 140.497C314.913 141.318 315.179 142.513 315.179 144.081C315.179 145.649 314.913 146.848 314.381 147.679C313.858 148.51 313.079 148.925 312.043 148.925C311.007 148.925 310.223 148.51 309.691 147.679C309.168 146.848 308.907 145.649 308.907 144.081C308.907 142.513 309.168 141.318 309.691 140.497C310.223 139.666 311.007 139.251 312.043 139.251ZM312.043 140.273C311.436 140.273 310.983 140.572 310.685 141.169C310.395 141.766 310.251 142.737 310.251 144.081C310.251 145.425 310.395 146.4 310.685 147.007C310.983 147.604 311.436 147.903 312.043 147.903C312.64 147.903 313.088 147.604 313.387 147.007C313.685 146.4 313.835 145.425 313.835 144.081C313.835 142.746 313.685 141.78 313.387 141.183C313.088 140.576 312.64 140.273 312.043 140.273ZM319.849 139.251C320.885 139.251 321.665 139.666 322.187 140.497C322.719 141.318 322.985 142.513 322.985 144.081C322.985 145.649 322.719 146.848 322.187 147.679C321.665 148.51 320.885 148.925 319.849 148.925C318.813 148.925 318.029 148.51 317.497 147.679C316.975 146.848 316.713 145.649 316.713 144.081C316.713 142.513 316.975 141.318 317.497 140.497C318.029 139.666 318.813 139.251 319.849 139.251ZM319.849 140.273C319.243 140.273 318.79 140.572 318.491 141.169C318.202 141.766 318.057 142.737 318.057 144.081C318.057 145.425 318.202 146.4 318.491 147.007C318.79 147.604 319.243 147.903 319.849 147.903C320.447 147.903 320.895 147.604 321.193 147.007C321.492 146.4 321.641 145.425 321.641 144.081C321.641 142.746 321.492 141.78 321.193 141.183C320.895 140.576 320.447 140.273 319.849 140.273ZM327.656 139.251C328.692 139.251 329.471 139.666 329.994 140.497C330.526 141.318 330.792 142.513 330.792 144.081C330.792 145.649 330.526 146.848 329.994 147.679C329.471 148.51 328.692 148.925 327.656 148.925C326.62 148.925 325.836 148.51 325.304 147.679C324.781 146.848 324.52 145.649 324.52 144.081C324.52 142.513 324.781 141.318 325.304 140.497C325.836 139.666 326.62 139.251 327.656 139.251ZM327.656 140.273C327.049 140.273 326.597 140.572 326.298 141.169C326.009 141.766 325.864 142.737 325.864 144.081C325.864 145.425 326.009 146.4 326.298 147.007C326.597 147.604 327.049 147.903 327.656 147.903C328.253 147.903 328.701 147.604 329 147.007C329.299 146.4 329.448 145.425 329.448 144.081C329.448 142.746 329.299 141.78 329 141.183C328.701 140.576 328.253 140.273 327.656 140.273Z" fill="#002033" fill-opacity="0.65"/>
<path d="M264.026 192.757C264.026 190.548 265.817 188.757 268.026 188.757H300.026C302.236 188.757 304.026 190.548 304.026 192.757V224.757C304.026 226.966 302.236 228.757 300.026 228.757H268.026C265.817 228.757 264.026 226.966 264.026 224.757V192.757Z" fill="white" fill-opacity="0.78"/>
<path d="M264.526 192.757C264.526 190.824 266.093 189.257 268.026 189.257H300.026C301.959 189.257 303.526 190.824 303.526 192.757V224.757C303.526 226.69 301.959 228.257 300.026 228.257H268.026C266.093 228.257 264.526 226.69 264.526 224.757V192.757Z" stroke="#004166" stroke-opacity="0.1"/>
<path d="M278.987 239.391V240.357L275.487 248.897L274.311 248.505L277.685 240.441H273.541V239.391H278.987ZM283.154 239.251C284.19 239.251 284.969 239.666 285.492 240.497C286.024 241.318 286.29 242.513 286.29 244.081C286.29 245.649 286.024 246.848 285.492 247.679C284.969 248.51 284.19 248.925 283.154 248.925C282.118 248.925 281.334 248.51 280.802 247.679C280.279 246.848 280.018 245.649 280.018 244.081C280.018 242.513 280.279 241.318 280.802 240.497C281.334 239.666 282.118 239.251 283.154 239.251ZM283.154 240.273C282.547 240.273 282.095 240.572 281.796 241.169C281.507 241.766 281.362 242.737 281.362 244.081C281.362 245.425 281.507 246.4 281.796 247.007C282.095 247.604 282.547 247.903 283.154 247.903C283.751 247.903 284.199 247.604 284.498 247.007C284.797 246.4 284.946 245.425 284.946 244.081C284.946 242.746 284.797 241.78 284.498 241.183C284.199 240.576 283.751 240.273 283.154 240.273ZM290.961 239.251C291.997 239.251 292.776 239.666 293.299 240.497C293.831 241.318 294.097 242.513 294.097 244.081C294.097 245.649 293.831 246.848 293.299 247.679C292.776 248.51 291.997 248.925 290.961 248.925C289.925 248.925 289.141 248.51 288.609 247.679C288.086 246.848 287.825 245.649 287.825 244.081C287.825 242.513 288.086 241.318 288.609 240.497C289.141 239.666 289.925 239.251 290.961 239.251ZM290.961 240.273C290.354 240.273 289.901 240.572 289.603 241.169C289.313 241.766 289.169 242.737 289.169 244.081C289.169 245.425 289.313 246.4 289.603 247.007C289.901 247.604 290.354 247.903 290.961 247.903C291.558 247.903 292.006 247.604 292.305 247.007C292.603 246.4 292.753 245.425 292.753 244.081C292.753 242.746 292.603 241.78 292.305 241.183C292.006 240.576 291.558 240.273 290.961 240.273Z" fill="#002033" fill-opacity="0.65"/>
<path d="M264.026 278.757C264.026 276.548 265.817 274.757 268.026 274.757H300.026C302.236 274.757 304.026 276.548 304.026 278.757V310.757C304.026 312.966 302.236 314.757 300.026 314.757H268.026C265.817 314.757 264.026 312.966 264.026 310.757V278.757Z" fill="white" fill-opacity="0.6"/>
<path d="M264.526 278.757C264.526 276.824 266.093 275.257 268.026 275.257H300.026C301.959 275.257 303.526 276.824 303.526 278.757V310.757C303.526 312.69 301.959 314.257 300.026 314.257H268.026C266.093 314.257 264.526 312.69 264.526 310.757V278.757Z" stroke="#004166" stroke-opacity="0.1"/>
<path d="M278.593 326.399H274.939V329.157C275.415 328.914 275.914 328.793 276.437 328.793C277.24 328.793 277.884 329.059 278.369 329.591C278.854 330.114 279.097 330.837 279.097 331.761C279.097 332.377 278.962 332.928 278.691 333.413C278.42 333.889 278.038 334.262 277.543 334.533C277.058 334.794 276.493 334.925 275.849 334.925C275.28 334.925 274.771 334.827 274.323 334.631C273.875 334.426 273.46 334.127 273.077 333.735L273.833 332.993C274.132 333.292 274.44 333.516 274.757 333.665C275.074 333.805 275.434 333.875 275.835 333.875C276.432 333.875 276.899 333.688 277.235 333.315C277.58 332.942 277.753 332.414 277.753 331.733C277.753 331.052 277.599 330.557 277.291 330.249C276.983 329.941 276.568 329.787 276.045 329.787C275.802 329.787 275.578 329.815 275.373 329.871C275.168 329.918 274.948 329.997 274.715 330.109H273.707V325.391H278.775L278.593 326.399ZM283.633 325.251C284.669 325.251 285.448 325.666 285.971 326.497C286.503 327.318 286.769 328.513 286.769 330.081C286.769 331.649 286.503 332.848 285.971 333.679C285.448 334.51 284.669 334.925 283.633 334.925C282.597 334.925 281.813 334.51 281.281 333.679C280.758 332.848 280.497 331.649 280.497 330.081C280.497 328.513 280.758 327.318 281.281 326.497C281.813 325.666 282.597 325.251 283.633 325.251ZM283.633 326.273C283.026 326.273 282.573 326.572 282.275 327.169C281.985 327.766 281.841 328.737 281.841 330.081C281.841 331.425 281.985 332.4 282.275 333.007C282.573 333.604 283.026 333.903 283.633 333.903C284.23 333.903 284.678 333.604 284.977 333.007C285.275 332.4 285.425 331.425 285.425 330.081C285.425 328.746 285.275 327.78 284.977 327.183C284.678 326.576 284.23 326.273 283.633 326.273ZM291.439 325.251C292.475 325.251 293.255 325.666 293.777 326.497C294.309 327.318 294.575 328.513 294.575 330.081C294.575 331.649 294.309 332.848 293.777 333.679C293.255 334.51 292.475 334.925 291.439 334.925C290.403 334.925 289.619 334.51 289.087 333.679C288.565 332.848 288.303 331.649 288.303 330.081C288.303 328.513 288.565 327.318 289.087 326.497C289.619 325.666 290.403 325.251 291.439 325.251ZM291.439 326.273C290.833 326.273 290.38 326.572 290.081 327.169C289.792 327.766 289.647 328.737 289.647 330.081C289.647 331.425 289.792 332.4 290.081 333.007C290.38 333.604 290.833 333.903 291.439 333.903C292.037 333.903 292.485 333.604 292.783 333.007C293.082 332.4 293.231 331.425 293.231 330.081C293.231 328.746 293.082 327.78 292.783 327.183C292.485 326.576 292.037 326.273 291.439 326.273Z" fill="#002033" fill-opacity="0.65"/>
<path d="M264.026 364.757C264.026 362.548 265.817 360.757 268.026 360.757H300.026C302.236 360.757 304.026 362.548 304.026 364.757V396.757C304.026 398.966 302.236 400.757 300.026 400.757H268.026C265.817 400.757 264.026 398.966 264.026 396.757V364.757Z" fill="white" fill-opacity="0.2"/>
<path d="M264.526 364.757C264.526 362.824 266.093 361.257 268.026 361.257H300.026C301.959 361.257 303.526 362.824 303.526 364.757V396.757C303.526 398.69 301.959 400.257 300.026 400.257H268.026C266.093 400.257 264.526 398.69 264.526 396.757V364.757Z" stroke="#004166" stroke-opacity="0.1"/>
<path d="M275.946 411.251C276.506 411.251 276.996 411.363 277.416 411.587C277.845 411.811 278.177 412.119 278.41 412.511C278.643 412.894 278.76 413.328 278.76 413.813C278.76 414.382 278.629 414.928 278.368 415.451C278.116 415.974 277.724 416.538 277.192 417.145C276.66 417.752 275.853 418.596 274.77 419.679H278.984L278.83 420.757H273.3V419.735C274.551 418.438 275.437 417.49 275.96 416.893C276.483 416.286 276.856 415.759 277.08 415.311C277.304 414.863 277.416 414.382 277.416 413.869C277.416 413.384 277.276 413.006 276.996 412.735C276.716 412.455 276.343 412.315 275.876 412.315C275.493 412.315 275.157 412.394 274.868 412.553C274.579 412.712 274.271 412.973 273.944 413.337L273.104 412.665C273.487 412.189 273.911 411.834 274.378 411.601C274.845 411.368 275.367 411.251 275.946 411.251ZM283.592 411.251C284.628 411.251 285.407 411.666 285.93 412.497C286.462 413.318 286.728 414.513 286.728 416.081C286.728 417.649 286.462 418.848 285.93 419.679C285.407 420.51 284.628 420.925 283.592 420.925C282.556 420.925 281.772 420.51 281.24 419.679C280.717 418.848 280.456 417.649 280.456 416.081C280.456 414.513 280.717 413.318 281.24 412.497C281.772 411.666 282.556 411.251 283.592 411.251ZM283.592 412.273C282.985 412.273 282.532 412.572 282.234 413.169C281.944 413.766 281.8 414.737 281.8 416.081C281.8 417.425 281.944 418.4 282.234 419.007C282.532 419.604 282.985 419.903 283.592 419.903C284.189 419.903 284.637 419.604 284.936 419.007C285.234 418.4 285.384 417.425 285.384 416.081C285.384 414.746 285.234 413.78 284.936 413.183C284.637 412.576 284.189 412.273 283.592 412.273ZM291.398 411.251C292.434 411.251 293.214 411.666 293.736 412.497C294.268 413.318 294.534 414.513 294.534 416.081C294.534 417.649 294.268 418.848 293.736 419.679C293.214 420.51 292.434 420.925 291.398 420.925C290.362 420.925 289.578 420.51 289.046 419.679C288.524 418.848 288.262 417.649 288.262 416.081C288.262 414.513 288.524 413.318 289.046 412.497C289.578 411.666 290.362 411.251 291.398 411.251ZM291.398 412.273C290.792 412.273 290.339 412.572 290.04 413.169C289.751 413.766 289.606 414.737 289.606 416.081C289.606 417.425 289.751 418.4 290.04 419.007C290.339 419.604 290.792 419.903 291.398 419.903C291.996 419.903 292.444 419.604 292.742 419.007C293.041 418.4 293.19 417.425 293.19 416.081C293.19 414.746 293.041 413.78 292.742 413.183C292.444 412.576 291.996 412.273 291.398 412.273Z" fill="#002033" fill-opacity="0.65"/>
<path d="M264.026 450.757C264.026 448.548 265.817 446.757 268.026 446.757H300.026C302.236 446.757 304.026 448.548 304.026 450.757V482.757C304.026 484.966 302.236 486.757 300.026 486.757H268.026C265.817 486.757 264.026 484.966 264.026 482.757V450.757Z" fill="white" fill-opacity="0.12"/>
<path d="M264.526 450.757C264.526 448.824 266.093 447.257 268.026 447.257H300.026C301.959 447.257 303.526 448.824 303.526 450.757V482.757C303.526 484.69 301.959 486.257 300.026 486.257H268.026C266.093 486.257 264.526 484.69 264.526 482.757V450.757Z" stroke="#004166" stroke-opacity="0.1"/>
<path d="M277.713 497.391V506.757H276.425V498.763L274.241 500.093L273.681 499.183L276.579 497.391H277.713ZM283.154 497.251C284.19 497.251 284.969 497.666 285.492 498.497C286.024 499.318 286.29 500.513 286.29 502.081C286.29 503.649 286.024 504.848 285.492 505.679C284.969 506.51 284.19 506.925 283.154 506.925C282.118 506.925 281.334 506.51 280.802 505.679C280.279 504.848 280.018 503.649 280.018 502.081C280.018 500.513 280.279 499.318 280.802 498.497C281.334 497.666 282.118 497.251 283.154 497.251ZM283.154 498.273C282.547 498.273 282.095 498.572 281.796 499.169C281.507 499.766 281.362 500.737 281.362 502.081C281.362 503.425 281.507 504.4 281.796 505.007C282.095 505.604 282.547 505.903 283.154 505.903C283.751 505.903 284.199 505.604 284.498 505.007C284.797 504.4 284.946 503.425 284.946 502.081C284.946 500.746 284.797 499.78 284.498 499.183C284.199 498.576 283.751 498.273 283.154 498.273ZM290.961 497.251C291.997 497.251 292.776 497.666 293.299 498.497C293.831 499.318 294.097 500.513 294.097 502.081C294.097 503.649 293.831 504.848 293.299 505.679C292.776 506.51 291.997 506.925 290.961 506.925C289.925 506.925 289.141 506.51 288.609 505.679C288.086 504.848 287.825 503.649 287.825 502.081C287.825 500.513 288.086 499.318 288.609 498.497C289.141 497.666 289.925 497.251 290.961 497.251ZM290.961 498.273C290.354 498.273 289.901 498.572 289.603 499.169C289.313 499.766 289.169 500.737 289.169 502.081C289.169 503.425 289.313 504.4 289.603 505.007C289.901 505.604 290.354 505.903 290.961 505.903C291.558 505.903 292.006 505.604 292.305 505.007C292.603 504.4 292.753 503.425 292.753 502.081C292.753 500.746 292.603 499.78 292.305 499.183C292.006 498.576 291.558 498.273 290.961 498.273Z" fill="#002033" fill-opacity="0.65"/>
<path d="M264.026 536.757C264.026 534.548 265.817 532.757 268.026 532.757H300.026C302.236 532.757 304.026 534.548 304.026 536.757V568.757C304.026 570.966 302.236 572.757 300.026 572.757H268.026C265.817 572.757 264.026 570.966 264.026 568.757V536.757Z" fill="white" fill-opacity="0.06"/>
<path d="M264.526 536.757C264.526 534.824 266.093 533.257 268.026 533.257H300.026C301.959 533.257 303.526 534.824 303.526 536.757V568.757C303.526 570.69 301.959 572.257 300.026 572.257H268.026C266.093 572.257 264.526 570.69 264.526 568.757V536.757Z" stroke="#004166" stroke-opacity="0.1"/>
<path d="M282.496 584.399H278.842V587.157C279.318 586.914 279.818 586.793 280.34 586.793C281.143 586.793 281.787 587.059 282.272 587.591C282.758 588.114 283 588.837 283 589.761C283 590.377 282.865 590.928 282.594 591.413C282.324 591.889 281.941 592.262 281.446 592.533C280.961 592.794 280.396 592.925 279.752 592.925C279.183 592.925 278.674 592.827 278.226 592.631C277.778 592.426 277.363 592.127 276.98 591.735L277.736 590.993C278.035 591.292 278.343 591.516 278.66 591.665C278.978 591.805 279.337 591.875 279.738 591.875C280.336 591.875 280.802 591.688 281.138 591.315C281.484 590.942 281.656 590.414 281.656 589.733C281.656 589.052 281.502 588.557 281.194 588.249C280.886 587.941 280.471 587.787 279.948 587.787C279.706 587.787 279.482 587.815 279.276 587.871C279.071 587.918 278.852 587.997 278.618 588.109H277.61V583.391H282.678L282.496 584.399ZM287.536 583.251C288.572 583.251 289.351 583.666 289.874 584.497C290.406 585.318 290.672 586.513 290.672 588.081C290.672 589.649 290.406 590.848 289.874 591.679C289.351 592.51 288.572 592.925 287.536 592.925C286.5 592.925 285.716 592.51 285.184 591.679C284.661 590.848 284.4 589.649 284.4 588.081C284.4 586.513 284.661 585.318 285.184 584.497C285.716 583.666 286.5 583.251 287.536 583.251ZM287.536 584.273C286.929 584.273 286.477 584.572 286.178 585.169C285.889 585.766 285.744 586.737 285.744 588.081C285.744 589.425 285.889 590.4 286.178 591.007C286.477 591.604 286.929 591.903 287.536 591.903C288.133 591.903 288.581 591.604 288.88 591.007C289.179 590.4 289.328 589.425 289.328 588.081C289.328 586.746 289.179 585.78 288.88 585.183C288.581 584.576 288.133 584.273 287.536 584.273Z" fill="#002033" fill-opacity="0.65"/>
<path d="M264.026 622.757C264.026 620.548 265.817 618.757 268.026 618.757H300.026C302.236 618.757 304.026 620.548 304.026 622.757V654.757C304.026 656.966 302.236 658.757 300.026 658.757H268.026C265.817 658.757 264.026 656.966 264.026 654.757V622.757Z" fill="white" fill-opacity="0.03"/>
<path d="M264.526 622.757C264.526 620.824 266.093 619.257 268.026 619.257H300.026C301.959 619.257 303.526 620.824 303.526 622.757V654.757C303.526 656.69 301.959 658.257 300.026 658.257H268.026C266.093 658.257 264.526 656.69 264.526 654.757V622.757Z" stroke="#004166" stroke-opacity="0.1"/>
<path d="M280.246 669.251C280.806 669.251 281.296 669.363 281.716 669.587C282.145 669.811 282.476 670.119 282.71 670.511C282.943 670.894 283.06 671.328 283.06 671.813C283.06 672.382 282.929 672.928 282.668 673.451C282.416 673.974 282.024 674.538 281.492 675.145C280.96 675.752 280.152 676.596 279.07 677.679H283.284L283.13 678.757H277.6V677.735C278.85 676.438 279.737 675.49 280.26 674.893C280.782 674.286 281.156 673.759 281.38 673.311C281.604 672.863 281.716 672.382 281.716 671.869C281.716 671.384 281.576 671.006 281.296 670.735C281.016 670.455 280.642 670.315 280.176 670.315C279.793 670.315 279.457 670.394 279.168 670.553C278.878 670.712 278.57 670.973 278.244 671.337L277.404 670.665C277.786 670.189 278.211 669.834 278.678 669.601C279.144 669.368 279.667 669.251 280.246 669.251ZM289.865 670.399H286.211V673.157C286.687 672.914 287.187 672.793 287.709 672.793C288.512 672.793 289.156 673.059 289.641 673.591C290.127 674.114 290.369 674.837 290.369 675.761C290.369 676.377 290.234 676.928 289.963 677.413C289.693 677.889 289.31 678.262 288.815 678.533C288.33 678.794 287.765 678.925 287.121 678.925C286.552 678.925 286.043 678.827 285.595 678.631C285.147 678.426 284.732 678.127 284.349 677.735L285.105 676.993C285.404 677.292 285.712 677.516 286.029 677.665C286.347 677.805 286.706 677.875 287.107 677.875C287.705 677.875 288.171 677.688 288.507 677.315C288.853 676.942 289.025 676.414 289.025 675.733C289.025 675.052 288.871 674.557 288.563 674.249C288.255 673.941 287.84 673.787 287.317 673.787C287.075 673.787 286.851 673.815 286.645 673.871C286.44 673.918 286.221 673.997 285.987 674.109H284.979V669.391H290.047L289.865 670.399Z" fill="#002033" fill-opacity="0.65"/>
</g>
<defs>
<filter id="filter0_dd_239_1532" x="0.526367" y="0.75708" width="369" height="708" filterUnits="userSpaceOnUse" color-interpolation-filters="sRGB">
<feFlood flood-opacity="0" result="BackgroundImageFix"/>
<feColorMatrix in="SourceAlpha" type="matrix" values="0 0 0 0 0 0 0 0 0 0 0 0 0 0 0 0 0 0 127 0" result="hardAlpha"/>
<feMorphology radius="2" operator="erode" in="SourceAlpha" result="effect1_dropShadow_239_1532"/>
<feOffset dy="4"/>
<feGaussianBlur stdDeviation="4"/>
<feComposite in2="hardAlpha" operator="out"/>
<feColorMatrix type="matrix" values="0 0 0 0 0.0784314 0 0 0 0 0.317647 0 0 0 0 0.454902 0 0 0 0.04 0"/>
<feBlend mode="normal" in2="BackgroundImageFix" result="effect1_dropShadow_239_1532"/>
<feColorMatrix in="SourceAlpha" type="matrix" values="0 0 0 0 0 0 0 0 0 0 0 0 0 0 0 0 0 0 127 0" result="hardAlpha"/>
<feMorphology radius="2" operator="erode" in="SourceAlpha" result="effect2_dropShadow_239_1532"/>
<feOffset dy="-4"/>
<feGaussianBlur stdDeviation="2"/>
<feComposite in2="hardAlpha" operator="out"/>
<feColorMatrix type="matrix" values="0 0 0 0 0.0784314 0 0 0 0 0.317647 0 0 0 0 0.454902 0 0 0 0.04 0"/>
<feBlend mode="normal" in2="effect1_dropShadow_239_1532" result="effect2_dropShadow_239_1532"/>
<feBlend mode="normal" in="SourceGraphic" in2="effect2_dropShadow_239_1532" result="shape"/>
</filter>
</defs>
</svg>
