<svg width="32" height="33" viewBox="0 0 32 33" fill="none" xmlns="http://www.w3.org/2000/svg">
<path fill-rule="evenodd" clip-rule="evenodd" d="M10.5 8.42969C10.5 5.39212 12.9624 2.92969 16 2.92969C19.0376 2.92969 21.5 5.39212 21.5 8.42969C21.5 11.4673 19.0376 13.9297 16 13.9297C12.9624 13.9297 10.5 11.4673 10.5 8.42969Z" fill="#737F86"/>
<path fill-rule="evenodd" clip-rule="evenodd" d="M18.289 19.9297H31.6024L26.7111 29.9297H13.3977L18.289 19.9297Z" fill="#737F86"/>
<path fill-rule="evenodd" clip-rule="evenodd" d="M10 27.9297H16V29.9297H10V27.9297Z" fill="#737F86"/>
<path d="M16 15.9297C9.40609 15.9297 4 21.1439 4 27.6486V28.3839L4.70706 28.556C5.80456 28.8231 6.90223 29.0512 8 29.2404V27.9298C8 26.8252 8.89543 25.9298 10 25.9298H13.1277L16.4924 19.051C16.828 18.3649 17.5251 17.9298 18.2889 17.9298H22.7056C20.7872 16.6658 18.4774 15.9297 16 15.9297Z" fill="#737F86"/>
</svg>
