<svg width="33" height="33" viewBox="0 0 33 33" fill="none" xmlns="http://www.w3.org/2000/svg">
<g clip-path="url(#clip0_860_2161)">
<path fill-rule="evenodd" clip-rule="evenodd" d="M11 8.42969C11 5.39212 13.4624 2.92969 16.5 2.92969C19.5376 2.92969 22 5.39212 22 8.42969C22 11.4673 19.5376 13.9297 16.5 13.9297C13.4624 13.9297 11 11.4673 11 8.42969Z" fill="#737F86"/>
<path fill-rule="evenodd" clip-rule="evenodd" d="M18.789 19.9297H32.1024L27.2111 29.9297H13.8977L18.789 19.9297Z" fill="#737F86"/>
<path fill-rule="evenodd" clip-rule="evenodd" d="M10.5 27.9297H16.5V29.9297H10.5V27.9297Z" fill="#737F86"/>
<path d="M16.5 15.9297C9.90609 15.9297 4.5 21.1439 4.5 27.6486V28.3839L5.20706 28.556C6.30456 28.8231 7.40223 29.0512 8.5 29.2404V27.9298C8.5 26.8252 9.39543 25.9298 10.5 25.9298H13.6277L16.9924 19.051C17.328 18.3649 18.0251 17.9298 18.7889 17.9298H23.2056C21.2872 16.6658 18.9774 15.9297 16.5 15.9297Z" fill="#737F86"/>
</g>
<defs>
<clipPath id="clip0_860_2161">
<rect width="32" height="32" fill="white" transform="translate(0.5 0.929688)"/>
</clipPath>
</defs>
</svg>
