<svg width="33" height="33" viewBox="0 0 33 33" fill="none" xmlns="http://www.w3.org/2000/svg">
<g clip-path="url(#clip0_860_2201)">
<path d="M25.5 17.9297C29.366 17.9297 32.5 14.7957 32.5 10.9297C32.5 7.06369 29.366 3.92969 25.5 3.92969C21.634 3.92969 18.5 7.06369 18.5 10.9297C18.5 14.7957 21.634 17.9297 25.5 17.9297Z" fill="#737F86"/>
<path d="M18.5 18.9297H8.5C7.94772 18.9297 7.5 19.3774 7.5 19.9297V29.9297C7.5 30.482 7.94772 30.9297 8.5 30.9297H18.5C19.0523 30.9297 19.5 30.482 19.5 29.9297V19.9297C19.5 19.3774 19.0523 18.9297 18.5 18.9297Z" fill="#737F86"/>
<path d="M16 14.9298H1C0.910749 14.9298 0.823123 14.9059 0.746221 14.8606C0.66932 14.8153 0.605946 14.7502 0.562679 14.6721C0.519412 14.5941 0.49783 14.5059 0.500172 14.4166C0.502515 14.3274 0.528697 14.2404 0.576001 14.1648L8.076 2.16476C8.12406 2.09707 8.18764 2.04187 8.2614 2.00377C8.33517 1.96568 8.41698 1.9458 8.5 1.9458C8.58302 1.9458 8.66484 1.96568 8.7386 2.00377C8.81237 2.04187 8.87594 2.09707 8.924 2.16476L16.424 14.1648C16.4713 14.2404 16.4975 14.3274 16.4998 14.4166C16.5022 14.5059 16.4806 14.5941 16.4373 14.6721C16.3941 14.7502 16.3307 14.8153 16.2538 14.8606C16.1769 14.9059 16.0893 14.9298 16 14.9298Z" fill="#737F86"/>
</g>
<defs>
<clipPath id="clip0_860_2201">
<rect width="32" height="32" fill="white" transform="translate(0.5 0.929688)"/>
</clipPath>
</defs>
</svg>
