<svg width="32" height="33" viewBox="0 0 32 33" fill="none" xmlns="http://www.w3.org/2000/svg">
<path d="M7.99999 25.9294C7.864 25.9296 7.7294 25.902 7.60441 25.8484C7.47943 25.7948 7.36669 25.7163 7.27309 25.6177C7.17949 25.519 7.10699 25.4023 7.06004 25.2747C7.01308 25.147 6.99265 25.0112 6.99999 24.8754C7.05399 23.8954 7.39999 18.9214 9.02199 17.2984C9.89827 16.4222 11.0867 15.9301 12.3258 15.9302C13.565 15.9303 14.7534 16.4226 15.6295 17.2989C16.5056 18.1752 16.9978 19.3636 16.9977 20.6027C16.9976 21.8419 16.5053 23.0302 15.629 23.9064C14.008 25.5294 9.03499 25.8744 8.05399 25.9294C8.03601 25.9304 8.01798 25.9304 7.99999 25.9294Z" fill="#737F86"/>
<path d="M29 11.7077V29.9297H3V3.92969H21.222L23.222 1.92969H2C1.73478 1.92969 1.48043 2.03504 1.29289 2.22258C1.10536 2.41012 1 2.66447 1 2.92969V30.9297C1 31.1949 1.10536 31.4493 1.29289 31.6368C1.48043 31.8243 1.73478 31.9297 2 31.9297H30C30.2652 31.9297 30.5196 31.8243 30.7071 31.6368C30.8946 31.4493 31 31.1949 31 30.9297V9.70769L29 11.7077Z" fill="#737F86"/>
<path d="M29.975 2.95445C29.65 2.62941 29.2641 2.37157 28.8395 2.19566C28.4148 2.01974 27.9596 1.9292 27.5 1.9292C27.0403 1.9292 26.5852 2.01974 26.1605 2.19566C25.7359 2.37157 25.35 2.62941 25.025 2.95445L13.865 14.1145C15.0695 14.3961 16.1712 15.0093 17.0453 15.8847C17.9194 16.76 18.531 17.8625 18.811 19.0675L29.975 7.90445C30.3 7.57944 30.5579 7.19359 30.7338 6.76893C30.9097 6.34426 31.0002 5.88911 31.0002 5.42945C31.0002 4.9698 30.9097 4.51464 30.7338 4.08998C30.5579 3.66531 30.3 3.27946 29.975 2.95445Z" fill="#737F86"/>
</svg>
