<svg width="33" height="33" viewBox="0 0 33 33" fill="none" xmlns="http://www.w3.org/2000/svg">
<g clip-path="url(#clip0_860_2289)">
<path d="M0.5 16.9297C0.5 23.2297 4.2 28.7297 9.5 31.3297L1.9 10.4297C1 12.4297 0.5 14.6297 0.5 16.9297Z" fill="#737F86"/>
<path d="M27.3001 16.1297C27.3001 14.1297 26.6001 12.8297 26.0001 11.7297C25.2001 10.4297 24.4001 9.32969 24.4001 7.92969C24.4001 6.42969 25.5001 5.12969 27.1001 5.12969C27.2001 5.12969 27.2001 5.12969 27.3001 5.12969C24.5001 2.52969 20.7001 0.929688 16.5001 0.929688C10.9001 0.929688 6.0001 3.82969 3.1001 8.12969C3.5001 8.12969 3.8001 8.12969 4.1001 8.12969C5.8001 8.12969 8.4001 7.92969 8.4001 7.92969C9.3001 7.92969 9.4001 9.12969 8.5001 9.22969C8.5001 9.22969 7.6001 9.32969 6.7001 9.42969L12.5001 26.7297L16.0001 16.2297L13.5001 9.42969C12.6001 9.32969 11.8001 9.22969 11.8001 9.22969C11.0001 9.22969 11.1001 7.92969 12.0001 7.92969C12.0001 7.92969 14.6001 8.12969 16.2001 8.12969C17.9001 8.12969 20.5001 7.92969 20.5001 7.92969C21.4001 7.82969 21.5001 9.12969 20.6001 9.22969C20.6001 9.22969 19.7001 9.32969 18.8001 9.42969L24.5001 26.6297L26.1001 21.3297C26.8001 19.1297 27.3001 17.5297 27.3001 16.1297Z" fill="#737F86"/>
<path d="M16.8 18.3296L12 32.2296C13.4 32.6296 14.9 32.9296 16.5 32.9296C18.4 32.9296 20.2 32.6296 21.8 32.0296C21.8 31.9296 21.7 31.9296 21.7 31.8296L16.8 18.3296Z" fill="#737F86"/>
<path d="M30.5 9.22949C30.6 9.72949 30.6 10.3295 30.6 10.8295C30.6 12.4295 30.3 14.2295 29.4 16.5295L24.5 30.7295C29.3 27.9295 32.5 22.8295 32.5 16.9295C32.5 14.1295 31.8 11.5295 30.5 9.22949Z" fill="#737F86"/>
</g>
<defs>
<clipPath id="clip0_860_2289">
<rect width="32" height="32" fill="white" transform="translate(0.5 0.929688)"/>
</clipPath>
</defs>
</svg>
